<svg xmlns="http://www.w3.org/2000/svg" width="96.599" height="95" viewBox="0 0 96.599 95">
  <g id="android-studio-icon" transform="translate(-110.845 -82.715)">
    <path id="Trazado_1058095" data-name="Trazado 1058095" d="M314.728,209.01a1.837,1.837,0,1,1,2.456.849A1.835,1.835,0,0,1,314.728,209.01Zm8.882,18.256a1.837,1.837,0,1,1,2.456.849A1.835,1.835,0,0,1,323.61,227.266Zm.776-23.688a21.67,21.67,0,0,0-20.521-2.519l19.288,39.662a21.682,21.682,0,0,0,10.681-17.7l7.321.521a.764.764,0,1,0,.1-1.525l-7.413-.53a23.056,23.056,0,0,0-8.252-16.978l4.163-6.162a.762.762,0,1,0-1.26-.858l-4.108,6.081" transform="translate(-134.524 -79.759)" fill="#3ddc84"/>
    <path id="Trazado_1058096" data-name="Trazado 1058096" d="M172.079,138.753A40.091,40.091,0,0,1,121.2,124.641a1.825,1.825,0,0,0-2.61-.465l-7,5.157a1.844,1.844,0,0,0-.421,2.52,52.456,52.456,0,0,0,66.281,18.018ZM150.839,94.874h7.576V86.5a3.788,3.788,0,0,0-7.576,0Z" transform="translate(0 0)" fill="#4285f4"/>
    <path id="Trazado_1058097" data-name="Trazado 1058097" d="M160.473,176.729l-26.043,53.6a8.882,8.882,0,0,0-.895,3.706l-.155,7.02a2.123,2.123,0,0,0,3.469,1.689l5.422-4.455a8.893,8.893,0,0,0,2.364-2.993L170.3,182.452l-9.823-5.714Zm46.663,57.3a8.97,8.97,0,0,0-.895-3.706l-26.042-53.6-9.823,5.733,25.669,52.825a8.984,8.984,0,0,0,2.364,2.994l5.422,4.455a2.122,2.122,0,0,0,3.469-1.689l-.155-7.02Z" transform="translate(-15.705 -65.515)" fill="#4285f4"/>
    <path id="Trazado_1058098" data-name="Trazado 1058098" d="M229.174,120.635A11.365,11.365,0,1,0,240.538,132,11.378,11.378,0,0,0,229.174,120.635Zm0,17.617A6.253,6.253,0,1,1,235.427,132,6.262,6.262,0,0,1,229.174,138.252Z" transform="translate(-74.548 -26.428)" fill="#073042"/>
  </g>
</svg>
