<svg xmlns="http://www.w3.org/2000/svg" xmlns:xlink="http://www.w3.org/1999/xlink" width="90" height="90" viewBox="0 0 90 90">
  <defs>
    <linearGradient id="linear-gradient" x1="3.133" y1="8.259" x2="3.133" y2="8.242" gradientUnits="objectBoundingBox">
      <stop offset="0" stop-color="#19e6ff"/>
      <stop offset="1" stop-color="#1e51ee"/>
    </linearGradient>
  </defs>
  <g id="apple-app-store" transform="translate(-5 -5)">
    <path id="Trazado_1059566" data-name="Trazado 1059566" d="M63.6,5c9,0,13.5,0,18.4,1.5A18.92,18.92,0,0,1,93.4,17.9C95,22.8,95,27.4,95,36.4V63.6c0,9,0,13.5-1.5,18.4A18.92,18.92,0,0,1,82.1,93.4C77.1,95,72.6,95,63.6,95H36.4c-9,0-13.5,0-18.4-1.5A19.238,19.238,0,0,1,6.5,82C5,77.2,5,72.7,5,63.6V36.4c0-9,0-13.5,1.5-18.4A19.079,19.079,0,0,1,18,6.6C22.8,5,27.3,5,36.4,5Z" fill="url(#linear-gradient)"/>
    <path id="Trazado_1059567" data-name="Trazado 1059567" d="M25.3,68.3a1,1,0,0,1,.5-.4,10.039,10.039,0,0,1,2.4-.4A8.714,8.714,0,0,1,34,69.7a.616.616,0,0,1,.1.7l-4.1,7a4.406,4.406,0,0,1-3.8,2.2,4.317,4.317,0,0,1-2.6-.9,4.478,4.478,0,0,1-1.1-5.8ZM78.6,57.6a4.459,4.459,0,0,1,4.5,3.9,4.4,4.4,0,0,1-4.3,4.8H73.5L77.4,73a4.478,4.478,0,0,1-1.1,5.8,4.317,4.317,0,0,1-2.6.9,4.406,4.406,0,0,1-3.8-2.2L60.5,61.2,53.1,48.4c-.1-.1-.1-.2-.1-.4,0-.5-.1-1-.1-1.5a20.035,20.035,0,0,1,2.4-9.8.563.563,0,0,1,.9,0L68.4,57.5H78.6Zm-23,.2a7.6,7.6,0,0,1,3.6,6.6,9.852,9.852,0,0,1-.2,1.7c0,.1-.2.2-.3.2H21.4a4.352,4.352,0,1,1,.2-8.7h9.9L45,34.4l-3.7-6.3a4.261,4.261,0,0,1,2-6.1A4.643,4.643,0,0,1,49,23.9l1.1,1.9,1.2-2a4.333,4.333,0,1,1,7.4,4.5L41.5,57.6H54.9a1.445,1.445,0,0,1,.7.2Z" fill="#fff"/>
  </g>
</svg>
