<svg xmlns="http://www.w3.org/2000/svg" xmlns:xlink="http://www.w3.org/1999/xlink" width="106.16" height="106.161" viewBox="0 0 106.16 106.161">
  <defs>
    <filter id="Trazado_982547" x="0" y="0" width="106.16" height="106.161" filterUnits="userSpaceOnUse">
      <feOffset dy="3" input="SourceAlpha"/>
      <feGaussianBlur stdDeviation="3" result="blur"/>
      <feFlood flood-opacity="0.161"/>
      <feComposite operator="in" in2="blur"/>
      <feComposite in="SourceGraphic"/>
    </filter>
  </defs>
  <g id="Grupo_1233222" data-name="Grupo 1233222" transform="translate(-190.5 -4423.914)">
    <g id="Grupo_1232498" data-name="Grupo 1232498" transform="translate(-629.75 -2849.501)">
      <g id="Grupo_1230692" data-name="Grupo 1230692" transform="translate(-0.25 3811.95)">
        <g id="Grupo_1224852" data-name="Grupo 1224852" transform="translate(629.5 1738.464)">
          <g id="Grupo_1206130" data-name="Grupo 1206130" transform="translate(0 -59)">
            <g id="Grupo_1203672" data-name="Grupo 1203672" transform="translate(0.08 -4797.878)">
              <g id="Grupo_1203344" data-name="Grupo 1203344" transform="translate(-81.08 5174.875)">
                <g id="Grupo_1177900" data-name="Grupo 1177900" transform="translate(281 1411.003)">
                  <g id="Grupo_1172010" data-name="Grupo 1172010" transform="translate(0)">
                    <g id="Grupo_1171046" data-name="Grupo 1171046">
                      <g id="Grupo_1148525" data-name="Grupo 1148525">
                        <g transform="matrix(1, 0, 0, 1, -9, -6)" filter="url(#Trazado_982547)">
                          <g id="Trazado_982547-2" data-name="Trazado 982547" transform="translate(9 6)" fill="#e5ebfb">
                            <path d="M 44.0802001953125 86.660400390625 C 38.33124923706055 86.660400390625 32.75506210327148 85.53479766845703 27.50652503967285 83.31484985351562 C 22.43628692626953 81.17032623291016 17.88242530822754 78.09992218017578 13.97144985198975 74.18894958496094 C 10.06047534942627 70.27797698974609 6.99007511138916 65.72411346435547 4.845550060272217 60.65387344360352 C 2.625600099563599 55.40533828735352 1.500000238418579 49.82915115356445 1.500000238418579 44.0802001953125 C 1.500000238418579 38.33124923706055 2.625600099563599 32.75506210327148 4.845550060272217 27.50652503967285 C 6.99007511138916 22.43628692626953 10.06047534942627 17.88242530822754 13.97144985198975 13.97144985198975 C 17.88242530822754 10.06047534942627 22.43628692626953 6.99007511138916 27.50652503967285 4.845550060272217 C 32.75506210327148 2.625600099563599 38.33124923706055 1.500000238418579 44.0802001953125 1.500000238418579 C 49.82915115356445 1.500000238418579 55.40533828735352 2.625600099563599 60.65387344360352 4.845550060272217 C 65.72411346435547 6.99007511138916 70.27797698974609 10.06047534942627 74.18894958496094 13.97144985198975 C 78.09992218017578 17.88242530822754 81.17032623291016 22.43628692626953 83.31484985351562 27.50652503967285 C 85.53479766845703 32.75506210327148 86.660400390625 38.33124923706055 86.660400390625 44.0802001953125 C 86.660400390625 49.82915115356445 85.53479766845703 55.40533828735352 83.31484985351562 60.65387344360352 C 81.17032623291016 65.72411346435547 78.09992218017578 70.27797698974609 74.18894958496094 74.18894958496094 C 70.27797698974609 78.09992218017578 65.72411346435547 81.17032623291016 60.65387344360352 83.31484985351562 C 55.40533828735352 85.53479766845703 49.82915115356445 86.660400390625 44.0802001953125 86.660400390625 Z" stroke="none"/>
                            <path d="M 44.0802001953125 3 C 38.53308486938477 3 33.15349960327148 4.085746765136719 28.09085845947266 6.227058410644531 C 23.19941711425781 8.29595947265625 18.80581665039062 11.25841522216797 15.03211212158203 15.03211212158203 C 11.25841522216797 18.80581665039062 8.29595947265625 23.19941711425781 6.227058410644531 28.09085845947266 C 4.085746765136719 33.15349960327148 3 38.53308486938477 3 44.0802001953125 C 3 49.62731552124023 4.085746765136719 55.00691604614258 6.227058410644531 60.06954193115234 C 8.29595947265625 64.96098327636719 11.25841522216797 69.35458374023438 15.03211212158203 73.12828826904297 C 18.80581665039062 76.90198516845703 23.19941711425781 79.86444091796875 28.09085845947266 81.93334197998047 C 33.15349960327148 84.07466125488281 38.53308486938477 85.160400390625 44.0802001953125 85.160400390625 C 49.62731552124023 85.160400390625 55.00691604614258 84.07466125488281 60.06954193115234 81.93334197998047 C 64.96099853515625 79.86444091796875 69.35458374023438 76.90198516845703 73.12828826904297 73.12828826904297 C 76.90198516845703 69.35458374023438 79.86444091796875 64.96099853515625 81.93334197998047 60.06954193115234 C 84.07466125488281 55.00691604614258 85.160400390625 49.62731552124023 85.160400390625 44.0802001953125 C 85.160400390625 38.53308486938477 84.07466125488281 33.15349960327148 81.93334197998047 28.09085845947266 C 79.86444091796875 23.19941711425781 76.90198516845703 18.80581665039062 73.12828826904297 15.03211212158203 C 69.35458374023438 11.25841522216797 64.96098327636719 8.29595947265625 60.06954193115234 6.227058410644531 C 55.00691604614258 4.085746765136719 49.62731552124023 3 44.0802001953125 3 M 44.0802001953125 0 C 68.42502593994141 0 88.160400390625 19.73538970947266 88.160400390625 44.0802001953125 C 88.160400390625 68.42502593994141 68.42502593994141 88.160400390625 44.0802001953125 88.160400390625 C 19.73538970947266 88.160400390625 0 68.42502593994141 0 44.0802001953125 C 0 19.73538970947266 19.73538970947266 0 44.0802001953125 0 Z" stroke="none" fill="#98b4f2"/>
                          </g>
                        </g>
                      </g>
                    </g>
                  </g>
                </g>
              </g>
            </g>
          </g>
        </g>
      </g>
    </g>
    <g id="proteger_1_" data-name="proteger (1)" transform="translate(213.445 4445.298)">
      <path id="Trazado_1231391" data-name="Trazado 1231391" d="M91.782,284.46,80,292.348l-3.513-.2-.137-1.383a4.488,4.488,0,0,0-3.837-4l-12.462-1.092c-1.221-.173-3.79-1.531-5.8-2.686a12.817,12.817,0,0,0-6.268-1.7l-6.336-.052v15.49l17.935,6.792a4.874,4.874,0,0,0,2.085.138l.012,0,18.057-2.6a7.992,7.992,0,0,0,3.79-1.7l11.671-10.5a2.786,2.786,0,0,0-3.4-4.4Zm0,0" transform="translate(-36.735 -247.689)" fill="#fae0c1"/>
      <path id="Trazado_1231392" data-name="Trazado 1231392" d="M95.64,312.559a2.779,2.779,0,0,0-.255-.321l-11.869,8.716a7.989,7.989,0,0,1-3.79,1.7l-18.057,2.6-.012,0a4.882,4.882,0,0,1-2.085-.139l-17.935-6.791v5.751l17.935,6.792a4.875,4.875,0,0,0,2.085.138l.012,0,18.057-2.6a7.991,7.991,0,0,0,3.79-1.7l11.671-10.5A2.787,2.787,0,0,0,95.64,312.559Zm0,0" transform="translate(-36.735 -275.043)" fill="#efd0af"/>
      <path id="Trazado_1231393" data-name="Trazado 1231393" d="M16.158,269.47H8.707a1.219,1.219,0,0,1-1.219-1.219V245.5a1.219,1.219,0,0,1,1.219-1.219h7.45a1.219,1.219,0,0,1,1.219,1.219v22.748A1.219,1.219,0,0,1,16.158,269.47Zm0,0" transform="translate(-6.606 -215.089)" fill="#f43b45"/>
      <path id="Trazado_1231394" data-name="Trazado 1231394" d="M47.241,244.285H42.719V269.47h4.522a1.219,1.219,0,0,0,1.219-1.219V245.5A1.219,1.219,0,0,0,47.241,244.285Zm0,0" transform="translate(-37.69 -215.089)" fill="#cf3735"/>
      <path id="Trazado_1231395" data-name="Trazado 1231395" d="M151.9,15.882a8.624,8.624,0,0,1-5.282-7.214.852.852,0,0,0-.856-.774l-8.953.052h-.182L127.678,8a.858.858,0,0,0-.848.8,8.625,8.625,0,0,1-5.2,7.266,1.231,1.231,0,0,0-.738,1.261c.411,3.93,2.8,17.311,15.852,23.33a.405.405,0,0,0,.174.038.412.412,0,0,0,.173-.04c12.975-6.171,15.212-19.578,15.577-23.514a1.237,1.237,0,0,0-.761-1.257Zm0,0" transform="translate(-106.651 -6.524)" fill="#75cff2"/>
      <path id="Trazado_1231396" data-name="Trazado 1231396" d="M250.245,15.882a8.624,8.624,0,0,1-5.282-7.214.852.852,0,0,0-.856-.774l-4.928.029a8.624,8.624,0,0,0,5.309,7.956,1.244,1.244,0,0,1,.767,1.259c-.338,3.648-2.287,15.439-12.911,22.056a26.858,26.858,0,0,0,2.738,1.46.413.413,0,0,0,.174.037.4.4,0,0,0,.173-.04c12.976-6.171,15.213-19.578,15.578-23.514a1.238,1.238,0,0,0-.761-1.257Zm0,0" transform="translate(-204.993 -6.524)" fill="#53b4e4"/>
      <path id="Trazado_1231397" data-name="Trazado 1231397" d="M163.007,61.9c-8.928-4.846-11.517-13.834-12.26-18.244a.472.472,0,0,1,.215-.48,11.54,11.54,0,0,0,5-6.562.474.474,0,0,1,.453-.339l13.348-.078a.473.473,0,0,1,.457.334,11.541,11.541,0,0,0,5.073,6.5.471.471,0,0,1,.221.477c-.69,4.419-3.173,13.437-12.044,18.386a.477.477,0,0,1-.458,0Zm0,0" transform="translate(-132.996 -31.491)" fill="#e1e0de"/>
      <path id="Trazado_1231398" data-name="Trazado 1231398" d="M247.145,43.028a11.543,11.543,0,0,1-5.073-6.5.473.473,0,0,0-.457-.334l-5.382.031a11.54,11.54,0,0,0,5.161,6.806.47.47,0,0,1,.22.476c-.617,3.949-2.666,11.574-9.431,16.683a22.579,22.579,0,0,0,2.679,1.706.477.477,0,0,0,.458,0c8.871-4.949,11.354-13.967,12.044-18.387a.471.471,0,0,0-.221-.477Zm0,0" transform="translate(-204.852 -31.49)" fill="#d6d6d6"/>
      <path id="Trazado_1231399" data-name="Trazado 1231399" d="M33.556,393.908a2.241,2.241,0,1,1-2.241-2.241A2.241,2.241,0,0,1,33.556,393.908Zm0,0" transform="translate(-25.651 -345.123)" fill="#ededed"/>
      <path id="Trazado_1231400" data-name="Trazado 1231400" d="M217.526,100.837a.892.892,0,0,0,1.344-.153l5.876-8.868a.883.883,0,1,0-1.472-.976l-5.3,7.992-2.942-2.794a.883.883,0,0,0-1.216,1.281l3.705,3.518Zm0,0" transform="translate(-188.408 -79.358)"/>
      <path id="Trazado_1231401" data-name="Trazado 1231401" d="M129.764,34.945a1.308,1.308,0,0,0,.541.118h.007a1.292,1.292,0,0,0,.548-.125c13.425-6.385,15.7-20.16,16.077-24.23a2.11,2.11,0,0,0-1.3-2.153,7.716,7.716,0,0,1-4.741-6.475A1.744,1.744,0,0,0,139.164.5h-.011L121.067.606a1.73,1.73,0,0,0-1.722,1.612,7.717,7.717,0,0,1-4.672,6.522A2.1,2.1,0,0,0,113.4,10.9c.425,4.065,2.861,17.813,16.36,24.04Zm-14.4-24.582A9.475,9.475,0,0,0,121.1,2.371l18.034-.106a9.476,9.476,0,0,0,5.821,7.92.355.355,0,0,1,.221.36c-.354,3.814-2.472,16.675-14.877,22.7-12.476-5.88-14.744-18.716-15.143-22.526a.348.348,0,0,1,.208-.358Zm0,0" transform="translate(-100.044 0)"/>
      <path id="Trazado_1231402" data-name="Trazado 1231402" d="M143.914,40.223a.931.931,0,0,0,1.084.62.884.884,0,0,0,.62-1.083c-.225-.829-.414-1.669-.562-2.5a12.416,12.416,0,0,0,5.052-6.62l12.75-.075a12.415,12.415,0,0,0,5.129,6.56c-.138.835-.318,1.677-.533,2.509a.883.883,0,1,0,1.71.443c.253-.977.459-1.968.612-2.947a1.35,1.35,0,0,0-.636-1.369,10.655,10.655,0,0,1-4.686-6.006,1.365,1.365,0,0,0-1.3-.958h-.008l-13.348.078a1.366,1.366,0,0,0-1.294.973,10.655,10.655,0,0,1-4.615,6.061,1.35,1.35,0,0,0-.62,1.377c.165.976.382,1.964.646,2.937Zm0,0" transform="translate(-126.386 -24.966)"/>
      <path id="Trazado_1231403" data-name="Trazado 1231403" d="M181.9,147.6a.882.882,0,0,0-1.153.479,22.238,22.238,0,0,1-9.6,11.179,22.246,22.246,0,0,1-9.74-11.083.883.883,0,0,0-1.625.692,23.949,23.949,0,0,0,10.72,12.052,1.352,1.352,0,0,0,1.31-.007,23.942,23.942,0,0,0,10.57-12.158.882.882,0,0,0-.48-1.152Zm0,0" transform="translate(-140.908 -129.726)"/>
      <path id="Trazado_1231404" data-name="Trazado 1231404" d="M24.709,384.273a3.124,3.124,0,1,0,3.124,3.124A3.127,3.127,0,0,0,24.709,384.273Zm0,4.481a1.358,1.358,0,1,1,1.358-1.358A1.359,1.359,0,0,1,24.709,388.754Zm0,0" transform="translate(-19.045 -338.598)"/>
      <path id="Trazado_1231405" data-name="Trazado 1231405" d="M59.636,245.6a3.678,3.678,0,0,0-5.079-.982l-11.541,7.724-2.464-.138-.063-.631a5.358,5.358,0,0,0-4.592-4.787l-.046-.006-12.436-1.09c-.421-.066-1.768-.452-5.468-2.575a13.734,13.734,0,0,0-6.292-1.81v-2.31a2.1,2.1,0,0,0-2.1-2.1H2.1a2.1,2.1,0,0,0-2.1,2.1V261.74a2.1,2.1,0,0,0,2.1,2.1h7.45a2.1,2.1,0,0,0,2.1-2.1v-.627l10.871,4.117a6.079,6.079,0,0,0,2.53.186l18.063-2.6.013,0a8.881,8.881,0,0,0,4.209-1.886l.032-.028L59.039,250.4a3.678,3.678,0,0,0,.6-4.808Zm-1.774,3.491L46.209,259.569a7.114,7.114,0,0,1-3.349,1.5l-18.05,2.6-.016,0h-.009a3.965,3.965,0,0,1-1.672-.107l-11.459-4.339V249.143a.883.883,0,0,0-1.766,0v12.6a.337.337,0,0,1-.336.336H2.1a.337.337,0,0,1-.336-.336V238.993a.337.337,0,0,1,.336-.336h7.45a.337.337,0,0,1,.336.336v6.162a.883.883,0,0,0,1.766,0V243.07a11.958,11.958,0,0,1,5.413,1.575c4.463,2.56,5.71,2.736,6.12,2.794l.046.005,12.438,1.09a3.6,3.6,0,0,1,3.061,3.21l.047.47-16.651,1.028-.033,0a2.012,2.012,0,0,1-1.373-.719.883.883,0,1,0-1.356,1.131A3.823,3.823,0,0,0,21.938,255c.545.057,17.813-1.075,17.813-1.075l3.461.194a.88.88,0,0,0,.54-.148l11.789-7.889a1.9,1.9,0,0,1,2.321,3.007Zm0,0" transform="translate(0 -208.565)"/>
    </g>
  </g>
</svg>
