<svg xmlns="http://www.w3.org/2000/svg" xmlns:xlink="http://www.w3.org/1999/xlink" width="106.16" height="106.161" viewBox="0 0 106.16 106.161">
  <defs>
    <filter id="Trazado_982547" x="0" y="0" width="106.16" height="106.161" filterUnits="userSpaceOnUse">
      <feOffset dy="3" input="SourceAlpha"/>
      <feGaussianBlur stdDeviation="3" result="blur"/>
      <feFlood flood-opacity="0.161"/>
      <feComposite operator="in" in2="blur"/>
      <feComposite in="SourceGraphic"/>
    </filter>
  </defs>
  <g id="Grupo_1233223" data-name="Grupo 1233223" transform="translate(-610.5 -4423.914)">
    <g id="Grupo_1232499" data-name="Grupo 1232499" transform="translate(-209.75 -2849.501)">
      <g id="Grupo_1230692" data-name="Grupo 1230692" transform="translate(-0.25 3811.95)">
        <g id="Grupo_1224852" data-name="Grupo 1224852" transform="translate(629.5 1738.464)">
          <g id="Grupo_1206130" data-name="Grupo 1206130" transform="translate(0 -59)">
            <g id="Grupo_1203672" data-name="Grupo 1203672" transform="translate(0.08 -4797.878)">
              <g id="Grupo_1203344" data-name="Grupo 1203344" transform="translate(-81.08 5174.875)">
                <g id="Grupo_1177900" data-name="Grupo 1177900" transform="translate(281 1411.003)">
                  <g id="Grupo_1172010" data-name="Grupo 1172010" transform="translate(0)">
                    <g id="Grupo_1171046" data-name="Grupo 1171046">
                      <g id="Grupo_1148525" data-name="Grupo 1148525">
                        <g transform="matrix(1, 0, 0, 1, -9, -6)" filter="url(#Trazado_982547)">
                          <g id="Trazado_982547-2" data-name="Trazado 982547" transform="translate(9 6)" fill="#e5ebfb">
                            <path d="M 44.0802001953125 86.660400390625 C 38.33124923706055 86.660400390625 32.75506210327148 85.53479766845703 27.50652503967285 83.31484985351562 C 22.43628692626953 81.17032623291016 17.88242530822754 78.09992218017578 13.97144985198975 74.18894958496094 C 10.06047534942627 70.27797698974609 6.99007511138916 65.72411346435547 4.845550060272217 60.65387344360352 C 2.625600099563599 55.40533828735352 1.500000238418579 49.82915115356445 1.500000238418579 44.0802001953125 C 1.500000238418579 38.33124923706055 2.625600099563599 32.75506210327148 4.845550060272217 27.50652503967285 C 6.99007511138916 22.43628692626953 10.06047534942627 17.88242530822754 13.97144985198975 13.97144985198975 C 17.88242530822754 10.06047534942627 22.43628692626953 6.99007511138916 27.50652503967285 4.845550060272217 C 32.75506210327148 2.625600099563599 38.33124923706055 1.500000238418579 44.0802001953125 1.500000238418579 C 49.82915115356445 1.500000238418579 55.40533828735352 2.625600099563599 60.65387344360352 4.845550060272217 C 65.72411346435547 6.99007511138916 70.27797698974609 10.06047534942627 74.18894958496094 13.97144985198975 C 78.09992218017578 17.88242530822754 81.17032623291016 22.43628692626953 83.31484985351562 27.50652503967285 C 85.53479766845703 32.75506210327148 86.660400390625 38.33124923706055 86.660400390625 44.0802001953125 C 86.660400390625 49.82915115356445 85.53479766845703 55.40533828735352 83.31484985351562 60.65387344360352 C 81.17032623291016 65.72411346435547 78.09992218017578 70.27797698974609 74.18894958496094 74.18894958496094 C 70.27797698974609 78.09992218017578 65.72411346435547 81.17032623291016 60.65387344360352 83.31484985351562 C 55.40533828735352 85.53479766845703 49.82915115356445 86.660400390625 44.0802001953125 86.660400390625 Z" stroke="none"/>
                            <path d="M 44.0802001953125 3 C 38.53308486938477 3 33.15349960327148 4.085746765136719 28.09085845947266 6.227058410644531 C 23.19941711425781 8.29595947265625 18.80581665039062 11.25841522216797 15.03211212158203 15.03211212158203 C 11.25841522216797 18.80581665039062 8.29595947265625 23.19941711425781 6.227058410644531 28.09085845947266 C 4.085746765136719 33.15349960327148 3 38.53308486938477 3 44.0802001953125 C 3 49.62731552124023 4.085746765136719 55.00691604614258 6.227058410644531 60.06954193115234 C 8.29595947265625 64.96098327636719 11.25841522216797 69.35458374023438 15.03211212158203 73.12828826904297 C 18.80581665039062 76.90198516845703 23.19941711425781 79.86444091796875 28.09085845947266 81.93334197998047 C 33.15349960327148 84.07466125488281 38.53308486938477 85.160400390625 44.0802001953125 85.160400390625 C 49.62731552124023 85.160400390625 55.00691604614258 84.07466125488281 60.06954193115234 81.93334197998047 C 64.96099853515625 79.86444091796875 69.35458374023438 76.90198516845703 73.12828826904297 73.12828826904297 C 76.90198516845703 69.35458374023438 79.86444091796875 64.96099853515625 81.93334197998047 60.06954193115234 C 84.07466125488281 55.00691604614258 85.160400390625 49.62731552124023 85.160400390625 44.0802001953125 C 85.160400390625 38.53308486938477 84.07466125488281 33.15349960327148 81.93334197998047 28.09085845947266 C 79.86444091796875 23.19941711425781 76.90198516845703 18.80581665039062 73.12828826904297 15.03211212158203 C 69.35458374023438 11.25841522216797 64.96098327636719 8.29595947265625 60.06954193115234 6.227058410644531 C 55.00691604614258 4.085746765136719 49.62731552124023 3 44.0802001953125 3 M 44.0802001953125 0 C 68.42502593994141 0 88.160400390625 19.73538970947266 88.160400390625 44.0802001953125 C 88.160400390625 68.42502593994141 68.42502593994141 88.160400390625 44.0802001953125 88.160400390625 C 19.73538970947266 88.160400390625 0 68.42502593994141 0 44.0802001953125 C 0 19.73538970947266 19.73538970947266 0 44.0802001953125 0 Z" stroke="none" fill="#98b4f2"/>
                          </g>
                        </g>
                      </g>
                    </g>
                  </g>
                </g>
              </g>
            </g>
          </g>
        </g>
      </g>
    </g>
    <g id="documento" transform="translate(639.23 4447.815)">
      <path id="Trazado_1231406" data-name="Trazado 1231406" d="M6,2H38.488V47.483H6Z" transform="translate(-0.939 -0.188)" fill="#8892a0"/>
      <path id="Trazado_1231407" data-name="Trazado 1231407" d="M46,46h3.249V58.183H46Z" transform="translate(-8.451 -8.451)" fill="#c18e59"/>
      <path id="Trazado_1231408" data-name="Trazado 1231408" d="M46,45h3.249v4.061H46Z" transform="translate(-8.451 -8.263)" fill="#976947"/>
      <path id="Trazado_1231409" data-name="Trazado 1231409" d="M2,51.483H34.488V12.5h-6.5V6H2Z" transform="translate(-0.188 -0.939)" fill="#b8cbd9"/>
      <path id="Trazado_1231410" data-name="Trazado 1231410" d="M2,42.751C14.975,39.929,24.742,27.639,24.742,12.9A32.619,32.619,0,0,0,24,6H2Z" transform="translate(-0.188 -0.939)" fill="#e8eff4"/>
      <path id="Trazado_1231411" data-name="Trazado 1231411" d="M40.5,12.5,34,6v6.5Z" transform="translate(-6.197 -0.939)" fill="#e8eff4"/>
      <circle id="Elipse_14583" data-name="Elipse 14583" cx="11.5" cy="11.5" r="11.5" transform="translate(28 15)" fill="#a1cdfb"/>
      <circle id="Elipse_14584" data-name="Elipse 14584" cx="8" cy="8" r="8" transform="translate(31 18)" fill="#ebf7fe"/>
      <circle id="Elipse_14585" data-name="Elipse 14585" cx="6.5" cy="6.5" r="6.5" transform="translate(5 18)" fill="#c66b60"/>
      <path id="Trazado_1231412" data-name="Trazado 1231412" d="M17.371,26.467a6.862,6.862,0,0,0-.642-2.895,6.492,6.492,0,0,0-9.156,9.156,6.893,6.893,0,0,0,9.8-6.261Z" transform="translate(-0.939 -3.944)" fill="#e47c6e"/>
      <circle id="Elipse_14586" data-name="Elipse 14586" cx="6.5" cy="6.5" r="6.5" transform="translate(5 34)" fill="#669e4f"/>
      <path id="Trazado_1231413" data-name="Trazado 1231413" d="M17.371,46.467a6.862,6.862,0,0,0-.642-2.895,6.492,6.492,0,0,0-9.156,9.156,6.893,6.893,0,0,0,9.8-6.261Z" transform="translate(-0.939 -7.7)" fill="#78b75b"/>
      <path id="Trazado_1231414" data-name="Trazado 1231414" d="M39.113,14.807H37.488V2.624H6.624V5.061H5V1.812A.813.813,0,0,1,5.812,1H38.3a.813.813,0,0,1,.812.812Z" transform="translate(-0.751)"/>
      <path id="Trazado_1231415" data-name="Trazado 1231415" d="M34.3,52.108H1.812A.813.813,0,0,1,1,51.3V5.812A.813.813,0,0,1,1.812,5H27.8a.813.813,0,0,1,.812.812V11.5H34.3a.813.813,0,0,1,.812.812v4.061H33.488V13.122H27.8a.813.813,0,0,1-.812-.812V6.624H2.624V50.483H33.488v-13h1.624V51.3A.813.813,0,0,1,34.3,52.108Z" transform="translate(0 -0.751)"/>
      <path id="Trazado_1231416" data-name="Trazado 1231416" d="M0,0H1.624V9.189H0Z" transform="translate(27.225 5.638) rotate(-45)"/>
      <path id="Trazado_1231417" data-name="Trazado 1231417" d="M12.31,55.62a7.31,7.31,0,1,1,7.31-7.31A7.319,7.319,0,0,1,12.31,55.62Zm0-13A5.685,5.685,0,1,0,18,48.31,5.692,5.692,0,0,0,12.31,42.624Z" transform="translate(-0.751 -7.512)"/>
      <path id="Trazado_1231418" data-name="Trazado 1231418" d="M13.3,53.244a.814.814,0,0,1-.574-.238l-2.437-2.437,1.148-1.148,1.545,1.545,1.994-5.317,1.521.57-2.437,6.5a.814.814,0,0,1-.589.508.777.777,0,0,1-.172.019Z" transform="translate(-1.745 -8.385)"/>
      <path id="Trazado_1231419" data-name="Trazado 1231419" d="M12.31,35.62a7.31,7.31,0,1,1,7.31-7.31A7.319,7.319,0,0,1,12.31,35.62Zm0-13A5.685,5.685,0,1,0,18,28.31,5.692,5.692,0,0,0,12.31,22.624Z" transform="translate(-0.751 -3.756)"/>
      <path id="Trazado_1231420" data-name="Trazado 1231420" d="M0,0H1.624V6.892H0Z" transform="translate(8.544 22.69) rotate(-45)"/>
      <path id="Trazado_1231421" data-name="Trazado 1231421" d="M0,0H6.892V1.624H0Z" transform="translate(8.544 26.415) rotate(-45)"/>
      <path id="Trazado_1231422" data-name="Trazado 1231422" d="M45.183,41.366A12.183,12.183,0,1,1,57.366,29.183,12.2,12.2,0,0,1,45.183,41.366Zm0-22.742A10.559,10.559,0,1,0,55.742,29.183,10.571,10.571,0,0,0,45.183,18.624Z" transform="translate(-6.009 -3.005)"/>
      <path id="Trazado_1231423" data-name="Trazado 1231423" d="M45,46h1.624V59.807H45Z" transform="translate(-8.263 -8.451)"/>
      <path id="Trazado_1231424" data-name="Trazado 1231424" d="M49,46h1.624V59.807H49Z" transform="translate(-9.014 -8.451)"/>
      <path id="Trazado_1231425" data-name="Trazado 1231425" d="M38.624,29.934H37A8.945,8.945,0,0,1,45.934,21v1.624A7.319,7.319,0,0,0,38.624,29.934Z" transform="translate(-6.761 -3.756)"/>
      <path id="Trazado_1231426" data-name="Trazado 1231426" d="M48,40.934V39.31A7.319,7.319,0,0,0,55.31,32h1.624A8.945,8.945,0,0,1,48,40.934Z" transform="translate(-8.826 -5.822)"/>
      <path id="Trazado_1231427" data-name="Trazado 1231427" d="M46,49h3.249v1.624H46Z" transform="translate(-8.451 -9.014)"/>
      <path id="Trazado_1231428" data-name="Trazado 1231428" d="M25,57H36.371v1.624H25Z" transform="translate(-4.507 -10.517)"/>
      <path id="Trazado_1231429" data-name="Trazado 1231429" d="M25,53H36.371v1.624H25Z" transform="translate(-4.507 -9.765)"/>
      <path id="Trazado_1231430" data-name="Trazado 1231430" d="M25,37h8.122v1.624H25Z" transform="translate(-4.507 -6.761)"/>
      <path id="Trazado_1231431" data-name="Trazado 1231431" d="M25,33h7.31v1.624H25Z" transform="translate(-4.507 -6.009)"/>
    </g>
  </g>
</svg>
