<svg xmlns="http://www.w3.org/2000/svg" xmlns:xlink="http://www.w3.org/1999/xlink" width="106.16" height="106.161" viewBox="0 0 106.16 106.161">
  <defs>
    <filter id="Trazado_982547" x="0" y="0" width="106.16" height="106.16" filterUnits="userSpaceOnUse">
      <feOffset dy="3" input="SourceAlpha"/>
      <feGaussianBlur stdDeviation="3" result="blur"/>
      <feFlood flood-opacity="0.161"/>
      <feComposite operator="in" in2="blur"/>
      <feComposite in="SourceGraphic"/>
    </filter>
  </defs>
  <g id="Grupo_1233225" data-name="Grupo 1233225" transform="translate(-1030.5 -4428.641)">
    <g id="Grupo_1232500" data-name="Grupo 1232500" transform="translate(210.25 -2844.774)">
      <g id="Grupo_1230692" data-name="Grupo 1230692" transform="translate(-0.25 3811.95)">
        <g id="Grupo_1224852" data-name="Grupo 1224852" transform="translate(629.5 1738.464)">
          <g id="Grupo_1206130" data-name="Grupo 1206130" transform="translate(0 -59)">
            <g id="Grupo_1203672" data-name="Grupo 1203672" transform="translate(0.08 -4797.878)">
              <g id="Grupo_1203344" data-name="Grupo 1203344" transform="translate(-81.08 5174.875)">
                <g id="Grupo_1177900" data-name="Grupo 1177900" transform="translate(281 1411.003)">
                  <g id="Grupo_1172010" data-name="Grupo 1172010" transform="translate(0)">
                    <g id="Grupo_1171046" data-name="Grupo 1171046">
                      <g id="Grupo_1148525" data-name="Grupo 1148525">
                        <g transform="matrix(1, 0, 0, 1, -9, -6)" filter="url(#Trazado_982547)">
                          <g id="Trazado_982547-2" data-name="Trazado 982547" transform="translate(9 6)" fill="#e5ebfb">
                            <path d="M 44.0802001953125 86.660400390625 C 38.33124923706055 86.660400390625 32.75506210327148 85.53479766845703 27.50652503967285 83.31484985351562 C 22.43628692626953 81.17032623291016 17.88242530822754 78.09992218017578 13.97144985198975 74.18894958496094 C 10.06047534942627 70.27797698974609 6.99007511138916 65.72411346435547 4.845550060272217 60.65387344360352 C 2.625600099563599 55.40533828735352 1.500000238418579 49.82915115356445 1.500000238418579 44.0802001953125 C 1.500000238418579 38.33124923706055 2.625600099563599 32.75506210327148 4.845550060272217 27.50652503967285 C 6.99007511138916 22.43628692626953 10.06047534942627 17.88242530822754 13.97144985198975 13.97144985198975 C 17.88242530822754 10.06047534942627 22.43628692626953 6.99007511138916 27.50652503967285 4.845550060272217 C 32.75506210327148 2.625600099563599 38.33124923706055 1.500000238418579 44.0802001953125 1.500000238418579 C 49.82915115356445 1.500000238418579 55.40533828735352 2.625600099563599 60.65387344360352 4.845550060272217 C 65.72411346435547 6.99007511138916 70.27797698974609 10.06047534942627 74.18894958496094 13.97144985198975 C 78.09992218017578 17.88242530822754 81.17032623291016 22.43628692626953 83.31484985351562 27.50652503967285 C 85.53479766845703 32.75506210327148 86.660400390625 38.33124923706055 86.660400390625 44.0802001953125 C 86.660400390625 49.82915115356445 85.53479766845703 55.40533828735352 83.31484985351562 60.65387344360352 C 81.17032623291016 65.72411346435547 78.09992218017578 70.27797698974609 74.18894958496094 74.18894958496094 C 70.27797698974609 78.09992218017578 65.72411346435547 81.17032623291016 60.65387344360352 83.31484985351562 C 55.40533828735352 85.53479766845703 49.82915115356445 86.660400390625 44.0802001953125 86.660400390625 Z" stroke="none"/>
                            <path d="M 44.0802001953125 3 C 38.53308486938477 3 33.15349960327148 4.085746765136719 28.09085845947266 6.227058410644531 C 23.19941711425781 8.29595947265625 18.80581665039062 11.25841522216797 15.03211212158203 15.03211212158203 C 11.25841522216797 18.80581665039062 8.29595947265625 23.19941711425781 6.227058410644531 28.09085845947266 C 4.085746765136719 33.15349960327148 3 38.53308486938477 3 44.0802001953125 C 3 49.62731552124023 4.085746765136719 55.00691604614258 6.227058410644531 60.06954193115234 C 8.29595947265625 64.96098327636719 11.25841522216797 69.35458374023438 15.03211212158203 73.12828826904297 C 18.80581665039062 76.90198516845703 23.19941711425781 79.86444091796875 28.09085845947266 81.93334197998047 C 33.15349960327148 84.07466125488281 38.53308486938477 85.160400390625 44.0802001953125 85.160400390625 C 49.62731552124023 85.160400390625 55.00691604614258 84.07466125488281 60.06954193115234 81.93334197998047 C 64.96099853515625 79.86444091796875 69.35458374023438 76.90198516845703 73.12828826904297 73.12828826904297 C 76.90198516845703 69.35458374023438 79.86444091796875 64.96099853515625 81.93334197998047 60.06954193115234 C 84.07466125488281 55.00691604614258 85.160400390625 49.62731552124023 85.160400390625 44.0802001953125 C 85.160400390625 38.53308486938477 84.07466125488281 33.15349960327148 81.93334197998047 28.09085845947266 C 79.86444091796875 23.19941711425781 76.90198516845703 18.80581665039062 73.12828826904297 15.03211212158203 C 69.35458374023438 11.25841522216797 64.96098327636719 8.29595947265625 60.06954193115234 6.227058410644531 C 55.00691604614258 4.085746765136719 49.62731552124023 3 44.0802001953125 3 M 44.0802001953125 0 C 68.42502593994141 0 88.160400390625 19.73538970947266 88.160400390625 44.0802001953125 C 88.160400390625 68.42502593994141 68.42502593994141 88.160400390625 44.0802001953125 88.160400390625 C 19.73538970947266 88.160400390625 0 68.42502593994141 0 44.0802001953125 C 0 19.73538970947266 19.73538970947266 0 44.0802001953125 0 Z" stroke="none" fill="#98b4f2"/>
                          </g>
                        </g>
                      </g>
                    </g>
                  </g>
                </g>
              </g>
            </g>
          </g>
        </g>
      </g>
    </g>
    <g id="conformidad" transform="translate(1037.347 4433.874)">
      <g id="Grupo_1233224" data-name="Grupo 1233224" transform="translate(23.026 15.714)">
        <path id="Trazado_1231432" data-name="Trazado 1231432" d="M68.606,76.908H28.4V21H59.78l8.826,8.814Z" transform="translate(-28.4 -21)" fill="#e6e6e6" fill-rule="evenodd"/>
        <path id="Trazado_1231433" data-name="Trazado 1231433" d="M301.026,29.814H292.2V21Z" transform="translate(-260.82 -21)" fill="#999" fill-rule="evenodd"/>
        <path id="Trazado_1231434" data-name="Trazado 1231434" d="M75.4,184.9h4.342v3.925H75.4Z" transform="translate(-69.809 -165.404)" fill="#ffcd05" fill-rule="evenodd"/>
        <path id="Trazado_1231435" data-name="Trazado 1231435" d="M75.4,124.4h4.342v3.925H75.4Z" transform="translate(-69.809 -112.1)" fill="#ffcd05" fill-rule="evenodd"/>
        <path id="Trazado_1231436" data-name="Trazado 1231436" d="M290.311,269.845l7.518,13.013a3.1,3.1,0,0,1-2.676,4.651H280.117a3.1,3.1,0,0,1-2.688-4.651l7.518-13.013a3.02,3.02,0,0,1,2.676-1.546A2.976,2.976,0,0,1,290.311,269.845Z" transform="translate(-247.428 -238.882)" fill="#fdb614" fill-rule="evenodd"/>
      </g>
      <path id="Trazado_1231437" data-name="Trazado 1231437" d="M356.523,311.647,356,307.46v-2.177a.594.594,0,0,1,.595-.583h1.273a.586.586,0,0,1,.595.583v2.105a.151.151,0,0,1-.012.071l-.511,4.187a.584.584,0,0,1-.595.511h-.238A.589.589,0,0,1,356.523,311.647Zm-.428,4.425v-1.059a.594.594,0,0,1,.595-.583h1.094a.587.587,0,0,1,.595.583v1.059a.594.594,0,0,1-.595.583H356.69A.594.594,0,0,1,356.1,316.072Z" transform="translate(-294.005 -255.239)" fill="#e6e6e6"/>
      <path id="Trazado_1231438" data-name="Trazado 1231438" d="M75.4,369.4h4.342v3.925H75.4Z" transform="translate(-46.784 -312.243)" fill="#ffcd05" fill-rule="evenodd"/>
      <path id="Trazado_1231439" data-name="Trazado 1231439" d="M75.4,309h4.342v3.925H75.4Z" transform="translate(-46.784 -259.028)" fill="#ffcd05" fill-rule="evenodd"/>
      <path id="Trazado_1231440" data-name="Trazado 1231440" d="M75.4,248.5h4.342v3.925H75.4Z" transform="translate(-46.784 -205.725)" fill="#ffcd05" fill-rule="evenodd"/>
      <path id="Trazado_1231441" data-name="Trazado 1231441" d="M75.4,57.6H96.728v4.1H75.4Z" transform="translate(-46.784 -37.533)" fill="#f36d21" fill-rule="evenodd"/>
      <path id="Trazado_1231442" data-name="Trazado 1231442" d="M28.6,19.354H49.921a.716.716,0,0,1,.714.714v4.1a.716.716,0,0,1-.714.714H28.6a.716.716,0,0,1-.714-.714v-4.1A.716.716,0,0,1,28.6,19.354Zm20.6,1.427H29.318v2.676h19.9V20.781ZM37.11,59.155a.714.714,0,0,1,0-1.427h8.767a.714.714,0,1,1,0,1.427Zm0-7.137a.714.714,0,0,1,0-1.427H48.446a.714.714,0,1,1,0,1.427Zm0-7.756a.714.714,0,0,1,0-1.427h15.9a.714.714,0,0,1,0,1.427Zm-8.505-2.2h4.342a.716.716,0,0,1,.714.714V46.7a.716.716,0,0,1-.714.714H28.6a.716.716,0,0,1-.714-.714V42.775A.716.716,0,0,1,28.6,42.062Zm3.616,1.427h-2.9v2.5h2.914v-2.5Zm4.889,3.925a.714.714,0,0,1,0-1.427H49.838a.714.714,0,0,1,0,1.427ZM28.6,49.258h4.342a.716.716,0,0,1,.714.714V53.9a.716.716,0,0,1-.714.714H28.6a.716.716,0,0,1-.714-.714V49.972A.708.708,0,0,1,28.6,49.258Zm3.616,1.427h-2.9v2.5h2.914v-2.5ZM28.6,56.443h4.342a.716.716,0,0,1,.714.714v3.925a.716.716,0,0,1-.714.714H28.6a.716.716,0,0,1-.714-.714V57.157A.716.716,0,0,1,28.6,56.443Zm3.616,1.427h-2.9v2.5h2.914v-2.5ZM37.11,61.8a.714.714,0,0,1,0-1.427h8.2a.714.714,0,0,1,0,1.427Zm0-7.2a.714.714,0,0,1,0-1.427h9.064a.714.714,0,0,1,0,1.427ZM61.8,56.5l-.523-4.187c-.036-.262-.012-1.879-.012-2.26a1.312,1.312,0,0,1,1.32-1.3h1.273a1.32,1.32,0,0,1,1.32,1.3l-.012,2.26L64.647,56.5a1.309,1.309,0,0,1-1.3,1.142,1.428,1.428,0,0,1-1.094-.321A1.268,1.268,0,0,1,61.8,56.5Zm.88-4.354.511,4.068h.036l.5-4.068V50.186H62.684Zm-1.32,8.684V59.774a1.312,1.312,0,0,1,1.32-1.3h1.094a1.32,1.32,0,0,1,1.32,1.3v1.059a1.312,1.312,0,0,1-1.32,1.3H62.684A1.312,1.312,0,0,1,61.364,60.833Zm1.427-.928v.785h.868V59.9Zm3.747-13.549,7.494,12.978a3.8,3.8,0,0,1-3.307,5.71H63.933v6.578a.716.716,0,0,1-.714.714H23.014a.716.716,0,0,1-.714-.714V15.714A.716.716,0,0,1,23.014,15H54.405a.719.719,0,0,1,.511.214l8.814,8.814a.824.824,0,0,1,.214.511V41.1a7.077,7.077,0,0,1,5.484,3.545.714.714,0,1,1-1.237.714,5.748,5.748,0,0,0-9.944,0,.714.714,0,1,1-1.237-.714A7.066,7.066,0,0,1,62.494,41.1V25.242h-8.1a.716.716,0,0,1-.714-.714v-8.1H23.716v54.48H62.494V65.055H55.7a3.811,3.811,0,0,1-3.295-5.722L59.925,46.32a3.808,3.808,0,0,1,6.6,0,.044.044,0,0,0,.012.036ZM72.8,60.047,65.278,47.034a2.389,2.389,0,0,0-4.14,0L53.62,60.047a2.383,2.383,0,0,0,2.07,3.58H70.714A2.383,2.383,0,0,0,72.8,60.047Zm2.9-1.689a.7.7,0,0,1,.262-.964.718.718,0,0,1,.975.262A7.163,7.163,0,0,1,70.726,68.4a.714.714,0,0,1,0-1.427A5.737,5.737,0,0,0,75.7,58.358Zm-20,8.612a.714.714,0,1,1,0,1.427,7.165,7.165,0,0,1-6.209-10.741.725.725,0,0,1,.975-.262.7.7,0,0,1,.262.964A5.74,5.74,0,0,0,55.7,66.97ZM37.11,37.208a.714.714,0,0,1,0-1.427H53.965a.714.714,0,1,1,0,1.427Zm0-7.137a.714.714,0,0,1,0-1.427H51.146a.714.714,0,0,1,0,1.427ZM28.6,27.312h4.342a.716.716,0,0,1,.714.714v3.925a.716.716,0,0,1-.714.714H28.6a.716.716,0,0,1-.714-.714V28.025A.716.716,0,0,1,28.6,27.312Zm3.616,1.427h-2.9v2.5h2.914v-2.5ZM28.6,34.5h4.342a.716.716,0,0,1,.714.714v3.925a.716.716,0,0,1-.714.714H28.6a.716.716,0,0,1-.714-.714V35.21A.716.716,0,0,1,28.6,34.5Zm3.616,1.427h-2.9v2.5h2.914v-2.5Zm4.889,3.925a.714.714,0,0,1,0-1.427H56.582a.714.714,0,0,1,0,1.427Zm0-7.2a.714.714,0,0,1,0-1.427H48.339a.714.714,0,0,1,0,1.427Zm18-8.826h6.388l-6.388-6.388Z"/>
    </g>
  </g>
</svg>
