<svg xmlns="http://www.w3.org/2000/svg" xmlns:xlink="http://www.w3.org/1999/xlink" width="400" height="381" viewBox="0 0 400 381">
  <defs>
    <clipPath id="clip-path">
      <rect id="Rectángulo_423068" data-name="Rectángulo 423068" width="400" height="381" transform="translate(1020 5153)" fill="#fff" stroke="#707070" stroke-width="1"/>
    </clipPath>
    <clipPath id="clip-path-2">
      <path id="Trazado_1231459" data-name="Trazado 1231459" d="M177.469,30.509c-77.9.071-141.4,64.056-140.9,141.957a141.181,141.181,0,0,0,103.969,135.2c24.268,6.6,46.447,19.089,65.688,35.285a109.936,109.936,0,0,0,75.51,25.786c58.7-2.344,105.54-50.98,105.809-109.722a110,110,0,0,0-33.2-79.407c-20.692-20.232-37.316-44.155-50.07-70.134A141.039,141.039,0,0,0,177.6,30.509h-.136" transform="translate(-36.562 -30.509)" fill="none"/>
    </clipPath>
    <clipPath id="clip-path-3">
      <rect id="Rectángulo_423073" data-name="Rectángulo 423073" width="392" height="392" transform="translate(-0.145 -0.145)" fill="none"/>
    </clipPath>
  </defs>
  <g id="Enmascarar_grupo_1098658" data-name="Enmascarar grupo 1098658" transform="translate(-1020 -5153)" clip-path="url(#clip-path)">
    <g id="Grupo_1233230" data-name="Grupo 1233230" transform="translate(1011.17 5163.156)">
      <g id="Grupo_1233227" data-name="Grupo 1233227" transform="translate(31.438 23.91)">
        <g id="Grupo_1233226" data-name="Grupo 1233226" clip-path="url(#clip-path-2)">
          <path id="Trazado_1231443" data-name="Trazado 1231443" d="M304.273,109.469a141.034,141.034,0,0,0-126.8-78.961c-77.9.072-141.4,64.057-140.9,141.957a141.182,141.182,0,0,0,103.969,135.2c24.267,6.6,46.446,19.089,65.688,35.284a109.928,109.928,0,0,0,75.51,25.786c58.7-2.344,105.54-50.979,105.809-109.722a110,110,0,0,0-33.2-79.406c-20.693-20.234-37.316-44.157-50.07-70.136" transform="translate(-36.562 -30.509)" fill="#98b4f2" opacity="0.53"/>
          <path id="Trazado_1231444" data-name="Trazado 1231444" d="M214.037,150.1a45.564,45.564,0,1,1-45.564-45.564A45.564,45.564,0,0,1,214.037,150.1" transform="translate(-55.251 -46.532)" fill="#5c34ba"/>
          <path id="Trazado_1231445" data-name="Trazado 1231445" d="M463.132,128.205a89.872,89.872,0,1,1-89.872-89.872,89.873,89.873,0,0,1,89.872,89.872" transform="translate(-89.984 -32.202)" fill="#5c34ba"/>
          <rect id="Rectángulo_423069" data-name="Rectángulo 423069" width="63.358" height="76.18" transform="translate(263.257 169.869)" fill="#5c34ba"/>
          <path id="Trazado_1231446" data-name="Trazado 1231446" d="M357.576,463.332h0a8.264,8.264,0,0,1-8.264-8.264v-82.3a8.264,8.264,0,0,1,16.528,0v82.3a8.264,8.264,0,0,1-8.264,8.264M379.264,364.5h0A8.264,8.264,0,0,0,371,372.764v82.3a8.264,8.264,0,1,0,16.528,0v-82.3a8.264,8.264,0,0,0-8.263-8.264m21.687,0h0a8.264,8.264,0,0,0-8.264,8.264v82.3a8.264,8.264,0,0,0,16.528,0v-82.3a8.264,8.264,0,0,0-8.264-8.264m21.688,0h0a8.264,8.264,0,0,0-8.264,8.264v82.3a8.264,8.264,0,1,0,16.528,0v-82.3a8.264,8.264,0,0,0-8.263-8.264m21.687,0h0a8.264,8.264,0,0,0-8.264,8.264v82.3a8.264,8.264,0,1,0,16.528,0v-82.3a8.264,8.264,0,0,0-8.264-8.264" transform="translate(-104.253 -102.797)" fill="#5c34ba"/>
          <path id="Trazado_1231447" data-name="Trazado 1231447" d="M416.635,193.842h17.483c12.782,0-1.469,21.009,13.516,21.009s23.066,3.673,23.066,17.19" transform="translate(-118.824 -65.86)" fill="none" stroke="#a882ff" stroke-miterlimit="10" stroke-width="1"/>
          <path id="Trazado_1231448" data-name="Trazado 1231448" d="M411.369,186.086h-4.114a1.47,1.47,0,0,1-1.469-1.469V165.811H381.1v24.775a12.57,12.57,0,0,0,11.745,12.675,12.342,12.342,0,0,0,12.937-12.327,1.47,1.47,0,0,1,1.469-1.469h4.114Z" transform="translate(-111.134 -59.793)" fill="#dbccff"/>
          <path id="Trazado_1231449" data-name="Trazado 1231449" d="M393.932,204.9h0a10.578,10.578,0,0,1-10.578-10.578V183.746a1.711,1.711,0,0,1,1.572-1.7c8.335-.739,8.16,3.6,17.6,3.558a1.983,1.983,0,0,1,1.988,1.981v6.736A10.578,10.578,0,0,1,393.932,204.9" transform="translate(-111.621 -63.29)" fill="#703fe0"/>
          <path id="Trazado_1231450" data-name="Trazado 1231450" d="M362.2,228.36c-9.551,0-17.824,3.147-21.9,7.742h43.8c-4.077-4.6-12.351-7.742-21.9-7.742" transform="translate(-102.302 -73.331)" fill="#a882ff"/>
          <line id="Línea_857" data-name="Línea 857" y1="59.714" transform="translate(259.896 99.186)" fill="none" stroke="#a882ff" stroke-miterlimit="10" stroke-width="1"/>
          <path id="Trazado_1231451" data-name="Trazado 1231451" d="M369.656,175.163a1.947,1.947,0,1,1-1.946-1.946,1.946,1.946,0,0,1,1.946,1.946" transform="translate(-107.813 -61.396)" fill="#a882ff"/>
          <path id="Trazado_1231452" data-name="Trazado 1231452" d="M369.656,203.663a1.947,1.947,0,1,1-1.946-1.946,1.946,1.946,0,0,1,1.946,1.946" transform="translate(-107.813 -67.565)" fill="#a882ff"/>
          <line id="Línea_858" data-name="Línea 858" x2="36.74" transform="translate(259.896 113.767)" fill="none" stroke="#a882ff" stroke-miterlimit="10" stroke-width="1"/>
          <rect id="Rectángulo_423070" data-name="Rectángulo 423070" width="184.235" height="184.234" transform="translate(-28.649 169.587)" fill="#5c34ba"/>
          <path id="Trazado_1231453" data-name="Trazado 1231453" d="M0,267.727H184.235v22.6Z" transform="translate(-28.649 -81.852)" fill="#512aad"/>
          <rect id="Rectángulo_423071" data-name="Rectángulo 423071" width="63.358" height="76.18" transform="translate(258.849 165.608)" fill="#a882ff"/>
          <line id="Línea_859" data-name="Línea 859" x2="48.612" transform="translate(266.222 173.289)" fill="none" stroke="#693bd4" stroke-miterlimit="10" stroke-width="0.979"/>
          <line id="Línea_860" data-name="Línea 860" x2="48.612" transform="translate(266.222 180.891)" fill="none" stroke="#693bd4" stroke-miterlimit="10" stroke-width="0.979"/>
          <line id="Línea_861" data-name="Línea 861" x2="48.612" transform="translate(266.222 188.493)" fill="none" stroke="#693bd4" stroke-miterlimit="10" stroke-width="0.979"/>
          <line id="Línea_862" data-name="Línea 862" x2="48.612" transform="translate(266.222 196.096)" fill="none" stroke="#693bd4" stroke-miterlimit="10" stroke-width="0.979"/>
          <line id="Línea_863" data-name="Línea 863" x2="48.612" transform="translate(266.222 203.698)" fill="none" stroke="#693bd4" stroke-miterlimit="10" stroke-width="0.979"/>
          <line id="Línea_864" data-name="Línea 864" x2="48.612" transform="translate(266.222 211.3)" fill="none" stroke="#693bd4" stroke-miterlimit="10" stroke-width="0.979"/>
          <line id="Línea_865" data-name="Línea 865" x2="48.612" transform="translate(266.222 218.902)" fill="none" stroke="#693bd4" stroke-miterlimit="10" stroke-width="0.979"/>
          <line id="Línea_866" data-name="Línea 866" x2="48.612" transform="translate(266.222 226.505)" fill="none" stroke="#693bd4" stroke-miterlimit="10" stroke-width="0.979"/>
          <line id="Línea_867" data-name="Línea 867" x2="48.612" transform="translate(266.222 234.107)" fill="none" stroke="#693bd4" stroke-miterlimit="10" stroke-width="0.979"/>
          <path id="Trazado_1231454" data-name="Trazado 1231454" d="M89.65,323.178H83.57a1.094,1.094,0,0,0-1.093,1.094v.09a1.093,1.093,0,0,0,1.093,1.093h.165v27.464a2.875,2.875,0,1,0,5.75,0V325.455h.165a1.094,1.094,0,0,0,1.094-1.093v-.09a1.094,1.094,0,0,0-1.094-1.094" transform="translate(-46.5 -93.853)" fill="#dbccff"/>
          <path id="Trazado_1231455" data-name="Trazado 1231455" d="M109.432,323.178h-6.08a1.094,1.094,0,0,0-1.093,1.094v.09a1.093,1.093,0,0,0,1.093,1.093h.165v27.464a2.875,2.875,0,1,0,5.75,0V325.455h.165a1.094,1.094,0,0,0,1.094-1.093v-.09a1.094,1.094,0,0,0-1.094-1.094" transform="translate(-50.782 -93.853)" fill="#dbccff"/>
          <path id="Trazado_1231456" data-name="Trazado 1231456" d="M129.213,323.178h-6.08a1.094,1.094,0,0,0-1.093,1.094v.09a1.093,1.093,0,0,0,1.093,1.093h.165v27.464a2.874,2.874,0,1,0,5.749,0V325.455h.165a1.094,1.094,0,0,0,1.094-1.093v-.09a1.094,1.094,0,0,0-1.094-1.094" transform="translate(-55.063 -93.853)" fill="#dbccff"/>
          <path id="Trazado_1231457" data-name="Trazado 1231457" d="M148.994,323.178h-6.08a1.094,1.094,0,0,0-1.093,1.094v.09a1.093,1.093,0,0,0,1.093,1.093h.165v27.464a2.875,2.875,0,1,0,5.749,0V325.455h.165a1.094,1.094,0,0,0,1.094-1.093v-.09a1.094,1.094,0,0,0-1.094-1.094" transform="translate(-59.344 -93.853)" fill="#dbccff"/>
          <path id="Trazado_1231458" data-name="Trazado 1231458" d="M69.882,366.084h74.505V327.959H69.882Zm70.611-6.008H73.775V331.852h66.718Z" transform="translate(-43.774 -94.888)" fill="#703fe0"/>
        </g>
      </g>
      <line id="Línea_868" data-name="Línea 868" x1="21.853" y1="38.235" transform="translate(271.773 57.407)" fill="none" stroke="#47288f" stroke-miterlimit="10" stroke-width="2"/>
      <g id="Grupo_1233229" data-name="Grupo 1233229" transform="translate(12.975 -0.01)">
        <g id="Grupo_1233228" data-name="Grupo 1233228" transform="translate(0)" clip-path="url(#clip-path-3)">
          <path id="Trazado_1231460" data-name="Trazado 1231460" d="M345.134,60.272h-8.4a2.9,2.9,0,0,0-2.509,1.449L330.019,69a2.9,2.9,0,0,0,0,2.9l4.2,7.278a2.9,2.9,0,0,0,2.509,1.449h8.4a2.9,2.9,0,0,0,2.509-1.449l4.2-7.278a2.9,2.9,0,0,0,0-2.9l-4.2-7.278a2.9,2.9,0,0,0-2.509-1.449" transform="translate(-81.53 -13.03)" fill="#dbccff"/>
          <path id="Trazado_1231461" data-name="Trazado 1231461" d="M334.687,173.743l28.587-51.689H406.75" transform="translate(-82.624 -26.402)" fill="none" stroke="#47288f" stroke-miterlimit="10" stroke-width="2"/>
          <path id="Trazado_1231462" data-name="Trazado 1231462" d="M372.96,100.555H359.047a4.8,4.8,0,0,0-4.154,2.4L347.936,115a4.794,4.794,0,0,0,0,4.8l6.956,12.05a4.8,4.8,0,0,0,4.154,2.4H372.96a4.8,4.8,0,0,0,4.154-2.4l6.956-12.05a4.794,4.794,0,0,0,0-4.8l-6.956-12.049a4.8,4.8,0,0,0-4.154-2.4" transform="translate(-85.353 -21.749)" fill="#dbccff"/>
          <path id="Trazado_1231463" data-name="Trazado 1231463" d="M427.608,110.606H420.2a2.555,2.555,0,0,0-2.212,1.277l-3.7,6.416a2.554,2.554,0,0,0,0,2.554l3.7,6.417a2.556,2.556,0,0,0,2.212,1.277h7.409a2.555,2.555,0,0,0,2.212-1.277l3.7-6.417a2.55,2.55,0,0,0,0-2.554l-3.7-6.416a2.553,2.553,0,0,0-2.212-1.277" transform="translate(-99.778 -23.924)" fill="#dbccff"/>
          <line id="Línea_869" data-name="Línea 869" y1="24.229" x2="42.392" transform="translate(296.435 290.239)" fill="none" stroke="#47288f" stroke-miterlimit="10" stroke-width="2"/>
          <path id="Trazado_1231464" data-name="Trazado 1231464" d="M453.582,372.444v-9.317a3.21,3.21,0,0,0-1.606-2.782l-8.069-4.659a3.213,3.213,0,0,0-3.212,0l-8.069,4.659a3.212,3.212,0,0,0-1.606,2.782v9.317a3.212,3.212,0,0,0,1.606,2.782l8.069,4.659a3.213,3.213,0,0,0,3.212,0l8.069-4.659a3.21,3.21,0,0,0,1.606-2.782" transform="translate(-103.474 -76.876)" fill="#dbccff"/>
          <path id="Trazado_1231465" data-name="Trazado 1231465" d="M318.177,360.861l57.309,31.7v48.2" transform="translate(-79.051 -78.089)" fill="none" stroke="#47288f" stroke-miterlimit="10" stroke-width="2"/>
          <path id="Trazado_1231466" data-name="Trazado 1231466" d="M404.834,403.295V387.869a5.318,5.318,0,0,0-2.659-4.606l-13.359-7.713a5.316,5.316,0,0,0-5.318,0l-13.359,7.713a5.319,5.319,0,0,0-2.659,4.606v15.425a5.32,5.32,0,0,0,2.659,4.606l13.359,7.713a5.319,5.319,0,0,0,5.318,0l13.359-7.713a5.319,5.319,0,0,0,2.659-4.606" transform="translate(-89.722 -81.114)" fill="#dbccff"/>
          <path id="Trazado_1231467" data-name="Trazado 1231467" d="M398.514,463.885v-8.214a2.833,2.833,0,0,0-1.416-2.453l-7.113-4.107a2.834,2.834,0,0,0-2.832,0l-7.114,4.107a2.833,2.833,0,0,0-1.416,2.453v8.214a2.833,2.833,0,0,0,1.416,2.453l7.114,4.107a2.83,2.83,0,0,0,2.832,0l7.113-4.107a2.833,2.833,0,0,0,1.416-2.453" transform="translate(-92.134 -97.107)" fill="#dbccff"/>
          <path id="Trazado_1231468" data-name="Trazado 1231468" d="M103.118,178.375,83.531,144.989l19.587-32.631L84.633,81.833" transform="translate(-28.265 -17.697)" fill="none" stroke="#47288f" stroke-miterlimit="10" stroke-width="2"/>
          <path id="Trazado_1231469" data-name="Trazado 1231469" d="M84.514,150.622H76.87a2.635,2.635,0,0,0-2.283,1.318l-3.821,6.62a2.634,2.634,0,0,0,0,2.635l3.821,6.62a2.635,2.635,0,0,0,2.283,1.318h7.644a2.634,2.634,0,0,0,2.282-1.318l3.822-6.62a2.634,2.634,0,0,0,0-2.635L86.8,151.94a2.634,2.634,0,0,0-2.282-1.318" transform="translate(-25.426 -32.585)" fill="#dbccff"/>
          <path id="Trazado_1231470" data-name="Trazado 1231470" d="M85.773,75.167H81.459a1.488,1.488,0,0,0-1.288.744l-2.157,3.736a1.487,1.487,0,0,0,0,1.487l2.157,3.735a1.488,1.488,0,0,0,1.288.744h4.314a1.488,1.488,0,0,0,1.288-.744l2.156-3.735a1.487,1.487,0,0,0,0-1.487l-2.156-3.736a1.488,1.488,0,0,0-1.288-.744" transform="translate(-27.028 -16.254)" fill="#dbccff"/>
          <path id="Trazado_1231471" data-name="Trazado 1231471" d="M110.019,102.873h-11.6a4,4,0,0,0-3.461,2l-5.8,10.041a4,4,0,0,0,0,4l5.8,10.041a4,4,0,0,0,3.461,2h11.6a4,4,0,0,0,3.462-2l5.8-10.041a4,4,0,0,0,0-4l-5.8-10.041a4,4,0,0,0-3.462-2" transform="translate(-29.368 -22.251)" fill="#dbccff"/>
          <path id="Trazado_1231472" data-name="Trazado 1231472" d="M183.561,88c-5.852,0-10.6.817-10.6,1.826v40.95a10.6,10.6,0,0,0,21.195,0V89.822c0-1.008-4.745-1.826-10.6-1.826" transform="translate(-47.621 -19.031)" fill="#fff"/>
          <path id="Trazado_1231473" data-name="Trazado 1231473" d="M175.63,99.413v33.395a8.508,8.508,0,1,0,17.017,0V99.413Z" transform="translate(-48.199 -21.502)" fill="#ff4a92"/>
          <path id="Trazado_1231474" data-name="Trazado 1231474" d="M189.843,136.947a1.677,1.677,0,1,1-1.678-1.678,1.678,1.678,0,0,1,1.678,1.678" transform="translate(-50.549 -29.262)" fill="#bd2460"/>
          <path id="Trazado_1231475" data-name="Trazado 1231475" d="M191.42,125.608a3.554,3.554,0,1,1-3.554-3.554,3.554,3.554,0,0,1,3.554,3.554" transform="translate(-50.078 -26.402)" fill="#bd2460"/>
          <path id="Trazado_1231476" data-name="Trazado 1231476" d="M193.948,106.449a1.255,1.255,0,1,1-1.255-1.255,1.255,1.255,0,0,1,1.255,1.255" transform="translate(-51.62 -22.753)" fill="#bd2460"/>
          <path id="Trazado_1231477" data-name="Trazado 1231477" d="M157.943,152.9l-7.267,17.986-28.8-3.5,18.034-19.855Z" transform="translate(-36.564 -31.917)" fill="#ff7d7d"/>
          <rect id="Rectángulo_423072" data-name="Rectángulo 423072" width="45.295" height="110.261" transform="translate(159.555 298.96)" fill="#a8b09a"/>
          <path id="Trazado_1231478" data-name="Trazado 1231478" d="M305.547,483.825h-56.1L232.565,382.363l-9.79,101.462H181.049l23.035-139.066h70.535Z" transform="translate(-49.371 -74.604)" fill="#4360f2"/>
          <path id="Trazado_1231479" data-name="Trazado 1231479" d="M279.1,365.9l-4.479-21.138H204.085L181.049,483.825h23.035l21.057-127.666Z" transform="translate(-49.371 -74.604)" fill="#344bbd"/>
          <line id="Línea_870" data-name="Línea 870" y1="37.603" x2="1.186" transform="translate(183.194 270.156)" fill="none" stroke="#344bbd" stroke-miterlimit="10" stroke-width="0.606"/>
          <path id="Trazado_1231480" data-name="Trazado 1231480" d="M239.721,359.741v8.509c0,4.451,5.862,7.239,5.862,7.239" transform="translate(-62.07 -77.847)" fill="none" stroke="#344bbd" stroke-miterlimit="10" stroke-width="0.606"/>
          <path id="Trazado_1231481" data-name="Trazado 1231481" d="M247.552,397.3l53.475,97.9H263.836Z" transform="translate(-63.765 -85.976)" fill="#344bbd"/>
          <path id="Trazado_1231482" data-name="Trazado 1231482" d="M275.864,169.7l5.117,3.691V306.314H210.448L247.2,167.133l8.607,2.341Z" transform="translate(-55.734 -36.159)" fill="#ff4a92"/>
          <path id="Trazado_1231483" data-name="Trazado 1231483" d="M262.625,193.792s5.395,6.86,13.205,5.006c10.782-2.558,10.782-26.919,10.782-26.919l-2.627-1.895-24.847-1.525s-14.064,17.174-10.629,24S262.625,193.792,262.625,193.792Z" transform="translate(-63.855 -36.446)" fill="none" stroke="#bd2460" stroke-miterlimit="10" stroke-width="1"/>
          <path id="Trazado_1231484" data-name="Trazado 1231484" d="M231.5,314.151l3.051-24.4L231.5,246.731l9.374-43.393H231.5L201.739,313.774Z" transform="translate(-53.85 -43.995)" fill="#bd2460"/>
          <path id="Trazado_1231485" data-name="Trazado 1231485" d="M290.507,170.12s22.4,4.895,32.486,7.713,24.772,10.977,35.452,33.228,29.964,60.225,29.964,60.225l-52.363,1.631-14.389-35.494L313.5,286.268l42.424,159.759H301.659A28.991,28.991,0,0,1,272.735,419L263.71,286.268Z" transform="translate(-67.262 -36.805)" fill="#dee8cc"/>
          <path id="Trazado_1231486" data-name="Trazado 1231486" d="M302.687,209.529c4.559-15.9-13.662-29.45-13.943-29.658L263.709,288.378l.354,5.2c6.2-7.192,23.986-28.8,26-42.114a24.3,24.3,0,0,0-5.489-19.316,38.3,38.3,0,0,0,18.11-22.621" transform="translate(-67.262 -38.916)" fill="#c2cfa9"/>
          <path id="Trazado_1231487" data-name="Trazado 1231487" d="M314.5,304.858l8.158-48.844-20.026,28.819-30.369-12.714-3.93,17.035,28.959,21s-1.113,20.736,1.558,28.524l28.794,15.676Z" transform="translate(-68.263 -55.396)" fill="#c2cfa9"/>
          <path id="Trazado_1231488" data-name="Trazado 1231488" d="M317.278,322.162c-6.378-2.076,1.335-34.859,1.335-34.859l19.877,3.56Z" transform="translate(-78.31 -62.168)" fill="#a8b09a"/>
          <path id="Trazado_1231489" data-name="Trazado 1231489" d="M222.713,165.538,200.37,239.832l1.113,42.117L177.9,444.418H118.71l51.77-168.988-.744-36.031-2.519-9.476s-10.9,13.35-26.478,31.373-41.608,14.24-51.4,7.788-18.023-25.8-5.34-50.615,27.813-51.96,27.813-51.96l36.046,4.672-7.12,26.256s18.173-14.736,27.074-22.969,27.959-16.192,54.9-8.93" transform="translate(-26.966 -35.197)" fill="#dee8cc"/>
          <path id="Trazado_1231490" data-name="Trazado 1231490" d="M223.8,203.055c-8.334,16.522,1.638,27.177,1.638,27.177s-22.788,13.817,4.943,64.077l1.207-8.315-1.113-42.117,18.8-62.5c-6.258,2.6-19.2,9.237-25.471,21.678" transform="translate(-57.073 -39.242)" fill="#c2cfa9"/>
          <path id="Trazado_1231491" data-name="Trazado 1231491" d="M176.41,225.742c-2.448,6.453-3.671,12.683-5.9,17.355-1.913,4.018-9.629,14.636-8.175,24.446,13.8-16.06,23.194-27.561,23.194-27.561-1.78-6.453-1.78-15.909,6.23-30.817,0,0-10.337,3.352-15.353,16.576" transform="translate(-45.283 -45.256)" fill="#c2cfa9"/>
          <path id="Trazado_1231492" data-name="Trazado 1231492" d="M283.9,387.449h39.458s11.116,33.524-6.684,33.524S287.164,410,283.9,387.449" transform="translate(-71.632 -83.844)" fill="#c2cfa9"/>
          <path id="Trazado_1231493" data-name="Trazado 1231493" d="M158.99,419.132a9.316,9.316,0,0,0,5.954,1.841c17.8,0,29.511-10.977,32.774-33.524H168.7" transform="translate(-44.597 -83.844)" fill="#c2cfa9"/>
          <path id="Trazado_1231494" data-name="Trazado 1231494" d="M330.066,284.5l-21.51-3.633-3.264,12.905,23.734,12.757Z" transform="translate(-76.262 -60.775)" fill="#ff7d7d"/>
          <path id="Trazado_1231495" data-name="Trazado 1231495" d="M286.353,222.409a38.3,38.3,0,0,0,18.109-22.621c4.595-16.02-13.955-29.667-13.955-29.667l-26.8,116.148s25.685-28.381,28.132-44.542a24.3,24.3,0,0,0-5.488-19.316" transform="translate(-67.262 -36.805)" fill="#fff"/>
          <path id="Trazado_1231496" data-name="Trazado 1231496" d="M252.819,166.325s-20.563,6.237-29.018,23c-8.334,16.522,1.638,27.177,1.638,27.177s-23.443,14.209,6.15,66.235l-1.113-42.117Z" transform="translate(-57.072 -35.984)" fill="#fff"/>
          <line id="Línea_871" data-name="Línea 871" x1="10.68" y2="47.394" transform="translate(103.092 162.24)" fill="none" stroke="#a8b09a" stroke-miterlimit="10" stroke-width="0.463"/>
          <path id="Trazado_1231497" data-name="Trazado 1231497" d="M154.456,256.082a33.22,33.22,0,0,0-3.634-16.314" transform="translate(-42.829 -51.88)" fill="none" stroke="#a8b09a" stroke-miterlimit="10" stroke-width="0.463"/>
          <line id="Línea_872" data-name="Línea 872" x1="11.199" y2="31.533" transform="translate(93.01 133.822)" fill="none" stroke="#a8b09a" stroke-miterlimit="10" stroke-width="0.463"/>
          <path id="Trazado_1231498" data-name="Trazado 1231498" d="M134.633,180.156a1.706,1.706,0,1,1-1.706-1.706,1.706,1.706,0,0,1,1.706,1.706" transform="translate(-38.587 -38.608)" fill="#ff4a92"/>
          <path id="Trazado_1231499" data-name="Trazado 1231499" d="M128.386,197.194a1.706,1.706,0,1,1-1.706-1.706,1.706,1.706,0,0,1,1.706,1.706" transform="translate(-37.235 -42.296)" fill="#ff4a92"/>
          <line id="Línea_873" data-name="Línea 873" y1="23.693" x2="3.56" transform="translate(254.395 176.926)" fill="none" stroke="#a8b09a" stroke-miterlimit="10" stroke-width="0.463"/>
          <path id="Trazado_1231500" data-name="Trazado 1231500" d="M350.488,231.646s-4.118,10.812-12.517,17.5" transform="translate(-83.335 -50.122)" fill="none" stroke="#a8b09a" stroke-miterlimit="10" stroke-width="0.463"/>
          <path id="Trazado_1231501" data-name="Trazado 1231501" d="M319.581,237.347H315.8V226.392a1.891,1.891,0,1,1,3.782,0Z" transform="translate(-78.536 -48.575)" fill="none" stroke="#fff" stroke-miterlimit="10" stroke-width="0.463"/>
          <path id="Trazado_1231502" data-name="Trazado 1231502" d="M320.626,230.037c3.115,3.115,2.782,6.889,1.335,10.008s-2.337,8.455.668,10.293" transform="translate(-79.581 -49.774)" fill="none" stroke="#fff" stroke-miterlimit="10" stroke-width="0.463"/>
          <path id="Trazado_1231503" data-name="Trazado 1231503" d="M303.02,240.39h23.474a51.328,51.328,0,0,0-12.792-1.834A28.4,28.4,0,0,0,303.02,240.39Z" transform="translate(-75.77 -51.618)" fill="none" stroke="#fff" stroke-miterlimit="10" stroke-width="0.463"/>
          <path id="Trazado_1231504" data-name="Trazado 1231504" d="M136.995,141.086l23.437,4.747,4.747-12.711V124.7s3.115-3.454,5.451-3.565,6.119.556,6.23-.89-5.674-2.559-9.79-1.558c0,0,4.227-1.892,7.454-1.446s4.561.111,4.672-.89-6.564-2.892-11.9-.889a12.646,12.646,0,0,1,6.564-2.337c3.894-.223,6.23.556,6.453-.668s-4.9-4.45-13.462-.89c0,0,3.115-3.448,7.12-3.448s5.117-2,3.782-2.67-10.012,0-13.684,1.78-7.12,6.008-7.9,13.573Z" transform="translate(-39.836 -22.753)" fill="#f2bc18"/>
          <path id="Trazado_1231505" data-name="Trazado 1231505" d="M164.624,129.7a7.541,7.541,0,0,0,6.523,4.154v4.57s-7.261-2.123-6.523-8.724" transform="translate(-45.805 -28.058)" fill="#a68110"/>
          <path id="Trazado_1231506" data-name="Trazado 1231506" d="M259.727,305.686H235.591a7.734,7.734,0,0,1-7.735-7.734V257.34A15.911,15.911,0,0,0,223.4,246.3l-1.4-1.448h45.46v53.1a7.735,7.735,0,0,1-7.735,7.734" transform="translate(-58.235 -52.979)" fill="#6981ff"/>
          <path id="Trazado_1231507" data-name="Trazado 1231507" d="M261.937,304.586H238.318a4.913,4.913,0,0,1-4.913-4.913V259.721a3.816,3.816,0,0,1,1.877-3.325c5.379-3.069,11.858,2.395,31.568,1.466v41.812a4.913,4.913,0,0,1-4.913,4.913" transform="translate(-60.703 -55.274)" fill="#fff"/>
          <path id="Trazado_1231508" data-name="Trazado 1231508" d="M266.408,289.907a6.5,6.5,0,1,1-6.5-6.5,6.5,6.5,0,0,1,6.5,6.5" transform="translate(-65.031 -61.324)" fill="#dee8cc"/>
          <path id="Trazado_1231509" data-name="Trazado 1231509" d="M248.775,299.862a2.114,2.114,0,1,1-2.114-2.114,2.114,2.114,0,0,1,2.114,2.114" transform="translate(-63.114 -64.429)" fill="#dee8cc"/>
          <path id="Trazado_1231510" data-name="Trazado 1231510" d="M250.733,272.573a4.078,4.078,0,1,1-4.078-4.078,4.078,4.078,0,0,1,4.078,4.078" transform="translate(-62.688 -58.097)" fill="#dee8cc"/>
          <path id="Trazado_1231511" data-name="Trazado 1231511" d="M246.4,232.793h-1.582V218.948a2.863,2.863,0,0,0-2.86-2.859H221.644a4.648,4.648,0,1,1,0-9.3h20.187a2.991,2.991,0,1,0,0-5.983H190.72a5.241,5.241,0,1,1,0-10.482h18.551a2.547,2.547,0,0,0,0-5.093H190.13a4.657,4.657,0,0,1-4.651-4.651V156.111h1.582v24.472a3.073,3.073,0,0,0,3.069,3.069h19.141a4.129,4.129,0,1,1,0,8.257H190.72a3.659,3.659,0,1,0,0,7.318h51.111a4.574,4.574,0,0,1,0,9.147H221.644a3.066,3.066,0,1,0,0,6.131h20.319a4.447,4.447,0,0,1,4.442,4.442Z" transform="translate(-50.33 -33.773)" fill="#6981ff"/>
          <line id="Línea_874" data-name="Línea 874" y2="12.099" transform="translate(194.14 191.868)" fill="none" stroke="#fff" stroke-miterlimit="10" stroke-width="0.5"/>
          <line id="Línea_875" data-name="Línea 875" y2="12.099" transform="translate(196.447 191.868)" fill="none" stroke="#fff" stroke-miterlimit="10" stroke-width="0.5"/>
          <line id="Línea_876" data-name="Línea 876" x1="9.277" transform="translate(169.621 205.731)" fill="none" stroke="#344bbd" stroke-miterlimit="10" stroke-width="0.606"/>
          <line id="Línea_877" data-name="Línea 877" x1="6.258" transform="translate(169.621 208.871)" fill="none" stroke="#344bbd" stroke-miterlimit="10" stroke-width="0.606"/>
          <line id="Línea_878" data-name="Línea 878" x1="6.258" transform="translate(169.621 212.011)" fill="none" stroke="#344bbd" stroke-miterlimit="10" stroke-width="0.606"/>
          <line id="Línea_879" data-name="Línea 879" x1="9.277" transform="translate(169.621 215.152)" fill="none" stroke="#344bbd" stroke-miterlimit="10" stroke-width="0.606"/>
          <line id="Línea_880" data-name="Línea 880" x1="6.258" transform="translate(169.621 218.292)" fill="none" stroke="#344bbd" stroke-miterlimit="10" stroke-width="0.606"/>
          <line id="Línea_881" data-name="Línea 881" x1="6.258" transform="translate(169.621 221.432)" fill="none" stroke="#344bbd" stroke-miterlimit="10" stroke-width="0.606"/>
          <line id="Línea_882" data-name="Línea 882" x1="9.277" transform="translate(169.621 224.573)" fill="none" stroke="#344bbd" stroke-miterlimit="10" stroke-width="0.606"/>
          <line id="Línea_883" data-name="Línea 883" x1="6.258" transform="translate(169.621 227.713)" fill="none" stroke="#344bbd" stroke-miterlimit="10" stroke-width="0.606"/>
          <line id="Línea_884" data-name="Línea 884" x1="6.258" transform="translate(169.621 230.853)" fill="none" stroke="#344bbd" stroke-miterlimit="10" stroke-width="0.606"/>
          <line id="Línea_885" data-name="Línea 885" x1="9.277" transform="translate(169.621 233.994)" fill="none" stroke="#344bbd" stroke-miterlimit="10" stroke-width="0.606"/>
          <line id="Línea_886" data-name="Línea 886" x1="6.258" transform="translate(169.621 237.134)" fill="none" stroke="#344bbd" stroke-miterlimit="10" stroke-width="0.606"/>
          <line id="Línea_887" data-name="Línea 887" x1="6.258" transform="translate(169.621 240.275)" fill="none" stroke="#344bbd" stroke-miterlimit="10" stroke-width="0.606"/>
          <line id="Línea_888" data-name="Línea 888" x1="9.277" transform="translate(169.621 243.415)" fill="none" stroke="#344bbd" stroke-miterlimit="10" stroke-width="0.606"/>
          <path id="Trazado_1231512" data-name="Trazado 1231512" d="M314.018,125.693s3.536-4.784,10.768-2.337,7.565,11.015,6.119,17.467-6.453,17.689,6.008,20.916C326.233,167.524,314,160.11,311.881,149.5a41.561,41.561,0,0,1,2.138-23.808" transform="translate(-77.511 -26.533)" fill="#f2bc18"/>
          <path id="Trazado_1231513" data-name="Trazado 1231513" d="M312.628,123.55l2.811,1.348a3.2,3.2,0,0,1,1.774,2.268,5.971,5.971,0,0,1-.553,4.091,3.158,3.158,0,0,1-3.1,1.524l-3.162-.331Z" transform="translate(-77.368 -26.726)" fill="#fff"/>
          <path id="Trazado_1231514" data-name="Trazado 1231514" d="M281.526,95.688s5.044,2.967,12.163,7.565,7.269,13.5,6.675,16.91-3.226,12.9-18.245,12.868l-10.828-2.04,1.631-9.346S267.434,110.67,270.4,103.7l-13.944,6.823s-6.76-3.98-4.19-13.869c3.412-13.128,24.682-13.187,29.258-.965" transform="translate(-64.66 -18.742)" fill="#f2bc18"/>
          <path id="Trazado_1231515" data-name="Trazado 1231515" d="M276.129,97.741c-2.67-3.633-10.566-6.3-16.037-2.448s-3.623,11.131-.876,13.947" transform="translate(-65.715 -20.201)" fill="none" stroke="#a68110" stroke-miterlimit="10" stroke-width="0.606"/>
          <path id="Trazado_1231516" data-name="Trazado 1231516" d="M274.554,101.1s-5.977-5.9-11.2-2.88c-4.654,2.7-2.9,8.5-1.541,10.153" transform="translate(-66.53 -21.056)" fill="none" stroke="#a68110" stroke-miterlimit="10" stroke-width="0.606"/>
          <path id="Trazado_1231517" data-name="Trazado 1231517" d="M277.838,134.754a.824.824,0,0,1,.347-1.484c3.961-.644,5.427-3.09,5.653-5.917.3-3.709-2.538-5.059-5.043-3.764s-5.562,7.546-5.562,7.546l1.186-5.785c-5.61-7.351-2.521-18.839-2.521-18.839a44.762,44.762,0,0,0-10.51,1.693,9.7,9.7,0,0,0-6.8,7.838c-.237,1.595-.376,2.97-.456,4.006a14.832,14.832,0,0,0,6.318,26.026l1.32,13.394,1,20.916,21.361-23.808-2.67-19.247Z" transform="translate(-64.005 -23.038)" fill="#ff7d7d"/>
          <path id="Trazado_1231518" data-name="Trazado 1231518" d="M260.277,126.673l-2.337,4.394,3.357.957" transform="translate(-66.014 -27.402)" fill="none" stroke="#c93737" stroke-linecap="round" stroke-linejoin="round" stroke-width="1"/>
          <path id="Trazado_1231519" data-name="Trazado 1231519" d="M264.225,160.423c7.469-.636,13.525-5.465,15.012-11.751A14.818,14.818,0,0,1,263.71,155.2Z" transform="translate(-67.262 -32.163)" fill="#c93737"/>
          <path id="Trazado_1231520" data-name="Trazado 1231520" d="M284.208,135.266c0-1.633,2.466-6.082,4.914-4.561,1.591.988.853,3.671-.575,4.561" transform="translate(-71.699 -28.207)" fill="none" stroke="#ff6b6b" stroke-miterlimit="10" stroke-width="1"/>
          <path id="Trazado_1231521" data-name="Trazado 1231521" d="M253.636,116.64l19.457,5.852s-.99,4.161-1.881,7.054-5.117,6.038-8.381,1.758-4.92-3.843-7.516-3.472-4.918-1.694-4.129-4.368C251.846,121.229,253.636,116.64,253.636,116.64Z" transform="translate(-64.518 -25.23)" fill="none" stroke="#fff" stroke-miterlimit="10" stroke-width="0.606"/>
          <line id="Línea_889" data-name="Línea 889" x1="4.665" y1="1.257" transform="translate(207.31 102.186)" fill="none" stroke="#fff" stroke-miterlimit="10" stroke-width="0.606"/>
          <path id="Trazado_1231522" data-name="Trazado 1231522" d="M261.633,139.922c0,1.828-.959,3.31-2.141,3.31s-2.142-1.482-2.142-3.31.958-3.31,2.142-3.31,2.141,1.482,2.141,3.31" transform="translate(-65.886 -29.553)" fill="#fff"/>
          <path id="Trazado_1231523" data-name="Trazado 1231523" d="M257.349,146.764a3.209,3.209,0,0,0,3.82.556" transform="translate(-65.886 -31.75)" fill="none" stroke="#ff6b6b" stroke-linecap="round" stroke-linejoin="round" stroke-width="1"/>
          <path id="Trazado_1231524" data-name="Trazado 1231524" d="M269.664,126.3c-.319,1.091-1.068,1.832-1.672,1.656s-.836-1.205-.517-2.3,1.068-1.832,1.672-1.656.836,1.205.517,2.3" transform="translate(-68.046 -26.818)" fill="#2a1854"/>
          <path id="Trazado_1231525" data-name="Trazado 1231525" d="M259.682,123.38c-.319,1.091-1.068,1.832-1.672,1.656s-.836-1.2-.517-2.3,1.068-1.832,1.672-1.656.836,1.205.517,2.3" transform="translate(-65.886 -26.187)" fill="#2a1854"/>
          <line id="Línea_890" data-name="Línea 890" x2="5.6" y2="2.225" transform="translate(200.698 90.223)" fill="none" stroke="#f2bc18" stroke-miterlimit="10" stroke-width="2.019"/>
          <line id="Línea_891" data-name="Línea 891" x1="4.898" y1="0.562" transform="translate(191.927 88.758)" fill="none" stroke="#f2bc18" stroke-miterlimit="10" stroke-width="2.019"/>
          <path id="Trazado_1231526" data-name="Trazado 1231526" d="M301.637,276.063s0,11.565-5.336,20.171l-17.5-10.675s-6.3.32-8.9-1.559-5.34-3.931-5.34-3.931-9.123.816-9.346,0S265,277.25,265,277.25a18.855,18.855,0,0,0-5.266-1.557c-2.225-.149-5.785.074-5.563-.965s7.127-2.447,11.092-1.261l-6.2-3.264s-5.137.074-4.905-1.113,6.611-1.854,12.322.742l-4.3-3.709s-4.673-.148-4.524-.963,2.744-1.149,5.34-.946,18.245,10.29,18.245,10.29Z" transform="translate(-65.194 -57.159)" fill="#f2bc18"/>
          <path id="Trazado_1231527" data-name="Trazado 1231527" d="M400.155,295.938c7.12,14.834-1.524,45.391-39.033,36.787s-43.145-11.274-43.145-11.274,7.749-15.471,7.749-37.432Z" transform="translate(-79.007 -61.457)" fill="#dee8cc"/>
          <line id="Línea_892" data-name="Línea 892" x2="37.47" y2="6" transform="translate(264.442 225.4)" fill="none" stroke="#a8b09a" stroke-miterlimit="10" stroke-width="0.463"/>
          <line id="Línea_893" data-name="Línea 893" y1="2.034" x2="19.017" transform="translate(285.108 225.4)" fill="none" stroke="#a8b09a" stroke-miterlimit="10" stroke-width="0.463"/>
          <line id="Línea_894" data-name="Línea 894" x1="12.572" y2="6.914" transform="translate(280.65 221.081)" fill="none" stroke="#a8b09a" stroke-miterlimit="10" stroke-width="0.463"/>
          <line id="Línea_895" data-name="Línea 895" x2="29.45" y2="6.132" transform="translate(243.191 248.295)" fill="none" stroke="#a8b09a" stroke-miterlimit="10" stroke-width="0.463"/>
          <path id="Trazado_1231528" data-name="Trazado 1231528" d="M332.928,324.692a1.514,1.514,0,1,1-1.514-1.514,1.514,1.514,0,0,1,1.514,1.514" transform="translate(-81.588 -69.933)" fill="#ff4a92"/>
          <path id="Trazado_1231529" data-name="Trazado 1231529" d="M346.144,327.4a1.514,1.514,0,1,1-1.514-1.514,1.514,1.514,0,0,1,1.514,1.514" transform="translate(-84.448 -70.52)" fill="#ff4a92"/>
          <path id="Trazado_1231530" data-name="Trazado 1231530" d="M192.626,81.256a2.091,2.091,0,1,1-2.091-2.091,2.091,2.091,0,0,1,2.091,2.091" transform="translate(-50.972 -17.119)" fill="#ff4a92"/>
          <path id="Trazado_1231531" data-name="Trazado 1231531" d="M184.138,64.856a4.254,4.254,0,1,1-4.254-4.254,4.254,4.254,0,0,1,4.254,4.254" transform="translate(-48.198 -13.102)" fill="#ff4a92"/>
          <path id="Trazado_1231532" data-name="Trazado 1231532" d="M194.743,58.036a1.653,1.653,0,1,1-1.653-1.653,1.652,1.652,0,0,1,1.653,1.653" transform="translate(-51.62 -12.189)" fill="#ff4a92"/>
        </g>
      </g>
    </g>
  </g>
</svg>
