<svg xmlns="http://www.w3.org/2000/svg" xmlns:xlink="http://www.w3.org/1999/xlink" width="113" height="113" viewBox="0 0 113 113">
  <defs>
    <filter id="Trazado_982547" x="0" y="0" width="113" height="113" filterUnits="userSpaceOnUse">
      <feOffset dy="3" input="SourceAlpha"/>
      <feGaussianBlur stdDeviation="3" result="blur"/>
      <feFlood flood-opacity="0.161"/>
      <feComposite operator="in" in2="blur"/>
      <feComposite in="SourceGraphic"/>
    </filter>
  </defs>
  <g id="Grupo_1233122" data-name="Grupo 1233122" transform="translate(-324 -1420.379)">
    <g id="Grupo_1232484" data-name="Grupo 1232484" transform="translate(0 -43.58)">
      <g id="Grupo_1230095" data-name="Grupo 1230095" transform="translate(-0.25 -13219.084)">
        <g id="Grupo_1224255" data-name="Grupo 1224255" transform="translate(0.25 13230)">
          <g id="Grupo_1223775" data-name="Grupo 1223775" transform="translate(0 -4451.031)">
            <g id="Grupo_1206275" data-name="Grupo 1206275" transform="translate(0 -3448.335)">
              <g id="Grupo_1203802" data-name="Grupo 1203802" transform="translate(0.5 6552.41)">
                <g id="Grupo_1202424" data-name="Grupo 1202424" transform="translate(0 1464)">
                  <g id="Grupo_1178325" data-name="Grupo 1178325" transform="translate(0 424)">
                    <g id="Grupo_1177679" data-name="Grupo 1177679" transform="translate(332.5 918)">
                      <g id="Grupo_1172010" data-name="Grupo 1172010">
                        <g id="Grupo_1171046" data-name="Grupo 1171046">
                          <g id="Grupo_1148525" data-name="Grupo 1148525">
                            <g transform="matrix(1, 0, 0, 1, -9, -6)" filter="url(#Trazado_982547)">
                              <g id="Trazado_982547-2" data-name="Trazado 982547" transform="translate(9 6)" fill="#d6ccfe">
                                <path d="M 47.5 93.5 C 41.28937149047852 93.5 35.26533508300781 92.28397369384766 29.59518623352051 89.88570404052734 C 24.11771965026855 87.56893157958984 19.19813346862793 84.25196075439453 14.97309303283691 80.02691650390625 C 10.74804019927979 75.80186462402344 7.431066513061523 70.88229370117188 5.114293098449707 65.40481567382812 C 2.716026782989502 59.73468017578125 1.5 53.71062850952148 1.5 47.5 C 1.5 41.28937149047852 2.716026782989502 35.26533508300781 5.114293098449707 29.59518623352051 C 7.431066513061523 24.11771965026855 10.74804019927979 19.19813346862793 14.97309303283691 14.97309303283691 C 19.19813346862793 10.74804019927979 24.11771965026855 7.431066513061523 29.59518623352051 5.114293098449707 C 35.26533508300781 2.716026782989502 41.28937149047852 1.5 47.5 1.5 C 53.71062850952148 1.5 59.73468017578125 2.716026782989502 65.40481567382812 5.114293098449707 C 70.88229370117188 7.431066513061523 75.80186462402344 10.74804019927979 80.02691650390625 14.97309303283691 C 84.25196075439453 19.19813346862793 87.56893157958984 24.11771965026855 89.88570404052734 29.59518623352051 C 92.28397369384766 35.26533508300781 93.5 41.28937149047852 93.5 47.5 C 93.5 53.71062850952148 92.28397369384766 59.73468017578125 89.88570404052734 65.40481567382812 C 87.56893157958984 70.88229370117188 84.25196075439453 75.80186462402344 80.02691650390625 80.02691650390625 C 75.80186462402344 84.25196075439453 70.88229370117188 87.56893157958984 65.40481567382812 89.88570404052734 C 59.73468017578125 92.28397369384766 53.71062850952148 93.5 47.5 93.5 Z" stroke="none"/>
                                <path d="M 47.5 3 C 41.49121475219727 3 35.66376876831055 4.176155090332031 30.17950439453125 6.495796203613281 C 24.88084411621094 8.736953735351562 20.12152099609375 11.94598388671875 16.03375244140625 16.03375244140625 C 11.94598388671875 20.12152099609375 8.736953735351562 24.88084411621094 6.495796203613281 30.17950439453125 C 4.176155090332031 35.66376876831055 3 41.49121475219727 3 47.5 C 3 53.50878524780273 4.176155090332031 59.33623123168945 6.495796203613281 64.82049560546875 C 8.736953735351562 70.11915588378906 11.94598388671875 74.87847900390625 16.03375244140625 78.96624755859375 C 20.12152099609375 83.05401611328125 24.88084411621094 86.26304626464844 30.17950439453125 88.50419616699219 C 35.66376876831055 90.82384490966797 41.49121475219727 92 47.5 92 C 53.50878524780273 92 59.33623123168945 90.82384490966797 64.82049560546875 88.50419616699219 C 70.11915588378906 86.26304626464844 74.87847900390625 83.05401611328125 78.96624755859375 78.96624755859375 C 83.05401611328125 74.87847900390625 86.26304626464844 70.11915588378906 88.50419616699219 64.82049560546875 C 90.82384490966797 59.33623123168945 92 53.50878524780273 92 47.5 C 92 41.49121475219727 90.82384490966797 35.66376876831055 88.50419616699219 30.17950439453125 C 86.26304626464844 24.88084411621094 83.05401611328125 20.12152099609375 78.96624755859375 16.03375244140625 C 74.87847900390625 11.94598388671875 70.11915588378906 8.736953735351562 64.82049560546875 6.495796203613281 C 59.33623123168945 4.176155090332031 53.50878524780273 3 47.5 3 M 47.5 0 C 73.7335205078125 0 95 21.2664794921875 95 47.5 C 95 73.7335205078125 73.7335205078125 95 47.5 95 C 21.2664794921875 95 0 73.7335205078125 0 47.5 C 0 21.2664794921875 21.2664794921875 0 47.5 0 Z" stroke="none" fill="#7958fb"/>
                              </g>
                            </g>
                          </g>
                        </g>
                      </g>
                    </g>
                  </g>
                </g>
              </g>
            </g>
          </g>
        </g>
      </g>
    </g>
    <g id="microscopico" transform="translate(347.785 1441.164)">
      <path id="Trazado_1230924" data-name="Trazado 1230924" d="M75.74,151.55a1.308,1.308,0,0,1-1.178-.724L64.093,129.888a1.309,1.309,0,1,1,2.342-1.169L76.9,149.657a1.309,1.309,0,0,1-1.165,1.893Zm0,0" transform="translate(-53.493 -107.057)" fill="#a5221a"/>
      <path id="Trazado_1230925" data-name="Trazado 1230925" d="M150.248,77.081a1.309,1.309,0,0,1-.583-.137L128.727,66.475a1.309,1.309,0,1,1,1.17-2.342L150.835,74.6a1.309,1.309,0,0,1-.587,2.48Zm0,0" transform="translate(-107.064 -53.526)" fill="#a5221a"/>
      <path id="Trazado_1230926" data-name="Trazado 1230926" d="M28.938,18.469A10.469,10.469,0,1,1,18.469,8,10.469,10.469,0,0,1,28.938,18.469Zm0,0" transform="translate(-6.691 -6.691)" fill="#ffc0a7"/>
      <path id="Trazado_1230927" data-name="Trazado 1230927" d="M11.778,23.555A11.778,11.778,0,1,1,23.555,11.778,11.777,11.777,0,0,1,11.778,23.555Zm0-20.938a9.16,9.16,0,1,0,9.16,9.16A9.16,9.16,0,0,0,11.778,2.617Zm0,0" fill="#a5221a"/>
      <path id="Trazado_1230928" data-name="Trazado 1230928" d="M177.876,156.938A20.938,20.938,0,1,1,156.938,136,20.938,20.938,0,0,1,177.876,156.938Zm0,0" transform="translate(-113.754 -113.754)" fill="#ffc0a7"/>
      <path id="Trazado_1230929" data-name="Trazado 1230929" d="M150.246,172.493a22.246,22.246,0,1,1,22.246-22.246A22.247,22.247,0,0,1,150.246,172.493Zm0-41.876a19.629,19.629,0,1,0,19.629,19.629A19.629,19.629,0,0,0,150.246,130.617Zm0,0" transform="translate(-107.062 -107.062)" fill="#a5221a"/>
      <path id="Trazado_1230930" data-name="Trazado 1230930" d="M55.852,46.979a3.953,3.953,0,0,1-7.852,0C48,43.49,51.926,40,51.926,40S55.852,43.49,55.852,46.979Zm0,0" transform="translate(-40.148 -33.457)" fill="#dc2d22"/>
      <path id="Trazado_1230931" data-name="Trazado 1230931" d="M45.234,45.079A5.036,5.036,0,0,1,40,40.28c0-4.031,4.188-7.8,4.364-7.958a1.309,1.309,0,0,1,1.741,0c.178.16,4.364,3.926,4.364,7.958a5.036,5.036,0,0,1-5.234,4.8Zm0-9.923c-1.129,1.249-2.617,3.3-2.617,5.125a2.661,2.661,0,0,0,5.234,0C47.852,38.46,46.364,36.4,45.234,35.156Zm0,0" transform="translate(-33.457 -26.758)" fill="#a5221a"/>
      <path id="Trazado_1230932" data-name="Trazado 1230932" d="M215.7,166.543c0-3.613-3.516-6.543-7.852-6.543S200,162.93,200,166.543s3.516,6.543,7.852,6.543S215.7,170.156,215.7,166.543Zm0,0" transform="translate(-167.285 -133.828)" fill="#dc2d22"/>
      <path id="Trazado_1230933" data-name="Trazado 1230933" d="M201.16,167.7c-5.051,0-9.16-3.521-9.16-7.852S196.109,152,201.16,152s9.16,3.521,9.16,7.852S206.211,167.7,201.16,167.7Zm0-13.086c-3.608,0-6.543,2.348-6.543,5.234s2.935,5.234,6.543,5.234,6.543-2.348,6.543-5.234S204.768,154.617,201.16,154.617Zm0,0" transform="translate(-160.593 -127.136)" fill="#a5221a"/>
      <path id="Trazado_1230934" data-name="Trazado 1230934" d="M231.852,186.617c0-1.445-1.758-2.617-3.926-2.617S224,185.172,224,186.617s1.758,2.617,3.926,2.617S231.852,188.063,231.852,186.617Zm0,0" transform="translate(-187.359 -153.902)" fill="#e3574e"/>
      <path id="Trazado_1230935" data-name="Trazado 1230935" d="M221.234,183.852c-2.935,0-5.234-1.725-5.234-3.926S218.3,176,221.234,176s5.234,1.725,5.234,3.926S224.17,183.852,221.234,183.852Zm0-5.234c-1.6,0-2.617.774-2.617,1.309s1.019,1.309,2.617,1.309,2.617-.774,2.617-1.309S222.833,178.617,221.234,178.617Zm0,0" transform="translate(-180.667 -147.21)" fill="#a5221a"/>
      <path id="Trazado_1230936" data-name="Trazado 1230936" d="M194.033,280.609c-4.164-1.539-8.519-.135-9.727,3.134s1.188,7.167,5.352,8.707,8.518.135,9.726-3.134-1.187-7.168-5.351-8.707Zm0,0" transform="translate(-153.896 -234.185)" fill="#dc2d22"/>
      <path id="Trazado_1230937" data-name="Trazado 1230937" d="M186.339,287.753a11.223,11.223,0,0,1-5.207-1.3,9.507,9.507,0,0,1-4.906-5.769,6.476,6.476,0,0,1,.741-5.192c2.233-3.534,7.7-4.475,12.192-2.11a9.507,9.507,0,0,1,4.906,5.769,6.476,6.476,0,0,1-.741,5.192,8.085,8.085,0,0,1-6.985,3.411Zm-2.445-13.086a5.423,5.423,0,0,0-4.711,2.225,3.833,3.833,0,0,0-.424,3.118,6.905,6.905,0,0,0,3.6,4.128c3.311,1.743,7.24,1.208,8.767-1.194a3.841,3.841,0,0,0,.423-3.119,6.909,6.909,0,0,0-3.6-4.128,8.77,8.77,0,0,0-4.056-1.026Zm0,0" transform="translate(-147.196 -227.571)" fill="#a5221a"/>
      <path id="Trazado_1230938" data-name="Trazado 1230938" d="M213.679,303.147c-2.01-.925-4.112-.646-4.7.624s.57,3.05,2.58,3.976,4.113.645,4.7-.625S215.689,304.072,213.679,303.147Zm0,0" transform="translate(-174.67 -253.103)" fill="#e3574e"/>
      <path id="Trazado_1230939" data-name="Trazado 1230939" d="M207.167,302.91a7.011,7.011,0,0,1-3.231-.838,5.814,5.814,0,0,1-3.01-3.39,3.1,3.1,0,0,1,.338-2.486c1.125-1.78,4.032-2.109,6.613-.748a5.816,5.816,0,0,1,3.01,3.391,3.1,3.1,0,0,1-.338,2.486A3.861,3.861,0,0,1,207.167,302.91Zm-2.556-5.687a1.374,1.374,0,0,0-1.134.376.465.465,0,0,0-.021.407,3.25,3.25,0,0,0,1.7,1.75c1.484.785,2.9.62,3.181.171a.462.462,0,0,0,.021-.407,3.249,3.249,0,0,0-1.7-1.749A4.475,4.475,0,0,0,204.611,297.223Zm0,0" transform="translate(-167.957 -246.418)" fill="#a5221a"/>
      <path id="Trazado_1230940" data-name="Trazado 1230940" d="M299.565,233.516c-2.313-2.314-6.439-1.939-9.215.838s-3.151,6.9-.837,9.215,6.439,1.939,9.215-.838S301.879,235.83,299.565,233.516Zm0,0" transform="translate(-240.886 -194.05)" fill="#dc2d22"/>
      <path id="Trazado_1230941" data-name="Trazado 1230941" d="M286.589,239.638a6.6,6.6,0,0,1-4.755-1.9,6.72,6.72,0,0,1-1.868-5.478,9.454,9.454,0,0,1,8.293-8.293,6.561,6.561,0,0,1,7.346,7.346,9.454,9.454,0,0,1-8.293,8.293c-.243.022-.484.033-.723.033Zm2.383-13.086c-.157,0-.316.006-.477.022a6.838,6.838,0,0,0-5.923,5.923,3.949,3.949,0,0,0,4.5,4.5A6.838,6.838,0,0,0,293,231.076a4.153,4.153,0,0,0-1.111-3.39,4.037,4.037,0,0,0-2.914-1.134Zm0,0" transform="translate(-234.132 -187.293)" fill="#a5221a"/>
      <path id="Trazado_1230942" data-name="Trazado 1230942" d="M315.061,254.042c-.925-.925-2.8-.55-4.189.838s-1.763,3.263-.837,4.189,2.8.55,4.189-.838S315.987,254.968,315.061,254.042Zm0,0" transform="translate(-258.895 -212.062)" fill="#e3574e"/>
      <path id="Trazado_1230943" data-name="Trazado 1230943" d="M304.7,254.194a3.143,3.143,0,0,1-2.273-.893c-1.459-1.458-1.091-4.111.838-6.038s4.58-2.3,6.038-.838,1.091,4.111-.838,6.038a5.486,5.486,0,0,1-3.765,1.73Zm2.334-6.041a2.946,2.946,0,0,0-1.919.96c-.985.986-1.1,2.073-.837,2.337s1.351.148,2.337-.837,1.1-2.073.837-2.337A.6.6,0,0,0,307.03,248.153Zm0,0" transform="translate(-252.208 -205.371)" fill="#a5221a"/>
      <path id="Trazado_1230944" data-name="Trazado 1230944" d="M165.234,234.617A2.617,2.617,0,1,1,162.617,232,2.617,2.617,0,0,1,165.234,234.617Zm0,0" transform="translate(-133.828 -194.05)" fill="#e3574e"/>
      <path id="Trazado_1230945" data-name="Trazado 1230945" d="M155.926,231.852a3.926,3.926,0,1,1,3.926-3.926A3.926,3.926,0,0,1,155.926,231.852Zm0-5.234a1.309,1.309,0,1,0,1.309,1.309A1.309,1.309,0,0,0,155.926,226.617Zm0,0" transform="translate(-127.136 -187.359)" fill="#a5221a"/>
      <path id="Trazado_1230946" data-name="Trazado 1230946" d="M325.234,178.617A2.617,2.617,0,1,1,322.617,176,2.617,2.617,0,0,1,325.234,178.617Zm0,0" transform="translate(-267.655 -147.21)" fill="#e3574e"/>
      <path id="Trazado_1230947" data-name="Trazado 1230947" d="M315.926,175.852a3.926,3.926,0,1,1,3.926-3.926A3.926,3.926,0,0,1,315.926,175.852Zm0-5.234a1.309,1.309,0,1,0,1.309,1.309A1.309,1.309,0,0,0,315.926,170.617Zm0,0" transform="translate(-260.964 -140.519)" fill="#a5221a"/>
      <path id="Trazado_1230948" data-name="Trazado 1230948" d="M309.234,338.617A2.617,2.617,0,1,1,306.617,336,2.617,2.617,0,0,1,309.234,338.617Zm0,0" transform="translate(-254.273 -281.038)" fill="#e3574e"/>
      <path id="Trazado_1230949" data-name="Trazado 1230949" d="M299.926,335.852a3.926,3.926,0,1,1,3.926-3.926A3.926,3.926,0,0,1,299.926,335.852Zm0-5.234a1.309,1.309,0,1,0,1.309,1.309A1.309,1.309,0,0,0,299.926,330.617Zm0,0" transform="translate(-247.581 -274.347)" fill="#a5221a"/>
    </g>
  </g>
</svg>
