<svg xmlns="http://www.w3.org/2000/svg" xmlns:xlink="http://www.w3.org/1999/xlink" width="113" height="113" viewBox="0 0 113 113">
  <defs>
    <filter id="Trazado_982547" x="0" y="0" width="113" height="113" filterUnits="userSpaceOnUse">
      <feOffset dy="3" input="SourceAlpha"/>
      <feGaussianBlur stdDeviation="3" result="blur"/>
      <feFlood flood-opacity="0.161"/>
      <feComposite operator="in" in2="blur"/>
      <feComposite in="SourceGraphic"/>
    </filter>
  </defs>
  <g id="Grupo_1233129" data-name="Grupo 1233129" transform="translate(-744.696 -1419.969)">
    <g id="Grupo_1232486" data-name="Grupo 1232486" transform="translate(0.5 -43.99)">
      <g id="Grupo_1230113" data-name="Grupo 1230113" transform="translate(0.946 -13219.084)">
        <g id="Grupo_1230104" data-name="Grupo 1230104">
          <g id="Grupo_1224257" data-name="Grupo 1224257" transform="translate(0.25 13230)">
            <g id="Grupo_1223773" data-name="Grupo 1223773" transform="translate(0 -4451.031)">
              <g id="Grupo_1206282" data-name="Grupo 1206282" transform="translate(0 -3448.335)">
                <g id="Grupo_1203803" data-name="Grupo 1203803" transform="translate(0 6552.41)">
                  <g id="Grupo_1202425" data-name="Grupo 1202425" transform="translate(-0.25 1464)">
                    <g id="Grupo_1178324" data-name="Grupo 1178324" transform="translate(0 424)">
                      <g id="Grupo_1177680" data-name="Grupo 1177680" transform="translate(752.25 918)">
                        <g id="Grupo_1172010" data-name="Grupo 1172010">
                          <g id="Grupo_1171046" data-name="Grupo 1171046">
                            <g id="Grupo_1148525" data-name="Grupo 1148525">
                              <g transform="matrix(1, 0, 0, 1, -9, -6)" filter="url(#Trazado_982547)">
                                <g id="Trazado_982547-2" data-name="Trazado 982547" transform="translate(9 6)" fill="#d6ccfe">
                                  <path d="M 47.5 93.5 C 41.28937149047852 93.5 35.26533508300781 92.28397369384766 29.59518623352051 89.88570404052734 C 24.11771965026855 87.56893157958984 19.19813346862793 84.25196075439453 14.97309303283691 80.02691650390625 C 10.74804019927979 75.80186462402344 7.431066513061523 70.88229370117188 5.114293098449707 65.40481567382812 C 2.716026782989502 59.73468017578125 1.5 53.71062850952148 1.5 47.5 C 1.5 41.28937149047852 2.716026782989502 35.26533508300781 5.114293098449707 29.59518623352051 C 7.431066513061523 24.11771965026855 10.74804019927979 19.19813346862793 14.97309303283691 14.97309303283691 C 19.19813346862793 10.74804019927979 24.11771965026855 7.431066513061523 29.59518623352051 5.114293098449707 C 35.26533508300781 2.716026782989502 41.28937149047852 1.5 47.5 1.5 C 53.71062850952148 1.5 59.73468017578125 2.716026782989502 65.40481567382812 5.114293098449707 C 70.88229370117188 7.431066513061523 75.80186462402344 10.74804019927979 80.02691650390625 14.97309303283691 C 84.25196075439453 19.19813346862793 87.56893157958984 24.11771965026855 89.88570404052734 29.59518623352051 C 92.28397369384766 35.26533508300781 93.5 41.28937149047852 93.5 47.5 C 93.5 53.71062850952148 92.28397369384766 59.73468017578125 89.88570404052734 65.40481567382812 C 87.56893157958984 70.88229370117188 84.25196075439453 75.80186462402344 80.02691650390625 80.02691650390625 C 75.80186462402344 84.25196075439453 70.88229370117188 87.56893157958984 65.40481567382812 89.88570404052734 C 59.73468017578125 92.28397369384766 53.71062850952148 93.5 47.5 93.5 Z" stroke="none"/>
                                  <path d="M 47.5 3 C 41.49121475219727 3 35.66376876831055 4.176155090332031 30.17950439453125 6.495796203613281 C 24.88084411621094 8.736953735351562 20.12152099609375 11.94598388671875 16.03375244140625 16.03375244140625 C 11.94598388671875 20.12152099609375 8.736953735351562 24.88084411621094 6.495796203613281 30.17950439453125 C 4.176155090332031 35.66376876831055 3 41.49121475219727 3 47.5 C 3 53.50878524780273 4.176155090332031 59.33623123168945 6.495796203613281 64.82049560546875 C 8.736953735351562 70.11915588378906 11.94598388671875 74.87847900390625 16.03375244140625 78.96624755859375 C 20.12152099609375 83.05401611328125 24.88084411621094 86.26304626464844 30.17950439453125 88.50419616699219 C 35.66376876831055 90.82384490966797 41.49121475219727 92 47.5 92 C 53.50878524780273 92 59.33623123168945 90.82384490966797 64.82049560546875 88.50419616699219 C 70.11915588378906 86.26304626464844 74.87847900390625 83.05401611328125 78.96624755859375 78.96624755859375 C 83.05401611328125 74.87847900390625 86.26304626464844 70.11915588378906 88.50419616699219 64.82049560546875 C 90.82384490966797 59.33623123168945 92 53.50878524780273 92 47.5 C 92 41.49121475219727 90.82384490966797 35.66376876831055 88.50419616699219 30.17950439453125 C 86.26304626464844 24.88084411621094 83.05401611328125 20.12152099609375 78.96624755859375 16.03375244140625 C 74.87847900390625 11.94598388671875 70.11915588378906 8.736953735351562 64.82049560546875 6.495796203613281 C 59.33623123168945 4.176155090332031 53.50878524780273 3 47.5 3 M 47.5 0 C 73.7335205078125 0 95 21.2664794921875 95 47.5 C 95 73.7335205078125 73.7335205078125 95 47.5 95 C 21.2664794921875 95 0 73.7335205078125 0 47.5 C 0 21.2664794921875 21.2664794921875 0 47.5 0 Z" stroke="none" fill="#7958fb"/>
                                </g>
                              </g>
                            </g>
                          </g>
                        </g>
                      </g>
                    </g>
                  </g>
                </g>
              </g>
            </g>
          </g>
        </g>
      </g>
    </g>
    <g id="acaro" transform="translate(744.62 1438.514)">
      <g id="Grupo_1233128" data-name="Grupo 1233128" transform="translate(35.412 15.107)">
        <g id="Grupo_1233123" data-name="Grupo 1233123" transform="translate(0 8.034)">
          <path id="Trazado_1230950" data-name="Trazado 1230950" d="M123.2,219.923l-3.5-1.053a.924.924,0,0,0-1.124.537l-.522,1.29a.923.923,0,0,0,.156.95l2.628,3.054,4.306,4.574,3.661-7.789Z" transform="translate(-115.608 -211.977)" fill="#dc8758"/>
          <path id="Trazado_1230951" data-name="Trazado 1230951" d="M103.9,278.349l-3.273-.757v-.085l.01-2.03a1.062,1.062,0,0,1,.621-.96l3.243-1.476,5.663-2.419-.456,8.781Z" transform="translate(-100.631 -256.669)" fill="#dc8758"/>
          <path id="Trazado_1230952" data-name="Trazado 1230952" d="M340.21,283.229l3.273-.757-.01-2.115a1.062,1.062,0,0,0-.621-.96l-3.243-1.476-6.6-1.644.715,8.706Z" transform="translate(-301.157 -261.549)" fill="#dc8758"/>
          <path id="Trazado_1230953" data-name="Trazado 1230953" d="M325.809,224.7l2.628-3.054a.923.923,0,0,0,.156-.95l-.522-1.29a.924.924,0,0,0-1.124-.537l-3.5,1.053-4.859,1.765,3.155,6.126Z" transform="translate(-288.713 -211.977)" fill="#dc8758"/>
          <path id="Trazado_1230954" data-name="Trazado 1230954" d="M283.528,175.245l2.088-3.874a.769.769,0,0,0-.058-.818l-1.032-1.408a.769.769,0,0,0-.851-.278l-2.925.923-6.8,2.365s4.455,8.048,4.455,8S283.528,175.245,283.528,175.245Z" transform="translate(-250.191 -168.831)" fill="#dc8758"/>
          <path id="Trazado_1230955" data-name="Trazado 1230955" d="M155.272,169.79l-2.925-.923a.769.769,0,0,0-.851.278l-1.032,1.408a.769.769,0,0,0-.058.818l2.088,3.874,3.168,3.673,4.364-8.751Z" transform="translate(-143.504 -168.831)" fill="#dc8758"/>
        </g>
        <g id="Grupo_1233124" data-name="Grupo 1233124" transform="translate(17.64)">
          <path id="Trazado_1230956" data-name="Trazado 1230956" d="M236.5,113.814a3.637,3.637,0,0,0-.036-.507,3.592,3.592,0,0,0-7.112,0,3.637,3.637,0,0,0-.036.507v7.648h7.147Z" transform="translate(-229.321 -110.221)" fill="#dc8758"/>
        </g>
        <g id="Grupo_1233127" data-name="Grupo 1233127" transform="translate(3.423 6.404)">
          <g id="XMLID_404_" transform="translate(0 3.493)">
            <g id="Grupo_1233125" data-name="Grupo 1233125">
              <path id="Trazado_1230957" data-name="Trazado 1230957" d="M161.187,202.24c.011.212.032,1.109.032,1.345a18.7,18.7,0,0,1-1.062,5.844,39.054,39.054,0,0,1-3.24,7.007c-.8,1.386-1.661,2.75-2.555,4.067a13.238,13.238,0,0,1-21.9,0c-.906-1.335-1.782-2.718-2.587-4.123a38.865,38.865,0,0,1-3.231-7.016,18.656,18.656,0,0,1-1.04-5.779c0-.256.022-1.149.03-1.339a28.2,28.2,0,0,1,.733-5.24c.019-.084.04-.166.06-.248a26.307,26.307,0,0,1,1.1-3.426,24.637,24.637,0,0,1,1.072-2.325,23.231,23.231,0,0,1,1.48-2.44q.557-.8,1.169-1.526a22.475,22.475,0,0,1,1.678-1.7l3.576-2.917h15.014l2.515,2.981a19.688,19.688,0,0,1,1.483,1.57,44.331,44.331,0,0,1,2.731,4.081,24.315,24.315,0,0,1,1.028,2.23,26.36,26.36,0,0,1,1.135,3.531c.014.053.026.107.038.16A28.106,28.106,0,0,1,161.187,202.24Z" transform="translate(-125.601 -182.421)" fill="#e19974"/>
            </g>
          </g>
          <g id="XMLID_402_">
            <g id="Grupo_1233126" data-name="Grupo 1233126">
              <path id="Trazado_1230958" data-name="Trazado 1230958" d="M134.77,197c.019-.084.04-.166.06-.248a26.308,26.308,0,0,1,1.1-3.426A24.635,24.635,0,0,1,137,191.006l.012-.022a3.647,3.647,0,0,1,3.431-1.915q1.52.081,3.032.081a59.291,59.291,0,0,0,11.066-1.055l1.58-.3c-.269-.381-.491-.682-.61-.823a19.691,19.691,0,0,0-1.483-1.57l-2.515-2.981H136.5l-3.576,2.917a22.481,22.481,0,0,0-1.678,1.7q-.613.728-1.169,1.526a23.224,23.224,0,0,0-1.48,2.44,24.631,24.631,0,0,0-1.072,2.325,26.3,26.3,0,0,0-1.1,3.426c-.021.082-.041.165-.06.248a28.2,28.2,0,0,0-.733,5.24c-.008.191-.03,1.083-.03,1.339a18.656,18.656,0,0,0,1.04,5.779,38.865,38.865,0,0,0,3.231,7.016c.8,1.405,1.681,2.788,2.587,4.123a13.228,13.228,0,0,0,15.154,5.124,13.094,13.094,0,0,1-6.748-5.124c-.906-1.335-1.782-2.718-2.587-4.123a38.864,38.864,0,0,1-3.231-7.016,18.655,18.655,0,0,1-1.04-5.779c0-.256.022-1.149.03-1.339A28.192,28.192,0,0,1,134.77,197Z" transform="translate(-125.601 -178.928)" fill="#dc8758"/>
              <path id="Trazado_1230959" data-name="Trazado 1230959" d="M198.843,159.529a6.447,6.447,0,0,1,1.3,3.886,55.852,55.852,0,0,1-21.107,0c0-.022,0-.042,0-.064a.5.5,0,0,1,0-.064,6.469,6.469,0,0,1,6.471-6.345h8.159a6.455,6.455,0,0,1,4.578,1.9A6.571,6.571,0,0,1,198.843,159.529Z" transform="translate(-171.707 -156.941)" fill="#e19974"/>
            </g>
          </g>
        </g>
      </g>
      <path id="Trazado_1230960" data-name="Trazado 1230960" d="M87.714,51.144l-1.936-1.556-4.049-14.6a1.028,1.028,0,0,0-.446-.6l-5.164-3.227-.4-.981a1.944,1.944,0,0,0-2.372-1.136l-2.978.9q-.193-.258-.392-.509l1.762-3.269a1.8,1.8,0,0,0-.133-1.914l-.692-.944L74.728,14l3.44-2.018a1.028,1.028,0,1,0-1.04-1.773L73.388,12.4a1.028,1.028,0,0,0-.431.5l-3.772,9.215a1.8,1.8,0,0,0-.6.081l-2.275.717A7.485,7.485,0,0,0,61.264,20.5v-1.61l.464-.177A1.028,1.028,0,0,0,61,16.789l-.126.048a4.618,4.618,0,0,0-.387-.7l8.037-6.65a1.028,1.028,0,0,0,.337-.523L70.1,4.371l3.426-2.516A1.028,1.028,0,0,0,72.309.2L68.593,2.926a1.028,1.028,0,0,0-.384.56l-1.25,4.621-7.983,6.606a4.607,4.607,0,0,0-4.743.047l-8.04-6.653-1.25-4.621a1.028,1.028,0,0,0-.384-.56L40.842.2a1.028,1.028,0,0,0-1.217,1.657l3.426,2.516L44.293,8.96a1.028,1.028,0,0,0,.337.523l8.127,6.724a4.612,4.612,0,0,0-.339.629l-.126-.048a1.028,1.028,0,0,0-.732,1.922l.464.177v1.62a7.488,7.488,0,0,0-4.973,2.473L44.564,22.2a1.791,1.791,0,0,0-.6-.081L40.194,12.9a1.028,1.028,0,0,0-.431-.5l-3.739-2.194a1.028,1.028,0,1,0-1.04,1.773L38.423,14l3.812,9.311-.692.944a1.8,1.8,0,0,0-.133,1.914l1.818,3.375q-.169.216-.334.437L39.8,29.049a1.944,1.944,0,0,0-2.372,1.136l-.4.981-5.164,3.227a1.028,1.028,0,0,0-.446.6l-4.049,14.6-1.936,1.556a1.028,1.028,0,1,0,1.288,1.6l2.194-1.764a1.028,1.028,0,0,0,.347-.526L33.3,35.924l3.93-2.455.01.012,2.323,2.7q-.443,1.2-.776,2.432l-3.165,1.441a2.1,2.1,0,0,0-1.223,1.89l-.01,1.989L33.12,58.1,31.265,59.85a1.028,1.028,0,1,0,1.409,1.5l2.14-2.014a1.028,1.028,0,0,0,.319-.657l1.19-13.346,1.489.344c0,.164-.006.328-.006.492,0,4.732,2.367,10.618,7.035,17.5a14.266,14.266,0,0,0,23.6,0c4.668-6.877,7.035-12.764,7.035-17.5,0-.175,0-.35-.006-.524l1.353-.312,1.19,13.346a1.028,1.028,0,0,0,.319.657l2.14,2.014a1.028,1.028,0,1,0,1.409-1.5L80.03,58.1,78.767,43.931l-.01-1.988a2.094,2.094,0,0,0-1.223-1.89l-3.009-1.37a27.422,27.422,0,0,0-.835-2.616l2.226-2.586.01-.012,3.93,2.456,4.031,14.532a1.029,1.029,0,0,0,.347.526l2.194,1.764a1.028,1.028,0,1,0,1.288-1.6Zm-15.121,0a69.515,69.515,0,0,1-6.988,1.317,1.028,1.028,0,1,0,.275,2.038c1.959-.265,3.932-.618,5.889-1.052A40.808,40.808,0,0,1,69.493,58.1a66.428,66.428,0,0,1-25.728-.053A40.525,40.525,0,0,1,41.5,53.389a69.411,69.411,0,0,0,15.3,1.725q2.325,0,4.641-.16a1.028,1.028,0,1,0-.142-2.051,66.97,66.97,0,0,1-20.616-1.821,17.734,17.734,0,0,1-.8-4.352,69.448,69.448,0,0,0,16.881,2.1,69.434,69.434,0,0,0,16.649-2.044,17.871,17.871,0,0,1-.814,4.357ZM40.436,40.592a69.359,69.359,0,0,0,16.33,1.966,69.278,69.278,0,0,0,16.094-1.91,27.209,27.209,0,0,1,.521,4.026,66.884,66.884,0,0,1-33.473-.058,27.22,27.22,0,0,1,.527-4.024Zm28.592-16.38.825,1.126-1.322,2.453q-.125-.128-.252-.254a7.444,7.444,0,0,0-.753-2.852ZM52.633,22.539h2.981a1.028,1.028,0,1,0,0-2.056H54.081V18.7a2.563,2.563,0,1,1,5.127,0v1.784h-.185a1.028,1.028,0,0,0,0,2.056h1.769a5.455,5.455,0,0,1,5.38,4.6c-1.477.257-2.969.455-4.447.592a1.028,1.028,0,0,0,.189,2.048c1.668-.154,3.352-.385,5.014-.686a20.015,20.015,0,0,1,2.96,3.827,66.4,66.4,0,0,1-19.964.957,1.028,1.028,0,0,0-.214,2.045,67.617,67.617,0,0,0,7.029.366A69.088,69.088,0,0,0,70.907,34.81a24.913,24.913,0,0,1,1.46,3.842A66.768,66.768,0,0,1,40.936,38.6,24.811,24.811,0,0,1,42.4,34.764c.949.2,1.908.386,2.862.548a1.028,1.028,0,0,0,.345-2.027c-.728-.124-1.459-.262-2.186-.41a19.99,19.99,0,0,1,2.96-3.8,57.485,57.485,0,0,0,10.339.947q.365,0,.729,0a1.028,1.028,0,0,0-.027-2.056,55.289,55.289,0,0,1-10.172-.819,5.455,5.455,0,0,1,5.381-4.6Zm-9.336,2.8.825-1.126,1.739.548a7.442,7.442,0,0,0-.706,2.634q-.247.239-.487.487Zm-4,5.707,2.39.72q-.389.636-.743,1.3a1,1,0,0,0-.05.1q-.232.442-.448.9l-1.613-1.875Zm-2.855,12.2.007-1.294a.032.032,0,0,1,.019-.029l1.764-.8q-.209,1.217-.315,2.466Zm30.3,19.259a12.21,12.21,0,0,1-20.2,0q-.73-1.076-1.38-2.113a68.607,68.607,0,0,0,11.6.992A68.547,68.547,0,0,0,68.1,60.44Q67.457,61.455,66.744,62.507Zm9.937-20.582a.032.032,0,0,1,.019.029l.007,1.294-1.339.309q-.1-1.2-.3-2.367ZM72.79,33.961q-.18-.376-.371-.743a1.034,1.034,0,0,0-.049-.1c-.25-.475-.516-.938-.793-1.39l2.275-.685.463,1.143Z" transform="translate(0 0)"/>
    </g>
  </g>
</svg>
