<svg xmlns="http://www.w3.org/2000/svg" xmlns:xlink="http://www.w3.org/1999/xlink" width="113" height="113" viewBox="0 0 113 113">
  <defs>
    <filter id="Trazado_982547" x="0" y="0" width="113" height="113" filterUnits="userSpaceOnUse">
      <feOffset dy="3" input="SourceAlpha"/>
      <feGaussianBlur stdDeviation="3" result="blur"/>
      <feFlood flood-opacity="0.161"/>
      <feComposite operator="in" in2="blur"/>
      <feComposite in="SourceGraphic"/>
    </filter>
  </defs>
  <g id="Grupo_1233141" data-name="Grupo 1233141" transform="translate(-1164 -1419.969)">
    <g id="Grupo_1232494" data-name="Grupo 1232494" transform="translate(0 -43.58)">
      <g id="Grupo_1230106" data-name="Grupo 1230106" transform="translate(0.75 -13219.084)">
        <g id="Grupo_1224275" data-name="Grupo 1224275" transform="translate(0.25 13230)">
          <g id="Grupo_1224268" data-name="Grupo 1224268">
            <g id="Grupo_1223779" data-name="Grupo 1223779" transform="translate(0 -4451.031)">
              <g id="Grupo_1206283" data-name="Grupo 1206283" transform="translate(0 -3448.335)">
                <g id="Grupo_1203804" data-name="Grupo 1203804" transform="translate(-1 6552)">
                  <g id="Grupo_1202426" data-name="Grupo 1202426" transform="translate(0.5 1464)">
                    <g id="Grupo_1178323" data-name="Grupo 1178323" transform="translate(0 424)">
                      <g id="Grupo_1177681" data-name="Grupo 1177681" transform="translate(1172.5 918)">
                        <g id="Grupo_1172010" data-name="Grupo 1172010">
                          <g id="Grupo_1171046" data-name="Grupo 1171046">
                            <g id="Grupo_1148525" data-name="Grupo 1148525">
                              <g transform="matrix(1, 0, 0, 1, -9, -6)" filter="url(#Trazado_982547)">
                                <g id="Trazado_982547-2" data-name="Trazado 982547" transform="translate(9 6)" fill="#d6ccfe">
                                  <path d="M 47.5 93.5 C 41.28937149047852 93.5 35.26533508300781 92.28397369384766 29.59518623352051 89.88570404052734 C 24.11771965026855 87.56893157958984 19.19813346862793 84.25196075439453 14.97309303283691 80.02691650390625 C 10.74804019927979 75.80186462402344 7.431066513061523 70.88229370117188 5.114293098449707 65.40481567382812 C 2.716026782989502 59.73468017578125 1.5 53.71062850952148 1.5 47.5 C 1.5 41.28937149047852 2.716026782989502 35.26533508300781 5.114293098449707 29.59518623352051 C 7.431066513061523 24.11771965026855 10.74804019927979 19.19813346862793 14.97309303283691 14.97309303283691 C 19.19813346862793 10.74804019927979 24.11771965026855 7.431066513061523 29.59518623352051 5.114293098449707 C 35.26533508300781 2.716026782989502 41.28937149047852 1.5 47.5 1.5 C 53.71062850952148 1.5 59.73468017578125 2.716026782989502 65.40481567382812 5.114293098449707 C 70.88229370117188 7.431066513061523 75.80186462402344 10.74804019927979 80.02691650390625 14.97309303283691 C 84.25196075439453 19.19813346862793 87.56893157958984 24.11771965026855 89.88570404052734 29.59518623352051 C 92.28397369384766 35.26533508300781 93.5 41.28937149047852 93.5 47.5 C 93.5 53.71062850952148 92.28397369384766 59.73468017578125 89.88570404052734 65.40481567382812 C 87.56893157958984 70.88229370117188 84.25196075439453 75.80186462402344 80.02691650390625 80.02691650390625 C 75.80186462402344 84.25196075439453 70.88229370117188 87.56893157958984 65.40481567382812 89.88570404052734 C 59.73468017578125 92.28397369384766 53.71062850952148 93.5 47.5 93.5 Z" stroke="none"/>
                                  <path d="M 47.5 3 C 41.49121475219727 3 35.66376876831055 4.176155090332031 30.17950439453125 6.495796203613281 C 24.88084411621094 8.736953735351562 20.12152099609375 11.94598388671875 16.03375244140625 16.03375244140625 C 11.94598388671875 20.12152099609375 8.736953735351562 24.88084411621094 6.495796203613281 30.17950439453125 C 4.176155090332031 35.66376876831055 3 41.49121475219727 3 47.5 C 3 53.50878524780273 4.176155090332031 59.33623123168945 6.495796203613281 64.82049560546875 C 8.736953735351562 70.11915588378906 11.94598388671875 74.87847900390625 16.03375244140625 78.96624755859375 C 20.12152099609375 83.05401611328125 24.88084411621094 86.26304626464844 30.17950439453125 88.50419616699219 C 35.66376876831055 90.82384490966797 41.49121475219727 92 47.5 92 C 53.50878524780273 92 59.33623123168945 90.82384490966797 64.82049560546875 88.50419616699219 C 70.11915588378906 86.26304626464844 74.87847900390625 83.05401611328125 78.96624755859375 78.96624755859375 C 83.05401611328125 74.87847900390625 86.26304626464844 70.11915588378906 88.50419616699219 64.82049560546875 C 90.82384490966797 59.33623123168945 92 53.50878524780273 92 47.5 C 92 41.49121475219727 90.82384490966797 35.66376876831055 88.50419616699219 30.17950439453125 C 86.26304626464844 24.88084411621094 83.05401611328125 20.12152099609375 78.96624755859375 16.03375244140625 C 74.87847900390625 11.94598388671875 70.11915588378906 8.736953735351562 64.82049560546875 6.495796203613281 C 59.33623123168945 4.176155090332031 53.50878524780273 3 47.5 3 M 47.5 0 C 73.7335205078125 0 95 21.2664794921875 95 47.5 C 95 73.7335205078125 73.7335205078125 95 47.5 95 C 21.2664794921875 95 0 73.7335205078125 0 47.5 C 0 21.2664794921875 21.2664794921875 0 47.5 0 Z" stroke="none" fill="#7958fb"/>
                                </g>
                              </g>
                            </g>
                          </g>
                        </g>
                      </g>
                    </g>
                  </g>
                </g>
              </g>
            </g>
          </g>
        </g>
      </g>
    </g>
    <g id="veneno" transform="translate(1190.122 1441.814)">
      <g id="Grupo_1233130" data-name="Grupo 1233130" transform="translate(23.41 5.256)">
        <path id="Trazado_1230961" data-name="Trazado 1230961" d="M198.92,42.855c-1.546-1.763-1.583-2.885-1.378-5.719-4.4,3.455-3.658,6.4-2.845,8.87C197.289,46.368,198.958,44.751,198.92,42.855Z" transform="translate(-194.079 -37.136)" fill="#025f80" fill-rule="evenodd"/>
      </g>
      <g id="Grupo_1233131" data-name="Grupo 1233131" transform="translate(33.506 5.256)">
        <path id="Trazado_1230962" data-name="Trazado 1230962" d="M282,46.006c.817-2.466,1.559-5.416-2.845-8.87.209,2.834.171,3.956-1.374,5.719C278.79,45.454,280.2,46.006,282,46.006Z" transform="translate(-277.785 -37.136)" fill="#025f80" fill-rule="evenodd"/>
      </g>
      <g id="Grupo_1233132" data-name="Grupo 1233132" transform="translate(22.544 10.552)">
        <path id="Trazado_1230963" data-name="Trazado 1230963" d="M203.573,89.359A8.334,8.334,0,1,0,187.014,90.7h16.449A8.279,8.279,0,0,0,203.573,89.359Z" transform="translate(-186.905 -81.045)" fill="#dedbee" fill-rule="evenodd"/>
      </g>
      <g id="Grupo_1233133" data-name="Grupo 1233133" transform="translate(13.938 18.365)">
        <path id="Trazado_1230964" data-name="Trazado 1230964" d="M145.865,173.254a22.63,22.63,0,0,0,3.57-11.691,15.042,15.042,0,0,0-4.811-11.237,16.328,16.328,0,0,0-3.9-2.663,19.255,19.255,0,0,0-16.449,0,16.262,16.262,0,0,0-3.9,2.663,15.044,15.044,0,0,0-4.814,11.237,22.635,22.635,0,0,0,3.573,11.691c3.1,4.945,7.932,8.662,13.365,8.662S142.764,178.2,145.865,173.254Z" transform="translate(-115.558 -145.818)" fill="#025f80" fill-rule="evenodd"/>
      </g>
      <g id="Grupo_1233134" data-name="Grupo 1233134" transform="translate(26.575 18.368)">
        <path id="Trazado_1230965" data-name="Trazado 1230965" d="M238,173.278a22.63,22.63,0,0,0,3.57-11.691,15.042,15.042,0,0,0-4.811-11.237,16.328,16.328,0,0,0-3.9-2.663,18.684,18.684,0,0,0-7.922-1.842,17.668,17.668,0,0,1,2.814,1.088,16.133,16.133,0,0,1,3.9,2.663,15.031,15.031,0,0,1,4.814,11.233,22.647,22.647,0,0,1-3.573,11.694c-2.947,4.7-7.457,8.287-12.562,8.631a12.443,12.443,0,0,0,4.3.784C230.06,181.941,234.895,178.223,238,173.278Z" transform="translate(-220.326 -145.846)" fill="#024c67" fill-rule="evenodd"/>
      </g>
      <g id="Grupo_1233135" data-name="Grupo 1233135" transform="translate(27.659 10.552)">
        <path id="Trazado_1230966" data-name="Trazado 1230966" d="M240.864,89.359A8.34,8.34,0,0,0,229.9,81.468c-.2.065-.4.14-.591.222a8.12,8.12,0,0,1,.961-.055,8.311,8.311,0,0,1,8.332,8.191,17.743,17.743,0,0,1,2.151.876A8.267,8.267,0,0,0,240.864,89.359Z" transform="translate(-229.311 -81.045)" fill="#c2bce0" fill-rule="evenodd"/>
      </g>
      <g id="Grupo_1233136" data-name="Grupo 1233136" transform="translate(19.118 23.654)">
        <path id="Trazado_1230967" data-name="Trazado 1230967" d="M163.933,191.529a11.911,11.911,0,0,0-3.3,3.158,11.64,11.64,0,0,0-2.13,6.715v2.309a4,4,0,0,0,4,3.987h1.761v2.964a1.81,1.81,0,0,0,1.805,1.8h8.384a1.808,1.808,0,0,0,1.805-1.8V207.7h1.764a3.959,3.959,0,0,0,1.727-.392,4,4,0,0,0,2.27-3.594V201.4a11.615,11.615,0,0,0-2.13-6.715,11.864,11.864,0,0,0-3.3-3.158,11.7,11.7,0,0,0-12.658,0Z" transform="translate(-158.503 -189.67)" fill="#f4eafa" fill-rule="evenodd"/>
      </g>
      <g id="Grupo_1233137" data-name="Grupo 1233137" transform="translate(32.104 23.719)">
        <path id="Trazado_1230968" data-name="Trazado 1230968" d="M267.373,212.933h1.754a1.808,1.808,0,0,0,1.805-1.8v-2.963H272.7a3.959,3.959,0,0,0,1.727-.392,4,4,0,0,0,2.27-3.594v-2.309a11.615,11.615,0,0,0-2.13-6.715,11.864,11.864,0,0,0-3.3-3.158,11.692,11.692,0,0,0-5.1-1.794c4.373,1.381,8.438,6.4,8.438,11.056v1.04a3.6,3.6,0,0,1-3.593,3.581c-1.706,0-2.014.958-2.014,2.684v2.749a1.624,1.624,0,0,1-1.621,1.617Z" transform="translate(-266.163 -190.207)" fill="#dedbee" fill-rule="evenodd"/>
      </g>
      <g id="Grupo_1233138" data-name="Grupo 1233138" transform="translate(32.877 30.774)">
        <path id="Trazado_1230969" data-name="Trazado 1230969" d="M273.755,249.35a1.53,1.53,0,0,0-1.125,1.958,2.755,2.755,0,0,0,5.354-1.3c-.25-1.026-.991-1.443-1.7-1.269Z" transform="translate(-272.572 -248.698)" fill="#025f80" fill-rule="evenodd"/>
      </g>
      <g id="Grupo_1233139" data-name="Grupo 1233139" transform="translate(23.388 30.774)">
        <path id="Trazado_1230970" data-name="Trazado 1230970" d="M195.676,248.736c-.711-.174-1.45.242-1.7,1.269a2.755,2.755,0,0,0,5.354,1.3,1.535,1.535,0,0,0-1.128-1.958Z" transform="translate(-193.897 -248.698)" fill="#025f80" fill-rule="evenodd"/>
      </g>
      <g id="Grupo_1233140" data-name="Grupo 1233140" transform="translate(0 0.883)">
        <path id="Trazado_1230971" data-name="Trazado 1230971" d="M61.513,42.687l-7.249-7.765a.9.9,0,0,0-.444-.261L48.7,33.4a16.041,16.041,0,0,0-3.489-9.471l10.9.725.06,0a.9.9,0,0,0,.758-.41l4.677-7.172a.9.9,0,0,0-1.516-.988l-4.388,6.728-12.333-.82a17.05,17.05,0,0,0-3.3-2.3c.025-.276.038-.552.038-.828a9.2,9.2,0,0,0-.153-1.66l7.059-3.651a.9.9,0,0,0,.489-.8V5.15a.9.9,0,0,0-.275-.65L43.763,1.138a.9.9,0,1,0-1.258,1.3l3.2,3.1V12.2l-6.253,3.234A9.186,9.186,0,0,0,38.717,14c.855-2.75,1.193-5.944-3.278-9.452a.9.9,0,0,0-1.46.778c.184,2.5.138,3.41-.79,4.617a9.289,9.289,0,0,0-4.62,0c-.927-1.207-.975-2.112-.793-4.618a.9.9,0,0,0-1.461-.777c-4.467,3.507-4.129,6.7-3.277,9.454a9.2,9.2,0,0,0-.732,1.438L16.053,12.2V5.533l3.2-3.1a.9.9,0,1,0-1.259-1.3L14.519,4.5a.9.9,0,0,0-.275.65v7.6a.9.9,0,0,0,.489.8l7.059,3.653a9.209,9.209,0,0,0-.153,1.658c0,.275.014.551.038.826a17.054,17.054,0,0,0-3.3,2.3l-12.332.82L1.663,16.084a.9.9,0,0,0-1.516.988l4.674,7.172a.9.9,0,0,0,.758.411l.06,0,10.9-.725A16.041,16.041,0,0,0,13.049,33.4L7.933,34.661a.905.905,0,0,0-.445.261L.243,42.687A.9.9,0,0,0,0,43.3v8.171a.9.9,0,0,0,1.809,0V43.661l6.818-7.308,4.441-1.1A23.064,23.064,0,0,0,15.2,43.429q.524,1.138,1.15,2.206l-5.2,4.739a.9.9,0,0,0-.185,1.1l5.713,10.48a.9.9,0,1,0,1.589-.866L12.9,51.232l4.439-4.048a22.43,22.43,0,0,0,3.608,4.1.9.9,0,1,0,1.2-1.357,22.379,22.379,0,0,1-7.3-15.813c0-8.461,6.893-14.841,16.034-14.841S46.91,25.65,46.91,34.11c0,8.809-7.152,19.448-16.034,19.448a12.062,12.062,0,0,1-5.912-1.618.9.9,0,0,0-.881,1.58,13.847,13.847,0,0,0,6.793,1.847c4.643,0,9.149-2.495,12.69-7.025q.442-.566.851-1.16l4.438,4.05-5.371,9.857a.9.9,0,1,0,1.589.866l5.71-10.48a.9.9,0,0,0-.185-1.1l-5.2-4.743a23.937,23.937,0,0,0,3.28-10.375l4.443,1.1,6.822,7.308v7.814a.9.9,0,0,0,1.809,0V43.3a.9.9,0,0,0-.243-.617ZM35.876,7.4a5.2,5.2,0,0,1,1.443,4.863,9.281,9.281,0,0,0-2.378-1.677A5.606,5.606,0,0,0,35.876,7.4Zm-10,0a5.616,5.616,0,0,0,.936,3.187,9.28,9.28,0,0,0-2.379,1.678A5.213,5.213,0,0,1,25.88,7.4ZM38.308,18.867a20.33,20.33,0,0,0-14.859,0,7.429,7.429,0,0,1,14.859,0Z" transform="translate(0 -0.883)"/>
        <path id="Trazado_1230972" data-name="Trazado 1230972" d="M168.461,183.118a12.533,12.533,0,0,0-4.8-.948A12.67,12.67,0,0,0,151,194.806v2.309a4.9,4.9,0,0,0,4.905,4.891h.856v2.059a2.711,2.711,0,0,0,2.71,2.705h8.384a2.711,2.711,0,0,0,2.71-2.705v-2.059h.86a4.9,4.9,0,0,0,4.9-4.891v-2.309a12.643,12.643,0,0,0-4.216-9.394.9.9,0,0,0-1.208,1.347,10.831,10.831,0,0,1,3.614,8.046v2.309a3.091,3.091,0,0,1-3.092,3.082h-1.764a.9.9,0,0,0-.9.9v2.964a.9.9,0,0,1-.9.9H166.57v-3.287a.9.9,0,0,0-1.809,0v3.287h-2.188v-3.287a.9.9,0,0,0-1.809,0v3.287h-1.29a.91.91,0,0,1-.9-.9V201.1a.9.9,0,0,0-.9-.9h-1.761a3.092,3.092,0,0,1-3.1-3.082v-2.309a10.844,10.844,0,0,1,14.961-10.015.9.9,0,1,0,.689-1.673Z" transform="translate(-132.788 -160.303)"/>
        <path id="Trazado_1230973" data-name="Trazado 1230973" d="M238.008,302.914a.9.9,0,0,0,1.278,0l1.474-1.47a.9.9,0,1,0-1.277-1.281l-.835.833-.835-.833a.9.9,0,1,0-1.278,1.281Z" transform="translate(-207.771 -263.832)"/>
        <path id="Trazado_1230974" data-name="Trazado 1230974" d="M193.337,242.96a2.425,2.425,0,0,0-1.521-1.085l-2.525-.613a2.156,2.156,0,0,0-1.644.248,2.6,2.6,0,0,0-1.149,1.683,3.648,3.648,0,0,0,2.688,4.416,3.691,3.691,0,0,0,.877.106,3.661,3.661,0,0,0,3.547-2.79A2.578,2.578,0,0,0,193.337,242.96Zm-1.485,1.538a1.851,1.851,0,1,1-3.6-.875.9.9,0,0,1,.331-.567.33.33,0,0,1,.175-.05.423.423,0,0,1,.1.013l2.527.614a.616.616,0,0,1,.4.268A.789.789,0,0,1,191.852,244.5Z" transform="translate(-163.909 -212.211)"/>
        <path id="Trazado_1230975" data-name="Trazado 1230975" d="M268.7,247.715a3.693,3.693,0,0,0,.876-.106,3.654,3.654,0,0,0,2.69-4.415,2.6,2.6,0,0,0-1.151-1.685,2.152,2.152,0,0,0-1.64-.249l-2.529.614a2.423,2.423,0,0,0-1.523,1.087,2.572,2.572,0,0,0-.268,1.965,3.659,3.659,0,0,0,3.546,2.789Zm-1.732-3.815a.614.614,0,0,1,.4-.268l2.533-.614a.408.408,0,0,1,.1-.012.33.33,0,0,1,.175.05.9.9,0,0,1,.332.566,1.851,1.851,0,0,1-3.6.875v0A.784.784,0,0,1,266.969,243.9Z" transform="translate(-233.098 -212.21)"/>
      </g>
    </g>
  </g>
</svg>
