<svg xmlns="http://www.w3.org/2000/svg" xmlns:xlink="http://www.w3.org/1999/xlink" width="505" height="283" viewBox="0 0 505 283">
  <defs>
    <clipPath id="clip-path">
      <rect id="Rectángulo_423043" data-name="Rectángulo 423043" width="505" height="283" transform="translate(180 2372)" fill="#fff" stroke="#707070" stroke-width="1"/>
    </clipPath>
  </defs>
  <g id="Enmascarar_grupo_1098657" data-name="Enmascarar grupo 1098657" transform="translate(-180 -2372)" clip-path="url(#clip-path)">
    <g id="OBJECTS" transform="translate(214.064 2368.544)">
      <circle id="Elipse_14577" data-name="Elipse 14577" cx="104.555" cy="104.555" r="104.555" transform="translate(118.579 51.049)" fill="#cbd9f8"/>
      <g id="Grupo_1233207" data-name="Grupo 1233207" transform="translate(29.178 22.34)">
        <path id="Trazado_1231280" data-name="Trazado 1231280" d="M662.835,96.146a3.021,3.021,0,1,0,.352-1.537l-1.624-.372a10.409,10.409,0,0,0-1.09-6.432l3.731-2.34a3.055,3.055,0,1,0-.838-1.335l-3.731,2.34a10.411,10.411,0,0,0-5.316-3.781l.372-1.623a3.021,3.021,0,1,0-1.537-.352l-.372,1.623a10.408,10.408,0,0,0-6.279,1l-2.252-3.59a3.016,3.016,0,1,0-4.77-.435h0a2.991,2.991,0,0,0,3.435,1.273l2.243,3.575a10.406,10.406,0,0,0-3.924,5.417l-1.623-.372a3.021,3.021,0,1,0-.352,1.537l1.623.372a10.408,10.408,0,0,0,1.09,6.432L638.539,99.7a3.012,3.012,0,1,0-.436,4.771h0a3.018,3.018,0,0,0,1.273-3.435l3.435-2.154a10.41,10.41,0,0,0,5.316,3.781l-.372,1.624a3.021,3.021,0,1,0,1.537.352l.372-1.624a10.411,10.411,0,0,0,6.585-1.175l2.242,3.575a3.053,3.053,0,1,0,1.335-.838l-2.252-3.59a10.405,10.405,0,0,0,3.637-5.216ZM649,87.055a1.927,1.927,0,1,1,1.448,2.308A1.927,1.927,0,0,1,649,87.055Zm1.918,6.566a1.339,1.339,0,1,1,1.6-1.006A1.338,1.338,0,0,1,650.918,93.62Zm4.318-.83a1.518,1.518,0,1,1,1.818-1.141A1.518,1.518,0,0,1,655.236,92.79Z" transform="translate(-303.682 -45.711)" fill="#f9d8ad"/>
        <path id="Trazado_1231281" data-name="Trazado 1231281" d="M67.936,100.749a3.022,3.022,0,1,0-.46-1.508l-1.593.486a10.408,10.408,0,0,0-4.149-5.035L63.8,90.8a3.056,3.056,0,1,0-1.392-.741l-2.069,3.888a10.406,10.406,0,0,0-6.493-.63l-.486-1.593a3.022,3.022,0,1,0-1.508.46l.486,1.593a10.41,10.41,0,0,0-4.944,4l-3.741-1.992a3.016,3.016,0,1,0-4.354,2h0a2.991,2.991,0,0,0,3.613-.607l3.726,1.983a10.408,10.408,0,0,0-.7,6.652l-1.593.486a3.021,3.021,0,1,0,.461,1.508l1.593-.486a10.407,10.407,0,0,0,4.149,5.034l-1.9,3.579a3.012,3.012,0,1,0,2,4.353h0a3.017,3.017,0,0,0-.607-3.612l1.9-3.579a10.407,10.407,0,0,0,6.493.631l.486,1.593a3.022,3.022,0,1,0,1.508-.46l-.486-1.593a10.406,10.406,0,0,0,5.125-4.3l3.725,1.983a3.052,3.052,0,1,0,.74-1.391l-3.74-1.991a10.408,10.408,0,0,0,.556-6.334Zm-16.525-.991a1.927,1.927,0,1,1,2.405,1.28A1.926,1.926,0,0,1,51.411,99.757Zm4.934,4.738a1.339,1.339,0,1,1,.89-1.671A1.339,1.339,0,0,1,56.345,104.5Zm3.331-2.871a1.518,1.518,0,1,1,1.009-1.895A1.518,1.518,0,0,1,59.676,101.625Z" transform="translate(-37.701 -50.246)" fill="#f9d8ad"/>
        <path id="Trazado_1231282" data-name="Trazado 1231282" d="M67.532,419.68a2.082,2.082,0,1,0-.014-1.086l-1.148.015a7.175,7.175,0,0,0-1.776-4.13l2.117-2.174a2.106,2.106,0,1,0-.778-.758l-2.117,2.174a7.173,7.173,0,0,0-4.174-1.667l-.015-1.147a2.083,2.083,0,1,0-1.087.014l.015,1.147a7.171,7.171,0,0,0-4.04,1.694l-2.092-2.038a2.078,2.078,0,1,0-3.264.484h0a2.06,2.06,0,0,0,2.506.293l2.083,2.029A7.171,7.171,0,0,0,52,418.8l-1.147.015a2.083,2.083,0,1,0,.014,1.086l1.148-.015a7.173,7.173,0,0,0,1.776,4.129l-1.949,2a2.076,2.076,0,1,0,.484,3.265h0a2.08,2.08,0,0,0,.293-2.507l1.949-2a7.172,7.172,0,0,0,4.174,1.667l.015,1.148a2.082,2.082,0,1,0,1.086-.014l-.015-1.148a7.172,7.172,0,0,0,4.218-1.858l2.083,2.029a2.1,2.1,0,1,0,.758-.778L64.8,423.776a7.174,7.174,0,0,0,1.587-4.084Zm-10.742-3.837a1.327,1.327,0,1,1,1.345,1.31A1.327,1.327,0,0,1,56.791,415.843Zm2.352,4.084a.922.922,0,1,1,.91-.934A.922.922,0,0,1,59.143,419.927Zm2.757-1.258a1.046,1.046,0,1,1,1.032-1.059A1.046,1.046,0,0,1,61.9,418.669Z" transform="translate(-41.751 -193.991)" fill="#f9d8ad"/>
        <path id="Trazado_1231283" data-name="Trazado 1231283" d="M564.244,48.331A2.558,2.558,0,1,0,564.227,47l-1.41.019a8.815,8.815,0,0,0-2.182-5.074l2.6-2.671a2.59,2.59,0,1,0-.956-.932l-2.6,2.671a8.811,8.811,0,0,0-5.13-2.048l-.018-1.41a2.558,2.558,0,1,0-1.335.018l.018,1.41a8.815,8.815,0,0,0-4.965,2.081l-2.571-2.5a2.553,2.553,0,1,0-4.012.6h0a2.532,2.532,0,0,0,3.081.361l2.56,2.494a8.814,8.814,0,0,0-2.146,5.242l-1.41.019a2.558,2.558,0,1,0,.018,1.335l1.41-.019a8.816,8.816,0,0,0,2.182,5.074l-2.4,2.459a2.551,2.551,0,1,0,.6,4.012h0a2.555,2.555,0,0,0,.361-3.081l2.4-2.459a8.811,8.811,0,0,0,5.13,2.048l.019,1.41a2.558,2.558,0,1,0,1.335-.018l-.019-1.41a8.81,8.81,0,0,0,5.183-2.283l2.56,2.493a2.587,2.587,0,1,0,.931-.956l-2.57-2.5a8.812,8.812,0,0,0,1.95-5.019Zm-13.2-4.714a1.631,1.631,0,1,1,1.652,1.61A1.632,1.632,0,0,1,551.044,43.617Zm2.891,5.019a1.133,1.133,0,1,1,1.118-1.148A1.133,1.133,0,0,1,553.934,48.636Zm3.387-1.546a1.285,1.285,0,1,1,1.268-1.3A1.285,1.285,0,0,1,557.322,47.089Z" transform="translate(-261.385 -26.891)" fill="#f9d8ad"/>
        <path id="Trazado_1231284" data-name="Trazado 1231284" d="M453.443,70.841a1.642,1.642,0,1,0-.011-.856l-.9.012a5.653,5.653,0,0,0-1.4-3.256l1.67-1.714a1.661,1.661,0,1,0-.613-.6l-1.67,1.714a5.652,5.652,0,0,0-3.292-1.314l-.012-.9a1.642,1.642,0,1,0-.856.011l.012.9a5.657,5.657,0,0,0-3.186,1.336l-1.65-1.607a1.638,1.638,0,1,0-2.574.381h0a1.625,1.625,0,0,0,1.977.231l1.643,1.6a5.656,5.656,0,0,0-1.377,3.363l-.9.012a1.642,1.642,0,1,0,.011.856l.9-.012a5.653,5.653,0,0,0,1.4,3.256l-1.537,1.578a1.637,1.637,0,1,0,.382,2.575h0a1.639,1.639,0,0,0,.231-1.977l1.537-1.578a5.652,5.652,0,0,0,3.291,1.314l.012.905a1.642,1.642,0,1,0,.856-.011l-.012-.905a5.652,5.652,0,0,0,3.326-1.465l1.642,1.6a1.659,1.659,0,1,0,.6-.613l-1.649-1.606a5.652,5.652,0,0,0,1.251-3.22Zm-8.47-3.025a1.047,1.047,0,1,1,1.061,1.033A1.047,1.047,0,0,1,444.972,67.816Zm1.855,3.221a.727.727,0,1,1,.717-.737A.727.727,0,0,1,446.827,71.037ZM449,70.044a.825.825,0,1,1,.814-.835A.824.824,0,0,1,449,70.044Z" transform="translate(-215.999 -39.469)" fill="#f8efea"/>
        <path id="Trazado_1231285" data-name="Trazado 1231285" d="M273.7,106.226a1.642,1.642,0,1,0-.011-.856l-.9.012a5.657,5.657,0,0,0-1.4-3.256l1.67-1.714a1.661,1.661,0,1,0-.613-.6l-1.67,1.714a5.652,5.652,0,0,0-3.292-1.314l-.012-.9a1.642,1.642,0,1,0-.856.011l.012.9a5.657,5.657,0,0,0-3.186,1.336l-1.65-1.606a1.638,1.638,0,1,0-2.574.381h0a1.625,1.625,0,0,0,1.977.231l1.642,1.6a5.655,5.655,0,0,0-1.377,3.363l-.9.012a1.642,1.642,0,1,0,.011.856l.9-.012a5.653,5.653,0,0,0,1.4,3.256l-1.537,1.578a1.637,1.637,0,1,0,.382,2.575h0a1.639,1.639,0,0,0,.231-1.977l1.537-1.578a5.652,5.652,0,0,0,3.291,1.314l.012.905a1.642,1.642,0,1,0,.856-.011l-.012-.905a5.652,5.652,0,0,0,3.326-1.465l1.642,1.6a1.659,1.659,0,1,0,.6-.613l-1.649-1.606a5.653,5.653,0,0,0,1.251-3.22Zm-8.47-3.025a1.047,1.047,0,1,1,1.061,1.033A1.047,1.047,0,0,1,265.235,103.2Zm1.855,3.221a.727.727,0,1,1,.717-.737A.728.728,0,0,1,267.09,106.421Zm2.173-.993a.825.825,0,1,1,.814-.835A.824.824,0,0,1,269.263,105.429Z" transform="translate(-135.756 -55.266)" fill="#f8efea"/>
        <path id="Trazado_1231286" data-name="Trazado 1231286" d="M349.094,37.926a1.994,1.994,0,1,0-.013-1.04l-1.1.015a6.866,6.866,0,0,0-1.7-3.953l2.027-2.081a2.015,2.015,0,1,0-.745-.726l-2.027,2.081a6.866,6.866,0,0,0-4-1.6l-.014-1.1a1.994,1.994,0,1,0-1.04.013l.014,1.1a6.87,6.87,0,0,0-3.869,1.621l-2-1.951a1.989,1.989,0,1,0-3.125.463h0a1.973,1.973,0,0,0,2.4.281L335.9,33a6.867,6.867,0,0,0-1.672,4.084l-1.1.014a1.994,1.994,0,1,0,.013,1.04l1.1-.014a6.866,6.866,0,0,0,1.7,3.953l-1.866,1.916a1.987,1.987,0,1,0,.463,3.125h0a1.991,1.991,0,0,0,.281-2.4l1.866-1.916a6.866,6.866,0,0,0,4,1.6l.014,1.1a1.994,1.994,0,1,0,1.04-.013l-.014-1.1a6.862,6.862,0,0,0,4.038-1.779l1.994,1.942a2.012,2.012,0,1,0,.725-.746l-2-1.95A6.867,6.867,0,0,0,348,37.94ZM338.81,34.254a1.271,1.271,0,1,1,1.287,1.254A1.271,1.271,0,0,1,338.81,34.254Zm2.252,3.91a.883.883,0,1,1,.871-.895A.883.883,0,0,1,341.062,38.163Zm2.639-1.2a1,1,0,1,1,.989-1.015A1,1,0,0,1,343.7,36.959Z" transform="translate(-167.847 -23.804)" fill="#f8efea"/>
        <path id="Trazado_1231287" data-name="Trazado 1231287" d="M682.607,402.166a2.561,2.561,0,1,0-.305-1.3l-1.375.323a8.825,8.825,0,0,0-3.23-4.49l1.967-3.174a2.593,2.593,0,1,0-1.136-.7l-1.967,3.174a8.821,8.821,0,0,0-5.458-.894l-.323-1.374a2.562,2.562,0,1,0-1.3.3l.323,1.374a8.826,8.826,0,0,0-4.405,3.108l-3.055-1.893a2.557,2.557,0,1,0-3.794,1.448h0a2.535,2.535,0,0,0,3.089-.313l3.042,1.885a8.823,8.823,0,0,0-.966,5.588l-1.374.323a2.562,2.562,0,1,0,.3,1.3l1.375-.323a8.821,8.821,0,0,0,3.23,4.489l-1.811,2.922a2.554,2.554,0,1,0,1.449,3.794h0a2.559,2.559,0,0,0-.313-3.09l1.811-2.922a8.825,8.825,0,0,0,5.458.895l.323,1.375a2.562,2.562,0,1,0,1.3-.3l-.323-1.375a8.824,8.824,0,0,0,4.575-3.352l3.041,1.885a2.589,2.589,0,1,0,.7-1.136l-3.053-1.893a8.827,8.827,0,0,0,.823-5.328Zm-13.925-1.758a1.633,1.633,0,1,1,1.963,1.217A1.633,1.633,0,0,1,668.682,400.408Zm3.91,4.282a1.135,1.135,0,1,1,.845-1.364A1.134,1.134,0,0,1,672.593,404.691Zm2.978-2.243a1.287,1.287,0,1,1,.959-1.547A1.287,1.287,0,0,1,675.57,402.448Z" transform="translate(-314.334 -185.818)" fill="#f9d8ad"/>
        <path id="Trazado_1231288" data-name="Trazado 1231288" d="M181.455,35.989a2.562,2.562,0,1,0-.305-1.3l-1.374.323a8.825,8.825,0,0,0-3.23-4.49l1.967-3.174a2.593,2.593,0,1,0-1.136-.7l-1.967,3.174a8.821,8.821,0,0,0-5.458-.894l-.323-1.374a2.562,2.562,0,1,0-1.3.305l.323,1.374a8.825,8.825,0,0,0-4.405,3.108l-3.055-1.893A2.557,2.557,0,1,0,157.4,31.89h0a2.535,2.535,0,0,0,3.089-.313l3.042,1.885a8.823,8.823,0,0,0-.966,5.588l-1.374.323a2.562,2.562,0,1,0,.3,1.3l1.374-.323a8.821,8.821,0,0,0,3.23,4.489l-1.811,2.922a2.554,2.554,0,1,0,1.449,3.794h0a2.559,2.559,0,0,0-.313-3.09l1.811-2.922a8.825,8.825,0,0,0,5.458.895l.323,1.375a2.562,2.562,0,1,0,1.3-.305l-.323-1.375a8.825,8.825,0,0,0,4.575-3.352l3.041,1.885a2.589,2.589,0,1,0,.7-1.136l-3.054-1.893a8.827,8.827,0,0,0,.823-5.328ZM167.53,34.231a1.633,1.633,0,1,1,1.963,1.217A1.633,1.633,0,0,1,167.53,34.231Zm3.91,4.282a1.135,1.135,0,1,1,.845-1.364A1.134,1.134,0,0,1,171.44,38.514Zm2.978-2.243a1.287,1.287,0,1,1,.959-1.547A1.287,1.287,0,0,1,174.418,36.271Z" transform="translate(-90.598 -22.34)" fill="#f9d8ad"/>
      </g>
      <g id="Grupo_1233211" data-name="Grupo 1233211" transform="translate(220.287 78.068)">
        <g id="Grupo_1233208" data-name="Grupo 1233208" transform="translate(4.737 151.022)">
          <path id="Trazado_1231289" data-name="Trazado 1231289" d="M484.69,395.834l3.921,57.324h-40.6v-8.612l-2.437,8.612H391.5l10.819-57.324Z" transform="translate(-391.498 -395.834)" fill="#f73c4f"/>
          <path id="Trazado_1231290" data-name="Trazado 1231290" d="M407.151,407.248l2.154-11.413h82.372l.445,1.729C485.883,398.438,429.1,407.723,407.151,407.248Z" transform="translate(-398.486 -395.834)" fill="#ba2f42"/>
          <path id="Trazado_1231291" data-name="Trazado 1231291" d="M493.583,470.532l2.443-14.135,12.182-2.356" transform="translate(-437.073 -421.82)" fill="none" stroke="#ba2f42" stroke-linecap="round" stroke-linejoin="round" stroke-miterlimit="10" stroke-width="1.5"/>
          <line id="Línea_839" data-name="Línea 839" x1="8.459" y2="48.975" transform="translate(7.181 8.349)" fill="none" stroke="#ba2f42" stroke-linecap="round" stroke-linejoin="round" stroke-miterlimit="10" stroke-width="1.5"/>
          <path id="Trazado_1231292" data-name="Trazado 1231292" d="M424.2,410.916s-2.226,19.606-10.784,20.313" transform="translate(-401.283 -402.567)" fill="none" stroke="#ba2f42" stroke-linecap="round" stroke-linejoin="round" stroke-miterlimit="10" stroke-width="1.5"/>
          <path id="Trazado_1231293" data-name="Trazado 1231293" d="M508.164,419.759h0V395.834h5.921v18A5.921,5.921,0,0,1,508.164,419.759Z" transform="translate(-443.583 -395.834)" fill="none" stroke="#ba2f42" stroke-linecap="round" stroke-linejoin="round" stroke-miterlimit="10" stroke-width="1.5"/>
          <line id="Línea_840" data-name="Línea 840" y2="9.563" transform="translate(64.581 23.925)" fill="none" stroke="#ba2f42" stroke-linecap="round" stroke-linejoin="round" stroke-miterlimit="10" stroke-width="1.5"/>
        </g>
        <g id="Grupo_1233210" data-name="Grupo 1233210">
          <path id="Trazado_1231294" data-name="Trazado 1231294" d="M711.257,221.85l-25.122,3.182a3.655,3.655,0,0,1-4.073-3.157h0a3.655,3.655,0,0,1,3.157-4.073l25.122-3.182a3.655,3.655,0,0,1,4.073,3.157h0A3.655,3.655,0,0,1,711.257,221.85Z" transform="translate(-516.468 -163.897)" fill="#ffa297"/>
          <g id="Grupo_1233209" data-name="Grupo 1233209" transform="translate(155.13 38.948)">
            <path id="Trazado_1231295" data-name="Trazado 1231295" d="M673.618,226.791c-2.5,5.7-8.1,19.385-10.338,32.574a6.665,6.665,0,0,0,6.563,7.794h23.678a6.657,6.657,0,0,0,6.632-6.05,34.855,34.855,0,0,0-6.487-24.012,18.983,18.983,0,0,1-3.361-9,4.584,4.584,0,0,0-4.558-4.048H677.82A4.585,4.585,0,0,0,673.618,226.791Z" transform="translate(-663.183 -207.068)" fill="#ffd774"/>
            <path id="Trazado_1231296" data-name="Trazado 1231296" d="M669.036,259.364c2.24-13.188,7.836-26.876,10.338-32.574a4.587,4.587,0,0,1,4.2-2.742h-5.756a4.587,4.587,0,0,0-4.2,2.742c-2.5,5.7-8.1,19.385-10.338,32.574a6.665,6.665,0,0,0,6.563,7.794H675.6A6.665,6.665,0,0,1,669.036,259.364Z" transform="translate(-663.183 -207.067)" fill="#e4911f"/>
            <rect id="Rectángulo_423061" data-name="Rectángulo 423061" width="10.074" height="4.605" transform="translate(13.693 12.376)" fill="#f8efea"/>
            <path id="Trazado_1231297" data-name="Trazado 1231297" d="M706.828,195.291l-27.055-1.919V199.8l5.564,2.59v3.358H693.3v-2.686l3.3-.632,6.257,11.761,2.538-.59-2.858-12.308,4.291-.821Z" transform="translate(-670.59 -193.372)" fill="#f73c4f"/>
            <path id="Trazado_1231298" data-name="Trazado 1231298" d="M689.826,209.663l7.963.671v2.686h-7.963Z" transform="translate(-675.078 -200.645)" fill="#ba2f42"/>
            <line id="Línea_841" data-name="Línea 841" y1="1.137" x2="5.937" transform="translate(26.01 7.921)" fill="none" stroke="#ba2f42" stroke-linecap="round" stroke-linejoin="round" stroke-miterlimit="10" stroke-width="1.5"/>
            <path id="Trazado_1231299" data-name="Trazado 1231299" d="M728.648,197.791l1.3.576v3.058l-1.3.324Z" transform="translate(-692.41 -195.345)" fill="#faab44"/>
          </g>
          <path id="Trazado_1231300" data-name="Trazado 1231300" d="M713.886,239.209a2.742,2.742,0,0,0,.788-1.856c0-1.488-1.368-2.76-3.306-3.289a2.826,2.826,0,0,0,.966-2.04c0-1.962-2.377-3.553-5.309-3.553s-5.309,1.591-5.309,3.553c0,1.488,1.367,2.76,3.306,3.289a2.825,2.825,0,0,0-.966,2.04c0,1.529,1.446,2.829,3.471,3.33a2.38,2.38,0,0,0-.5,1.424c0,1.774,2.149,3.212,4.8,3.212s4.8-1.438,4.8-3.212C716.625,240.827,715.5,239.725,713.886,239.209Z" transform="translate(-525.257 -170.094)" fill="#ffa297"/>
          <path id="Trazado_1231301" data-name="Trazado 1231301" d="M621.16,215.583c-2.089-.173-4.17.408-6.282.347-2.073-.06-4.012-.254-6.067-.178-5.269.2-7.01,3.776-9.884,6.975a47.9,47.9,0,0,0-5.191,6.523c-.7,1.138-26.51,38.7-26.51,38.7l-3.019-4.767-35.022,21.571L543.9,308.1c7.867,9.39,21.737,8.6,21.737,8.6,33.031-1.458,43.732-66.817,44.226-69.947a17.761,17.761,0,0,0,1.952-4.107,22.824,22.824,0,0,0,1.034-5.913c.083-1.677-.472-3.324.046-4.907,1.011-3.089,2.851-6.287,2.685-9.618,2.278-.281,6.322-.764,8.074-2.136C626.049,218.2,623.9,215.81,621.16,215.583Z" transform="translate(-448.23 -164.325)" fill="#ffa297"/>
          <path id="Trazado_1231302" data-name="Trazado 1231302" d="M455.824,149.413c-.3-4.446-1.645-8.757-.955-13.314.469-3.1,1.372-7.464,5.123-7.388.068-3.282,5.425-3.947,7.76-4.041,2.43-.1,4.862.183,7.266-.007,1.859-.147,2.912-.945,4.6-1.455,2.591-.784,2.7.949,3.728,2.43,1.365,1.97,5.927-.2,8.073.435a6.1,6.1,0,0,1,4.445,6.988c-.32,2.317-1.843,3.7-2.6,5.682,1.948.052,2.712,1.835,2.149,3.573-.7,2.169-3.13,3.783-5.1,4.688a32.781,32.781,0,0,1-4.363,1.343c-2.115.636-4.1,1.667-6.276,2.089a73.42,73.42,0,0,1-14.045,1.135,28.7,28.7,0,0,1-8.037-1.141,6.487,6.487,0,0,1-1.212-.494C455.909,149.685,455.943,149.471,455.824,149.413Z" transform="translate(-414.966 -123.012)" fill="#641216"/>
          <path id="Trazado_1231303" data-name="Trazado 1231303" d="M564.208,301.594l-35.022,21.571,12.836,20.361C546.7,322.56,564.208,301.594,564.208,301.594Z" transform="translate(-448.231 -202.739)" fill="#f55c2b"/>
          <path id="Trazado_1231304" data-name="Trazado 1231304" d="M440.019,214.6a35.722,35.722,0,0,0-10.557.056c-10.4,1.606-37.266,6.793-40.711,22.285-3.868,17.4-5.812,83.541-5.812,83.541h101l-2.792-44.44,18.855-14.276-18.855-26.357S471.514,219.144,440.019,214.6Z" transform="translate(-382.94 -163.739)" fill="#69a4c2"/>
          <path id="Trazado_1231305" data-name="Trazado 1231305" d="M472.065,232.732c13.968-.762,15.858-8.6,15.825-12.918a84.1,84.1,0,0,0-19.822-5.213,35.724,35.724,0,0,0-10.557.056c-2.913.45-7.12,1.182-11.743,2.342h0S447.062,234.1,472.065,232.732Z" transform="translate(-410.989 -163.739)" fill="#fff"/>
          <path id="Trazado_1231306" data-name="Trazado 1231306" d="M476.03,227.84c8.078,0,10.576-1.936,11.829-9.66a88.383,88.383,0,0,0-15.4-3.579,35.723,35.723,0,0,0-10.557.056c-1.807.28-3.963.67-6.3,1.2C455.757,224.69,467.161,227.84,476.03,227.84Z" transform="translate(-415.377 -163.739)" fill="#ffa297"/>
          <rect id="Rectángulo_423062" data-name="Rectángulo 423062" width="17.751" height="24.889" transform="translate(46.255 31.721)" fill="#ffa297"/>
          <path id="Trazado_1231307" data-name="Trazado 1231307" d="M466.5,180.316v7.073s9.176,11.038,17.751,11.7V180.315H466.5Z" transform="translate(-420.244 -148.595)" fill="#f55c2b"/>
          <path id="Trazado_1231308" data-name="Trazado 1231308" d="M592.2,310.2s-5.3,4.369-7.079,8.684" transform="translate(-473.201 -206.583)" fill="none" stroke="#f55c2b" stroke-linecap="round" stroke-linejoin="round" stroke-miterlimit="10" stroke-width="1.5"/>
          <path id="Trazado_1231309" data-name="Trazado 1231309" d="M639.062,290.3v-.169" transform="translate(-497.284 -197.622)" fill="none"/>
          <path id="Trazado_1231310" data-name="Trazado 1231310" d="M419.992,424.967H382.94l1.76-92.659h35.292Z" transform="translate(-382.94 -216.451)" fill="#ffa297"/>
          <path id="Trazado_1231311" data-name="Trazado 1231311" d="M385.861,332.308h35.292l-35.612,5.947Z" transform="translate(-384.101 -216.451)" fill="#f55c2b"/>
          <line id="Línea_842" data-name="Línea 842" y1="22.932" x2="1.015" transform="translate(37.052 92.925)" fill="none" stroke="#376f92" stroke-linecap="round" stroke-linejoin="round" stroke-miterlimit="10" stroke-width="1.5"/>
          <line id="Línea_843" data-name="Línea 843" x1="2.157" y1="19.795" transform="translate(96.055 92.51)" fill="none" stroke="#376f92" stroke-linecap="round" stroke-linejoin="round" stroke-miterlimit="10" stroke-width="1.5"/>
          <path id="Trazado_1231312" data-name="Trazado 1231312" d="M467.96,153.284c-1.082,6.852-10.973,8.756-10.973,8.756l-1.595-4.831a3.659,3.659,0,0,0-3.036-.313c-2.122.777-3.054,3.562-2.081,6.223.9,2.459,3.112,3.945,5.118,3.543,1.4,8.721,8.425,15.354,16.882,15.354,9.467,0,17.142-8.308,17.142-18.556a19.8,19.8,0,0,0-1.4-7.346C481.066,158.141,467.96,153.284,467.96,153.284Z" transform="translate(-412.829 -136.527)" fill="#ffa297"/>
          <path id="Trazado_1231313" data-name="Trazado 1231313" d="M461.43,165.614s-6.757,19.981,18.358,23.04c0,0,10.5,1.75,13.133-4.183a16.95,16.95,0,0,0,.617-11.291,56.076,56.076,0,0,1-22.759-1.969s-3.68-3.553-3.807-7.614Z" transform="translate(-417.612 -141.131)" fill="#641216"/>
          <line id="Línea_844" data-name="Línea 844" x1="4.935" y2="0.876" transform="translate(162.419 57.882)" fill="none" stroke="#f55c2b" stroke-linecap="round" stroke-linejoin="round" stroke-miterlimit="10" stroke-width="1.5"/>
          <path id="Trazado_1231314" data-name="Trazado 1231314" d="M675.277,246.121A10.2,10.2,0,0,1,669.7,251.2" transform="translate(-510.963 -177.973)" fill="none" stroke="#f55c2b" stroke-linecap="round" stroke-linejoin="round" stroke-miterlimit="10" stroke-width="1.5"/>
          <path id="Trazado_1231315" data-name="Trazado 1231315" d="M707.69,239.766s3.517-1.684,6.344-1.249" transform="translate(-527.923 -174.546)" fill="none" stroke="#f55c2b" stroke-linecap="round" stroke-linejoin="round" stroke-miterlimit="10" stroke-width="1.5"/>
          <path id="Trazado_1231316" data-name="Trazado 1231316" d="M712.215,249.332a13.718,13.718,0,0,1,6.358-1.474" transform="translate(-529.943 -178.743)" fill="none" stroke="#f55c2b" stroke-linecap="round" stroke-linejoin="round" stroke-miterlimit="10" stroke-width="1.5"/>
          <path id="Trazado_1231317" data-name="Trazado 1231317" d="M503.308,152.868l-30.958-.218v-6l30.958.218Z" transform="translate(-422.857 -133.567)" fill="#f73c4f"/>
          <path id="Trazado_1231318" data-name="Trazado 1231318" d="M476.98,143.79l.072,15.661a5.024,5.024,0,0,0,2.745,4.126l1.663.841a5.025,5.025,0,0,1,2.748,4.17l.4,6.345a4.186,4.186,0,0,0,4.091,3.924l16.6.332.174-35.4H476.98Z" transform="translate(-424.924 -132.288)" fill="none" stroke="#fff" stroke-miterlimit="10" stroke-width="1.5"/>
          <rect id="Rectángulo_423063" data-name="Rectángulo 423063" width="10.327" height="2.537" transform="translate(39.166 14.685)" fill="#fff"/>
          <rect id="Rectángulo_423064" data-name="Rectángulo 423064" width="4.734" height="35.149" transform="translate(63.106 11.502)" fill="#fff" opacity="0.5"/>
          <rect id="Rectángulo_423065" data-name="Rectángulo 423065" width="2.367" height="35.149" transform="translate(69.705 11.502)" fill="#fff" opacity="0.5"/>
        </g>
      </g>
      <g id="Grupo_1233217" data-name="Grupo 1233217" transform="translate(18.61 74.48)">
        <g id="Grupo_1233212" data-name="Grupo 1233212" transform="translate(43.937 150.549)">
          <path id="Trazado_1231319" data-name="Trazado 1231319" d="M112.732,388.5,97.983,450.25h48.855l2.576-9.277,2.437,9.277h47.921L192.567,388.5Z" transform="translate(-97.983 -388.499)" fill="#2a878e"/>
          <path id="Trazado_1231320" data-name="Trazado 1231320" d="M205.3,398.726,204.1,388.5H124.268l-.445,1.863C130.064,391.3,183.344,399.238,205.3,398.726Z" transform="translate(-109.519 -388.499)" fill="#20707b"/>
          <path id="Trazado_1231321" data-name="Trazado 1231321" d="M179.1,468.967l-2.443-15.227L164.475,451.2" transform="translate(-127.668 -416.492)" fill="none" stroke="#89c4c0" stroke-linecap="round" stroke-linejoin="round" stroke-miterlimit="10" stroke-width="1.5"/>
          <line id="Línea_845" data-name="Línea 845" x2="9.598" y2="59.858" transform="translate(85.071 1.894)" fill="none" stroke="#89c4c0" stroke-linecap="round" stroke-linejoin="round" stroke-miterlimit="10" stroke-width="1.5"/>
          <path id="Trazado_1231322" data-name="Trazado 1231322" d="M239.027,391.92s3.084,28.22,11.642,28.982" transform="translate(-160.951 -390.026)" fill="none" stroke="#89c4c0" stroke-linecap="round" stroke-linejoin="round" stroke-miterlimit="10" stroke-width="1.5"/>
        </g>
        <path id="Trazado_1231323" data-name="Trazado 1231323" d="M66.529,295.022S46.4,333.1,68.052,348.659c0,0,8.444,3.378,16.4-.852s17.095-25.328,17.095-25.328L86.662,307.372l-3.26,3.819,1.053-16.17H66.529Z" transform="translate(-36.202 -196.217)" fill="#ffa297"/>
        <path id="Trazado_1231324" data-name="Trazado 1231324" d="M58.272,323.133c8.042-7.572,25.9-22.053,25.9-22.053h0l.395-6.058H66.643S59.374,308.778,58.272,323.133Z" transform="translate(-36.317 -196.217)" fill="#f55c2b"/>
        <path id="Trazado_1231325" data-name="Trazado 1231325" d="M107.137,317.334l-3.26,3.819s9.651,17.448,9.879,26.87a125.192,125.192,0,0,0,8.27-15.581Z" transform="translate(-56.677 -206.178)" fill="#f55c2b"/>
        <g id="Grupo_1233213" data-name="Grupo 1233213" transform="translate(3.677 88.624)">
          <path id="Trazado_1231326" data-name="Trazado 1231326" d="M53,281.287s-5.382-7.477-13.592-3.484c-6.341,3.084-11.681.318-12.594,3s5.963,4.735,10.715,4.42c0,0-10.145,8.917-11.983,15.485s5.522.826,5.522.826-4.469,4.809-3.174,6.391c1.591,1.944,4.767.685,6.368-.952,0,0-.466,3.205,2.468,2.72,1.825-.3,5.6-3.388,5.6-3.388s-2.859,3.667-.708,4.161,5.546-1.047,10.847-6.754S70.242,286.691,53,281.287Z" transform="translate(-25.253 -276.63)" fill="#ffa297"/>
          <path id="Trazado_1231327" data-name="Trazado 1231327" d="M47.434,292.148s6.283,3.169,9.956,1.49" transform="translate(-35.156 -283.558)" fill="none" stroke="#f55c2b" stroke-linecap="round" stroke-linejoin="round" stroke-miterlimit="10" stroke-width="1.5"/>
          <line id="Línea_846" data-name="Línea 846" y1="8.545" x2="8.037" transform="translate(5.816 16.356)" fill="none" stroke="#f55c2b" stroke-linecap="round" stroke-linejoin="round" stroke-miterlimit="10" stroke-width="1.5"/>
          <path id="Trazado_1231328" data-name="Trazado 1231328" d="M41.529,322.387c.064-.337,10.76-11.224,10.76-11.224" transform="translate(-32.52 -292.047)" fill="none" stroke="#f55c2b" stroke-linecap="round" stroke-linejoin="round" stroke-miterlimit="10" stroke-width="1.5"/>
          <line id="Línea_847" data-name="Línea 847" y1="7.906" x2="7.257" transform="translate(17.077 21.767)" fill="none" stroke="#f55c2b" stroke-linecap="round" stroke-linejoin="round" stroke-miterlimit="10" stroke-width="1.5"/>
          <line id="Línea_848" data-name="Línea 848" x2="14.399" y2="7.807" transform="translate(12.712 15.408)" fill="none" stroke="#f55c2b" stroke-linecap="round" stroke-linejoin="round" stroke-miterlimit="10" stroke-width="1.5"/>
        </g>
        <path id="Trazado_1231329" data-name="Trazado 1231329" d="M203.581,174.143c-3.207-18.3-25.724-15.139-26.993-18.711s3.3-9.329,0-20.65c-2.477-8.5-12.106-9.283-16.752-9.145a26.179,26.179,0,0,0-.421-2.667c-.1-.829-.619-5.587-2.307-4.715-1.487.769-.256,3.731-.227,4.932-.358-1.4-3.152-7.857-5.253-5.9-.724.674-.6,1.764-.19,2.852-5.035-3.557-11.981-5.759-18.078-.362-6.478,5.734-5.064,13.808-3.65,18.1a5.034,5.034,0,0,1-.883,4.8c-2.621,3.16-4.518,8.518-4.518,8.518-15.227-.439-24.363,16.762-18.78,33.261s25.378,18.415,25.378,18.415c13.7,13.588,38.321,4.516,38.321,4.516C199.174,211.535,206.787,192.441,203.581,174.143Z" transform="translate(-56.677 -116.531)" fill="#641216"/>
        <path id="Trazado_1231330" data-name="Trazado 1231330" d="M136.927,217.366S108,219.083,99.537,228.271,77.379,269.4,77.379,269.4l14.206,10.58a37.517,37.517,0,0,0,9.305,10.659l-.508,23.23h85.905l-2.779-31.173a59.391,59.391,0,0,1,.13-7.579c.908-11.1,13.773-45.457-26.706-52.577Z" transform="translate(-44.847 -161.548)" fill="#ffd774"/>
        <path id="Trazado_1231331" data-name="Trazado 1231331" d="M119.852,346.69s28.364-8.483,54.363,0" transform="translate(-63.809 -217.601)" fill="none" stroke="#e4911f" stroke-linecap="round" stroke-linejoin="round" stroke-miterlimit="10" stroke-width="1.5"/>
        <path id="Trazado_1231332" data-name="Trazado 1231332" d="M168.891,240.5c11.576,0,21.5-8.626,21.859-17.49-.745-.178-1.5-.342-2.277-.474l-20-5.172a132.7,132.7,0,0,0-20.258,3.021,12.864,12.864,0,0,0-.18,2.109C148.03,231.6,157.089,240.5,168.891,240.5Z" transform="translate(-76.389 -161.548)" fill="#fff"/>
        <path id="Trazado_1231333" data-name="Trazado 1231333" d="M190.12,210.248,182.7,208.33l1.023-17.941H166.331l-3.4,15.762c-2.544.335-5.487.792-8.534,1.4a11.008,11.008,0,0,0-.543,3.4c0,7.73,8.124,14,18.145,14s18.145-6.267,18.145-14Q190.144,210.6,190.12,210.248Z" transform="translate(-78.989 -149.504)" fill="#ffa297"/>
        <path id="Trazado_1231334" data-name="Trazado 1231334" d="M171.1,203.983c13.78-.653,20.258-12.38,20.258-12.38h0l.069-1.214H174.029Z" transform="translate(-86.687 -149.504)" fill="#f55c2b"/>
        <path id="Trazado_1231335" data-name="Trazado 1231335" d="M189.559,163.05a3.631,3.631,0,0,0-2.923.327,15.318,15.318,0,0,0-1.443,5.142s-1.407-3.722-3.1-4.06c-1.349-.27-4.83-.027-8.4-1.366A9.639,9.639,0,0,1,171,161.743l-.012-.007a2.3,2.3,0,0,1-.222-.166c-3.983-2.971-5.9-8.363-5.9-8.363l-4.9,4.044a7.694,7.694,0,0,0-2.8,5.625c-.022.536-.025,1.126-.025,1.818,0,9.895,6.893,17.916,15.4,17.916,6.007,0,11.207-4,13.743-9.843h0c2.141.723,4.612-.867,5.517-3.551S191.7,163.773,189.559,163.05Z" transform="translate(-80.455 -132.905)" fill="#ffa297"/>
        <path id="Trazado_1231336" data-name="Trazado 1231336" d="M186,164.458c-1.349-.27-4.83-.027-8.4-1.366a9.639,9.639,0,0,1-2.693-1.349l-.012-.007a2.3,2.3,0,0,1-.222-.166c-3.983-2.971-5.9-8.363-5.9-8.363l-2.885,2.379c1.774,2.761,5.8,8.2,10.09,8.322,3.89.112,7.97.421,10.206.609A1.584,1.584,0,0,0,186,164.458Z" transform="translate(-84.36 -132.905)" fill="#f55c2b"/>
        <path id="Trazado_1231337" data-name="Trazado 1231337" d="M209.165,284.192c-7.233,9.939-13.869,19.046-13.869,19.046L225.9,326.562" transform="translate(-97.491 -191.382)" fill="none" stroke="#063d51" stroke-linecap="round" stroke-linejoin="round" stroke-miterlimit="10" stroke-width="1.5"/>
        <g id="Grupo_1233214" data-name="Grupo 1233214" transform="translate(0 80.335)">
          <path id="Trazado_1231338" data-name="Trazado 1231338" d="M59.859,281.139v0a3.245,3.245,0,0,0-6.179-1.386,4.557,4.557,0,0,0-1.043-.171s0-.007,0-.011a2.939,2.939,0,1,0-5.878,0c0,.041.011.079.012.119a3.069,3.069,0,1,0-.839,6.02,3.017,3.017,0,0,0,.477-.041,3.522,3.522,0,1,0,6.359,2.964c.051,0,.1-.007.155-.012a4.122,4.122,0,0,0,7.681-1.3,3.145,3.145,0,0,0-.747-6.173Z" transform="translate(-29.438 -268.341)" fill="#fff"/>
          <path id="Trazado_1231339" data-name="Trazado 1231339" d="M61.33,265.492a1.917,1.917,0,1,0-1.918-1.917A1.918,1.918,0,0,0,61.33,265.492Z" transform="translate(-36.826 -261.657)" fill="#fff"/>
          <path id="Trazado_1231340" data-name="Trazado 1231340" d="M48.576,268.806a1.142,1.142,0,1,0-1.142-1.142A1.142,1.142,0,0,0,48.576,268.806Z" transform="translate(-31.478 -263.829)" fill="#fff"/>
          <path id="Trazado_1231341" data-name="Trazado 1231341" d="M35.11,304.028a2.161,2.161,0,1,0-4.216-.944c-.015,0-.03,0-.046,0a2.61,2.61,0,1,0,1.721,4.559,2.7,2.7,0,1,0,2.541-3.611Z" transform="translate(-22.908 -279.384)" fill="#fff"/>
          <circle id="Elipse_14578" data-name="Elipse 14578" cx="1.502" cy="1.502" r="1.502" transform="translate(12.686 18.469)" fill="#fff"/>
          <path id="Trazado_1231342" data-name="Trazado 1231342" d="M78.266,274.774a.888.888,0,1,0,.888.888A.888.888,0,0,0,78.266,274.774Z" transform="translate(-44.847 -267.513)" fill="#fff"/>
          <path id="Trazado_1231343" data-name="Trazado 1231343" d="M51.681,315.347a1.4,1.4,0,1,0,1.4,1.4A1.4,1.4,0,0,0,51.681,315.347Z" transform="translate(-32.748 -285.627)" fill="#fff"/>
          <path id="Trazado_1231344" data-name="Trazado 1231344" d="M20.182,312.889a1.572,1.572,0,1,0,1.572,1.572A1.571,1.571,0,0,0,20.182,312.889Z" transform="translate(-18.61 -284.529)" fill="#fff"/>
          <path id="Trazado_1231345" data-name="Trazado 1231345" d="M34.035,320.414a1.082,1.082,0,1,0,1.082,1.082A1.082,1.082,0,0,0,34.035,320.414Z" transform="translate(-25.013 -287.889)" fill="#fff"/>
        </g>
        <g id="Grupo_1233215" data-name="Grupo 1233215" transform="translate(17.196 81.046)">
          <path id="Trazado_1231346" data-name="Trazado 1231346" d="M129.87,300.325,94.782,279.854S89.2,269.491,84.25,268.095s-12.182-3.553-13.831-5.076c0,0-3.3-.888-3.172,3.3s6.979,4.949,7.486,7.106c0,0-22.206.761-22.459,3.172s1.218,4.162,8.628,5.036c0,0-10.532-.468-11.166,1.943s3.807,4.314,7.74,4.188c0,0-3.934,0-3.807,2.157s7.994,2.665,7.994,2.665.888,3.045,6.979,3.426,16.115,1.142,17.638,1.9c0,0,23.6,32.357,39.209,36.164,0,0,13.2,1.4,19.795-2.284s15.607-14.719,15.607-14.719l-27.155-20.81Z" transform="translate(-49.674 -262.941)" fill="#ffa297"/>
          <path id="Trazado_1231347" data-name="Trazado 1231347" d="M218.921,354.267a107.805,107.805,0,0,0,9.766-10.316l-27.155-20.81S220.82,342.428,218.921,354.267Z" transform="translate(-117.47 -289.817)" fill="#f55c2b"/>
          <line id="Línea_849" data-name="Línea 849" x2="9.2" y2="0.61" transform="translate(11.228 18.693)" fill="none" stroke="#f55c2b" stroke-linecap="round" stroke-linejoin="round" stroke-miterlimit="10" stroke-width="1.5"/>
          <line id="Línea_850" data-name="Línea 850" x2="12.732" transform="translate(7.187 24.824)" fill="none" stroke="#f55c2b" stroke-linecap="round" stroke-linejoin="round" stroke-miterlimit="10" stroke-width="1.5"/>
          <line id="Línea_851" data-name="Línea 851" x2="8.438" y2="0.466" transform="translate(11.989 29.644)" fill="none" stroke="#f55c2b" stroke-linecap="round" stroke-linejoin="round" stroke-miterlimit="10" stroke-width="1.5"/>
          <path id="Trazado_1231348" data-name="Trazado 1231348" d="M94.942,280.959s3.49.317,3.363-1.142" transform="translate(-69.884 -270.475)" fill="none" stroke="#f55c2b" stroke-linecap="round" stroke-linejoin="round" stroke-miterlimit="10" stroke-width="1.5"/>
          <path id="Trazado_1231349" data-name="Trazado 1231349" d="M115.8,325.558s4,.19,4.885-.7" transform="translate(-79.196 -290.584)" fill="none" stroke="#f55c2b" stroke-linecap="round" stroke-linejoin="round" stroke-miterlimit="10" stroke-width="1.5"/>
        </g>
        <path id="Trazado_1231350" data-name="Trazado 1231350" d="M89.519,282.9a2.065,2.065,0,0,0-.334.034,2.549,2.549,0,1,0-5.032-.571c0,.064.014.124.019.187a3.168,3.168,0,1,0,4.029,4,2.063,2.063,0,1,0,1.318-3.647Z" transform="translate(-46.921 -189.429)" fill="#fff"/>
        <g id="Grupo_1233216" data-name="Grupo 1233216" transform="translate(4.834 60.389)">
          <path id="Trazado_1231351" data-name="Trazado 1231351" d="M34.741,248.519a3.707,3.707,0,1,1-7.4,0c0-2.177,3.7-6.514,3.7-6.514S34.741,246.343,34.741,248.519Z" transform="translate(-27.342 -232.937)" fill="#69a4c2"/>
          <path id="Trazado_1231352" data-name="Trazado 1231352" d="M56.733,261.2a2.738,2.738,0,1,1-5.465,0c0-1.607,2.732-4.811,2.732-4.811S56.733,259.59,56.733,261.2Z" transform="translate(-38.024 -239.358)" fill="#69a4c2"/>
          <path id="Trazado_1231353" data-name="Trazado 1231353" d="M52.738,230.435a2.738,2.738,0,1,1-5.465,0c0-1.608,2.732-4.811,2.732-4.811S52.738,228.827,52.738,230.435Z" transform="translate(-36.24 -225.624)" fill="#69a4c2"/>
        </g>
        <path id="Trazado_1231354" data-name="Trazado 1231354" d="M167.287,146.079s-1.17-7.825-4.722-8.84" transform="translate(-82.878 -125.776)" fill="none" stroke="#440a10" stroke-linecap="round" stroke-linejoin="round" stroke-miterlimit="10" stroke-width="1.5"/>
        <line id="Línea_852" data-name="Línea 852" y1="6.792" x2="1.056" transform="translate(57.631 84.17)" fill="none" stroke="#e4911f" stroke-linecap="round" stroke-linejoin="round" stroke-miterlimit="10" stroke-width="1.5"/>
      </g>
      <g id="Grupo_1233221" data-name="Grupo 1233221" transform="translate(115.204 78.067)">
        <path id="Trazado_1231355" data-name="Trazado 1231355" d="M366.672,478.136H267.621L271,450.961h93.423Z" transform="translate(-226.374 -269.422)" fill="#376f92"/>
        <path id="Trazado_1231356" data-name="Trazado 1231356" d="M365.605,450.961H272.182l-1.909,15.361h0c3.642-3.327,95.332-6.73,95.332-6.73l.671-.536Z" transform="translate(-227.558 -269.422)" fill="#063d51"/>
        <rect id="Rectángulo_423066" data-name="Rectángulo 423066" width="7.508" height="18.177" transform="translate(86.31 190.17)" fill="none" stroke="#063d51" stroke-linecap="round" stroke-linejoin="round" stroke-miterlimit="10" stroke-width="1.5"/>
        <path id="Trazado_1231357" data-name="Trazado 1231357" d="M361.376,280.457a74.7,74.7,0,0,1-5.112-7.51c-6.586-10.987-20.676-19.052-32.917-21.262-13.509-2.439-27.019-5.848-27.019-5.848H289.2s-13.509,3.408-27.018,5.848c-12.241,2.21-26.332,10.275-32.917,21.262a74.689,74.689,0,0,1-5.112,7.51c-6.36,8.166-18.867,26.951-9.816,38.587,0,0,11.633,11.821,29.27,3.94v45.031h98.318V322.985c17.637,7.88,29.27-3.94,29.27-3.94C380.243,307.408,367.736,288.623,361.376,280.457Z" transform="translate(-201.165 -177.846)" fill="#f73c4f"/>
        <circle id="Elipse_14579" data-name="Elipse 14579" cx="21.108" cy="21.108" r="21.108" transform="translate(0.222 100.951)" fill="#f73c4f"/>
        <path id="Trazado_1231358" data-name="Trazado 1231358" d="M365.534,250.9c-11.97-2.323-22.812-5.058-22.812-5.058h-7.13s-9.492,2.395-20.52,4.606a26.357,26.357,0,0,0,50.462.452Z" transform="translate(-247.558 -177.846)" fill="#fff"/>
        <path id="Trazado_1231359" data-name="Trazado 1231359" d="M364.51,249.719c-9.446-1.979-16.986-3.882-16.986-3.882h-7.13s-6.285,1.585-14.566,3.367a20.207,20.207,0,0,0,38.682.514Z" transform="translate(-252.36 -177.846)" fill="#ffa297"/>
        <path id="Trazado_1231360" data-name="Trazado 1231360" d="M363.215,233.639H339.327l1.126-30.708h21.636Z" transform="translate(-258.387 -158.691)" fill="#ffa297"/>
        <path id="Trazado_1231361" data-name="Trazado 1231361" d="M341.173,202.931l-.234,6.38h0s6.389,8.975,22.433,8.975l-.563-15.354H341.173Z" transform="translate(-259.107 -158.691)" fill="#f55c2b"/>
        <ellipse id="Elipse_14580" data-name="Elipse 14580" cx="4.538" cy="5.688" rx="4.538" ry="5.688" transform="translate(70.549 28.432)" fill="#ffa297"/>
        <ellipse id="Elipse_14581" data-name="Elipse 14581" cx="4.538" cy="5.688" rx="4.538" ry="5.688" transform="translate(104.041 28.432)" fill="#ffa297"/>
        <path id="Trazado_1231362" data-name="Trazado 1231362" d="M364.22,136.975a13.837,13.837,0,0,0-1.78-3.947c-.7-.962-1.883-1.668-2.521-2.489a2.575,2.575,0,0,0,.6-2.8c-.907-2.8-3.565-2.876-6.162-3.009a17.079,17.079,0,0,0-3.021.122c-.114-.692-.646-1.168-1.878-1.182A9.584,9.584,0,0,0,343.431,126c.511-1.94-.016-4.121-2.367-2.326a11.687,11.687,0,0,0-4.289,7.989,9.666,9.666,0,0,0-4.709-.864c-1.927.081-3.976,1.815-5.183,3.282-2.2,2.671-2.275,6.163-2.437,9.458a21.373,21.373,0,0,0,1.684,10.263c.813,1.769,1.944,3.512,2.84,5.141l29.047.809a8.637,8.637,0,0,0,3.835-3.764c1.126-1.8,1.081-4.4,1.177-6.506.06-1.3-.194-1.793.425-2.836C365.07,143.931,365.139,139.946,364.22,136.975Z" transform="translate(-251.724 -123.011)" fill="#641216"/>
        <path id="Trazado_1231363" data-name="Trazado 1231363" d="M348.454,164.241c-8.782,1.522-10.9-5.629-10.9-5.629-6.927,4.316-8.053,8.725-8.776,11.932-.017.4-.028.8-.028,1.2,0,12.383,7.728,22.422,17.262,22.422s17.262-10.039,17.262-22.422a28.538,28.538,0,0,0-.5-5.327,3.993,3.993,0,0,0-3.681-3.241A51.474,51.474,0,0,0,348.454,164.241Z" transform="translate(-253.666 -138.905)" fill="#ffa297"/>
        <path id="Trazado_1231364" data-name="Trazado 1231364" d="M370.011,167.629c-.059-.407-.125-.811-.2-1.21a3.993,3.993,0,0,0-3.681-3.241,51.437,51.437,0,0,0-10.643,1.063c-8.782,1.522-10.9-5.629-10.9-5.629l-.084.054a11.016,11.016,0,0,0,1.877,4.269,11.423,11.423,0,0,0,7.067,4.519c3.677.676,7.378-.412,11.079-.4A25.719,25.719,0,0,1,370.011,167.629Z" transform="translate(-260.699 -138.905)" fill="#f55c2b"/>
        <g id="Grupo_1233218" data-name="Grupo 1233218" transform="translate(0 26.101)">
          <path id="Trazado_1231365" data-name="Trazado 1231365" d="M260.979,183.88a2.364,2.364,0,0,0-.137-3.459c-2.427-1.689-1.794-8.725-6.579-10.132-2.926-.86-7.217,2.856-10.112,5.874l-1.193-.573a5.051,5.051,0,0,0-5.441,0c-5.16-3-8.537-.375-8.537-.375h-2.345c-6,.563-4.128,5.817-7.13,9.945s-3.284,6.661-4.784,17.919-26.831,43.342-20.639,62.106,21.765,16.324,21.765,16.324c21.483-4.128,20.639-28.8,21.765-40.9s4.784-31.522,4.784-31.522c7.6,1.126,13.04-7.505,13.978-12.1s4.128-7.6,5.441-8.912C262.955,186.928,263.1,185.084,260.979,183.88Zm-7.794,3.436c-.657,2.064-4.5,2.721-4.5,2.721l1.065-7.424c-.025.121-.033.031.022-.735l2.061-2.192,1.59,2.423a5.414,5.414,0,0,0,1.759,2.325A6.725,6.725,0,0,0,253.185,187.317Z" transform="translate(-193.108 -170.163)" fill="#ffa297"/>
          <path id="Trazado_1231366" data-name="Trazado 1231366" d="M253.852,179.289s5.019,1.267,4.878,5.207.333,16.311-5.987,14.775c-4.919-1.2-3.934-6.191-3.652-9.286" transform="translate(-217.98 -174.237)" fill="none" stroke="#f55c2b" stroke-linecap="round" stroke-linejoin="round" stroke-miterlimit="10" stroke-width="1.5"/>
          <path id="Trazado_1231367" data-name="Trazado 1231367" d="M264.8,195.772s1.275,2.817,5.286,2.606,4.714-5.066,4.573-7.951-.141-8.4-5.136-10.461" transform="translate(-225.116 -174.54)" fill="none" stroke="#f55c2b" stroke-linecap="round" stroke-linejoin="round" stroke-miterlimit="10" stroke-width="1.5"/>
          <path id="Trazado_1231368" data-name="Trazado 1231368" d="M281.276,207.081a3.269,3.269,0,0,0,3.2,2.176c2.674.141,3.565-3.19,3.565-3.19" transform="translate(-232.47 -186.192)" fill="none" stroke="#f55c2b" stroke-linecap="round" stroke-linejoin="round" stroke-miterlimit="10" stroke-width="1.5"/>
          <path id="Trazado_1231369" data-name="Trazado 1231369" d="M285.318,181s5.7,2.177,5.617,5.715" transform="translate(-234.275 -175.003)" fill="none" stroke="#f55c2b" stroke-linecap="round" stroke-linejoin="round" stroke-miterlimit="10" stroke-width="1.5"/>
          <path id="Trazado_1231370" data-name="Trazado 1231370" d="M270.949,238.578s-3.26-1.219-4.1-2.345c0,0-7.036,1.97-9.78.7" transform="translate(-221.661 -199.66)" fill="none" stroke="#f55c2b" stroke-linecap="round" stroke-linejoin="round" stroke-miterlimit="10" stroke-width="1.5"/>
          <path id="Trazado_1231371" data-name="Trazado 1231371" d="M277.586,212.337a9.934,9.934,0,0,1,0,6.9" transform="translate(-230.823 -188.992)" fill="none" stroke="#f55c2b" stroke-linecap="round" stroke-linejoin="round" stroke-miterlimit="10" stroke-width="1.5"/>
          <path id="Trazado_1231372" data-name="Trazado 1231372" d="M305.238,195.091a6.256,6.256,0,0,1,5.8-.555" transform="translate(-243.168 -180.82)" fill="none" stroke="#f55c2b" stroke-linecap="round" stroke-linejoin="round" stroke-miterlimit="10" stroke-width="1.5"/>
          <path id="Trazado_1231373" data-name="Trazado 1231373" d="M298.541,184.783a15.249,15.249,0,0,1-.8-3.206" transform="translate(-239.82 -175.259)" fill="none" stroke="#f55c2b" stroke-linecap="round" stroke-linejoin="round" stroke-miterlimit="10" stroke-width="1.5"/>
        </g>
        <path id="Trazado_1231374" data-name="Trazado 1231374" d="M269.775,377.288a51.94,51.94,0,0,0,5.488-9.816" transform="translate(-227.336 -232.149)" fill="none" stroke="#ba2f42" stroke-linecap="round" stroke-linejoin="round" stroke-miterlimit="10" stroke-width="1.5"/>
        <path id="Trazado_1231375" data-name="Trazado 1231375" d="M218.059,361.27s25.063,5.418,31.536-22.164" transform="translate(-204.247 -219.485)" fill="none" stroke="#ba2f42" stroke-linecap="round" stroke-linejoin="round" stroke-miterlimit="10" stroke-width="1.5"/>
        <circle id="Elipse_14582" data-name="Elipse 14582" cx="21.108" cy="21.108" r="21.108" transform="translate(140.791 100.951)" fill="#f73c4f"/>
        <g id="Grupo_1233219" data-name="Grupo 1233219" transform="translate(113.704 26.101)">
          <path id="Trazado_1231376" data-name="Trazado 1231376" d="M399.334,188.067c1.314,1.314,4.5,4.315,5.441,8.912s6.379,13.228,13.978,12.1c0,0,3.659,19.42,4.784,31.522s.281,36.775,21.765,40.9c0,0,15.573,2.439,21.765-16.324s-19.138-50.848-20.639-62.106-1.782-13.791-4.784-17.919-1.126-9.382-7.13-9.945h-2.345s-3.377-2.627-8.537.375a5.05,5.05,0,0,0-5.441,0l-1.193.573c-2.895-3.019-7.186-6.735-10.112-5.874-4.784,1.407-4.151,8.443-6.579,10.132a2.364,2.364,0,0,0-.137,3.459C398.047,185.084,398.194,186.928,399.334,188.067Zm6.637-3.632a5.411,5.411,0,0,0,1.759-2.325l1.59-2.423,2.061,2.192c.056.766.047.856.022.735l1.065,7.424s-3.847-.657-4.5-2.721A6.725,6.725,0,0,0,405.971,184.434Z" transform="translate(-398.515 -170.162)" fill="#ffa297"/>
          <path id="Trazado_1231377" data-name="Trazado 1231377" d="M455.374,179.289s-5.019,1.267-4.878,5.207-.333,16.311,5.987,14.775c4.919-1.2,3.934-6.191,3.652-9.286" transform="translate(-421.72 -174.237)" fill="none" stroke="#f55c2b" stroke-linecap="round" stroke-linejoin="round" stroke-miterlimit="10" stroke-width="1.5"/>
          <path id="Trazado_1231378" data-name="Trazado 1231378" d="M444.456,195.772s-1.275,2.817-5.286,2.606-4.714-5.066-4.573-7.951.141-8.4,5.136-10.461" transform="translate(-414.616 -174.54)" fill="none" stroke="#f55c2b" stroke-linecap="round" stroke-linejoin="round" stroke-miterlimit="10" stroke-width="1.5"/>
          <path id="Trazado_1231379" data-name="Trazado 1231379" d="M430.489,207.081a3.269,3.269,0,0,1-3.2,2.176c-2.674.141-3.565-3.19-3.565-3.19" transform="translate(-409.768 -186.192)" fill="none" stroke="#f55c2b" stroke-linecap="round" stroke-linejoin="round" stroke-miterlimit="10" stroke-width="1.5"/>
          <path id="Trazado_1231380" data-name="Trazado 1231380" d="M427.373,181s-5.7,2.177-5.617,5.715" transform="translate(-408.89 -175.002)" fill="none" stroke="#f55c2b" stroke-linecap="round" stroke-linejoin="round" stroke-miterlimit="10" stroke-width="1.5"/>
          <path id="Trazado_1231381" data-name="Trazado 1231381" d="M435.076,238.578s3.26-1.219,4.1-2.345c0,0,7.036,1.97,9.78.7" transform="translate(-414.837 -199.659)" fill="none" stroke="#f55c2b" stroke-linecap="round" stroke-linejoin="round" stroke-miterlimit="10" stroke-width="1.5"/>
          <path id="Trazado_1231382" data-name="Trazado 1231382" d="M439.121,212.337a9.934,9.934,0,0,0,0,6.9" transform="translate(-416.358 -188.991)" fill="none" stroke="#f55c2b" stroke-linecap="round" stroke-linejoin="round" stroke-miterlimit="10" stroke-width="1.5"/>
          <path id="Trazado_1231383" data-name="Trazado 1231383" d="M407.306,195.091a6.256,6.256,0,0,0-5.8-.555" transform="translate(-399.85 -180.819)" fill="none" stroke="#f55c2b" stroke-linecap="round" stroke-linejoin="round" stroke-miterlimit="10" stroke-width="1.5"/>
          <path id="Trazado_1231384" data-name="Trazado 1231384" d="M418.034,184.783a15.251,15.251,0,0,0,.8-3.206" transform="translate(-407.229 -175.258)" fill="none" stroke="#f55c2b" stroke-linecap="round" stroke-linejoin="round" stroke-miterlimit="10" stroke-width="1.5"/>
        </g>
        <path id="Trazado_1231385" data-name="Trazado 1231385" d="M443.022,377.288a51.945,51.945,0,0,1-5.488-9.816" transform="translate(-302.231 -232.149)" fill="none" stroke="#ba2f42" stroke-linecap="round" stroke-linejoin="round" stroke-miterlimit="10" stroke-width="1.5"/>
        <path id="Trazado_1231386" data-name="Trazado 1231386" d="M473.73,361.27s-25.063,5.418-31.535-22.164" transform="translate(-304.312 -219.485)" fill="none" stroke="#ba2f42" stroke-linecap="round" stroke-linejoin="round" stroke-miterlimit="10" stroke-width="1.5"/>
        <line id="Línea_853" data-name="Línea 853" x1="0.323" y2="2.629" transform="translate(80.617 69.69)" fill="none" stroke="#f55c2b" stroke-linecap="round" stroke-linejoin="round" stroke-miterlimit="10" stroke-width="1.5"/>
        <line id="Línea_854" data-name="Línea 854" x2="0.177" y2="4.328" transform="translate(104.573 67.991)" fill="none" stroke="#f55c2b" stroke-linecap="round" stroke-linejoin="round" stroke-miterlimit="10" stroke-width="1.5"/>
        <rect id="Rectángulo_423067" data-name="Rectángulo 423067" width="98.318" height="22.083" transform="translate(42.439 147.325)" fill="#fff"/>
        <g id="Grupo_1233220" data-name="Grupo 1233220" transform="translate(67.871 36.746)">
          <path id="Trazado_1231387" data-name="Trazado 1231387" d="M323.988,192.635l-8.271,1.278,11.754,8.174" transform="translate(-315.717 -190.84)" fill="none" stroke="#2a878e" stroke-linecap="round" stroke-linejoin="round" stroke-miterlimit="10" stroke-width="1.5"/>
          <path id="Trazado_1231388" data-name="Trazado 1231388" d="M384.541,192.635l8.271,1.278-11.754,8.174" transform="translate(-344.888 -190.84)" fill="none" stroke="#2a878e" stroke-linecap="round" stroke-linejoin="round" stroke-miterlimit="10" stroke-width="1.5"/>
          <path id="Trazado_1231389" data-name="Trazado 1231389" d="M328.753,190.719c2.529,9.212,6.575,17.191,17.262,17.191,10.882,0,14.733-7.979,17.262-17.191l-17.262-1.326Z" transform="translate(-321.537 -189.393)" fill="#89c4c0"/>
          <path id="Trazado_1231390" data-name="Trazado 1231390" d="M372.428,191.314c-2.392,8.713-5.928,16.582-15.517,17.381.54.046,1.1.074,1.674.074,10.882,0,14.733-7.979,17.262-17.191Z" transform="translate(-334.108 -190.251)" fill="#2a878e"/>
          <line id="Línea_855" data-name="Línea 855" x2="24.542" transform="translate(13.069 6.509)" fill="none" stroke="#2a878e" stroke-linecap="round" stroke-linejoin="round" stroke-miterlimit="10" stroke-width="1.5"/>
          <line id="Línea_856" data-name="Línea 856" x2="20.021" transform="translate(15.936 12.044)" fill="none" stroke="#2a878e" stroke-linecap="round" stroke-linejoin="round" stroke-miterlimit="10" stroke-width="1.5"/>
        </g>
      </g>
    </g>
  </g>
</svg>
