<svg xmlns="http://www.w3.org/2000/svg" xmlns:xlink="http://www.w3.org/1999/xlink" width="106" height="106" viewBox="0 0 106 106">
  <defs>
    <filter id="Trazado_982547" x="0" y="0" width="106" height="106" filterUnits="userSpaceOnUse">
      <feOffset dy="3" input="SourceAlpha"/>
      <feGaussianBlur stdDeviation="3" result="blur"/>
      <feFlood flood-opacity="0.161"/>
      <feComposite operator="in" in2="blur"/>
      <feComposite in="SourceGraphic"/>
    </filter>
  </defs>
  <g id="Grupo_1233180" data-name="Grupo 1233180" transform="translate(-198 -2959)">
    <g id="Grupo_1230961" data-name="Grupo 1230961" transform="translate(27 1577)">
      <g id="Grupo_1173169" data-name="Grupo 1173169" transform="translate(0 -2329)">
        <g id="Grupo_1172017" data-name="Grupo 1172017" transform="translate(0 2654)">
          <g id="Grupo_1167337" data-name="Grupo 1167337" transform="translate(180 1063)">
            <g id="Grupo_1166720" data-name="Grupo 1166720" transform="translate(0)">
              <g id="Grupo_1164305" data-name="Grupo 1164305">
                <g id="Grupo_1163948" data-name="Grupo 1163948">
                  <g id="Grupo_1158168" data-name="Grupo 1158168">
                    <g id="Grupo_1152576" data-name="Grupo 1152576">
                      <g id="Grupo_1148633" data-name="Grupo 1148633">
                        <g id="Grupo_1148525" data-name="Grupo 1148525">
                          <g transform="matrix(1, 0, 0, 1, -9, -6)" filter="url(#Trazado_982547)">
                            <g id="Trazado_982547-2" data-name="Trazado 982547" transform="translate(9 6)" fill="#f0edfe">
                              <path d="M 44 86.5 C 38.26187515258789 86.5 32.69618606567383 85.37651062011719 27.45755004882812 83.16075897216797 C 22.3968505859375 81.020263671875 17.85157585144043 77.95565032958984 13.94796276092529 74.05204010009766 C 10.04434967041016 70.1484375 6.979737281799316 65.6031494140625 4.839250087738037 60.54246139526367 C 2.62348747253418 55.30381393432617 1.5 49.73812484741211 1.5 44 C 1.5 38.26187515258789 2.62348747253418 32.69618606567383 4.839250087738037 27.45755004882812 C 6.979737281799316 22.3968505859375 10.04434967041016 17.85157585144043 13.94796276092529 13.94796276092529 C 17.85157585144043 10.04434967041016 22.3968505859375 6.979737281799316 27.45755004882812 4.839250087738037 C 32.69618606567383 2.62348747253418 38.26187515258789 1.5 44 1.5 C 49.73812484741211 1.5 55.30381393432617 2.62348747253418 60.54246139526367 4.839250087738037 C 65.6031494140625 6.979737281799316 70.1484375 10.04434967041016 74.05204010009766 13.94796276092529 C 77.95565032958984 17.85157585144043 81.020263671875 22.3968505859375 83.16075897216797 27.45755004882812 C 85.37651062011719 32.69618606567383 86.5 38.26187515258789 86.5 44 C 86.5 49.73812484741211 85.37651062011719 55.30381393432617 83.16075897216797 60.54246139526367 C 81.020263671875 65.6031494140625 77.95565032958984 70.1484375 74.05204010009766 74.05204010009766 C 70.1484375 77.95565032958984 65.6031494140625 81.020263671875 60.54246139526367 83.16075897216797 C 55.30381393432617 85.37651062011719 49.73812484741211 86.5 44 86.5 Z" stroke="none"/>
                              <path d="M 44 3 C 38.46371459960938 3 33.09462738037109 4.083610534667969 28.0418701171875 6.220756530761719 C 23.15997314453125 8.285614013671875 18.77495574951172 11.24228668212891 15.00862884521484 15.00862884521484 C 11.24228668212891 18.77495574951172 8.285614013671875 23.15997314453125 6.220756530761719 28.0418701171875 C 4.083610534667969 33.09462738037109 3 38.46371459960938 3 44 C 3 49.53628540039062 4.083610534667969 54.9053840637207 6.220756530761719 59.9581298828125 C 8.285614013671875 64.84002685546875 11.24228668212891 69.22504425048828 15.00862884521484 72.99138641357422 C 18.77495574951172 76.75771331787109 23.15997314453125 79.71438598632812 28.0418701171875 81.77925872802734 C 33.09462738037109 83.9163818359375 38.46371459960938 85 44 85 C 49.53628540039062 85 54.9053840637207 83.9163818359375 59.95814514160156 81.77925872802734 C 64.84002685546875 79.71438598632812 69.22504425048828 76.75771331787109 72.99138641357422 72.99138641357422 C 76.75771331787109 69.22504425048828 79.71438598632812 64.84002685546875 81.77925872802734 59.95814514160156 C 83.9163818359375 54.9053840637207 85 49.53628540039062 85 44 C 85 38.46371459960938 83.9163818359375 33.09462738037109 81.77925872802734 28.0418701171875 C 79.71438598632812 23.15997314453125 76.75771331787109 18.77495574951172 72.99138641357422 15.00862884521484 C 69.22504425048828 11.24228668212891 64.84002685546875 8.285614013671875 59.9581298828125 6.220756530761719 C 54.9053840637207 4.083610534667969 49.53628540039062 3 44 3 M 44 0 C 68.30054473876953 0 88 19.69947052001953 88 44 C 88 68.30054473876953 68.30054473876953 88 44 88 C 19.69947052001953 88 0 68.30054473876953 0 44 C 0 19.69947052001953 19.69947052001953 0 44 0 Z" stroke="none" fill="#7958fb"/>
                            </g>
                          </g>
                        </g>
                      </g>
                    </g>
                  </g>
                </g>
              </g>
            </g>
          </g>
        </g>
      </g>
    </g>
    <g id="Layer_x0020_1" transform="translate(221.272 2977.424)">
      <path id="Trazado_1231247" data-name="Trazado 1231247" d="M32.242,30.094c-.745,0-.818-1.233-2.513-1.233-1.727,0-1.77,1.278-2.551,1.231a.7.7,0,0,1-.556-.333l-4.747-7.776a.7.7,0,0,1,.175-.919c3.968-2.994,11.39-2.995,15.358,0a.7.7,0,0,1,.175.919l-4.747,7.776a.7.7,0,0,1-.594.334Zm18.6,20.278H8.584A5.138,5.138,0,0,1,4.172,42.69C8.034,36,11.153,30.086,15.25,22.934c.621-1.085,10.124-17.72,12.043-18.758,1.474-.8,3.96-.789,4.978.07,3.7,3.121,19,31.494,23.017,38.445a5.115,5.115,0,0,1-4.444,7.681ZM28.025,5.365C24.411,8.62,9.4,36.429,5.379,43.387a3.745,3.745,0,0,0,3.205,5.591H50.845a3.72,3.72,0,0,0,3.237-5.591c-3.874-6.706-6.975-12.577-11.09-19.756C42.46,22.7,33.216,6.615,31.418,5.351a4.034,4.034,0,0,0-3.393.014Zm22.819,48.49H8.584A8.616,8.616,0,0,1,1.156,40.949c.665-1.152,1.79-3.18,3.215-5.748C12.978,19.689,22.411,2.993,25.429,1.229a8.634,8.634,0,0,1,8.654.031c3.018,1.793,12.424,18.452,21,33.925,1.429,2.578,2.558,4.615,3.221,5.764a8.633,8.633,0,0,1-7.461,12.906ZM29.79,1.477a7.344,7.344,0,0,0-3.658.955c-3.589,2.1-18.116,29.42-23.77,39.213A7.223,7.223,0,0,0,8.586,52.461H50.843A7.208,7.208,0,0,0,57.1,41.646C51.411,31.8,37.048,4.71,33.356,2.449a6.739,6.739,0,0,0-3.566-.972ZM23.221,46.164a.7.7,0,0,1-.271-.055c-4.555-1.928-8.287-8.392-7.679-13.3a.7.7,0,0,1,.708-.611l9.107.222a.7.7,0,0,1,.628.959,2.487,2.487,0,0,0,1.962,3.4.7.7,0,0,1,.517,1.024l-4.361,8a.7.7,0,0,1-.612.364ZM16.6,33.607a13.3,13.3,0,0,0,6.321,10.949l3.623-6.646a3.882,3.882,0,0,1-2.377-4.118L16.6,33.607ZM36.239,46.164a.7.7,0,0,1-.613-.363l-4.361-8a.7.7,0,0,1,.517-1.024,2.488,2.488,0,0,0,1.962-3.4.7.7,0,0,1,.628-.959L43.5,32.2a.7.7,0,0,1,.691.611c.608,4.909-3.124,11.373-7.679,13.3a.692.692,0,0,1-.271.055Zm-3.328-8.255,3.623,6.646a13.3,13.3,0,0,0,6.321-10.949l-7.568.185a3.881,3.881,0,0,1-2.377,4.118Zm-3.181-1.47c-4.1,0-4.1-6.224,0-6.224S33.826,36.439,29.73,36.439Zm0-4.829a1.718,1.718,0,0,0,0,3.436A1.718,1.718,0,0,0,29.73,31.609Zm0-4.142a3.847,3.847,0,0,1,2.377.814l3.944-6.461a13.222,13.222,0,0,0-12.642,0l3.944,6.461a3.845,3.845,0,0,1,2.377-.814Z" transform="translate(0 0)" fill="#000002" fill-rule="evenodd"/>
      <g id="Grupo_1233179" data-name="Grupo 1233179" transform="translate(16.599 20.211)">
        <path id="Trazado_1231248" data-name="Trazado 1231248" d="M6.993,7.915a3.847,3.847,0,0,1,2.377.814l3.944-6.461a13.222,13.222,0,0,0-12.642,0L4.616,8.729a3.845,3.845,0,0,1,2.377-.814Z" transform="translate(6.138 -0.659)" fill="#57555c" fill-rule="evenodd"/>
        <path id="Trazado_1231249" data-name="Trazado 1231249" d="M2.5.987a1.718,1.718,0,0,0,0,3.436A1.718,1.718,0,0,0,2.5.987Z" transform="translate(10.63 10.412)" fill="#57555c" fill-rule="evenodd"/>
        <path id="Trazado_1231250" data-name="Trazado 1231250" d="M3.321,1.229A3.881,3.881,0,0,1,.945,5.347l3.623,6.646A13.3,13.3,0,0,0,10.889,1.044l-7.568.185Z" transform="translate(15.368 12.351)" fill="#57555c" fill-rule="evenodd"/>
        <path id="Trazado_1231251" data-name="Trazado 1231251" d="M10.426,5.347A3.882,3.882,0,0,1,8.049,1.229L.482,1.044A13.3,13.3,0,0,0,6.8,11.993l3.623-6.646Z" transform="translate(-0.477 12.352)" fill="#57555c" fill-rule="evenodd"/>
      </g>
      <path id="Trazado_1231252" data-name="Trazado 1231252" d="M11.234,27.437l9.107.222a.7.7,0,0,1,.628.959,2.487,2.487,0,0,0,1.962,3.4.7.7,0,0,1,.517,1.024l-4.361,8a.7.7,0,0,1-.883.308c-4.555-1.928-8.287-8.392-7.679-13.3a.7.7,0,0,1,.708-.611ZM21.878,25l-4.747-7.776a.7.7,0,0,1,.175-.919c3.968-2.994,11.39-2.995,15.358,0a.7.7,0,0,1,.175.919L28.091,25a.7.7,0,0,1-.594.334c-.745,0-.818-1.233-2.513-1.233-1.727,0-1.77,1.278-2.551,1.231A.7.7,0,0,1,21.878,25Zm3.107,6.68c-4.1,0-4.1-6.224,0-6.224S29.082,31.677,24.985,31.677ZM3.84,44.217H46.1a3.72,3.72,0,0,0,3.237-5.591c-3.874-6.706-6.975-12.577-11.09-19.756C37.715,17.941,28.471,1.854,26.673.589A4.034,4.034,0,0,0,23.28.6C19.666,3.859,4.651,31.668.635,38.626A3.745,3.745,0,0,0,3.84,44.217ZM30.882,41.04l-4.361-8a.7.7,0,0,1,.517-1.024A2.488,2.488,0,0,0,29,28.619a.7.7,0,0,1,.628-.959l9.125-.223a.7.7,0,0,1,.691.611c.608,4.909-3.124,11.373-7.679,13.3a.7.7,0,0,1-.883-.308Z" transform="translate(4.745 4.761)" fill="#fedb41" fill-rule="evenodd"/>
      <path id="Trazado_1231253" data-name="Trazado 1231253" d="M30.915,2.89c3.7,3.121,19,31.494,23.017,38.445a5.115,5.115,0,0,1-4.444,7.681H7.228a5.138,5.138,0,0,1-4.412-7.681c3.863-6.69,6.982-12.6,11.078-19.756.621-1.085,10.124-17.72,12.043-18.758,1.474-.8,3.96-.789,4.978.07ZM7.23,51.106H49.487a7.208,7.208,0,0,0,6.256-10.815C50.056,30.442,35.692,3.354,32,1.093A6.739,6.739,0,0,0,28.434.122a7.344,7.344,0,0,0-3.658.955C21.187,3.175,6.66,30.5,1.007,40.29A7.223,7.223,0,0,0,7.23,51.106Z" transform="translate(1.356 1.356)" fill="#57555c" fill-rule="evenodd"/>
    </g>
  </g>
</svg>
