<svg xmlns="http://www.w3.org/2000/svg" xmlns:xlink="http://www.w3.org/1999/xlink" width="113" height="113" viewBox="0 0 113 113">
  <defs>
    <filter id="Trazado_982547" x="0" y="0" width="113" height="113" filterUnits="userSpaceOnUse">
      <feOffset dy="3" input="SourceAlpha"/>
      <feGaussianBlur stdDeviation="3" result="blur"/>
      <feFlood flood-opacity="0.161"/>
      <feComposite operator="in" in2="blur"/>
      <feComposite in="SourceGraphic"/>
    </filter>
  </defs>
  <g id="Grupo_1233234" data-name="Grupo 1233234" transform="translate(-691 -3943)">
    <g id="Grupo_1232516" data-name="Grupo 1232516" transform="translate(700 3949)">
      <g id="Grupo_1208038" data-name="Grupo 1208038" transform="translate(0)">
        <g id="Grupo_1202104" data-name="Grupo 1202104">
          <g id="Grupo_1201923" data-name="Grupo 1201923" transform="translate(0 0)">
            <g id="Grupo_1176928" data-name="Grupo 1176928" transform="translate(0)">
              <g id="Grupo_1172322" data-name="Grupo 1172322">
                <g id="Grupo_1164700" data-name="Grupo 1164700">
                  <g id="Grupo_1160931" data-name="Grupo 1160931">
                    <g id="Grupo_1160749" data-name="Grupo 1160749">
                      <g id="Grupo_1158891" data-name="Grupo 1158891">
                        <g id="Grupo_1157406" data-name="Grupo 1157406">
                          <g id="Grupo_1155793" data-name="Grupo 1155793">
                            <g id="Grupo_1154704" data-name="Grupo 1154704">
                              <g id="Grupo_1150790" data-name="Grupo 1150790">
                                <g id="Grupo_1154214" data-name="Grupo 1154214" transform="translate(0)">
                                  <g id="Grupo_1152583" data-name="Grupo 1152583">
                                    <g id="Grupo_1146973" data-name="Grupo 1146973">
                                      <g id="Grupo_1146954" data-name="Grupo 1146954">
                                        <g transform="matrix(1, 0, 0, 1, -9, -6)" filter="url(#Trazado_982547)">
                                          <g id="Trazado_982547-2" data-name="Trazado 982547" transform="translate(9 6)" fill="#fed0b4">
                                            <path d="M 47.50000762939453 93.49986267089844 C 41.28937911987305 93.49986267089844 35.26534271240234 92.28383636474609 29.59519386291504 89.88558197021484 C 24.11772727966309 87.56880950927734 19.19814109802246 84.25183868408203 14.97310066223145 80.02679443359375 C 10.74804782867432 75.8017578125 7.431074142456055 70.88218688964844 5.114300727844238 65.40471649169922 C 2.716034412384033 59.73458480834961 1.500007629394531 53.71054458618164 1.500007629394531 47.49993133544922 C 1.500007629394531 41.2893180847168 2.716034412384033 35.26527786254883 5.114300727844238 29.59514427185059 C 7.431074142456055 24.11767768859863 10.74804782867432 19.19810485839844 14.97310066223145 14.97306442260742 C 19.19814109802246 10.74802494049072 24.11772727966309 7.431051254272461 29.59519386291504 5.114277839660645 C 35.26534271240234 2.71602463722229 41.28937911987305 1.499997973442078 47.50000762939453 1.499997973442078 C 53.71063613891602 1.499997973442078 59.73467254638672 2.71602463722229 65.40482330322266 5.114277839660645 C 70.88228607177734 7.431051254272461 75.80187225341797 10.74802494049072 80.02691650390625 14.97306442260742 C 84.25196838378906 19.19810485839844 87.56893920898438 24.11767768859863 89.88571166992188 29.59514427185059 C 92.28398132324219 35.26527786254883 93.50000762939453 41.2893180847168 93.50000762939453 47.49993133544922 C 93.50000762939453 53.71054458618164 92.28398132324219 59.73458480834961 89.88571166992188 65.40471649169922 C 87.56893920898438 70.88218688964844 84.25196838378906 75.8017578125 80.02691650390625 80.02679443359375 C 75.80187225341797 84.25183868408203 70.88228607177734 87.56880950927734 65.40482330322266 89.88558197021484 C 59.73467254638672 92.28383636474609 53.71063613891602 93.49986267089844 47.50000762939453 93.49986267089844 Z" stroke="none"/>
                                            <path d="M 47.50000762939453 2.999992370605469 C 41.4912223815918 2.999992370605469 35.66377639770508 4.1761474609375 30.17951202392578 6.495796203613281 C 24.88085174560547 8.736930847167969 20.12152862548828 11.94596099853516 16.03376007080078 16.03372955322266 C 11.94597625732422 20.12148284912109 8.736961364746094 24.88080596923828 6.495803833007812 30.17946624755859 C 4.176162719726562 35.66371536254883 3.000007629394531 41.49116134643555 3.000007629394531 47.49993133544922 C 3.000007629394531 53.50870132446289 4.176162719726562 59.33614730834961 6.495803833007812 64.82038879394531 C 8.736961364746094 70.11905670166016 11.94597625732422 74.87836456298828 16.03376007080078 78.96613311767578 C 20.12152862548828 83.05390167236328 24.88085174560547 86.26291656494141 30.17951202392578 88.50406646728516 C 35.66377639770508 90.82369995117188 41.4912223815918 91.99985504150391 47.50000762939453 91.99985504150391 C 53.50879287719727 91.99985504150391 59.33623886108398 90.82369995117188 64.82049560546875 88.50406646728516 C 70.11916351318359 86.26291656494141 74.87848663330078 83.05390167236328 78.96625518798828 78.96613311767578 C 83.05403900146484 74.87836456298828 86.26305389404297 70.11905670166016 88.50421142578125 64.82038879394531 C 90.8238525390625 59.33614730834961 92.00000762939453 53.50870132446289 92.00000762939453 47.49993133544922 C 92.00000762939453 41.49116134643555 90.8238525390625 35.66371536254883 88.50421142578125 30.17946624755859 C 86.26305389404297 24.88080596923828 83.05403900146484 20.12148284912109 78.96625518798828 16.03372955322266 C 74.87848663330078 11.94596099853516 70.11916351318359 8.736930847167969 64.82049560546875 6.495796203613281 C 59.33623886108398 4.1761474609375 53.50879287719727 2.999992370605469 47.50000762939453 2.999992370605469 M 47.50000762939453 -7.62939453125e-06 C 73.73352813720703 -7.62939453125e-06 95.00000762939453 21.26644134521484 95.00000762939453 47.49993133544922 C 95.00000762939453 73.73342132568359 73.73352813720703 94.99985504150391 47.50000762939453 94.99985504150391 C 21.26648712158203 94.99985504150391 7.62939453125e-06 73.73342132568359 7.62939453125e-06 47.49993133544922 C 7.62939453125e-06 21.26644134521484 21.26648712158203 -7.62939453125e-06 47.50000762939453 -7.62939453125e-06 Z" stroke="none" fill="#fd660a"/>
                                          </g>
                                        </g>
                                      </g>
                                    </g>
                                  </g>
                                </g>
                              </g>
                            </g>
                          </g>
                        </g>
                      </g>
                    </g>
                  </g>
                </g>
              </g>
            </g>
          </g>
        </g>
      </g>
    </g>
    <g id="Meat_Virus" data-name="Meat Virus" transform="translate(719.025 3963.022)">
      <path id="Trazado_1231583" data-name="Trazado 1231583" d="M43.257,33.73a12.9,12.9,0,0,0-9.611,15.481,24.37,24.37,0,0,1-13.778,4.812,14.2,14.2,0,0,1-.761-28.382,5.16,5.16,0,1,0,0-10.321A5.16,5.16,0,0,1,19.106,5a24.511,24.511,0,0,1,24.15,28.73Z" transform="translate(1.542 1.457)" fill="#c4455e"/>
      <g id="Grupo_1233233" data-name="Grupo 1233233" transform="translate(1.252 1.293)">
        <path id="Trazado_1231584" data-name="Trazado 1231584" d="M17.158,8.87A24.511,24.511,0,0,1,41.579,31.588,24.511,24.511,0,0,0,17.158,5a5.16,5.16,0,0,0-4.773,7.1A5.16,5.16,0,0,1,17.158,8.87Z" transform="translate(2.238 0.164)" fill="#db5669"/>
        <path id="Trazado_1231585" data-name="Trazado 1231585" d="M27,39.76c.452-.323.323,0,.129-1.29C27.09,38.9,27,39.321,27,39.76Z" transform="translate(6.587 9.873)" fill="#db5669"/>
        <path id="Trazado_1231586" data-name="Trazado 1231586" d="M19.189,25.6a5.16,5.16,0,0,0,4.773-7.1,5.16,5.16,0,0,1-4.773,3.225A14.191,14.191,0,0,0,5.14,37.851,14.191,14.191,0,0,1,19.189,25.6Z" transform="translate(0.207 4.08)" fill="#db5669"/>
        <path id="Trazado_1231587" data-name="Trazado 1231587" d="M36.939,49.794l.194.284a29.555,29.555,0,0,1-15.765,5.16A19.351,19.351,0,0,1,11.679,18.6C-4.834,32.61,10.6,62.256,36.939,49.794Z" transform="translate(-0.965 4.109)" fill="#db5669"/>
        <path id="Trazado_1231588" data-name="Trazado 1231588" d="M49.739,34.749a12.681,12.681,0,0,0-5.238.142,24.511,24.511,0,0,0-24.15-28.73,5.16,5.16,0,1,0,0,10.321,5.16,5.16,0,0,1,0,10.321,14.191,14.191,0,1,0,0,28.382A24.434,24.434,0,0,0,34.89,50.411a12.539,12.539,0,0,0,2.232,4.773,29.672,29.672,0,0,1-16.771,5.16,19.351,19.351,0,1,1,0-38.7A10.324,10.324,0,0,1,20.893,1,29.672,29.672,0,0,1,49.739,34.749Z" transform="translate(-0.955 -0.997)" fill="#db5669"/>
      </g>
      <path id="Trazado_1231589" data-name="Trazado 1231589" d="M48.87,34.748a12.681,12.681,0,0,0-5.238.142A24.511,24.511,0,0,0,21,6.16c-8.85-.89-8.4,10.321-1.458,10.321A5.16,5.16,0,0,1,19.483,26.8a14.191,14.191,0,0,0,0,28.382A24.434,24.434,0,0,0,34.022,50.41,12.462,12.462,0,0,0,36.06,54.9a29.672,29.672,0,0,1-11.714,2.864C6.5,59.169-3.494,35.832,10.8,23.705a19.054,19.054,0,0,1,8.682-2.064,10.437,10.437,0,0,1-4.115-.851,2.761,2.761,0,0,0,.864-4.58,10.321,10.321,0,0,1-.4-14.539A10.037,10.037,0,0,1,19.483,1,29.672,29.672,0,0,1,48.87,34.748Z" transform="translate(1.165 0.297)" fill="#f26674"/>
      <path id="Trazado_1231590" data-name="Trazado 1231590" d="M8,11.17a10.321,10.321,0,0,1,6.67-9.65,10.321,10.321,0,0,0,.4,14.539,2.761,2.761,0,0,1-.787,4.541C13.805,20.845,8,17.685,8,11.17Z" transform="translate(2.327 0.447)" fill="#f26674"/>
      <path id="Trazado_1231591" data-name="Trazado 1231591" d="M52.8,39.9c0,12.333-15.868,17.674-23.221,7.74A12.9,12.9,0,1,1,52.8,39.9Z" transform="translate(7.839 7.838)" fill="#dad7e5"/>
      <path id="Trazado_1231592" data-name="Trazado 1231592" d="M52.221,39.9a12.9,12.9,0,0,1-2.58,7.74A12.9,12.9,0,0,1,31.58,29.58,12.9,12.9,0,0,1,52.221,39.9Z" transform="translate(8.419 7.838)" fill="#edebf2"/>
      <circle id="Elipse_14587" data-name="Elipse 14587" cx="5.16" cy="5.16" r="5.16" transform="translate(42.579 42.579)" fill="#9dcc6b"/>
      <circle id="Elipse_14588" data-name="Elipse 14588" cx="5.16" cy="5.16" r="5.16" transform="translate(15.488 36.129)" fill="#db5669"/>
      <path id="Trazado_1231593" data-name="Trazado 1231593" d="M17.45,27a6.45,6.45,0,1,0,6.45,6.45A6.45,6.45,0,0,0,17.45,27Zm0,10.321a3.87,3.87,0,1,1,3.87-3.87A3.87,3.87,0,0,1,17.45,37.321Z" transform="translate(3.198 7.838)" fill="#231f20"/>
      <path id="Trazado_1231594" data-name="Trazado 1231594" d="M51.442,34.051A31.039,31.039,0,0,0,21.28.007C9.5-.793,4.187,15.191,14.623,21.538A20.641,20.641,0,0,0,20.648,61.93a30.962,30.962,0,0,0,16.487-4.786A14.191,14.191,0,1,0,51.442,34.051Zm-29.9,25.3a18.066,18.066,0,1,1-.89-36.122,1.29,1.29,0,1,0,0-2.58A9.033,9.033,0,1,1,20.2,2.587c14.849-.993,30.381,13.043,28.691,30.962a11.61,11.61,0,0,0-2.58,0A25.8,25.8,0,0,0,20.648,5.167a6.45,6.45,0,0,0,0,12.9,3.87,3.87,0,0,1,0,7.74,15.481,15.481,0,0,0,0,30.962,25.582,25.582,0,0,0,13.83-4.025A14.191,14.191,0,0,0,35.6,55.054a28.2,28.2,0,0,1-14.062,4.3Zm12.23-9.211A23.028,23.028,0,0,1,21.345,54.19a12.905,12.905,0,0,1-.7-25.8,6.45,6.45,0,0,0,0-12.9,3.87,3.87,0,1,1,0-7.74A23.221,23.221,0,0,1,43.624,34.155a14.191,14.191,0,0,0-9.856,15.958ZM47.739,59.35A11.611,11.611,0,1,1,59.35,47.739,11.611,11.611,0,0,1,47.739,59.35Z" transform="translate(0 0)" fill="#231f20"/>
      <path id="Trazado_1231595" data-name="Trazado 1231595" d="M46.771,37.74c-2.58,0-.645.335-2.361-2.258l1.006-1.006a1.3,1.3,0,0,0-1.832-1.832l-1.006,1.006c-2.49-1.651-2.258.116-2.258-2.361a1.29,1.29,0,0,0-2.58,0c0,2.58.335.645-2.258,2.361l-1.006-1.006a1.3,1.3,0,0,0-1.832,1.832l1.006,1.006c-1.651,2.49.116,2.258-2.361,2.258a1.29,1.29,0,1,0,0,2.58c2.58,0,.645-.335,2.361,2.258l-1.006,1.006a1.318,1.318,0,0,0,1.832,1.9c1.832-1.832.194-.7,3.264-.065v1.355a1.29,1.29,0,1,0,2.58,0V45.352c2.993-.606,1.458-1.742,3.264.065a1.318,1.318,0,0,0,1.9-1.832l-1.006-1.006c1.587-2.49-.181-2.258,2.3-2.258a1.29,1.29,0,1,0,0-2.58ZM39.03,42.9a3.87,3.87,0,1,1,3.87-3.87A3.87,3.87,0,0,1,39.03,42.9Z" transform="translate(8.709 8.709)" fill="#231f20"/>
      <path id="Trazado_1231596" data-name="Trazado 1231596" d="M36.29,35a1.29,1.29,0,1,0,1.29,1.29A1.29,1.29,0,0,0,36.29,35Z" transform="translate(10.159 10.159)" fill="#231f20"/>
      <path id="Trazado_1231597" data-name="Trazado 1231597" d="M38.29,37a1.29,1.29,0,1,0,1.29,1.29A1.29,1.29,0,0,0,38.29,37Z" transform="translate(10.739 10.739)" fill="#231f20"/>
    </g>
  </g>
</svg>
