<svg xmlns="http://www.w3.org/2000/svg" xmlns:xlink="http://www.w3.org/1999/xlink" width="113" height="113" viewBox="0 0 113 113">
  <defs>
    <filter id="Trazado_982547" x="0" y="0" width="113" height="113" filterUnits="userSpaceOnUse">
      <feOffset dy="3" input="SourceAlpha"/>
      <feGaussianBlur stdDeviation="3" result="blur"/>
      <feFlood flood-opacity="0.161"/>
      <feComposite operator="in" in2="blur"/>
      <feComposite in="SourceGraphic"/>
    </filter>
  </defs>
  <g id="Grupo_1233239" data-name="Grupo 1233239" transform="translate(-2027.51 -3941)">
    <g id="Grupo_1232517" data-name="Grupo 1232517" transform="translate(1234.51 2452)">
      <g id="Grupo_1208028" data-name="Grupo 1208028" transform="translate(-0.49 -4138.425)">
        <g id="Grupo_1177675" data-name="Grupo 1177675" transform="translate(-4493 3707.152)">
          <g id="Grupo_1176928" data-name="Grupo 1176928" transform="translate(5295.49 1926.273)">
            <g id="Grupo_1172322" data-name="Grupo 1172322" transform="translate(0 0)">
              <g id="Grupo_1164700" data-name="Grupo 1164700">
                <g id="Grupo_1160931" data-name="Grupo 1160931">
                  <g id="Grupo_1160749" data-name="Grupo 1160749">
                    <g id="Grupo_1158891" data-name="Grupo 1158891">
                      <g id="Grupo_1157406" data-name="Grupo 1157406">
                        <g id="Grupo_1155793" data-name="Grupo 1155793">
                          <g id="Grupo_1154704" data-name="Grupo 1154704">
                            <g id="Grupo_1150790" data-name="Grupo 1150790">
                              <g id="Grupo_1154214" data-name="Grupo 1154214">
                                <g id="Grupo_1152583" data-name="Grupo 1152583">
                                  <g id="Grupo_1146973" data-name="Grupo 1146973">
                                    <g id="Grupo_1146954" data-name="Grupo 1146954">
                                      <g transform="matrix(1, 0, 0, 1, -9, -6)" filter="url(#Trazado_982547)">
                                        <g id="Trazado_982547-2" data-name="Trazado 982547" transform="translate(9 6)" fill="#fed0b4">
                                          <path d="M 47.5000114440918 93.49987030029297 C 41.28938293457031 93.49987030029297 35.26534652709961 92.28384399414062 29.5951976776123 89.88558959960938 C 24.11773109436035 87.56881713867188 19.19814491271973 84.25183868408203 14.97310447692871 80.02680206298828 C 10.74805164337158 75.80176544189453 7.43107795715332 70.88218688964844 5.114304542541504 65.40472412109375 C 2.716038227081299 59.73458862304688 1.500011444091797 53.71054840087891 1.500011444091797 47.49993515014648 C 1.500011444091797 41.28932189941406 2.716038227081299 35.26528167724609 5.114304542541504 29.59514808654785 C 7.43107795715332 24.1176815032959 10.74805164337158 19.1981086730957 14.97310447692871 14.97306823730469 C 19.19814491271973 10.74802875518799 24.11773109436035 7.431055068969727 29.5951976776123 5.11428165435791 C 35.26534652709961 2.716028451919556 41.28938293457031 1.500001788139343 47.5000114440918 1.500001788139343 C 53.71063995361328 1.500001788139343 59.73467636108398 2.716028451919556 65.40482330322266 5.11428165435791 C 70.88229370117188 7.431055068969727 75.8018798828125 10.74802875518799 80.02691650390625 14.97306823730469 C 84.25196838378906 19.1981086730957 87.56894683837891 24.1176815032959 89.88571929931641 29.59514808654785 C 92.28398132324219 35.26528167724609 93.50001525878906 41.28932189941406 93.50001525878906 47.49993515014648 C 93.50001525878906 53.71054840087891 92.28398132324219 59.73458862304688 89.88571929931641 65.40472412109375 C 87.56894683837891 70.88218688964844 84.25196838378906 75.80176544189453 80.02691650390625 80.02680206298828 C 75.8018798828125 84.25183868408203 70.88229370117188 87.56881713867188 65.40482330322266 89.88558959960938 C 59.73467636108398 92.28384399414062 53.71063995361328 93.49987030029297 47.5000114440918 93.49987030029297 Z" stroke="none"/>
                                          <path d="M 47.5000114440918 3 C 41.49122619628906 3 35.66378021240234 4.1761474609375 30.17951965332031 6.495796203613281 C 24.880859375 8.7369384765625 20.12153625488281 11.94596862792969 16.03376770019531 16.03373718261719 C 11.94598388671875 20.12149047851562 8.736968994140625 24.88081359863281 6.495811462402344 30.17947387695312 C 4.176162719726562 35.66371917724609 3.000007629394531 41.49116516113281 3.000007629394531 47.49993515014648 C 3.000007629394531 53.50870513916016 4.176162719726562 59.33615112304688 6.495811462402344 64.82039642333984 C 8.736968994140625 70.11905670166016 11.94598388671875 74.87837982177734 16.03376770019531 78.96613311767578 C 20.12153625488281 83.05390167236328 24.880859375 86.26293182373047 30.17951965332031 88.50407409667969 C 35.66378021240234 90.82372283935547 41.49122619628906 91.99987030029297 47.5000114440918 91.99987030029297 C 53.50879669189453 91.99987030029297 59.33624267578125 90.82372283935547 64.82050323486328 88.50407409667969 C 70.11916351318359 86.26293182373047 74.87848663330078 83.05390167236328 78.96625518798828 78.96613311767578 C 83.05403900146484 74.87837982177734 86.2630615234375 70.11905670166016 88.50421142578125 64.82039642333984 C 90.82386016845703 59.33615112304688 92.00001525878906 53.50870513916016 92.00001525878906 47.49993515014648 C 92.00001525878906 41.49116516113281 90.82386016845703 35.66371917724609 88.50421142578125 30.17947387695312 C 86.2630615234375 24.88081359863281 83.05403900146484 20.12149047851562 78.96625518798828 16.03373718261719 C 74.87848663330078 11.94596862792969 70.11916351318359 8.7369384765625 64.82050323486328 6.495796203613281 C 59.33624267578125 4.1761474609375 53.50879669189453 3 47.5000114440918 3 M 47.5000114440918 0 C 73.73353576660156 0 95.00001525878906 21.26644134521484 95.00001525878906 47.49993515014648 C 95.00001525878906 73.73342895507812 73.73353576660156 94.99987030029297 47.5000114440918 94.99987030029297 C 21.26648712158203 94.99987030029297 7.62939453125e-06 73.73342895507812 7.62939453125e-06 47.49993515014648 C 7.62939453125e-06 21.26644134521484 21.26648712158203 0 47.5000114440918 0 Z" stroke="none" fill="#fd660a"/>
                                        </g>
                                      </g>
                                    </g>
                                  </g>
                                </g>
                              </g>
                            </g>
                          </g>
                        </g>
                      </g>
                    </g>
                  </g>
                </g>
              </g>
            </g>
          </g>
        </g>
      </g>
    </g>
    <g id="tuberculosis" transform="translate(2055.775 3964.391)">
      <g id="Grupo_1233237" data-name="Grupo 1233237" transform="translate(0.889 0.882)">
        <g id="Grupo_1233235" data-name="Grupo 1233235">
          <path id="Trazado_1231598" data-name="Trazado 1231598" d="M309.5,18.967a11.415,11.415,0,0,0,2.477,7.117V28.84h3.155a11.414,11.414,0,0,0,2.155.991,1.754,1.754,0,0,1,.316-1.1l2.028-2.888a1.764,1.764,0,1,1,2.888,2.028l-1.8,2.565.249,0a11.447,11.447,0,0,0,8.959-4.309,1.761,1.761,0,0,1-1.186-.61l-2.291-2.684a1.764,1.764,0,1,1,2.684-2.291l2.291,2.684a1.758,1.758,0,0,1,.125.167,11.5,11.5,0,0,0-.165-9.225l-2.916,1.357a1.764,1.764,0,0,1-1.451-3.216l2.381-1.114a11.483,11.483,0,0,0-10.634-3.482l.779.771a1.764,1.764,0,1,1-2.487,2.5l-1.912-1.9a11.519,11.519,0,0,0-4.591,5.073,1.776,1.776,0,0,1,1.157.4l2.99,2.42a1.764,1.764,0,1,1-2.24,2.726L309.607,17.4a11.588,11.588,0,0,0-.106,1.568Zm11.043,2.621A1.769,1.769,0,0,1,319,19.624l.424-3.5a1.764,1.764,0,1,1,3.5.424l-.424,3.5A1.769,1.769,0,0,1,320.544,21.588Z" transform="translate(-273.982 -7.5)" fill="#fff" fill-rule="evenodd"/>
          <path id="Trazado_1231599" data-name="Trazado 1231599" d="M309.5,30.872a11.415,11.415,0,0,0,2.477,7.117v2.755h2.646V37.108a11.411,11.411,0,0,1-2.388-5.68L309.607,29.3a11.581,11.581,0,0,0-.106,1.568Zm6.277-9.252-.633-.628a11.519,11.519,0,0,0-4.591,5.073,1.776,1.776,0,0,1,1.157.4l.8.648a11.463,11.463,0,0,1,3.266-5.491Z" transform="translate(-273.982 -19.405)" fill="#b6e6fa" fill-rule="evenodd"/>
          <path id="Trazado_1231600" data-name="Trazado 1231600" d="M322.889,27a1.769,1.769,0,0,0-2.458.43L318.4,30.313a1.754,1.754,0,0,0-.316,1.1,11.427,11.427,0,0,0,3.43.6l1.8-2.565a1.769,1.769,0,0,0-.43-2.458Zm-.7-10.827a1.769,1.769,0,0,0-1.963,1.539l-.424,3.5a1.764,1.764,0,1,0,3.5.424l.424-3.5A1.77,1.77,0,0,0,322.191,16.169Zm-11.785,2.817,2.854,2.306a1.764,1.764,0,1,0,2.24-2.726l-2.99-2.42a1.776,1.776,0,0,0-1.157-.4A11.386,11.386,0,0,0,310.406,18.986Zm7.45-6.413a1.764,1.764,0,1,0,2.487-2.5l-.779-.771a11.391,11.391,0,0,0-3.62,1.375Zm9.078,3.656a1.762,1.762,0,0,0,2.334.882l2.916-1.357a11.486,11.486,0,0,0-1.987-2.972l-2.381,1.114A1.778,1.778,0,0,0,326.933,16.228Zm.316,8.19L329.54,27.1a1.76,1.76,0,0,0,1.186.61,11.459,11.459,0,0,0,1.623-2.733,1.758,1.758,0,0,0-.125-.167l-2.291-2.684a1.764,1.764,0,1,0-2.684,2.291Z" transform="translate(-274.781 -9.087)" fill="#b5efbc" fill-rule="evenodd"/>
          <path id="Trazado_1231601" data-name="Trazado 1231601" d="M313.035,21.221a11.56,11.56,0,0,1,.275-4.317l-.8-.648a1.776,1.776,0,0,0-1.157-.4,11.383,11.383,0,0,0-.947,3.239Zm6.768.1a1.764,1.764,0,1,0,3.5.424L323.518,20a1.764,1.764,0,0,1-3.5-.424Zm-3.227-9.909a11.494,11.494,0,0,1,2.914-1.989h0a11.4,11.4,0,0,0-3.546,1.361Z" transform="translate(-274.781 -9.198)" fill="#6ee0bc" fill-rule="evenodd"/>
          <path id="Trazado_1231602" data-name="Trazado 1231602" d="M7.58,220.141c.524,10.565,5.5,3.842,11.034,4.35,7.845.719,5.021-8.142,6.657-18.2a1.764,1.764,0,1,1,0-3.528c-.275-1.69-.249-6.073-.6-9.21-.333-2.979-1.072-5.748-4.2-3.951-6.482,3.729-13.812,12.075-12.9,30.539Zm27.54-13.849c1.636,10.057-1.188,18.917,6.657,18.2,5.538-.507,10.509,6.215,11.034-4.35.917-18.463-6.414-26.81-12.9-30.539-3.124-1.8-3.863.972-4.2,3.951-.35,3.138-.325,7.52-.6,9.21a1.764,1.764,0,1,1,0,3.528Z" transform="translate(-7.502 -167.682)" fill="#df95c0" fill-rule="evenodd"/>
          <path id="Trazado_1231603" data-name="Trazado 1231603" d="M185.453,174.424h3.528v-4.41h-3.528v4.41Zm0-8.821h3.528v-4.41h-3.528v4.41Z" transform="translate(-164.524 -143.117)" fill="#73c1ef" fill-rule="evenodd"/>
          <path id="Trazado_1231604" data-name="Trazado 1231604" d="M148.5,128.1h3.528v-4.41H148.5Zm1.764,17.885a6.529,6.529,0,0,0,4.925,2.648,1.764,1.764,0,1,0,0-3.528c-1.934,0-3.161-1.841-3.161-3.774H148.5c0,1.934-1.227,3.774-3.161,3.774a1.764,1.764,0,1,0,0,3.528A6.529,6.529,0,0,0,150.269,145.989Zm-1.764-9.065h3.528v-4.41H148.5v4.41Z" transform="translate(-127.575 -110.027)" fill="#a4d7f5" fill-rule="evenodd"/>
          <path id="Trazado_1231605" data-name="Trazado 1231605" d="M7.58,220.144c.3,6.066,2.068,6.432,4.567,5.741-1.051-.561-1.743-2.154-1.921-5.741-.916-18.463,6.414-26.81,12.9-30.539.077-.044.152-.085.226-.124-.619-.576-1.523-.653-2.872.124C13.993,193.334,6.663,201.68,7.58,220.144ZM35.12,206.3c1.636,10.057-1.188,18.917,6.657,18.2a6.932,6.932,0,0,1,.846-.024c-3.3-.475-3.818-3.558-4.1-7.9-.42-6.35-.367-21.094-.153-23.012.189-1.692.509-3.317,1.324-4.075-2.934-1.536-3.646,1.169-3.97,4.075-.35,3.138-.325,7.52-.6,9.21a1.764,1.764,0,1,1,0,3.528Z" transform="translate(-7.502 -167.685)" fill="#d571ab" fill-rule="evenodd"/>
          <path id="Trazado_1231606" data-name="Trazado 1231606" d="M154.223,304.35a2.821,2.821,0,0,0,.971.168,1.764,1.764,0,0,1,0,3.528,5.228,5.228,0,0,1-2.055-.413,2.2,2.2,0,0,0,1.672-1.968A1.76,1.76,0,0,0,154.223,304.35Zm-7.908,0a2.821,2.821,0,0,1-.971.168,1.764,1.764,0,1,0,0,3.528,5.228,5.228,0,0,0,2.055-.413,2.2,2.2,0,0,1-1.672-1.968A1.76,1.76,0,0,1,146.315,304.35Z" transform="translate(-127.575 -269.437)" fill="#73c1ef" fill-rule="evenodd"/>
        </g>
        <g id="Grupo_1233236" data-name="Grupo 1233236" transform="translate(32.003 25.698)">
          <path id="Trazado_1231607" data-name="Trazado 1231607" d="M284.014,231.292H282.25v-1.764h1.764Zm-2.646-3.528H279.6V226h1.764Z" transform="translate(-279.604 -225.999)" fill="#fff"/>
        </g>
      </g>
      <g id="Grupo_1233238" data-name="Grupo 1233238" transform="translate(0.008)">
        <path id="Trazado_1231608" data-name="Trazado 1231608" d="M33.742,124.565a3.43,3.43,0,0,0-3.323-.42c-.853.432-1.78,1.368-2.19,5.038-.182,1.627-.264,3.577-.336,5.3-.047,1.1-.091,2.164-.157,2.97a2.952,2.952,0,0,1-1.508-2.733V116.193H20.936v18.524a2.952,2.952,0,0,1-1.508,2.733c-.065-.806-.11-1.867-.157-2.97-.073-1.721-.155-3.671-.336-5.3-.41-3.67-1.337-4.606-2.19-5.038a3.431,3.431,0,0,0-3.323.42,24.087,24.087,0,0,0-3.6,2.538l1.144,1.343a22.313,22.313,0,0,1,3.338-2.352c.51-.293,1.209-.6,1.646-.375.216.11.874.443,1.233,3.66.175,1.566.256,3.484.327,5.176.04.944.077,1.817.126,2.559a12.382,12.382,0,0,0-9.068.355l.661,1.636a12.252,12.252,0,0,1,3.619-.9l-.727,1.734,1.627.682,1-2.386a10.215,10.215,0,0,1,1.832.384,2.639,2.639,0,0,0,.145,3.437,16.511,16.511,0,0,0-3.013,2.406l-3.172.242.123-2.23-1.762-.1-.136,2.462-2.472.188.134,1.759,5.621-.428a27.239,27.239,0,0,0-3.178,5.34l-3.9.974.427,1.712,2.62-.654q-.553,1.429-1.027,2.992l1.688.511q.512-1.691,1.119-3.214l2.29,2.354,1.264-1.23-2.8-2.877a19.733,19.733,0,0,1,6.994-8.641c-.273,2.3-.356,4.506-.43,6.5-.149,4-.266,7.167-1.774,8.493a4.192,4.192,0,0,1-3.258.721,13.033,13.033,0,0,0-5.373.972c-1.5.506-2.8.943-3.507.459-.76-.518-1.215-2.182-1.353-4.946C1.271,144.208,3.9,135.4,9.675,129.634l-1.247-1.248a26.734,26.734,0,0,0-6.306,10.339A45.944,45.944,0,0,0,.086,155.912c.173,3.487.827,5.435,2.121,6.316a3.06,3.06,0,0,0,1.778.518,10.935,10.935,0,0,0,3.286-.763,11.517,11.517,0,0,1,4.649-.887,5.813,5.813,0,0,0,4.583-1.153c2.078-1.827,2.208-5.325,2.372-9.753a69.205,69.205,0,0,1,.547-7.337,7.2,7.2,0,0,0,4.159-2.2,7.2,7.2,0,0,0,4.159,2.2,69.182,69.182,0,0,1,.547,7.337c.024.653.047,1.27.076,1.875l1.762-.084c-.028-.6-.051-1.208-.075-1.856-.074-1.992-.156-4.2-.43-6.5a19.733,19.733,0,0,1,6.994,8.641l-2.8,2.877,1.264,1.23,2.29-2.354q.606,1.522,1.119,3.214l1.688-.511q-.473-1.562-1.027-2.992l2.62.654.427-1.712-3.9-.974a27.25,27.25,0,0,0-3.178-5.34l5.621.428.134-1.759-2.472-.188-.136-2.462-1.762.1.123,2.23-3.172-.242a16.511,16.511,0,0,0-3.013-2.406,2.639,2.639,0,0,0,.145-3.437,10.2,10.2,0,0,1,1.832-.384l1,2.386,1.627-.682-.727-1.734a12.256,12.256,0,0,1,3.619.9l.661-1.636a12.383,12.383,0,0,0-9.068-.355c.049-.742.086-1.614.126-2.558.071-1.692.152-3.61.327-5.176.089-.8.359-3.217,1.233-3.66.437-.221,1.136.082,1.646.375,11.194,6.44,12.951,19.722,12.455,29.73-.137,2.764-.592,4.428-1.353,4.946-.709.483-2.006.046-3.507-.459a13.033,13.033,0,0,0-5.373-.972,4.25,4.25,0,0,1-3.21-.68c-.918-.768-1.406-2.231-1.634-4.891l-1.758.15c.341,3.989,1.333,5.319,2.259,6.094a5.875,5.875,0,0,0,4.5,1.084,11.509,11.509,0,0,1,4.649.887,10.929,10.929,0,0,0,3.286.763,3.061,3.061,0,0,0,1.778-.518c1.294-.882,1.948-2.83,2.121-6.317C48.024,136.888,40.348,128.365,33.742,124.565Zm-9.278,9.27H22.7v-2.646h1.764Zm0-4.41H22.7v-2.646h1.764Zm0-4.41H22.7v-2.646h1.764Zm0-7.057V120.6H22.7v-2.646Zm-.22,20.831-.662-.751-.662.751c-1.431,1.625-2.746,2.349-4.263,2.349a.882.882,0,1,1,0-1.764,4.182,4.182,0,0,0,3.968-3.774h1.913a4.182,4.182,0,0,0,3.968,3.774.882.882,0,1,1,0,1.764C26.991,141.137,25.676,140.413,24.244,138.788Z" transform="translate(-0.008 -102.527)"/>
        <path id="Trazado_1231609" data-name="Trazado 1231609" d="M314.351,0A12.363,12.363,0,0,0,302,12.349a12.21,12.21,0,0,0,2.477,7.419V23.1h3.8A12.35,12.35,0,1,0,314.351,0Zm8.2,5.66a10.633,10.633,0,0,1,1.013,1.478l-2.082.969a.843.843,0,0,1-.654.022.884.884,0,0,1-.5-.467.9.9,0,0,1,.452-1.172ZM312.306,2.492a.886.886,0,0,1,0,1.246.883.883,0,0,1-1.247,0L310.009,2.7a10.5,10.5,0,0,1,1.86-.637ZM304.54,8.626l2.99,2.42a.854.854,0,0,1,.312.583.881.881,0,0,1-.2.654.892.892,0,0,1-1.247.117l-2.456-1.984a10.5,10.5,0,0,1,.52-1.846A.9.9,0,0,1,304.54,8.626Zm4.218,12.713h-2.515V19.16l-.191-.241a10.463,10.463,0,0,1-2.282-6.374l1.52,1.228a2.646,2.646,0,0,0,4.307-2.321,2.606,2.606,0,0,0-.957-1.777l-2.991-2.42a2.674,2.674,0,0,0-.417-.276,10.669,10.669,0,0,1,3.176-3.385l1.409,1.4a2.645,2.645,0,0,0,4.142-3.222c.13,0,.26-.008.391-.008a10.539,10.539,0,0,1,6.892,2.558l-1.217.569a2.669,2.669,0,0,0-1.313,3.5,2.663,2.663,0,0,0,2.417,1.562,2.586,2.586,0,0,0,1.093-.243l2.078-.967A10.6,10.6,0,0,1,324.6,15l-1.411-1.653a2.646,2.646,0,0,0-4.026,3.436l2.291,2.684a2.647,2.647,0,0,0,.378.362,10.565,10.565,0,0,1-5.956,2.992l.751-1.069a2.646,2.646,0,0,0-4.331-3.041L310.266,21.6a2.609,2.609,0,0,0-.234.411,10.471,10.471,0,0,1-1.065-.55ZM322.8,18.325,320.5,15.641a.882.882,0,0,1,1.342-1.145l2.058,2.411a10.606,10.606,0,0,1-.93,1.576A.868.868,0,0,1,322.8,18.325Zm-9.137,4.587a10.6,10.6,0,0,1-1.938-.31l2.018-2.873a.882.882,0,0,1,1.444,1.014Z" transform="translate(-266.484)"/>
        <path id="Trazado_1231610" data-name="Trazado 1231610" d="M385.026,68.884a2.644,2.644,0,0,0,2.945-2.309l.424-3.5a2.646,2.646,0,1,0-5.254-.636l-.424,3.5A2.649,2.649,0,0,0,385.026,68.884Zm-.558-2.733.424-3.5a.882.882,0,0,1,1.751.212l-.424,3.5a.882.882,0,1,1-1.751-.212Z" transform="translate(-337.688 -53.038)"/>
      </g>
    </g>
  </g>
</svg>
