<svg xmlns="http://www.w3.org/2000/svg" xmlns:xlink="http://www.w3.org/1999/xlink" width="113" height="113" viewBox="0 0 113 113">
  <defs>
    <filter id="Trazado_982547" x="0" y="0" width="113" height="113" filterUnits="userSpaceOnUse">
      <feOffset dy="3" input="SourceAlpha"/>
      <feGaussianBlur stdDeviation="3" result="blur"/>
      <feFlood flood-opacity="0.161"/>
      <feComposite operator="in" in2="blur"/>
      <feComposite in="SourceGraphic"/>
    </filter>
  </defs>
  <g id="Grupo_1233242" data-name="Grupo 1233242" transform="translate(-2027.51 -4327)">
    <g id="Grupo_1232519" data-name="Grupo 1232519" transform="translate(1234.51 2838)">
      <g id="Grupo_1208028" data-name="Grupo 1208028" transform="translate(-0.49 -4138.425)">
        <g id="Grupo_1177675" data-name="Grupo 1177675" transform="translate(-4493 3707.152)">
          <g id="Grupo_1176928" data-name="Grupo 1176928" transform="translate(5295.49 1926.273)">
            <g id="Grupo_1172322" data-name="Grupo 1172322" transform="translate(0 0)">
              <g id="Grupo_1164700" data-name="Grupo 1164700">
                <g id="Grupo_1160931" data-name="Grupo 1160931">
                  <g id="Grupo_1160749" data-name="Grupo 1160749">
                    <g id="Grupo_1158891" data-name="Grupo 1158891">
                      <g id="Grupo_1157406" data-name="Grupo 1157406">
                        <g id="Grupo_1155793" data-name="Grupo 1155793">
                          <g id="Grupo_1154704" data-name="Grupo 1154704">
                            <g id="Grupo_1150790" data-name="Grupo 1150790">
                              <g id="Grupo_1154214" data-name="Grupo 1154214">
                                <g id="Grupo_1152583" data-name="Grupo 1152583">
                                  <g id="Grupo_1146973" data-name="Grupo 1146973">
                                    <g id="Grupo_1146954" data-name="Grupo 1146954">
                                      <g transform="matrix(1, 0, 0, 1, -9, -6)" filter="url(#Trazado_982547)">
                                        <g id="Trazado_982547-2" data-name="Trazado 982547" transform="translate(9 6)" fill="#fed0b4">
                                          <path d="M 47.5000114440918 93.49987030029297 C 41.28938293457031 93.49987030029297 35.26534652709961 92.28384399414062 29.5951976776123 89.88558959960938 C 24.11773109436035 87.56881713867188 19.19814491271973 84.25183868408203 14.97310447692871 80.02680206298828 C 10.74805164337158 75.80176544189453 7.43107795715332 70.88218688964844 5.114304542541504 65.40472412109375 C 2.716038227081299 59.73458862304688 1.500011444091797 53.71054840087891 1.500011444091797 47.49993515014648 C 1.500011444091797 41.28932189941406 2.716038227081299 35.26528167724609 5.114304542541504 29.59514808654785 C 7.43107795715332 24.1176815032959 10.74805164337158 19.1981086730957 14.97310447692871 14.97306823730469 C 19.19814491271973 10.74802875518799 24.11773109436035 7.431055068969727 29.5951976776123 5.11428165435791 C 35.26534652709961 2.716028451919556 41.28938293457031 1.500001788139343 47.5000114440918 1.500001788139343 C 53.71063995361328 1.500001788139343 59.73467636108398 2.716028451919556 65.40482330322266 5.11428165435791 C 70.88229370117188 7.431055068969727 75.8018798828125 10.74802875518799 80.02691650390625 14.97306823730469 C 84.25196838378906 19.1981086730957 87.56894683837891 24.1176815032959 89.88571929931641 29.59514808654785 C 92.28398132324219 35.26528167724609 93.50001525878906 41.28932189941406 93.50001525878906 47.49993515014648 C 93.50001525878906 53.71054840087891 92.28398132324219 59.73458862304688 89.88571929931641 65.40472412109375 C 87.56894683837891 70.88218688964844 84.25196838378906 75.80176544189453 80.02691650390625 80.02680206298828 C 75.8018798828125 84.25183868408203 70.88229370117188 87.56881713867188 65.40482330322266 89.88558959960938 C 59.73467636108398 92.28384399414062 53.71063995361328 93.49987030029297 47.5000114440918 93.49987030029297 Z" stroke="none"/>
                                          <path d="M 47.5000114440918 3 C 41.49122619628906 3 35.66378021240234 4.1761474609375 30.17951965332031 6.495796203613281 C 24.880859375 8.7369384765625 20.12153625488281 11.94596862792969 16.03376770019531 16.03373718261719 C 11.94598388671875 20.12149047851562 8.736968994140625 24.88081359863281 6.495811462402344 30.17947387695312 C 4.176162719726562 35.66371917724609 3.000007629394531 41.49116516113281 3.000007629394531 47.49993515014648 C 3.000007629394531 53.50870513916016 4.176162719726562 59.33615112304688 6.495811462402344 64.82039642333984 C 8.736968994140625 70.11905670166016 11.94598388671875 74.87837982177734 16.03376770019531 78.96613311767578 C 20.12153625488281 83.05390167236328 24.880859375 86.26293182373047 30.17951965332031 88.50407409667969 C 35.66378021240234 90.82372283935547 41.49122619628906 91.99987030029297 47.5000114440918 91.99987030029297 C 53.50879669189453 91.99987030029297 59.33624267578125 90.82372283935547 64.82050323486328 88.50407409667969 C 70.11916351318359 86.26293182373047 74.87848663330078 83.05390167236328 78.96625518798828 78.96613311767578 C 83.05403900146484 74.87837982177734 86.2630615234375 70.11905670166016 88.50421142578125 64.82039642333984 C 90.82386016845703 59.33615112304688 92.00001525878906 53.50870513916016 92.00001525878906 47.49993515014648 C 92.00001525878906 41.49116516113281 90.82386016845703 35.66371917724609 88.50421142578125 30.17947387695312 C 86.2630615234375 24.88081359863281 83.05403900146484 20.12149047851562 78.96625518798828 16.03373718261719 C 74.87848663330078 11.94596862792969 70.11916351318359 8.7369384765625 64.82050323486328 6.495796203613281 C 59.33624267578125 4.1761474609375 53.50879669189453 3 47.5000114440918 3 M 47.5000114440918 0 C 73.73353576660156 0 95.00001525878906 21.26644134521484 95.00001525878906 47.49993515014648 C 95.00001525878906 73.73342895507812 73.73353576660156 94.99987030029297 47.5000114440918 94.99987030029297 C 21.26648712158203 94.99987030029297 7.62939453125e-06 73.73342895507812 7.62939453125e-06 47.49993515014648 C 7.62939453125e-06 21.26644134521484 21.26648712158203 0 47.5000114440918 0 Z" stroke="none" fill="#fd660a"/>
                                        </g>
                                      </g>
                                    </g>
                                  </g>
                                </g>
                              </g>
                            </g>
                          </g>
                        </g>
                      </g>
                    </g>
                  </g>
                </g>
              </g>
            </g>
          </g>
        </g>
      </g>
    </g>
    <g id="ambiental" transform="translate(2045.712 4339.404)">
      <path id="Trazado_1231629" data-name="Trazado 1231629" d="M135.649,137.781a17.693,17.693,0,1,0-17.693-17.693A17.728,17.728,0,0,0,135.649,137.781Z" transform="translate(-95.761 -82.209)" fill="#66d4f1" fill-rule="evenodd"/>
      <path id="Trazado_1231630" data-name="Trazado 1231630" d="M127.6,286.58h47.272V271.126a3.469,3.469,0,0,0-6.916-.384,3.471,3.471,0,0,0-4.3.728,3.471,3.471,0,0,0-6.009,1,3.481,3.481,0,0,0-4.585,2.166,3.471,3.471,0,0,0-6.1,1.826,3.469,3.469,0,0,0-5.668,2.613,3.516,3.516,0,0,0-.886-.113,3.472,3.472,0,0,0-2.792,1.409,3.476,3.476,0,0,0-4.9,2.155,3.469,3.469,0,0,0-5.116,4.051Z" transform="translate(-104.007 -226.137)" fill="#937661" fill-rule="evenodd"/>
      <path id="Trazado_1231631" data-name="Trazado 1231631" d="M282.116,252.857a.646.646,0,0,1,.882-.236l4.9,2.831a.645.645,0,0,1,.236.881l-1.086,1.886a.645.645,0,0,1-.882.237l-4.9-2.834a.646.646,0,0,1-.236-.882Z" transform="translate(-237.706 -212.967)" fill="#fdcd56" fill-rule="evenodd"/>
      <path id="Trazado_1231632" data-name="Trazado 1231632" d="M191.77,364.723l5.107,1.785,3.661,3.276a1.319,1.319,0,0,1,.479,1.8l-1,1.735a1.32,1.32,0,0,1-1.8.483l-8.764-5.061a1.321,1.321,0,0,1-.483-1.8l1-1.735A1.321,1.321,0,0,1,191.77,364.723Z" transform="translate(-157.456 -310.52)" fill="#f4f6f8" fill-rule="evenodd"/>
      <path id="Trazado_1231633" data-name="Trazado 1231633" d="M209.718,333.626l4.7,1.581,4.068,3.479a1.317,1.317,0,0,1,.483,1.8l-1,1.738a1.319,1.319,0,0,1-1.8.479L207.4,337.64a1.32,1.32,0,0,1-.483-1.8l1-1.735A1.322,1.322,0,0,1,209.718,333.626Z" transform="translate(-173.083 -283.437)" fill="#e4e8eb" fill-rule="evenodd"/>
      <path id="Trazado_1231634" data-name="Trazado 1231634" d="M173.8,395.836l5.168,2.221,3.6,2.84a1.317,1.317,0,0,1,.483,1.8l-1,1.734a1.317,1.317,0,0,1-1.8.483l-8.768-5.061a1.32,1.32,0,0,1-.483-1.8l1-1.734A1.319,1.319,0,0,1,173.8,395.836Z" transform="translate(-141.804 -337.615)" fill="#e4e8eb" fill-rule="evenodd"/>
      <path id="Trazado_1231635" data-name="Trazado 1231635" d="M234.134,290.078l-8.764-5.061a1.321,1.321,0,0,1-.483-1.8,6.4,6.4,0,0,1,6.261-3.143l1.405-2.437,4.38,2.529-1.405,2.437a6.4,6.4,0,0,1,.406,6.993A1.32,1.32,0,0,1,234.134,290.078Z" transform="translate(-188.735 -234.828)" fill="#f4f6f8" fill-rule="evenodd"/>
      <path id="Trazado_1231636" data-name="Trazado 1231636" d="M62.276,367.341H15V351.887a3.469,3.469,0,0,1,6.916-.384,3.467,3.467,0,0,1,4.3.732,3.471,3.471,0,0,1,6.009,1A3.474,3.474,0,0,1,36.81,355.4a3.466,3.466,0,0,1,6.1,1.826,3.469,3.469,0,0,1,5.668,2.613,3.561,3.561,0,0,1,.886-.113,3.462,3.462,0,0,1,2.792,1.409,3.469,3.469,0,0,1,4.9,2.152,3.472,3.472,0,0,1,5.3,2.95A3.526,3.526,0,0,1,62.276,367.341Z" transform="translate(-6.096 -296.472)" fill="#7e6451" fill-rule="evenodd"/>
      <path id="Trazado_1231637" data-name="Trazado 1231637" d="M43.848,62.379a4.352,4.352,0,0,1,2.564,1.21,4.375,4.375,0,0,1,5.117,2.02,4.378,4.378,0,0,1,5.734,4.157,4.435,4.435,0,0,1-.225,1.385.9.9,0,0,1-.858.621H8.9a.9.9,0,0,1-.9-.9V55.415a4.373,4.373,0,0,1,8.443-1.6,4.385,4.385,0,0,1,1.074-.133,4.339,4.339,0,0,1,2.563.832,4.375,4.375,0,0,1,6.064.515,4.4,4.4,0,0,1,2.1.153,4.393,4.393,0,0,1,1.634-1.643,18.763,18.763,0,0,1-3.565-2.971,18.589,18.589,0,1,1,31.4-7.4,4.352,4.352,0,0,1,1.978.915,4.381,4.381,0,0,1,3.635-.7,4.373,4.373,0,0,1,8.443,1.6V60.443a.9.9,0,0,1-.9.9H44.434q-.04.086-.089.169Zm-14.133-6.1a4.4,4.4,0,0,1,.733.573,2.212,2.212,0,0,1,.284-.877l.638-1.108A2.573,2.573,0,0,0,29.715,56.274Zm2.556.655a4.374,4.374,0,0,1,5.091,2.458A4.382,4.382,0,0,1,42.6,60.933l.184-.319,0,0a.4.4,0,0,0,.055-.192.416.416,0,0,0-.2-.372h0l-8.766-5.06a.363.363,0,0,0-.568.153l-1,1.732A.412.412,0,0,0,32.271,56.93ZM55.795,43.249a16.653,16.653,0,0,0,.859-4.466h-6.96q-.031,1.166-.14,2.29l1.651.953a.9.9,0,0,1,.331,1.234l-1.5,2.6a4.357,4.357,0,0,1,2.33-.67,4.451,4.451,0,0,1,.788.07A4.381,4.381,0,0,1,55.795,43.249Zm.859-6.274a16.713,16.713,0,0,0-3.941-9.912,26.284,26.284,0,0,1-4.42,1.451,29.874,29.874,0,0,1,1.4,8.461ZM51.383,25.66a16.8,16.8,0,0,0-7.262-4.029,14.056,14.056,0,0,1,3.534,5.178A25.432,25.432,0,0,0,51.383,25.66ZM35.654,21.631a16.8,16.8,0,0,0-7.261,4.029,25.383,25.383,0,0,0,3.727,1.148,14.059,14.059,0,0,1,3.535-5.177Zm-8.591,5.432a16.713,16.713,0,0,0-3.941,9.912h6.956a29.856,29.856,0,0,1,1.4-8.462A26.242,26.242,0,0,1,27.064,27.063ZM23.122,38.782A16.718,16.718,0,0,0,27.2,48.859a26.534,26.534,0,0,1,4.347-1.406,29.7,29.7,0,0,1-1.473-8.671Zm5.441,11.473A16.891,16.891,0,0,0,32.595,53q.08.01.158.022a2.211,2.211,0,0,1,.3-1.066h0l.32-.554a17.8,17.8,0,0,1-1.161-2.241A25.777,25.777,0,0,0,28.564,50.255Zm16.888,9.283H69.965V44.989A2.565,2.565,0,0,0,64.85,44.7a.9.9,0,0,1-1.341.689,2.568,2.568,0,0,0-3.178.54.9.9,0,0,1-1.387-.043,2.557,2.557,0,0,0-2.018-.982,2.619,2.619,0,0,0-.336.022h0a2.567,2.567,0,0,0-2.088,1.7.9.9,0,0,1-1.188.543,2.577,2.577,0,0,0-3.39,1.6.9.9,0,0,1-1.349.486,7.293,7.293,0,0,1-.592,5.956,2.206,2.206,0,0,1-1.036.925,2.2,2.2,0,0,1-.282,1.355l-1,1.738h0a2.215,2.215,0,0,1-.21.3ZM34.766,53.42h0l8.768,5.061h0a.413.413,0,0,0,.562-.15l1-1.737h0a.411.411,0,0,0-.152-.561h0l-8.763-5.06a.417.417,0,0,0-.567.149l-.4.693-.013.022-.588,1.018A.415.415,0,0,0,34.766,53.42Zm13.613-6.587a4.343,4.343,0,0,1,.4.229q.125-.18.268-.346a.9.9,0,0,1-.476-.121l-.04-.023Zm-.556-6.76q.044-.638.063-1.29h-2.3Zm.827,4.481.04.023.829-1.438-1.364-.788-.026-.015-3.066-1.77L44.233,42Zm-.764-7.579a27.85,27.85,0,0,0-1.376-8.091,37.25,37.25,0,0,1-5.718.563v7.527Zm-2.045-9.807a12.664,12.664,0,0,0-2.485-3.809A5.52,5.52,0,0,0,40.792,21.8V27.64A35.689,35.689,0,0,0,45.841,27.168ZM38.984,21.8a5.524,5.524,0,0,0-2.565,1.555,12.663,12.663,0,0,0-2.487,3.809,35.68,35.68,0,0,0,5.051.472Zm-5.721,7.08a27.834,27.834,0,0,0-1.377,8.091h7.1V29.448A37.252,37.252,0,0,1,33.263,28.884Zm-1.377,9.9a27.656,27.656,0,0,0,1.45,8.3c.947-.168,1.929-.3,2.94-.394a7.269,7.269,0,0,1,2.708-1.872V38.782ZM34.029,48.8q.213.462.444.892a2.217,2.217,0,0,1,.614-.4,2.226,2.226,0,0,1,.022-.654Q34.562,48.713,34.029,48.8ZM45.85,54.467a.415.415,0,0,0,.566-.151h0a5.493,5.493,0,0,0-.088-5.617.907.907,0,0,1-.127-.2q-.065-.1-.135-.19a.9.9,0,0,1-.056-.989l.954-1.655-2.815-1.625L43.2,45.7a.9.9,0,0,1-.885.447,5.5,5.5,0,0,0-5.376,2.7.415.415,0,0,0,.151.566h0Zm-5.058-10.11a7.311,7.311,0,0,1,1.121-.053l.673-1.167-.039-.022a.9.9,0,0,1-.33-1.235l1.734-3a.911.911,0,0,1,.065-.1H40.792ZM55.447,69.965q.008-.1.008-.2a2.568,2.568,0,0,0-3.919-2.182.9.9,0,0,1-1.346-.523,2.566,2.566,0,0,0-3.625-1.591A.9.9,0,0,1,45.43,65.2a2.561,2.561,0,0,0-2.065-1.042,2.66,2.66,0,0,0-.661.085.9.9,0,0,1-1.128-.858,2.566,2.566,0,0,0-4.191-1.933.9.9,0,0,1-1.472-.593A2.562,2.562,0,0,0,31.4,59.514a.9.9,0,0,1-1.551-.306,2.57,2.57,0,0,0-3.4-1.6.9.9,0,0,1-1.186-.546,2.567,2.567,0,0,0-4.445-.738.9.9,0,0,1-1.387.039,2.563,2.563,0,0,0-3.176-.542.9.9,0,0,1-1.341-.689,2.565,2.565,0,0,0-5.114.286v14.55Zm-.4-61.472a.9.9,0,0,1,1.61.822,4.1,4.1,0,0,0,.085,3.338,5.753,5.753,0,0,1-.089,4.734.9.9,0,1,1-1.6-.836,4.083,4.083,0,0,0-.04-3.377C54.562,11.686,54.17,10.208,55.045,8.492Zm-7.988,0a.9.9,0,0,1,1.61.822,4.1,4.1,0,0,0,.084,3.338,5.762,5.762,0,0,1-.087,4.733.9.9,0,1,1-1.6-.835,4.092,4.092,0,0,0-.041-3.378c-.447-1.487-.838-2.965.037-4.68Zm-7.992,0a.9.9,0,0,1,1.61.822,4.1,4.1,0,0,0,.085,3.338,5.753,5.753,0,0,1-.089,4.734.9.9,0,1,1-1.6-.836,4.084,4.084,0,0,0-.039-3.377C38.582,11.686,38.189,10.208,39.065,8.492Zm-7.988,0a.9.9,0,0,1,1.61.822,4.1,4.1,0,0,0,.084,3.338,5.762,5.762,0,0,1-.087,4.733.9.9,0,1,1-1.6-.835,4.092,4.092,0,0,0-.041-3.378c-.447-1.487-.838-2.965.037-4.68Zm-7.988,0a.9.9,0,0,1,1.609.823,4.088,4.088,0,0,0,.083,3.337,5.76,5.76,0,0,1-.086,4.734.9.9,0,1,1-1.6-.835,4.09,4.09,0,0,0-.042-3.378c-.448-1.488-.839-2.966.039-4.681Z" transform="translate(0 0)" fill-rule="evenodd"/>
    </g>
  </g>
</svg>
