<svg xmlns="http://www.w3.org/2000/svg" xmlns:xlink="http://www.w3.org/1999/xlink" width="106.16" height="106.161" viewBox="0 0 106.16 106.161">
  <defs>
    <filter id="Trazado_982547" x="0" y="0" width="106.16" height="106.16" filterUnits="userSpaceOnUse">
      <feOffset dy="3" input="SourceAlpha"/>
      <feGaussianBlur stdDeviation="3" result="blur"/>
      <feFlood flood-opacity="0.161"/>
      <feComposite operator="in" in2="blur"/>
      <feComposite in="SourceGraphic"/>
    </filter>
  </defs>
  <g id="Grupo_1234619" data-name="Grupo 1234619" transform="translate(-190.296 -5425.027)">
    <g id="Grupo_1232520" data-name="Grupo 1232520" transform="translate(-629.954 -1848.388)">
      <g id="Grupo_1230692" data-name="Grupo 1230692" transform="translate(-0.25 3811.95)">
        <g id="Grupo_1224852" data-name="Grupo 1224852" transform="translate(629.5 1738.464)">
          <g id="Grupo_1206130" data-name="Grupo 1206130" transform="translate(0 -59)">
            <g id="Grupo_1203672" data-name="Grupo 1203672" transform="translate(0.08 -4797.878)">
              <g id="Grupo_1203344" data-name="Grupo 1203344" transform="translate(-81.08 5174.875)">
                <g id="Grupo_1177900" data-name="Grupo 1177900" transform="translate(281 1411.003)">
                  <g id="Grupo_1172010" data-name="Grupo 1172010" transform="translate(0)">
                    <g id="Grupo_1171046" data-name="Grupo 1171046">
                      <g id="Grupo_1148525" data-name="Grupo 1148525">
                        <g transform="matrix(1, 0, 0, 1, -9, -6)" filter="url(#Trazado_982547)">
                          <g id="Trazado_982547-2" data-name="Trazado 982547" transform="translate(9 6)" fill="#e5ebfb">
                            <path d="M 44.0802001953125 86.660400390625 C 38.33124923706055 86.660400390625 32.75506210327148 85.53479766845703 27.50652503967285 83.31484985351562 C 22.43628692626953 81.17032623291016 17.88242530822754 78.09992218017578 13.97144985198975 74.18894958496094 C 10.06047534942627 70.27797698974609 6.99007511138916 65.72411346435547 4.845550060272217 60.65387344360352 C 2.625600099563599 55.40533828735352 1.500000238418579 49.82915115356445 1.500000238418579 44.0802001953125 C 1.500000238418579 38.33124923706055 2.625600099563599 32.75506210327148 4.845550060272217 27.50652503967285 C 6.99007511138916 22.43628692626953 10.06047534942627 17.88242530822754 13.97144985198975 13.97144985198975 C 17.88242530822754 10.06047534942627 22.43628692626953 6.99007511138916 27.50652503967285 4.845550060272217 C 32.75506210327148 2.625600099563599 38.33124923706055 1.500000238418579 44.0802001953125 1.500000238418579 C 49.82915115356445 1.500000238418579 55.40533828735352 2.625600099563599 60.65387344360352 4.845550060272217 C 65.72411346435547 6.99007511138916 70.27797698974609 10.06047534942627 74.18894958496094 13.97144985198975 C 78.09992218017578 17.88242530822754 81.17032623291016 22.43628692626953 83.31484985351562 27.50652503967285 C 85.53479766845703 32.75506210327148 86.660400390625 38.33124923706055 86.660400390625 44.0802001953125 C 86.660400390625 49.82915115356445 85.53479766845703 55.40533828735352 83.31484985351562 60.65387344360352 C 81.17032623291016 65.72411346435547 78.09992218017578 70.27797698974609 74.18894958496094 74.18894958496094 C 70.27797698974609 78.09992218017578 65.72411346435547 81.17032623291016 60.65387344360352 83.31484985351562 C 55.40533828735352 85.53479766845703 49.82915115356445 86.660400390625 44.0802001953125 86.660400390625 Z" stroke="none"/>
                            <path d="M 44.0802001953125 3 C 38.53308486938477 3 33.15349960327148 4.085746765136719 28.09085845947266 6.227058410644531 C 23.19941711425781 8.29595947265625 18.80581665039062 11.25841522216797 15.03211212158203 15.03211212158203 C 11.25841522216797 18.80581665039062 8.29595947265625 23.19941711425781 6.227058410644531 28.09085845947266 C 4.085746765136719 33.15349960327148 3 38.53308486938477 3 44.0802001953125 C 3 49.62731552124023 4.085746765136719 55.00691604614258 6.227058410644531 60.06954193115234 C 8.29595947265625 64.96098327636719 11.25841522216797 69.35458374023438 15.03211212158203 73.12828826904297 C 18.80581665039062 76.90198516845703 23.19941711425781 79.86444091796875 28.09085845947266 81.93334197998047 C 33.15349960327148 84.07466125488281 38.53308486938477 85.160400390625 44.0802001953125 85.160400390625 C 49.62731552124023 85.160400390625 55.00691604614258 84.07466125488281 60.06954193115234 81.93334197998047 C 64.96099853515625 79.86444091796875 69.35458374023438 76.90198516845703 73.12828826904297 73.12828826904297 C 76.90198516845703 69.35458374023438 79.86444091796875 64.96099853515625 81.93334197998047 60.06954193115234 C 84.07466125488281 55.00691604614258 85.160400390625 49.62731552124023 85.160400390625 44.0802001953125 C 85.160400390625 38.53308486938477 84.07466125488281 33.15349960327148 81.93334197998047 28.09085845947266 C 79.86444091796875 23.19941711425781 76.90198516845703 18.80581665039062 73.12828826904297 15.03211212158203 C 69.35458374023438 11.25841522216797 64.96098327636719 8.29595947265625 60.06954193115234 6.227058410644531 C 55.00691604614258 4.085746765136719 49.62731552124023 3 44.0802001953125 3 M 44.0802001953125 0 C 68.42502593994141 0 88.160400390625 19.73538970947266 88.160400390625 44.0802001953125 C 88.160400390625 68.42502593994141 68.42502593994141 88.160400390625 44.0802001953125 88.160400390625 C 19.73538970947266 88.160400390625 0 68.42502593994141 0 44.0802001953125 C 0 19.73538970947266 19.73538970947266 0 44.0802001953125 0 Z" stroke="none" fill="#98b4f2"/>
                          </g>
                        </g>
                      </g>
                    </g>
                  </g>
                </g>
              </g>
            </g>
          </g>
        </g>
      </g>
    </g>
    <g id="eucariota" transform="translate(211.877 5443.603)">
      <g id="Grupo_1234618" data-name="Grupo 1234618" transform="translate(-0.001 0.005)">
        <g id="Grupo_1234616" data-name="Grupo 1234616" transform="translate(0 0)">
          <g id="Grupo_1234614" data-name="Grupo 1234614" transform="translate(0)">
            <g id="Grupo_1234610" data-name="Grupo 1234610" transform="translate(6.55)">
              <path id="Trazado_1232279" data-name="Trazado 1232279" d="M58.4,59.728a1.31,1.31,0,0,1-.931-.386l-4.506-4.507a1.317,1.317,0,0,1,1.862-1.862l4.505,4.506a1.317,1.317,0,0,1-.93,2.25Z" transform="translate(-52.616 -46.071)" fill="#49e0f4"/>
              <path id="Trazado_1232280" data-name="Trazado 1232280" d="M311.312,145.826a1.318,1.318,0,0,1-.931-2.25l4.505-4.506a1.318,1.318,0,1,1,1.863,1.863l-4.506,4.506A1.313,1.313,0,0,1,311.312,145.826Z" transform="translate(-277.952 -121.419)" fill="#49e0f4"/>
              <path id="Trazado_1232281" data-name="Trazado 1232281" d="M211.432,11.617A1.318,1.318,0,0,1,210.177,9.9l1.936-6.071a1.317,1.317,0,1,1,2.525.752c0,.016-.01.032-.015.048L212.687,10.7A1.317,1.317,0,0,1,211.432,11.617Z" transform="translate(-190.507 -2.527)" fill="#49e0f4"/>
              <path id="Trazado_1232282" data-name="Trazado 1232282" d="M140.14,8.994a1.318,1.318,0,0,1-1.313-1.217l-.486-6.353a1.318,1.318,0,1,1,2.627-.2l.487,6.353a1.318,1.318,0,0,1-1.21,1.418h-.105Z" transform="translate(-127.664 -0.005)" fill="#49e0f4"/>
              <path id="Trazado_1232283" data-name="Trazado 1232283" d="M264.683,65.873a1.318,1.318,0,0,1-.986-2.191l4.222-4.772a1.317,1.317,0,0,1,2,1.717l-.025.029-4.222,4.772A1.313,1.313,0,0,1,264.683,65.873Z" transform="translate(-237.129 -51.175)" fill="#49e0f4"/>
            </g>
            <g id="Grupo_1234611" data-name="Grupo 1234611" transform="translate(0 6.551)">
              <path id="Trazado_1232284" data-name="Trazado 1232284" d="M58.4,59.728a1.31,1.31,0,0,1-.931-.386l-4.506-4.507a1.317,1.317,0,0,1,1.862-1.862l4.505,4.506a1.317,1.317,0,0,1-.93,2.25Z" transform="translate(-46.066 -52.622)" fill="#49e0f4"/>
              <path id="Trazado_1232285" data-name="Trazado 1232285" d="M140,317.245a1.317,1.317,0,0,1-.932-2.249l4.506-4.506a1.318,1.318,0,0,1,1.863,1.863l-4.505,4.506a1.315,1.315,0,0,1-.931.385Z" transform="translate(-121.417 -278.063)" fill="#49e0f4"/>
              <path id="Trazado_1232286" data-name="Trazado 1232286" d="M4.383,214.688a1.317,1.317,0,0,1-.4-2.573l6.071-1.935a1.318,1.318,0,1,1,.8,2.511l-6.072,1.935a1.32,1.32,0,0,1-.4.062Z" transform="translate(-2.683 -190.51)" fill="#49e0f4"/>
              <path id="Trazado_1232287" data-name="Trazado 1232287" d="M7.674,141.463a.947.947,0,0,1-.1,0l-6.353-.486a1.318,1.318,0,1,1,.2-2.627l6.353.486a1.318,1.318,0,0,1-.1,2.631Z" transform="translate(-0.001 -127.67)" fill="#49e0f4"/>
              <path id="Trazado_1232288" data-name="Trazado 1232288" d="M59.906,270.224a1.317,1.317,0,0,1-.873-2.3L63.8,263.7a1.318,1.318,0,1,1,1.746,1.974l-4.775,4.221A1.309,1.309,0,0,1,59.906,270.224Z" transform="translate(-51.294 -237.13)" fill="#49e0f4"/>
            </g>
            <g id="Grupo_1234612" data-name="Grupo 1234612" transform="translate(17.265 38.608)">
              <path id="Trazado_1232289" data-name="Trazado 1232289" d="M402.163,403.485a1.313,1.313,0,0,1-.932-.386l-4.505-4.506a1.317,1.317,0,0,1,1.863-1.863l4.506,4.507a1.318,1.318,0,0,1-.931,2.25Z" transform="translate(-364.262 -385.61)" fill="#49e0f4"/>
              <path id="Trazado_1232290" data-name="Trazado 1232290" d="M140,317.245a1.317,1.317,0,0,1-.932-2.249l4.506-4.506a1.318,1.318,0,0,1,1.863,1.863l-4.505,4.506a1.315,1.315,0,0,1-.931.385Z" transform="translate(-138.682 -310.12)" fill="#49e0f4"/>
              <path id="Trazado_1232291" data-name="Trazado 1232291" d="M260.518,441.556a1.318,1.318,0,0,1-1.255-1.718l1.936-6.071a1.318,1.318,0,1,1,2.525.752c0,.016-.01.032-.015.048l-1.936,6.071A1.316,1.316,0,0,1,260.518,441.556Z" transform="translate(-244.197 -417.549)" fill="#49e0f4"/>
              <path id="Trazado_1232292" data-name="Trazado 1232292" d="M344.421,443a1.318,1.318,0,0,1-1.312-1.217l-.487-6.353a1.318,1.318,0,0,1,2.628-.2l.486,6.353A1.318,1.318,0,0,1,344.523,443h0C344.488,443,344.454,443,344.421,443Z" transform="translate(-317.23 -418.611)" fill="#49e0f4"/>
              <path id="Trazado_1232293" data-name="Trazado 1232293" d="M188.9,395.479a1.317,1.317,0,0,1-.986-2.191l4.222-4.772a1.318,1.318,0,0,1,1.973,1.746l-4.222,4.772A1.314,1.314,0,0,1,188.9,395.479Z" transform="translate(-181.494 -378.379)" fill="#49e0f4"/>
            </g>
            <g id="Grupo_1234613" data-name="Grupo 1234613" transform="translate(38.593 17.265)">
              <path id="Trazado_1232294" data-name="Trazado 1232294" d="M402.163,403.485a1.313,1.313,0,0,1-.932-.386l-4.505-4.506a1.317,1.317,0,0,1,1.863-1.863l4.506,4.507a1.318,1.318,0,0,1-.931,2.25Z" transform="translate(-385.59 -364.267)" fill="#49e0f4"/>
              <path id="Trazado_1232295" data-name="Trazado 1232295" d="M311.312,145.826a1.318,1.318,0,0,1-.931-2.25l4.505-4.506a1.318,1.318,0,1,1,1.863,1.863l-4.506,4.506A1.313,1.313,0,0,1,311.312,145.826Z" transform="translate(-309.995 -138.684)" fill="#49e0f4"/>
              <path id="Trazado_1232296" data-name="Trazado 1232296" d="M434.35,263.774a1.318,1.318,0,0,1-.4-2.573l6.072-1.935a1.318,1.318,0,1,1,.8,2.511l-6.071,1.935a1.324,1.324,0,0,1-.4.063Z" transform="translate(-417.717 -244.199)" fill="#49e0f4"/>
              <path id="Trazado_1232297" data-name="Trazado 1232297" d="M441.5,345.764h-.1l-6.353-.486a1.318,1.318,0,0,1,.2-2.628l6.353.486a1.318,1.318,0,0,1-.1,2.631Z" transform="translate(-418.409 -317.254)" fill="#49e0f4"/>
              <path id="Trazado_1232298" data-name="Trazado 1232298" d="M389.28,194.37a1.318,1.318,0,0,1-.873-2.3l4.772-4.221a1.317,1.317,0,0,1,1.77,1.952l-.025.022-4.772,4.221A1.314,1.314,0,0,1,389.28,194.37Z" transform="translate(-378.255 -181.425)" fill="#49e0f4"/>
            </g>
            <path id="Trazado_1232299" data-name="Trazado 1232299" d="M93.115,74.6A14.655,14.655,0,1,0,74.772,93.176a12.626,12.626,0,0,1,8.131,8.246,14.654,14.654,0,1,0,18.34-18.576A12.623,12.623,0,0,1,93.115,74.6Z" transform="translate(-56.509 -56.513)" fill="#49e0f4"/>
          </g>
          <path id="Trazado_1232300" data-name="Trazado 1232300" d="M139.021,138.953a10.194,10.194,0,0,1-.848.757,9.627,9.627,0,0,1-15.1-4.528,17.748,17.748,0,0,0-11.388-11.465,9.458,9.458,0,0,1-3.884-2.362,9.646,9.646,0,0,1,0-13.627,10.192,10.192,0,0,1,.848-.757,9.627,9.627,0,0,1,15.1,4.528,17.747,17.747,0,0,0,11.388,11.466,9.473,9.473,0,0,1,3.884,2.363,9.637,9.637,0,0,1,0,13.627Z" transform="translate(-91.911 -91.842)" fill="#91ecf7"/>
          <g id="Grupo_1234615" data-name="Grupo 1234615" transform="translate(19.228 19.63)">
            <circle id="Elipse_14590" data-name="Elipse 14590" cx="3.513" cy="3.513" r="3.513" fill="#fff"/>
            <circle id="Elipse_14591" data-name="Elipse 14591" cx="3.513" cy="3.513" r="3.513" transform="translate(8.558 8.557)" fill="#fff"/>
            <circle id="Elipse_14592" data-name="Elipse 14592" cx="3.513" cy="3.513" r="3.513" transform="translate(17.115 17.115)" fill="#fff"/>
          </g>
        </g>
        <g id="Grupo_1234617" data-name="Grupo 1234617" transform="translate(0 0)">
          <path id="Trazado_1232301" data-name="Trazado 1232301" d="M200.743,349.852l.081.233a1.316,1.316,0,0,0,1.249.9,1.336,1.336,0,0,0,.419-.068,1.318,1.318,0,0,0,.828-1.668l-.095-.278a1.318,1.318,0,1,0-2.484.882Z" transform="translate(-175.681 -304.757)" fill="#000076"/>
          <path id="Trazado_1232302" data-name="Trazado 1232302" d="M100.22,106.3a1.317,1.317,0,1,0-1.6-2.093l-.043.034a11.679,11.679,0,0,0-.958.855,10.965,10.965,0,0,0,0,15.489,10.768,10.768,0,0,0,4.421,2.687,16.431,16.431,0,0,1,10.533,10.621,10.943,10.943,0,0,0,17.173,5.145,11.677,11.677,0,0,0,.958-.855,10.952,10.952,0,0,0,0-15.488,10.766,10.766,0,0,0-4.421-2.688,16.429,16.429,0,0,1-10.53-10.621,10.969,10.969,0,0,0-3.739-5.25,10.685,10.685,0,0,0-1.64-1.044,1.318,1.318,0,0,0-1.2,2.343,7.961,7.961,0,0,1,1.234.786,8.339,8.339,0,0,1,2.849,3.99,19.066,19.066,0,0,0,12.241,12.308,8.173,8.173,0,0,1,3.35,2.039,8.317,8.317,0,0,1,0,11.762h0a9.15,9.15,0,0,1-.739.659,8.312,8.312,0,0,1-13.029-3.909,19.065,19.065,0,0,0-12.244-12.311,8.158,8.158,0,0,1-3.349-2.037,8.327,8.327,0,0,1,0-11.763A9.109,9.109,0,0,1,100.22,106.3Z" transform="translate(-82.66 -90.142)" fill="#000076"/>
          <path id="Trazado_1232303" data-name="Trazado 1232303" d="M166,97.061c.19-.017.38-.028.57-.032a1.318,1.318,0,1,0-.066-2.635c-.247.006-.495.02-.742.043a1.317,1.317,0,0,0,.117,2.63A1.033,1.033,0,0,0,166,97.061Z" transform="translate(-144.077 -82.643)" fill="#000076"/>
          <path id="Trazado_1232304" data-name="Trazado 1232304" d="M154.749,162.621a3.513,3.513,0,1,0,1.766-4.644,3.513,3.513,0,0,0-1.766,4.644Z" transform="translate(-135.213 -138.04)" fill="#000076"/>
          <path id="Trazado_1232305" data-name="Trazado 1232305" d="M228.129,233.12a3.513,3.513,0,1,0-4.643-1.767h0a3.512,3.512,0,0,0,4.642,1.767Z" transform="translate(-195.392 -198.216)" fill="#000076"/>
          <path id="Trazado_1232306" data-name="Trazado 1232306" d="M296.863,301.861a3.513,3.513,0,1,0-4.644-1.766A3.513,3.513,0,0,0,296.863,301.861Z" transform="translate(-255.569 -258.399)" fill="#000076"/>
          <path id="Trazado_1232307" data-name="Trazado 1232307" d="M61.78,43.149l-5.7-.437c.075-.5.133-1,.162-1.512a15.966,15.966,0,0,0-.392-4.491L61.7,34.848a1.318,1.318,0,1,0-.8-2.511L55.049,34.2a15.937,15.937,0,0,0-3.459-5.195c-.017-.018-.036-.034-.053-.051l3.724-3.295a1.318,1.318,0,0,0-1.72-2l-.025.022-4.025,3.562a15.9,15.9,0,0,0-4.367-2.165,10.757,10.757,0,0,1-3.484-1.86l3.706-3.706a1.318,1.318,0,0,0-1.863-1.863l-3.689,3.689a12.155,12.155,0,0,1-1.935-3.666,15.8,15.8,0,0,0-2.1-4.166L39.313,9.49a1.318,1.318,0,0,0-1.948-1.775l-.025.029-3.3,3.729a16.324,16.324,0,0,0-1.617-1.439A15.461,15.461,0,0,0,28.8,7.953L30.666,2.11a1.317,1.317,0,0,0-2.495-.848l-.015.048L26.29,7.157a16.262,16.262,0,0,0-6-.217l-.438-5.718a1.318,1.318,0,0,0-2.627.2l.47,6.127a15.6,15.6,0,0,0-4.912,2.63c-.139.111-.27.226-.4.34L8.765,6.908A1.318,1.318,0,0,0,6.9,8.768l3.619,3.619A16.1,16.1,0,0,0,7.536,17.7L1.418,17.23a1.318,1.318,0,0,0-.2,2.627l5.7.437c-.075.5-.133,1-.162,1.513A15.96,15.96,0,0,0,7.144,26.3L1.3,28.16a1.318,1.318,0,0,0,.8,2.511l5.848-1.864A15.929,15.929,0,0,0,11.406,34c.017.018.036.034.053.051L7.735,37.347a1.318,1.318,0,0,0,1.72,2l.025-.022,4.025-3.56a15.9,15.9,0,0,0,4.367,2.165,10.717,10.717,0,0,1,3.479,1.867l-3.7,3.7a1.318,1.318,0,0,0,1.863,1.863l3.677-3.684c.117.151.238.3.349.459a1.317,1.317,0,0,0,2.158-1.51,13.519,13.519,0,0,0-7.044-5.205,13.14,13.14,0,0,1-5.39-3.276A13.338,13.338,0,1,1,35.355,18.506,13.853,13.853,0,0,0,44.338,27.6a13.14,13.14,0,0,1,5.39,3.276A13.339,13.339,0,0,1,32.186,50.9a13.66,13.66,0,0,1-2.217-2.153,1.318,1.318,0,0,0-1.854-.185,1.3,1.3,0,0,0-.176.177c-.01.007-.024.007-.032.017l-4.223,4.769A1.318,1.318,0,1,0,25.631,55.3l.026-.029,3.3-3.728a16.484,16.484,0,0,0,1.618,1.439,15.483,15.483,0,0,0,3.621,2.079L32.331,60.9a1.318,1.318,0,0,0,2.495.848l.015-.048,1.866-5.853a15.819,15.819,0,0,0,6,.221l.438,5.716A1.317,1.317,0,0,0,44.455,63h.1a1.317,1.317,0,0,0,1.213-1.414h0L45.3,55.463a15.6,15.6,0,0,0,4.912-2.635c.139-.111.27-.226.4-.34L54.231,56.1a1.317,1.317,0,0,0,1.865-1.86l-3.619-3.619a16.1,16.1,0,0,0,2.983-5.311l6.118.468h.1a1.317,1.317,0,0,0,.1-2.631v0Z" transform="translate(0.001 -0.005)" fill="#000076"/>
        </g>
      </g>
    </g>
  </g>
</svg>
