<svg xmlns="http://www.w3.org/2000/svg" xmlns:xlink="http://www.w3.org/1999/xlink" width="106.16" height="106.161" viewBox="0 0 106.16 106.161">
  <defs>
    <filter id="Trazado_982547" x="0" y="0" width="106.16" height="106.16" filterUnits="userSpaceOnUse">
      <feOffset dy="3" input="SourceAlpha"/>
      <feGaussianBlur stdDeviation="3" result="blur"/>
      <feFlood flood-opacity="0.161"/>
      <feComposite operator="in" in2="blur"/>
      <feComposite in="SourceGraphic"/>
    </filter>
  </defs>
  <g id="Grupo_1234623" data-name="Grupo 1234623" transform="translate(-610.296 -5425.027)">
    <g id="Grupo_1232521" data-name="Grupo 1232521" transform="translate(-209.954 -1848.388)">
      <g id="Grupo_1230692" data-name="Grupo 1230692" transform="translate(-0.25 3811.95)">
        <g id="Grupo_1224852" data-name="Grupo 1224852" transform="translate(629.5 1738.464)">
          <g id="Grupo_1206130" data-name="Grupo 1206130" transform="translate(0 -59)">
            <g id="Grupo_1203672" data-name="Grupo 1203672" transform="translate(0.08 -4797.878)">
              <g id="Grupo_1203344" data-name="Grupo 1203344" transform="translate(-81.08 5174.875)">
                <g id="Grupo_1177900" data-name="Grupo 1177900" transform="translate(281 1411.003)">
                  <g id="Grupo_1172010" data-name="Grupo 1172010" transform="translate(0)">
                    <g id="Grupo_1171046" data-name="Grupo 1171046">
                      <g id="Grupo_1148525" data-name="Grupo 1148525">
                        <g transform="matrix(1, 0, 0, 1, -9, -6)" filter="url(#Trazado_982547)">
                          <g id="Trazado_982547-2" data-name="Trazado 982547" transform="translate(9 6)" fill="#e5ebfb">
                            <path d="M 44.0802001953125 86.660400390625 C 38.33124923706055 86.660400390625 32.75506210327148 85.53479766845703 27.50652503967285 83.31484985351562 C 22.43628692626953 81.17032623291016 17.88242530822754 78.09992218017578 13.97144985198975 74.18894958496094 C 10.06047534942627 70.27797698974609 6.99007511138916 65.72411346435547 4.845550060272217 60.65387344360352 C 2.625600099563599 55.40533828735352 1.500000238418579 49.82915115356445 1.500000238418579 44.0802001953125 C 1.500000238418579 38.33124923706055 2.625600099563599 32.75506210327148 4.845550060272217 27.50652503967285 C 6.99007511138916 22.43628692626953 10.06047534942627 17.88242530822754 13.97144985198975 13.97144985198975 C 17.88242530822754 10.06047534942627 22.43628692626953 6.99007511138916 27.50652503967285 4.845550060272217 C 32.75506210327148 2.625600099563599 38.33124923706055 1.500000238418579 44.0802001953125 1.500000238418579 C 49.82915115356445 1.500000238418579 55.40533828735352 2.625600099563599 60.65387344360352 4.845550060272217 C 65.72411346435547 6.99007511138916 70.27797698974609 10.06047534942627 74.18894958496094 13.97144985198975 C 78.09992218017578 17.88242530822754 81.17032623291016 22.43628692626953 83.31484985351562 27.50652503967285 C 85.53479766845703 32.75506210327148 86.660400390625 38.33124923706055 86.660400390625 44.0802001953125 C 86.660400390625 49.82915115356445 85.53479766845703 55.40533828735352 83.31484985351562 60.65387344360352 C 81.17032623291016 65.72411346435547 78.09992218017578 70.27797698974609 74.18894958496094 74.18894958496094 C 70.27797698974609 78.09992218017578 65.72411346435547 81.17032623291016 60.65387344360352 83.31484985351562 C 55.40533828735352 85.53479766845703 49.82915115356445 86.660400390625 44.0802001953125 86.660400390625 Z" stroke="none"/>
                            <path d="M 44.0802001953125 3 C 38.53308486938477 3 33.15349960327148 4.085746765136719 28.09085845947266 6.227058410644531 C 23.19941711425781 8.29595947265625 18.80581665039062 11.25841522216797 15.03211212158203 15.03211212158203 C 11.25841522216797 18.80581665039062 8.29595947265625 23.19941711425781 6.227058410644531 28.09085845947266 C 4.085746765136719 33.15349960327148 3 38.53308486938477 3 44.0802001953125 C 3 49.62731552124023 4.085746765136719 55.00691604614258 6.227058410644531 60.06954193115234 C 8.29595947265625 64.96098327636719 11.25841522216797 69.35458374023438 15.03211212158203 73.12828826904297 C 18.80581665039062 76.90198516845703 23.19941711425781 79.86444091796875 28.09085845947266 81.93334197998047 C 33.15349960327148 84.07466125488281 38.53308486938477 85.160400390625 44.0802001953125 85.160400390625 C 49.62731552124023 85.160400390625 55.00691604614258 84.07466125488281 60.06954193115234 81.93334197998047 C 64.96099853515625 79.86444091796875 69.35458374023438 76.90198516845703 73.12828826904297 73.12828826904297 C 76.90198516845703 69.35458374023438 79.86444091796875 64.96099853515625 81.93334197998047 60.06954193115234 C 84.07466125488281 55.00691604614258 85.160400390625 49.62731552124023 85.160400390625 44.0802001953125 C 85.160400390625 38.53308486938477 84.07466125488281 33.15349960327148 81.93334197998047 28.09085845947266 C 79.86444091796875 23.19941711425781 76.90198516845703 18.80581665039062 73.12828826904297 15.03211212158203 C 69.35458374023438 11.25841522216797 64.96098327636719 8.29595947265625 60.06954193115234 6.227058410644531 C 55.00691604614258 4.085746765136719 49.62731552124023 3 44.0802001953125 3 M 44.0802001953125 0 C 68.42502593994141 0 88.160400390625 19.73538970947266 88.160400390625 44.0802001953125 C 88.160400390625 68.42502593994141 68.42502593994141 88.160400390625 44.0802001953125 88.160400390625 C 19.73538970947266 88.160400390625 0 68.42502593994141 0 44.0802001953125 C 0 19.73538970947266 19.73538970947266 0 44.0802001953125 0 Z" stroke="none" fill="#98b4f2"/>
                          </g>
                        </g>
                      </g>
                    </g>
                  </g>
                </g>
              </g>
            </g>
          </g>
        </g>
      </g>
    </g>
    <g id="membrana-de-plasma" transform="translate(627.795 5311.149)">
      <g id="Grupo_1234621" data-name="Grupo 1234621" transform="translate(1.042 150.142)">
        <path id="Trazado_1232308" data-name="Trazado 1232308" d="M352.649,161.882V158.9a2.3,2.3,0,0,0-2.3-2.3h-9.21a2.3,2.3,0,0,0-2.3,2.3v2.979a3.926,3.926,0,0,0,1.15,2.776l0,0a3.926,3.926,0,0,1,1.15,2.776v5.958a3.926,3.926,0,0,1-1.15,2.776l0,0a3.926,3.926,0,0,0-1.15,2.776v2.979a2.3,2.3,0,0,0,2.3,2.3h9.21a2.3,2.3,0,0,0,2.3-2.3V178.95a3.926,3.926,0,0,0-1.15-2.776l0,0a3.926,3.926,0,0,1-1.15-2.776v-5.958a3.926,3.926,0,0,1,1.15-2.776l0,0A3.927,3.927,0,0,0,352.649,161.882Z" transform="translate(-292.781 -156.6)" fill="#dfbdf0"/>
        <g id="Grupo_1234620" data-name="Grupo 1234620" transform="translate(0 2.303)">
          <circle id="Elipse_14593" data-name="Elipse 14593" cx="2.303" cy="2.303" r="2.303" fill="#ff9ba6"/>
          <circle id="Elipse_14594" data-name="Elipse 14594" cx="2.303" cy="2.303" r="2.303" transform="translate(0 18.421)" fill="#ff9ba6"/>
          <circle id="Elipse_14595" data-name="Elipse 14595" cx="2.303" cy="2.303" r="2.303" transform="translate(13.816)" fill="#ff9ba6"/>
          <circle id="Elipse_14596" data-name="Elipse 14596" cx="2.303" cy="2.303" r="2.303" transform="translate(13.816 18.421)" fill="#ff9ba6"/>
          <circle id="Elipse_14597" data-name="Elipse 14597" cx="2.303" cy="2.303" r="2.303" transform="translate(18.421)" fill="#ff9ba6"/>
          <circle id="Elipse_14598" data-name="Elipse 14598" cx="2.303" cy="2.303" r="2.303" transform="translate(18.421 18.421)" fill="#ff9ba6"/>
          <circle id="Elipse_14599" data-name="Elipse 14599" cx="2.303" cy="2.303" r="2.303" transform="translate(23.026)" fill="#ff9ba6"/>
          <circle id="Elipse_14600" data-name="Elipse 14600" cx="2.303" cy="2.303" r="2.303" transform="translate(23.026 18.421)" fill="#ff9ba6"/>
          <circle id="Elipse_14601" data-name="Elipse 14601" cx="2.303" cy="2.303" r="2.303" transform="translate(27.631)" fill="#ff9ba6"/>
          <circle id="Elipse_14602" data-name="Elipse 14602" cx="2.303" cy="2.303" r="2.303" transform="translate(27.631 18.421)" fill="#ff9ba6"/>
          <circle id="Elipse_14603" data-name="Elipse 14603" cx="2.303" cy="2.303" r="2.303" transform="translate(32.236)" fill="#ff9ba6"/>
          <circle id="Elipse_14604" data-name="Elipse 14604" cx="2.303" cy="2.303" r="2.303" transform="translate(32.236 18.421)" fill="#ff9ba6"/>
          <circle id="Elipse_14605" data-name="Elipse 14605" cx="2.303" cy="2.303" r="2.303" transform="translate(36.842)" fill="#ff9ba6"/>
          <circle id="Elipse_14606" data-name="Elipse 14606" cx="2.303" cy="2.303" r="2.303" transform="translate(36.842 18.421)" fill="#ff9ba6"/>
          <circle id="Elipse_14607" data-name="Elipse 14607" cx="2.303" cy="2.303" r="2.303" transform="translate(41.447)" fill="#ff9ba6"/>
          <circle id="Elipse_14608" data-name="Elipse 14608" cx="2.303" cy="2.303" r="2.303" transform="translate(41.447 18.421)" fill="#ff9ba6"/>
          <circle id="Elipse_14609" data-name="Elipse 14609" cx="2.303" cy="2.303" r="2.303" transform="translate(59.868)" fill="#ff9ba6"/>
          <circle id="Elipse_14610" data-name="Elipse 14610" cx="2.303" cy="2.303" r="2.303" transform="translate(59.868 18.421)" fill="#ff9ba6"/>
          <circle id="Elipse_14611" data-name="Elipse 14611" cx="2.303" cy="2.303" r="2.303" transform="translate(64.473)" fill="#ff9ba6"/>
          <circle id="Elipse_14612" data-name="Elipse 14612" cx="2.303" cy="2.303" r="2.303" transform="translate(64.473 18.421)" fill="#ff9ba6"/>
        </g>
        <path id="Trazado_1232309" data-name="Trazado 1232309" d="M341.136,184.232h9.21a2.3,2.3,0,0,0,2.3-2.3V178.95a3.926,3.926,0,0,0-1.15-2.776l0,0a3.926,3.926,0,0,1-1.15-2.776v-5.958a3.926,3.926,0,0,1,1.15-2.776l0,0a3.926,3.926,0,0,0,1.15-2.776V158.9a2.3,2.3,0,0,0-2.3-2.3h-2.3v20.723a3.454,3.454,0,0,1-3.454,3.454h-5.757v1.151A2.3,2.3,0,0,0,341.136,184.232Z" transform="translate(-292.781 -156.601)" fill="#cbb0f2"/>
        <path id="Trazado_1232310" data-name="Trazado 1232310" d="M49.843,161.882V158.9a2.3,2.3,0,0,0-2.3-2.3H42.936a2.3,2.3,0,0,0-2.3,2.3v2.979a3.926,3.926,0,0,0,1.15,2.776l0,0a3.926,3.926,0,0,1,1.15,2.776v5.958a3.926,3.926,0,0,1-1.15,2.776l0,0a3.926,3.926,0,0,0-1.15,2.776v2.979a2.3,2.3,0,0,0,2.3,2.3h4.605a2.3,2.3,0,0,0,2.3-2.3V178.95a3.926,3.926,0,0,0-1.15-2.776l0,0a3.926,3.926,0,0,1-1.15-2.776v-5.958a3.926,3.926,0,0,1,1.15-2.776l0,0A3.927,3.927,0,0,0,49.843,161.882Z" transform="translate(-36.028 -156.6)" fill="#dfbdf0"/>
        <path id="Trazado_1232311" data-name="Trazado 1232311" d="M48.691,164.661l0,0a3.926,3.926,0,0,0,1.15-2.776V158.9a2.3,2.3,0,0,0-2.3-2.3h-2.3v21.875a2.3,2.3,0,0,1-2.3,2.3h-2.3v1.151a2.3,2.3,0,0,0,2.3,2.3h4.605a2.3,2.3,0,0,0,2.3-2.3V178.95a3.926,3.926,0,0,0-1.15-2.776l0,0a3.926,3.926,0,0,1-1.15-2.776v-5.958A3.925,3.925,0,0,1,48.691,164.661Z" transform="translate(-36.028 -156.601)" fill="#cbb0f2"/>
      </g>
      <g id="Grupo_1234622" data-name="Grupo 1234622" transform="translate(0 149.099)">
        <path id="Trazado_1232312" data-name="Trazado 1232312" d="M68.86,169.99V157.925a3.344,3.344,0,1,0-3.345-5.6,3.335,3.335,0,0,0-3.65-.638,3.35,3.35,0,0,0-3.257-2.587H49.4a3.35,3.35,0,0,0-3.257,2.587,3.335,3.335,0,0,0-3.65.638,3.336,3.336,0,0,0-4.605,0,3.336,3.336,0,0,0-4.605,0,3.336,3.336,0,0,0-4.605,0,3.336,3.336,0,0,0-4.605,0,3.336,3.336,0,0,0-4.605,0,3.335,3.335,0,0,0-3.65-.638,3.35,3.35,0,0,0-3.257-2.587H7.95a3.35,3.35,0,0,0-3.257,2.587,3.344,3.344,0,1,0-2.39,6.238V169.99a3.344,3.344,0,1,0,2.39,6.238,3.35,3.35,0,0,0,3.257,2.587h4.605a3.35,3.35,0,0,0,3.257-2.587,3.335,3.335,0,0,0,3.65-.638,3.336,3.336,0,0,0,4.605,0,3.336,3.336,0,0,0,4.605,0,3.336,3.336,0,0,0,4.605,0,3.336,3.336,0,0,0,4.605,0,3.336,3.336,0,0,0,4.605,0,3.335,3.335,0,0,0,3.65.638,3.35,3.35,0,0,0,3.257,2.587h9.21a3.35,3.35,0,0,0,3.257-2.587,3.335,3.335,0,0,0,3.65-.638,3.344,3.344,0,1,0,3.345-5.6Zm-3.345.755a3.347,3.347,0,0,0-1.26-.755V157.925a3.347,3.347,0,0,0,1.26-.755,3.348,3.348,0,0,0,1.26.755V169.99A3.349,3.349,0,0,0,65.515,170.745Zm-4.059-.422a4.989,4.989,0,0,0-.961-1.348,2.865,2.865,0,0,1-.845-2.039v-5.958a2.866,2.866,0,0,1,.848-2.042,4.973,4.973,0,0,0,.959-1.345,3.327,3.327,0,0,0,.714.333V169.99A3.339,3.339,0,0,0,61.456,170.323Zm6.362-16.836a1.26,1.26,0,1,1-1.26,1.26A1.262,1.262,0,0,1,67.818,153.487Zm-4.605,0a1.26,1.26,0,1,1-1.26,1.26A1.262,1.262,0,0,1,63.213,153.487Zm-18.421,0a1.26,1.26,0,1,1-1.26,1.26A1.262,1.262,0,0,1,44.792,153.487Zm-2.3,17.258a3.347,3.347,0,0,0-1.26-.755V157.925a3.347,3.347,0,0,0,1.26-.755,3.347,3.347,0,0,0,1.26.755V169.99A3.347,3.347,0,0,0,42.489,170.745Zm-4.605,0a3.347,3.347,0,0,0-1.26-.755V157.925a3.347,3.347,0,0,0,1.26-.755,3.348,3.348,0,0,0,1.26.755V169.99A3.35,3.35,0,0,0,37.884,170.745Zm-4.605,0a3.348,3.348,0,0,0-1.26-.755V157.925a3.347,3.347,0,0,0,1.26-.755,3.347,3.347,0,0,0,1.26.755V169.99A3.347,3.347,0,0,0,33.279,170.745Zm-4.605,0a3.347,3.347,0,0,0-1.26-.755V157.925a3.347,3.347,0,0,0,1.26-.755,3.347,3.347,0,0,0,1.26.755V169.99A3.347,3.347,0,0,0,28.674,170.745Zm-4.605,0a3.348,3.348,0,0,0-1.26-.755V157.925a3.347,3.347,0,0,0,1.26-.755,3.347,3.347,0,0,0,1.26.755V169.99A3.346,3.346,0,0,0,24.069,170.745Zm-4.605,0a3.336,3.336,0,0,0-4.059-.422,4.987,4.987,0,0,0-.961-1.348,2.864,2.864,0,0,1-.845-2.039v-5.958a2.867,2.867,0,0,1,.847-2.042,4.977,4.977,0,0,0,.959-1.345,3.331,3.331,0,0,0,.714.333v8.335a1.042,1.042,0,1,0,2.085,0v-8.335a3.347,3.347,0,0,0,1.26-.755,3.347,3.347,0,0,0,1.26.755V169.99a3.347,3.347,0,0,0-1.26.755Zm20.723-17.258a1.26,1.26,0,1,1-1.26,1.26A1.262,1.262,0,0,1,40.187,153.487Zm-4.605,0a1.26,1.26,0,1,1-1.26,1.26A1.262,1.262,0,0,1,35.582,153.487Zm-4.605,0a1.26,1.26,0,1,1-1.26,1.26A1.262,1.262,0,0,1,30.976,153.487Zm-4.605,0a1.26,1.26,0,1,1-1.26,1.26A1.262,1.262,0,0,1,26.371,153.487Zm-4.605,0a1.26,1.26,0,1,1-1.26,1.26A1.262,1.262,0,0,1,21.766,153.487Zm-4.605,0a1.26,1.26,0,1,1-1.26,1.26,1.262,1.262,0,0,1,1.26-1.26ZM5.1,170.323a3.337,3.337,0,0,0-.714-.333V157.925a3.332,3.332,0,0,0,.714-.333,4.987,4.987,0,0,0,.961,1.348,2.864,2.864,0,0,1,.845,2.039v5.958a2.866,2.866,0,0,1-.848,2.042A4.979,4.979,0,0,0,5.1,170.323ZM3.345,153.487a1.26,1.26,0,1,1-1.26,1.26,1.262,1.262,0,0,1,1.26-1.26Zm0,20.941a1.26,1.26,0,1,1,1.26-1.26,1.262,1.262,0,0,1-1.26,1.26Zm10.471,1.042a1.262,1.262,0,0,1-1.26,1.26H7.95a1.262,1.262,0,0,1-1.26-1.26v-2.979a2.867,2.867,0,0,1,.847-2.042,4.935,4.935,0,0,0,1.455-3.513v-5.958a4.938,4.938,0,0,0-1.458-3.516,2.865,2.865,0,0,1-.845-2.039v-2.979a1.262,1.262,0,0,1,1.26-1.26h4.605a1.262,1.262,0,0,1,1.26,1.26v2.979a2.867,2.867,0,0,1-.847,2.042,4.936,4.936,0,0,0-1.455,3.513v5.958a4.937,4.937,0,0,0,1.458,3.516,2.865,2.865,0,0,1,.845,2.039v2.979Zm3.345-1.042a1.26,1.26,0,1,1,1.26-1.26,1.262,1.262,0,0,1-1.26,1.26Zm4.605,0a1.26,1.26,0,1,1,1.26-1.26A1.262,1.262,0,0,1,21.766,174.428Zm4.605,0a1.26,1.26,0,1,1,1.26-1.26A1.262,1.262,0,0,1,26.371,174.428Zm4.605,0a1.26,1.26,0,1,1,1.26-1.26A1.262,1.262,0,0,1,30.976,174.428Zm4.605,0a1.26,1.26,0,1,1,1.26-1.26A1.262,1.262,0,0,1,35.582,174.428Zm4.605,0a1.26,1.26,0,1,1,1.26-1.26A1.262,1.262,0,0,1,40.187,174.428Zm4.605,0a1.26,1.26,0,1,1,1.26-1.26A1.262,1.262,0,0,1,44.792,174.428Zm15.076,1.042a1.262,1.262,0,0,1-1.26,1.26H49.4a1.262,1.262,0,0,1-1.26-1.26v-2.979a2.867,2.867,0,0,1,.847-2.042,4.936,4.936,0,0,0,1.455-3.513v-1.312a1.042,1.042,0,0,0-2.085,0v1.312a2.867,2.867,0,0,1-.847,2.042,4.977,4.977,0,0,0-.959,1.345,3.332,3.332,0,0,0-.714-.333V157.925a3.332,3.332,0,0,0,.714-.333,4.987,4.987,0,0,0,.961,1.348,2.864,2.864,0,0,1,.845,2.039,1.042,1.042,0,1,0,2.085,0,4.937,4.937,0,0,0-1.458-3.516,2.865,2.865,0,0,1-.845-2.039v-2.979a1.262,1.262,0,0,1,1.26-1.26h9.21a1.262,1.262,0,0,1,1.26,1.26v2.979a2.867,2.867,0,0,1-.847,2.042,4.935,4.935,0,0,0-1.455,3.513v5.958a4.938,4.938,0,0,0,1.458,3.516,2.865,2.865,0,0,1,.845,2.039v2.979Zm3.345-1.042a1.26,1.26,0,1,1,1.26-1.26A1.262,1.262,0,0,1,63.213,174.428Zm4.605,0a1.26,1.26,0,1,1,1.26-1.26A1.262,1.262,0,0,1,67.818,174.428Z" transform="translate(0 -149.099)"/>
        <path id="Trazado_1232313" data-name="Trazado 1232313" d="M382.075,182.233a1.042,1.042,0,0,0-1.042,1.042V201.7a1.042,1.042,0,0,0,2.085,0V183.275A1.042,1.042,0,0,0,382.075,182.233Z" transform="translate(-328.073 -177.628)"/>
      </g>
    </g>
  </g>
</svg>
