<svg xmlns="http://www.w3.org/2000/svg" xmlns:xlink="http://www.w3.org/1999/xlink" width="113" height="113" viewBox="0 0 113 113">
  <defs>
    <filter id="Trazado_982547" x="0" y="0" width="113" height="113" filterUnits="userSpaceOnUse">
      <feOffset dy="3" input="SourceAlpha"/>
      <feGaussianBlur stdDeviation="3" result="blur"/>
      <feFlood flood-opacity="0.161"/>
      <feComposite operator="in" in2="blur"/>
      <feComposite in="SourceGraphic"/>
    </filter>
  </defs>
  <g id="Grupo_1234631" data-name="Grupo 1234631" transform="translate(-324 -7891.294)">
    <g id="Grupo_1232525" data-name="Grupo 1232525" transform="translate(0 6427.334)">
      <g id="Grupo_1230095" data-name="Grupo 1230095" transform="translate(-0.25 -13219.084)">
        <g id="Grupo_1224255" data-name="Grupo 1224255" transform="translate(0.25 13230)">
          <g id="Grupo_1223775" data-name="Grupo 1223775" transform="translate(0 -4451.031)">
            <g id="Grupo_1206275" data-name="Grupo 1206275" transform="translate(0 -3448.335)">
              <g id="Grupo_1203802" data-name="Grupo 1203802" transform="translate(0.5 6552.41)">
                <g id="Grupo_1202424" data-name="Grupo 1202424" transform="translate(0 1464)">
                  <g id="Grupo_1178325" data-name="Grupo 1178325" transform="translate(0 424)">
                    <g id="Grupo_1177679" data-name="Grupo 1177679" transform="translate(332.5 918)">
                      <g id="Grupo_1172010" data-name="Grupo 1172010">
                        <g id="Grupo_1171046" data-name="Grupo 1171046">
                          <g id="Grupo_1148525" data-name="Grupo 1148525">
                            <g transform="matrix(1, 0, 0, 1, -9, -6)" filter="url(#Trazado_982547)">
                              <g id="Trazado_982547-2" data-name="Trazado 982547" transform="translate(9 6)" fill="#d6ccfe">
                                <path d="M 47.5 93.5 C 41.28937149047852 93.5 35.26533508300781 92.28397369384766 29.59518623352051 89.88570404052734 C 24.11771965026855 87.56893157958984 19.19813346862793 84.25196075439453 14.97309303283691 80.02691650390625 C 10.74804019927979 75.80186462402344 7.431066513061523 70.88229370117188 5.114293098449707 65.40481567382812 C 2.716026782989502 59.73468017578125 1.5 53.71062850952148 1.5 47.5 C 1.5 41.28937149047852 2.716026782989502 35.26533508300781 5.114293098449707 29.59518623352051 C 7.431066513061523 24.11771965026855 10.74804019927979 19.19813346862793 14.97309303283691 14.97309303283691 C 19.19813346862793 10.74804019927979 24.11771965026855 7.431066513061523 29.59518623352051 5.114293098449707 C 35.26533508300781 2.716026782989502 41.28937149047852 1.5 47.5 1.5 C 53.71062850952148 1.5 59.73468017578125 2.716026782989502 65.40481567382812 5.114293098449707 C 70.88229370117188 7.431066513061523 75.80186462402344 10.74804019927979 80.02691650390625 14.97309303283691 C 84.25196075439453 19.19813346862793 87.56893157958984 24.11771965026855 89.88570404052734 29.59518623352051 C 92.28397369384766 35.26533508300781 93.5 41.28937149047852 93.5 47.5 C 93.5 53.71062850952148 92.28397369384766 59.73468017578125 89.88570404052734 65.40481567382812 C 87.56893157958984 70.88229370117188 84.25196075439453 75.80186462402344 80.02691650390625 80.02691650390625 C 75.80186462402344 84.25196075439453 70.88229370117188 87.56893157958984 65.40481567382812 89.88570404052734 C 59.73468017578125 92.28397369384766 53.71062850952148 93.5 47.5 93.5 Z" stroke="none"/>
                                <path d="M 47.5 3 C 41.49121475219727 3 35.66376876831055 4.176155090332031 30.17950439453125 6.495796203613281 C 24.88084411621094 8.736953735351562 20.12152099609375 11.94598388671875 16.03375244140625 16.03375244140625 C 11.94598388671875 20.12152099609375 8.736953735351562 24.88084411621094 6.495796203613281 30.17950439453125 C 4.176155090332031 35.66376876831055 3 41.49121475219727 3 47.5 C 3 53.50878524780273 4.176155090332031 59.33623123168945 6.495796203613281 64.82049560546875 C 8.736953735351562 70.11915588378906 11.94598388671875 74.87847900390625 16.03375244140625 78.96624755859375 C 20.12152099609375 83.05401611328125 24.88084411621094 86.26304626464844 30.17950439453125 88.50419616699219 C 35.66376876831055 90.82384490966797 41.49121475219727 92 47.5 92 C 53.50878524780273 92 59.33623123168945 90.82384490966797 64.82049560546875 88.50419616699219 C 70.11915588378906 86.26304626464844 74.87847900390625 83.05401611328125 78.96624755859375 78.96624755859375 C 83.05401611328125 74.87847900390625 86.26304626464844 70.11915588378906 88.50419616699219 64.82049560546875 C 90.82384490966797 59.33623123168945 92 53.50878524780273 92 47.5 C 92 41.49121475219727 90.82384490966797 35.66376876831055 88.50419616699219 30.17950439453125 C 86.26304626464844 24.88084411621094 83.05401611328125 20.12152099609375 78.96624755859375 16.03375244140625 C 74.87847900390625 11.94598388671875 70.11915588378906 8.736953735351562 64.82049560546875 6.495796203613281 C 59.33623123168945 4.176155090332031 53.50878524780273 3 47.5 3 M 47.5 0 C 73.7335205078125 0 95 21.2664794921875 95 47.5 C 95 73.7335205078125 73.7335205078125 95 47.5 95 C 21.2664794921875 95 0 73.7335205078125 0 47.5 C 0 21.2664794921875 21.2664794921875 0 47.5 0 Z" stroke="none" fill="#7958fb"/>
                              </g>
                            </g>
                          </g>
                        </g>
                      </g>
                    </g>
                  </g>
                </g>
              </g>
            </g>
          </g>
        </g>
      </g>
    </g>
    <g id="esporas" transform="translate(347.354 7911.646)">
      <g id="Grupo_1234629" data-name="Grupo 1234629" transform="translate(5.123 5.123)">
        <path id="Trazado_1232327" data-name="Trazado 1232327" d="M50.982,39.564a11.417,11.417,0,0,0,0,22.834l7.262-2.607a11.417,11.417,0,0,0-7.262-20.227Z" transform="translate(-39.565 -39.564)" fill="#dfbdf0"/>
        <g id="Grupo_1234628" data-name="Grupo 1234628" transform="translate(12.455 12.455)">
          <circle id="Elipse_14616" data-name="Elipse 14616" cx="2.076" cy="2.076" r="2.076" transform="translate(6.384 6.384)" fill="#ffaa5a"/>
          <circle id="Elipse_14617" data-name="Elipse 14617" cx="2.076" cy="2.076" r="2.076" transform="translate(37.209 37.209)" fill="#ffaa5a"/>
          <circle id="Elipse_14618" data-name="Elipse 14618" cx="2.076" cy="2.076" r="2.076" transform="translate(6.384 37.209)" fill="#ffaa5a"/>
          <circle id="Elipse_14619" data-name="Elipse 14619" cx="2.076" cy="2.076" r="2.076" transform="translate(37.209 6.384)" fill="#ffaa5a"/>
          <circle id="Elipse_14620" data-name="Elipse 14620" cx="2.076" cy="2.076" r="2.076" transform="translate(0 21.796)" fill="#ffaa5a"/>
          <circle id="Elipse_14621" data-name="Elipse 14621" cx="2.076" cy="2.076" r="2.076" transform="translate(43.593 21.796)" fill="#ffaa5a"/>
          <circle id="Elipse_14622" data-name="Elipse 14622" cx="2.076" cy="2.076" r="2.076" transform="translate(21.796 43.593)" fill="#ffaa5a"/>
          <circle id="Elipse_14623" data-name="Elipse 14623" cx="15.569" cy="15.569" r="15.569" transform="translate(8.303 8.303)" fill="#ffaa5a"/>
          <circle id="Elipse_14624" data-name="Elipse 14624" cx="2.076" cy="2.076" r="2.076" transform="translate(21.796)" fill="#ffaa5a"/>
        </g>
        <circle id="Elipse_14625" data-name="Elipse 14625" cx="2.595" cy="2.595" r="2.595" transform="translate(11.924 11.924)" fill="#f2d1ff"/>
        <circle id="Elipse_14626" data-name="Elipse 14626" cx="2.076" cy="2.076" r="2.076" transform="translate(6.228 6.228)" fill="#cbb0f2"/>
        <circle id="Elipse_14627" data-name="Elipse 14627" cx="2.076" cy="2.076" r="2.076" transform="translate(32.176 28.024)" fill="#ffc263"/>
        <circle id="Elipse_14628" data-name="Elipse 14628" cx="2.076" cy="2.076" r="2.076" transform="translate(41.517 34.251)" fill="#ffc263"/>
        <circle id="Elipse_14629" data-name="Elipse 14629" cx="3.114" cy="3.114" r="3.114" transform="translate(29.062 38.403)" fill="#ff8b57"/>
        <circle id="Elipse_14630" data-name="Elipse 14630" cx="4.152" cy="4.152" r="4.152" transform="translate(41.517 2.076)" fill="#a5e3f0"/>
        <circle id="Elipse_14631" data-name="Elipse 14631" cx="3.114" cy="3.114" r="3.114" transform="translate(0 33.214)" fill="#b8eb7c"/>
        <path id="Trazado_1232328" data-name="Trazado 1232328" d="M217.979,251.217a15.556,15.556,0,0,1-12.19-25.236,15.56,15.56,0,1,0,21.857,21.857,15.489,15.489,0,0,1-9.667,3.379Z" transform="translate(-179.129 -201.844)" fill="#ff8b57"/>
        <path id="Trazado_1232329" data-name="Trazado 1232329" d="M53.495,74.639a11.4,11.4,0,0,1-9.223-18.127A11.408,11.408,0,1,0,60.2,72.445,11.351,11.351,0,0,1,53.495,74.639Z" transform="translate(-39.565 -54.318)" fill="#cbb0f2"/>
      </g>
      <g id="Grupo_1234630" data-name="Grupo 1234630" transform="translate(0 0)">
        <path id="Trazado_1232330" data-name="Trazado 1232330" d="M174.9,150.054a3.052,3.052,0,0,0-2.887,2.076h-2.4a16.472,16.472,0,0,0-4.155-10.011l1.7-1.7a3.045,3.045,0,1,0-1.373-1.373l-1.7,1.7a16.472,16.472,0,0,0-10.011-4.155v-2.4a3.047,3.047,0,1,0-1.942,0v2.4a16.473,16.473,0,0,0-10.011,4.155l-1.7-1.7a3.036,3.036,0,1,0-1.371,1.376l1.7,1.7a16.472,16.472,0,0,0-4.155,10.011h-2.4a3.047,3.047,0,1,0,0,1.942h2.4a16.473,16.473,0,0,0,4.155,10.011l-1.7,1.7a3.052,3.052,0,1,0,1.371,1.376l1.7-1.7a16.472,16.472,0,0,0,10.011,4.155v2.4a3.047,3.047,0,1,0,1.942,0v-2.4a16.473,16.473,0,0,0,10.011-4.155l1.7,1.7a3.045,3.045,0,1,0,1.373-1.373l-1.7-1.7a16.472,16.472,0,0,0,4.155-10.011h2.4a3.047,3.047,0,1,0,2.887-4.018Zm-7.165-13.147a1.1,1.1,0,1,1-.324.781A1.1,1.1,0,0,1,167.732,136.908ZM153.1,130.2a1.1,1.1,0,1,1-1.1,1.1A1.106,1.106,0,0,1,153.1,130.2Zm-16.194,8.27a1.1,1.1,0,1,1,.781.324A1.1,1.1,0,0,1,136.908,138.47Zm-5.6,15.736a1.1,1.1,0,1,1,1.1-1.1A1.106,1.106,0,0,1,131.305,154.206Zm7.165,15.089a1.1,1.1,0,1,1,0-1.562A1.1,1.1,0,0,1,138.47,169.295ZM153.1,176a1.1,1.1,0,1,1,1.1-1.1A1.106,1.106,0,0,1,153.1,176Zm16.194-8.27a1.1,1.1,0,1,1-.781-.324,1.106,1.106,0,0,1,.781.324ZM153.1,167.7a14.6,14.6,0,1,1,14.6-14.6A14.614,14.614,0,0,1,153.1,167.7Zm21.8-13.493a1.1,1.1,0,1,1,1.1-1.1A1.106,1.106,0,0,1,174.9,154.206Z" transform="translate(-111.651 -111.651)"/>
        <path id="Trazado_1232331" data-name="Trazado 1232331" d="M17.511,32.109v-3.22a12.44,12.44,0,0,0,2.6-.489.971.971,0,0,0-.56-1.86,10.453,10.453,0,1,1,6.986-6.986.971.971,0,0,0,1.86.56,12.432,12.432,0,0,0,.489-2.6h3.22a.971.971,0,1,0,0-1.942H28.89A12.334,12.334,0,0,0,25.955,8.5l2.28-2.28a.971.971,0,0,0-1.373-1.373l-2.28,2.28A12.335,12.335,0,0,0,17.511,4.19V.971a.971.971,0,0,0-1.942,0V4.19A12.335,12.335,0,0,0,8.5,7.125L6.218,4.844A.971.971,0,0,0,4.844,6.218L7.125,8.5A12.334,12.334,0,0,0,4.19,15.569H.971a.971.971,0,1,0,0,1.942H4.19a12.335,12.335,0,0,0,2.935,7.071l-2.28,2.28a.971.971,0,0,0,1.373,1.373l2.28-2.28a12.335,12.335,0,0,0,7.071,2.935v3.218a.971.971,0,0,0,1.942,0Z" transform="translate(0 0)"/>
        <path id="Trazado_1232332" data-name="Trazado 1232332" d="M127.725,131.29a3.566,3.566,0,1,0-3.566-3.566A3.57,3.57,0,0,0,127.725,131.29Zm0-5.19a1.624,1.624,0,1,1-1.624,1.624A1.626,1.626,0,0,1,127.725,126.1Z" transform="translate(-108.083 -108.082)"/>
        <path id="Trazado_1232333" data-name="Trazado 1232333" d="M83.208,80.161a3.047,3.047,0,1,0,3.047,3.047A3.05,3.05,0,0,0,83.208,80.161Zm0,4.152a1.1,1.1,0,1,1,1.1-1.1A1.106,1.106,0,0,1,83.208,84.313Z" transform="translate(-69.782 -69.782)"/>
        <path id="Trazado_1232334" data-name="Trazado 1232334" d="M283.612,248.5a3.047,3.047,0,1,0,3.047,3.047A3.05,3.05,0,0,0,283.612,248.5Zm0,4.152a1.1,1.1,0,1,1,1.1-1.1A1.106,1.106,0,0,1,283.612,252.652Z" transform="translate(-244.238 -216.324)"/>
        <path id="Trazado_1232335" data-name="Trazado 1232335" d="M355.757,296.6a3.047,3.047,0,1,0,3.047,3.047A3.05,3.05,0,0,0,355.757,296.6Zm0,4.152a1.1,1.1,0,1,1,1.1-1.1A1.106,1.106,0,0,1,355.757,300.749Z" transform="translate(-307.042 -258.194)"/>
        <path id="Trazado_1232336" data-name="Trazado 1232336" d="M260.6,328.661a4.085,4.085,0,1,0,4.085,4.085A4.089,4.089,0,0,0,260.6,328.661Zm0,6.228a2.143,2.143,0,1,1,2.143-2.143A2.145,2.145,0,0,1,260.6,334.889Z" transform="translate(-223.303 -286.106)"/>
        <path id="Trazado_1232337" data-name="Trazado 1232337" d="M353.68,251.48a.971.971,0,0,0,.971-.971v-1.038a.971.971,0,0,0-1.942,0v1.038A.971.971,0,0,0,353.68,251.48Z" transform="translate(-307.041 -216.324)"/>
        <path id="Trazado_1232338" data-name="Trazado 1232338" d="M354.368,369.026a.971.971,0,0,0-1.373,1.373l1.038,1.038a.971.971,0,0,0,1.373-1.373Z" transform="translate(-307.042 -320.997)"/>
        <path id="Trazado_1232339" data-name="Trazado 1232339" d="M243.18,289.9l-1.038-1.038a.971.971,0,1,0-1.373,1.373l1.038,1.038a.971.971,0,0,0,1.373-1.373Z" transform="translate(-209.347 -251.215)"/>
        <path id="Trazado_1232340" data-name="Trazado 1232340" d="M337.648,40.235h1.2a5.136,5.136,0,0,0,4.058,4.058v1.2a.971.971,0,0,0,1.942,0v-1.2a5.136,5.136,0,0,0,4.058-4.058h1.2a.971.971,0,1,0,0-1.942h-1.2a5.136,5.136,0,0,0-4.058-4.058v-1.2a.971.971,0,0,0-1.942,0v1.2a5.136,5.136,0,0,0-4.058,4.058h-1.2a.971.971,0,1,0,0,1.942Zm6.228-4.152a3.181,3.181,0,1,1-3.181,3.181A3.184,3.184,0,0,1,343.876,36.083Z" transform="translate(-293.084 -27.913)"/>
        <path id="Trazado_1232341" data-name="Trazado 1232341" d="M33.323,284.717h-.184a4.1,4.1,0,0,0-3-3v-.184a.971.971,0,1,0-1.942,0v.184a4.1,4.1,0,0,0-3,3H25.02a.971.971,0,0,0,0,1.942H25.2a4.1,4.1,0,0,0,3,3v.184a.971.971,0,1,0,1.942,0v-.184a4.1,4.1,0,0,0,3-3h.184a.971.971,0,0,0,0-1.942Zm-4.152,3.114a2.143,2.143,0,1,1,2.143-2.143A2.145,2.145,0,0,1,29.172,287.83Z" transform="translate(-20.935 -244.238)"/>
      </g>
    </g>
  </g>
</svg>
