<svg xmlns="http://www.w3.org/2000/svg" xmlns:xlink="http://www.w3.org/1999/xlink" width="113" height="113" viewBox="0 0 113 113">
  <defs>
    <filter id="Trazado_982547" x="0" y="0.001" width="113" height="113" filterUnits="userSpaceOnUse">
      <feOffset dy="3" input="SourceAlpha"/>
      <feGaussianBlur stdDeviation="3" result="blur"/>
      <feFlood flood-opacity="0.161"/>
      <feComposite operator="in" in2="blur"/>
      <feComposite in="SourceGraphic"/>
    </filter>
  </defs>
  <g id="Grupo_1234642" data-name="Grupo 1234642" transform="translate(-271.424 -9982.845)">
    <g id="Grupo_1231178" data-name="Grupo 1231178" transform="translate(0 4365)">
      <g id="Grupo_1230686" data-name="Grupo 1230686" transform="translate(0 -2146.377)">
        <g id="Grupo_1229014" data-name="Grupo 1229014" transform="translate(0 2131.042)">
          <g id="Grupo_1227502" data-name="Grupo 1227502" transform="translate(0 2048.198)">
            <g id="Grupo_1225350" data-name="Grupo 1225350" transform="translate(-0.575 -393.641)">
              <g id="Grupo_1208121" data-name="Grupo 1208121" transform="translate(0 -1922.377)">
                <g id="Grupo_1202432" data-name="Grupo 1202432" transform="translate(0 1255.486)">
                  <g id="Grupo_1202055" data-name="Grupo 1202055" transform="translate(0 3240.511)">
                    <g id="Grupo_1177900" data-name="Grupo 1177900" transform="translate(281 1411.003)">
                      <g id="Grupo_1172010" data-name="Grupo 1172010" transform="translate(0)">
                        <g id="Grupo_1171046" data-name="Grupo 1171046">
                          <g id="Grupo_1148525" data-name="Grupo 1148525">
                            <g transform="matrix(1, 0, 0, 1, -9, -6)" filter="url(#Trazado_982547)">
                              <g id="Trazado_982547-2" data-name="Trazado 982547" transform="translate(9 6)" fill="#d6ccfe">
                                <path d="M 47.5 93.5 C 41.28937149047852 93.5 35.26533508300781 92.28397369384766 29.59518623352051 89.88570404052734 C 24.11771965026855 87.56893157958984 19.19813346862793 84.25196075439453 14.97309303283691 80.02691650390625 C 10.74804019927979 75.80186462402344 7.431066513061523 70.88229370117188 5.114293098449707 65.40481567382812 C 2.716026782989502 59.73468017578125 1.5 53.71062850952148 1.5 47.5 C 1.5 41.28937149047852 2.716026782989502 35.26533508300781 5.114293098449707 29.59518623352051 C 7.431066513061523 24.11771965026855 10.74804019927979 19.19813346862793 14.97309303283691 14.97309303283691 C 19.19813346862793 10.74804019927979 24.11771965026855 7.431066513061523 29.59518623352051 5.114293098449707 C 35.26533508300781 2.716026782989502 41.28937149047852 1.5 47.5 1.5 C 53.71062850952148 1.5 59.73468017578125 2.716026782989502 65.40481567382812 5.114293098449707 C 70.88229370117188 7.431066513061523 75.80186462402344 10.74804019927979 80.02691650390625 14.97309303283691 C 84.25196075439453 19.19813346862793 87.56893157958984 24.11771965026855 89.88570404052734 29.59518623352051 C 92.28397369384766 35.26533508300781 93.5 41.28937149047852 93.5 47.5 C 93.5 53.71062850952148 92.28397369384766 59.73468017578125 89.88570404052734 65.40481567382812 C 87.56893157958984 70.88229370117188 84.25196075439453 75.80186462402344 80.02691650390625 80.02691650390625 C 75.80186462402344 84.25196075439453 70.88229370117188 87.56893157958984 65.40481567382812 89.88570404052734 C 59.73468017578125 92.28397369384766 53.71062850952148 93.5 47.5 93.5 Z" stroke="none"/>
                                <path d="M 47.5 3 C 41.49121475219727 3 35.66376876831055 4.176155090332031 30.17950439453125 6.495796203613281 C 24.88084411621094 8.736953735351562 20.12152099609375 11.94598388671875 16.03375244140625 16.03375244140625 C 11.94598388671875 20.12152099609375 8.736953735351562 24.88084411621094 6.495796203613281 30.17950439453125 C 4.176155090332031 35.66376876831055 3 41.49121475219727 3 47.5 C 3 53.50878524780273 4.176155090332031 59.33623123168945 6.495796203613281 64.82049560546875 C 8.736953735351562 70.11915588378906 11.94598388671875 74.87847900390625 16.03375244140625 78.96624755859375 C 20.12152099609375 83.05401611328125 24.88084411621094 86.26304626464844 30.17950439453125 88.50419616699219 C 35.66376876831055 90.82384490966797 41.49121475219727 92 47.5 92 C 53.50878524780273 92 59.33623123168945 90.82384490966797 64.82049560546875 88.50419616699219 C 70.11915588378906 86.26304626464844 74.87847900390625 83.05401611328125 78.96624755859375 78.96624755859375 C 83.05401611328125 74.87847900390625 86.26304626464844 70.11915588378906 88.50419616699219 64.82049560546875 C 90.82384490966797 59.33623123168945 92 53.50878524780273 92 47.5 C 92 41.49121475219727 90.82384490966797 35.66376876831055 88.50419616699219 30.17950439453125 C 86.26304626464844 24.88084411621094 83.05401611328125 20.12152099609375 78.96624755859375 16.03375244140625 C 74.87847900390625 11.94598388671875 70.11915588378906 8.736953735351562 64.82049560546875 6.495796203613281 C 59.33623123168945 4.176155090332031 53.50878524780273 3 47.5 3 M 47.5 0 C 73.7335205078125 0 95 21.2664794921875 95 47.5 C 95 73.7335205078125 73.7335205078125 95 47.5 95 C 21.2664794921875 95 0 73.7335205078125 0 47.5 C 0 21.2664794921875 21.2664794921875 0 47.5 0 Z" stroke="none" fill="#7958fb"/>
                              </g>
                            </g>
                          </g>
                        </g>
                      </g>
                    </g>
                  </g>
                </g>
              </g>
            </g>
          </g>
        </g>
      </g>
    </g>
    <g id="parasito" transform="translate(294.528 10002.955)">
      <path id="Trazado_1232377" data-name="Trazado 1232377" d="M74.267,42.082A32.086,32.086,0,1,1,42.18,10,32.086,32.086,0,0,1,74.267,42.082Zm0,0" transform="translate(-8.778 -8.692)" fill="#c9f3ff"/>
      <g id="Grupo_1234641" data-name="Grupo 1234641" transform="translate(6.568 5.783)">
        <path id="Trazado_1232378" data-name="Trazado 1232378" d="M329.054,196.829a14.034,14.034,0,0,1-14.018,14.018,4.626,4.626,0,0,1,0-9.252,4.772,4.772,0,0,0,4.766-4.766,4.626,4.626,0,0,1,9.252,0Zm0,0" transform="translate(-276.484 -172.911)" fill="#36d28f"/>
        <path id="Trazado_1232379" data-name="Trazado 1232379" d="M219.548,186.522a3.478,3.478,0,0,1-4.918,0,27.046,27.046,0,0,1,0-38.268,3.478,3.478,0,1,1,4.918,4.918,20.127,20.127,0,0,0,0,28.432,3.477,3.477,0,0,1,0,4.918Zm0,0" transform="translate(-186.302 -133.81)" fill="#36d28f"/>
        <path id="Trazado_1232380" data-name="Trazado 1232380" d="M133.844,50.009a3.31,3.31,0,0,1-1.619.891c-8.574,1.931-12.842,10.608-12.884,10.695a3.328,3.328,0,1,1-6-2.888c.229-.475,5.741-11.67,17.417-14.3a3.328,3.328,0,0,1,3.082,5.6Zm0,0" transform="translate(-104.84 -44.325)" fill="#36d28f"/>
        <path id="Trazado_1232381" data-name="Trazado 1232381" d="M65.58,242.358a10.09,10.09,0,0,1-14.254,0,3.326,3.326,0,1,1,4.7-4.7,3.431,3.431,0,0,0,4.846,0,3.326,3.326,0,0,1,4.7,4.7Zm0,0" transform="translate(-50.352 -211.586)" fill="#36d28f"/>
      </g>
      <path id="Trazado_1232382" data-name="Trazado 1232382" d="M205.012,138.655a28.35,28.35,0,0,0,0,40.112A4.782,4.782,0,0,0,211.775,172a18.822,18.822,0,0,1,0-26.587,4.782,4.782,0,0,0-6.763-6.763Zm4.918,4.918a21.3,21.3,0,0,0-5.018,7.905,1.3,1.3,0,0,0-.275-.409,1.305,1.305,0,1,0-.229,2.025,21.693,21.693,0,0,0,.228,12.017l-.01-.012a1.3,1.3,0,1,0,0,1.844,1.3,1.3,0,0,0,.372-.771,21.3,21.3,0,0,0,4.932,7.676,2.173,2.173,0,0,1-3.073,3.073,25.58,25.58,0,0,1-7.54-17.53,1.284,1.284,0,0,0,.277.41,1.3,1.3,0,1,0,0-1.844,1.286,1.286,0,0,0-.282.421,25.584,25.584,0,0,1,7.545-17.881,2.173,2.173,0,0,1,3.073,3.073Zm0,0" transform="translate(-171.039 -119.351)"/>
      <path id="Trazado_1232383" data-name="Trazado 1232383" d="M121.788,34.441c-12.285,2.767-18.066,14.508-18.306,15.006a4.632,4.632,0,0,0,8.344,4.024c.04-.082,4.105-8.215,12-9.993a4.622,4.622,0,0,0,2.255-1.241h0a4.632,4.632,0,0,0-4.291-7.8Zm2.447,5.952a2.018,2.018,0,0,1-.984.541,18.45,18.45,0,0,0-7.8,3.986,1.273,1.273,0,0,0,.029-.268,1.3,1.3,0,1,0-1.3,1.3,1.245,1.245,0,0,0,.131-.007,25.323,25.323,0,0,0-4.827,6.386,2.023,2.023,0,1,1-3.646-1.756,21.206,21.206,0,0,1,1.115-1.958,1.3,1.3,0,1,0,1.294-1.454,1.293,1.293,0,0,0-.351.05,26.279,26.279,0,0,1,11.289-9.241,1.291,1.291,0,0,0-.083.45,1.3,1.3,0,1,0,2.226-.922,1.27,1.27,0,0,0-.238-.186c.417-.122.842-.234,1.277-.332a2.024,2.024,0,0,1,1.873,3.407Zm0,0" transform="translate(-89.584 -29.849)"/>
      <path id="Trazado_1232384" data-name="Trazado 1232384" d="M41.726,228.052a4.636,4.636,0,0,0,0,6.548,11.395,11.395,0,0,0,16.1,0,4.63,4.63,0,0,0-6.548-6.548,2.126,2.126,0,0,1-3,0A4.635,4.635,0,0,0,41.726,228.052ZM53.12,229.9a2.022,2.022,0,1,1,2.859,2.859,8.786,8.786,0,0,1-12.409,0A2.022,2.022,0,0,1,46.43,229.9a4.734,4.734,0,0,0,6.69,0Zm0,0" transform="translate(-35.105 -197.124)"/>
      <path id="Trazado_1232385" data-name="Trazado 1232385" d="M73.439,74.185a1.3,1.3,0,0,0,.923-.383l.068-.068a1.3,1.3,0,0,0-1.845-1.845l-.071.071a1.3,1.3,0,0,0,.924,2.225Zm0,0" transform="translate(-62.724 -62.178)"/>
      <path id="Trazado_1232386" data-name="Trazado 1232386" d="M57.013,9.78a33.4,33.4,0,0,0-43.2-3.433,1.3,1.3,0,1,0,1.533,2.111,30.78,30.78,0,1,1-7.308,7.488,1.3,1.3,0,0,0-2.148-1.48A33.394,33.394,0,1,0,57.013,9.78Zm0,0"/>
      <path id="Trazado_1232387" data-name="Trazado 1232387" d="M139.226,258.73a1.3,1.3,0,1,0-.922-.382A1.309,1.309,0,0,0,139.226,258.73Zm0,0" transform="translate(-119.93 -222.708)"/>
      <path id="Trazado_1232388" data-name="Trazado 1232388" d="M70.635,257.644a1.305,1.305,0,1,0,.923-.382A1.312,1.312,0,0,0,70.635,257.644Zm0,0" transform="translate(-61.089 -223.7)"/>
      <path id="Trazado_1232389" data-name="Trazado 1232389" d="M256.92,402.754a1.3,1.3,0,1,0-.922-.382A1.317,1.317,0,0,0,256.92,402.754Zm0,0" transform="translate(-222.27 -347.943)"/>
      <path id="Trazado_1232390" data-name="Trazado 1232390" d="M149.449,335.16a1.3,1.3,0,1,0-.382.922A1.312,1.312,0,0,0,149.449,335.16Zm0,0" transform="translate(-127.684 -290.301)"/>
      <path id="Trazado_1232391" data-name="Trazado 1232391" d="M69.615,325.2a1.305,1.305,0,1,0,.922-.382A1.312,1.312,0,0,0,69.615,325.2Zm0,0" transform="translate(-60.203 -282.445)"/>
      <path id="Trazado_1232392" data-name="Trazado 1232392" d="M157.542,414.429a1.3,1.3,0,1,0-.923-.382A1.316,1.316,0,0,0,157.542,414.429Zm0,0" transform="translate(-135.856 -358.095)"/>
      <path id="Trazado_1232393" data-name="Trazado 1232393" d="M350.735,77.855a1.3,1.3,0,1,0,.922.382A1.313,1.313,0,0,0,350.735,77.855Zm0,0" transform="translate(-303.845 -67.699)"/>
      <path id="Trazado_1232394" data-name="Trazado 1232394" d="M358.16,152.118a1.3,1.3,0,1,0,.382-.924A1.307,1.307,0,0,0,358.16,152.118Zm0,0" transform="translate(-311.436 -131.138)"/>
      <path id="Trazado_1232395" data-name="Trazado 1232395" d="M346.414,423.479a1.3,1.3,0,1,0,.922-.382A1.315,1.315,0,0,0,346.414,423.479Zm0,0" transform="translate(-300.89 -367.901)"/>
      <path id="Trazado_1232396" data-name="Trazado 1232396" d="M418.23,343.187a1.3,1.3,0,1,0,.922-.382A1.316,1.316,0,0,0,418.23,343.187Zm0,0" transform="translate(-363.337 -298.083)"/>
      <path id="Trazado_1232397" data-name="Trazado 1232397" d="M337.484,286.379a1.3,1.3,0,1,0,.382-.922A1.314,1.314,0,0,0,337.484,286.379Zm0,0" transform="translate(-293.458 -247.884)"/>
      <path id="Trazado_1232398" data-name="Trazado 1232398" d="M390.538,273.636a1.3,1.3,0,1,0-.922-.382A1.312,1.312,0,0,0,390.538,273.636Zm0,0" transform="translate(-338.456 -235.67)"/>
      <path id="Trazado_1232399" data-name="Trazado 1232399" d="M409.964,222.168a1.3,1.3,0,1,0-.923-.382A1.317,1.317,0,0,0,409.964,222.168Zm0,0" transform="translate(-355.348 -190.916)"/>
      <path id="Trazado_1232400" data-name="Trazado 1232400" d="M257.753,177.586a1.3,1.3,0,1,0,.922.382A1.316,1.316,0,0,0,257.753,177.586Zm0,0" transform="translate(-222.994 -154.419)"/>
      <path id="Trazado_1232401" data-name="Trazado 1232401" d="M300.41,197.525a5.937,5.937,0,0,0,5.93,5.93,15.34,15.34,0,0,0,15.322-15.322,5.93,5.93,0,0,0-11.861,0,3.465,3.465,0,0,1-3.462,3.462A5.937,5.937,0,0,0,300.41,197.525Zm12-9.392a3.322,3.322,0,0,1,6.644,0,12.728,12.728,0,0,1-12.714,12.713,3.322,3.322,0,0,1,0-6.643A6.077,6.077,0,0,0,312.41,188.133Zm0,0" transform="translate(-261.22 -158.433)"/>
    </g>
  </g>
</svg>
