<svg xmlns="http://www.w3.org/2000/svg" xmlns:xlink="http://www.w3.org/1999/xlink" width="113" height="113" viewBox="0 0 113 113">
  <defs>
    <filter id="Trazado_982547" x="0" y="0.001" width="113" height="113" filterUnits="userSpaceOnUse">
      <feOffset dy="3" input="SourceAlpha"/>
      <feGaussianBlur stdDeviation="3" result="blur"/>
      <feFlood flood-opacity="0.161"/>
      <feComposite operator="in" in2="blur"/>
      <feComposite in="SourceGraphic"/>
    </filter>
  </defs>
  <g id="Grupo_1234649" data-name="Grupo 1234649" transform="translate(-901 -9983.132)">
    <g id="Grupo_1231168" data-name="Grupo 1231168" transform="translate(0 4365)">
      <g id="Grupo_1230688" data-name="Grupo 1230688" transform="translate(0 -2146.377)">
        <g id="Grupo_1229016" data-name="Grupo 1229016" transform="translate(0.575 2131.042)">
          <g id="Grupo_1227504" data-name="Grupo 1227504" transform="translate(0 2048.198)">
            <g id="Grupo_1225352" data-name="Grupo 1225352" transform="translate(-0.575 -393.641)">
              <g id="Grupo_1208123" data-name="Grupo 1208123" transform="translate(0 -1922.377)">
                <g id="Grupo_1202434" data-name="Grupo 1202434" transform="translate(-0.56 1255.773)">
                  <g id="Grupo_1202053" data-name="Grupo 1202053" transform="translate(0 3240.511)">
                    <g id="Grupo_1177898" data-name="Grupo 1177898" transform="translate(910.561 1411.003)">
                      <g id="Grupo_1172010" data-name="Grupo 1172010" transform="translate(0)">
                        <g id="Grupo_1171046" data-name="Grupo 1171046">
                          <g id="Grupo_1148525" data-name="Grupo 1148525">
                            <g transform="matrix(1, 0, 0, 1, -9, -6)" filter="url(#Trazado_982547)">
                              <g id="Trazado_982547-2" data-name="Trazado 982547" transform="translate(9 6)" fill="#d6ccfe">
                                <path d="M 47.5 93.5 C 41.28937149047852 93.5 35.26533508300781 92.28397369384766 29.59518623352051 89.88570404052734 C 24.11771965026855 87.56893157958984 19.19813346862793 84.25196075439453 14.97309303283691 80.02691650390625 C 10.74804019927979 75.80186462402344 7.431066513061523 70.88229370117188 5.114293098449707 65.40481567382812 C 2.716026782989502 59.73468017578125 1.5 53.71062850952148 1.5 47.5 C 1.5 41.28937149047852 2.716026782989502 35.26533508300781 5.114293098449707 29.59518623352051 C 7.431066513061523 24.11771965026855 10.74804019927979 19.19813346862793 14.97309303283691 14.97309303283691 C 19.19813346862793 10.74804019927979 24.11771965026855 7.431066513061523 29.59518623352051 5.114293098449707 C 35.26533508300781 2.716026782989502 41.28937149047852 1.5 47.5 1.5 C 53.71062850952148 1.5 59.73468017578125 2.716026782989502 65.40481567382812 5.114293098449707 C 70.88229370117188 7.431066513061523 75.80186462402344 10.74804019927979 80.02691650390625 14.97309303283691 C 84.25196075439453 19.19813346862793 87.56893157958984 24.11771965026855 89.88570404052734 29.59518623352051 C 92.28397369384766 35.26533508300781 93.5 41.28937149047852 93.5 47.5 C 93.5 53.71062850952148 92.28397369384766 59.73468017578125 89.88570404052734 65.40481567382812 C 87.56893157958984 70.88229370117188 84.25196075439453 75.80186462402344 80.02691650390625 80.02691650390625 C 75.80186462402344 84.25196075439453 70.88229370117188 87.56893157958984 65.40481567382812 89.88570404052734 C 59.73468017578125 92.28397369384766 53.71062850952148 93.5 47.5 93.5 Z" stroke="none"/>
                                <path d="M 47.5 3 C 41.49121475219727 3 35.66376876831055 4.176155090332031 30.17950439453125 6.495796203613281 C 24.88084411621094 8.736953735351562 20.12152099609375 11.94598388671875 16.03375244140625 16.03375244140625 C 11.94598388671875 20.12152099609375 8.736953735351562 24.88084411621094 6.495796203613281 30.17950439453125 C 4.176155090332031 35.66376876831055 3 41.49121475219727 3 47.5 C 3 53.50878524780273 4.176155090332031 59.33623123168945 6.495796203613281 64.82049560546875 C 8.736953735351562 70.11915588378906 11.94598388671875 74.87847900390625 16.03375244140625 78.96624755859375 C 20.12152099609375 83.05401611328125 24.88084411621094 86.26304626464844 30.17950439453125 88.50419616699219 C 35.66376876831055 90.82384490966797 41.49121475219727 92 47.5 92 C 53.50878524780273 92 59.33623123168945 90.82384490966797 64.82049560546875 88.50419616699219 C 70.11915588378906 86.26304626464844 74.87847900390625 83.05401611328125 78.96624755859375 78.96624755859375 C 83.05401611328125 74.87847900390625 86.26304626464844 70.11915588378906 88.50419616699219 64.82049560546875 C 90.82384490966797 59.33623123168945 92 53.50878524780273 92 47.5 C 92 41.49121475219727 90.82384490966797 35.66376876831055 88.50419616699219 30.17950439453125 C 86.26304626464844 24.88084411621094 83.05401611328125 20.12152099609375 78.96624755859375 16.03375244140625 C 74.87847900390625 11.94598388671875 70.11915588378906 8.736953735351562 64.82049560546875 6.495796203613281 C 59.33623123168945 4.176155090332031 53.50878524780273 3 47.5 3 M 47.5 0 C 73.7335205078125 0 95 21.2664794921875 95 47.5 C 95 73.7335205078125 73.7335205078125 95 47.5 95 C 21.2664794921875 95 0 73.7335205078125 0 47.5 C 0 21.2664794921875 21.2664794921875 0 47.5 0 Z" stroke="none" fill="#7958fb"/>
                              </g>
                            </g>
                          </g>
                        </g>
                      </g>
                    </g>
                  </g>
                </g>
              </g>
            </g>
          </g>
        </g>
      </g>
    </g>
    <g id="enfermedades" transform="translate(923.448 10002.426)">
      <path id="Trazado_1232419" data-name="Trazado 1232419" d="M65.971,45.581a4.265,4.265,0,0,1-8.5.522l-5.779-2.442a20.389,20.389,0,0,1-4.585,5.6l.416.6c.107-.011.213-.011.32-.011a4.265,4.265,0,1,1-4.265,4.265,4.1,4.1,0,0,1,.426-1.834l-.405-.6a20.209,20.209,0,0,1-9.617,2.431c-.405,0-.8-.032-1.2-.064l-.352,2.1a4.267,4.267,0,1,1-4.211-.693l.352-2.1a20.157,20.157,0,0,1-7.314-3.764L19.976,50.87a4.217,4.217,0,0,1,.149,1.109,4.265,4.265,0,1,1-4.265-4.265,4.217,4.217,0,0,1,1.109.149l1.279-1.279a20.065,20.065,0,0,1-3.966-8.114l-1.962.245a4.264,4.264,0,1,1-.522-4.233l1.951-.245c0-.128-.021-.256-.021-.384a20.076,20.076,0,0,1,1.311-7.09L8.61,23.554a4.219,4.219,0,0,1-2.346.7,4.265,4.265,0,1,1,4.254-4.521l6.418,3.209a20.546,20.546,0,0,1,5.075-5.395L19.08,12.529h-.021a4.265,4.265,0,1,1,4.265-4.265,4.2,4.2,0,0,1-.565,2.111L25.691,15.4a19.942,19.942,0,0,1,8.295-1.8c.128,0,.256.021.384.021l.245-1.951a4.265,4.265,0,1,1,4.233.522L38.6,14.15a20.259,20.259,0,0,1,7.207,3.284l2.25-2.516a4.189,4.189,0,0,1-.213-1.322,4.265,4.265,0,1,1,4.265,4.265,4.675,4.675,0,0,1-.874-.085l-2.25,2.516a20.252,20.252,0,0,1,4.073,6.792l3.5-.832a4.262,4.262,0,1,1,.992,4.137l-3.5.842a19.345,19.345,0,0,1,.192,2.623,20.259,20.259,0,0,1-.874,5.885l5.768,2.442a4.262,4.262,0,0,1,6.834,3.4Z" transform="translate(0.066 0.066)" fill="#52a04f"/>
      <path id="Trazado_1232420" data-name="Trazado 1232420" d="M60.714,41.317a4.237,4.237,0,0,0-2.57.864l-5.768-2.442a20.259,20.259,0,0,0,.874-5.885,19.345,19.345,0,0,0-.192-2.623l3.5-.842a4.266,4.266,0,1,0-.992-4.137l-3.5.832a20.252,20.252,0,0,0-4.073-6.792l2.25-2.516a4.675,4.675,0,0,0,.874.085A4.265,4.265,0,1,0,46.853,13.6a4.188,4.188,0,0,0,.213,1.322l-2.25,2.516a20.259,20.259,0,0,0-7.207-3.284l.245-1.962a4.264,4.264,0,1,0-4.233-.522l-.245,1.951c-.128,0-.256-.021-.384-.021a19.9,19.9,0,0,0-6.858,1.22A20.236,20.236,0,0,0,46.458,49.749l-.34-.489a20.389,20.389,0,0,0,4.585-5.6L56.481,46.1a4.265,4.265,0,1,0,4.233-4.787Z" transform="translate(1.059 0.066)" fill="#5bb162"/>
      <ellipse id="Elipse_14662" data-name="Elipse 14662" cx="5" cy="5.5" rx="5" ry="5.5" transform="translate(27 19)" fill="#add0a0"/>
      <ellipse id="Elipse_14663" data-name="Elipse 14663" cx="3.5" cy="3" rx="3.5" ry="3" transform="translate(36 34)" fill="#add0a0"/>
      <ellipse id="Elipse_14664" data-name="Elipse 14664" cx="2.5" cy="2" rx="2.5" ry="2" transform="translate(24 35)" fill="#add0a0"/>
      <g id="Grupo_1234648" data-name="Grupo 1234648" transform="translate(16.993 24.324)">
        <path id="Trazado_1232421" data-name="Trazado 1232421" d="M32,42h2.132v2.132H32Z" transform="translate(-14.941 -21.742)" fill="#43525b"/>
        <path id="Trazado_1232422" data-name="Trazado 1232422" d="M30,44h2.132v2.132H30Z" transform="translate(-15.073 -21.61)" fill="#43525b"/>
        <path id="Trazado_1232423" data-name="Trazado 1232423" d="M34,44h2.132v2.132H34Z" transform="translate(-14.809 -21.61)" fill="#43525b"/>
        <path id="Trazado_1232424" data-name="Trazado 1232424" d="M32,46h2.132v2.132H32Z" transform="translate(-14.941 -21.478)" fill="#43525b"/>
        <path id="Trazado_1232425" data-name="Trazado 1232425" d="M43,23h2.132v2.132H43Z" transform="translate(-14.213 -23)" fill="#43525b"/>
        <path id="Trazado_1232426" data-name="Trazado 1232426" d="M41,25h2.132v2.132H41Z" transform="translate(-14.345 -22.868)" fill="#43525b"/>
        <path id="Trazado_1232427" data-name="Trazado 1232427" d="M45,25h2.132v2.132H45Z" transform="translate(-14.081 -22.868)" fill="#43525b"/>
        <path id="Trazado_1232428" data-name="Trazado 1232428" d="M43,27h2.132v2.132H43Z" transform="translate(-14.213 -22.735)" fill="#43525b"/>
        <path id="Trazado_1232429" data-name="Trazado 1232429" d="M18,26h2.132v2.132H18Z" transform="translate(-15.868 -22.801)" fill="#43525b"/>
        <path id="Trazado_1232430" data-name="Trazado 1232430" d="M16,28h2.132v2.132H16Z" transform="translate(-16 -22.669)" fill="#43525b"/>
        <path id="Trazado_1232431" data-name="Trazado 1232431" d="M20,28h2.132v2.132H20Z" transform="translate(-15.735 -22.669)" fill="#43525b"/>
        <path id="Trazado_1232432" data-name="Trazado 1232432" d="M18,30h2.132v2.132H18Z" transform="translate(-15.868 -22.537)" fill="#43525b"/>
      </g>
      <path id="Trazado_1232433" data-name="Trazado 1232433" d="M6.331,25.39a5.3,5.3,0,0,0,2.382-.56l5.074,2.533a21.055,21.055,0,0,0-1.052,6l-.433.053a5.273,5.273,0,0,0-3.838-1.631,5.331,5.331,0,1,0,4.622,7.98l.464-.058A20.942,20.942,0,0,0,16.9,46.56l-.209.208a5.488,5.488,0,0,0-.76-.054,5.337,5.337,0,1,0,5.275,4.57l.21-.21a21.006,21.006,0,0,0,6.018,3.1l-.1.612a5.33,5.33,0,1,0,6.314,1.046l.1-.59a20.793,20.793,0,0,0,8.894-1.8,5.188,5.188,0,0,0-.053.74,5.331,5.331,0,1,0,6.535-5.193,21.29,21.29,0,0,0,3.092-3.909L56.6,46.929a5.335,5.335,0,1,0,2.495-5.887l-4.378-1.853a21.3,21.3,0,0,0,.662-5.269c0-.579-.03-1.177-.09-1.807l2.021-.487a5.262,5.262,0,0,0,3.4,1.228,5.331,5.331,0,1,0-4.891-7.44l-2.028.483a21.165,21.165,0,0,0-3.314-5.528l1.246-1.395a5.331,5.331,0,1,0-4.875-5.312,5.19,5.19,0,0,0,.1,1.038l-1.243,1.39a21.188,21.188,0,0,0-5.864-2.672l.059-.466a5.328,5.328,0,1,0-6.35-.784L33.5,12.6a20.894,20.894,0,0,0-7.295,1.51L24.035,10.4a5.2,5.2,0,0,0,.421-2.071,5.331,5.331,0,1,0-5.943,5.294l2.172,3.72a21.508,21.508,0,0,0-4.04,4.3l-5.071-2.535A5.33,5.33,0,1,0,6.331,25.39Zm0-8.529a3.193,3.193,0,0,1,3.19,3,1.068,1.068,0,0,0,.587.892l6.418,3.209a1.068,1.068,0,0,0,1.372-.374,19.409,19.409,0,0,1,4.812-5.116,1.067,1.067,0,0,0,.29-1.4l-2.932-5.022a1.11,1.11,0,0,0-.944-.527,3.2,3.2,0,1,1,3.2-3.2A3.12,3.12,0,0,1,21.9,9.909a1.07,1.07,0,0,0,0,1.07L24.836,16a1.068,1.068,0,0,0,1.363.433,18.805,18.805,0,0,1,7.906-1.7h.051c.094.007.187.015.28.015a1.066,1.066,0,0,0,1.058-.933l.245-1.951a1.063,1.063,0,0,0-.417-.984,3.167,3.167,0,0,1-1.27-2.55A3.2,3.2,0,1,1,38.5,11.273a1.065,1.065,0,0,0-.642.85l-.245,1.962a1.068,1.068,0,0,0,.815,1.171,19.083,19.083,0,0,1,6.828,3.111,1.066,1.066,0,0,0,1.418-.155l2.25-2.516a1.068,1.068,0,0,0,.216-1.048,3.1,3.1,0,0,1-.159-.985A3.2,3.2,0,1,1,51.5,16.794a1.063,1.063,0,0,0-1,.336l-2.25,2.516a1.066,1.066,0,0,0,.005,1.427,19.07,19.07,0,0,1,3.859,6.434,1.065,1.065,0,0,0,1.251.678l3.5-.832a1.064,1.064,0,0,0,.777-.741,3.2,3.2,0,1,1,.741,3.108,1.068,1.068,0,0,0-1.024-.3l-3.5.842a1.065,1.065,0,0,0-.806,1.18,18.455,18.455,0,0,1,.181,2.479,19.2,19.2,0,0,1-.828,5.575,1.067,1.067,0,0,0,.6,1.291l5.768,2.442a1.068,1.068,0,0,0,1.061-.133,3.2,3.2,0,1,1-1.25,2.948,1.066,1.066,0,0,0-.644-.854l-5.779-2.442a1.068,1.068,0,0,0-1.348.465,19.292,19.292,0,0,1-4.346,5.305,1.067,1.067,0,0,0-.181,1.42l.416.6a1.065,1.065,0,0,0,.979.451,1.835,1.835,0,0,1,.216-.006,3.2,3.2,0,1,1-3.2,3.2,3.05,3.05,0,0,1,.313-1.356,1.065,1.065,0,0,0-.071-1.075l-.405-.6a1.064,1.064,0,0,0-1.388-.34,19.263,19.263,0,0,1-9.111,2.3c-.356,0-.7-.028-1.123-.061a1.079,1.079,0,0,0-1.133.887l-.352,2.1a1.065,1.065,0,0,0,.37,1,3.2,3.2,0,1,1-3.156-.515,1.067,1.067,0,0,0,.677-.822l.352-2.1a1.067,1.067,0,0,0-.768-1.2,18.983,18.983,0,0,1-6.927-3.565,1.065,1.065,0,0,0-1.424.075l-1.279,1.279a1.063,1.063,0,0,0-.274,1.035,3.171,3.171,0,0,1,.111.828,3.206,3.206,0,1,1-2.37-3.088,1.064,1.064,0,0,0,1.034-.275L19.069,47.4a1.067,1.067,0,0,0,.074-1.427,18.884,18.884,0,0,1-3.755-7.684,1.071,1.071,0,0,0-1.171-.816l-1.961.244a1.064,1.064,0,0,0-.85.642,3.2,3.2,0,1,1-.393-3.174,1.073,1.073,0,0,0,.984.417l1.951-.244a1.067,1.067,0,0,0,.933-1.059c0-.093-.006-.187-.021-.384A18.981,18.981,0,0,1,16.1,27.206a1.065,1.065,0,0,0-.521-1.33L9.152,22.667a1.066,1.066,0,0,0-1.067.066,3.149,3.149,0,0,1-1.754.525,3.2,3.2,0,1,1,0-6.4Z" transform="translate(0)"/>
      <path id="Trazado_1232434" data-name="Trazado 1232434" d="M30.4,29.794A6.4,6.4,0,1,0,24,23.4,6.4,6.4,0,0,0,30.4,29.794Zm0-10.662A4.265,4.265,0,1,1,26.132,23.4,4.269,4.269,0,0,1,30.4,19.132Z" transform="translate(1.522 0.927)"/>
      <path id="Trazado_1232435" data-name="Trazado 1232435" d="M33,35.265A4.265,4.265,0,1,0,37.265,31,4.269,4.269,0,0,0,33,35.265Zm4.265-2.132a2.132,2.132,0,1,1-2.132,2.132A2.135,2.135,0,0,1,37.265,33.132Z" transform="translate(2.118 1.853)"/>
      <path id="Trazado_1232436" data-name="Trazado 1232436" d="M25.2,38.4A3.2,3.2,0,1,0,22,35.2,3.2,3.2,0,0,0,25.2,38.4Zm0-4.265A1.066,1.066,0,1,1,24.132,35.2,1.067,1.067,0,0,1,25.2,34.132Z" transform="translate(1.39 1.919)"/>
      <path id="Trazado_1232437" data-name="Trazado 1232437" d="M32,42h2.132v2.132H32Z" transform="translate(2.052 2.581)"/>
      <path id="Trazado_1232438" data-name="Trazado 1232438" d="M30,44h2.132v2.132H30Z" transform="translate(1.919 2.714)"/>
      <path id="Trazado_1232439" data-name="Trazado 1232439" d="M34,44h2.132v2.132H34Z" transform="translate(2.184 2.714)"/>
      <path id="Trazado_1232440" data-name="Trazado 1232440" d="M32,46h2.132v2.132H32Z" transform="translate(2.052 2.846)"/>
      <path id="Trazado_1232441" data-name="Trazado 1232441" d="M43,23h2.132v2.132H43Z" transform="translate(2.78 1.324)"/>
      <path id="Trazado_1232442" data-name="Trazado 1232442" d="M41,25h2.132v2.132H41Z" transform="translate(2.647 1.456)"/>
      <path id="Trazado_1232443" data-name="Trazado 1232443" d="M45,25h2.132v2.132H45Z" transform="translate(2.912 1.456)"/>
      <path id="Trazado_1232444" data-name="Trazado 1232444" d="M43,27h2.132v2.132H43Z" transform="translate(2.78 1.588)"/>
      <path id="Trazado_1232445" data-name="Trazado 1232445" d="M18,26h2.132v2.132H18Z" transform="translate(1.125 1.522)"/>
      <path id="Trazado_1232446" data-name="Trazado 1232446" d="M16,28h2.132v2.132H16Z" transform="translate(0.993 1.655)"/>
      <path id="Trazado_1232447" data-name="Trazado 1232447" d="M20,28h2.132v2.132H20Z" transform="translate(1.258 1.655)"/>
      <path id="Trazado_1232448" data-name="Trazado 1232448" d="M18,30h2.132v2.132H18Z" transform="translate(1.125 1.787)"/>
    </g>
  </g>
</svg>
