<svg xmlns="http://www.w3.org/2000/svg" xmlns:xlink="http://www.w3.org/1999/xlink" width="103" height="103" viewBox="0 0 103 103">
  <defs>
    <filter id="Trazado_978624" x="0" y="0" width="103" height="103" filterUnits="userSpaceOnUse">
      <feOffset dy="3" input="SourceAlpha"/>
      <feGaussianBlur stdDeviation="3" result="blur"/>
      <feFlood flood-opacity="0.161"/>
      <feComposite operator="in" in2="blur"/>
      <feComposite in="SourceGraphic"/>
    </filter>
  </defs>
  <g id="Grupo_1232890" data-name="Grupo 1232890" transform="translate(-720 -3694)">
    <g id="Grupo_1231816" data-name="Grupo 1231816" transform="translate(526.438 1806)">
      <g id="Grupo_1220583" data-name="Grupo 1220583" transform="translate(202.563 1894)">
        <g id="Grupo_1218068" data-name="Grupo 1218068">
          <g id="Grupo_1213565" data-name="Grupo 1213565">
            <g id="Grupo_1210098" data-name="Grupo 1210098">
              <g id="Grupo_1178144" data-name="Grupo 1178144">
                <g id="Grupo_1177896" data-name="Grupo 1177896">
                  <g id="Grupo_1176881" data-name="Grupo 1176881">
                    <g id="Grupo_1175148" data-name="Grupo 1175148">
                      <g id="Grupo_1173798" data-name="Grupo 1173798">
                        <g id="Grupo_1171925" data-name="Grupo 1171925">
                          <g id="Grupo_1164524" data-name="Grupo 1164524">
                            <g id="Grupo_1144123" data-name="Grupo 1144123">
                              <g transform="matrix(1, 0, 0, 1, -9, -6)" filter="url(#Trazado_978624)">
                                <g id="Trazado_978624-2" data-name="Trazado 978624" transform="translate(9 6)" fill="#f6f6f6">
                                  <path d="M 42.5 83.5 C 36.96437835693359 83.5 31.59512901306152 82.41617584228516 26.54141235351562 80.27863311767578 C 21.65934181213379 78.21369171142578 17.27447128295898 75.25723266601562 13.50862312316895 71.49137878417969 C 9.742764472961426 67.72553253173828 6.786305904388428 63.34066009521484 4.721364498138428 58.45858764648438 C 2.583823442459106 53.40486907958984 1.5 48.03562164306641 1.5 42.5 C 1.5 36.96437835693359 2.583823442459106 31.59512901306152 4.721364498138428 26.54141235351562 C 6.786305904388428 21.65934181213379 9.742764472961426 17.27447128295898 13.50862312316895 13.50862312316895 C 17.27447128295898 9.742764472961426 21.65934181213379 6.786305904388428 26.54141235351562 4.721364498138428 C 31.59512901306152 2.583823442459106 36.96437835693359 1.5 42.5 1.5 C 48.03562164306641 1.5 53.40486907958984 2.583823442459106 58.45858764648438 4.721364498138428 C 63.34066009521484 6.786305904388428 67.72553253173828 9.742764472961426 71.49137878417969 13.50862312316895 C 75.25723266601562 17.27447128295898 78.21369171142578 21.65934181213379 80.27863311767578 26.54141235351562 C 82.41617584228516 31.59512901306152 83.5 36.96437835693359 83.5 42.5 C 83.5 48.03562164306641 82.41617584228516 53.40486907958984 80.27863311767578 58.45858764648438 C 78.21369171142578 63.34066009521484 75.25723266601562 67.72553253173828 71.49137878417969 71.49137878417969 C 67.72553253173828 75.25723266601562 63.34066009521484 78.21369171142578 58.45858764648438 80.27863311767578 C 53.40486907958984 82.41617584228516 48.03562164306641 83.5 42.5 83.5 Z" stroke="none"/>
                                  <path d="M 42.5 3 C 37.16621398925781 3 31.99356079101562 4.043960571289062 27.125732421875 6.102882385253906 C 22.42246627807617 8.092185974121094 18.19785308837891 10.94070434570312 14.56928253173828 14.56928253173828 C 10.94070434570312 18.19785308837891 8.092185974121094 22.42246627807617 6.102882385253906 27.125732421875 C 4.043960571289062 31.99356079101562 3 37.16621398925781 3 42.5 C 3 47.83378601074219 4.043960571289062 53.00643920898438 6.102882385253906 57.87425231933594 C 8.092185974121094 62.57753372192383 10.94070434570312 66.80213165283203 14.56928253173828 70.43071746826172 C 18.19786834716797 74.05929565429688 22.42246627807617 76.90781402587891 27.125732421875 78.89711761474609 C 31.99356079101562 80.95603942871094 37.16621398925781 82 42.5 82 C 47.83378601074219 82 53.00642395019531 80.95603942871094 57.87425231933594 78.89711761474609 C 62.57753372192383 76.90781402587891 66.80213165283203 74.05929565429688 70.43071746826172 70.43071746826172 C 74.05929565429688 66.80213165283203 76.90781402587891 62.57753372192383 78.89711761474609 57.87425231933594 C 80.95603942871094 53.00642395019531 82 47.83378601074219 82 42.5 C 82 37.16621398925781 80.95603942871094 31.99356079101562 78.89711761474609 27.125732421875 C 76.90781402587891 22.42246627807617 74.05929565429688 18.19786834716797 70.43071746826172 14.56928253173828 C 66.80213165283203 10.94070434570312 62.57753372192383 8.092185974121094 57.87425231933594 6.102882385253906 C 53.00643920898438 4.043960571289062 47.83378601074219 3 42.5 3 M 42.5 0 C 65.97209167480469 0 85 19.02789306640625 85 42.5 C 85 65.97209167480469 65.97209167480469 85 42.5 85 C 19.02789306640625 85 0 65.97209167480469 0 42.5 C 0 19.02789306640625 19.02789306640625 0 42.5 0 Z" stroke="none" fill="#605f5f"/>
                                </g>
                              </g>
                            </g>
                          </g>
                        </g>
                      </g>
                    </g>
                  </g>
                </g>
              </g>
            </g>
          </g>
        </g>
      </g>
    </g>
    <g id="procedimiento_1_" data-name="procedimiento (1)" transform="translate(725.899 3681.457)">
      <path id="Trazado_1176312" data-name="Trazado 1176312" d="M336.054,422.358h17.414v5.1H336.054Z" transform="translate(-284.678 -345.309)" fill="#fe646f"/>
      <path id="Trazado_1176313" data-name="Trazado 1176313" d="M336.054,240.884h17.414v5.1H336.054Z" transform="translate(-284.678 -185.343)" fill="#8ac9fe"/>
      <path id="Trazado_1176314" data-name="Trazado 1176314" d="M336.054,331.621h17.414v5.1H336.054Z" transform="translate(-284.678 -265.326)" fill="#ffe177"/>
      <path id="Trazado_1176315" data-name="Trazado 1176315" d="M202.006,315.775a4.654,4.654,0,1,0,4.656,4.655A4.654,4.654,0,0,0,202.006,315.775Z" transform="translate(-162.416 -251.358)" fill="#6cf5c2"/>
      <path id="Trazado_1176316" data-name="Trazado 1176316" d="M59.323,131.2l-4.109-7.116a.945.945,0,0,1-.418-.459l-.766-1.806-1.386-.573-1.817.735a.948.948,0,0,1-1.026-.209l-1.938-1.938a.948.948,0,0,1-.209-1.026l.735-1.817-.573-1.386-1.806-.766a.948.948,0,0,1-.578-.873V111.23a.947.947,0,0,1,.252-.642,5.023,5.023,0,0,0-1.145-.133,4.75,4.75,0,0,0-4.211,2.428L29.752,131.2A4.862,4.862,0,0,0,33.96,138.5H47.215a6.547,6.547,0,0,1,12.1-2.416l.009-.014A4.752,4.752,0,0,0,59.323,131.2Z" transform="translate(-14.104 -70.371)" fill="#ffe177"/>
      <path id="Trazado_1176317" data-name="Trazado 1176317" d="M30.435,58.477a2.65,2.65,0,0,0,2.607-2.569l.3-6.867A2.761,2.761,0,0,0,32.564,47,2.944,2.944,0,0,0,28.3,47a2.76,2.76,0,0,0-.781,2.043l.3,6.867a2.644,2.644,0,0,0,2.61,2.569ZM29.674,48.31a1.047,1.047,0,0,1,1.52,0,.891.891,0,0,1,.256.649l-.3,6.863a.715.715,0,1,1-1.428,0l-.3-6.866a.889.889,0,0,1,.256-.649Zm.762,11.151a2.613,2.613,0,1,0,2.612,2.611A2.613,2.613,0,0,0,30.435,59.46Zm0,3.329a.717.717,0,1,1,.715-.718A.717.717,0,0,1,30.435,62.79Zm12.5-14.323A6.238,6.238,0,1,0,36.7,42.227,6.238,6.238,0,0,0,42.936,48.466Zm0-10.579a4.341,4.341,0,1,1-4.34,4.34A4.341,4.341,0,0,1,42.936,37.887Zm26.8,15.758H61.313V42.227a.948.948,0,0,0-.948-.948H54.541v-.42a.948.948,0,0,0-.578-.873l-1.806-.766-.574-1.385.735-1.817a.948.948,0,0,0-.208-1.025l-1.935-1.938a.948.948,0,0,0-1.026-.209l-1.821.735-1.385-.573-.762-1.8a.948.948,0,0,0-.873-.579H41.566a.948.948,0,0,0-.873.578l-.766,1.806-1.386.573-1.817-.735a.948.948,0,0,0-1.026.209L33.76,34.992a.948.948,0,0,0-.209,1.026l.735,1.817-.506,1.223a6.774,6.774,0,0,0-3.344-.87,6.688,6.688,0,0,0-5.854,3.377L14.006,59.884a6.758,6.758,0,0,0,5.85,10.137h9.826V79.6a.948.948,0,0,0,.948.948H49.48V83.1a.948.948,0,0,0,.948.948H69.739a.948.948,0,0,0,.948-.948V76.1a.948.948,0,0,0-.948-.948H61.313v-1.86h8.425a.948.948,0,0,0,.948-.948v-7a.948.948,0,0,0-.948-.948H61.313v-1.86h8.425a.948.948,0,0,0,.948-.948v-7a.948.948,0,0,0-.948-.948ZM34.81,40.815a.948.948,0,0,0,.506-.51l.87-2.1a.948.948,0,0,0,0-.718l-.645-1.6,1.051-1.051,1.595.645a.948.948,0,0,0,.718,0l2.1-.87a.948.948,0,0,0,.51-.506l.672-1.585h1.485l.669,1.584a.948.948,0,0,0,.511.507l2.1.87a.948.948,0,0,0,.717,0l1.6-.645,1.048,1.05-.645,1.6a.948.948,0,0,0,0,.718l.87,2.1a.948.948,0,0,0,.506.51l1.585.672V42.97l-1.585.672a.948.948,0,0,0-.506.51l-.87,2.1a.948.948,0,0,0,0,.718l.645,1.6-1.048,1.05-1.6-.645a.948.948,0,0,0-.717,0l-2.1.87a.948.948,0,0,0-.511.507l-.669,1.584H42.193l-.672-1.586a.948.948,0,0,0-.51-.506l-2.1-.87a.948.948,0,0,0-.718,0l-1.6.645-1.051-1.051.645-1.595a.948.948,0,0,0,0-.718l-.87-2.1a.948.948,0,0,0-.506-.51l-1.585-.672V41.487ZM15.648,65.693a4.751,4.751,0,0,1,0-4.861l10.576-18.32a4.75,4.75,0,0,1,4.211-2.428,5.023,5.023,0,0,1,1.145.133.947.947,0,0,0-.252.642V43.6a.948.948,0,0,0,.578.873l1.806.766.573,1.386-.735,1.817a.948.948,0,0,0,.209,1.026L35.7,51.4a.948.948,0,0,0,1.026.209l1.817-.735,1.386.573.766,1.806a.945.945,0,0,0,.418.459l4.109,7.116a4.752,4.752,0,0,1,0,4.862l-.009.014a6.547,6.547,0,0,0-12.1,2.417H19.856A4.749,4.749,0,0,1,15.648,65.693Zm28.6,3.38a4.654,4.654,0,1,1-4.655-4.656,4.654,4.654,0,0,1,4.655,4.656ZM68.791,82.147H51.376v-5.1H68.79Zm0-10.75H51.376V66.3H68.79Zm-9.374-7H50.428a.948.948,0,0,0-.948.948v7a.948.948,0,0,0,.948.948h8.989v1.86H50.428a.948.948,0,0,0-.948.948V78.65h-17.9V70.021h1.533a6.55,6.55,0,1,0,12.906-2.215,6.921,6.921,0,0,0,.844-1.165,6.69,6.69,0,0,0,0-6.757l-3.493-6.049h.938a.948.948,0,0,0,.873-.579l.762-1.805,1.385-.573,1.821.735a.948.948,0,0,0,1.026-.209l1.935-1.938a.948.948,0,0,0,.208-1.025l-.735-1.817.573-1.386,1.806-.766a.948.948,0,0,0,.578-.873v-.423h4.876v10.47H50.428a.948.948,0,0,0-.948.948v7a.948.948,0,0,0,.948.948h8.989Zm9.373-3.756H51.376v-5.1H68.79ZM53.357,58.094a.948.948,0,0,1,.948-.948H65.858a.948.948,0,1,1,0,1.9H54.3A.948.948,0,0,1,53.357,58.094Zm0,10.75A.948.948,0,0,1,54.3,67.9H65.858a.948.948,0,1,1,0,1.9H54.3A.948.948,0,0,1,53.357,68.844Zm0,10.754a.948.948,0,0,1,.948-.948H65.858a.948.948,0,1,1,0,1.9H54.3A.948.948,0,0,1,53.357,79.6ZM42.69,66.7a.948.948,0,0,1,0,1.341l-3.4,3.4a.948.948,0,0,1-1.341,0l-1.451-1.455a.948.948,0,1,1,1.342-1.339l.781.782L41.349,66.7a.948.948,0,0,1,1.34,0Z" transform="translate(0)"/>
      <path id="Trazado_1176318" data-name="Trazado 1176318" d="M184.991,58.258l.87,2.1a.948.948,0,0,1,0,.718l-.645,1.595,1.051,1.051,1.6-.645a.948.948,0,0,1,.718,0l2.1.87a.948.948,0,0,1,.51.506l.672,1.586h1.485l.669-1.584a.948.948,0,0,1,.511-.507l2.1-.87a.948.948,0,0,1,.717,0l1.6.645L200,62.675l-.645-1.6a.948.948,0,0,1,0-.718l.87-2.1a.948.948,0,0,1,.506-.51l1.585-.672V55.594l-1.585-.672a.948.948,0,0,1-.506-.51l-.87-2.1a.948.948,0,0,1,0-.718l.645-1.6-1.048-1.05-1.6.645a.948.948,0,0,1-.717,0l-2.1-.87a.948.948,0,0,1-.511-.507l-.669-1.584h-1.485L191.2,48.21a.948.948,0,0,1-.51.506l-2.1.87a.948.948,0,0,1-.718,0l-1.595-.644L185.219,50l.645,1.6a.948.948,0,0,1,0,.718l-.87,2.1a.948.948,0,0,1-.506.51l-1.585.672v1.482l1.585.672A.948.948,0,0,1,184.991,58.258Zm7.621-8.161a6.238,6.238,0,1,1-6.236,6.237,6.238,6.238,0,0,1,6.236-6.237Z" transform="translate(-149.675 -14.106)" fill="#837683"/>
      <g id="Grupo_1232889" data-name="Grupo 1232889" transform="translate(29.417 47.982)">
        <path id="Trazado_1176319" data-name="Trazado 1176319" d="M154.021,289.951a.717.717,0,1,0,.715.715A.717.717,0,0,0,154.021,289.951Z" transform="translate(-153.003 -276.577)" fill="#fe646f"/>
        <path id="Trazado_1176320" data-name="Trazado 1176320" d="M151.789,185.7a.748.748,0,0,0,.713-.76l.3-6.863a.89.89,0,0,0-.256-.649,1.047,1.047,0,0,0-1.52,0,.889.889,0,0,0-.256.649l.3,6.866A.745.745,0,0,0,151.789,185.7Z" transform="translate(-150.77 -177.104)" fill="#fe646f"/>
      </g>
    </g>
  </g>
</svg>
