<svg xmlns="http://www.w3.org/2000/svg" xmlns:xlink="http://www.w3.org/1999/xlink" width="103" height="103" viewBox="0 0 103 103">
  <defs>
    <filter id="Trazado_978624" x="0" y="0" width="103" height="103" filterUnits="userSpaceOnUse">
      <feOffset dy="3" input="SourceAlpha"/>
      <feGaussianBlur stdDeviation="3" result="blur"/>
      <feFlood flood-opacity="0.161"/>
      <feComposite operator="in" in2="blur"/>
      <feComposite in="SourceGraphic"/>
    </filter>
  </defs>
  <g id="Grupo_1232954" data-name="Grupo 1232954" transform="translate(-193.75 -5524.288)">
    <g id="Grupo_1231817" data-name="Grupo 1231817" transform="translate(202.75 5530.288)">
      <g id="Grupo_1220583" data-name="Grupo 1220583">
        <g id="Grupo_1218068" data-name="Grupo 1218068">
          <g id="Grupo_1213565" data-name="Grupo 1213565">
            <g id="Grupo_1210098" data-name="Grupo 1210098">
              <g id="Grupo_1178144" data-name="Grupo 1178144">
                <g id="Grupo_1177896" data-name="Grupo 1177896">
                  <g id="Grupo_1176881" data-name="Grupo 1176881">
                    <g id="Grupo_1175148" data-name="Grupo 1175148">
                      <g id="Grupo_1173798" data-name="Grupo 1173798">
                        <g id="Grupo_1171925" data-name="Grupo 1171925">
                          <g id="Grupo_1164524" data-name="Grupo 1164524">
                            <g id="Grupo_1144123" data-name="Grupo 1144123">
                              <g transform="matrix(1, 0, 0, 1, -9, -6)" filter="url(#Trazado_978624)">
                                <g id="Trazado_978624-2" data-name="Trazado 978624" transform="translate(9 6)" fill="#fff9e9">
                                  <path d="M 42.5 83.5 C 36.96437835693359 83.5 31.59512901306152 82.41617584228516 26.54141235351562 80.27863311767578 C 21.65934181213379 78.21369171142578 17.27447128295898 75.25723266601562 13.50862312316895 71.49137878417969 C 9.742764472961426 67.72553253173828 6.786305904388428 63.34066009521484 4.721364498138428 58.45858764648438 C 2.583823442459106 53.40486907958984 1.5 48.03562164306641 1.5 42.5 C 1.5 36.96437835693359 2.583823442459106 31.59512901306152 4.721364498138428 26.54141235351562 C 6.786305904388428 21.65934181213379 9.742764472961426 17.27447128295898 13.50862312316895 13.50862312316895 C 17.27447128295898 9.742764472961426 21.65934181213379 6.786305904388428 26.54141235351562 4.721364498138428 C 31.59512901306152 2.583823442459106 36.96437835693359 1.5 42.5 1.5 C 48.03562164306641 1.5 53.40486907958984 2.583823442459106 58.45858764648438 4.721364498138428 C 63.34066009521484 6.786305904388428 67.72553253173828 9.742764472961426 71.49137878417969 13.50862312316895 C 75.25723266601562 17.27447128295898 78.21369171142578 21.65934181213379 80.27863311767578 26.54141235351562 C 82.41617584228516 31.59512901306152 83.5 36.96437835693359 83.5 42.5 C 83.5 48.03562164306641 82.41617584228516 53.40486907958984 80.27863311767578 58.45858764648438 C 78.21369171142578 63.34066009521484 75.25723266601562 67.72553253173828 71.49137878417969 71.49137878417969 C 67.72553253173828 75.25723266601562 63.34066009521484 78.21369171142578 58.45858764648438 80.27863311767578 C 53.40486907958984 82.41617584228516 48.03562164306641 83.5 42.5 83.5 Z" stroke="none"/>
                                  <path d="M 42.5 3 C 37.16621398925781 3 31.99356079101562 4.043960571289062 27.125732421875 6.102882385253906 C 22.42246627807617 8.092185974121094 18.19785308837891 10.94070434570312 14.56928253173828 14.56928253173828 C 10.94070434570312 18.19785308837891 8.092185974121094 22.42246627807617 6.102882385253906 27.125732421875 C 4.043960571289062 31.99356079101562 3 37.16621398925781 3 42.5 C 3 47.83378601074219 4.043960571289062 53.00643920898438 6.102882385253906 57.87425231933594 C 8.092185974121094 62.57753372192383 10.94070434570312 66.80213165283203 14.56928253173828 70.43071746826172 C 18.19786834716797 74.05929565429688 22.42246627807617 76.90781402587891 27.125732421875 78.89711761474609 C 31.99356079101562 80.95603942871094 37.16621398925781 82 42.5 82 C 47.83378601074219 82 53.00642395019531 80.95603942871094 57.87425231933594 78.89711761474609 C 62.57753372192383 76.90781402587891 66.80213165283203 74.05929565429688 70.43071746826172 70.43071746826172 C 74.05929565429688 66.80213165283203 76.90781402587891 62.57753372192383 78.89711761474609 57.87425231933594 C 80.95603942871094 53.00642395019531 82 47.83378601074219 82 42.5 C 82 37.16621398925781 80.95603942871094 31.99356079101562 78.89711761474609 27.125732421875 C 76.90781402587891 22.42246627807617 74.05929565429688 18.19786834716797 70.43071746826172 14.56928253173828 C 66.80213165283203 10.94070434570312 62.57753372192383 8.092185974121094 57.87425231933594 6.102882385253906 C 53.00643920898438 4.043960571289062 47.83378601074219 3 42.5 3 M 42.5 0 C 65.97209167480469 0 85 19.02789306640625 85 42.5 C 85 65.97209167480469 65.97209167480469 85 42.5 85 C 19.02789306640625 85 0 65.97209167480469 0 42.5 C 0 19.02789306640625 19.02789306640625 0 42.5 0 Z" stroke="none" fill="#fc3"/>
                                </g>
                              </g>
                            </g>
                          </g>
                        </g>
                      </g>
                    </g>
                  </g>
                </g>
              </g>
            </g>
          </g>
        </g>
      </g>
    </g>
    <g id="ICON" transform="translate(213 5541)">
      <circle id="Elipse_14265" data-name="Elipse 14265" cx="29" cy="29" r="29" transform="translate(3 3)" fill="#272727"/>
      <path id="Trazado_1176639" data-name="Trazado 1176639" d="M14,11.881A27,27,0,0,0,40.971,57.472a3.167,3.167,0,0,0-.575-.185,9.394,9.394,0,0,1-1.9-.582,10.143,10.143,0,0,0-2.067-1.016c-1.239-.28-2.637-.142-3.835-.537a4.322,4.322,0,0,1-1.185-.645,3.707,3.707,0,0,0-1.034-.656c-1.309-.407-2.371-.374-3.634-1.115A4.929,4.929,0,0,1,24.74,50.28a20.751,20.751,0,0,1-.863-2.865,10.125,10.125,0,0,0-.836-2.393,2.556,2.556,0,0,0-1.4-1.252.7.7,0,0,0-.541.091,5.507,5.507,0,0,0-.653.392,14.607,14.607,0,0,1-3.521,1.626,5.225,5.225,0,0,1-3.306.047,3.993,3.993,0,0,1-2.1-2.54,4.631,4.631,0,0,1-.071-2.875,3.842,3.842,0,0,1,1.6-1.76,7.967,7.967,0,0,0,1.313-.887,6.854,6.854,0,0,0,1.4-3.46c.4-1.865.844-3.687,1.39-5.515.117-.392.181-.921.335-1.381a2.572,2.572,0,0,1,.787-1.21c1.366-1.1,3.194-1.27,5.08-1.277a10.506,10.506,0,0,0,4.254-.454,1.945,1.945,0,0,0,.307-.191c-.017-.078-.07-.311-.113-.445a6.36,6.36,0,0,1-.174-.613,2.16,2.16,0,0,1,.434-1.952A3.732,3.732,0,0,1,30.4,20.193c.486-.089,1-.144,1.47-.277a1.471,1.471,0,0,0,.789-.445,1.621,1.621,0,0,0,.276-.6.655.655,0,0,0,.032-.413c-.034-.072-.128-.068-.206-.1-.192-.069-.4-.117-.613-.17a3.7,3.7,0,0,1-1.48-.645,7.193,7.193,0,0,1-1.679-2.634,3.131,3.131,0,0,0-1.2-1.634.48.48,0,0,0-.361-.007,3.88,3.88,0,0,0-.568.21,6.388,6.388,0,0,1-1.426.5,5.672,5.672,0,0,1-3-.686,11.994,11.994,0,0,0-3.966-1.3,6.818,6.818,0,0,0-1.326.179,6.75,6.75,0,0,1-1.79.158A3.163,3.163,0,0,1,14,11.881Z" fill="#6bb575" fill-rule="evenodd"/>
      <path id="Trazado_1176640" data-name="Trazado 1176640" d="M19.425,44.846c.036.057.071.116.1.176a10.125,10.125,0,0,1,.836,2.393,20.751,20.751,0,0,0,.863,2.865,4.934,4.934,0,0,0,2.006,2.456c1.263.741,2.326.708,3.634,1.115a3.727,3.727,0,0,1,1.035.656,4.3,4.3,0,0,0,1.184.645c1.2.4,2.6.257,3.835.537a10.143,10.143,0,0,1,2.067,1.016,9.394,9.394,0,0,0,1.9.582,3.166,3.166,0,0,1,.575.185,26.869,26.869,0,0,1-7.214,1.472Q31.114,59,32,59a26.949,26.949,0,0,0,8.971-1.528,3.167,3.167,0,0,0-.575-.185,9.394,9.394,0,0,1-1.9-.582,10.143,10.143,0,0,0-2.067-1.016c-1.239-.28-2.637-.142-3.835-.537a4.322,4.322,0,0,1-1.185-.645,3.707,3.707,0,0,0-1.034-.656c-1.309-.407-2.371-.374-3.634-1.115A4.929,4.929,0,0,1,24.74,50.28a20.751,20.751,0,0,1-.863-2.865,10.125,10.125,0,0,0-.836-2.393,2.556,2.556,0,0,0-1.4-1.252.7.7,0,0,0-.541.091,5.507,5.507,0,0,0-.653.392c-.2.135-.564.353-1.023.593Zm5.6-30.832a7.784,7.784,0,0,1,.451.894,7.193,7.193,0,0,0,1.679,2.634,3.7,3.7,0,0,0,1.48.645c.209.053.421.1.613.17.078.028.172.024.207.1a.663.663,0,0,1-.033.413,1.636,1.636,0,0,1-.275.6,1.478,1.478,0,0,1-.789.445c-.471.133-.985.188-1.471.277a3.734,3.734,0,0,0-2.338,1.173,2.16,2.16,0,0,0-.434,1.952,6.36,6.36,0,0,0,.174.613c.043.134.1.367.113.445a1.945,1.945,0,0,1-.307.191,10.506,10.506,0,0,1-4.254.454c-1.886.007-3.714.18-5.079,1.277a2.557,2.557,0,0,0-.787,1.21c-.155.46-.219.989-.336,1.381-.546,1.828-.988,3.65-1.39,5.515a6.854,6.854,0,0,1-1.4,3.46,7.967,7.967,0,0,1-1.313.887,3.848,3.848,0,0,0-1.6,1.76,4.631,4.631,0,0,0,.071,2.875,3.991,3.991,0,0,0,2.1,2.54,5.222,5.222,0,0,0,3.305-.047l.061-.018a4.075,4.075,0,0,1-1.956-2.475,4.631,4.631,0,0,1-.071-2.875,3.842,3.842,0,0,1,1.6-1.76,7.967,7.967,0,0,0,1.313-.887,6.854,6.854,0,0,0,1.4-3.46c.4-1.865.844-3.687,1.39-5.515.117-.392.181-.921.335-1.381a2.572,2.572,0,0,1,.787-1.21c1.366-1.1,3.194-1.27,5.08-1.277a10.506,10.506,0,0,0,4.254-.454,1.945,1.945,0,0,0,.307-.191c-.017-.078-.07-.311-.113-.445a6.36,6.36,0,0,1-.174-.613,2.16,2.16,0,0,1,.434-1.952A3.732,3.732,0,0,1,30.4,20.193c.486-.089,1-.144,1.47-.277a1.471,1.471,0,0,0,.789-.445,1.621,1.621,0,0,0,.276-.6.655.655,0,0,0,.032-.413c-.034-.072-.128-.068-.206-.1-.192-.069-.4-.117-.613-.17a3.7,3.7,0,0,1-1.48-.645,7.193,7.193,0,0,1-1.679-2.634,3.131,3.131,0,0,0-1.2-1.634.48.48,0,0,0-.361-.007,3.88,3.88,0,0,0-.568.21,6.388,6.388,0,0,1-1.426.5,2.862,2.862,0,0,1-.409.036Zm-8.55-1.736c.845.281,1.679.708,2.443,1.014a5.672,5.672,0,0,0,3,.686,5.308,5.308,0,0,0,1.2-.4c-.233-.092-.464-.19-.695-.282a11.994,11.994,0,0,0-3.966-1.3,6.818,6.818,0,0,0-1.326.179C16.916,12.209,16.695,12.248,16.473,12.278ZM13.7,12.152c.2-.039.4-.08.6-.11a3.356,3.356,0,0,1-.3-.161c-.1.089-.2.179-.3.271Z" fill="#61a169" fill-rule="evenodd"/>
      <circle id="Elipse_14266" data-name="Elipse 14266" cx="8.724" cy="8.724" r="8.724" transform="translate(20.72 26.776)" fill="#ff8173"/>
      <path id="Trazado_1176641" data-name="Trazado 1176641" d="M27.989,26.9a8.845,8.845,0,0,1,1.455-.121,8.724,8.724,0,0,1,0,17.448,8.845,8.845,0,0,1-1.455-.121,8.725,8.725,0,0,0,0-17.206Z" fill="#e77063" fill-rule="evenodd"/>
      <circle id="Elipse_14267" data-name="Elipse 14267" cx="7.364" cy="7.364" r="7.364" transform="translate(22.08 28.136)" fill="#272727"/>
      <circle id="Elipse_14268" data-name="Elipse 14268" cx="5.364" cy="5.364" r="5.364" transform="translate(24.08 30.136)" fill="#ff8173"/>
      <path id="Trazado_1176642" data-name="Trazado 1176642" d="M28.222,30.276a5.364,5.364,0,1,1,0,10.448,5.365,5.365,0,0,0,0-10.448Z" fill="#e77063" fill-rule="evenodd"/>
      <circle id="Elipse_14269" data-name="Elipse 14269" cx="3.998" cy="3.998" r="3.998" transform="translate(25.446 31.502)" fill="#272727"/>
      <circle id="Elipse_14270" data-name="Elipse 14270" cx="1.998" cy="1.998" r="1.998" transform="translate(27.446 33.502)" fill="#ffd173"/>
      <path id="Trazado_1176643" data-name="Trazado 1176643" d="M28.644,33.669a2,2,0,1,1,0,3.662,2,2,0,0,0,0-3.662Z" fill="#e7bd67" fill-rule="evenodd"/>
      <circle id="Elipse_14271" data-name="Elipse 14271" cx="0.812" cy="0.812" r="0.812" transform="translate(28.632 34.688)" fill="#272727"/>
      <path id="Trazado_1176644" data-name="Trazado 1176644" d="M39.04,40.29a10.77,10.77,0,0,1-3.193,3.81,5.635,5.635,0,0,1,1.342,1.128,2.139,2.139,0,0,1,.5,1.341,2.757,2.757,0,0,1-.2.918c-.053.142-.134.388-.172.508a1.087,1.087,0,0,0,.287.163,6.852,6.852,0,0,0,.852.278,5.114,5.114,0,0,1,1.529.648A3.03,3.03,0,0,1,41.2,50.865c.042.152.075.326.116.5.013.052.041.136.057.185.078.023.272.081.382.1.556.123,1.112.244,1.668.368a1,1,0,0,1-.435,1.952l-1.665-.367a2.721,2.721,0,0,1-1.409-.67,3.619,3.619,0,0,1-.641-1.537,1.144,1.144,0,0,0-.449-.685,6.647,6.647,0,0,0-1.638-.575,3.143,3.143,0,0,1-1.549-1.026,1.807,1.807,0,0,1-.272-1.612,5.536,5.536,0,0,1,.2-.6,1.487,1.487,0,0,0,.118-.323,1.254,1.254,0,0,0-.072-.114,2.019,2.019,0,0,0-.282-.28,7.672,7.672,0,0,0-1.092-.717c-.067-.038-.223-.135-.345-.211a10.739,10.739,0,0,1-8.528.166c.169.481.312.984.443,1.495a18.775,18.775,0,0,0,.768,2.583,2.981,2.981,0,0,0,1.176,1.511c1.112.652,2.063.572,3.216.93a4.165,4.165,0,0,1,1.2.638,4,4,0,0,0,1.053.673c1.139.375,2.472.22,3.651.486a12.146,12.146,0,0,1,2.48,1.159,12.717,12.717,0,0,0,1.967.571,3.283,3.283,0,0,1,1.75,1.161A27.015,27.015,0,0,0,47.3,54.246a10.243,10.243,0,0,0-.38-2.815,3.209,3.209,0,0,0-1.568-2.094,13.179,13.179,0,0,0-1.862-.453,3,3,0,0,1-1.642-.965,1.6,1.6,0,0,1-.272-1.382,6.192,6.192,0,0,1,.851-1.587,2.427,2.427,0,0,0,.17-1.917,1.689,1.689,0,0,0-.845-.948c-.372-.231-.782-.424-1.173-.636A5.283,5.283,0,0,1,39.04,40.29ZM22.877,27.024a5.282,5.282,0,0,0-3.353.833.828.828,0,0,0-.194.457c-.107.4-.167.821-.265,1.147-.531,1.778-.96,3.551-1.351,5.365a8.949,8.949,0,0,1-1.948,4.464,7.284,7.284,0,0,1-1.346.964,2.344,2.344,0,0,0-1.12,1.014,2.536,2.536,0,0,0,.123,1.5,1.969,1.969,0,0,0,.956,1.3,3.191,3.191,0,0,0,1.991-.116,12.261,12.261,0,0,0,2.971-1.371,5.376,5.376,0,0,1,1.469-.729,10.807,10.807,0,0,1-1.058-1.766,1.648,1.648,0,0,0-.575.137.813.813,0,0,0-.518.56,3.014,3.014,0,0,1-2.637,2.075,1,1,0,1,1-.044-2,1.076,1.076,0,0,0,.408-.152.612.612,0,0,0,.326-.379,2.753,2.753,0,0,1,1.678-1.943,3.567,3.567,0,0,1,.669-.21,10.738,10.738,0,0,1,3.818-11.157ZM39.32,6.006A27.029,27.029,0,0,0,15.9,10.332a6.936,6.936,0,0,0,.866-.13,8.816,8.816,0,0,1,1.72-.214c1.573.016,3.25.871,4.689,1.447.313.125.626.272.944.394a1.9,1.9,0,0,0,1,.175,16.1,16.1,0,0,0,1.67-.633,2.467,2.467,0,0,1,1.956.142A5.07,5.07,0,0,1,30.8,14.075a5.217,5.217,0,0,0,1.148,1.936,1.089,1.089,0,0,0,.407.165c.307.087.635.155.933.251a2.31,2.31,0,0,1,1.474,1.158,2.489,2.489,0,0,1,.172,1.44,3.8,3.8,0,0,1-.732,1.71,3.862,3.862,0,0,1-2.388,1.244c-.5.1-1.021.151-1.49.275a1.3,1.3,0,0,0-.72.376c-.114.139-.028.285.012.425a8.229,8.229,0,0,1,.271.991,2.155,2.155,0,0,1-.008.739,10.687,10.687,0,0,1,3.07.579c.117-.24.205-.489.31-.729a3.9,3.9,0,0,1,1.211-1.645,6.6,6.6,0,0,1,1.885-.842,1.8,1.8,0,0,0,.94-.489,1.086,1.086,0,0,0,.056-.774c-.069-.576-.211-1.164-.22-1.638a6.1,6.1,0,0,1,.307-1.883,8.622,8.622,0,0,0,.351-1.39,3.23,3.23,0,0,0-.609-2.073,17.054,17.054,0,0,0-4.439-3.878,1,1,0,1,1,.851-1.81,20.222,20.222,0,0,1,5.267,4.6,5.254,5.254,0,0,1,.915,3.4,10.572,10.572,0,0,1-.418,1.71,4.173,4.173,0,0,0-.226,1.279c.011.526.21,1.2.241,1.831a2.759,2.759,0,0,1-.453,1.79,3.3,3.3,0,0,1-1.544,1.077,6.924,6.924,0,0,0-1.684.669,2.392,2.392,0,0,0-.708,1.118c-.069.167-.14.333-.218.5a10.786,10.786,0,0,1,2.978,2.523,11.228,11.228,0,0,1,3.809-1.691,3.282,3.282,0,0,1,2.184.415c.375.219.718.5,1.065.741a1.148,1.148,0,0,0,.857.338,8.284,8.284,0,0,0,2.826-1.652,4.6,4.6,0,0,1,2.291-1.02,3.9,3.9,0,0,1,2.177.688,2.069,2.069,0,0,0,1.8.5,1,1,0,1,1,.486,1.94,3.538,3.538,0,0,1-2.972-.51,2.645,2.645,0,0,0-1.469-.615.931.931,0,0,0-.425.162c-.269.153-.524.347-.763.51a10.368,10.368,0,0,1-3.619,1.972A2.829,2.829,0,0,1,43.935,30c-.4-.253-.778-.591-1.205-.841A1.361,1.361,0,0,0,41.822,29a8.657,8.657,0,0,0-2.96,1.365,10.653,10.653,0,0,1,1.257,4.1,3.127,3.127,0,0,1,2.67-.389,15.869,15.869,0,0,1,2.391.876,4.043,4.043,0,0,0,1.589.453.57.57,0,0,0,.417-.249c.163-.2.3-.422.447-.631a2.583,2.583,0,0,1,1.775-1.208,3.725,3.725,0,0,1,2.943.907c.351.265.686.562,1.055.8a1.623,1.623,0,0,0,1.353.26c.479-.118.664-.579.842-1.067.3-.817.462-1.783.732-2.578a3.37,3.37,0,0,1,1.451-1.989,2.4,2.4,0,0,1,1.089-.286,26.784,26.784,0,0,0-.771-4.292,12.617,12.617,0,0,1-6.21-1.371,5.572,5.572,0,0,0-2.469-.75,13.775,13.775,0,0,1-2.994.012,4.151,4.151,0,0,1-2.161-.945,2.445,2.445,0,0,1-.662-2.655,15.427,15.427,0,0,1,.552-1.536,2.225,2.225,0,0,0,.224-.889,3.277,3.277,0,0,0-.884-1.755,12.875,12.875,0,0,1-1.668-2.268,3.131,3.131,0,0,1-.309-1.635,9.312,9.312,0,0,0,.061-1.063,1.132,1.132,0,0,0-.352-.636c-.209-.25-.452-.5-.685-.771A4.444,4.444,0,0,1,39.32,6.006Z" fill="#67cad7" fill-rule="evenodd"/>
      <path id="Trazado_1176645" data-name="Trazado 1176645" d="M37.913,42.076c.07.041.14.08.212.119.391.212.8.4,1.173.636a1.691,1.691,0,0,1,.846.948,2.432,2.432,0,0,1-.17,1.917,6.163,6.163,0,0,0-.852,1.587,1.6,1.6,0,0,0,.272,1.382,1.746,1.746,0,0,0,.131.154,3.132,3.132,0,0,1,.46.265,3.5,3.5,0,0,1,.372.305,4.353,4.353,0,0,0,.68.241,13.213,13.213,0,0,1,1.862.453,3.211,3.211,0,0,1,1.567,2.094,10.246,10.246,0,0,1,.381,2.815q-1.007.693-2.075,1.3a3.26,3.26,0,0,1,.3.341A27.015,27.015,0,0,0,47.3,54.246a10.243,10.243,0,0,0-.38-2.815,3.209,3.209,0,0,0-1.568-2.094,13.179,13.179,0,0,0-1.862-.453,3,3,0,0,1-1.642-.965,1.6,1.6,0,0,1-.272-1.382,6.192,6.192,0,0,1,.851-1.587,2.427,2.427,0,0,0,.17-1.917,1.689,1.689,0,0,0-.845-.948c-.372-.231-.782-.424-1.173-.636A5.283,5.283,0,0,1,39.04,40.29a10.779,10.779,0,0,1-1.127,1.786Zm-6.422,3.952c.113.071.243.151.3.185a7.616,7.616,0,0,1,1.092.717,1.967,1.967,0,0,1,.282.28,1.253,1.253,0,0,1,.072.114,1.43,1.43,0,0,1-.117.323,5.545,5.545,0,0,0-.2.6,1.807,1.807,0,0,0,.272,1.612,3.15,3.15,0,0,0,1.549,1.026,6.632,6.632,0,0,1,1.638.575,1.139,1.139,0,0,1,.449.684,3.617,3.617,0,0,0,.641,1.538,2.721,2.721,0,0,0,1.41.67c.554.122,1.11.243,1.664.367a1,1,0,0,0,1.194-.758,1.053,1.053,0,0,0,.023-.26l-.431-.1a2.721,2.721,0,0,1-1.409-.67,1.713,1.713,0,0,1-.305-.47l-.305-.067c-.109-.024-.3-.082-.381-.1-.017-.049-.045-.133-.058-.185-.041-.174-.073-.348-.116-.5a3.21,3.21,0,0,0-.586-1.193c-.318-.1-.662-.168-.977-.277a3.143,3.143,0,0,1-1.549-1.026l-.035-.049a3.9,3.9,0,0,1-.453-.162,1.12,1.12,0,0,1-.287-.163c.039-.12.12-.366.173-.508a2.785,2.785,0,0,0,.2-.918,2.148,2.148,0,0,0-.5-1.342,3.774,3.774,0,0,0-.5-.508c-.069-.039-.222-.134-.342-.209a10.615,10.615,0,0,1-2.408.772Zm-5.68.877a10.746,10.746,0,0,0,5.508-.845,10.761,10.761,0,0,1-5.948-.638c.167.477.309.976.44,1.483ZM17.946,42c.132.206.269.407.414.6a5.348,5.348,0,0,0-1.469.729,12.133,12.133,0,0,1-1.571.845,5.786,5.786,0,0,0,1.05-.22,12.261,12.261,0,0,0,2.971-1.371,5.376,5.376,0,0,1,1.469-.729,10.807,10.807,0,0,1-1.058-1.766,1.648,1.648,0,0,0-.575.137.813.813,0,0,0-.518.56A2.387,2.387,0,0,1,17.946,42ZM19.6,27.8c.271-.017.548-.024.826-.028A10.764,10.764,0,0,0,19.2,28.882c-.043.208-.084.407-.136.579-.531,1.778-.96,3.551-1.351,5.365a11.7,11.7,0,0,1-1.233,3.545q.057.281.127.556a3.584,3.584,0,0,0-.669.209l-.043.019c-.042.046-.086.091-.13.135a5.978,5.978,0,0,1-1.041.777,2.7,2.7,0,0,0-.464,1.013.612.612,0,0,1-.326.379,1.073,1.073,0,0,1-.407.152,1.012,1.012,0,0,0-.3.051,3.563,3.563,0,0,0,.193,1.109,3.11,3.11,0,0,0,.38.814,3.479,3.479,0,0,0,1.706-.85,1,1,0,0,1,.469-1.87,1.076,1.076,0,0,0,.408-.152.612.612,0,0,0,.326-.379,2.753,2.753,0,0,1,1.678-1.943,3.567,3.567,0,0,1,.669-.21,10.738,10.738,0,0,1,3.818-11.157A5.424,5.424,0,0,0,19.6,27.8Zm25.765,7.235a3.483,3.483,0,0,0,1.4.376.57.57,0,0,0,.417-.249c.163-.2.3-.422.447-.631a4.111,4.111,0,0,1,.373-.46,3.371,3.371,0,0,0-1.048,0A2.44,2.44,0,0,0,45.365,35.033ZM22.92,6.567a27.153,27.153,0,0,1,13.949.185,4.45,4.45,0,0,0,1.225,2.806c.234.272.476.521.685.771a1.132,1.132,0,0,1,.352.636,9.57,9.57,0,0,1-.06,1.063,3.14,3.14,0,0,0,.308,1.635,12.912,12.912,0,0,0,1.668,2.268,3.263,3.263,0,0,1,.884,1.755,2.213,2.213,0,0,1-.224.889,15.681,15.681,0,0,0-.552,1.536,2.449,2.449,0,0,0,.662,2.655,4.142,4.142,0,0,0,2.161.944,13.66,13.66,0,0,0,2.995-.012,5.6,5.6,0,0,1,2.468.75,12.616,12.616,0,0,0,6.21,1.372,26.784,26.784,0,0,1,.771,4.292,2.4,2.4,0,0,0-1.089.286,3.374,3.374,0,0,0-1.451,1.989c-.26.766-.421,1.691-.7,2.487.073.053.147.1.223.152a1.623,1.623,0,0,0,1.353.26c.479-.118.664-.579.842-1.067.3-.817.462-1.783.732-2.578a3.37,3.37,0,0,1,1.451-1.989,2.4,2.4,0,0,1,1.089-.286,26.784,26.784,0,0,0-.771-4.292,12.617,12.617,0,0,1-6.21-1.371,5.572,5.572,0,0,0-2.469-.75,13.775,13.775,0,0,1-2.994.012,4.151,4.151,0,0,1-2.161-.945,2.445,2.445,0,0,1-.662-2.655,15.427,15.427,0,0,1,.552-1.536,2.225,2.225,0,0,0,.224-.889,3.277,3.277,0,0,0-.884-1.755,12.875,12.875,0,0,1-1.668-2.268,3.131,3.131,0,0,1-.309-1.635,9.312,9.312,0,0,0,.061-1.063,1.132,1.132,0,0,0-.352-.636c-.209-.25-.452-.5-.685-.771A4.444,4.444,0,0,1,39.32,6.006a27.11,27.11,0,0,0-16.4.561ZM39.877,29.758a1.262,1.262,0,0,1,.4.152c.427.25.805.588,1.205.841a2.83,2.83,0,0,0,2.06.483,5.245,5.245,0,0,0,1.765-.719A3.108,3.108,0,0,1,43.935,30c-.375-.237-.732-.55-1.127-.794a1.342,1.342,0,0,1-.21-.114A1.39,1.39,0,0,0,41.822,29a6.368,6.368,0,0,0-1.945.753Zm9.312-.946c.222.119.421.267.632.393a3.532,3.532,0,0,0,2.971.511,1,1,0,0,0,.722-.707,4.436,4.436,0,0,1-1.243-.549,2.645,2.645,0,0,0-1.469-.615.931.931,0,0,0-.425.162c-.269.153-.524.347-.763.51C49.474,28.612,49.333,28.711,49.189,28.812Zm-9.7-1.077q-.187.007-.381.033a6.816,6.816,0,0,0-1.7.544c.118.132.234.266.346.4a15.462,15.462,0,0,1,1.739-.979Zm5.55.607a.844.844,0,0,0,.626.175,8.284,8.284,0,0,0,2.826-1.652c.116-.079.236-.161.359-.242a3.448,3.448,0,0,0-.518-.032,4.594,4.594,0,0,0-2.292,1.02C45.711,27.832,45.378,28.093,45.035,28.342Zm-10.082-10.1a2.867,2.867,0,0,1-.015.783,3.786,3.786,0,0,1-.255.887c0,.027,0,.054,0,.081.009.474.152,1.062.221,1.638a1.1,1.1,0,0,1-.056.774,1.8,1.8,0,0,1-.941.488,6.645,6.645,0,0,0-1.884.842,3.557,3.557,0,0,0-.977,1.161,10.6,10.6,0,0,1,1.906.468c.117-.24.205-.489.31-.729a3.9,3.9,0,0,1,1.211-1.645,6.6,6.6,0,0,1,1.885-.842,5.837,5.837,0,0,0,.57-.2c0-.052,0-.1,0-.158-.032-.629-.231-1.305-.241-1.831a4.143,4.143,0,0,1,.226-1.279,10.582,10.582,0,0,0,.417-1.711,5.253,5.253,0,0,0-.915-3.4,19.465,19.465,0,0,0-3.647-3.529l-.02-.009a1,1,0,0,1-.34-.262,8.356,8.356,0,0,0-1.26-.8,1,1,0,0,0-.851,1.81,17.054,17.054,0,0,1,4.439,3.878,3.223,3.223,0,0,1,.609,2.072,8.5,8.5,0,0,1-.351,1.391c-.013.044-.026.088-.038.132Zm-3.905,3.867c-.247.04-.49.084-.72.145a1.3,1.3,0,0,0-.72.376.25.25,0,0,0-.033.052A4.511,4.511,0,0,0,31.048,22.109ZM25.22,11.982a2.616,2.616,0,0,0-.432.031A1.247,1.247,0,0,0,25.11,12c.036-.006.073-.013.11-.022Z" fill="#57aeb9" fill-rule="evenodd"/>
      <path id="Trazado_1176646" data-name="Trazado 1176646" d="M58.993,31.364a.526.526,0,0,0-.229.034c-.216.089-.312.322-.418.572A7.821,7.821,0,0,0,58,33.061a10.85,10.85,0,0,1-.959,2.779,2.872,2.872,0,0,1-1.8,1.388,3.581,3.581,0,0,1-3.143-.672c-.382-.268-.738-.584-1.117-.853a1.684,1.684,0,0,0-1.279-.4c-.185.028-.275.17-.374.3-.169.224-.318.471-.489.7A2.5,2.5,0,0,1,46.884,37.4a4.49,4.49,0,0,1-1.693-.3c-.707-.246-1.474-.622-2.222-.887-.768-.273-1.532-.516-2.005.277a4.93,4.93,0,0,0-.418,1.023,4.8,4.8,0,0,0-.2.759.738.738,0,0,0,.018.4,1.734,1.734,0,0,0,.734.763c.465.3,1,.534,1.484.814a3.768,3.768,0,0,1,1.938,2.232,4.434,4.434,0,0,1-.38,3.5c-.1.172-.37.6-.515.84l.026.011a3.852,3.852,0,0,0,.671.2,9.633,9.633,0,0,1,1.9.505,4.847,4.847,0,0,1,2.328,2.535,9.438,9.438,0,0,1,.669,2.728A26.949,26.949,0,0,0,59,32c0-.213,0-.426-.007-.636ZM41.53,6.733a4.686,4.686,0,0,0,.87,1.155,3.685,3.685,0,0,1,1.179,2.228,7.632,7.632,0,0,1-.047,1.077,1.467,1.467,0,0,0,.091.84,10.877,10.877,0,0,0,1.429,1.893,5.216,5.216,0,0,1,1.322,2.842,7.5,7.5,0,0,1-.71,2.709,2.949,2.949,0,0,0-.178.688.389.389,0,0,0,.108.358,2.513,2.513,0,0,0,1.529.508,15.412,15.412,0,0,0,2.16-.073,7.5,7.5,0,0,1,3.417.915,11.092,11.092,0,0,0,4.794,1.219A27.1,27.1,0,0,0,41.53,6.733Z" fill="#6bb575" fill-rule="evenodd"/>
      <path id="Trazado_1176647" data-name="Trazado 1176647" d="M55.715,37.065A26.936,26.936,0,0,1,48.75,50.6a10.2,10.2,0,0,1,.462,2.192A26.949,26.949,0,0,0,59,32c0-.213,0-.426-.007-.636a.526.526,0,0,0-.229.034c-.216.089-.312.322-.418.572A7.821,7.821,0,0,0,58,33.061a10.85,10.85,0,0,1-.959,2.779A2.969,2.969,0,0,1,55.715,37.065Zm-14.769-.54c.489.2.975.419,1.435.579a4.489,4.489,0,0,0,1.693.3,2.409,2.409,0,0,0,1.089-.31c-.7-.246-1.456-.616-2.194-.878-.768-.273-1.532-.516-2.005.277l-.018.031Zm7.929-.28c.136.107.273.212.413.311a3.581,3.581,0,0,0,3.143.672,2.89,2.89,0,0,0,.512-.18,5.043,5.043,0,0,1-.845-.492c-.382-.268-.738-.584-1.117-.853a1.684,1.684,0,0,0-1.279-.4c-.185.028-.275.17-.374.3C49.172,35.806,49.031,36.034,48.875,36.245ZM43.193,8.915A27.111,27.111,0,0,1,54.506,22.6a9.194,9.194,0,0,0,2.988.493A27.1,27.1,0,0,0,41.53,6.733a4.686,4.686,0,0,0,.87,1.155,6.427,6.427,0,0,1,.793,1.027Z" fill="#61a169" fill-rule="evenodd"/>
    </g>
  </g>
</svg>
