<svg xmlns="http://www.w3.org/2000/svg" xmlns:xlink="http://www.w3.org/1999/xlink" width="103" height="103" viewBox="0 0 103 103">
  <defs>
    <filter id="Trazado_978624" x="0" y="0" width="103" height="103" filterUnits="userSpaceOnUse">
      <feOffset dy="3" input="SourceAlpha"/>
      <feGaussianBlur stdDeviation="3" result="blur"/>
      <feFlood flood-opacity="0.161"/>
      <feComposite operator="in" in2="blur"/>
      <feComposite in="SourceGraphic"/>
    </filter>
  </defs>
  <g id="Grupo_1232874" data-name="Grupo 1232874" transform="translate(-193.563 -1582.425)">
    <g id="Grupo_1231815" data-name="Grupo 1231815" transform="translate(0 -305.575)">
      <g id="Grupo_1220583" data-name="Grupo 1220583" transform="translate(202.563 1894)">
        <g id="Grupo_1218068" data-name="Grupo 1218068">
          <g id="Grupo_1213565" data-name="Grupo 1213565">
            <g id="Grupo_1210098" data-name="Grupo 1210098">
              <g id="Grupo_1178144" data-name="Grupo 1178144">
                <g id="Grupo_1177896" data-name="Grupo 1177896">
                  <g id="Grupo_1176881" data-name="Grupo 1176881">
                    <g id="Grupo_1175148" data-name="Grupo 1175148">
                      <g id="Grupo_1173798" data-name="Grupo 1173798">
                        <g id="Grupo_1171925" data-name="Grupo 1171925">
                          <g id="Grupo_1164524" data-name="Grupo 1164524">
                            <g id="Grupo_1144123" data-name="Grupo 1144123">
                              <g transform="matrix(1, 0, 0, 1, -9, -6)" filter="url(#Trazado_978624)">
                                <g id="Trazado_978624-2" data-name="Trazado 978624" transform="translate(9 6)" fill="#fef5ed">
                                  <path d="M 42.5 83.5 C 36.96437835693359 83.5 31.59512901306152 82.41617584228516 26.54141235351562 80.27863311767578 C 21.65934181213379 78.21369171142578 17.27447128295898 75.25723266601562 13.50862312316895 71.49137878417969 C 9.742764472961426 67.72553253173828 6.786305904388428 63.34066009521484 4.721364498138428 58.45858764648438 C 2.583823442459106 53.40486907958984 1.5 48.03562164306641 1.5 42.5 C 1.5 36.96437835693359 2.583823442459106 31.59512901306152 4.721364498138428 26.54141235351562 C 6.786305904388428 21.65934181213379 9.742764472961426 17.27447128295898 13.50862312316895 13.50862312316895 C 17.27447128295898 9.742764472961426 21.65934181213379 6.786305904388428 26.54141235351562 4.721364498138428 C 31.59512901306152 2.583823442459106 36.96437835693359 1.5 42.5 1.5 C 48.03562164306641 1.5 53.40486907958984 2.583823442459106 58.45858764648438 4.721364498138428 C 63.34066009521484 6.786305904388428 67.72553253173828 9.742764472961426 71.49137878417969 13.50862312316895 C 75.25723266601562 17.27447128295898 78.21369171142578 21.65934181213379 80.27863311767578 26.54141235351562 C 82.41617584228516 31.59512901306152 83.5 36.96437835693359 83.5 42.5 C 83.5 48.03562164306641 82.41617584228516 53.40486907958984 80.27863311767578 58.45858764648438 C 78.21369171142578 63.34066009521484 75.25723266601562 67.72553253173828 71.49137878417969 71.49137878417969 C 67.72553253173828 75.25723266601562 63.34066009521484 78.21369171142578 58.45858764648438 80.27863311767578 C 53.40486907958984 82.41617584228516 48.03562164306641 83.5 42.5 83.5 Z" stroke="none"/>
                                  <path d="M 42.5 3 C 37.16621398925781 3 31.99356079101562 4.043960571289062 27.125732421875 6.102882385253906 C 22.42246627807617 8.092185974121094 18.19785308837891 10.94070434570312 14.56928253173828 14.56928253173828 C 10.94070434570312 18.19785308837891 8.092185974121094 22.42246627807617 6.102882385253906 27.125732421875 C 4.043960571289062 31.99356079101562 3 37.16621398925781 3 42.5 C 3 47.83378601074219 4.043960571289062 53.00643920898438 6.102882385253906 57.87425231933594 C 8.092185974121094 62.57753372192383 10.94070434570312 66.80213165283203 14.56928253173828 70.43071746826172 C 18.19786834716797 74.05929565429688 22.42246627807617 76.90781402587891 27.125732421875 78.89711761474609 C 31.99356079101562 80.95603942871094 37.16621398925781 82 42.5 82 C 47.83378601074219 82 53.00642395019531 80.95603942871094 57.87425231933594 78.89711761474609 C 62.57753372192383 76.90781402587891 66.80213165283203 74.05929565429688 70.43071746826172 70.43071746826172 C 74.05929565429688 66.80213165283203 76.90781402587891 62.57753372192383 78.89711761474609 57.87425231933594 C 80.95603942871094 53.00642395019531 82 47.83378601074219 82 42.5 C 82 37.16621398925781 80.95603942871094 31.99356079101562 78.89711761474609 27.125732421875 C 76.90781402587891 22.42246627807617 74.05929565429688 18.19786834716797 70.43071746826172 14.56928253173828 C 66.80213165283203 10.94070434570312 62.57753372192383 8.092185974121094 57.87425231933594 6.102882385253906 C 53.00643920898438 4.043960571289062 47.83378601074219 3 42.5 3 M 42.5 0 C 65.97209167480469 0 85 19.02789306640625 85 42.5 C 85 65.97209167480469 65.97209167480469 85 42.5 85 C 19.02789306640625 85 0 65.97209167480469 0 42.5 C 0 19.02789306640625 19.02789306640625 0 42.5 0 Z" stroke="none" fill="#f9a858"/>
                                </g>
                              </g>
                            </g>
                          </g>
                        </g>
                      </g>
                    </g>
                  </g>
                </g>
              </g>
            </g>
          </g>
        </g>
      </g>
    </g>
    <g id="blindaje" transform="translate(173.396 1591.126)">
      <path id="Trazado_1176039" data-name="Trazado 1176039" d="M120.986,61h-13.85a24.358,24.358,0,0,1-11.751,7.315V81.293c0,6.288,2.79,12.167,8.292,17.471a40.893,40.893,0,0,0,10.383,7.212,40.838,40.838,0,0,0,10.386-7.212c5.5-5.3,8.288-11.18,8.288-17.471V68.315A24.359,24.359,0,0,1,120.986,61Z" transform="translate(-42.395 -42.419)" fill="#59abff"/>
      <path id="Trazado_1176040" data-name="Trazado 1176040" d="M262.913,61h-6.927v44.975a40.838,40.838,0,0,0,10.386-7.212c5.5-5.3,8.288-11.18,8.288-17.471V68.315A24.359,24.359,0,0,1,262.913,61Z" transform="translate(-184.322 -42.419)" fill="#4a9be5"/>
      <path id="Trazado_1176041" data-name="Trazado 1176041" d="M173.533,138.754l-4.977-8.615-4.974-8.616a2.491,2.491,0,0,0-4.319,0l-4.973,8.615-4.977,8.616a2.493,2.493,0,0,0,2.161,3.74h19.9a2.493,2.493,0,0,0,2.16-3.741Z" transform="translate(-89.758 -94.801)" fill="#ffdf40"/>
      <path id="Trazado_1176042" data-name="Trazado 1176042" d="M265.934,142.49a2.493,2.493,0,0,0,2.16-3.74l-4.977-8.615-4.974-8.616a2.412,2.412,0,0,0-2.161-1.249v22.22Z" transform="translate(-184.319 -94.797)" fill="#ffbe40"/>
      <path id="Trazado_1176043" data-name="Trazado 1176043" d="M71.664,69.511a.929.929,0,0,1-.316-.055C66.374,67.661,60.764,63.6,57.41,60.365a34.866,34.866,0,0,1-7.221-9.686,26.649,26.649,0,0,1-2.777-11.8V22.216a.93.93,0,0,1,.771-.916c4.307-.746,10.135-2.717,13.443-7.872A.93.93,0,0,1,62.409,13H80.92a.93.93,0,0,1,.783.427c3.312,5.155,9.14,7.126,13.447,7.872a.93.93,0,0,1,.771.916V38.874a26.649,26.649,0,0,1-2.778,11.8,34.863,34.863,0,0,1-7.221,9.686c-3.355,3.233-8.966,7.3-13.942,9.091A.931.931,0,0,1,71.664,69.511ZM49.272,22.989V38.874c0,7.339,3.172,14.119,9.429,20.151a43.027,43.027,0,0,0,12.963,8.564,43.014,43.014,0,0,0,12.967-8.564c6.256-6.032,9.428-12.812,9.428-20.151V22.989A25.72,25.72,0,0,1,86.535,20.3a17.834,17.834,0,0,1-6.114-5.443H62.908A17.816,17.816,0,0,1,56.8,20.3a25.715,25.715,0,0,1-7.524,2.686ZM71.664,65.506a.929.929,0,0,1-.372-.078,42.4,42.4,0,0,1-11.3-7.743,31.281,31.281,0,0,1-6.372-8.461,23,23,0,0,1-2.488-10.35V25.2a.93.93,0,0,1,.684-.9,22.6,22.6,0,0,0,11.769-7.233.93.93,0,0,1,.721-.344H79.028a.93.93,0,0,1,.722.344A22.607,22.607,0,0,0,91.515,24.3a.93.93,0,0,1,.684.9V38.874a23.018,23.018,0,0,1-2.487,10.35,31.266,31.266,0,0,1-6.37,8.461,42.377,42.377,0,0,1-11.3,7.744.93.93,0,0,1-.372.077ZM52.99,25.9V38.874c0,6.288,2.79,12.167,8.292,17.471a40.893,40.893,0,0,0,10.383,7.212,40.838,40.838,0,0,0,10.386-7.212c5.5-5.3,8.288-11.18,8.288-17.471V25.9a24.359,24.359,0,0,1-11.748-7.315H64.741A24.357,24.357,0,0,1,52.99,25.9ZM71.664,40.1a2.665,2.665,0,0,1-2.616-2.568l-.3-5.961a2.749,2.749,0,0,1,.77-2.047,2.965,2.965,0,0,1,4.3,0,2.747,2.747,0,0,1,.77,2.047l-.3,5.959a2.661,2.661,0,0,1-2.62,2.571Zm0-9.641a1.11,1.11,0,0,0-.8.345.914.914,0,0,0-.261.671l.3,5.959a.761.761,0,1,0,1.52,0l.3-5.96a.913.913,0,0,0-.261-.67A1.115,1.115,0,0,0,71.664,30.464Zm0,15.929a2.621,2.621,0,1,1,2.621-2.621,2.621,2.621,0,0,1-2.621,2.621Zm0-3.382a.761.761,0,1,0,.761.761.761.761,0,0,0-.761-.761Zm9.95,6.542h-19.9a4.353,4.353,0,0,1-3.772-6.529l4.977-8.617L67.9,25.792a4.351,4.351,0,0,1,7.541,0h0l4.974,8.616,4.977,8.615a4.353,4.353,0,0,1-3.772,6.531Zm-9.95-24.08a2.41,2.41,0,0,0-2.158,1.25l-4.973,8.615-4.977,8.616a2.493,2.493,0,0,0,2.161,3.74h19.9a2.493,2.493,0,0,0,2.16-3.741L78.8,35.339l-4.974-8.616a2.412,2.412,0,0,0-2.16-1.249Z" transform="translate(0 0)"/>
      <path id="Trazado_1176044" data-name="Trazado 1176044" d="M250.206,271.1a.761.761,0,1,0,.761.761A.761.761,0,0,0,250.206,271.1Z" transform="translate(-178.541 -228.089)" fill="#ec4c36"/>
      <path id="Trazado_1176045" data-name="Trazado 1176045" d="M247.912,170.968a.8.8,0,0,0,.762-.8l.3-5.96a.913.913,0,0,0-.261-.67,1.1,1.1,0,0,0-1.605,0,.914.914,0,0,0-.261.671l.3,5.959A.8.8,0,0,0,247.912,170.968Z" transform="translate(-176.247 -132.724)" fill="#ec4c36"/>
      <path id="Trazado_1176046" data-name="Trazado 1176046" d="M72.841,73.165A43.027,43.027,0,0,0,85.8,81.728a43.014,43.014,0,0,0,12.967-8.564c6.256-6.032,9.428-12.812,9.428-20.151V37.129a25.72,25.72,0,0,1-7.524-2.686A17.833,17.833,0,0,1,94.561,29H77.047a17.816,17.816,0,0,1-6.112,5.443,25.724,25.724,0,0,1-7.524,2.686V53.014C63.412,60.353,66.584,67.132,72.841,73.165ZM65.269,53.014V39.335a.93.93,0,0,1,.684-.9A22.6,22.6,0,0,0,77.722,31.2a.93.93,0,0,1,.722-.344H93.167a.93.93,0,0,1,.722.344,22.607,22.607,0,0,0,11.766,7.234.93.93,0,0,1,.684.9V53.014a23.018,23.018,0,0,1-2.487,10.35,31.266,31.266,0,0,1-6.37,8.461,42.377,42.377,0,0,1-11.3,7.744.93.93,0,0,1-.745,0,42.4,42.4,0,0,1-11.3-7.743,31.281,31.281,0,0,1-6.372-8.461A23,23,0,0,1,65.269,53.014Z" transform="translate(-14.14 -14.14)" fill="#bec7cf"/>
      <path id="Trazado_1176047" data-name="Trazado 1176047" d="M264.743,29h-8.757v1.86h7.363a.93.93,0,0,1,.722.344,22.608,22.608,0,0,0,11.766,7.234.93.93,0,0,1,.684.9V53.014a23.018,23.018,0,0,1-2.487,10.35,31.266,31.266,0,0,1-6.37,8.461,42.377,42.377,0,0,1-11.3,7.744.93.93,0,0,1-.372.078v2.083a43.014,43.014,0,0,0,12.967-8.564c6.256-6.032,9.428-12.812,9.428-20.151V37.129a25.721,25.721,0,0,1-7.524-2.686A17.832,17.832,0,0,1,264.743,29Z" transform="translate(-184.322 -14.14)" fill="#abb3ba"/>
    </g>
  </g>
</svg>
