<svg xmlns="http://www.w3.org/2000/svg" xmlns:xlink="http://www.w3.org/1999/xlink" width="85.895" height="85.895" viewBox="0 0 85.895 85.895">
  <defs>
    <filter id="Trazado_904820" x="0" y="0" width="85.895" height="85.895" filterUnits="userSpaceOnUse">
      <feOffset dy="3" input="SourceAlpha"/>
      <feGaussianBlur stdDeviation="3" result="blur"/>
      <feFlood flood-opacity="0.161"/>
      <feComposite operator="in" in2="blur"/>
      <feComposite in="SourceGraphic"/>
    </filter>
  </defs>
  <g id="Grupo_1232997" data-name="Grupo 1232997" transform="translate(-193.776 -9931.053)">
    <g id="Grupo_1223387" data-name="Grupo 1223387" transform="translate(0 1935)">
      <g id="Grupo_1223165" data-name="Grupo 1223165" transform="translate(202.776 8002.053)">
        <g id="Grupo_1173585" data-name="Grupo 1173585" transform="translate(0 0)">
          <g id="Grupo_1173428" data-name="Grupo 1173428">
            <g id="Grupo_1171958" data-name="Grupo 1171958">
              <g id="Grupo_1167341" data-name="Grupo 1167341">
                <g id="Grupo_1166792" data-name="Grupo 1166792">
                  <g transform="matrix(1, 0, 0, 1, -9, -6)" filter="url(#Trazado_904820)">
                    <g id="Trazado_904820-2" data-name="Trazado 904820" transform="translate(9 6)" fill="#eaf5fb">
                      <path d="M 33.947265625 66.39455413818359 C 29.56625556945801 66.39455413818359 25.31708526611328 65.536865234375 21.31778526306152 63.84530639648438 C 17.45416641235352 62.21112823486328 13.98396587371826 59.87134552001953 11.00358581542969 56.89096832275391 C 8.023205757141113 53.91057586669922 5.683425426483154 50.44037628173828 4.049255847930908 46.57675552368164 C 2.357695579528809 42.57745742797852 1.500005602836609 38.32828521728516 1.500005602836609 33.9472770690918 C 1.500005602836609 29.56625747680664 2.357695579528809 25.31708717346191 4.049255847930908 21.31778717041016 C 5.683425426483154 17.45416641235352 8.023205757141113 13.98396682739258 11.00358581542969 11.003586769104 C 13.98396587371826 8.023197174072266 17.45416641235352 5.683416843414307 21.31778526306152 4.049247264862061 C 25.31707572937012 2.357686996459961 29.56625556945801 1.499997019767761 33.947265625 1.499997019767761 C 38.32827377319336 1.499997019767761 42.57745742797852 2.357686996459961 46.57674407958984 4.049247264862061 C 50.44036483764648 5.683416843414307 53.91056442260742 8.023197174072266 56.89094543457031 11.003586769104 C 59.87133407592773 13.98396682739258 62.21111679077148 17.45416641235352 63.84528732299805 21.31778717041016 C 65.53684234619141 25.31708717346191 66.39453887939453 29.56625747680664 66.39453887939453 33.9472770690918 C 66.39453887939453 38.32828521728516 65.53684234619141 42.57745742797852 63.84528732299805 46.57675552368164 C 62.21111679077148 50.44037628173828 59.87133407592773 53.91057586669922 56.89094543457031 56.89096832275391 C 53.91056442260742 59.87134552001953 50.44036483764648 62.21112823486328 46.57674407958984 63.84530639648438 C 42.57745742797852 65.536865234375 38.32827377319336 66.39455413818359 33.947265625 66.39455413818359 Z" stroke="none"/>
                      <path d="M 33.947265625 3 C 29.76808929443359 3 25.71552276611328 3.817825317382812 21.9021110534668 5.430755615234375 C 18.21730041503906 6.989311218261719 14.90735626220703 9.221134185791016 12.06424331665039 12.06424331665039 C 9.221134185791016 14.90735626220703 6.989311218261719 18.21730041503906 5.430755615234375 21.90212249755859 C 3.817817687988281 25.71552276611328 3 29.76810073852539 3 33.9472770690918 C 3 38.12645721435547 3.817817687988281 42.17902374267578 5.430755615234375 45.99242401123047 C 6.989311218261719 49.67724609375 9.221134185791016 52.98719024658203 12.06424331665039 55.83029937744141 C 14.90735626220703 58.67340850830078 18.21730041503906 60.90524291992188 21.90212249755859 62.46379852294922 C 25.71552276611328 64.07673645019531 29.76808929443359 64.89455413818359 33.947265625 64.89455413818359 C 38.12644195556641 64.89455413818359 42.17900848388672 64.07673645019531 45.99240875244141 62.46379852294922 C 49.67723083496094 60.90524291992188 52.98717498779297 58.67340850830078 55.83028793334961 55.83029937744141 C 58.67340087890625 52.98719024658203 60.90522003173828 49.67724609375 62.46377563476562 45.99242401123047 C 64.07671356201172 42.17902374267578 64.89453125 38.12645721435547 64.89453125 33.9472770690918 C 64.89453125 29.76810073852539 64.07671356201172 25.71552276611328 62.46377563476562 21.90212249755859 C 60.90522003173828 18.21730041503906 58.67340087890625 14.90735626220703 55.83028793334961 12.06424331665039 C 52.98717498779297 9.221134185791016 49.67723083496094 6.989311218261719 45.99242401123047 5.430755615234375 C 42.17900848388672 3.817825317382812 38.12644195556641 3 33.947265625 3 M 33.947265625 0 C 52.69581985473633 0 67.89453125 15.19871139526367 67.89453125 33.9472770690918 C 67.89453125 52.69582366943359 52.69581985473633 67.89455413818359 33.947265625 67.89455413818359 C 15.19871139526367 67.89455413818359 0 52.69582366943359 0 33.9472770690918 C 0 15.19871139526367 15.19871139526367 0 33.947265625 0 Z" stroke="none" fill="#3ea6db"/>
                    </g>
                  </g>
                </g>
              </g>
            </g>
          </g>
        </g>
      </g>
    </g>
    <g id="dia-del-padre" transform="translate(169.701 9946.999)">
      <g id="Grupo_1232995" data-name="Grupo 1232995" transform="translate(48.908 0.669)">
        <g id="Grupo_1232988" data-name="Grupo 1232988" transform="translate(11.554)">
          <path id="Trazado_1177274" data-name="Trazado 1177274" d="M189.171,356.362v-3.825l-5.733-3.919a6.975,6.975,0,0,1,6.969-6.981h10.737a6.975,6.975,0,0,1,6.969,6.981v7.744Z" transform="translate(-183.438 -311.395)" fill="#ace2fc"/>
          <path id="Trazado_1177275" data-name="Trazado 1177275" d="M342.751,341.636h-3.619a6.975,6.975,0,0,1,6.969,6.981v7.744h3.619v-7.744A6.975,6.975,0,0,0,342.751,341.636Z" transform="translate(-325.045 -311.395)" fill="#9adcfc"/>
          <path id="Trazado_1177276" data-name="Trazado 1177276" d="M296.269,309.032h0a2.34,2.34,0,0,1-2.34-2.34v-4.023h4.681v4.023A2.341,2.341,0,0,1,296.269,309.032Z" transform="translate(-283.931 -275.952)" fill="#ffdacf"/>
          <g id="Grupo_1232987" data-name="Grupo 1232987" transform="translate(0.982)">
            <g id="Grupo_1232986" data-name="Grupo 1232986">
              <path id="Trazado_1177277" data-name="Trazado 1177277" d="M232.374,63.184h0a8.7,8.7,0,0,1-8.7-8.7v-8.12a8.7,8.7,0,0,1,8.7-8.7h0a8.7,8.7,0,0,1,8.7,8.7v8.12A8.7,8.7,0,0,1,232.374,63.184Z" transform="translate(-221.018 -34.933)" fill="#ffdacf"/>
              <path id="Trazado_1177278" data-name="Trazado 1177278" d="M301.609,37.673h0a8.734,8.734,0,0,0-1.809.189c3.934.832,6.887,5.046,6.887,5.046v11.58A8.7,8.7,0,0,1,299.8,63a8.728,8.728,0,0,0,1.809.189h0a8.7,8.7,0,0,0,8.7-8.7v-8.12A8.7,8.7,0,0,0,301.609,37.673Z" transform="translate(-290.253 -34.933)" fill="#fcd2c4"/>
              <path id="Trazado_1177279" data-name="Trazado 1177279" d="M415.919,157.859h.849a1.7,1.7,0,0,1,1.705,1.705v1.713a1.7,1.7,0,0,1-1.705,1.705h-.849Z" transform="translate(-395.867 -144.245)" fill="#ffdacf"/>
              <path id="Trazado_1177280" data-name="Trazado 1177280" d="M350.569,37.673l3.779,1.461c3.037.213,5.1,5.176,2.133,9.467A14.86,14.86,0,0,1,350.569,37.673Z" transform="translate(-336.429 -34.933)" fill="#cf7a2a"/>
              <path id="Trazado_1177281" data-name="Trazado 1177281" d="M196.946,21s13.024.589,15.26-9.413a5.267,5.267,0,0,0-4.884-3.848c-2.885-.079-4.329,1.456-6.545,1.456a2.365,2.365,0,0,1-2.454-1.808,9.682,9.682,0,0,0-3.647,4.867A8.246,8.246,0,0,0,196.946,21Z" transform="translate(-194.287 -7.387)" fill="#e39446"/>
              <path id="Trazado_1177282" data-name="Trazado 1177282" d="M198,162.983h-.849a1.705,1.705,0,0,1-1.705-1.705v-1.713a1.7,1.7,0,0,1,1.705-1.705H198Z" transform="translate(-195.339 -144.246)" fill="#ffdacf"/>
            </g>
          </g>
        </g>
        <g id="Grupo_1232994" data-name="Grupo 1232994" transform="translate(0 15.033)">
          <g id="Grupo_1232993" data-name="Grupo 1232993">
            <g id="Grupo_1232992" data-name="Grupo 1232992">
              <g id="Grupo_1232989" data-name="Grupo 1232989">
                <path id="Trazado_1177283" data-name="Trazado 1177283" d="M73.6,182.484a8.93,8.93,0,1,0-17.86.112v13a2.954,2.954,0,0,0,2.952,2.957H70.648A2.954,2.954,0,0,0,73.6,195.6Z" transform="translate(-55.74 -173.538)" fill="#e39446"/>
              </g>
              <g id="Grupo_1232990" data-name="Grupo 1232990" transform="translate(0.39 22.102)">
                <path id="Trazado_1177284" data-name="Trazado 1177284" d="M60.046,425.64v-2.984a4.828,4.828,0,0,1,4.824-4.833H72.3a4.828,4.828,0,0,1,4.824,4.833v2.984Z" transform="translate(-60.046 -417.823)" fill="#ff9ee0"/>
                <path id="Trazado_1177285" data-name="Trazado 1177285" d="M159.133,417.823h-3.619a4.828,4.828,0,0,1,4.824,4.833v2.984h3.619v-2.984A4.828,4.828,0,0,0,159.133,417.823Z" transform="translate(-146.876 -417.823)" fill="#ff8ada"/>
              </g>
              <path id="Trazado_1177286" data-name="Trazado 1177286" d="M138.052,398.821h0a1.63,1.63,0,0,1-1.63-1.63v-2.8h3.26v2.8A1.63,1.63,0,0,1,138.052,398.821Z" transform="translate(-129.122 -374.407)" fill="#ffdacf"/>
              <g id="Grupo_1232991" data-name="Grupo 1232991" transform="translate(2.488 5.456)">
                <path id="Trazado_1177287" data-name="Trazado 1177287" d="M89.686,233.842s-.971,4.494-6.442,4.489v4.389a6.442,6.442,0,1,0,12.883,0v-4.389A6.216,6.216,0,0,1,89.686,233.842Z" transform="translate(-83.244 -233.842)" fill="#ffdacf"/>
              </g>
              <path id="Trazado_1177288" data-name="Trazado 1177288" d="M139.072,274.3v5.218a6.453,6.453,0,0,1-4.632,6.193,6.44,6.44,0,0,0,8.251-6.193v-4.389A6.621,6.621,0,0,1,139.072,274.3Z" transform="translate(-127.32 -265.18)" fill="#fcd2c4"/>
            </g>
          </g>
        </g>
      </g>
      <g id="Grupo_1232996" data-name="Grupo 1232996" transform="translate(48.229 0.001)">
        <path id="Trazado_1177289" data-name="Trazado 1177289" d="M78.167,30.232H75.818V29.1a9.478,9.478,0,0,0,6.356-9.016A2.425,2.425,0,0,0,84.729,17.7V15.988a2.387,2.387,0,0,0-2.023-2.356,8.123,8.123,0,0,0,.9-4.083.679.679,0,0,0-1.355.065,6.837,6.837,0,0,1-.933,3.73,14.728,14.728,0,0,1-3.285-3.956,11.161,11.161,0,0,0,1.829-3.732,2.985,2.985,0,0,1,1.4,1.052.679.679,0,0,0,1.077-.826,4.2,4.2,0,0,0-2.468-1.627c-1.564-4.1-5.747-4.46-9.4-3.078-1.694.713-3.835,1.128-4.321-.636A.679.679,0,0,0,65.108.1c-3.741,2.386-6.237,8.553-2.494,13.59a2.392,2.392,0,0,0-1.7,1.833C54.84,13.332,48.13,18.366,48.23,24.76c0,0,0,4.351,0,4.351a.679.679,0,0,0,1.357,0V24.76a8.252,8.252,0,1,1,16.5-.112V37.76a2.271,2.271,0,0,1-.382,1.265,5.488,5.488,0,0,0-4.153-1.9H60.147v-.343a7.143,7.143,0,0,0,4.811-6.747V25.647a.679.679,0,0,0-.7-.678,5.513,5.513,0,0,1-5.76-3.975.683.683,0,0,0-1.322.021c-.554,2.625-3.323,3.954-5.769,3.954a.73.73,0,0,0-.688.679v4.389a7.143,7.143,0,0,0,4.811,6.747v.343H54.122a5.488,5.488,0,0,0-4.153,1.9,2.271,2.271,0,0,1-.382-1.265V32.875a.679.679,0,0,0-1.357,0v4.885a3.617,3.617,0,0,0,.951,2.453,5.485,5.485,0,0,0-.561,2.423V45.62a.679.679,0,0,0,1.357,0V42.636a4.155,4.155,0,0,1,4.146-4.154h1.407a2.309,2.309,0,0,0,4.618,0h1.407A4.208,4.208,0,0,1,65.7,42.636V45.62a.679.679,0,0,0,1.357,0V42.636a5.484,5.484,0,0,0-.561-2.423,3.616,3.616,0,0,0,.951-2.454v-6.17h2.339a3.021,3.021,0,0,0,6.028,0h2.355a6.3,6.3,0,0,1,6.29,6.3v7.744a.679.679,0,1,0,1.357,0V37.892a7.662,7.662,0,0,0-7.647-7.66Zm-26.092-.2V26.3a7.059,7.059,0,0,0,5.773-3.417A6.891,6.891,0,0,0,63.6,26.322v3.714A5.763,5.763,0,0,1,52.075,30.036Zm5.763,9.4a.953.953,0,0,1-.952-.952V37.1a7.168,7.168,0,0,0,1.9,0v1.382A.953.953,0,0,1,57.838,39.437ZM83.372,15.988V17.7a1.068,1.068,0,0,1-1.2,1.026V14.962a1.068,1.068,0,0,1,1.2,1.027ZM62.486,5.72A8.587,8.587,0,0,1,65.2,1.741c1.23,1.969,3.791,1.535,5.744.706,2.954-1.116,6.56-1.05,7.714,2.444-1.519,6.345-8.387,8.774-14.3,8.718a7.607,7.607,0,0,1-1.875-7.89Zm-.26,10.268a1.068,1.068,0,0,1,1.2-1.027v1.852a9.544,9.544,0,0,0-1.2-.734Zm2.554,2.006V14.967c3.491.052,9.486-1.346,12.319-4.491a15.723,15.723,0,0,0,3.717,4.205v5.543a8.044,8.044,0,0,1-13.37,5.97C67.591,23.018,67.03,20.354,64.781,17.994Zm2.666,9.929A9.3,9.3,0,0,0,69.78,29.1v1.128H67.447ZM72.8,33.07a1.664,1.664,0,0,1-1.662-1.662V29.452a9.488,9.488,0,0,0,3.324,0v1.956A1.664,1.664,0,0,1,72.8,33.07Z" transform="translate(-48.229 -0.001)"/>
        <path id="Trazado_1177290" data-name="Trazado 1177290" d="M276.554,252.216a5.761,5.761,0,0,0,4.1-1.7.679.679,0,1,0-.96-.959,4.457,4.457,0,0,1-6.286,0,.679.679,0,1,0-.96.959A5.76,5.76,0,0,0,276.554,252.216Z" transform="translate(-251.984 -226.794)"/>
        <path id="Trazado_1177291" data-name="Trazado 1177291" d="M392.15,429.332a.679.679,0,0,0-.679.679v6.112a.679.679,0,0,0,1.357,0v-6.112A.679.679,0,0,0,392.15,429.332Z" transform="translate(-360.416 -390.488)"/>
        <path id="Trazado_1177292" data-name="Trazado 1177292" d="M92.813,476.221a.679.679,0,0,0-.679.679v1.855a.679.679,0,0,0,1.357,0V476.9A.679.679,0,0,0,92.813,476.221Z" transform="translate(-88.162 -433.135)"/>
        <path id="Trazado_1177293" data-name="Trazado 1177293" d="M202.425,476.221a.679.679,0,0,0-.679.679v1.855a.679.679,0,0,0,1.357,0V476.9A.679.679,0,0,0,202.425,476.221Z" transform="translate(-187.856 -433.135)"/>
        <path id="Trazado_1177294" data-name="Trazado 1177294" d="M126.9,351.592a.679.679,0,0,0-.96-.959,2.627,2.627,0,0,1-3.723,0,.679.679,0,0,0-.96.959A4,4,0,0,0,126.9,351.592Z" transform="translate(-114.468 -318.725)"/>
      </g>
    </g>
  </g>
</svg>
