<svg xmlns="http://www.w3.org/2000/svg" xmlns:xlink="http://www.w3.org/1999/xlink" width="85.895" height="85.895" viewBox="0 0 85.895 85.895">
  <defs>
    <filter id="Trazado_904820" x="0" y="0" width="85.895" height="85.895" filterUnits="userSpaceOnUse">
      <feOffset dy="3" input="SourceAlpha"/>
      <feGaussianBlur stdDeviation="3" result="blur"/>
      <feFlood flood-opacity="0.161"/>
      <feComposite operator="in" in2="blur"/>
      <feComposite in="SourceGraphic"/>
    </filter>
  </defs>
  <g id="Grupo_1233003" data-name="Grupo 1233003" transform="translate(-613.776 -9931.053)">
    <g id="Grupo_1223388" data-name="Grupo 1223388" transform="translate(0 1935)">
      <g id="Grupo_1223166" data-name="Grupo 1223166" transform="translate(622.776 8002.053)">
        <g id="Grupo_1173585" data-name="Grupo 1173585" transform="translate(0 0)">
          <g id="Grupo_1173428" data-name="Grupo 1173428">
            <g id="Grupo_1171958" data-name="Grupo 1171958">
              <g id="Grupo_1167341" data-name="Grupo 1167341">
                <g id="Grupo_1166792" data-name="Grupo 1166792">
                  <g transform="matrix(1, 0, 0, 1, -9, -6)" filter="url(#Trazado_904820)">
                    <g id="Trazado_904820-2" data-name="Trazado 904820" transform="translate(9 6)" fill="#eaf5fb">
                      <path d="M 33.947265625 66.39455413818359 C 29.56625556945801 66.39455413818359 25.31708526611328 65.536865234375 21.31778526306152 63.84530639648438 C 17.45416641235352 62.21112823486328 13.98396587371826 59.87134552001953 11.00358581542969 56.89096832275391 C 8.023205757141113 53.91057586669922 5.683425426483154 50.44037628173828 4.049255847930908 46.57675552368164 C 2.357695579528809 42.57745742797852 1.500005602836609 38.32828521728516 1.500005602836609 33.9472770690918 C 1.500005602836609 29.56625747680664 2.357695579528809 25.31708717346191 4.049255847930908 21.31778717041016 C 5.683425426483154 17.45416641235352 8.023205757141113 13.98396682739258 11.00358581542969 11.003586769104 C 13.98396587371826 8.023197174072266 17.45416641235352 5.683416843414307 21.31778526306152 4.049247264862061 C 25.31707572937012 2.357686996459961 29.56625556945801 1.499997019767761 33.947265625 1.499997019767761 C 38.32827377319336 1.499997019767761 42.57745742797852 2.357686996459961 46.57674407958984 4.049247264862061 C 50.44036483764648 5.683416843414307 53.91056442260742 8.023197174072266 56.89094543457031 11.003586769104 C 59.87133407592773 13.98396682739258 62.21111679077148 17.45416641235352 63.84528732299805 21.31778717041016 C 65.53684234619141 25.31708717346191 66.39453887939453 29.56625747680664 66.39453887939453 33.9472770690918 C 66.39453887939453 38.32828521728516 65.53684234619141 42.57745742797852 63.84528732299805 46.57675552368164 C 62.21111679077148 50.44037628173828 59.87133407592773 53.91057586669922 56.89094543457031 56.89096832275391 C 53.91056442260742 59.87134552001953 50.44036483764648 62.21112823486328 46.57674407958984 63.84530639648438 C 42.57745742797852 65.536865234375 38.32827377319336 66.39455413818359 33.947265625 66.39455413818359 Z" stroke="none"/>
                      <path d="M 33.947265625 3 C 29.76808929443359 3 25.71552276611328 3.817825317382812 21.9021110534668 5.430755615234375 C 18.21730041503906 6.989311218261719 14.90735626220703 9.221134185791016 12.06424331665039 12.06424331665039 C 9.221134185791016 14.90735626220703 6.989311218261719 18.21730041503906 5.430755615234375 21.90212249755859 C 3.817817687988281 25.71552276611328 3 29.76810073852539 3 33.9472770690918 C 3 38.12645721435547 3.817817687988281 42.17902374267578 5.430755615234375 45.99242401123047 C 6.989311218261719 49.67724609375 9.221134185791016 52.98719024658203 12.06424331665039 55.83029937744141 C 14.90735626220703 58.67340850830078 18.21730041503906 60.90524291992188 21.90212249755859 62.46379852294922 C 25.71552276611328 64.07673645019531 29.76808929443359 64.89455413818359 33.947265625 64.89455413818359 C 38.12644195556641 64.89455413818359 42.17900848388672 64.07673645019531 45.99240875244141 62.46379852294922 C 49.67723083496094 60.90524291992188 52.98717498779297 58.67340850830078 55.83028793334961 55.83029937744141 C 58.67340087890625 52.98719024658203 60.90522003173828 49.67724609375 62.46377563476562 45.99242401123047 C 64.07671356201172 42.17902374267578 64.89453125 38.12645721435547 64.89453125 33.9472770690918 C 64.89453125 29.76810073852539 64.07671356201172 25.71552276611328 62.46377563476562 21.90212249755859 C 60.90522003173828 18.21730041503906 58.67340087890625 14.90735626220703 55.83028793334961 12.06424331665039 C 52.98717498779297 9.221134185791016 49.67723083496094 6.989311218261719 45.99242401123047 5.430755615234375 C 42.17900848388672 3.817825317382812 38.12644195556641 3 33.947265625 3 M 33.947265625 0 C 52.69581985473633 0 67.89453125 15.19871139526367 67.89453125 33.9472770690918 C 67.89453125 52.69582366943359 52.69581985473633 67.89455413818359 33.947265625 67.89455413818359 C 15.19871139526367 67.89455413818359 0 52.69582366943359 0 33.9472770690918 C 0 15.19871139526367 15.19871139526367 0 33.947265625 0 Z" stroke="none" fill="#3ea6db"/>
                    </g>
                  </g>
                </g>
              </g>
            </g>
          </g>
        </g>
      </g>
    </g>
    <g id="emociones" transform="translate(633.614 9932.161)">
      <g id="Grupo_1232998" data-name="Grupo 1232998" transform="translate(0.903 34.461)">
        <path id="Trazado_1177295" data-name="Trazado 1177295" d="M33.683,236.192c-.581,15.69-23.1,15.687-23.683,0a11.844,11.844,0,0,1,11.99-11.84,11.836,11.836,0,0,0,10.021,5.772A11.785,11.785,0,0,1,33.683,236.192Z" transform="translate(-10 -224.35)" fill="#00dff6"/>
      </g>
      <g id="Grupo_1232999" data-name="Grupo 1232999" transform="translate(23.109 34.461)">
        <path id="Trazado_1177296" data-name="Trazado 1177296" d="M278.206,236.193c-.082,12.256-16.348,16.269-22.206,5.731a11.96,11.96,0,0,0,0-11.462c.063-.114.128-.227.195-.339a11.834,11.834,0,0,0,9.928-5.768A11.845,11.845,0,0,1,278.206,236.193Z" transform="translate(-256 -224.351)" fill="#ff9db0"/>
      </g>
      <g id="Grupo_1233001" data-name="Grupo 1233001" transform="translate(11.297 16.552)">
        <g id="Grupo_1233000" data-name="Grupo 1233000" transform="translate(0 0)">
          <path id="Trazado_1177297" data-name="Trazado 1177297" d="M148.754,37.791a11.841,11.841,0,0,1-11.841,11.841c-15.69-.581-15.686-23.1,0-23.683A11.841,11.841,0,0,1,148.754,37.791Z" transform="translate(-125.146 -25.95)" fill="#fff09c"/>
        </g>
      </g>
      <g id="Grupo_1233002" data-name="Grupo 1233002" transform="translate(0 15.619)">
        <path id="Trazado_1177298" data-name="Trazado 1177298" d="M77.981,378.319l-.406.267a.5.5,0,0,1-.555,0l-.812-.534a2.31,2.31,0,0,0-2.539,0l-.812.534a.505.505,0,0,1-.555,0l-.812-.534a2.311,2.311,0,0,0-2.539,0l-.812.534a.5.5,0,0,1-.555,0l-.406-.267a.9.9,0,1,0-.992,1.509l.406.267a2.31,2.31,0,0,0,2.539,0l.812-.534a.5.5,0,0,1,.555,0l.812.534a2.31,2.31,0,0,0,2.539,0l.812-.534a.505.505,0,0,1,.555,0l.812.534a2.31,2.31,0,0,0,2.539,0l.406-.267a.9.9,0,0,0-.992-1.509Z" transform="translate(-59.842 -344.99)"/>
        <path id="Trazado_1177299" data-name="Trazado 1177299" d="M164.417,313.269H166.5a.9.9,0,0,0,0-1.805h-2.079A.9.9,0,0,0,164.417,313.269Z" transform="translate(-148.759 -284.758)"/>
        <path id="Trazado_1177300" data-name="Trazado 1177300" d="M76.692,313.269h2.079a.9.9,0,0,0,0-1.805H76.692A.9.9,0,0,0,76.692,313.269Z" transform="translate(-68.953 -284.758)"/>
        <path id="Trazado_1177301" data-name="Trazado 1177301" d="M34.687,33.617a12.823,12.823,0,0,0,.549-9.007.9.9,0,1,0-1.724.535c2.223,6.718-3.132,14.116-10.195,14.184A11.078,11.078,0,0,1,12.124,28.393c-.112-8.635,9.981-13.993,17.06-9.067a.9.9,0,0,0,1.011-1.5C19.532,10.746,6.28,21.943,11.443,33.624A12.762,12.762,0,0,0,0,46.3c.037,12.392,16.016,17.366,23.106,7.411,7.168,9.995,23.077,4.929,23.111-7.411A12.761,12.761,0,0,0,34.687,33.617ZM12.744,57.241C-1.546,56.72-1.833,36.326,12.4,35.369a12.85,12.85,0,0,0,9.982,5.75,10.94,10.94,0,0,1-9.634,16.122Zm20.729,0a10.954,10.954,0,0,1-9.333-5.23,12.856,12.856,0,0,0,.227-10.94,12.662,12.662,0,0,0,9.364-5.7C48.038,36.224,47.806,56.718,33.474,57.241Z" transform="translate(0 -15.619)"/>
        <path id="Trazado_1177302" data-name="Trazado 1177302" d="M396.168,309.261a.9.9,0,0,0,.418-.1l1.9-.993a.9.9,0,1,0-.837-1.6l-1.9.993a.9.9,0,0,0,.419,1.7Z" transform="translate(-359.584 -280.208)"/>
        <path id="Trazado_1177303" data-name="Trazado 1177303" d="M306.039,308.172l1.989.993a.913.913,0,0,0,1.211-.4.9.9,0,0,0-.4-1.211l-1.989-.993a.9.9,0,0,0-.807,1.615Z" transform="translate(-277.959 -280.207)"/>
        <path id="Trazado_1177304" data-name="Trazado 1177304" d="M315.117,371.385a9.56,9.56,0,0,0-11.586,0,.9.9,0,1,0,1.167,1.377,7.749,7.749,0,0,1,9.253,0,.9.9,0,0,0,1.165-1.379Z" transform="translate(-275.841 -337.491)"/>
        <path id="Trazado_1177305" data-name="Trazado 1177305" d="M203.339,100.216a.9.9,0,0,0,.9-.9V97.234a.9.9,0,0,0-1.805,0v2.079A.9.9,0,0,0,203.339,100.216Z" transform="translate(-184.162 -89.051)"/>
        <path id="Trazado_1177306" data-name="Trazado 1177306" d="M290.172,99.313V97.234a.9.9,0,0,0-1.805,0v2.079A.9.9,0,0,0,290.172,99.313Z" transform="translate(-262.336 -89.051)"/>
        <path id="Trazado_1177307" data-name="Trazado 1177307" d="M187.908,182.912a.9.9,0,0,0,.1,1.272,9.56,9.56,0,0,0,11.586,0,.9.9,0,1,0-1.167-1.377,7.749,7.749,0,0,1-9.253,0A.9.9,0,0,0,187.908,182.912Z" transform="translate(-170.751 -167.52)"/>
        <path id="Trazado_1177308" data-name="Trazado 1177308" d="M351.69,71.271a.912.912,0,0,0,1.179.488.9.9,0,0,0-.691-1.667A.912.912,0,0,0,351.69,71.271Z" transform="translate(-319.883 -65.114)"/>
      </g>
    </g>
  </g>
</svg>
