<svg xmlns="http://www.w3.org/2000/svg" xmlns:xlink="http://www.w3.org/1999/xlink" width="85.895" height="85.895" viewBox="0 0 85.895 85.895">
  <defs>
    <filter id="Trazado_904820" x="0" y="0" width="85.895" height="85.895" filterUnits="userSpaceOnUse">
      <feOffset dy="3" input="SourceAlpha"/>
      <feGaussianBlur stdDeviation="3" result="blur"/>
      <feFlood flood-opacity="0.161"/>
      <feComposite operator="in" in2="blur"/>
      <feComposite in="SourceGraphic"/>
    </filter>
  </defs>
  <g id="Grupo_1233007" data-name="Grupo 1233007" transform="translate(-1033.776 -9931.053)">
    <g id="Grupo_1223401" data-name="Grupo 1223401" transform="translate(0 1935)">
      <g id="Grupo_1223167" data-name="Grupo 1223167" transform="translate(1042.776 8002.053)">
        <g id="Grupo_1173585" data-name="Grupo 1173585" transform="translate(0 0)">
          <g id="Grupo_1173428" data-name="Grupo 1173428">
            <g id="Grupo_1171958" data-name="Grupo 1171958">
              <g id="Grupo_1167341" data-name="Grupo 1167341">
                <g id="Grupo_1166792" data-name="Grupo 1166792">
                  <g transform="matrix(1, 0, 0, 1, -9, -6)" filter="url(#Trazado_904820)">
                    <g id="Trazado_904820-2" data-name="Trazado 904820" transform="translate(9 6)" fill="#eaf5fb">
                      <path d="M 33.947265625 66.39455413818359 C 29.56625556945801 66.39455413818359 25.31708526611328 65.536865234375 21.31778526306152 63.84530639648438 C 17.45416641235352 62.21112823486328 13.98396587371826 59.87134552001953 11.00358581542969 56.89096832275391 C 8.023205757141113 53.91057586669922 5.683425426483154 50.44037628173828 4.049255847930908 46.57675552368164 C 2.357695579528809 42.57745742797852 1.500005602836609 38.32828521728516 1.500005602836609 33.9472770690918 C 1.500005602836609 29.56625747680664 2.357695579528809 25.31708717346191 4.049255847930908 21.31778717041016 C 5.683425426483154 17.45416641235352 8.023205757141113 13.98396682739258 11.00358581542969 11.003586769104 C 13.98396587371826 8.023197174072266 17.45416641235352 5.683416843414307 21.31778526306152 4.049247264862061 C 25.31707572937012 2.357686996459961 29.56625556945801 1.499997019767761 33.947265625 1.499997019767761 C 38.32827377319336 1.499997019767761 42.57745742797852 2.357686996459961 46.57674407958984 4.049247264862061 C 50.44036483764648 5.683416843414307 53.91056442260742 8.023197174072266 56.89094543457031 11.003586769104 C 59.87133407592773 13.98396682739258 62.21111679077148 17.45416641235352 63.84528732299805 21.31778717041016 C 65.53684234619141 25.31708717346191 66.39453887939453 29.56625747680664 66.39453887939453 33.9472770690918 C 66.39453887939453 38.32828521728516 65.53684234619141 42.57745742797852 63.84528732299805 46.57675552368164 C 62.21111679077148 50.44037628173828 59.87133407592773 53.91057586669922 56.89094543457031 56.89096832275391 C 53.91056442260742 59.87134552001953 50.44036483764648 62.21112823486328 46.57674407958984 63.84530639648438 C 42.57745742797852 65.536865234375 38.32827377319336 66.39455413818359 33.947265625 66.39455413818359 Z" stroke="none"/>
                      <path d="M 33.947265625 3 C 29.76808929443359 3 25.71552276611328 3.817825317382812 21.9021110534668 5.430755615234375 C 18.21730041503906 6.989311218261719 14.90735626220703 9.221134185791016 12.06424331665039 12.06424331665039 C 9.221134185791016 14.90735626220703 6.989311218261719 18.21730041503906 5.430755615234375 21.90212249755859 C 3.817817687988281 25.71552276611328 3 29.76810073852539 3 33.9472770690918 C 3 38.12645721435547 3.817817687988281 42.17902374267578 5.430755615234375 45.99242401123047 C 6.989311218261719 49.67724609375 9.221134185791016 52.98719024658203 12.06424331665039 55.83029937744141 C 14.90735626220703 58.67340850830078 18.21730041503906 60.90524291992188 21.90212249755859 62.46379852294922 C 25.71552276611328 64.07673645019531 29.76808929443359 64.89455413818359 33.947265625 64.89455413818359 C 38.12644195556641 64.89455413818359 42.17900848388672 64.07673645019531 45.99240875244141 62.46379852294922 C 49.67723083496094 60.90524291992188 52.98717498779297 58.67340850830078 55.83028793334961 55.83029937744141 C 58.67340087890625 52.98719024658203 60.90522003173828 49.67724609375 62.46377563476562 45.99242401123047 C 64.07671356201172 42.17902374267578 64.89453125 38.12645721435547 64.89453125 33.9472770690918 C 64.89453125 29.76810073852539 64.07671356201172 25.71552276611328 62.46377563476562 21.90212249755859 C 60.90522003173828 18.21730041503906 58.67340087890625 14.90735626220703 55.83028793334961 12.06424331665039 C 52.98717498779297 9.221134185791016 49.67723083496094 6.989311218261719 45.99242401123047 5.430755615234375 C 42.17900848388672 3.817825317382812 38.12644195556641 3 33.947265625 3 M 33.947265625 0 C 52.69581985473633 0 67.89453125 15.19871139526367 67.89453125 33.9472770690918 C 67.89453125 52.69582366943359 52.69581985473633 67.89455413818359 33.947265625 67.89455413818359 C 15.19871139526367 67.89455413818359 0 52.69582366943359 0 33.9472770690918 C 0 15.19871139526367 15.19871139526367 0 33.947265625 0 Z" stroke="none" fill="#3ea6db"/>
                    </g>
                  </g>
                </g>
              </g>
            </g>
          </g>
        </g>
      </g>
    </g>
    <g id="respiracion-dificultosa" transform="translate(996.455 9945.659)">
      <path id="Trazado_1177309" data-name="Trazado 1177309" d="M104,277.568V267.022a5.46,5.46,0,0,0-3.719-5.175l-7.5-2.523-.573.044a2.022,2.022,0,0,1-1.32-1.823l-.047-3.046H83.421l-.023,3a2.1,2.1,0,0,1-1.326,1.874l-.672-.048-7.5,2.523a5.46,5.46,0,0,0-3.719,5.175v10.546a.364.364,0,0,0,.364.364h33.09A.364.364,0,0,0,104,277.568Z" transform="translate(-6.823 -231.341)" fill="#dc8995"/>
      <path id="Trazado_1177310" data-name="Trazado 1177310" d="M282.371,261.847l-7.5-2.523-.476.02a2.163,2.163,0,0,1-1.336-1.915l-.012-2.929H270.5v4.329a1.82,1.82,0,0,0,1.24,1.725l7.9,2.659a5.46,5.46,0,0,1,3.719,5.175v9.545h2.366a.364.364,0,0,0,.364-.364V267.022A5.46,5.46,0,0,0,282.371,261.847Z" transform="translate(-188.912 -231.341)" fill="#d5717f"/>
      <path id="Trazado_1177311" data-name="Trazado 1177311" d="M199.142,262.782a6.413,6.413,0,0,0,5.692-3.457l-.73.028a1.86,1.86,0,0,1-1.163-1.807l-.047-3.046h-7.8v2.964a1.82,1.82,0,0,1-1.24,1.725l-.4.136A6.413,6.413,0,0,0,199.142,262.782Z" transform="translate(-118.873 -231.342)" fill="#ffdecf"/>
      <path id="Trazado_1177312" data-name="Trazado 1177312" d="M271.74,260.554l1.728.582a6.446,6.446,0,0,0,1.4-1.811l-.4-.136a1.82,1.82,0,0,1-1.24-1.725V254.5H270.5v4.329a1.82,1.82,0,0,0,1.24,1.725Z" transform="translate(-188.912 -231.341)" fill="#ffcdbe"/>
      <path id="Trazado_1177313" data-name="Trazado 1177313" d="M161.844,19.785H140.9V12.05a4.55,4.55,0,0,1,4.55-4.55h11.849a4.55,4.55,0,0,1,4.55,4.55v7.735Z" transform="translate(-71.101 -6.818)" fill="#cf9875"/>
      <path id="Trazado_1177314" data-name="Trazado 1177314" d="M293.834,7.5H291.1a4.55,4.55,0,0,1,4.55,4.55v7.735h2.73V12.05A4.55,4.55,0,0,0,293.834,7.5Z" transform="translate(-207.641 -6.818)" fill="#c7865b"/>
      <path id="Trazado_1177315" data-name="Trazado 1177315" d="M371.822,131.545H371.1v-4.053h.717a2.027,2.027,0,1,1,0,4.053Z" transform="translate(-280.361 -115.891)" fill="#ffcdbe"/>
      <path id="Trazado_1177316" data-name="Trazado 1177316" d="M112.767,131.545h.718v-4.053h-.718a2.027,2.027,0,1,0,0,4.053Z" transform="translate(-43.689 -115.891)" fill="#ffdecf"/>
      <g id="Grupo_1233004" data-name="Grupo 1233004" transform="translate(69.795 7.709)">
        <path id="Trazado_1177317" data-name="Trazado 1177317" d="M151.37,104.257a10.372,10.372,0,0,1-4.11-.44,10.62,10.62,0,0,1-6.364-9.739V88.605a23.088,23.088,0,0,0,8.7-1.655,22.757,22.757,0,0,0,4.08-2.148.546.546,0,0,1,.733.124,9.484,9.484,0,0,0,7.44,3.68v5.586a10.477,10.477,0,0,1-6.295,9.607A10.146,10.146,0,0,1,151.37,104.257Z" transform="translate(-140.896 -84.712)" fill="#ffdecf"/>
      </g>
      <path id="Trazado_1177318" data-name="Trazado 1177318" d="M220.674,133.118c-2.58,4.717-9.7,5.325-10.557,5.387a10.466,10.466,0,0,0,14.649-9.6v-5.586a9.582,9.582,0,0,1-2.721-.418C222.215,125.551,222.659,129.488,220.674,133.118Z" transform="translate(-134.023 -111.72)" fill="#ffcdbe"/>
      <path id="Trazado_1177319" data-name="Trazado 1177319" d="M229.647,233.625H224.6a.364.364,0,0,1-.344-.484,3.04,3.04,0,0,1,5.74,0A.364.364,0,0,1,229.647,233.625Z" transform="translate(-146.852 -210.073)" fill="#ffcdbe"/>
      <g id="Grupo_1233005" data-name="Grupo 1233005" transform="translate(63.247 30.421)">
        <path id="Trazado_1177320" data-name="Trazado 1177320" d="M69.055,349.792c.219-.338,6.288-6.407,10.571-10.678a56.3,56.3,0,0,1,4.25-3.791c1.2-1.2,2.719-1.423,3.916-.225a2.986,2.986,0,0,1,.074,4.164l-3.689,4.405-5.554,6.125-.386.457a.637.637,0,0,1-.486.226H69.346A.4.4,0,0,1,69.055,349.792Z" transform="translate(-68.942 -334.304)" fill="#e8b2ba"/>
      </g>
      <path id="Trazado_1177321" data-name="Trazado 1177321" d="M148.862,332.6a3.069,3.069,0,0,0-3.534-.578,3.067,3.067,0,0,1,.908,4.807l-9.61,10.6-.386.457a.637.637,0,0,1-.486.226h2.73a.637.637,0,0,0,.486-.226l.386-.457,9.61-10.6A3.068,3.068,0,0,0,148.862,332.6Z" transform="translate(-66.426 -301.523)" fill="#e4a4ad"/>
      <path id="Trazado_1177322" data-name="Trazado 1177322" d="M194.613,333.11a2.619,2.619,0,0,0-3.2-.711,3.064,3.064,0,0,0-.8.579c-.157.157-1.866,1.855-4.068,4.05l-.09.108L191,341.679l3.812-4.6A2.754,2.754,0,0,0,194.613,333.11Z" transform="translate(-112.515 -301.896)" fill="#ffdecf"/>
      <g id="Grupo_1233006" data-name="Grupo 1233006" transform="translate(77.204 30.343)">
        <path id="Trazado_1177323" data-name="Trazado 1177323" d="M242.29,349.014c-.219-.338-6.288-6.407-10.571-10.678a51.7,51.7,0,0,0-4.3-3.791c-1.2-1.2-3.006-1.555-4.2-.358a3.068,3.068,0,0,0-.1,4.23l9.61,10.6.386.457a.637.637,0,0,0,.486.226H242A.4.4,0,0,0,242.29,349.014Z" transform="translate(-222.315 -333.448)" fill="#e8b2ba"/>
      </g>
      <path id="Trazado_1177324" data-name="Trazado 1177324" d="M259.295,347.431c-.334-.515-14.274-14.362-14.738-14.826a3.069,3.069,0,0,0-3.534-.578,3.061,3.061,0,0,1,.8.578c.464.464,14.4,14.311,14.738,14.826a.4.4,0,0,1-.291.682H259A.4.4,0,0,0,259.295,347.431Z" transform="translate(-162.117 -301.522)" fill="#e4a4ad"/>
      <path id="Trazado_1177325" data-name="Trazado 1177325" d="M223.214,332.6a3.068,3.068,0,0,1,4.338,0c.157.157,1.866,1.855,4.068,4.05l.09.108-4.543,4.543-4.055-4.472A3.068,3.068,0,0,1,223.214,332.6Z" transform="translate(-145.111 -301.516)" fill="#ffdecf"/>
      <path id="Trazado_1177326" data-name="Trazado 1177326" d="M259.295,348c-.219-.338-6.288-6.407-10.571-10.678-2.249-2.242-4.1-3.779-4.259-3.939a3,3,0,0,0-3.441-.788,3.061,3.061,0,0,1,.8.578c.464.464,14.4,14.311,14.738,14.826a.4.4,0,0,1-.291.682H259A.4.4,0,0,0,259.295,348Z" transform="translate(-162.117 -302.095)" fill="#e4a4ad"/>
      <path id="Trazado_1177327" data-name="Trazado 1177327" d="M248.723,336.753c-2.249-2.242-4.007-3.989-4.167-4.149a3.069,3.069,0,0,0-3.534-.578,3.06,3.06,0,0,1,.8.578c.191.191,2.665,2.649,5.533,5.512Z" transform="translate(-162.117 -301.522)" fill="#ffd6cc"/>
      <path id="Trazado_1177328" data-name="Trazado 1177328" d="M222.068,341.306l4.055-4.472a3.067,3.067,0,0,0-3.638-4.807,3.067,3.067,0,0,1,.908,4.807l-2.759,3.042Z" transform="translate(-143.584 -301.523)" fill="#ffcdbe"/>
      <path id="Trazado_1177329" data-name="Trazado 1177329" d="M93.417,21.872l-2.41,1.391a.682.682,0,0,0,.682,1.182l2.41-1.391a.682.682,0,0,0-.682-1.182Zm-26.3,6.668,2.41-1.391a.682.682,0,1,0-.682-1.182l-2.41,1.391a.682.682,0,1,0,.682,1.182Zm-.682-5.486,2.41,1.391a.682.682,0,1,0,.682-1.182l-2.41-1.391a.682.682,0,1,0-.682,1.182Zm27.661,4.3-2.41-1.391a.682.682,0,0,0-.682,1.182l2.41,1.391a.682.682,0,0,0,.682-1.182Zm-.423,2.5-7.9-2.659a1.132,1.132,0,0,1-.286-.146,11.279,11.279,0,0,0,5.937-9.866v-.851a2.709,2.709,0,1,0,.035-5.418h-.035V5.232A5.238,5.238,0,0,0,86.193,0H74.345a5.238,5.238,0,0,0-5.232,5.232V6.258a.682.682,0,1,0,1.365,0V5.232a3.872,3.872,0,0,1,3.867-3.867H86.193a3.872,3.872,0,0,1,3.867,3.867v5.654a8.832,8.832,0,0,1-3.529-1.073,8.778,8.778,0,0,1-2.69-2.31,1.233,1.233,0,0,0-1.649-.274,22.12,22.12,0,0,1-3.958,2.084,22.225,22.225,0,0,1-7.758,1.6V9.45a.682.682,0,0,0-1.365,0v1.469h-.035a2.709,2.709,0,1,0,.035,5.418v.737a11.3,11.3,0,0,0,5.957,9.967,1.139,1.139,0,0,1-.307.159l-7.9,2.659a6.138,6.138,0,0,0-4.184,5.822V45.908s0,0,0,.007,0,.022,0,.033,0,.024,0,.036,0,.012,0,.018a.69.69,0,0,0,1.233.3c.2-.246,1.857-1.973,10.013-10.107l3.611,3.611L72.423,45.45a.682.682,0,1,0,1.011.917l6.834-7.536c.165.144,6.834,7.536,6.834,7.536a.682.682,0,0,0,1.011-.917L83,39.806,86.606,36.2c.821.819,1.695,1.691,2.574,2.57a.682.682,0,0,0,.965-.965c-2.672-2.671-5.29-5.277-6.534-6.515a7.077,7.077,0,0,0,2.66-2.478l6.969,2.345A4.774,4.774,0,0,1,96.5,35.681v8.512c-.769-.787-2.026-2.059-4.1-4.135a.682.682,0,0,0-.967.964c4.205,4.218,5.06,5.123,5.188,5.282a.682.682,0,0,0,1.239-.4V35.681a6.137,6.137,0,0,0-4.183-5.822ZM91.426,12.284a1.345,1.345,0,1,1,0,2.688ZM69.112,14.972a1.345,1.345,0,1,1,0-2.688Zm-5.07,29.22V35.681A4.774,4.774,0,0,1,67.3,31.153l6.97-2.345a7.079,7.079,0,0,0,2.66,2.478c-7.9,7.858-11.354,11.338-12.883,12.907Zm14.418-5.4L74.9,35.231l3.135-3.122c1.185-1.179,2.683-1.783,3.92-.545a2.383,2.383,0,0,1,.081,3.288ZM84,33.6l1.639,1.633-3.562,3.562-.888-.979,1.855-2.045A3.737,3.737,0,0,0,84,33.6Zm-1.446-3.318a3.756,3.756,0,0,0-4.574,0,5.711,5.711,0,0,1-2.4-1.953,2.487,2.487,0,0,0,.8-.686,10.983,10.983,0,0,0,3.84.7,11.169,11.169,0,0,0,3.928-.694,2.487,2.487,0,0,0,.8.675A5.713,5.713,0,0,1,82.555,30.281Zm-2.32-3.3a9.867,9.867,0,0,1-9.757-9.905v-4.8a23.6,23.6,0,0,0,8.268-1.7A23.492,23.492,0,0,0,82.84,8.438a10.128,10.128,0,0,0,3.029,2.569,10.21,10.21,0,0,0,4.191,1.249v4.932A9.892,9.892,0,0,1,80.234,26.98ZM77.1,14.8l-.783-1a1.046,1.046,0,0,0-1.647,0l-.783,1a.682.682,0,1,0,1.074.842l.532-.679.532.679A.683.683,0,0,0,77.1,14.8Zm8.772-1a1.046,1.046,0,0,0-1.647,0l-.783,1a.682.682,0,0,0,1.074.842l.532-.679.532.679a.682.682,0,1,0,1.074-.842Zm-5.544,6.545a3.728,3.728,0,0,0-3.57,2.491,1.047,1.047,0,0,0,.987,1.4h5.051a1.046,1.046,0,0,0,.988-1.394A3.75,3.75,0,0,0,80.326,20.348ZM78.243,22.87a2.352,2.352,0,0,1,4.052,0Z" transform="translate(0)"/>
    </g>
  </g>
</svg>
