<svg xmlns="http://www.w3.org/2000/svg" xmlns:xlink="http://www.w3.org/1999/xlink" width="85.895" height="85.895" viewBox="0 0 85.895 85.895">
  <defs>
    <filter id="Trazado_904820" x="0" y="0" width="85.895" height="85.895" filterUnits="userSpaceOnUse">
      <feOffset dy="3" input="SourceAlpha"/>
      <feGaussianBlur stdDeviation="3" result="blur"/>
      <feFlood flood-opacity="0.161"/>
      <feComposite operator="in" in2="blur"/>
      <feComposite in="SourceGraphic"/>
    </filter>
  </defs>
  <g id="Grupo_1233009" data-name="Grupo 1233009" transform="translate(-193.776 -10065.053)">
    <g id="Grupo_1223564" data-name="Grupo 1223564" transform="translate(0 1935)">
      <g id="Grupo_1223168" data-name="Grupo 1223168" transform="translate(202.776 8136.053)">
        <g id="Grupo_1173585" data-name="Grupo 1173585" transform="translate(0 0)">
          <g id="Grupo_1173428" data-name="Grupo 1173428">
            <g id="Grupo_1171958" data-name="Grupo 1171958">
              <g id="Grupo_1167341" data-name="Grupo 1167341">
                <g id="Grupo_1166792" data-name="Grupo 1166792">
                  <g transform="matrix(1, 0, 0, 1, -9, -6)" filter="url(#Trazado_904820)">
                    <g id="Trazado_904820-2" data-name="Trazado 904820" transform="translate(9 6)" fill="#eaf5fb">
                      <path d="M 33.947265625 66.39455413818359 C 29.56625556945801 66.39455413818359 25.31708526611328 65.536865234375 21.31778526306152 63.84530639648438 C 17.45416641235352 62.21112823486328 13.98396587371826 59.87134552001953 11.00358581542969 56.89096832275391 C 8.023205757141113 53.91057586669922 5.683425426483154 50.44037628173828 4.049255847930908 46.57675552368164 C 2.357695579528809 42.57745742797852 1.500005602836609 38.32828521728516 1.500005602836609 33.9472770690918 C 1.500005602836609 29.56625747680664 2.357695579528809 25.31708717346191 4.049255847930908 21.31778717041016 C 5.683425426483154 17.45416641235352 8.023205757141113 13.98396682739258 11.00358581542969 11.003586769104 C 13.98396587371826 8.023197174072266 17.45416641235352 5.683416843414307 21.31778526306152 4.049247264862061 C 25.31707572937012 2.357686996459961 29.56625556945801 1.499997019767761 33.947265625 1.499997019767761 C 38.32827377319336 1.499997019767761 42.57745742797852 2.357686996459961 46.57674407958984 4.049247264862061 C 50.44036483764648 5.683416843414307 53.91056442260742 8.023197174072266 56.89094543457031 11.003586769104 C 59.87133407592773 13.98396682739258 62.21111679077148 17.45416641235352 63.84528732299805 21.31778717041016 C 65.53684234619141 25.31708717346191 66.39453887939453 29.56625747680664 66.39453887939453 33.9472770690918 C 66.39453887939453 38.32828521728516 65.53684234619141 42.57745742797852 63.84528732299805 46.57675552368164 C 62.21111679077148 50.44037628173828 59.87133407592773 53.91057586669922 56.89094543457031 56.89096832275391 C 53.91056442260742 59.87134552001953 50.44036483764648 62.21112823486328 46.57674407958984 63.84530639648438 C 42.57745742797852 65.536865234375 38.32827377319336 66.39455413818359 33.947265625 66.39455413818359 Z" stroke="none"/>
                      <path d="M 33.947265625 3 C 29.76808929443359 3 25.71552276611328 3.817825317382812 21.9021110534668 5.430755615234375 C 18.21730041503906 6.989311218261719 14.90735626220703 9.221134185791016 12.06424331665039 12.06424331665039 C 9.221134185791016 14.90735626220703 6.989311218261719 18.21730041503906 5.430755615234375 21.90212249755859 C 3.817817687988281 25.71552276611328 3 29.76810073852539 3 33.9472770690918 C 3 38.12645721435547 3.817817687988281 42.17902374267578 5.430755615234375 45.99242401123047 C 6.989311218261719 49.67724609375 9.221134185791016 52.98719024658203 12.06424331665039 55.83029937744141 C 14.90735626220703 58.67340850830078 18.21730041503906 60.90524291992188 21.90212249755859 62.46379852294922 C 25.71552276611328 64.07673645019531 29.76808929443359 64.89455413818359 33.947265625 64.89455413818359 C 38.12644195556641 64.89455413818359 42.17900848388672 64.07673645019531 45.99240875244141 62.46379852294922 C 49.67723083496094 60.90524291992188 52.98717498779297 58.67340850830078 55.83028793334961 55.83029937744141 C 58.67340087890625 52.98719024658203 60.90522003173828 49.67724609375 62.46377563476562 45.99242401123047 C 64.07671356201172 42.17902374267578 64.89453125 38.12645721435547 64.89453125 33.9472770690918 C 64.89453125 29.76810073852539 64.07671356201172 25.71552276611328 62.46377563476562 21.90212249755859 C 60.90522003173828 18.21730041503906 58.67340087890625 14.90735626220703 55.83028793334961 12.06424331665039 C 52.98717498779297 9.221134185791016 49.67723083496094 6.989311218261719 45.99242401123047 5.430755615234375 C 42.17900848388672 3.817825317382812 38.12644195556641 3 33.947265625 3 M 33.947265625 0 C 52.69581985473633 0 67.89453125 15.19871139526367 67.89453125 33.9472770690918 C 67.89453125 52.69582366943359 52.69581985473633 67.89455413818359 33.947265625 67.89455413818359 C 15.19871139526367 67.89455413818359 0 52.69582366943359 0 33.9472770690918 C 0 15.19871139526367 15.19871139526367 0 33.947265625 0 Z" stroke="none" fill="#3ea6db"/>
                    </g>
                  </g>
                </g>
              </g>
            </g>
          </g>
        </g>
      </g>
    </g>
    <g id="estres" transform="translate(202.615 10082.6)">
      <path id="Trazado_1177330" data-name="Trazado 1177330" d="M58.722,130l-7.806-13.521a1.75,1.75,0,0,1-.234-.875v-1.579a1.75,1.75,0,0,0-.779-1.456l-1.842-1.228a2.625,2.625,0,0,0-2.912,0l-2.621,1.747,2.312,3.737,8.426,14.595a.438.438,0,0,1-.16.6L46.912,135.6a1.75,1.75,0,0,1-.875.235H33.58a1.749,1.749,0,0,1-.875-.235l-6.192-3.575a.438.438,0,0,1-.16-.6l8.426-14.595,2.312-3.737-2.621-1.747a2.625,2.625,0,0,0-2.912,0l-1.842,1.228a1.75,1.75,0,0,0-.779,1.456v1.579a1.75,1.75,0,0,1-.234.875L20.9,130a4.375,4.375,0,0,0,1.6,5.976l7.47,4.313a.656.656,0,0,1,.328.568v4.483H49.322v-4.862l7.8-4.5A4.375,4.375,0,0,0,58.722,130Z" transform="translate(-6.825 -101.2)" fill="#017297"/>
      <path id="Trazado_1177331" data-name="Trazado 1177331" d="M128.687,230.885h-.566a2.625,2.625,0,0,1-2.574-2.11L125.191,227a1.72,1.72,0,0,1,2.231-1.969l1.265.422v5.436Z" transform="translate(-102.498 -205.255)" fill="#d83131"/>
      <path id="Trazado_1177332" data-name="Trazado 1177332" d="M320.814,230.885h.566a2.625,2.625,0,0,0,2.574-2.11L324.31,227a1.72,1.72,0,0,0-2.231-1.969l-1.265.422v5.436Z" transform="translate(-281.035 -205.255)" fill="#ca2c2c"/>
      <path id="Trazado_1177333" data-name="Trazado 1177333" d="M163.271,137.963a7.233,7.233,0,0,1-7.219-6.782l-.426-6.824a7.66,7.66,0,1,1,15.291,0l-.426,6.824A7.233,7.233,0,0,1,163.271,137.963Z" transform="translate(-130.286 -106.05)" fill="#e94444"/>
      <path id="Trazado_1177334" data-name="Trazado 1177334" d="M230.839,116.219a7.737,7.737,0,0,0-1.181.09,7.662,7.662,0,0,1,6.464,8.048l-.426,6.824a7.235,7.235,0,0,1-6.038,6.686,7.238,7.238,0,0,0,8.4-6.686l.426-6.824A7.66,7.66,0,0,0,230.839,116.219Z" transform="translate(-197.855 -106.05)" fill="#d83131"/>
      <path id="Trazado_1177335" data-name="Trazado 1177335" d="M322.837,349.312l-6.358,11.012a1.313,1.313,0,0,0,1.137,1.969h12.715a1.312,1.312,0,0,0,1.137-1.969l-6.358-11.012A1.312,1.312,0,0,0,322.837,349.312Z" transform="translate(-276.918 -318.148)" fill="#ffc344"/>
      <path id="Trazado_1177336" data-name="Trazado 1177336" d="M397.786,360.324l-6.357-11.012a1.313,1.313,0,0,0-2.273,0l-.176.3,6.182,10.707a1.312,1.312,0,0,1-1.137,1.969h2.625A1.312,1.312,0,0,0,397.786,360.324Z" transform="translate(-343.235 -318.148)" fill="#feb237"/>
      <g id="Grupo_1233008" data-name="Grupo 1233008" transform="translate(15.834 0.656)">
        <path id="Trazado_1177337" data-name="Trazado 1177337" d="M205.08,12.936V7.719a.219.219,0,0,0-.219-.219h-3.64a.219.219,0,0,0-.219.219v5.217a.219.219,0,0,1-.219.219h-1.37a.219.219,0,0,0-.172.354l3.628,4.629a.219.219,0,0,0,.344,0l3.628-4.629a.219.219,0,0,0-.172-.354H205.3a.219.219,0,0,1-.219-.219Z" transform="translate(-185.891 -7.5)" fill="#fe860a"/>
        <path id="Trazado_1177338" data-name="Trazado 1177338" d="M341.589,35.572l3.689-3.689a.219.219,0,0,0,0-.309L342.7,29a.219.219,0,0,0-.309,0l-3.689,3.689a.219.219,0,0,1-.309,0l-.969-.969a.219.219,0,0,0-.372.128l-.708,5.839a.219.219,0,0,0,.244.244l5.839-.708a.219.219,0,0,0,.128-.372l-.969-.969A.219.219,0,0,1,341.589,35.572Z" transform="translate(-311.041 -27.06)" fill="#fe860a"/>
        <path id="Trazado_1177339" data-name="Trazado 1177339" d="M50.91,35.572l-3.689-3.689a.219.219,0,0,1,0-.309L49.795,29a.219.219,0,0,1,.309,0l3.689,3.689a.219.219,0,0,0,.309,0l.969-.969a.219.219,0,0,1,.372.128l.708,5.839a.219.219,0,0,1-.244.244l-5.839-.708a.219.219,0,0,1-.128-.372l.969-.969A.219.219,0,0,0,50.91,35.572Z" transform="translate(-47.157 -27.06)" fill="#fe860a"/>
      </g>
      <path id="Trazado_1177340" data-name="Trazado 1177340" d="M232.627,222.17a.656.656,0,0,0,.656.656h.53a1.752,1.752,0,0,0,1.75-1.75v-1.219l2.355-1.178a.656.656,0,0,0-.587-1.174l-2.718,1.359a.656.656,0,0,0-.363.587v1.624a.438.438,0,0,1-.437.438h-.53A.656.656,0,0,0,232.627,222.17Z" transform="translate(-200.564 -198.41)"/>
      <path id="Trazado_1177341" data-name="Trazado 1177341" d="M189.426,218.68l2.718,1.359a.656.656,0,1,0,.587-1.174l-2.718-1.359a.656.656,0,1,0-.587,1.174Z" transform="translate(-160.812 -198.41)"/>
      <path id="Trazado_1177342" data-name="Trazado 1177342" d="M55.119,41.848l-1.906-3.3a.656.656,0,0,0-1.137.656l1.906,3.3a.656.656,0,0,1-.568.984H40.7a.656.656,0,0,1-.568-.984l6.358-11.012a.656.656,0,0,1,1.137,0l2.861,4.956a.656.656,0,0,0,1.137-.656l-.462-.8a5.04,5.04,0,0,0,1.305-6.516l-7.806-13.52a1.1,1.1,0,0,1-.147-.548V12.829a2.4,2.4,0,0,0-.214-.994l3-.364a.875.875,0,0,0,.513-1.487l-.66-.66,3.38-3.38a.876.876,0,0,0,0-1.237L47.961,2.132a.876.876,0,0,0-1.237,0l-3.38,3.38-.66-.66a.875.875,0,0,0-1.487.513l-.464,3.823a3.272,3.272,0,0,0-2.774.411l-1.216.811A8.216,8.216,0,0,0,35.161,9.8L37.3,7.069a.875.875,0,0,0-.689-1.415h-.933V.875A.876.876,0,0,0,34.8,0h-3.64a.876.876,0,0,0-.875.875v.9a.656.656,0,1,0,1.313,0V1.313h2.765v4.78a.876.876,0,0,0,.875.875h.472L32.984,10.45,30.255,6.967h.472a.876.876,0,0,0,.875-.875V4.837a.656.656,0,1,0-1.313,0v.818h-.933a.875.875,0,0,0-.689,1.415L30.808,9.8a8.214,8.214,0,0,0-1.583.609L28.009,9.6a3.272,3.272,0,0,0-2.774-.411l-.464-3.823a.875.875,0,0,0-1.487-.513l-.66.66-3.38-3.38a.876.876,0,0,0-1.237,0L15.434,4.705a.876.876,0,0,0,0,1.237l3.38,3.38-.66.66a.875.875,0,0,0,.513,1.487l3,.364a2.4,2.4,0,0,0-.215.995v1.579a1.1,1.1,0,0,1-.146.547L13.5,28.476a5.038,5.038,0,0,0,1.842,6.873l7.471,4.313c0,.007,0,.014,0,.02v.455a.656.656,0,1,0,1.313,0v-.475c0-.009,0-.019,0-.028V37.349a.656.656,0,0,0-1.313,0v.8L16,34.212a3.723,3.723,0,0,1-1.361-5.08l7.807-13.521a2.413,2.413,0,0,0,.321-1.2V12.829a1.092,1.092,0,0,1,.367-.817l1.371.166a.875.875,0,0,0,.974-.974l-.082-.678a1.963,1.963,0,0,1,1.883.165l.722.481a8.336,8.336,0,0,0-3.319,7.176l.044.7a2.378,2.378,0,0,0-2.678,2.818l.356,1.778q.02.1.046.2l-4.677,8.1a.656.656,0,1,0,1.137.656L19.55,31.5l6,3.465a2.4,2.4,0,0,0,1.2.323H39.213a2.4,2.4,0,0,0,1.2-.323l3.827-2.21-5.249,9.092a1.945,1.945,0,0,0-.152,1.641H24.128V43.2a.656.656,0,1,0-1.313,0v.945a.656.656,0,0,0,.656.656H53.414a1.969,1.969,0,0,0,1.7-2.953Zm-35.4-31.572.334-.334a.876.876,0,0,0,0-1.237l-3.38-3.38,1.955-1.955,3.38,3.38a.876.876,0,0,0,1.237,0l.334-.334.533,4.392ZM42.391,6.416l.333.333a.875.875,0,0,0,1.238,0l3.38-3.38L49.3,5.324,45.917,8.7a.876.876,0,0,0,0,1.237l.334.334-4.392.533Zm-3.7,4.275a1.963,1.963,0,0,1,1.883-.165l-.082.678a.875.875,0,0,0,.974.974l1.371-.166a1.092,1.092,0,0,1,.366.817v1.579a2.414,2.414,0,0,0,.322,1.2l7.807,13.521a3.726,3.726,0,0,1-.832,4.71l-1.736-3.006a1.949,1.949,0,0,0-1.7-.984h-.073l-3.467-6.005q.026-.1.046-.2l.356-1.778a2.378,2.378,0,0,0-2.678-2.818l.044-.7a8.336,8.336,0,0,0-3.319-7.176Zm2.467,9.737.1-.032a1.064,1.064,0,0,1,1.38,1.218l-.356,1.778a1.975,1.975,0,0,1-1.4,1.51ZM31.7,10.942l.593.757a.875.875,0,0,0,1.377,0l.593-.757a7.02,7.02,0,0,1,5.709,7.324l-.426,6.824a6.577,6.577,0,0,1-13.128,0l-.426-6.824A7.02,7.02,0,0,1,31.7,10.942Zm-8.026,9.665a1.053,1.053,0,0,1,1.04-.212l.1.032.28,4.473a1.975,1.975,0,0,1-1.4-1.51l-.356-1.778a1.054,1.054,0,0,1,.339-1.006ZM39.759,33.829a1.091,1.091,0,0,1-.546.146H26.755a1.092,1.092,0,0,1-.547-.147l-6-3.466,2.98-5.163a3.291,3.291,0,0,0,2.069,1.066,7.89,7.89,0,0,0,15.457,0A3.291,3.291,0,0,0,42.781,25.2l2.969,5.144q-.036.032-.071.066Z"/>
      <path id="Trazado_1177343" data-name="Trazado 1177343" d="M397.793,404.468a.656.656,0,0,0-1.313,0v2.718a.656.656,0,0,0,1.313,0Z" transform="translate(-350.08 -368.478)"/>
      <circle id="Elipse_14275" data-name="Elipse 14275" cx="0.656" cy="0.656" r="0.656" transform="translate(46.4 40.783)"/>
      <path id="Trazado_1177344" data-name="Trazado 1177344" d="M210.98,301.944l-.759-.379a5.061,5.061,0,0,0-4.505,0l-.759.379a.656.656,0,1,0,.587,1.174l.759-.379a3.743,3.743,0,0,1,3.331,0l.759.379a.656.656,0,1,0,.587-1.174Z" transform="translate(-174.985 -274.694)"/>
    </g>
  </g>
</svg>
