<svg xmlns="http://www.w3.org/2000/svg" xmlns:xlink="http://www.w3.org/1999/xlink" width="85.895" height="85.895" viewBox="0 0 85.895 85.895">
  <defs>
    <filter id="Trazado_904820" x="0" y="0" width="85.895" height="85.895" filterUnits="userSpaceOnUse">
      <feOffset dy="3" input="SourceAlpha"/>
      <feGaussianBlur stdDeviation="3" result="blur"/>
      <feFlood flood-opacity="0.161"/>
      <feComposite operator="in" in2="blur"/>
      <feComposite in="SourceGraphic"/>
    </filter>
  </defs>
  <g id="Grupo_1233017" data-name="Grupo 1233017" transform="translate(-613.776 -10065.053)">
    <g id="Grupo_1223568" data-name="Grupo 1223568" transform="translate(0 1935)">
      <g id="Grupo_1223169" data-name="Grupo 1223169" transform="translate(622.776 8136.053)">
        <g id="Grupo_1173585" data-name="Grupo 1173585" transform="translate(0 0)">
          <g id="Grupo_1173428" data-name="Grupo 1173428">
            <g id="Grupo_1171958" data-name="Grupo 1171958">
              <g id="Grupo_1167341" data-name="Grupo 1167341">
                <g id="Grupo_1166792" data-name="Grupo 1166792">
                  <g transform="matrix(1, 0, 0, 1, -9, -6)" filter="url(#Trazado_904820)">
                    <g id="Trazado_904820-2" data-name="Trazado 904820" transform="translate(9 6)" fill="#eaf5fb">
                      <path d="M 33.947265625 66.39455413818359 C 29.56625556945801 66.39455413818359 25.31708526611328 65.536865234375 21.31778526306152 63.84530639648438 C 17.45416641235352 62.21112823486328 13.98396587371826 59.87134552001953 11.00358581542969 56.89096832275391 C 8.023205757141113 53.91057586669922 5.683425426483154 50.44037628173828 4.049255847930908 46.57675552368164 C 2.357695579528809 42.57745742797852 1.500005602836609 38.32828521728516 1.500005602836609 33.9472770690918 C 1.500005602836609 29.56625747680664 2.357695579528809 25.31708717346191 4.049255847930908 21.31778717041016 C 5.683425426483154 17.45416641235352 8.023205757141113 13.98396682739258 11.00358581542969 11.003586769104 C 13.98396587371826 8.023197174072266 17.45416641235352 5.683416843414307 21.31778526306152 4.049247264862061 C 25.31707572937012 2.357686996459961 29.56625556945801 1.499997019767761 33.947265625 1.499997019767761 C 38.32827377319336 1.499997019767761 42.57745742797852 2.357686996459961 46.57674407958984 4.049247264862061 C 50.44036483764648 5.683416843414307 53.91056442260742 8.023197174072266 56.89094543457031 11.003586769104 C 59.87133407592773 13.98396682739258 62.21111679077148 17.45416641235352 63.84528732299805 21.31778717041016 C 65.53684234619141 25.31708717346191 66.39453887939453 29.56625747680664 66.39453887939453 33.9472770690918 C 66.39453887939453 38.32828521728516 65.53684234619141 42.57745742797852 63.84528732299805 46.57675552368164 C 62.21111679077148 50.44037628173828 59.87133407592773 53.91057586669922 56.89094543457031 56.89096832275391 C 53.91056442260742 59.87134552001953 50.44036483764648 62.21112823486328 46.57674407958984 63.84530639648438 C 42.57745742797852 65.536865234375 38.32827377319336 66.39455413818359 33.947265625 66.39455413818359 Z" stroke="none"/>
                      <path d="M 33.947265625 3 C 29.76808929443359 3 25.71552276611328 3.817825317382812 21.9021110534668 5.430755615234375 C 18.21730041503906 6.989311218261719 14.90735626220703 9.221134185791016 12.06424331665039 12.06424331665039 C 9.221134185791016 14.90735626220703 6.989311218261719 18.21730041503906 5.430755615234375 21.90212249755859 C 3.817817687988281 25.71552276611328 3 29.76810073852539 3 33.9472770690918 C 3 38.12645721435547 3.817817687988281 42.17902374267578 5.430755615234375 45.99242401123047 C 6.989311218261719 49.67724609375 9.221134185791016 52.98719024658203 12.06424331665039 55.83029937744141 C 14.90735626220703 58.67340850830078 18.21730041503906 60.90524291992188 21.90212249755859 62.46379852294922 C 25.71552276611328 64.07673645019531 29.76808929443359 64.89455413818359 33.947265625 64.89455413818359 C 38.12644195556641 64.89455413818359 42.17900848388672 64.07673645019531 45.99240875244141 62.46379852294922 C 49.67723083496094 60.90524291992188 52.98717498779297 58.67340850830078 55.83028793334961 55.83029937744141 C 58.67340087890625 52.98719024658203 60.90522003173828 49.67724609375 62.46377563476562 45.99242401123047 C 64.07671356201172 42.17902374267578 64.89453125 38.12645721435547 64.89453125 33.9472770690918 C 64.89453125 29.76810073852539 64.07671356201172 25.71552276611328 62.46377563476562 21.90212249755859 C 60.90522003173828 18.21730041503906 58.67340087890625 14.90735626220703 55.83028793334961 12.06424331665039 C 52.98717498779297 9.221134185791016 49.67723083496094 6.989311218261719 45.99242401123047 5.430755615234375 C 42.17900848388672 3.817825317382812 38.12644195556641 3 33.947265625 3 M 33.947265625 0 C 52.69581985473633 0 67.89453125 15.19871139526367 67.89453125 33.9472770690918 C 67.89453125 52.69582366943359 52.69581985473633 67.89455413818359 33.947265625 67.89455413818359 C 15.19871139526367 67.89455413818359 0 52.69582366943359 0 33.9472770690918 C 0 15.19871139526367 15.19871139526367 0 33.947265625 0 Z" stroke="none" fill="#3ea6db"/>
                    </g>
                  </g>
                </g>
              </g>
            </g>
          </g>
        </g>
      </g>
    </g>
    <g id="cambios-de-humor" transform="translate(633.692 10083.111)">
      <g id="Grupo_1233011" data-name="Grupo 1233011" transform="translate(14.247 0.615)">
        <path id="Trazado_1177345" data-name="Trazado 1177345" d="M220.405,193.683h18.22v15.4h-18.22Z" transform="translate(-215.436 -178.419)" fill="#3e5959"/>
        <path id="Trazado_1177346" data-name="Trazado 1177346" d="M170.81,344.2l-5.847,1.319a6.625,6.625,0,0,0-5.167,6.463v5.36h28.158v-5.36a6.625,6.625,0,0,0-5.168-6.463l-5.847-1.319Z" transform="translate(-159.795 -316.593)" fill="#fe93d3"/>
        <path id="Trazado_1177347" data-name="Trazado 1177347" d="M462.844,369.124v11.1h3.313v-5.36A6.627,6.627,0,0,0,462.844,369.124Z" transform="translate(-437.999 -339.477)" fill="#fe73c5"/>
        <path id="Trazado_1177348" data-name="Trazado 1177348" d="M297.21,312.949a3.064,3.064,0,0,1-3.064-3.064v-3.064h6.128v3.064A3.064,3.064,0,0,1,297.21,312.949Z" transform="translate(-283.131 -282.282)" fill="#f6a96c"/>
        <path id="Trazado_1177349" data-name="Trazado 1177349" d="M248.061,96.531a7.454,7.454,0,0,1-7.454-7.454V76.849h14.907V89.078A7.453,7.453,0,0,1,248.061,96.531Z" transform="translate(-233.982 -71.164)" fill="#fed2a4"/>
        <path id="Trazado_1177350" data-name="Trazado 1177350" d="M321.488,76.849V89.078a7.456,7.456,0,0,1-6.128,7.336,7.46,7.46,0,0,0,8.779-7.336V76.849Z" transform="translate(-302.606 -71.164)" fill="#ffbd86"/>
        <path id="Trazado_1177351" data-name="Trazado 1177351" d="M220.405,15.889v6.875l1.656-1.305h4.969a6.625,6.625,0,0,0,6.625-6.625V9.654a2.153,2.153,0,0,0-2.42-2.137L227.369,8a7.95,7.95,0,0,0-6.964,7.889Z" transform="translate(-215.436 -7.5)" fill="#678d98"/>
        <path id="Trazado_1177352" data-name="Trazado 1177352" d="M232.2,8.914a14.16,14.16,0,0,1-4.245,9.436,14.435,14.435,0,0,1-7.549,4.04v1.673l1.656-1.305h4.969a6.625,6.625,0,0,0,6.625-6.625v-5.18A2.153,2.153,0,0,0,232.2,8.914Z" transform="translate(-215.436 -8.798)" fill="#537983"/>
        <path id="Trazado_1177353" data-name="Trazado 1177353" d="M382.03,34.321v7.1a3.313,3.313,0,0,0,3.313,3.313L387,47.107V39.639a5.3,5.3,0,0,0-4.429-5.228Z" transform="translate(-363.81 -32.122)" fill="#3e5959"/>
        <g id="Grupo_1233010" data-name="Grupo 1233010" transform="translate(3.313 12.614)">
          <path id="Trazado_1177354" data-name="Trazado 1177354" d="M423.1,166.658h-.663v-5.3h.663a2.65,2.65,0,1,1,0,5.3Z" transform="translate(-404.217 -161.358)" fill="#f6a96c"/>
          <path id="Trazado_1177355" data-name="Trazado 1177355" d="M202.851,166.657h.663v-4.969a.331.331,0,0,0-.331-.331h-.331a2.65,2.65,0,0,0,0,5.3Z" transform="translate(-200.201 -161.357)" fill="#f6a96c"/>
        </g>
      </g>
      <g id="Grupo_1233015" data-name="Grupo 1233015" transform="translate(1.864 0.615)">
        <g id="Grupo_1233012" data-name="Grupo 1233012" transform="translate(0.003 24.172)">
          <circle id="Elipse_14276" data-name="Elipse 14276" cx="5.632" cy="5.632" r="5.632" fill="#fd8087"/>
          <path id="Trazado_1177356" data-name="Trazado 1177356" d="M25.185,311.077a5.631,5.631,0,0,1-7.663,7.663,5.631,5.631,0,1,0,7.663-7.663Z" transform="translate(-16.806 -310.361)" fill="#fe646f"/>
        </g>
        <g id="Grupo_1233013" data-name="Grupo 1233013" transform="translate(0.003)">
          <circle id="Elipse_14277" data-name="Elipse 14277" cx="5.632" cy="5.632" r="5.632" fill="#a2e62e"/>
          <path id="Trazado_1177357" data-name="Trazado 1177357" d="M25.185,16.231a5.631,5.631,0,0,1-7.663,7.663,5.631,5.631,0,1,0,7.663-7.663Z" transform="translate(-16.806 -15.515)" fill="#97d729"/>
        </g>
        <g id="Grupo_1233014" data-name="Grupo 1233014" transform="translate(0 13.062)">
          <path id="Trazado_1177358" data-name="Trazado 1177358" d="M12.827,186.481H11.756a.492.492,0,0,0-.492.492v3.433l-.917-.917a.492.492,0,0,0-.7,0l-.757.757a.492.492,0,0,0,0,.7l2.97,2.97a.492.492,0,0,0,.348.144h.615a.492.492,0,0,0,.492-.492v-6.591A.492.492,0,0,0,12.827,186.481Z" transform="translate(-8.75 -184.869)" fill="#ffe177"/>
          <path id="Trazado_1177359" data-name="Trazado 1177359" d="M90.974,174.4h1.071a.492.492,0,0,0,.492-.492v-3.433l.917.917a.492.492,0,0,0,.7,0l.757-.757a.492.492,0,0,0,0-.7l-2.97-2.97a.492.492,0,0,0-.348-.144h-.615a.492.492,0,0,0-.492.492v6.591A.492.492,0,0,0,90.974,174.4Z" transform="translate(-83.781 -166.824)" fill="#99e6fc"/>
        </g>
      </g>
      <g id="Grupo_1233016" data-name="Grupo 1233016" transform="translate(1.249)">
        <path id="Trazado_1177360" data-name="Trazado 1177360" d="M181.063,37.895a.615.615,0,0,0,.615-.615V36.005a7.237,7.237,0,0,0-4.969-6.873V18.723a3.262,3.262,0,0,0,0-5.679v-.963a.615.615,0,1,0-1.23,0v.56a3.284,3.284,0,0,0-.379-.023h-.666a2.7,2.7,0,0,1-2.695-2.7V3.548a4.669,4.669,0,0,1,3.739,4.589V9.211a.615.615,0,1,0,1.23,0V8.137A5.9,5.9,0,0,0,171.766,2.3l-.07-.012A2.766,2.766,0,0,0,168.628.026L164.762.51a8.579,8.579,0,0,0-7.5,8.5v4.035a3.262,3.262,0,0,0,0,5.679v3.9a.615.615,0,0,0,1.23,0V19.126a3.273,3.273,0,0,0,.379.023h.071a8.083,8.083,0,0,0,4.366,6.565v2.019l-4.816,1.086v-3.33a.615.615,0,0,0-1.23,0v3.644a7.237,7.237,0,0,0-4.969,6.873v5.36a.615.615,0,0,0,.615.615h28.158a.615.615,0,0,0,.615-.615V40.149a.615.615,0,1,0-1.23,0v.6h-3.739v-2.7a.615.615,0,1,0-1.23,0v2.7h-16.99v-2.7a.615.615,0,1,0-1.23,0v2.7h-3.74V36.005a6.012,6.012,0,0,1,4.689-5.864l5.174-1.167a3.679,3.679,0,0,0,7.2,0l5.174,1.167a6.012,6.012,0,0,1,4.688,5.864V37.28A.615.615,0,0,0,181.063,37.895Zm-5.584-9.077-4.816-1.086V25.713a8.083,8.083,0,0,0,4.366-6.565h.071a3.287,3.287,0,0,0,.379-.023Zm1.656-12.934a2.038,2.038,0,0,1-2.035,2.035h-.048v-4.07h.048A2.038,2.038,0,0,1,177.135,15.883ZM158.489,9.009a7.347,7.347,0,0,1,6.426-7.279l3.866-.483a1.538,1.538,0,0,1,1.729,1.526v5.18a6.017,6.017,0,0,1-6.01,6.01h-4.354v-.4a.947.947,0,0,0-.946-.946h-.331a3.286,3.286,0,0,0-.379.023V9.009Zm-1.656,6.875a2.038,2.038,0,0,1,2.035-2.035h.048v4.07h-.048A2.038,2.038,0,0,1,156.833,15.883Zm3.313,2.65v-3.34H164.5a7.245,7.245,0,0,0,6.328-3.726,3.94,3.94,0,0,0,2.995,2.333v4.734a6.839,6.839,0,1,1-13.677,0Zm6.839,12.139a2.452,2.452,0,0,1-2.449-2.449v-2a8.074,8.074,0,0,0,4.9,0v2a2.452,2.452,0,0,1-2.449,2.449Z" transform="translate(-139.907 -0.005)"/>
        <path id="Trazado_1177361" data-name="Trazado 1177361" d="M7.537,294.846a6.246,6.246,0,1,0,6.246,6.246A6.253,6.253,0,0,0,7.537,294.846Zm0,11.263a5.017,5.017,0,1,1,5.017-5.017A5.022,5.022,0,0,1,7.537,306.109Z" transform="translate(-1.288 -270.673)"/>
        <path id="Trazado_1177362" data-name="Trazado 1177362" d="M43.019,381.047a.615.615,0,0,0,.87.87,2.535,2.535,0,0,1,3.581,0,.615.615,0,1,0,.87-.87A3.766,3.766,0,0,0,43.019,381.047Z" transform="translate(-39.43 -348.797)"/>
        <path id="Trazado_1177363" data-name="Trazado 1177363" d="M44.682,344.7l.575.326a.615.615,0,0,0,.607-1.069l-.575-.326a.615.615,0,1,0-.607,1.069Z" transform="translate(-40.836 -315.384)"/>
        <path id="Trazado_1177364" data-name="Trazado 1177364" d="M89.194,345.107a.612.612,0,0,0,.3-.08l.575-.326a.615.615,0,1,0-.607-1.069l-.575.326a.615.615,0,0,0,.3,1.15Z" transform="translate(-81.419 -315.386)"/>
        <path id="Trazado_1177365" data-name="Trazado 1177365" d="M7.537,12.493A6.246,6.246,0,1,0,1.291,6.246,6.253,6.253,0,0,0,7.537,12.493Zm0-11.263A5.017,5.017,0,1,1,2.521,6.246,5.022,5.022,0,0,1,7.537,1.23Z" transform="translate(-1.288)"/>
        <path id="Trazado_1177366" data-name="Trazado 1177366" d="M35.358,73.067A3.766,3.766,0,0,0,39.12,69.3a.615.615,0,1,0-1.23,0,2.532,2.532,0,1,1-5.064,0,.615.615,0,0,0-1.23,0A3.766,3.766,0,0,0,35.358,73.067Z" transform="translate(-29.108 -63.059)"/>
        <path id="Trazado_1177367" data-name="Trazado 1177367" d="M54.434,43.663a.615.615,0,0,0,.615-.615V42.22a.615.615,0,1,0-1.23,0v.828A.615.615,0,0,0,54.434,43.663Z" transform="translate(-49.509 -38.194)"/>
        <path id="Trazado_1177368" data-name="Trazado 1177368" d="M86.76,43.663a.615.615,0,0,0,.615-.615V42.22a.615.615,0,1,0-1.23,0v.828A.615.615,0,0,0,86.76,43.663Z" transform="translate(-79.185 -38.194)"/>
        <path id="Trazado_1177369" data-name="Trazado 1177369" d="M4.543,187.461a1.1,1.1,0,0,0,.783.324h.615a1.108,1.108,0,0,0,1.107-1.107v-6.591a1.108,1.108,0,0,0-1.107-1.107H4.87a1.108,1.108,0,0,0-1.107,1.107v1.968a1.107,1.107,0,0,0-1.433.113l-.757.757a1.107,1.107,0,0,0,0,1.565Zm-1.43-4.336.83.83a.615.615,0,0,0,1.05-.435v-3.31h.825v6.345H5.377L2.53,183.709Z" transform="translate(-1.249 -164.308)"/>
        <path id="Trazado_1177370" data-name="Trazado 1177370" d="M85.487,159.646a1.1,1.1,0,0,0-.783-.324h-.615a1.108,1.108,0,0,0-1.107,1.107v6.591a1.108,1.108,0,0,0,1.107,1.107H85.16a1.108,1.108,0,0,0,1.107-1.107v-1.968a1.109,1.109,0,0,0,1.433-.113l.757-.757a1.107,1.107,0,0,0,0-1.565Zm1.43,4.336-.83-.83a.615.615,0,0,0-1.05.435v3.31h-.825v-6.345h.441L87.5,163.4Z" transform="translate(-76.281 -146.26)"/>
      </g>
    </g>
  </g>
</svg>
