<svg xmlns="http://www.w3.org/2000/svg" width="111.577" height="111.631" viewBox="0 0 111.577 111.631">
  <g id="inspire-idea_14781822_1_" data-name="inspire-idea_14781822 (1)" transform="translate(1.016 0.75)">
    <g id="Grupo_1173811" data-name="Grupo 1173811" transform="translate(0 0)">
      <path id="Trazado_1030754" data-name="Trazado 1030754" d="M118.589,359.79v-8.043a4.891,4.891,0,0,0,3.975-4.8V333.114h25.259v13.829a4.891,4.891,0,0,0,3.975,4.8l.688,6.927Z" transform="translate(-94.075 -261.098)" fill="#e39d82"/>
      <path id="Trazado_1030755" data-name="Trazado 1030755" d="M87.81,29.268c0,15.913-8.564,34.817-30.365,28.564L39.254,49.558a7.183,7.183,0,0,1-.473-10.623l1.836-.506,1.27-1.263a7.59,7.59,0,0,1,1.521-13.02.67.67,0,0,0,.392-.779,7.205,7.205,0,0,1-.2-1.7,7.013,7.013,0,0,1,6.936-7.086,6.943,6.943,0,0,1,1.349.135,3.292,3.292,0,0,1,.524-.531,2.8,2.8,0,0,0,1.163-2.444,7.817,7.817,0,0,1,10.951-.773.66.66,0,0,0,.99-.159,6.862,6.862,0,0,1,11.745,0,.66.66,0,0,0,.991.158,7.791,7.791,0,0,1,1.558-1.034C87.81,12.362,87.81,23.526,87.81,29.268Z" transform="translate(-30.266 -7.5)" fill="#73788c"/>
      <path id="Trazado_1030756" data-name="Trazado 1030756" d="M179.3,49.64a7.129,7.129,0,0,1-2.594,5.525L155.9,66.472h-18.6l-6.666-3.032A32.68,32.68,0,0,0,153,15.543a7.741,7.741,0,0,1,3.521-.843,7.848,7.848,0,0,1,5.872,2.652l.365,1.785,1.323,1.19a6.937,6.937,0,0,1,1.347-.135,7.013,7.013,0,0,1,6.938,7.086A7.244,7.244,0,0,1,172,29.545a7.582,7.582,0,0,1,2.077,13.228A7.063,7.063,0,0,1,179.3,49.64Z" transform="translate(-103.46 -13.108)" fill="#5e6577"/>
      <path id="Trazado_1030757" data-name="Trazado 1030757" d="M99.1,209.124a12.109,12.109,0,0,0,9.224-11.76h0a4.815,4.815,0,0,0-4.815-4.815H99.1l-48.5.006H46.19a4.815,4.815,0,0,0-4.815,4.815h0A12.109,12.109,0,0,0,50.6,209.13Z" transform="translate(-33.938 -151.622)" fill="#ffc3ad"/>
      <path id="Trazado_1030758" data-name="Trazado 1030758" d="M119.771,131.2a4.791,4.791,0,0,1,6.256,2.061,19.236,19.236,0,0,0,1.6,2.438l1.045,1.391c.443,1.292,1.428,7.324,2.794,7.324v18.371a15.325,15.325,0,0,1-5.234,11.535l-9.516,8.329A10.215,10.215,0,0,1,110,185.171h-5.644a10.215,10.215,0,0,1-6.726-2.526l-9.516-8.329a15.324,15.324,0,0,1-5.234-11.535V144.411a3.253,3.253,0,0,0,3.023-2.223l2.1-8.177a4.79,4.79,0,0,1,6.6-2.769l.306.146,2.465.945a27.3,27.3,0,0,0,19.533,0l2.465-.945Z" transform="translate(-66.26 -103.482)" fill="#ffc3ad"/>
      <path id="Trazado_1030759" data-name="Trazado 1030759" d="M173.567,303.987c-5.247,0-5.481-4.843-5.393-6.6a.662.662,0,0,1,.663-.627h9.444a.662.662,0,0,1,.663.643C178.989,299.174,178.642,303.987,173.567,303.987Z" transform="translate(-132.684 -232.784)" fill="#eaf6ff"/>
      <path id="Trazado_1030760" data-name="Trazado 1030760" d="M22.3,448.283l-13.882-.032a.662.662,0,0,1-.664-.663V435.262a.665.665,0,0,1,.356-.591,21.449,21.449,0,0,1,5.784-1.99l1.6-.321L29.6,437.593Z" transform="translate(-7.75 -338.393)" fill="#9be69d"/>
      <path id="Trazado_1030761" data-name="Trazado 1030761" d="M314.3,439.139l-5.355,8.739-18.486.013-6.689-11.713c.073-.075,13.522-4.3,13.522-4.3l.913.175a21.457,21.457,0,0,1,6.045,2.128Z" transform="translate(-222.724 -338.02)" fill="#9be69d"/>
      <path id="Trazado_1030762" data-name="Trazado 1030762" d="M141.47,418.39l2.02,10.148-7.3,8.839-22.172.025-8.41-9.27,3.137-9.691A22.709,22.709,0,0,0,141.47,418.39Z" transform="translate(-83.964 -327.513)" fill="#eaf6ff"/>
      <path id="Trazado_1030763" data-name="Trazado 1030763" d="M61.717,421.619,55.678,399.9a2.431,2.431,0,0,0-3.049-1.674L39.2,402.321a1.052,1.052,0,0,0-.658,1.435l2.832,6.413a.664.664,0,0,0,.458.379l6.9,1.583a.663.663,0,0,1,.4,1.026l-3.744,5.366a.664.664,0,0,0-.08.6l.9,2.492Z" transform="translate(-31.664 -311.729)" fill="#bbf49b"/>
      <path id="Trazado_1030764" data-name="Trazado 1030764" d="M243.879,421.415l6.047-21.741A2.429,2.429,0,0,1,252.975,398l13.426,4.09a1.055,1.055,0,0,1,.658,1.435l-2.832,6.413a.663.663,0,0,1-.459.379l-6.9,1.582a.664.664,0,0,0-.4,1.027l3.745,5.368a.663.663,0,0,1,.08.6l-.905,2.524Z" transform="translate(-191.654 -311.551)" fill="#bbf49b"/>
      <g id="Grupo_1173808" data-name="Grupo 1173808" transform="translate(81.874 59.997)">
        <path id="Trazado_1030765" data-name="Trazado 1030765" d="M404.213,387.922v8.506a25.9,25.9,0,0,1-.583,5.156,18.1,18.1,0,0,1-2.1,3.769c-1.34,2.256-.753,4.578-.745,7.2l-1.7,1.087H382.328V410a9.147,9.147,0,0,0-2.406-6.182,7.572,7.572,0,0,1-1.988-5.109v-3.665a4.486,4.486,0,0,1,1.915-3.676Z" transform="translate(-377.933 -363.781)" fill="#ffc3ad"/>
        <g id="Grupo_1173807" data-name="Grupo 1173807" transform="translate(20.456 14.281)">
          <path id="Trazado_1030766" data-name="Trazado 1030766" d="M476.249,344.776v8.433a1.769,1.769,0,0,1-.71,1.583c-.531.531-2.4-.281-3.205-.274l-1.442-1.542-.466-5.482,1.53-1.182a2.966,2.966,0,0,1,2.888-2.961C475.818,343.711,476.249,344.212,476.249,344.776Z" transform="translate(-470.425 -343.348)" fill="#ffc3ad"/>
          <path id="Trazado_1030767" data-name="Trazado 1030767" d="M484.612,346.3v6.664a2.968,2.968,0,0,1-5.368,1.743l-.19-.2A2.968,2.968,0,0,0,482,351.541v-6.657a2.949,2.949,0,0,0-.431-1.542c.026,0,.053,0,.08,0A2.966,2.966,0,0,1,484.612,346.3Z" transform="translate(-477.146 -343.34)" fill="#ffc3ad"/>
        </g>
        <path id="Trazado_1030768" data-name="Trazado 1030768" d="M480.328,386.87v8.871a14.463,14.463,0,0,1-2.035,7.4,14.472,14.472,0,0,0-2.033,7.453l.006,1.563a.663.663,0,0,1-.663.666h-2.041l-.009-2.229a14.5,14.5,0,0,1,2.035-7.453,14.462,14.462,0,0,0,2.035-7.4v-8.489Z" transform="translate(-452.405 -362.962)" fill="#e39d82"/>
        <path id="Trazado_1030769" data-name="Trazado 1030769" d="M394.148,282.879v23.957c0,1.721-2.815,3.127-4.536,3.127l1.462-3.908-2.022-1.923V282.879a3.131,3.131,0,0,1,1.845-2.849C393.289,280.03,394.148,281.616,394.148,282.879Z" transform="translate(-386.593 -279.751)" fill="#ffc3ad"/>
        <path id="Trazado_1030770" data-name="Trazado 1030770" d="M420.772,333.7v7.86c0,1.267-2.058,2.364-3.146,2.853a3.135,3.135,0,0,1-1.851-2.853l-.764-.169v-7.421l.764-.27a3.134,3.134,0,0,1,1.851-2.851C420.25,331.185,420.772,332.436,420.772,333.7Z" transform="translate(-406.81 -319.331)" fill="#ffc3ad"/>
        <path id="Trazado_1030771" data-name="Trazado 1030771" d="M450.487,333.7v8.336c0,1.265-2.288,2.362-3.376,2.851a3.132,3.132,0,0,1-1.851-2.851l-.745-.475v-7.523l.745-.338a3.134,3.134,0,0,1,1.851-2.851C450.076,331.253,450.487,332.436,450.487,333.7Z" transform="translate(-429.788 -319.331)" fill="#ffc3ad"/>
        <path id="Trazado_1030772" data-name="Trazado 1030772" d="M402.054,281.9v22.682c0,1.721-2.818,1.721-2.818,0V281.9a3.135,3.135,0,0,0-1.842-2.849,3.08,3.08,0,0,1,1.283-.279h.25A3.136,3.136,0,0,1,402.054,281.9Z" transform="translate(-393.09 -278.77)" fill="#e39d82"/>
        <path id="Trazado_1030773" data-name="Trazado 1030773" d="M431.49,332.727v7.86a3.138,3.138,0,0,1-3.127,3.13h-.252a3.055,3.055,0,0,1-1.276-.276,3.135,3.135,0,0,0,1.851-2.853v-7.86a3.135,3.135,0,0,0-1.851-2.851,3.057,3.057,0,0,1,1.276-.276h.252A3.137,3.137,0,0,1,431.49,332.727Z" transform="translate(-416.018 -318.358)" fill="#e39d82"/>
        <path id="Trazado_1030774" data-name="Trazado 1030774" d="M460.91,332.727v8.336a3.138,3.138,0,0,1-3.13,3.127h-.25a3.046,3.046,0,0,1-1.276-.276,3.132,3.132,0,0,0,1.849-2.851v-8.336a3.135,3.135,0,0,0-1.849-2.851,3.049,3.049,0,0,1,1.276-.276h.25A3.139,3.139,0,0,1,460.91,332.727Z" transform="translate(-438.932 -318.358)" fill="#e39d82"/>
        <path id="Trazado_1030775" data-name="Trazado 1030775" d="M411.011,369.032a6.724,6.724,0,0,1-.143,1.377c-.581,2.782-4.72,3.127-7.653,3.432,0,0-3.186-1.484-5.544-.755-1.754.543-2.855,3.359-2.881,3.34l-5.742-3v-2.828l5.543-3.986a6.21,6.21,0,0,1,3.549-1.155l9.2-.087A3.669,3.669,0,0,1,411.011,369.032Z" transform="translate(-386.591 -346.214)" fill="#e39d82"/>
        <path id="Trazado_1030776" data-name="Trazado 1030776" d="M395.027,386.437l2.619-3.523a.664.664,0,0,1,.453-.263l5.659-.686a4.491,4.491,0,0,0,3.1-4.308,1.511,1.511,0,0,0-1.521-1.478h-8.326a5.621,5.621,0,0,0-3.224,1.015l-7.186,5.029Z" transform="translate(-384.679 -354.635)" fill="#ffc3ad"/>
      </g>
      <g id="Grupo_1173810" data-name="Grupo 1173810" transform="translate(60.77 3.126)">
        <path id="Trazado_1030777" data-name="Trazado 1030777" d="M326.879,39.356c0,14.376-11.206,26.162-25.582,26.162-4.667,0-14.913-3.425-16.246-7.144l.252-1.017a.656.656,0,0,0-.057-.462,24.15,24.15,0,0,1,37.4-29.237C325.743,32.509,326.879,36.543,326.879,39.356Z" transform="translate(-282.516 -21.635)" fill="#eaf6ff"/>
        <path id="Trazado_1030778" data-name="Trazado 1030778" d="M331.344,72.095a24.187,24.187,0,0,1-36.25,15.444.659.659,0,0,0-.469-.086l-9.959,1.9a.665.665,0,0,1-.77-.812l2.214-8.957A26.044,26.044,0,0,0,323.7,48.865,24.092,24.092,0,0,1,331.344,72.095Z" transform="translate(-283.576 -42.842)" fill="#d8ecfe"/>
        <g id="Grupo_1173809" data-name="Grupo 1173809" transform="translate(11.688 6.016)">
          <path id="Trazado_1030779" data-name="Trazado 1030779" d="M357.432,61.747c0,6.471-6.8,12.731-13.4,12.731-1,0-2.085.681-3.834-1.9a14.07,14.07,0,0,0-1.73-3.044,11.987,11.987,0,0,1,6.765-19.849C354.3,49.682,357.432,55.991,357.432,61.747Z" transform="translate(-335.361 -49.495)" fill="#ffe177"/>
          <path id="Trazado_1030780" data-name="Trazado 1030780" d="M375.073,60.824a11.945,11.945,0,0,1-3.05,7.987,14.472,14.472,0,0,0-2.9,8.63v.749l-12.068.039v-.662a20.259,20.259,0,0,0-1.484-6.594,12.138,12.138,0,0,0,2.9.349c6.6,0,12.325-4.3,12.325-10.771a11.786,11.786,0,0,0-9.828-11.528,12,12,0,0,1,14.1,11.8Z" transform="translate(-351.099 -48.837)" fill="#ffd15b"/>
          <path id="Trazado_1030781" data-name="Trazado 1030781" d="M371.087,179.51l1.876,3.664c0,1.989-1.191,3.664-5.473,3.664h-.94a3.6,3.6,0,0,1-3.6-3.6V179.51h8.136Z" transform="translate(-356.849 -150.609)" fill="#5e6577"/>
          <path id="Trazado_1030782" data-name="Trazado 1030782" d="M390.7,179.511v3.729a3.6,3.6,0,0,1-3.6,3.6h-3.631a3.6,3.6,0,0,0,3.6-3.6v-3.729Z" transform="translate(-372.833 -150.61)" fill="#4d5263"/>
          <path id="Trazado_1030783" data-name="Trazado 1030783" d="M362.839,161.846c0,.8.483,1.7,0,2.223s-4.072,1.142-4.811,1.142h-8.852a2.785,2.785,0,0,1-2.672-2.885,3.006,3.006,0,0,1,.782-2.042,2.576,2.576,0,0,1,1.89-.845h8.852C359.5,159.439,362.839,160.251,362.839,161.846Z" transform="translate(-344.04 -134.977)" fill="#73788c"/>
          <path id="Trazado_1030784" data-name="Trazado 1030784" d="M406.131,162.325a3,3,0,0,1-.782,2.04,2.576,2.576,0,0,1-1.89.845h-4.848a2.572,2.572,0,0,0,1.89-.845,3,3,0,0,0,.782-2.04,2.785,2.785,0,0,0-2.672-2.887h4.848A2.785,2.785,0,0,1,406.131,162.325Z" transform="translate(-384.622 -134.977)" fill="#5e6577"/>
        </g>
      </g>
    </g>
    <g id="Grupo_1173820" data-name="Grupo 1173820" transform="translate(0 0)">
      <g id="Grupo_1173812" data-name="Grupo 1173812" transform="translate(7.437 40.934)">
        <path id="Trazado_1030785" data-name="Trazado 1030785" d="M50.489,209.124a12.109,12.109,0,0,1-9.113-11.732h0a4.815,4.815,0,0,1,4.815-4.815H50.6" transform="translate(-41.376 -192.577)" fill="none" stroke="#000" stroke-linecap="round" stroke-linejoin="round" stroke-miterlimit="10" stroke-width="1.5"/>
        <path id="Trazado_1030786" data-name="Trazado 1030786" d="M311.485,232.041a12.129,12.129,0,0,1-8.428,7.8" transform="translate(-245.181 -223.313)" fill="none" stroke="#000" stroke-linecap="round" stroke-linejoin="round" stroke-miterlimit="10" stroke-width="1.5"/>
      </g>
      <path id="Trazado_1030787" data-name="Trazado 1030787" d="M209.872,133.871a27.291,27.291,0,0,0,5.934-1.537l2.465-.945.409-.192a4.79,4.79,0,0,1,6.57,2.782" transform="translate(-165.169 -103.483)" fill="none" stroke="#000" stroke-linecap="round" stroke-linejoin="round" stroke-miterlimit="10" stroke-width="1.5"/>
      <path id="Trazado_1030788" data-name="Trazado 1030788" d="M131.471,153.451V162.9a15.325,15.325,0,0,1-5.234,11.535l-9.516,8.329A10.215,10.215,0,0,1,110,185.286h-5.644a10.215,10.215,0,0,1-6.726-2.526l-9.516-8.329A15.324,15.324,0,0,1,82.875,162.9V144.526A3.253,3.253,0,0,0,85.9,142.3l2.1-8.177a4.79,4.79,0,0,1,6.6-2.769l.306.146,2.465.945a27.278,27.278,0,0,0,5.9,1.531" transform="translate(-66.26 -103.597)" fill="none" stroke="#000" stroke-linecap="round" stroke-linejoin="round" stroke-miterlimit="10" stroke-width="1.5"/>
      <g id="Grupo_1173814" data-name="Grupo 1173814" transform="translate(26.876 38.832)">
        <g id="Grupo_1173813" data-name="Grupo 1173813">
          <path id="Trazado_1030789" data-name="Trazado 1030789" d="M186.739,262.089a5.127,5.127,0,0,1-4.65,0" transform="translate(-170.406 -244.613)" fill="none" stroke="#000" stroke-linecap="round" stroke-linejoin="round" stroke-miterlimit="10" stroke-width="1.5"/>
          <path id="Trazado_1030790" data-name="Trazado 1030790" d="M137.77,184.162a8.845,8.845,0,0,0-8.5,0" transform="translate(-129.266 -183.073)" fill="none" stroke="#000" stroke-linecap="round" stroke-linejoin="round" stroke-miterlimit="10" stroke-width="1.5"/>
          <path id="Trazado_1030791" data-name="Trazado 1030791" d="M225.99,184.162a8.845,8.845,0,0,0-8.5,0" transform="translate(-197.974 -183.073)" fill="none" stroke="#000" stroke-linecap="round" stroke-linejoin="round" stroke-miterlimit="10" stroke-width="1.5"/>
          <line id="Línea_813" data-name="Línea 813" y1="3.767" transform="translate(23.764 6.386)" fill="none" stroke="#000" stroke-linecap="round" stroke-linejoin="round" stroke-miterlimit="10" stroke-width="1.5"/>
          <line id="Línea_814" data-name="Línea 814" y1="3.767" transform="translate(4.252 6.386)" fill="none" stroke="#000" stroke-linecap="round" stroke-linejoin="round" stroke-miterlimit="10" stroke-width="1.5"/>
        </g>
        <path id="Trazado_1030792" data-name="Trazado 1030792" d="M173.567,303.987c-6.41,0-5.338-7.227-5.338-7.227h10.675S179.785,303.987,173.567,303.987Z" transform="translate(-159.56 -271.616)" fill="none" stroke="#000" stroke-linecap="round" stroke-linejoin="round" stroke-miterlimit="10" stroke-width="1.5"/>
      </g>
      <path id="Trazado_1030793" data-name="Trazado 1030793" d="M97.51,17.065a6.838,6.838,0,0,0-6.621-2.345A7.961,7.961,0,0,0,83.33,9.092a7.834,7.834,0,0,0-5.679,2.445,6.877,6.877,0,0,0-12.527,0,7.834,7.834,0,0,0-5.679-2.445,7.96,7.96,0,0,0-7.559,5.628,6.834,6.834,0,0,0-1.349-.135A7.012,7.012,0,0,0,43.6,21.67a7.211,7.211,0,0,0,.365,2.267,7.584,7.584,0,0,0-2.077,13.23,7.146,7.146,0,0,0-2.632,12.391" transform="translate(-30.269 -7.5)" fill="none" stroke="#000" stroke-linecap="round" stroke-linejoin="round" stroke-miterlimit="10" stroke-width="1.5"/>
      <path id="Trazado_1030794" data-name="Trazado 1030794" d="M63.457,142.91a6.943,6.943,0,0,1-3.13-1.269" transform="translate(-48.699 -111.973)" fill="none" stroke="#000" stroke-linecap="round" stroke-linejoin="round" stroke-miterlimit="10" stroke-width="1.5"/>
      <path id="Trazado_1030795" data-name="Trazado 1030795" d="M105.6,40.2a6.583,6.583,0,0,1,4.172,2.772" transform="translate(-83.958 -32.967)" fill="none" stroke="#000" stroke-linecap="round" stroke-linejoin="round" stroke-miterlimit="10" stroke-width="1.5"/>
      <path id="Trazado_1030796" data-name="Trazado 1030796" d="M269.9,40.183a6.593,6.593,0,0,0-3.351,2.553" transform="translate(-209.308 -32.954)" fill="none" stroke="#000" stroke-linecap="round" stroke-linejoin="round" stroke-miterlimit="10" stroke-width="1.5"/>
      <path id="Trazado_1030797" data-name="Trazado 1030797" d="M328.735,48.364q-.111.7-.264,1.4a24.9,24.9,0,0,1-37.543,15.761l-11.558,2.2,2.854-11.553A24.834,24.834,0,0,1,299.994,20" transform="translate(-219.237 -17.237)" fill="none" stroke="#000" stroke-linecap="round" stroke-linejoin="round" stroke-miterlimit="10" stroke-width="1.5"/>
      <path id="Trazado_1030798" data-name="Trazado 1030798" d="M407.545,19.544q.892.127,1.788.321a24.863,24.863,0,0,1,19.293,20.4" transform="translate(-319.122 -16.88)" fill="none" stroke="#000" stroke-linecap="round" stroke-linejoin="round" stroke-miterlimit="10" stroke-width="1.5"/>
      <g id="Grupo_1173815" data-name="Grupo 1173815" transform="translate(72.457 9.148)">
        <path id="Trazado_1030799" data-name="Trazado 1030799" d="M340.565,72.911a14.138,14.138,0,0,0-2.109-4.059,11.974,11.974,0,1,1,17.8-.061,14.767,14.767,0,0,0-2.146,4.071" transform="translate(-335.355 -48.863)" fill="none" stroke="#000" stroke-linecap="round" stroke-linejoin="round" stroke-miterlimit="10" stroke-width="1.5"/>
        <line id="Línea_815" data-name="Línea 815" y1="8.803" transform="translate(11.974 15.197)" fill="none" stroke="#000" stroke-linecap="round" stroke-linejoin="round" stroke-miterlimit="10" stroke-width="1.5"/>
        <path id="Trazado_1030800" data-name="Trazado 1030800" d="M374.674,186.134V187.5a4.423,4.423,0,0,1-4.423,4.423h-2.909a4.423,4.423,0,0,1-4.423-4.423v-1.363" transform="translate(-356.822 -155.774)" fill="none" stroke="#000" stroke-linecap="round" stroke-linejoin="round" stroke-miterlimit="10" stroke-width="1.5"/>
        <path id="Trazado_1030801" data-name="Trazado 1030801" d="M363.811,163.828H351.894a3.027,3.027,0,0,1-3.027-3.027v-.179a3.027,3.027,0,0,1,3.027-3.027h11.917a3.027,3.027,0,0,1,3.027,3.027v.179A3.027,3.027,0,0,1,363.811,163.828Z" transform="translate(-345.879 -133.547)" fill="none" stroke="#000" stroke-linecap="round" stroke-linejoin="round" stroke-miterlimit="10" stroke-width="1.5"/>
        <line id="Línea_816" data-name="Línea 816" x2="7.666" transform="translate(8.301 15.178)" fill="none" stroke="#000" stroke-linecap="round" stroke-linejoin="round" stroke-miterlimit="10" stroke-width="1.5"/>
      </g>
      <path id="Trazado_1030802" data-name="Trazado 1030802" d="M346.53,432.2l.556.106a21.42,21.42,0,0,1,6.043,2.128" transform="translate(-271.602 -338.265)" fill="none" stroke="#000" stroke-linecap="round" stroke-linejoin="round" stroke-miterlimit="10" stroke-width="1.5"/>
      <path id="Trazado_1030803" data-name="Trazado 1030803" d="M250.768,358.351V366.6a4.891,4.891,0,0,0,3.975,4.8" transform="translate(-197.02 -280.753)" fill="none" stroke="#000" stroke-linecap="round" stroke-linejoin="round" stroke-miterlimit="10" stroke-width="1.5"/>
      <path id="Trazado_1030804" data-name="Trazado 1030804" d="M118.589,417.362h0a22.714,22.714,0,0,0,33.209,0h0" transform="translate(-94.075 -326.713)" fill="none" stroke="#000" stroke-linecap="round" stroke-linejoin="round" stroke-miterlimit="10" stroke-width="1.5"/>
      <path id="Trazado_1030805" data-name="Trazado 1030805" d="M14.76,374.865l-.87.174a21.416,21.416,0,0,0-6.141,2.18m28.489-18.868V366.6a4.891,4.891,0,0,1-3.975,4.8l-.254.048" transform="translate(-7.75 -280.753)" fill="none" stroke="#000" stroke-linecap="round" stroke-linejoin="round" stroke-miterlimit="10" stroke-width="1.5"/>
      <g id="Grupo_1173816" data-name="Grupo 1173816" transform="translate(6.182 86.394)">
        <path id="Trazado_1030806" data-name="Trazado 1030806" d="M56.4,412.382,52.926,399.9a2.431,2.431,0,0,0-3.049-1.674l-13.426,4.091a1.052,1.052,0,0,0-.658,1.435l2.967,6.717,8.183,1.878-4.5,6.454,1.021,2.847" transform="translate(-35.703 -398.124)" fill="none" stroke="#000" stroke-linecap="round" stroke-linejoin="round" stroke-miterlimit="10" stroke-width="1.5"/>
        <line id="Línea_817" data-name="Línea 817" x1="0.504" y1="1.811" transform="translate(22.768 21.716)" fill="none" stroke="#000" stroke-linecap="round" stroke-linejoin="round" stroke-miterlimit="10" stroke-width="1.5"/>
        <path id="Trazado_1030807" data-name="Trazado 1030807" d="M244.868,421.652l6.049-21.748a2.429,2.429,0,0,1,3.049-1.673l13.426,4.09a1.055,1.055,0,0,1,.658,1.435l-2.967,6.718L256.9,412.35l4.5,6.455-1.021,2.846" transform="translate(-198.607 -398.125)" fill="none" stroke="#000" stroke-linecap="round" stroke-linejoin="round" stroke-miterlimit="10" stroke-width="1.5"/>
      </g>
      <g id="Grupo_1173819" data-name="Grupo 1173819" transform="translate(81.888 60.06)">
        <g id="Grupo_1173817" data-name="Grupo 1173817" transform="translate(21.987 14.281)">
          <path id="Trazado_1030808" data-name="Trazado 1030808" d="M483.348,346.59a2.964,2.964,0,0,0-2.964-2.964h0a2.968,2.968,0,0,0-2.968,2.968v6.657a2.968,2.968,0,0,0,2.968,2.968h0a2.968,2.968,0,0,0,2.968-2.968Z" transform="translate(-477.412 -343.626)" fill="none" stroke="#000" stroke-linecap="round" stroke-linejoin="round" stroke-miterlimit="10" stroke-width="1.5"/>
          <path id="Trazado_1030809" data-name="Trazado 1030809" d="M490.831,400.563" transform="translate(-487.863 -387.97)" fill="none" stroke="#000" stroke-linecap="round" stroke-linejoin="round" stroke-miterlimit="10" stroke-width="1.5"/>
        </g>
        <g id="Grupo_1173818" data-name="Grupo 1173818" transform="translate(23.855 23.991)">
          <path id="Trazado_1030810" data-name="Trazado 1030810" d="M489.925,387.53v8.87a14.407,14.407,0,0,1-2.034,7.317h0a14.478,14.478,0,0,0-2.034,7.453l.008,2.229" transform="translate(-485.858 -387.53)" fill="none" stroke="#000" stroke-linecap="round" stroke-linejoin="round" stroke-miterlimit="10" stroke-width="1.5"/>
        </g>
        <path id="Trazado_1030811" data-name="Trazado 1030811" d="M433.859,414.75a12.134,12.134,0,0,1,2.591,11.094l-.092.354" transform="translate(-421.504 -384.739)" fill="none" stroke="#000" stroke-linecap="round" stroke-linejoin="round" stroke-miterlimit="10" stroke-width="1.5"/>
        <path id="Trazado_1030812" data-name="Trazado 1030812" d="M389.115,306.126V282.185a3.137,3.137,0,0,1,3.128-3.128h.251a3.137,3.137,0,0,1,3.128,3.128v19.453" transform="translate(-386.656 -279.057)" fill="none" stroke="#000" stroke-linecap="round" stroke-linejoin="round" stroke-miterlimit="10" stroke-width="1.5"/>
        <path id="Trazado_1030813" data-name="Trazado 1030813" d="M418.532,333.021a3.137,3.137,0,0,1,3.128-3.128h.251a3.137,3.137,0,0,1,3.128,3.128v7.119" transform="translate(-409.567 -318.65)" fill="none" stroke="#000" stroke-linecap="round" stroke-linejoin="round" stroke-miterlimit="10" stroke-width="1.5"/>
        <path id="Trazado_1030814" data-name="Trazado 1030814" d="M447.947,340.064v-7.043a3.137,3.137,0,0,1,3.128-3.128h.251a3.137,3.137,0,0,1,3.128,3.128v2.986" transform="translate(-432.477 -318.65)" fill="none" stroke="#000" stroke-linecap="round" stroke-linejoin="round" stroke-miterlimit="10" stroke-width="1.5"/>
        <path id="Trazado_1030815" data-name="Trazado 1030815" d="M388.346,386.726l2.789-3.752,5.588-.72a4.491,4.491,0,0,0,3.1-4.267,1.52,1.52,0,0,0-1.521-1.519h-7.972a5.62,5.62,0,0,0-3.224,1.015l-7.186,5.029A4.489,4.489,0,0,0,378,386.189v3.664a7.563,7.563,0,0,0,1.989,5.109,9.149,9.149,0,0,1,2.406,6.183v3.64" transform="translate(-377.999 -354.924)" fill="none" stroke="#000" stroke-linecap="round" stroke-linejoin="round" stroke-miterlimit="10" stroke-width="1.5"/>
      </g>
    </g>
  </g>
</svg>
