<svg xmlns="http://www.w3.org/2000/svg" xmlns:xlink="http://www.w3.org/1999/xlink" width="113" height="113" viewBox="0 0 113 113">
  <defs>
    <filter id="Trazado_982547" x="0" y="0" width="113" height="113" filterUnits="userSpaceOnUse">
      <feOffset dy="3" input="SourceAlpha"/>
      <feGaussianBlur stdDeviation="3" result="blur"/>
      <feFlood flood-opacity="0.161"/>
      <feComposite operator="in" in2="blur"/>
      <feComposite in="SourceGraphic"/>
    </filter>
  </defs>
  <g id="Grupo_1233232" data-name="Grupo 1233232" transform="translate(-376 -3943)">
    <g id="Grupo_1232515" data-name="Grupo 1232515" transform="translate(385 3949)">
      <g id="Grupo_1208028" data-name="Grupo 1208028" transform="translate(0)">
        <g id="Grupo_1177675" data-name="Grupo 1177675" transform="translate(0 0)">
          <g id="Grupo_1176928" data-name="Grupo 1176928" transform="translate(0)">
            <g id="Grupo_1172322" data-name="Grupo 1172322">
              <g id="Grupo_1164700" data-name="Grupo 1164700">
                <g id="Grupo_1160931" data-name="Grupo 1160931">
                  <g id="Grupo_1160749" data-name="Grupo 1160749">
                    <g id="Grupo_1158891" data-name="Grupo 1158891">
                      <g id="Grupo_1157406" data-name="Grupo 1157406">
                        <g id="Grupo_1155793" data-name="Grupo 1155793">
                          <g id="Grupo_1154704" data-name="Grupo 1154704">
                            <g id="Grupo_1150790" data-name="Grupo 1150790">
                              <g id="Grupo_1154214" data-name="Grupo 1154214" transform="translate(0)">
                                <g id="Grupo_1152583" data-name="Grupo 1152583">
                                  <g id="Grupo_1146973" data-name="Grupo 1146973">
                                    <g id="Grupo_1146954" data-name="Grupo 1146954">
                                      <g transform="matrix(1, 0, 0, 1, -9, -6)" filter="url(#Trazado_982547)">
                                        <g id="Trazado_982547-2" data-name="Trazado 982547" transform="translate(9 6)" fill="#fed0b4">
                                          <path d="M 47.50000762939453 93.49986267089844 C 41.28937911987305 93.49986267089844 35.26534271240234 92.28383636474609 29.59519386291504 89.88558197021484 C 24.11772727966309 87.56880950927734 19.19814109802246 84.25183868408203 14.97310066223145 80.02679443359375 C 10.74804782867432 75.8017578125 7.431074142456055 70.88218688964844 5.114300727844238 65.40471649169922 C 2.716034412384033 59.73458480834961 1.500007629394531 53.71054458618164 1.500007629394531 47.49993133544922 C 1.500007629394531 41.2893180847168 2.716034412384033 35.26527786254883 5.114300727844238 29.59514427185059 C 7.431074142456055 24.11767768859863 10.74804782867432 19.19810485839844 14.97310066223145 14.97306442260742 C 19.19814109802246 10.74802494049072 24.11772727966309 7.431051254272461 29.59519386291504 5.114277839660645 C 35.26534271240234 2.71602463722229 41.28937911987305 1.499997973442078 47.50000762939453 1.499997973442078 C 53.71063613891602 1.499997973442078 59.73467254638672 2.71602463722229 65.40482330322266 5.114277839660645 C 70.88228607177734 7.431051254272461 75.80187225341797 10.74802494049072 80.02691650390625 14.97306442260742 C 84.25196838378906 19.19810485839844 87.56893920898438 24.11767768859863 89.88571166992188 29.59514427185059 C 92.28398132324219 35.26527786254883 93.50000762939453 41.2893180847168 93.50000762939453 47.49993133544922 C 93.50000762939453 53.71054458618164 92.28398132324219 59.73458480834961 89.88571166992188 65.40471649169922 C 87.56893920898438 70.88218688964844 84.25196838378906 75.8017578125 80.02691650390625 80.02679443359375 C 75.80187225341797 84.25183868408203 70.88228607177734 87.56880950927734 65.40482330322266 89.88558197021484 C 59.73467254638672 92.28383636474609 53.71063613891602 93.49986267089844 47.50000762939453 93.49986267089844 Z" stroke="none"/>
                                          <path d="M 47.50000762939453 2.999992370605469 C 41.4912223815918 2.999992370605469 35.66377639770508 4.1761474609375 30.17951202392578 6.495796203613281 C 24.88085174560547 8.736930847167969 20.12152862548828 11.94596099853516 16.03376007080078 16.03372955322266 C 11.94597625732422 20.12148284912109 8.736961364746094 24.88080596923828 6.495803833007812 30.17946624755859 C 4.176162719726562 35.66371536254883 3.000007629394531 41.49116134643555 3.000007629394531 47.49993133544922 C 3.000007629394531 53.50870132446289 4.176162719726562 59.33614730834961 6.495803833007812 64.82038879394531 C 8.736961364746094 70.11905670166016 11.94597625732422 74.87836456298828 16.03376007080078 78.96613311767578 C 20.12152862548828 83.05390167236328 24.88085174560547 86.26291656494141 30.17951202392578 88.50406646728516 C 35.66377639770508 90.82369995117188 41.4912223815918 91.99985504150391 47.50000762939453 91.99985504150391 C 53.50879287719727 91.99985504150391 59.33623886108398 90.82369995117188 64.82049560546875 88.50406646728516 C 70.11916351318359 86.26291656494141 74.87848663330078 83.05390167236328 78.96625518798828 78.96613311767578 C 83.05403900146484 74.87836456298828 86.26305389404297 70.11905670166016 88.50421142578125 64.82038879394531 C 90.8238525390625 59.33614730834961 92.00000762939453 53.50870132446289 92.00000762939453 47.49993133544922 C 92.00000762939453 41.49116134643555 90.8238525390625 35.66371536254883 88.50421142578125 30.17946624755859 C 86.26305389404297 24.88080596923828 83.05403900146484 20.12148284912109 78.96625518798828 16.03372955322266 C 74.87848663330078 11.94596099853516 70.11916351318359 8.736930847167969 64.82049560546875 6.495796203613281 C 59.33623886108398 4.1761474609375 53.50879287719727 2.999992370605469 47.50000762939453 2.999992370605469 M 47.50000762939453 -7.62939453125e-06 C 73.73352813720703 -7.62939453125e-06 95.00000762939453 21.26644134521484 95.00000762939453 47.49993133544922 C 95.00000762939453 73.73342132568359 73.73352813720703 94.99985504150391 47.50000762939453 94.99985504150391 C 21.26648712158203 94.99985504150391 7.62939453125e-06 73.73342132568359 7.62939453125e-06 47.49993133544922 C 7.62939453125e-06 21.26644134521484 21.26648712158203 -7.62939453125e-06 47.50000762939453 -7.62939453125e-06 Z" stroke="none" fill="#fd660a"/>
                                        </g>
                                      </g>
                                    </g>
                                  </g>
                                </g>
                              </g>
                            </g>
                          </g>
                        </g>
                      </g>
                    </g>
                  </g>
                </g>
              </g>
            </g>
          </g>
        </g>
      </g>
    </g>
    <g id="bacterias" transform="translate(398.708 3961.687)">
      <path id="Trazado_1231533" data-name="Trazado 1231533" d="M67.586,41.293A33.793,33.793,0,1,1,33.793,7.5,33.793,33.793,0,0,1,67.586,41.293Zm0,0" transform="translate(0 -6.48)" fill="#00a5a9"/>
      <path id="Trazado_1231534" data-name="Trazado 1231534" d="M104.215,86.613A9.722,9.722,0,0,0,94.5,96.325a4.08,4.08,0,1,0,8.159,0,1.554,1.554,0,0,1,1.552-1.552,4.08,4.08,0,0,0,0-8.159Zm0,0" transform="translate(-81.652 -74.835)" fill="#60f375"/>
      <path id="Trazado_1231535" data-name="Trazado 1231535" d="M104.215,90.693a5.63,5.63,0,0,0-5.626,5.632H94.5a4.08,4.08,0,0,0,8.159,0,1.554,1.554,0,0,1,1.552-1.552,4.08,4.08,0,0,0,0-8.159h0Zm0,0" transform="translate(-81.652 -74.835)" fill="#28d05b"/>
      <path id="Trazado_1231536" data-name="Trazado 1231536" d="M38.58,286.629a4.08,4.08,0,1,0,0,8.159,1.554,1.554,0,0,1,1.552,1.552,4.08,4.08,0,0,0,8.159,0A9.722,9.722,0,0,0,38.58,286.629Zm0,0" transform="translate(-29.808 -247.651)" fill="#60f375"/>
      <path id="Trazado_1231537" data-name="Trazado 1231537" d="M70.132,300.419a4.08,4.08,0,0,0,4.08-4.08,9.722,9.722,0,0,0-9.711-9.711v.141a5.394,5.394,0,0,0,2.778,4.672,5.647,5.647,0,0,1,2.859,4.9h-.005Zm0,0" transform="translate(-55.729 -247.651)" fill="#28d05b"/>
      <path id="Trazado_1231538" data-name="Trazado 1231538" d="M348.219,318.988a4.08,4.08,0,0,0-4.08,4.08,1.554,1.554,0,0,1-1.552,1.552,4.08,4.08,0,1,0,0,8.159,9.723,9.723,0,0,0,9.711-9.711A4.08,4.08,0,0,0,348.219,318.988Zm0,0" transform="translate(-292.475 -275.609)" fill="#60f375"/>
      <path id="Trazado_1231539" data-name="Trazado 1231539" d="M348.219,323.068a5.638,5.638,0,0,1-5.631,5.632h-4.08a4.08,4.08,0,0,0,4.08,4.08,9.723,9.723,0,0,0,9.711-9.711,4.079,4.079,0,0,0-4.078-4.08h0Zm0,0" transform="translate(-292.475 -275.609)" fill="#28d05b"/>
      <path id="Trazado_1231540" data-name="Trazado 1231540" d="M176.728,367.214a1.554,1.554,0,0,1,0-2.195,4.08,4.08,0,0,0-5.769-5.769,9.722,9.722,0,0,0,0,13.734,4.08,4.08,0,1,0,5.769-5.769Zm0,0" transform="translate(-145.256 -309.363)" fill="#87f8f4"/>
      <path id="Trazado_1231541" data-name="Trazado 1231541" d="M189,380.578a4.08,4.08,0,0,0,5.769-5.769,1.554,1.554,0,0,1,0-2.195,4.079,4.079,0,0,0,0-5.769l-2.885,2.885a5.639,5.639,0,0,0,0,7.968l0,0Zm0,0" transform="translate(-163.302 -316.957)" fill="#00e7ec"/>
      <path id="Trazado_1231542" data-name="Trazado 1231542" d="M199.279,184.941a4.079,4.079,0,0,0-5.769,0l-7.029,7.029a4.08,4.08,0,1,0,5.769,5.769l7.029-7.029a4.079,4.079,0,0,0,0-5.769Zm0,0" transform="translate(-160.088 -158.759)" fill="#87f8f4"/>
      <path id="Trazado_1231543" data-name="Trazado 1231543" d="M201.1,184.941a4.08,4.08,0,0,1,0,5.769l-7.029,7.029a4.079,4.079,0,0,0,5.769,0l7.029-7.029a4.08,4.08,0,0,0-5.769-5.769Zm0,0" transform="translate(-167.683 -158.759)" fill="#00e7ec"/>
      <path id="Trazado_1231544" data-name="Trazado 1231544" d="M289.286,81.966l-7.03-7.029a4.08,4.08,0,1,0-5.769,5.769l7.03,7.03a4.08,4.08,0,0,0,5.769-5.77Zm0,0" transform="translate(-237.855 -63.714)" fill="#ffcf5d"/>
      <path id="Trazado_1231545" data-name="Trazado 1231545" d="M296.877,81.966l-7.03-7.029a4.08,4.08,0,0,0-5.769,0l2.884,2.885,4.143,4.139a4.082,4.082,0,0,1,0,5.775l0,0a4.08,4.08,0,0,0,5.766-5.774Zm0,0" transform="translate(-245.447 -63.714)" fill="#ffb545"/>
      <g id="Grupo_1233231" data-name="Grupo 1233231" transform="translate(29.033 4.811)">
        <path id="Trazado_1231546" data-name="Trazado 1231546" d="M217.58,37.419a2.04,2.04,0,1,1-2.04-2.04A2.04,2.04,0,0,1,217.58,37.419Zm0,0" transform="translate(-213.5 -35.379)" fill="#ffc98c"/>
        <path id="Trazado_1231547" data-name="Trazado 1231547" d="M440.643,187.474a2.04,2.04,0,1,1-2.04-2.04A2.04,2.04,0,0,1,440.643,187.474Zm0,0" transform="translate(-406.229 -165.028)" fill="#ffc98c"/>
        <path id="Trazado_1231548" data-name="Trazado 1231548" d="M317.584,437.442a2.04,2.04,0,1,1-2.04-2.04A2.04,2.04,0,0,1,317.584,437.442Zm0,0" transform="translate(-299.905 -381.004)" fill="#ffc98c"/>
        <path id="Trazado_1231549" data-name="Trazado 1231549" d="M310.252,252.431a2.04,2.04,0,1,1-2.04-2.04A2.04,2.04,0,0,1,310.252,252.431Zm0,0" transform="translate(-293.57 -221.152)" fill="#ffc98c"/>
      </g>
      <path id="Trazado_1231550" data-name="Trazado 1231550" d="M117.572,417.442a2.04,2.04,0,1,1-2.04-2.04A2.04,2.04,0,0,1,117.572,417.442Zm0,0" transform="translate(-98.058 -358.912)" fill="#ffcf5d"/>
      <path id="Trazado_1231551" data-name="Trazado 1231551" d="M37.568,197.427a2.04,2.04,0,1,1-2.04-2.04A2.04,2.04,0,0,1,37.568,197.427Zm0,0" transform="translate(-28.934 -168.817)" fill="#87f8f4"/>
      <path id="Trazado_1231552" data-name="Trazado 1231552" d="M266.481,375.32a2.04,2.04,0,0,0-2.04,2.04.777.777,0,0,1-.776.776,2.04,2.04,0,1,0,0,4.08,4.861,4.861,0,0,0,4.856-4.856A2.04,2.04,0,0,0,266.481,375.32Zm0,0" transform="translate(-226.047 -324.281)" fill="#ffcf5d"/>
      <path id="Trazado_1231553" data-name="Trazado 1231553" d="M117.984,223.615a.777.777,0,0,1,0-1.1,2.04,2.04,0,0,0-2.885-2.884,4.862,4.862,0,0,0,0,6.867,2.04,2.04,0,0,0,2.884-2.885Zm0,0" transform="translate(-98.22 -189.249)" fill="#ffcf5d"/>
      <path id="Trazado_1231554" data-name="Trazado 1231554" d="M366.059,201.711a2.04,2.04,0,0,0-2.885,0l-3.515,3.514a2.04,2.04,0,1,0,2.885,2.885l3.515-3.515A2.04,2.04,0,0,0,366.059,201.711Zm0,0" transform="translate(-310.234 -173.764)" fill="#87f8f4"/>
      <path id="Trazado_1231555" data-name="Trazado 1231555" d="M266.372,300.74l-3.515-3.515a2.04,2.04,0,0,0-2.884,2.885l3.515,3.515a2.04,2.04,0,0,0,2.884-2.885Zm0,0" transform="translate(-224.103 -256.29)" fill="#ffcf5d"/>
      <path id="Trazado_1231556" data-name="Trazado 1231556" d="M431.066,250.391a4.861,4.861,0,0,0-4.855,4.856,2.04,2.04,0,1,0,4.08,0,.777.777,0,0,1,.776-.776,2.04,2.04,0,1,0,0-4.08Zm0,0" transform="translate(-368.251 -216.341)" fill="#ffcf5d"/>
      <path id="Trazado_1231557" data-name="Trazado 1231557" d="M92.1,94.951a5.1,5.1,0,0,0,5.1-5.1.537.537,0,0,1,.533-.533,5.1,5.1,0,1,0,0-10.2,1.02,1.02,0,1,0,0,2.04v0a3.061,3.061,0,0,1,0,6.121,2.572,2.572,0,0,0-2.572,2.571,3.061,3.061,0,0,1-6.121,0,8.714,8.714,0,0,1,5.15-7.937,1.02,1.02,0,1,0-.836-1.86A10.744,10.744,0,0,0,87,89.851a5.1,5.1,0,0,0,5.1,5.1Zm0,0" transform="translate(-75.166 -68.361)"/>
      <path id="Trazado_1231558" data-name="Trazado 1231558" d="M42.83,289.86A10.731,10.731,0,0,0,32.1,279.129a1.02,1.02,0,0,0,0,2.04,8.7,8.7,0,0,1,8.691,8.691,3.06,3.06,0,0,1-6.119,0,2.573,2.573,0,0,0-2.572-2.572,3.06,3.06,0,0,1-2.574-4.713,1.02,1.02,0,1,0-1.716-1.1,5.1,5.1,0,0,0,4.291,7.857.534.534,0,0,1,.532.532,5.1,5.1,0,1,0,10.2,0Zm0,0" transform="translate(-23.328 -241.171)"/>
      <path id="Trazado_1231559" data-name="Trazado 1231559" d="M341.733,311.488a1.02,1.02,0,1,0,0,2.04h0a3.072,3.072,0,0,1,3.059,3.06,8.7,8.7,0,0,1-8.693,8.691,3.06,3.06,0,1,1,0-6.119,2.573,2.573,0,0,0,2.573-2.572,3.052,3.052,0,0,1,.484-1.654,1.02,1.02,0,1,0-1.715-1.1,5.054,5.054,0,0,0-.809,2.758.535.535,0,0,1-.533.532,5.1,5.1,0,1,0,0,10.2,10.735,10.735,0,0,0,10.732-10.731,5.1,5.1,0,0,0-5.1-5.1Zm0,0" transform="translate(-285.988 -269.129)"/>
      <path id="Trazado_1231560" data-name="Trazado 1231560" d="M172.464,363.615a5.078,5.078,0,0,0-1.493-3.605,1.019,1.019,0,1,0-1.442,1.442,3.06,3.06,0,0,1-4.328,4.327,8.7,8.7,0,0,1,0-12.291,3.061,3.061,0,0,1,5,3.307,1.02,1.02,0,1,0,1.892.762,5.1,5.1,0,0,0-4.728-7.006h-.005a5.1,5.1,0,0,0-3.6,1.494,10.739,10.739,0,0,0,0,15.177,5.083,5.083,0,0,0,3.6,1.493h.007a5.092,5.092,0,0,0,5.1-5.1Zm0,0" transform="translate(-138.779 -302.88)"/>
      <path id="Trazado_1231561" data-name="Trazado 1231561" d="M179.283,185.36a5.1,5.1,0,0,0,3.6,8.705h.01a5.085,5.085,0,0,0,3.6-1.493l7.03-7.031a5.1,5.1,0,0,0,0-7.211,1.02,1.02,0,0,0-1.443,1.443,3.06,3.06,0,0,1,0,4.327l-7.029,7.029a3.06,3.06,0,1,1-4.328-4.327l7.03-7.029a3.051,3.051,0,0,1,1.512-.827,1.02,1.02,0,0,0-.216-2.017.959.959,0,0,0-.216.023,5.078,5.078,0,0,0-2.522,1.377Zm0,0" transform="translate(-153.612 -152.87)"/>
      <path id="Trazado_1231562" data-name="Trazado 1231562" d="M269.286,74.945l7.029,7.029a5.083,5.083,0,0,0,3.6,1.493h.007a5.1,5.1,0,0,0,3.6-8.7s0,0,0,0a1.02,1.02,0,0,0-1.443,1.441,3.059,3.059,0,1,1-4.326,4.327l-7.03-7.029a3.06,3.06,0,1,1,4.327-4.327l4.144,4.144a1.02,1.02,0,0,0,1.443-1.443h0L276.5,67.732a5.093,5.093,0,0,0-3.6-1.494h-.01a5.1,5.1,0,0,0-3.6,8.706Zm0,0" transform="translate(-231.376 -57.231)"/>
      <path id="Trazado_1231563" data-name="Trazado 1231563" d="M29.048,194.006a3.06,3.06,0,1,0-3.06-3.06A3.063,3.063,0,0,0,29.048,194.006Zm0-4.08a1.02,1.02,0,1,1-1.02,1.02A1.022,1.022,0,0,1,29.048,189.927Zm0,0" transform="translate(-22.454 -162.337)"/>
      <path id="Trazado_1231564" data-name="Trazado 1231564" d="M209.06,34a3.06,3.06,0,1,0-3.06-3.06A3.064,3.064,0,0,0,209.06,34Zm0-4.08a1.02,1.02,0,1,1-1.02,1.02A1.021,1.021,0,0,1,209.06,29.919Zm0,0" transform="translate(-177.986 -24.088)"/>
      <path id="Trazado_1231565" data-name="Trazado 1231565" d="M432.123,184.053a3.06,3.06,0,1,0-3.06-3.06A3.063,3.063,0,0,0,432.123,184.053Zm0-4.08a1.02,1.02,0,1,1-1.02,1.02A1.021,1.021,0,0,1,432.123,179.974Zm0,0" transform="translate(-370.715 -153.737)"/>
      <path id="Trazado_1231566" data-name="Trazado 1231566" d="M309.064,427.9a3.06,3.06,0,1,0,3.06,3.06A3.063,3.063,0,0,0,309.064,427.9Zm0,4.08a1.02,1.02,0,1,1,1.02-1.02A1.021,1.021,0,0,1,309.064,431.982Zm0,0" transform="translate(-264.391 -369.712)"/>
      <path id="Trazado_1231567" data-name="Trazado 1231567" d="M304.791,245.951a3.06,3.06,0,1,0-3.06,3.06A3.063,3.063,0,0,0,304.791,245.951Zm-3.06,1.02a1.02,1.02,0,1,1,1.02-1.02A1.021,1.021,0,0,1,301.732,246.971Zm0,0" transform="translate(-258.056 -209.861)"/>
      <path id="Trazado_1231568" data-name="Trazado 1231568" d="M109.052,407.9a3.06,3.06,0,1,0,3.06,3.06A3.063,3.063,0,0,0,109.052,407.9Zm0,4.08a1.02,1.02,0,1,1,1.02-1.02A1.021,1.021,0,0,1,109.052,411.982Zm0,0" transform="translate(-91.578 -352.432)"/>
      <path id="Trazado_1231569" data-name="Trazado 1231569" d="M424.586,242.891a5.882,5.882,0,0,0-5.875,5.876,3.06,3.06,0,0,0,6.11.235,3.06,3.06,0,0,0-.235-6.11Zm0,4.08a1.8,1.8,0,0,0-1.8,1.8,1.02,1.02,0,1,1-2.04,0,3.84,3.84,0,0,1,3.835-3.836,1.02,1.02,0,1,1,0,2.04Zm0,0" transform="translate(-361.771 -209.861)"/>
      <path id="Trazado_1231570" data-name="Trazado 1231570" d="M263.06,370.88a3.06,3.06,0,0,0-6.11-.235,3.06,3.06,0,0,0,.235,6.111A5.882,5.882,0,0,0,263.06,370.88Zm-6.9,2.816a1.021,1.021,0,0,1,1.02-1.02,1.8,1.8,0,0,0,1.8-1.8,1.02,1.02,0,1,1,2.04,0,3.84,3.84,0,0,1-3.836,3.836A1.021,1.021,0,0,1,256.165,373.7Zm0,0" transform="translate(-219.567 -317.801)"/>
      <path id="Trazado_1231571" data-name="Trazado 1231571" d="M112.226,212.44a3.063,3.063,0,0,0-4.327,0,5.882,5.882,0,0,0,0,8.309,3.06,3.06,0,0,0,4.487-4.155,3.064,3.064,0,0,0-.16-4.155Zm-1.443,6.867a1.02,1.02,0,0,1-1.442,0,3.841,3.841,0,0,1,0-5.425,1.02,1.02,0,1,1,1.442,1.442,1.8,1.8,0,0,0,0,2.54,1.021,1.021,0,0,1,0,1.443Zm0,0" transform="translate(-91.742 -182.777)"/>
      <path id="Trazado_1231572" data-name="Trazado 1231572" d="M352.458,198.025a3.06,3.06,0,1,0,4.327,4.327l3.514-3.514a3.06,3.06,0,0,0-4.327-4.327Zm5.678-2.371a1.02,1.02,0,0,1,.721,1.741l-3.515,3.515a1.02,1.02,0,0,1-1.442-1.442l3.515-3.515A1.014,1.014,0,0,1,358.136,195.653Zm0,0" transform="translate(-303.754 -167.284)"/>
      <path id="Trazado_1231573" data-name="Trazado 1231573" d="M257.1,290.025a3.06,3.06,0,0,0-4.327,4.327l3.515,3.515a3.06,3.06,0,0,0,4.327-4.328Zm2.072,6.4a1.02,1.02,0,0,1-1.442,0l-3.515-3.515a1.02,1.02,0,0,1,1.443-1.442l3.514,3.515h0a1.019,1.019,0,0,1,0,1.442Zm0,0" transform="translate(-217.623 -249.811)"/>
      <path id="Trazado_1231574" data-name="Trazado 1231574" d="M43.9,148.719a1.02,1.02,0,1,1-1.02-1.02A1.02,1.02,0,0,1,43.9,148.719Zm0,0" transform="translate(-36.17 -127.614)"/>
      <path id="Trazado_1231575" data-name="Trazado 1231575" d="M153.907,48.715a1.02,1.02,0,1,1-1.02-1.02A1.02,1.02,0,0,1,153.907,48.715Zm0,0" transform="translate(-131.215 -41.209)"/>
      <path id="Trazado_1231576" data-name="Trazado 1231576" d="M413.251,123.106a1.02,1.02,0,1,1-1.02-1.02A1.02,1.02,0,0,1,413.251,123.106Zm0,0" transform="translate(-355.291 -105.484)"/>
      <path id="Trazado_1231577" data-name="Trazado 1231577" d="M347.263,61.215a1.02,1.02,0,1,1-1.02-1.02A1.02,1.02,0,0,1,347.263,61.215Zm0,0" transform="translate(-298.277 -52.009)"/>
      <path id="Trazado_1231578" data-name="Trazado 1231578" d="M218.911,151.223a1.02,1.02,0,1,1-1.02-1.02A1.02,1.02,0,0,1,218.911,151.223Zm0,0" transform="translate(-187.379 -129.777)"/>
      <path id="Trazado_1231579" data-name="Trazado 1231579" d="M243.04,1.02A1.02,1.02,0,1,1,242.02,0,1.02,1.02,0,0,1,243.04,1.02Zm0,0" transform="translate(-208.227)"/>
      <path id="Trazado_1231580" data-name="Trazado 1231580" d="M243.04,498.02a1.02,1.02,0,1,1-1.02-1.02A1.02,1.02,0,0,1,243.04,498.02Zm0,0" transform="translate(-208.227 -429.414)"/>
      <path id="Trazado_1231581" data-name="Trazado 1231581" d="M268.915,461.243a1.02,1.02,0,1,1-1.02-1.02A1.02,1.02,0,0,1,268.915,461.243Zm0,0" transform="translate(-230.583 -397.638)"/>
      <path id="Trazado_1231582" data-name="Trazado 1231582" d="M161.407,343.493a1.02,1.02,0,1,1-1.02-1.02A1.02,1.02,0,0,1,161.407,343.493Zm0,0" transform="translate(-137.695 -295.901)"/>
    </g>
  </g>
</svg>
