<svg xmlns="http://www.w3.org/2000/svg" xmlns:xlink="http://www.w3.org/1999/xlink" width="113" height="113" viewBox="0 0 113 113">
  <defs>
    <filter id="Trazado_982547" x="0" y="0" width="113" height="113" filterUnits="userSpaceOnUse">
      <feOffset dy="3" input="SourceAlpha"/>
      <feGaussianBlur stdDeviation="3" result="blur"/>
      <feFlood flood-opacity="0.161"/>
      <feComposite operator="in" in2="blur"/>
      <feComposite in="SourceGraphic"/>
    </filter>
  </defs>
  <g id="Grupo_1233241" data-name="Grupo 1233241" transform="translate(-2342.51 -3941)">
    <g id="Grupo_1232518" data-name="Grupo 1232518" transform="translate(1230.51 2452)">
      <g id="Grupo_1208038" data-name="Grupo 1208038" transform="translate(0 -4138.425)">
        <g id="Grupo_1202104" data-name="Grupo 1202104" transform="translate(0 -1149.226)">
          <g id="Grupo_1201923" data-name="Grupo 1201923" transform="translate(-4174.49 4856.378)">
            <g id="Grupo_1176928" data-name="Grupo 1176928" transform="translate(5295.49 1926.273)">
              <g id="Grupo_1172322" data-name="Grupo 1172322" transform="translate(0 0)">
                <g id="Grupo_1164700" data-name="Grupo 1164700">
                  <g id="Grupo_1160931" data-name="Grupo 1160931">
                    <g id="Grupo_1160749" data-name="Grupo 1160749">
                      <g id="Grupo_1158891" data-name="Grupo 1158891">
                        <g id="Grupo_1157406" data-name="Grupo 1157406">
                          <g id="Grupo_1155793" data-name="Grupo 1155793">
                            <g id="Grupo_1154704" data-name="Grupo 1154704">
                              <g id="Grupo_1150790" data-name="Grupo 1150790">
                                <g id="Grupo_1154214" data-name="Grupo 1154214">
                                  <g id="Grupo_1152583" data-name="Grupo 1152583">
                                    <g id="Grupo_1146973" data-name="Grupo 1146973">
                                      <g id="Grupo_1146954" data-name="Grupo 1146954">
                                        <g transform="matrix(1, 0, 0, 1, -9, -6)" filter="url(#Trazado_982547)">
                                          <g id="Trazado_982547-2" data-name="Trazado 982547" transform="translate(9 6)" fill="#fed0b4">
                                            <path d="M 47.5000114440918 93.49987030029297 C 41.28938293457031 93.49987030029297 35.26534652709961 92.28384399414062 29.5951976776123 89.88558959960938 C 24.11773109436035 87.56881713867188 19.19814491271973 84.25183868408203 14.97310447692871 80.02680206298828 C 10.74805164337158 75.80176544189453 7.43107795715332 70.88218688964844 5.114304542541504 65.40472412109375 C 2.716038227081299 59.73458862304688 1.500011444091797 53.71054840087891 1.500011444091797 47.49993515014648 C 1.500011444091797 41.28932189941406 2.716038227081299 35.26528167724609 5.114304542541504 29.59514808654785 C 7.43107795715332 24.1176815032959 10.74805164337158 19.1981086730957 14.97310447692871 14.97306823730469 C 19.19814491271973 10.74802875518799 24.11773109436035 7.431055068969727 29.5951976776123 5.11428165435791 C 35.26534652709961 2.716028451919556 41.28938293457031 1.500001788139343 47.5000114440918 1.500001788139343 C 53.71063995361328 1.500001788139343 59.73467636108398 2.716028451919556 65.40482330322266 5.11428165435791 C 70.88229370117188 7.431055068969727 75.8018798828125 10.74802875518799 80.02691650390625 14.97306823730469 C 84.25196838378906 19.1981086730957 87.56894683837891 24.1176815032959 89.88571929931641 29.59514808654785 C 92.28398132324219 35.26528167724609 93.50001525878906 41.28932189941406 93.50001525878906 47.49993515014648 C 93.50001525878906 53.71054840087891 92.28398132324219 59.73458862304688 89.88571929931641 65.40472412109375 C 87.56894683837891 70.88218688964844 84.25196838378906 75.80176544189453 80.02691650390625 80.02680206298828 C 75.8018798828125 84.25183868408203 70.88229370117188 87.56881713867188 65.40482330322266 89.88558959960938 C 59.73467636108398 92.28384399414062 53.71063995361328 93.49987030029297 47.5000114440918 93.49987030029297 Z" stroke="none"/>
                                            <path d="M 47.5000114440918 3 C 41.49122619628906 3 35.66378021240234 4.1761474609375 30.17951965332031 6.495796203613281 C 24.880859375 8.7369384765625 20.12153625488281 11.94596862792969 16.03376770019531 16.03373718261719 C 11.94598388671875 20.12149047851562 8.736968994140625 24.88081359863281 6.495811462402344 30.17947387695312 C 4.176162719726562 35.66371917724609 3.000007629394531 41.49116516113281 3.000007629394531 47.49993515014648 C 3.000007629394531 53.50870513916016 4.176162719726562 59.33615112304688 6.495811462402344 64.82039642333984 C 8.736968994140625 70.11905670166016 11.94598388671875 74.87837982177734 16.03376770019531 78.96613311767578 C 20.12153625488281 83.05390167236328 24.880859375 86.26293182373047 30.17951965332031 88.50407409667969 C 35.66378021240234 90.82372283935547 41.49122619628906 91.99987030029297 47.5000114440918 91.99987030029297 C 53.50879669189453 91.99987030029297 59.33624267578125 90.82372283935547 64.82050323486328 88.50407409667969 C 70.11916351318359 86.26293182373047 74.87848663330078 83.05390167236328 78.96625518798828 78.96613311767578 C 83.05403900146484 74.87837982177734 86.2630615234375 70.11905670166016 88.50421142578125 64.82039642333984 C 90.82386016845703 59.33615112304688 92.00001525878906 53.50870513916016 92.00001525878906 47.49993515014648 C 92.00001525878906 41.49116516113281 90.82386016845703 35.66371917724609 88.50421142578125 30.17947387695312 C 86.2630615234375 24.88081359863281 83.05403900146484 20.12149047851562 78.96625518798828 16.03373718261719 C 74.87848663330078 11.94596862792969 70.11916351318359 8.7369384765625 64.82050323486328 6.495796203613281 C 59.33624267578125 4.1761474609375 53.50879669189453 3 47.5000114440918 3 M 47.5000114440918 0 C 73.73353576660156 0 95.00001525878906 21.26644134521484 95.00001525878906 47.49993515014648 C 95.00001525878906 73.73342895507812 73.73353576660156 94.99987030029297 47.5000114440918 94.99987030029297 C 21.26648712158203 94.99987030029297 7.62939453125e-06 73.73342895507812 7.62939453125e-06 47.49993515014648 C 7.62939453125e-06 21.26644134521484 21.26648712158203 0 47.5000114440918 0 Z" stroke="none" fill="#fd660a"/>
                                          </g>
                                        </g>
                                      </g>
                                    </g>
                                  </g>
                                </g>
                              </g>
                            </g>
                          </g>
                        </g>
                      </g>
                    </g>
                  </g>
                </g>
              </g>
            </g>
          </g>
        </g>
      </g>
    </g>
    <g id="peligro-nuclear" transform="translate(2369.518 3964.5)">
      <path id="Trazado_1231611" data-name="Trazado 1231611" d="M9,10H51V50H9Z" fill="#ffeb3a"/>
      <path id="Trazado_1231612" data-name="Trazado 1231612" d="M48,10h3V50H48Z" fill="#fdd834"/>
      <path id="Trazado_1231613" data-name="Trazado 1231613" d="M54,3.5A2.492,2.492,0,0,1,51.5,6H8.5a2.5,2.5,0,1,1,0-5h43A2.5,2.5,0,0,1,54,3.5Z" fill="#ffeb3a"/>
      <path id="Trazado_1231614" data-name="Trazado 1231614" d="M51.5,1h-3a2.5,2.5,0,1,1,0,5h3a2.5,2.5,0,1,0,0-5Z" fill="#fdd834"/>
      <path id="Trazado_1231615" data-name="Trazado 1231615" d="M54,56.5A2.492,2.492,0,0,1,51.5,59H8.5a2.5,2.5,0,0,1,0-5h43A2.5,2.5,0,0,1,54,56.5Z" fill="#ffeb3a"/>
      <path id="Trazado_1231616" data-name="Trazado 1231616" d="M51.5,54h-3a2.5,2.5,0,0,1,0,5h3a2.5,2.5,0,0,0,0-5Z" fill="#fdd834"/>
      <path id="Trazado_1231617" data-name="Trazado 1231617" d="M9,6H51v4H9Z" fill="#607d8b"/>
      <path id="Trazado_1231618" data-name="Trazado 1231618" d="M48,6h3v4H48Z" fill="#37474f"/>
      <path id="Trazado_1231619" data-name="Trazado 1231619" d="M9,50H51v4H9Z" fill="#607d8b"/>
      <path id="Trazado_1231620" data-name="Trazado 1231620" d="M48,50h3v4H48Z" fill="#37474f"/>
      <g id="Grupo_1233240" data-name="Grupo 1233240">
        <path id="Trazado_1231621" data-name="Trazado 1231621" d="M37.53,19.36,34.21,24.5a2.036,2.036,0,0,1-2.35.8,5.916,5.916,0,0,0-3.72,0,2.036,2.036,0,0,1-2.35-.8l-3.32-5.14a2.008,2.008,0,0,1,.86-2.92,16.168,16.168,0,0,1,13.34,0,2.008,2.008,0,0,1,.86,2.92Z" fill="#607d8b"/>
        <path id="Trazado_1231622" data-name="Trazado 1231622" d="M26.48,37.9l-2.79,5.44a2.014,2.014,0,0,1-2.96.71A16.067,16.067,0,0,1,14.06,32.5a2.014,2.014,0,0,1,2.1-2.21l6.11.31a2.029,2.029,0,0,1,1.86,1.64A5.914,5.914,0,0,0,24.8,34a6.339,6.339,0,0,0,1.19,1.47,2.022,2.022,0,0,1,.49,2.43Z" fill="#607d8b"/>
        <path id="Trazado_1231623" data-name="Trazado 1231623" d="M45.94,32.5a16.067,16.067,0,0,1-6.67,11.55,2.014,2.014,0,0,1-2.96-.71L33.52,37.9a2.022,2.022,0,0,1,.49-2.43A6.339,6.339,0,0,0,35.2,34a5.914,5.914,0,0,0,.67-1.76,2.029,2.029,0,0,1,1.86-1.64l6.11-.31a2.014,2.014,0,0,1,2.1,2.21Z" fill="#607d8b"/>
        <circle id="Elipse_14589" data-name="Elipse 14589" cx="2" cy="2" r="2" transform="translate(28 29)" fill="#607d8b"/>
      </g>
      <path id="Trazado_1231624" data-name="Trazado 1231624" d="M52,6.949A3.492,3.492,0,0,0,51.5,0H8.5A3.492,3.492,0,0,0,8,6.949v46.1A3.492,3.492,0,0,0,8.5,60h43a3.492,3.492,0,0,0,.5-6.949ZM10,53V51H50v2ZM50,7V9H10V7Zm0,4V49H10V11ZM7,3.5A1.5,1.5,0,0,1,8.5,2h43a1.5,1.5,0,1,1,0,3H8.5A1.5,1.5,0,0,1,7,3.5Zm46,53A1.5,1.5,0,0,1,51.5,58H8.5a1.5,1.5,0,0,1,0-3h43A1.5,1.5,0,0,1,53,56.5Z"/>
      <path id="Trazado_1231625" data-name="Trazado 1231625" d="M24.951,25.046A3,3,0,0,0,27.478,26.4a3.084,3.084,0,0,0,.97-.156,5.048,5.048,0,0,1,3.1,0,3.032,3.032,0,0,0,3.5-1.2l3.322-5.137a3.012,3.012,0,0,0-1.288-4.373,17.188,17.188,0,0,0-14.168,0,3.012,3.012,0,0,0-1.288,4.373ZM23.188,18a1.03,1.03,0,0,1,.56-.647,15.111,15.111,0,0,1,12.5,0,1.03,1.03,0,0,1,.56.647.974.974,0,0,1-.12.821l-3.321,5.136a1.019,1.019,0,0,1-1.2.387,7.072,7.072,0,0,0-4.35,0,1.017,1.017,0,0,1-1.2-.386L23.3,18.821A.974.974,0,0,1,23.188,18Z"/>
      <path id="Trazado_1231626" data-name="Trazado 1231626" d="M15.277,39.5a16.913,16.913,0,0,0,4.873,5.367,3.012,3.012,0,0,0,4.431-1.07l2.787-5.446a3.033,3.033,0,0,0-.71-3.63A5.015,5.015,0,0,1,25.67,33.5a4.928,4.928,0,0,1-.564-1.467A3.033,3.033,0,0,0,22.318,29.6l-6.11-.309a3.058,3.058,0,0,0-2.317.923,3.024,3.024,0,0,0-.825,2.38A16.929,16.929,0,0,0,15.277,39.5Zm.058-7.9a.981.981,0,0,1,.72-.31h.051l6.111.31a1.015,1.015,0,0,1,.932.84,7.021,7.021,0,0,0,2.175,3.768,1.016,1.016,0,0,1,.263,1.228L22.8,42.885a.987.987,0,0,1-.654.515,1.016,1.016,0,0,1-.838-.163,15.111,15.111,0,0,1-6.253-10.829,1.008,1.008,0,0,1,.28-.808Z"/>
      <path id="Trazado_1231627" data-name="Trazado 1231627" d="M34.894,32.033A4.933,4.933,0,0,1,34.33,33.5a5.015,5.015,0,0,1-.988,1.222,3.034,3.034,0,0,0-.71,3.631L35.419,43.8a3.012,3.012,0,0,0,4.43,1.071A17.108,17.108,0,0,0,46.935,32.6a3.024,3.024,0,0,0-.825-2.38,3.056,3.056,0,0,0-2.318-.923l-6.11.309a3.033,3.033,0,0,0-2.788,2.427Zm9-.74a.971.971,0,0,1,.772.308,1.008,1.008,0,0,1,.279.807,15.116,15.116,0,0,1-6.253,10.83,1.014,1.014,0,0,1-.838.162.987.987,0,0,1-.654-.515L34.413,37.44a1.017,1.017,0,0,1,.263-1.229,7.023,7.023,0,0,0,2.175-3.767,1.015,1.015,0,0,1,.932-.841Z"/>
      <path id="Trazado_1231628" data-name="Trazado 1231628" d="M30,28a3,3,0,1,0,3,3,3,3,0,0,0-3-3Zm0,4a1,1,0,1,1,1-1A1,1,0,0,1,30,32Z"/>
    </g>
  </g>
</svg>
