<svg xmlns="http://www.w3.org/2000/svg" xmlns:xlink="http://www.w3.org/1999/xlink" width="400" height="218" viewBox="0 0 400 218">
  <defs>
    <clipPath id="clip-path">
      <rect id="Rectángulo_423584" data-name="Rectángulo 423584" width="400" height="218" transform="translate(180 5953)" fill="#fff" stroke="#707070" stroke-width="1"/>
    </clipPath>
    <clipPath id="clip-path-2">
      <path id="Trazado_1176650" data-name="Trazado 1176650" d="M502.85,167.375c-1.347-2.806-.456-6.209-1.552-9.117-1.989-5.276-8.993-6.363-14.739-6.865a9.866,9.866,0,0,1-4.461-1.132c-3.857-2.43-2.36-8.518.964-11.607s7.917-4.838,10.651-8.433c2.827-3.717,3.116-8.653,3.3-13.277.15-3.851.266-7.877-1.437-11.355-2.269-4.637-7.344-7.366-12.407-8.8a41.163,41.163,0,0,0-27.582,1.937c-4.541,2.012-9.538,4.924-14.148,3.067-3.689-1.486-5.582-5.547-8.966-7.61-3.163-1.929-7.134-1.852-10.809-2.476s-7.725-2.591-8.352-6.174c-.393-2.245.7-4.577.164-6.794-1.549-6.447-13.588-4.882-15.8-11.143-.513-1.453-.336-3.046-.609-4.559-1.027-5.692-8.234-8.535-14.038-7.34s-10.527,5.13-15.26,8.613-10.23,6.766-16.143,6.3-11.4-4.673-17.238-3.625c-3.687.662-6.605,3.291-9.6,5.489a51.19,51.19,0,0,1-15.526,7.573c-4.383,1.338-5.874,2.29-7.727,6.414a48.577,48.577,0,0,0-2.727,32.982c1.891,6.731,5.287,13.76,2.967,20.363-.825,2.347-2.371,4.637-1.985,7.09.446,2.842,3.252,4.639,5.122,6.863,5.437,6.465,2.641,16.259-1.8,23.409-3.528,5.679-8.061,12.625-4.571,18.327,2.628,4.294,8.845,5.595,11.253,10.009,3.682,6.749-3.911,14.046-5.287,21.57-1.39,7.6,5.032,15.654,12.931,16.225,3.368.243,6.8-.683,10.107-.025,4.514.9,8.1,4.609,12.674,5.182,6.425.805,11.941-4.769,18.383-5.438,4.9-.508,9.556,1.734,14.452,1.567,7.585-.258,14.025-3.951,19.081-9.261,6.459-6.783,13.165-17.8,24.13-17.1,10.543.666,16.294,11.877,23.906,17.481,7.556,5.564,18.778,6.42,25.919-.3a25.606,25.606,0,0,0,6.06-9.27c1.418-3.755,1.475-8.047,4.152-11.284,4.126-4.988,11.841-4.537,18.411-4.772s14.73-3.473,14.509-9.875c-.106-3.053-2.266-5.938-1.673-8.938.546-2.758,3.209-4.609,5.245-6.686a7.1,7.1,0,0,0,2.412-4.44C515.588,174.041,505.5,172.9,502.85,167.375Z" transform="translate(-297.093 -55.425)"/>
    </clipPath>
  </defs>
  <g id="Grupo_1232982" data-name="Grupo 1232982" transform="translate(-180 -5953)">
    <g id="Enmascarar_grupo_1215971" data-name="Enmascarar grupo 1215971" clip-path="url(#clip-path)">
      <g id="OBJECTS" transform="translate(176.764 5916.127)">
        <g id="Grupo_1232981" data-name="Grupo 1232981" transform="translate(26.559 55.425)">
          <g id="Grupo_1232973" data-name="Grupo 1232973" transform="translate(135.234)">
            <path id="Trazado_1176648" data-name="Trazado 1176648" d="M502.85,167.375c-1.347-2.806-.456-6.209-1.552-9.117-1.989-5.276-8.993-6.363-14.739-6.865a9.866,9.866,0,0,1-4.461-1.132c-3.857-2.43-2.36-8.518.964-11.607s7.917-4.838,10.651-8.433c2.827-3.717,3.116-8.653,3.3-13.277.15-3.851.266-7.877-1.437-11.355-2.269-4.637-7.344-7.366-12.407-8.8a41.163,41.163,0,0,0-27.582,1.937c-4.541,2.012-9.538,4.924-14.148,3.067-3.689-1.486-5.582-5.547-8.966-7.61-3.163-1.929-7.134-1.852-10.809-2.476s-7.725-2.591-8.352-6.174c-.393-2.245.7-4.577.164-6.794-1.549-6.447-13.588-4.882-15.8-11.143-.513-1.453-.336-3.046-.609-4.559-1.027-5.692-8.234-8.535-14.038-7.34s-10.527,5.13-15.26,8.613-10.23,6.766-16.143,6.3-11.4-4.673-17.238-3.625c-3.687.662-6.605,3.291-9.6,5.489a51.19,51.19,0,0,1-15.526,7.573c-4.383,1.338-5.874,2.29-7.727,6.414a48.577,48.577,0,0,0-2.727,32.982c1.891,6.731,5.287,13.76,2.967,20.363-.825,2.347-2.371,4.637-1.985,7.09.446,2.842,3.252,4.639,5.122,6.863,5.437,6.465,2.641,16.259-1.8,23.409-3.528,5.679-8.061,12.625-4.571,18.327,2.628,4.294,8.845,5.595,11.253,10.009,3.682,6.749-3.911,14.046-5.287,21.57-1.39,7.6,5.032,15.654,12.931,16.225,3.368.243,6.8-.683,10.107-.025,4.514.9,8.1,4.609,12.674,5.182,6.425.805,11.941-4.769,18.383-5.438,4.9-.508,9.556,1.734,14.452,1.567,7.585-.258,14.025-3.951,19.081-9.261,6.459-6.783,13.165-17.8,24.13-17.1,10.543.666,16.294,11.877,23.906,17.481,7.556,5.564,18.778,6.42,25.919-.3a25.606,25.606,0,0,0,6.06-9.27c1.418-3.755,1.475-8.047,4.152-11.284,4.126-4.988,11.841-4.537,18.411-4.772s14.73-3.473,14.509-9.875c-.106-3.053-2.266-5.938-1.673-8.938.546-2.758,3.209-4.609,5.245-6.686a7.1,7.1,0,0,0,2.412-4.44C515.588,174.041,505.5,172.9,502.85,167.375Z" transform="translate(-297.093 -55.425)" fill="#d1e083"/>
            <g id="Grupo_1232957" data-name="Grupo 1232957" transform="translate(0)">
              <g id="Grupo_1232955" data-name="Grupo 1232955" clip-path="url(#clip-path-2)">
                <path id="Trazado_1176649" data-name="Trazado 1176649" d="M519.186,219.122h0A178.972,178.972,0,0,0,459.853,207.1c-4.946-.149-10.076-.079-15.277.209a27.23,27.23,0,0,0-5.434-3.59c-5.769-2.856-11.884-2.7-15.978-2.331-5.376.482-10.715,1.274-16.169,2.112-10.518,1.615-21.23,3.687-32.747,6.334-9.471,2.177-19.468,4.747-30.421,7.825l1.228-13.3q.2-2.16.382-4.326c.419-4.846.852-9.858,1.615-14.67,1.055-6.661,2.69-11.767,5.148-16.072a65.11,65.11,0,0,1,10.33-12.86c6.133-6.241,12.851-12.7,21-20.19a72.78,72.78,0,0,0,18.538,7.233,176.893,176.893,0,0,0,24.431,4.472c14.381,1.648,30.1,1.886,49.483.753,9.833-.573,19.653-1.44,28.085-2.205a4.933,4.933,0,0,0,4.486-5.441,4.688,4.688,0,0,0-5.149-4.3c-28.089,2.549-63.044,5.724-95.316-1.855a78.545,78.545,0,0,1-16.881-5.64c10.3-9.251,21.062-18.384,32-27.158a4.67,4.67,0,0,0,.723-6.635,5.014,5.014,0,0,0-7.039-.813,755.581,755.581,0,0,0-59.06,52.649,106.656,106.656,0,0,0-10.495,11.655,352.221,352.221,0,0,1-24.149-45.319c-2.182-4.936-4.322-10.121-6.363-15.409a4.9,4.9,0,0,0-3.847-3.109,4.99,4.99,0,0,0-4.664,1.75,4.649,4.649,0,0,0-.686,4.646,362.186,362.186,0,0,0,25.822,53.48c2.609,4.425,5.4,8.935,8.322,13.425a53.616,53.616,0,0,0-3.426,10.385A139.137,139.137,0,0,0,336,196.2l-6.292,68.129a4.656,4.656,0,0,0,1.934,4.289,4.89,4.89,0,0,0,2.827.887,5.118,5.118,0,0,0,2.14-.47A4.884,4.884,0,0,0,339.455,265l3.409-36.913A553.417,553.417,0,0,1,402.4,214.13c5.433-.925,10.776-1.721,15.881-2.365l1.32-.169c4.261-.555,8.67-1.126,12.495-.138a16.33,16.33,0,0,1,7.085,4.128,4.709,4.709,0,0,0,.512.5c3.12,3.082,5.662,7.085,8.123,10.958l.652,1.024c6.25,9.8,12.2,20.087,17.682,30.565a4.715,4.715,0,0,0,4,2.577,5.11,5.11,0,0,0,4.418-2.334,4.828,4.828,0,0,0,.187-4.873c-5.123-9.789-10.649-19.418-16.422-28.618l-1.3-2.088c-1.327-2.14-2.676-4.318-4.136-6.445a170.236,170.236,0,0,1,47.53,6.3c5.141,1.448,10.34,3.187,15.454,5.168a4.68,4.68,0,0,0,6.117-2.71A5.005,5.005,0,0,0,519.186,219.122Z" transform="translate(-302.195 -74.494)" fill="#73645b"/>
              </g>
              <g id="Grupo_1232956" data-name="Grupo 1232956" clip-path="url(#clip-path-2)">
                <path id="Trazado_1176651" data-name="Trazado 1176651" d="M519.387,108.265a.428.428,0,0,0,.6.049l1.927-1.6.065-.053c1.45-1.209,2.95-2.461,4.449-3.663a.533.533,0,0,0,.236-.418.4.4,0,0,0-.024-.142.933.933,0,0,0-.607-.554.78.78,0,0,0-.722.148c-1.511,1.213-3,2.451-4.495,3.692l-1.777,1.472a.429.429,0,0,0-.05.61Z" transform="translate(-408.014 -78.642)" fill="#f3edef"/>
                <path id="Trazado_1176652" data-name="Trazado 1176652" d="M497.035,125.583a.426.426,0,0,0,.292.157h.04a.429.429,0,0,0,.277-.1c2.505-2.125,5.184-4.39,7.889-6.637a.429.429,0,0,0,.049-.611l-.406-.465a.429.429,0,0,0-.6-.048c-2.642,2.2-5.3,4.459-7.663,6.478l-.2.169a.429.429,0,0,0-.055.594Z" transform="translate(-396.855 -86.61)" fill="#f3edef"/>
                <path id="Trazado_1176653" data-name="Trazado 1176653" d="M474.576,144.735a.434.434,0,0,0,.295.147h.029a.424.424,0,0,0,.284-.107c2.437-2.158,5.2-4.6,7.96-6.973a.428.428,0,0,0,.055-.593l-.366-.455a.428.428,0,0,0-.612-.056c-2.524,2.172-5.142,4.455-8,6.98a.428.428,0,0,0-.041.6Z" transform="translate(-385.606 -96.02)" fill="#f3edef"/>
                <path id="Trazado_1176654" data-name="Trazado 1176654" d="M444.508,168.235a.43.43,0,0,0,.6.017l1.293-1.21h0c1.571-1.474,3.143-2.947,4.731-4.4l.284-.258.319.212a54.087,54.087,0,0,0,11.645,5.714.43.43,0,0,0,.531-.217l.272-.572a.428.428,0,0,0-.241-.585,54.23,54.23,0,0,1-10.868-5.227l-.539-.344,1.836-1.671c.477-.435.955-.872,1.433-1.3.319-.286.643-.567.967-.846l.141-.122a.423.423,0,0,0,.147-.292.428.428,0,0,0-.1-.311l-.372-.43a.43.43,0,0,0-.3-.147.448.448,0,0,0-.313.108c-3.839,3.432-7.831,7.079-11.865,10.842a.42.42,0,0,0-.136.3.43.43,0,0,0,.118.308Z" transform="translate(-370.552 -105.845)" fill="#f3edef"/>
                <path id="Trazado_1176655" data-name="Trazado 1176655" d="M505.9,185.306a.426.426,0,0,0,.409-.305l.181-.6a.425.425,0,0,0-.331-.542c-2.816-.52-5.179-1.009-7.437-1.539-2.765-.649-5.217-1.3-7.494-1.993a.43.43,0,0,0-.511.225l-.27.566a.434.434,0,0,0-.005.357.428.428,0,0,0,.267.236c1.3.393,2.64.771,3.993,1.123,3.56.93,7.3,1.761,11.121,2.468A.447.447,0,0,0,505.9,185.306Z" transform="translate(-393.772 -117.88)" fill="#f3edef"/>
                <path id="Trazado_1176656" data-name="Trazado 1176656" d="M544.947,192.148a.426.426,0,0,0,.425-.382l.064-.6a.426.426,0,0,0-.391-.471c-5.41-.431-10.424-1.023-15.329-1.811a.425.425,0,0,0-.478.3l-.168.569a.426.426,0,0,0,.341.544c3.017.488,5.788.875,8.468,1.183,2.111.241,4.348.452,7.036.662Z" transform="translate(-413.1 -122.169)" fill="#f3edef"/>
                <path id="Trazado_1176657" data-name="Trazado 1176657" d="M568.878,194.553c4.04.241,8.292.37,13.376.407h0a.427.427,0,0,0,.426-.39l.049-.581a.427.427,0,0,0-.422-.462c-4.812-.037-9.169-.178-13.316-.428a.425.425,0,0,0-.451.382l-.064.6a.421.421,0,0,0,.1.321A.43.43,0,0,0,568.878,194.553Z" transform="translate(-432.818 -124.278)" fill="#f3edef"/>
                <path id="Trazado_1176658" data-name="Trazado 1176658" d="M604.187,195.018h0c4.183-.027,8.588-.149,13.862-.383a.426.426,0,0,0,.408-.426l0-.61a.425.425,0,0,0-.132-.31.449.449,0,0,0-.315-.118c-5.358.243-9.737.371-13.783.4a.425.425,0,0,0-.422.394l-.049.591a.426.426,0,0,0,.426.462Z" transform="translate(-450.464 -124.315)" fill="#f3edef"/>
                <path id="Trazado_1176659" data-name="Trazado 1176659" d="M640.445,193.391h.018l.224-.01c.487-.019.974-.039,1.457-.068,3.711-.215,7.431-.493,10.9-.76a.427.427,0,0,0,.394-.419l.012-.622a.427.427,0,0,0-.133-.32.4.4,0,0,0-.327-.116c-4.73.354-8.722.616-12.564.825a.427.427,0,0,0-.4.427l0,.632a.429.429,0,0,0,.13.31A.422.422,0,0,0,640.445,193.391Z" transform="translate(-468.597 -123.265)" fill="#f3edef"/>
                <path id="Trazado_1176660" data-name="Trazado 1176660" d="M674.143,190.806h.034c3.7-.3,7.663-.647,12.772-1.112a.808.808,0,0,0,.726-.888.537.537,0,0,0-.581-.584h-.009c-4.24.383-8.585.752-12.961,1.1a.427.427,0,0,0-.394.414l-.016.635a.426.426,0,0,0,.134.321A.432.432,0,0,0,674.143,190.806Z" transform="translate(-485.45 -121.839)" fill="#f3edef"/>
                <path id="Trazado_1176661" data-name="Trazado 1176661" d="M420.354,193.552a.433.433,0,0,0,.305.141h.013a.425.425,0,0,0,.3-.121c3.138-3.084,6.066-5.9,8.95-8.624a.43.43,0,0,0,.016-.606l-.4-.425a.426.426,0,0,0-.6-.017c-2.627,2.482-5.387,5.143-8.948,8.627a.429.429,0,0,0-.019.592Z" transform="translate(-358.489 -119.619)" fill="#f3edef"/>
                <path id="Trazado_1176662" data-name="Trazado 1176662" d="M399.669,215.9a.425.425,0,0,0,.292.116h.024a.427.427,0,0,0,.3-.15c1.471-1.731,3.123-3.521,5.2-5.635.457-.465.921-.924,1.386-1.381l.094-.093.592-.583a.427.427,0,0,0,.016-.591l-.42-.467a.422.422,0,0,0-.305-.141.368.368,0,0,0-.314.124c-2.059,2.047-4.754,4.785-7.328,7.819a.457.457,0,0,0,.061.613Z" transform="translate(-348.118 -131.219)" fill="#f3edef"/>
                <path id="Trazado_1176663" data-name="Trazado 1176663" d="M378,229.4a.7.7,0,0,0,.33.259l.477.2-.235.464a46.632,46.632,0,0,0-1.911,4.319.425.425,0,0,0,.261.558l.581.2a.4.4,0,0,0,.135.022.427.427,0,0,0,.4-.278,38.206,38.206,0,0,1,2.609-5.714,45.292,45.292,0,0,1,3.155-4.732.428.428,0,0,0-.048-.567l-.458-.429a.443.443,0,0,0-.327-.112.424.424,0,0,0-.3.167c-.459.6-.932,1.235-1.362,1.869-.445.652-.85,1.348-1.24,2.022l-.68,1.17-.432-.661c-1.973-3.023-3.965-6.2-6.269-10.014a.433.433,0,0,0-.3-.2.422.422,0,0,0-.346.1l-.483.418a.426.426,0,0,0-.086.545C373.811,222.855,375.946,226.253,378,229.4Z" transform="translate(-334.261 -136.699)" fill="#f3edef"/>
                <path id="Trazado_1176664" data-name="Trazado 1176664" d="M317.1,105.357a.773.773,0,0,0-.761-.507.81.81,0,0,0-.664.3.45.45,0,0,0-.062.137.617.617,0,0,0,.043.372c.747,1.939,1.586,3.942,2.333,5.731l.432,1.036a.428.428,0,0,0,.243.235.427.427,0,0,0,.337-.016l.475-.23a.427.427,0,0,0,.21-.545C318.742,109.544,317.9,107.413,317.1,105.357Z" transform="translate(-306.35 -80.143)" fill="#f3edef"/>
                <path id="Trazado_1176665" data-name="Trazado 1176665" d="M327.971,131.658c-.766-1.737-1.506-3.486-2.2-5.142a.423.423,0,0,0-.243-.234.413.413,0,0,0-.338.015l-.487.237a.428.428,0,0,0-.206.551c2.18,5.132,4.2,9.662,6.179,13.845a.432.432,0,0,0,.265.228.424.424,0,0,0,.122.017.436.436,0,0,0,.225-.063l.52-.322a.429.429,0,0,0,.16-.549C330.73,137.666,329.3,134.668,327.971,131.658Z" transform="translate(-310.78 -90.848)" fill="#f3edef"/>
                <path id="Trazado_1176666" data-name="Trazado 1176666" d="M341.838,161.765a.425.425,0,0,0-.608-.174l-.511.317a.427.427,0,0,0-.159.55c1.928,3.957,3.6,7.269,5.271,10.422a.432.432,0,0,0,.276.215.416.416,0,0,0,.1.012.428.428,0,0,0,.241-.074l.548-.373a.426.426,0,0,0,.136-.554C345.332,168.717,343.551,165.238,341.838,161.765Z" transform="translate(-318.81 -108.488)" fill="#f3edef"/>
                <path id="Trazado_1176667" data-name="Trazado 1176667" d="M361.106,201.233a.424.424,0,0,0,.3.2.447.447,0,0,0,.068,0,.429.429,0,0,0,.277-.1l.5-.424a.428.428,0,0,0,.092-.543c-1.833-3.108-3.691-6.394-5.845-10.343a.426.426,0,0,0-.276-.21.42.42,0,0,0-.341.062l-.521.356a.428.428,0,0,0-.135.557c1.379,2.536,3.474,6.353,5.751,10.214Z" transform="translate(-326.138 -122.631)" fill="#f3edef"/>
                <path id="Trazado_1176668" data-name="Trazado 1176668" d="M375.858,271.859a.425.425,0,0,0,.169-.29c.19-1.541.379-2.907.581-4.177a66.719,66.719,0,0,1,1.681-7.77.427.427,0,0,0-.274-.521l-.569-.192a.428.428,0,0,0-.548.283c-.346,1.17-.611,2.182-.832,3.184a89.407,89.407,0,0,0-1.461,8.99.429.429,0,0,0,.348.471l.578.1a.388.388,0,0,0,.071.006A.425.425,0,0,0,375.858,271.859Z" transform="translate(-335.857 -157.18)" fill="#f3edef"/>
                <path id="Trazado_1176669" data-name="Trazado 1176669" d="M373.65,291.7l-.567-.1a.417.417,0,0,0-.33.081.43.43,0,0,0-.167.3q-.235,2.378-.452,4.755l-.656,7.11a.427.427,0,0,0,.4.465l.6.043h.031a.427.427,0,0,0,.426-.388l.089-.954q.159-1.735.311-3.47l.05-.573c.2-2.31.4-4.563.627-6.809A.43.43,0,0,0,373.65,291.7Z" transform="translate(-334.293 -173.539)" fill="#f3edef"/>
                <path id="Trazado_1176670" data-name="Trazado 1176670" d="M366.677,366.191l-.6-.074a.443.443,0,0,0-.321.092.429.429,0,0,0-.157.293l-1.184,12.814a.49.49,0,0,0,.432.471l.535.073a.41.41,0,0,0,.056,0,.427.427,0,0,0,.426-.388l1.183-12.821A.429.429,0,0,0,366.677,366.191Z" transform="translate(-330.764 -210.808)" fill="#f3edef"/>
                <path id="Trazado_1176671" data-name="Trazado 1176671" d="M363.1,400.317l-.593-.08a.429.429,0,0,0-.325.089.435.435,0,0,0-.16.3l-1.613,17.463a.648.648,0,0,0,.05.351.452.452,0,0,0,.069.1.69.69,0,0,0,.5.186.809.809,0,0,0,.846-.727l1.59-17.214A.425.425,0,0,0,363.1,400.317Z" transform="translate(-328.755 -227.871)" fill="#f3edef"/>
                <path id="Trazado_1176672" data-name="Trazado 1176672" d="M385.21,334.064c-5.043,1.343-10.172,2.762-15.247,4.22l-.687.2,1.306-14.134a.427.427,0,0,0-.4-.465l-.6-.043a.419.419,0,0,0-.457.387l-1.56,16.89a.429.429,0,0,0,.375.464l.6.073a.343.343,0,0,0,.051,0,.427.427,0,0,0,.426-.388l.114-1.221.319-.094c5.39-1.553,10.832-3.061,16.179-4.484a.425.425,0,0,0,.267-.211.43.43,0,0,0,.028-.34l-.2-.579A.423.423,0,0,0,385.21,334.064Z" transform="translate(-332.339 -189.664)" fill="#f3edef"/>
                <path id="Trazado_1176673" data-name="Trazado 1176673" d="M429.735,332.949l-.525.116c-.8.175-1.607.351-2.408.536-5.107,1.173-10.33,2.456-15.966,3.92a.429.429,0,0,0-.3.552l.2.587a.425.425,0,0,0,.4.29.415.415,0,0,0,.107-.013c6.434-1.669,12.778-3.2,18.854-4.566a.432.432,0,0,0,.278-.2.428.428,0,0,0,.037-.341l-.184-.585A.421.421,0,0,0,429.735,332.949Z" transform="translate(-353.818 -194.215)" fill="#f3edef"/>
                <path id="Trazado_1176674" data-name="Trazado 1176674" d="M476.252,323.779c-6.844,1.159-13.135,2.358-19.233,3.664a.427.427,0,0,0-.28.2.434.434,0,0,0-.038.344l.185.592a.427.427,0,0,0,.408.3.413.413,0,0,0,.091-.009c6.824-1.472,13.05-2.682,19.027-3.7l.109-.018a.429.429,0,0,0,.347-.521l-.126-.526A.428.428,0,0,0,476.252,323.779Z" transform="translate(-376.906 -189.631)" fill="#f3edef"/>
                <path id="Trazado_1176675" data-name="Trazado 1176675" d="M597.095,355.115l-1.287-2.068c-.875-1.41-1.779-2.864-2.712-4.3a.43.43,0,0,0-.289-.19.416.416,0,0,0-.334.086l-.532.419a.427.427,0,0,0-.093.569c.826,1.262,1.631,2.516,2.4,3.726,2.063,3.237,4.212,6.741,6.571,10.711a.429.429,0,0,0,.629.12l.494-.381a.428.428,0,0,0,.106-.557C600.2,360.132,598.622,357.547,597.095,355.115Z" transform="translate(-444.471 -202.023)" fill="#f3edef"/>
                <path id="Trazado_1176676" data-name="Trazado 1176676" d="M615.4,385.161a.432.432,0,0,0-.287-.205.447.447,0,0,0-.344.081l-.484.375a.429.429,0,0,0-.109.554c3.224,5.544,6.288,11.084,9.107,16.469a.562.562,0,0,0,.519.348.888.888,0,0,0,.718-.422.691.691,0,0,0,.007-.705C621.734,396.316,618.664,390.767,615.4,385.161Z" transform="translate(-455.646 -220.227)" fill="#f3edef"/>
                <path id="Trazado_1176677" data-name="Trazado 1176677" d="M565.68,325.576l-.686-.764,1.025-.052c3.7-.184,7.764-.243,11.75-.176a.453.453,0,0,0,.309-.124.43.43,0,0,0,.125-.308l-.007-.648a.427.427,0,0,0-.42-.422c-4.692-.081-9.407.024-14.012.316l-.207.013-.154-.142a24.215,24.215,0,0,0-5.662-3.976,21.565,21.565,0,0,0-9.179-2.083.489.489,0,0,0-.323.135.428.428,0,0,0-.113.333l.052.561a.427.427,0,0,0,.414.389,22.26,22.26,0,0,1,4.987.659,20.469,20.469,0,0,1,9.056,5.278l.19.2a41.255,41.255,0,0,1,4.805,5.673.428.428,0,0,0,.287.174.453.453,0,0,0,.06,0,.423.423,0,0,0,.264-.091l.5-.39a.427.427,0,0,0,.084-.586A46.751,46.751,0,0,0,565.68,325.576Z" transform="translate(-422.638 -186.35)" fill="#f3edef"/>
                <path id="Trazado_1176678" data-name="Trazado 1176678" d="M632.82,330.777c-5.872-.828-11.673-1.368-17.239-1.6a.426.426,0,0,0-.445.433l.008.654a.427.427,0,0,0,.409.421c5.626.229,11.373.748,17.082,1.543a.468.468,0,0,0,.058,0,.426.426,0,0,0,.425-.381l.067-.6A.427.427,0,0,0,632.82,330.777Z" transform="translate(-456.153 -192.333)" fill="#f3edef"/>
                <path id="Trazado_1176679" data-name="Trazado 1176679" d="M675.467,337.335c-5.692-1.535-11.429-2.786-17.053-3.72a.453.453,0,0,0-.329.083.426.426,0,0,0-.166.295l-.065.615a.427.427,0,0,0,.355.468,171.912,171.912,0,0,1,16.933,3.662.426.426,0,0,0,.532-.336l.1-.575A.426.426,0,0,0,675.467,337.335Z" transform="translate(-477.516 -194.552)" fill="#f3edef"/>
                <path id="Trazado_1176680" data-name="Trazado 1176680" d="M714.111,347.966c-4.108-1.59-8.494-3.066-13.409-4.514a.423.423,0,0,0-.346.047.433.433,0,0,0-.2.289l-.1.566a.429.429,0,0,0,.3.486c4.68,1.389,9.206,2.927,13.452,4.571a.731.731,0,0,0,.264.055c.315,0,.482-.3.527-.554A.8.8,0,0,0,714.111,347.966Z" transform="translate(-498.622 -199.465)" fill="#f3edef"/>
                <path id="Trazado_1176681" data-name="Trazado 1176681" d="M521.99,317.5l-.283.024c-5.26.471-10.528,1.253-15.912,2.081-.515.08-1.029.17-1.542.262l-.322.057a.463.463,0,0,0-.276.221.5.5,0,0,0-.05.369l.118.5a.427.427,0,0,0,.416.329.4.4,0,0,0,.068-.005c4.458-.711,8.184-1.251,11.728-1.7l1.191-.153c1.626-.209,3.306-.425,4.979-.563a.428.428,0,0,0,.39-.464l-.052-.573A.424.424,0,0,0,521.99,317.5Z" transform="translate(-400.367 -186.493)" fill="#f3edef"/>
              </g>
            </g>
            <g id="Grupo_1232958" data-name="Grupo 1232958" transform="translate(73.6 76.206)">
              <path id="Trazado_1176683" data-name="Trazado 1176683" d="M464.1,247.749a2.98,2.98,0,1,0-5.285,2.443,3.006,3.006,0,0,0,5.359-1.874A2.826,2.826,0,0,0,464.1,247.749Z" transform="translate(-451.283 -226.651)" fill="#a64c27"/>
              <path id="Trazado_1176684" data-name="Trazado 1176684" d="M459.348,223.009,459,222.54h3.075c.229,0,.372-.193.258-.347l-3.91-5.268-.367-.495h2.282c.178,0,.29-.15.2-.27l-3.041-4.1-3.042-4.1a.267.267,0,0,0-.4,0l-3.042,4.1-3.041,4.1c-.089.12.022.27.2.27h2.282l-.367.495-3.911,5.268c-.114.154.029.347.258.347h3.075l-.349.469-4.779,6.439c-.14.189.035.424.315.424h19.118c.28,0,.455-.236.315-.424Z" transform="translate(-444.329 -207.874)" fill="#a2ba32"/>
            </g>
            <g id="Grupo_1232959" data-name="Grupo 1232959" transform="translate(86.682 97.346)">
              <path id="Trazado_1176685" data-name="Trazado 1176685" d="M490.273,290.039a2.98,2.98,0,1,0-5.285,2.443,3.006,3.006,0,0,0,5.359-1.874A2.818,2.818,0,0,0,490.273,290.039Z" transform="translate(-477.453 -268.941)" fill="#a64c27"/>
              <path id="Trazado_1176686" data-name="Trazado 1176686" d="M485.517,265.3l-.349-.47h3.075c.229,0,.372-.193.258-.347l-3.91-5.268-.367-.495h2.282c.178,0,.29-.15.2-.27l-3.041-4.1-3.042-4.1a.268.268,0,0,0-.4,0l-3.042,4.1-3.041,4.1c-.089.12.022.27.2.27h2.282l-.367.495-3.911,5.268c-.114.154.029.347.258.347h3.075l-.349.47-4.779,6.439c-.14.189.035.424.315.424h19.118c.28,0,.455-.235.315-.424Z" transform="translate(-470.5 -250.163)" fill="#a2ba32"/>
            </g>
            <g id="Grupo_1232960" data-name="Grupo 1232960" transform="translate(52.004 92.887)">
              <path id="Trazado_1176687" data-name="Trazado 1176687" d="M420.9,281.119a2.98,2.98,0,1,0-5.285,2.443,3.006,3.006,0,0,0,5.359-1.875A2.822,2.822,0,0,0,420.9,281.119Z" transform="translate(-408.08 -260.021)" fill="#a64c27"/>
              <path id="Trazado_1176688" data-name="Trazado 1176688" d="M416.145,256.379l-.349-.47h3.075c.229,0,.372-.193.258-.347l-3.911-5.268-.367-.495h2.282c.178,0,.29-.15.2-.27l-3.041-4.1-3.042-4.1a.268.268,0,0,0-.4,0l-3.042,4.1-3.041,4.1c-.089.12.022.27.2.27h2.282l-.367.495-3.911,5.268c-.114.154.029.347.258.347H406.3l-.349.47-4.779,6.439c-.14.189.035.424.315.424h19.118c.28,0,.455-.235.315-.424Z" transform="translate(-401.126 -241.244)" fill="#a2ba32"/>
            </g>
            <g id="Grupo_1232961" data-name="Grupo 1232961" transform="translate(86.225 149.107)">
              <path id="Trazado_1176689" data-name="Trazado 1176689" d="M489.36,393.587a2.98,2.98,0,1,0-5.285,2.443,3.006,3.006,0,0,0,5.359-1.874A2.758,2.758,0,0,0,489.36,393.587Z" transform="translate(-476.538 -372.489)" fill="#a64c27"/>
              <path id="Trazado_1176690" data-name="Trazado 1176690" d="M484.6,368.847l-.349-.47h3.075c.229,0,.372-.193.258-.347l-3.911-5.268-.367-.495h2.282c.178,0,.29-.15.2-.27l-3.041-4.1-3.042-4.1a.267.267,0,0,0-.4,0l-3.042,4.1-3.041,4.1c-.089.12.022.27.2.27h2.282l-.367.495-3.91,5.268c-.115.154.028.347.258.347h3.075l-.349.47-4.779,6.439c-.14.189.035.424.315.424h19.118c.28,0,.455-.236.315-.424Z" transform="translate(-469.584 -353.711)" fill="#a2ba32"/>
            </g>
            <g id="Grupo_1232962" data-name="Grupo 1232962" transform="translate(10.45 112.441)">
              <path id="Trazado_1176691" data-name="Trazado 1176691" d="M337.772,320.238a2.98,2.98,0,1,0-5.285,2.443,3.006,3.006,0,0,0,5.359-1.874A2.75,2.75,0,0,0,337.772,320.238Z" transform="translate(-324.951 -299.14)" fill="#a64c27"/>
              <path id="Trazado_1176692" data-name="Trazado 1176692" d="M333.016,295.5l-.349-.47h3.075c.229,0,.372-.193.258-.347l-3.911-5.268-.367-.495H334c.178,0,.29-.15.2-.27l-3.041-4.1-3.042-4.1a.268.268,0,0,0-.4,0l-3.042,4.1-3.041,4.1c-.089.12.022.27.2.27h2.282l-.367.495-3.911,5.268c-.115.154.029.347.258.347h3.075l-.349.47-4.779,6.439c-.14.189.035.424.315.424H337.48c.28,0,.455-.236.315-.424Z" transform="translate(-317.997 -280.362)" fill="#a2ba32"/>
            </g>
            <path id="Trazado_1176693" data-name="Trazado 1176693" d="M416.122,79.056a10.138,10.138,0,0,0-2.744-4.2c-3.006-2.712-7.319-3.421-11.368-3.393s-8.113.669-12.129.157c-4.549-.58-9.306-2.6-13.52-.789-2.7,1.157-4.407,3.61-5.721,6.128-1.713,3.28-1.991,4-5.676,5.108-2.779.838-5.633,1.715-7.905,3.521A10.676,10.676,0,0,0,353,93.341a9.175,9.175,0,0,0,3.743,7.8c3.771,2.636,8.985,1.808,13.211,3.625,2.651,1.14,4.757,3.253,7.266,4.678,5.174,2.94,11.555,2.7,17.405,1.611,5.506-1.024,11.515-3.254,13.782-8.375,1.1-2.478,1.144-5.318,2.219-7.8,1.292-2.989,3.955-5.215,5.273-8.192A10.494,10.494,0,0,0,416.122,79.056Z" transform="translate(-325.049 -62.762)" fill="#00bcc0"/>
            <g id="Grupo_1232963" data-name="Grupo 1232963" transform="translate(42.226 36.666)">
              <path id="Trazado_1176694" data-name="Trazado 1176694" d="M401.341,168.651a2.98,2.98,0,1,0-5.285,2.443,3.006,3.006,0,0,0,5.359-1.874A2.746,2.746,0,0,0,401.341,168.651Z" transform="translate(-388.52 -147.553)" fill="#a64c27"/>
              <path id="Trazado_1176695" data-name="Trazado 1176695" d="M396.585,143.911l-.349-.47h3.075c.229,0,.372-.193.258-.347l-3.911-5.268-.367-.495h2.282c.178,0,.29-.15.2-.27l-3.041-4.1-3.042-4.1a.268.268,0,0,0-.4,0l-3.042,4.1-3.041,4.1c-.089.12.022.27.2.27h2.282l-.367.495-3.911,5.268c-.115.154.028.347.258.347h3.075l-.349.47-4.779,6.439c-.14.189.035.424.315.424h19.118c.28,0,.455-.236.315-.424Z" transform="translate(-381.566 -128.775)" fill="#a2ba32"/>
            </g>
            <g id="Grupo_1232964" data-name="Grupo 1232964" transform="translate(93.558 2.445)">
              <path id="Trazado_1176696" data-name="Trazado 1176696" d="M504.029,100.192a2.98,2.98,0,1,0-5.285,2.443,3.006,3.006,0,0,0,5.359-1.875A2.75,2.75,0,0,0,504.029,100.192Z" transform="translate(-491.208 -79.094)" fill="#a64c27"/>
              <path id="Trazado_1176697" data-name="Trazado 1176697" d="M499.273,75.452l-.349-.47H502c.229,0,.372-.193.258-.347l-3.911-5.268-.367-.495h2.282c.178,0,.29-.15.2-.27l-3.041-4.1-3.042-4.1a.268.268,0,0,0-.4,0l-3.042,4.1-3.041,4.1c-.089.12.022.27.2.27h2.282l-.367.495L486.1,74.635c-.114.154.029.347.258.347h3.075l-.349.47L484.3,81.891c-.14.189.035.424.315.424h19.118c.28,0,.455-.236.315-.424Z" transform="translate(-484.254 -60.316)" fill="#a2ba32"/>
            </g>
            <g id="Grupo_1232965" data-name="Grupo 1232965" transform="translate(81.279 15.043)">
              <path id="Trazado_1176698" data-name="Trazado 1176698" d="M466.758,85.518a7.075,7.075,0,0,0-7.067,7.067c0,2.839,3.469,7.229,6.379,10.411l.034.038.094.1a.7.7,0,0,0,1.117,0l.09-.1.039-.043c2.91-3.183,6.378-7.572,6.378-10.411A7.073,7.073,0,0,0,466.758,85.518Zm0,10.551a3.607,3.607,0,1,1,3.607-3.607A3.607,3.607,0,0,1,466.758,96.069Z" transform="translate(-459.691 -85.518)" fill="#ff6242"/>
              <path id="Trazado_1176699" data-name="Trazado 1176699" d="M470.219,92.193a3.607,3.607,0,1,0,3.607,3.608A3.608,3.608,0,0,0,470.219,92.193Zm.04,5.631A2.021,2.021,0,1,1,472.28,95.8,2.023,2.023,0,0,1,470.259,97.824Z" transform="translate(-463.152 -88.856)" fill="#f3edef"/>
            </g>
            <path id="Trazado_1176700" data-name="Trazado 1176700" d="M428.749,110.989l-17.45-.3a.9.9,0,0,0,0,1.793l17.45.3A.9.9,0,0,0,428.749,110.989Z" transform="translate(-353.777 -83.061)" fill="#009699"/>
            <path id="Trazado_1176701" data-name="Trazado 1176701" d="M407.232,118.162l-17.45-.3a.9.9,0,0,0,0,1.793l17.45.3A.9.9,0,0,0,407.232,118.162Z" transform="translate(-343.016 -86.648)" fill="#009699"/>
            <path id="Trazado_1176702" data-name="Trazado 1176702" d="M445.365,116.19q-3.112-.113-6.225-.108a.9.9,0,1,0,0,1.793q3.113-.005,6.225.108a.9.9,0,1,0,0-1.793Z" transform="translate(-367.686 -85.76)" fill="#009699"/>
            <path id="Trazado_1176703" data-name="Trazado 1176703" d="M413.089,98.259q-3.112-.113-6.225-.108a.9.9,0,1,0,0,1.793q3.113-.005,6.225.108a.9.9,0,1,0,0-1.793Z" transform="translate(-351.544 -76.793)" fill="#009699"/>
            <path id="Trazado_1176704" data-name="Trazado 1176704" d="M444.45,96.89l-4.646-.062a.9.9,0,1,0,0,1.793l4.646.063a.9.9,0,0,0,0-1.793Z" transform="translate(-368.017 -76.131)" fill="#009699"/>
            <path id="Trazado_1176705" data-name="Trazado 1176705" d="M437.278,89.718l-4.646-.062a.9.9,0,1,0,0,1.793l4.646.062a.9.9,0,1,0,0-1.793Z" transform="translate(-364.43 -72.544)" fill="#009699"/>
            <path id="Trazado_1176706" data-name="Trazado 1176706" d="M534.181,149.536q-.031,2.323-.062,4.646a.9.9,0,1,0,1.792,0q.031-2.323.063-4.646a.9.9,0,0,0-1.793,0Z" transform="translate(-415.635 -102.043)" fill="#a2ba32"/>
            <path id="Trazado_1176707" data-name="Trazado 1176707" d="M548.851,159.316q-.031,2.324-.062,4.646a.9.9,0,0,0,1.793,0q.031-2.323.063-4.646a.9.9,0,0,0-1.793,0Z" transform="translate(-422.972 -106.934)" fill="#a2ba32"/>
            <path id="Trazado_1176708" data-name="Trazado 1176708" d="M666.208,164.2q-.031,2.324-.062,4.646a.9.9,0,1,0,1.792,0q.031-2.323.063-4.646a.9.9,0,0,0-1.793,0Z" transform="translate(-481.665 -109.379)" fill="#a2ba32"/>
            <path id="Trazado_1176709" data-name="Trazado 1176709" d="M416.823,369.582q-.031,2.324-.062,4.646a.9.9,0,1,0,1.793,0q.031-2.323.063-4.646a.9.9,0,1,0-1.793,0Z" transform="translate(-356.942 -212.093)" fill="#a2ba32"/>
            <path id="Trazado_1176710" data-name="Trazado 1176710" d="M338.585,359.8q-.031,2.324-.062,4.646a.9.9,0,0,0,1.793,0q.031-2.323.062-4.646a.9.9,0,1,0-1.793,0Z" transform="translate(-317.813 -207.202)" fill="#a2ba32"/>
            <path id="Trazado_1176711" data-name="Trazado 1176711" d="M333.7,237.554q-.031,2.324-.062,4.646a.9.9,0,1,0,1.793,0q.031-2.323.063-4.646a.9.9,0,0,0-1.793,0Z" transform="translate(-315.367 -146.063)" fill="#a2ba32"/>
            <path id="Trazado_1176712" data-name="Trazado 1176712" d="M558.631,149.536q-.031,2.323-.062,4.646a.9.9,0,0,0,1.793,0q.031-2.323.062-4.646a.9.9,0,1,0-1.793,0Z" transform="translate(-427.863 -102.043)" fill="#a2ba32"/>
            <path id="Trazado_1176713" data-name="Trazado 1176713" d="M397.264,394.031q-.031,2.324-.062,4.646a.9.9,0,1,0,1.793,0q.031-2.323.063-4.646a.9.9,0,0,0-1.793,0Z" transform="translate(-347.16 -224.32)" fill="#a2ba32"/>
            <path id="Trazado_1176714" data-name="Trazado 1176714" d="M431.493,379.361q-.031,2.324-.062,4.646a.9.9,0,1,0,1.793,0q.031-2.323.063-4.646a.9.9,0,1,0-1.793,0Z" transform="translate(-364.278 -216.984)" fill="#a2ba32"/>
            <path id="Trazado_1176715" data-name="Trazado 1176715" d="M348.364,345.132q-.031,2.323-.062,4.646a.9.9,0,0,0,1.793,0q.031-2.323.062-4.646a.9.9,0,1,0-1.793,0Z" transform="translate(-322.704 -199.865)" fill="#a2ba32"/>
            <path id="Trazado_1176716" data-name="Trazado 1176716" d="M319.025,178.875q-.031,2.324-.062,4.646a.9.9,0,1,0,1.793,0q.031-2.323.062-4.646a.9.9,0,1,0-1.793,0Z" transform="translate(-308.031 -116.716)" fill="#a2ba32"/>
            <path id="Trazado_1176717" data-name="Trazado 1176717" d="M348.364,232.664q-.031,2.324-.062,4.646a.9.9,0,0,0,1.793,0q.031-2.323.062-4.646a.9.9,0,1,0-1.793,0Z" transform="translate(-322.704 -143.617)" fill="#a2ba32"/>
            <path id="Trazado_1176718" data-name="Trazado 1176718" d="M607.531,164.2q-.031,2.324-.063,4.646a.9.9,0,0,0,1.793,0q.031-2.323.062-4.646a.9.9,0,1,0-1.793,0Z" transform="translate(-452.318 -109.379)" fill="#a2ba32"/>
            <path id="Trazado_1176719" data-name="Trazado 1176719" d="M460.832,359.8q-.032,2.324-.063,4.646a.9.9,0,0,0,1.793,0q.031-2.323.063-4.646a.9.9,0,1,0-1.793,0Z" transform="translate(-378.951 -207.202)" fill="#a2ba32"/>
            <path id="Trazado_1176720" data-name="Trazado 1176720" d="M583.08,384.251q-.031,2.324-.062,4.646a.9.9,0,1,0,1.793,0q.031-2.323.063-4.646a.9.9,0,1,0-1.793,0Z" transform="translate(-440.09 -219.429)" fill="#a2ba32"/>
            <path id="Trazado_1176721" data-name="Trazado 1176721" d="M323.915,227.774q-.031,2.324-.062,4.646a.9.9,0,1,0,1.793,0q.032-2.323.063-4.646a.9.9,0,0,0-1.793,0Z" transform="translate(-310.476 -141.172)" fill="#a2ba32"/>
            <path id="Trazado_1176722" data-name="Trazado 1176722" d="M446.163,384.251q-.031,2.324-.062,4.646a.9.9,0,1,0,1.793,0q.031-2.323.063-4.646a.9.9,0,1,0-1.793,0Z" transform="translate(-371.615 -219.429)" fill="#a2ba32"/>
            <path id="Trazado_1176723" data-name="Trazado 1176723" d="M529.291,345.132q-.031,2.323-.062,4.646a.9.9,0,1,0,1.792,0q.032-2.323.063-4.646a.9.9,0,0,0-1.793,0Z" transform="translate(-413.189 -199.865)" fill="#a2ba32"/>
            <path id="Trazado_1176724" data-name="Trazado 1176724" d="M558.631,345.132q-.031,2.323-.062,4.646a.9.9,0,1,0,1.793,0q.031-2.323.062-4.646a.9.9,0,1,0-1.793,0Z" transform="translate(-427.863 -199.865)" fill="#a2ba32"/>
            <path id="Trazado_1176725" data-name="Trazado 1176725" d="M700.438,291.343q-.031,2.324-.062,4.646a.9.9,0,1,0,1.793,0q.031-2.323.063-4.646a.9.9,0,1,0-1.793,0Z" transform="translate(-498.784 -172.964)" fill="#a2ba32"/>
            <path id="Trazado_1176726" data-name="Trazado 1176726" d="M548.851,359.8q-.031,2.324-.062,4.646a.9.9,0,0,0,1.793,0q.031-2.323.063-4.646a.9.9,0,1,0-1.793,0Z" transform="translate(-422.972 -207.202)" fill="#a2ba32"/>
            <path id="Trazado_1176727" data-name="Trazado 1176727" d="M690.658,306.013q-.031,2.324-.062,4.646a.9.9,0,1,0,1.792,0q.031-2.323.063-4.646a.9.9,0,0,0-1.793,0Z" transform="translate(-493.893 -180.301)" fill="#a2ba32"/>
            <path id="Trazado_1176728" data-name="Trazado 1176728" d="M622.2,149.536q-.031,2.323-.062,4.646a.9.9,0,1,0,1.793,0q.031-2.323.063-4.646a.9.9,0,0,0-1.793,0Z" transform="translate(-459.655 -102.043)" fill="#a2ba32"/>
            <path id="Trazado_1176729" data-name="Trazado 1176729" d="M426.519,125.58l-4.646-.062a.9.9,0,1,0,0,1.793l4.646.063a.9.9,0,0,0,0-1.793Z" transform="translate(-359.049 -90.48)" fill="#009699"/>
            <path id="Trazado_1176730" data-name="Trazado 1176730" d="M396.054,103.82l-4.646-.062a.9.9,0,1,0,0,1.793l4.646.062a.9.9,0,1,0,0-1.793Z" transform="translate(-343.813 -79.597)" fill="#009699"/>
            <g id="Grupo_1232966" data-name="Grupo 1232966" transform="translate(25.116 24.445)">
              <path id="Trazado_1176731" data-name="Trazado 1176731" d="M367.112,144.2a2.98,2.98,0,1,0-5.285,2.442,3.006,3.006,0,0,0,5.359-1.874A2.822,2.822,0,0,0,367.112,144.2Z" transform="translate(-354.291 -123.104)" fill="#a64c27"/>
              <path id="Trazado_1176732" data-name="Trazado 1176732" d="M362.356,119.461l-.349-.469h3.075c.229,0,.372-.193.258-.347l-3.911-5.268-.367-.495h2.282c.178,0,.29-.15.2-.27l-3.041-4.1-3.042-4.1a.268.268,0,0,0-.4,0l-3.042,4.1-3.041,4.1c-.089.12.022.27.2.27h2.282l-.367.495-3.911,5.268c-.114.154.029.347.258.347h3.075l-.349.469-4.779,6.439c-.14.189.035.424.315.424H366.82c.28,0,.455-.235.315-.424Z" transform="translate(-347.337 -104.326)" fill="#a2ba32"/>
            </g>
            <g id="Grupo_1232969" data-name="Grupo 1232969" transform="translate(117.197 82.175)">
              <path id="Trazado_1176733" data-name="Trazado 1176733" d="M604.095,292.787H536.86c-.026,0-.048.013-.074.015s-.048-.015-.074-.015h-3.87a1.3,1.3,0,0,0-1.3,1.3v2.531a1.3,1.3,0,0,0,1.3,1.3h3.87c.026,0,.048-.013.074-.015s.048.015.074.015h67.234a1.3,1.3,0,0,0,1.3-1.3v-2.531A1.3,1.3,0,0,0,604.095,292.787Z" transform="translate(-531.545 -256.31)" fill="#009699"/>
              <path id="Trazado_1176734" data-name="Trazado 1176734" d="M598.807,236.353H579.182c-.21,0-.38.1-.38.216v30.344c0,.119.17.216.38.216h19.625c.21,0,.38-.1.38-.216V236.569C599.188,236.45,599.017,236.353,598.807,236.353Z" transform="translate(-555.179 -228.086)" fill="#00bcc0"/>
              <path id="Trazado_1176735" data-name="Trazado 1176735" d="M564.474,219.815h-24.9c-.266,0-.482.123-.482.274v38.494c0,.151.216.274.482.274h24.9c.266,0,.482-.123.482-.274V220.089C564.956,219.938,564.74,219.815,564.474,219.815Z" transform="translate(-535.321 -219.815)" fill="#a64c27"/>
              <g id="Grupo_1232967" data-name="Grupo 1232967" transform="translate(7.055 2.685)">
                <path id="Trazado_1176736" data-name="Trazado 1176736" d="M549.851,225.186H547.08a1.42,1.42,0,0,0-1.421,1.421v2.771a1.421,1.421,0,0,0,1.421,1.421h2.771a1.421,1.421,0,0,0,1.421-1.421v-2.771A1.421,1.421,0,0,0,549.851,225.186Z" transform="translate(-545.659 -225.186)" fill="#f3edef"/>
                <path id="Trazado_1176737" data-name="Trazado 1176737" d="M563.541,225.186H560.77a1.421,1.421,0,0,0-1.421,1.421v2.771a1.421,1.421,0,0,0,1.421,1.421h2.771a1.42,1.42,0,0,0,1.421-1.421v-2.771A1.42,1.42,0,0,0,563.541,225.186Z" transform="translate(-552.506 -225.186)" fill="#f3edef"/>
                <path id="Trazado_1176738" data-name="Trazado 1176738" d="M577.231,225.186H574.46a1.421,1.421,0,0,0-1.421,1.421v2.771a1.421,1.421,0,0,0,1.421,1.421h2.771a1.42,1.42,0,0,0,1.421-1.421v-2.771A1.42,1.42,0,0,0,577.231,225.186Z" transform="translate(-559.352 -225.186)" fill="#ffd148"/>
                <path id="Trazado_1176739" data-name="Trazado 1176739" d="M549.851,239.22H547.08a1.42,1.42,0,0,0-1.421,1.421v2.771a1.421,1.421,0,0,0,1.421,1.421h2.771a1.421,1.421,0,0,0,1.421-1.421v-2.771A1.421,1.421,0,0,0,549.851,239.22Z" transform="translate(-545.659 -232.205)" fill="#ffd148"/>
                <path id="Trazado_1176740" data-name="Trazado 1176740" d="M563.541,239.22H560.77a1.421,1.421,0,0,0-1.421,1.421v2.771a1.421,1.421,0,0,0,1.421,1.421h2.771a1.42,1.42,0,0,0,1.421-1.421v-2.771A1.42,1.42,0,0,0,563.541,239.22Z" transform="translate(-552.506 -232.205)" fill="#f3edef"/>
                <path id="Trazado_1176741" data-name="Trazado 1176741" d="M577.231,239.22H574.46a1.421,1.421,0,0,0-1.421,1.421v2.771a1.421,1.421,0,0,0,1.421,1.421h2.771a1.42,1.42,0,0,0,1.421-1.421v-2.771A1.42,1.42,0,0,0,577.231,239.22Z" transform="translate(-559.352 -232.205)" fill="#f3edef"/>
                <path id="Trazado_1176742" data-name="Trazado 1176742" d="M549.851,253.254H547.08a1.42,1.42,0,0,0-1.421,1.421v2.771a1.421,1.421,0,0,0,1.421,1.421h2.771a1.421,1.421,0,0,0,1.421-1.421v-2.771A1.421,1.421,0,0,0,549.851,253.254Z" transform="translate(-545.659 -239.223)" fill="#f3edef"/>
                <path id="Trazado_1176743" data-name="Trazado 1176743" d="M563.541,253.254H560.77a1.421,1.421,0,0,0-1.421,1.421v2.771a1.421,1.421,0,0,0,1.421,1.421h2.771a1.42,1.42,0,0,0,1.421-1.421v-2.771A1.42,1.42,0,0,0,563.541,253.254Z" transform="translate(-552.506 -239.223)" fill="#ffd148"/>
                <path id="Trazado_1176744" data-name="Trazado 1176744" d="M577.231,253.254H574.46a1.421,1.421,0,0,0-1.421,1.421v2.771a1.421,1.421,0,0,0,1.421,1.421h2.771a1.42,1.42,0,0,0,1.421-1.421v-2.771A1.42,1.42,0,0,0,577.231,253.254Z" transform="translate(-559.352 -239.223)" fill="#f3edef"/>
                <path id="Trazado_1176745" data-name="Trazado 1176745" d="M549.851,267.288H547.08a1.42,1.42,0,0,0-1.421,1.421v2.771a1.421,1.421,0,0,0,1.421,1.421h2.771a1.421,1.421,0,0,0,1.421-1.421v-2.771A1.421,1.421,0,0,0,549.851,267.288Z" transform="translate(-545.659 -246.242)" fill="#ffd148"/>
                <path id="Trazado_1176746" data-name="Trazado 1176746" d="M563.541,267.288H560.77a1.421,1.421,0,0,0-1.421,1.421v2.771a1.421,1.421,0,0,0,1.421,1.421h2.771a1.42,1.42,0,0,0,1.421-1.421v-2.771A1.42,1.42,0,0,0,563.541,267.288Z" transform="translate(-552.506 -246.242)" fill="#f3edef"/>
                <path id="Trazado_1176747" data-name="Trazado 1176747" d="M577.231,267.288H574.46a1.421,1.421,0,0,0-1.421,1.421v2.771a1.421,1.421,0,0,0,1.421,1.421h2.771a1.42,1.42,0,0,0,1.421-1.421v-2.771A1.42,1.42,0,0,0,577.231,267.288Z" transform="translate(-559.352 -246.242)" fill="#ff6242"/>
                <path id="Trazado_1176748" data-name="Trazado 1176748" d="M549.851,281.322H547.08a1.42,1.42,0,0,0-1.421,1.421v2.771a1.42,1.42,0,0,0,1.421,1.421h2.771a1.421,1.421,0,0,0,1.421-1.421v-2.771A1.421,1.421,0,0,0,549.851,281.322Z" transform="translate(-545.659 -253.261)" fill="#f3edef"/>
                <path id="Trazado_1176749" data-name="Trazado 1176749" d="M563.541,281.322H560.77a1.421,1.421,0,0,0-1.421,1.421v2.771a1.42,1.42,0,0,0,1.421,1.421h2.771a1.42,1.42,0,0,0,1.421-1.421v-2.771A1.42,1.42,0,0,0,563.541,281.322Z" transform="translate(-552.506 -253.261)" fill="#f3edef"/>
                <path id="Trazado_1176750" data-name="Trazado 1176750" d="M577.231,281.322H574.46a1.421,1.421,0,0,0-1.421,1.421v2.771a1.42,1.42,0,0,0,1.421,1.421h2.771a1.42,1.42,0,0,0,1.421-1.421v-2.771A1.42,1.42,0,0,0,577.231,281.322Z" transform="translate(-559.352 -253.261)" fill="#f3edef"/>
              </g>
              <path id="Trazado_1176751" data-name="Trazado 1176751" d="M647.645,226.573H624.9c-.243,0-.44.112-.44.251v35.163c0,.138.2.251.44.251h22.742c.244,0,.441-.112.441-.251V226.824C648.086,226.685,647.889,226.573,647.645,226.573Z" transform="translate(-578.015 -223.195)" fill="#a64c27"/>
              <g id="Grupo_1232968" data-name="Grupo 1232968" transform="translate(49.445 5.831)">
                <path id="Trazado_1176752" data-name="Trazado 1176752" d="M646.79,231.479H635.774c-.026,0-.048.013-.074.015s-.048-.015-.074-.015h-3.87a1.3,1.3,0,0,0-1.3,1.3v2.531a1.3,1.3,0,0,0,1.3,1.3h3.87c.027,0,.049-.013.074-.015s.048.015.074.015H646.79a1.3,1.3,0,0,0,1.3-1.3v-2.531A1.3,1.3,0,0,0,646.79,231.479Z" transform="translate(-630.458 -231.479)" fill="#f3edef"/>
                <path id="Trazado_1176753" data-name="Trazado 1176753" d="M646.79,244.3H635.774c-.026,0-.048.013-.074.015s-.048-.015-.074-.015h-3.87a1.3,1.3,0,0,0-1.3,1.3v2.531a1.3,1.3,0,0,0,1.3,1.3h3.87c.027,0,.049-.014.074-.015s.048.015.074.015H646.79a1.3,1.3,0,0,0,1.3-1.3V245.6A1.3,1.3,0,0,0,646.79,244.3Z" transform="translate(-630.458 -237.891)" fill="#ffd148"/>
                <path id="Trazado_1176754" data-name="Trazado 1176754" d="M646.79,257.118H635.774c-.026,0-.048.013-.074.015s-.048-.015-.074-.015h-3.87a1.3,1.3,0,0,0-1.3,1.3v2.531a1.3,1.3,0,0,0,1.3,1.3h3.87c.027,0,.049-.013.074-.015s.048.015.074.015H646.79a1.3,1.3,0,0,0,1.3-1.3v-2.531A1.3,1.3,0,0,0,646.79,257.118Z" transform="translate(-630.458 -244.302)" fill="#f3edef"/>
                <path id="Trazado_1176755" data-name="Trazado 1176755" d="M646.79,269.939H635.774c-.026,0-.048.013-.074.015s-.048-.015-.074-.015h-3.87a1.3,1.3,0,0,0-1.3,1.3v2.531a1.3,1.3,0,0,0,1.3,1.3h3.87c.027,0,.049-.013.074-.015s.048.015.074.015H646.79a1.3,1.3,0,0,0,1.3-1.3v-2.531A1.3,1.3,0,0,0,646.79,269.939Z" transform="translate(-630.458 -250.714)" fill="#ff6242"/>
                <path id="Trazado_1176756" data-name="Trazado 1176756" d="M646.79,282.758H635.774c-.026,0-.048.013-.074.015s-.048-.015-.074-.015h-3.87a1.3,1.3,0,0,0-1.3,1.3v2.531a1.3,1.3,0,0,0,1.3,1.3h3.87c.027,0,.049-.014.074-.015s.048.015.074.015H646.79a1.3,1.3,0,0,0,1.3-1.3v-2.531A1.3,1.3,0,0,0,646.79,282.758Z" transform="translate(-630.458 -257.125)" fill="#f3edef"/>
              </g>
            </g>
            <g id="Grupo_1232970" data-name="Grupo 1232970" transform="translate(146.096 70.108)">
              <path id="Trazado_1176757" data-name="Trazado 1176757" d="M596.424,195.675a7.075,7.075,0,0,0-7.067,7.066c0,2.839,3.469,7.229,6.379,10.411l.034.038.095.1a.7.7,0,0,0,1.117,0l.09-.1.039-.043c2.91-3.182,6.379-7.572,6.379-10.411A7.074,7.074,0,0,0,596.424,195.675Zm0,10.551a3.607,3.607,0,1,1,3.607-3.607A3.607,3.607,0,0,1,596.424,206.226Z" transform="translate(-589.357 -195.675)" fill="#ff6242"/>
              <path id="Trazado_1176758" data-name="Trazado 1176758" d="M599.885,202.35a3.607,3.607,0,1,0,3.607,3.607A3.607,3.607,0,0,0,599.885,202.35Zm.04,5.631a2.021,2.021,0,1,1,2.021-2.021A2.023,2.023,0,0,1,599.925,207.981Z" transform="translate(-592.818 -199.013)" fill="#f3edef"/>
            </g>
            <g id="Grupo_1232971" data-name="Grupo 1232971" transform="translate(72.385 82.732)">
              <path id="Trazado_1176759" data-name="Trazado 1176759" d="M448.966,220.93A7.075,7.075,0,0,0,441.9,228c0,2.839,3.469,7.229,6.379,10.411l.034.038.094.1a.7.7,0,0,0,1.117,0l.09-.1.039-.043c2.91-3.183,6.378-7.572,6.378-10.411A7.074,7.074,0,0,0,448.966,220.93Zm0,10.551a3.607,3.607,0,1,1,3.608-3.607A3.607,3.607,0,0,1,448.965,231.481Z" transform="translate(-441.899 -220.93)" fill="#ff6242"/>
              <path id="Trazado_1176760" data-name="Trazado 1176760" d="M452.426,227.6a3.607,3.607,0,1,0,3.608,3.607A3.607,3.607,0,0,0,452.426,227.6Zm.04,5.631a2.021,2.021,0,1,1,2.021-2.021A2.023,2.023,0,0,1,452.466,233.236Z" transform="translate(-445.36 -224.268)" fill="#f3edef"/>
            </g>
            <g id="Grupo_1232972" data-name="Grupo 1232972" transform="translate(68.862 107.392)">
              <path id="Trazado_1176761" data-name="Trazado 1176761" d="M436.638,304.744a.508.508,0,0,0-.5-.5.5.5,0,0,0-.5.5q.091,2.008.183,4.016a.508.508,0,0,0,.5.5.5.5,0,0,0,.5-.5Q436.729,306.752,436.638,304.744Z" transform="translate(-435.246 -287.259)" fill="#a64c27"/>
              <path id="Trazado_1176762" data-name="Trazado 1176762" d="M474.395,304.744a.508.508,0,0,1,.5-.5.5.5,0,0,1,.5.5q-.092,2.008-.183,4.016a.508.508,0,0,1-.5.5.5.5,0,0,1-.5-.5Z" transform="translate(-454.536 -287.259)" fill="#a64c27"/>
              <path id="Trazado_1176763" data-name="Trazado 1176763" d="M445.44,292.261H434.99a.139.139,0,0,1-.125-.2l5.24-10.891,5.21-10.829a.139.139,0,0,1,.251,0l5.21,10.829,5.24,10.891a.14.14,0,0,1-.125.2Z" transform="translate(-434.851 -270.262)" fill="#ffd148"/>
              <path id="Trazado_1176764" data-name="Trazado 1176764" d="M452.286,296.517h-3.748l1.874-8.872,1.874-8.873,1.874,8.873,1.874,8.872Z" transform="translate(-441.696 -274.518)" fill="#a64c27"/>
            </g>
          </g>
          <g id="Grupo_1232977" data-name="Grupo 1232977" transform="translate(0 6.095)">
            <path id="Trazado_1176765" data-name="Trazado 1176765" d="M102.067,379.512c-2.361-3.269-6.988-5.029-11.354-6.073-9.634-2.3-18.821-5.553-28.277-8.564-6.669-2.124-13.806-5.364-20.862-5.252a16.277,16.277,0,0,0-8.675,2.691c-5.877,3.907-8.485,12.737-.224,17.4,7.019,3.963,16.63,6.5,24.323,9.37q10.092,3.76,20.265,7.331c2.176.764,4.521,1.788,6.915,2.645,8.312,2.979,15.988.989,18.36-5.979C103.9,389.1,105.017,383.6,102.067,379.512Z" transform="translate(-26.996 -213.655)" fill="#ffbaa6"/>
            <path id="Trazado_1176766" data-name="Trazado 1176766" d="M131.439,377.349c2.833-2.87,7.674-3.9,12.149-4.266,9.872-.8,19.449-2.611,29.253-4.142,6.916-1.08,14.463-3.192,21.419-2a16.279,16.279,0,0,1,8.162,3.985c5.211,4.759,6.439,13.884-2.437,17.231-7.542,2.844-17.429,3.886-25.469,5.543q-10.548,2.175-21.147,4.148c-2.267.423-4.741,1.076-7.239,1.558-8.67,1.673-15.952-1.466-17.231-8.714C128.167,386.544,127.9,380.935,131.439,377.349Z" transform="translate(-77.514 -217.138)" fill="#ffbaa6"/>
            <path id="Trazado_1176767" data-name="Trazado 1176767" d="M127.854,378.315a61.081,61.081,0,0,0-7.209-8.539,45.4,45.4,0,0,0-15.015-9.49,52.011,52.011,0,0,1,10.923-12.817,11.49,11.49,0,0,1,1.5.33,52.908,52.908,0,0,0,23.534.434c.87-.169,2.422-.785,3.8-1.036,4.3,4.05,8.445,8.2,11.166,13.205-12.089,2.8-21.094,13.31-25.337,24.269A24.389,24.389,0,0,0,127.854,378.315Z" transform="translate(-66.104 -207.442)" fill="#ffbaa6"/>
            <path id="Trazado_1176768" data-name="Trazado 1176768" d="M32.587,355.716a16.525,16.525,0,0,1,8.783-2.724c5.527-.093,11.059,1.852,16.414,3.728,1.49.522,3.03,1.061,4.512,1.534,1.373.437,2.733.883,4.1,1.326A52.308,52.308,0,0,1,77.114,347.1l.067-.056.087.011a10.759,10.759,0,0,1,1.433.31l.095.025a52.278,52.278,0,0,0,23.444.431c.363-.07.849-.221,1.412-.4a21.055,21.055,0,0,1,2.393-.64l.1-.019.074.07c4.021,3.788,8.164,7.892,10.94,12.789,1.641-.267,3.28-.536,4.931-.794,1.536-.24,3.141-.538,4.692-.826,5.579-1.036,11.349-2.106,16.792-1.176a16.528,16.528,0,0,1,8.264,4.035c3.108,2.838,4.669,7,3.978,10.6-.427,2.226-1.9,5.242-6.479,6.969-5.319,2.006-11.745,3.109-17.959,4.175-2.651.455-5.155.885-7.541,1.377-6.926,1.428-14.042,2.823-21.151,4.148q-.416.078-.839.164a10.279,10.279,0,0,1-4.725,4.617,13.674,13.674,0,0,1-5.967,1.266,21.623,21.623,0,0,1-7.245-1.356c-1.176-.421-2.345-.885-3.477-1.333-1.2-.475-2.331-.924-3.438-1.312-6.823-2.4-13.643-4.863-20.269-7.332-2.283-.851-4.692-1.659-7.242-2.513-5.978-2-12.16-4.076-17.11-6.87-4.263-2.407-5.256-5.613-5.338-7.878C26.9,361.919,29.082,358.046,32.587,355.716Z" transform="translate(-26.795 -207.225)" fill="#a64c27"/>
            <path id="Trazado_1176769" data-name="Trazado 1176769" d="M95.048,432.161a6.506,6.506,0,0,1-1.825-4.109c-.118-2.741,1.86-4.44,3.973-5.787a15.791,15.791,0,0,1,8.367-2.731c4.638-.027,7.624-1.409,12.024-1.987,2.45-.322,4.791.618,6.886,1.661,2.465,1.227,5.109,3.211,4.588,5.794a6.264,6.264,0,0,1-2.409,3.305c-5.092,4.174-9.354,2.431-15.229,4.563-5.1,1.852-11,3.879-15.758-.124A7.663,7.663,0,0,1,95.048,432.161Z" transform="translate(-59.897 -242.593)" fill="#73645b"/>
            <path id="Trazado_1176770" data-name="Trazado 1176770" d="M95.07,443.616c2.489,2.468,6.031,2.947,9.38,2.467,3.841-.55,7.374-2.328,11.177-3.054a16.545,16.545,0,0,1,3.648-.259c1.36.023,2.722.074,4.081,0,.181-.009.362-.023.542-.039-3.813,1.645-7.435.927-12.055,2.6-5.1,1.852-11,3.879-15.758-.124a7.337,7.337,0,0,1-.617-.584,6.966,6.966,0,0,1-1.41-2.219A9.14,9.14,0,0,0,95.07,443.616Z" transform="translate(-60.317 -255.059)" fill="#fff"/>
            <path id="Trazado_1176771" data-name="Trazado 1176771" d="M123.286,397.551c9.776-3.419,19.491-7.067,28.532-12.178,11.417-6.454,22.929-11.541,36.215-8.792,8.918,1.845,12.868,8.685,4.846,15.414-11.772,9.875-27.909,11.655-42.682,12.636-7.149.475-14.271,1.347-21.341,2.518-3.713.615-7.307,2.026-11.095,2.176-2.392.1-8.035-.635-7.623-4.067.5-4.155,9.68-6.5,12.937-7.633Z" transform="translate(-68.348 -221.756)" fill="#ffbaa6"/>
            <path id="Trazado_1176772" data-name="Trazado 1176772" d="M108.953,426.464c.448-3.9,7.674-6.283,11.992-7.707.44-.145.845-.278,1.2-.4l.308-.106-.032.325c-.241,2.422.68,5.212,2.739,8.291.411.614.851,1.222,1.308,1.807l.2.257-.316.076c-.67.162-1.338.336-2.007.51a35.6,35.6,0,0,1-7.18,1.35,13.9,13.9,0,0,1-1.507-.016c-2.082-.129-4.681-.7-5.939-2.05A2.817,2.817,0,0,1,108.953,426.464Z" transform="translate(-67.755 -242.977)" fill="#4a4a4a"/>
            <path id="Trazado_1176773" data-name="Trazado 1176773" d="M129.569,424.538c.036-.255.438-.232.4.025a8.8,8.8,0,0,0,2.158,7.067c.174.193-.123.454-.3.266l-.288-.3a.186.186,0,0,1-.048-.093A9.193,9.193,0,0,1,129.569,424.538Z" transform="translate(-78.034 -246.032)" fill="#fff"/>
            <path id="Trazado_1176774" data-name="Trazado 1176774" d="M123.381,426.969c.066-.25.447-.119.381.131a6.7,6.7,0,0,0,1.118,5.694c.155.206-.145.474-.3.266A7.131,7.131,0,0,1,123.381,426.969Z" transform="translate(-74.865 -247.271)" fill="#fff"/>
            <path id="Trazado_1176775" data-name="Trazado 1176775" d="M117.79,430.422a.2.2,0,0,1,.381.131,3.866,3.866,0,0,0,.549,3.514c.154.207-.147.475-.3.266A4.284,4.284,0,0,1,117.79,430.422Z" transform="translate(-72.075 -248.999)" fill="#fff"/>
            <path id="Trazado_1176776" data-name="Trazado 1176776" d="M134.714,422.847c.044-.023.089-.044.134-.065a12.243,12.243,0,0,1,1.694-.628c2.079-.6,3.234,3.586,3.475,5.072a1.107,1.107,0,0,1-.034.653,1.125,1.125,0,0,1-.6.471,12.443,12.443,0,0,1-1.27.494,1.66,1.66,0,0,1-2.341-.927,11.953,11.953,0,0,1-1.5-3.964,1.116,1.116,0,0,1,.056-.789A.915.915,0,0,1,134.714,422.847Z" transform="translate(-80.407 -244.9)" fill="#ffd148"/>
            <g id="Grupo_1232974" data-name="Grupo 1232974" transform="translate(21.36)">
              <path id="Trazado_1176777" data-name="Trazado 1176777" d="M145.3,81.412c0-3.205-2.847-5.9-4.393-7.329a21.87,21.87,0,0,0-6.535-4.055c-8.442-3.515-17.832-3.153-26.742.875A26.842,26.842,0,0,0,93.153,85.719c-2.473,6.371,3,7.7,5.866,8.32,5.994,1.3,12.207,1.071,18.4.271a67.754,67.754,0,0,0,19.6-5.272,20.944,20.944,0,0,0,6.931-4.654A4.3,4.3,0,0,0,145.3,81.412Z" transform="translate(-80.911 -67.619)" fill="#a64c27"/>
              <path id="Trazado_1176778" data-name="Trazado 1176778" d="M139.926,85.775a60.929,60.929,0,0,0-14.847-2.023A53.323,53.323,0,0,0,111.4,85.617a54.125,54.125,0,0,0-12.356,4.751,35.525,35.525,0,0,0-6.163,4.219c-1.723,5.682,3.4,6.926,6.139,7.52,5.994,1.3,12.207,1.071,18.4.271a67.754,67.754,0,0,0,19.6-5.272,20.936,20.936,0,0,0,6.931-4.654,4.3,4.3,0,0,0,1.35-2.972,6.141,6.141,0,0,0-.452-2.25C143.226,86.691,141.584,86.2,139.926,85.775Z" transform="translate(-80.916 -75.687)" fill="#f3edef"/>
              <path id="Trazado_1176779" data-name="Trazado 1176779" d="M150.2,100.771c-.6-3.159-5.375-5.5-7.959-6.727a43.06,43.06,0,0,0-10.555-3.256A72.672,72.672,0,0,0,91.78,94.68c-7.959,3.146-15.851,8.251-18.911,16.244-2.511,6.56,5.946,7.249,10.351,7.537a122.275,122.275,0,0,0,27.618-1.817,136.179,136.179,0,0,0,28.387-7.418,31.291,31.291,0,0,0,9.514-5.373A3.4,3.4,0,0,0,150.2,100.771Z" transform="translate(-70.851 -78.599)" fill="#ffd148"/>
              <ellipse id="Elipse_14272" data-name="Elipse 14272" cx="39.525" cy="8.917" rx="39.525" ry="8.917" transform="matrix(0.985, -0.172, 0.172, 0.985, 0, 26.969)" fill="#a64c27"/>
            </g>
            <path id="Trazado_1176780" data-name="Trazado 1176780" d="M154.055,150.015c0,1.586-1.84,2.333-3.2,2.142-1.861-.261-2.865-2.194-3.3-3.831a17.14,17.14,0,0,1-.467-3.291c-.045-.713-.063-1.428-.068-2.143.074-.771.13-1.545.175-2.318a20.926,20.926,0,0,0,.334-4.4A46.651,46.651,0,0,0,146.4,128.5a.166.166,0,0,0-.1-.129,44.505,44.505,0,0,0-1.419-5.539,39.927,39.927,0,0,0-5.091-10.371c-2-2.883-4.618-6.111-7.672-7.93-3.289-1.961-7.119-.518-10.65-.2q-4.854.433-9.674,1.174-4.862.748-9.669,1.807c-7.781,1.715-16.969,2.3-19.724,11.1a13.419,13.419,0,0,0-.538,2.6c-.109,1.027-.048,2.056-.061,3.086a7.228,7.228,0,0,1-.586,3,11.206,11.206,0,0,1-1.407,2.18,18.519,18.519,0,0,0-2.919,4.218c-1.7,4.129.68,8.352.805,12.492a6.539,6.539,0,0,1-1.763,5.133,4.363,4.363,0,0,1-4.169,1.2,2.375,2.375,0,0,1-1.64-1.663.968.968,0,0,1,.336-1.031.982.982,0,0,1,.823-.041.512.512,0,0,1,.391.553c-.048.253.34.362.388.107.125-.664-.456-1.084-1.063-1.127a1.2,1.2,0,0,0-1.306,1.252A2.478,2.478,0,0,0,71,152.4a3.548,3.548,0,0,0,2.219.448,5.527,5.527,0,0,0,3.9-2.52,8.822,8.822,0,0,0,.848-5.891,16.529,16.529,0,0,1,.6,4.129,9.362,9.362,0,0,1-.879,4.783,2.636,2.636,0,0,1-1.722,1.359c-.254.052-.146.441.107.388,1.5-.311,2.264-1.817,2.592-3.181a14.959,14.959,0,0,0,.1-5.712c-.024-.157-.057-.313-.086-.47a28.623,28.623,0,0,1,1.285,3.935,14.166,14.166,0,0,1-.321,8.358,30.6,30.6,0,0,1-2.15,4.312c.935.587,1.882,1.137,2.869,1.637.6.3,1.208.581,1.823.846a22.857,22.857,0,0,0,3.38-8.7,58.933,58.933,0,0,1-.364,9.928l.471.187a70.946,70.946,0,0,0,3.152-9.066,19.528,19.528,0,0,1,1.073,10.681,48.971,48.971,0,0,0,11.767,2.577,41.159,41.159,0,0,0,7.725.053c2.278-.236,4.352-.538,6.663-.948A109.639,109.639,0,0,0,127.041,167a35.637,35.637,0,0,0,5.477-4.778,12.839,12.839,0,0,0,1.935-2.455l3.52,3.363c.27-.119.54-.241.809-.364a50.43,50.43,0,0,0-.228-8.191,35.036,35.036,0,0,0,3.359,6.643c.321-.171.643-.343.962-.522a32.583,32.583,0,0,1,.332-5.441,39.264,39.264,0,0,1,1.585-6.429c.607-1.866,1.266-3.717,1.792-5.608-.034.352-.068.7-.11,1.055-.276,2.324-.764,4.6-1.154,6.91a15.15,15.15,0,0,0-.057,6.529,4.592,4.592,0,0,0,1.416,2.338,3.327,3.327,0,0,0,2.368.8,2.318,2.318,0,0,0,1.94-1.4,2.044,2.044,0,0,0-.276-2.224c-.175-.192-.46.094-.285.285a1.665,1.665,0,0,1,.148,1.875,1.93,1.93,0,0,1-1.777,1.069,3.068,3.068,0,0,1-2.183-1.024,4.9,4.9,0,0,1-1.1-2.438,17.316,17.316,0,0,1,.282-6.187c.32-1.791.666-3.572.925-5.372a16.583,16.583,0,0,0,.451,3c.439,1.667,1.431,3.575,3.238,4.044a3.406,3.406,0,0,0,3.815-1.448,2.266,2.266,0,0,0,.236-1.014A.2.2,0,0,0,154.055,150.015Z" transform="translate(-48.133 -85.575)" fill="#ff6242"/>
            <path id="Trazado_1176781" data-name="Trazado 1176781" d="M154.988,233.26c-4.02-13.987-24.98-18.033-37.286-15.745-8.745,1.626-21.84,6.067-24.622,15.746a12.277,12.277,0,0,0-.462,3.423c5,8.612,9.624,17.367,12.746,26.9a84.256,84.256,0,0,1,3.717,16.346q.135,1.147.213,2.294a12.607,12.607,0,0,0,1.166.808c7.615,4.659,19.439,4.716,27.147,0a12.6,12.6,0,0,0,1.166-.808q.079-1.147.213-2.294a84.242,84.242,0,0,1,3.717-16.346c3.122-9.532,7.742-18.287,12.746-26.9A12.281,12.281,0,0,0,154.988,233.26Z" transform="translate(-59.597 -142.285)" fill="#ffbaa6"/>
            <path id="Trazado_1176782" data-name="Trazado 1176782" d="M154.98,232.986h0c-4.016-13.975-24.731-18.267-37.516-15.888-6.42,1.193-21.687,5.131-24.778,15.888a12.543,12.543,0,0,0-.47,3.479v.054l.027.047c4.455,7.667,9.451,16.853,12.728,26.86a83.412,83.412,0,0,1,3.709,16.307c.087.738.158,1.507.212,2.284l.006.09.071.055a13.023,13.023,0,0,0,1.185.821,28.338,28.338,0,0,0,27.356,0,12.976,12.976,0,0,0,1.185-.821l.071-.056.007-.09c.053-.777.124-1.546.211-2.284a83.4,83.4,0,0,1,3.709-16.307c3.278-10.008,8.273-19.194,12.728-26.86l.027-.047v-.054A12.485,12.485,0,0,0,154.98,232.986Z" transform="translate(-59.395 -142.066)" fill="#a2ba32"/>
            <path id="Trazado_1176783" data-name="Trazado 1176783" d="M147.5,395.176A153.389,153.389,0,0,0,170.414,385c10.234-5.786,22.328-11.716,36.355-8.814,4.93,1.02,8.357,3.547,9.167,6.759.732,2.9-.77,6.1-4.232,9.007-11.757,9.862-27.589,11.672-42.8,12.682-5.494.365-11.24.993-17.127,1.863A18.783,18.783,0,0,1,147.5,395.176Z" transform="translate(-87.043 -221.56)" fill="#a64c27"/>
            <path id="Trazado_1176784" data-name="Trazado 1176784" d="M178.578,433.5a6.508,6.508,0,0,0,2.076-3.987c.288-2.728-1.58-4.547-3.606-6.022a15.787,15.787,0,0,0-8.182-3.245c-4.627-.315-7.522-1.879-11.878-2.729-2.425-.473-4.82.319-6.976,1.23-2.537,1.072-5.3,2.888-4.939,5.5a6.268,6.268,0,0,0,2.2,3.448c4.823,4.482,9.185,3.007,14.917,5.5,4.98,2.165,10.74,4.554,15.735.854A7.476,7.476,0,0,0,178.578,433.5Z" transform="translate(-85.815 -242.537)" fill="#73645b"/>
            <path id="Trazado_1176785" data-name="Trazado 1176785" d="M184.317,444.988c-2.638,2.309-6.2,2.567-9.515,1.88-3.8-.788-7.216-2.781-10.965-3.742a16.523,16.523,0,0,0-3.625-.485c-1.359-.062-2.721-.094-4.074-.251q-.271-.031-.539-.073c3.7,1.878,7.363,1.387,11.87,3.347,4.98,2.165,10.74,4.554,15.735.854a7.274,7.274,0,0,0,.652-.545,6.974,6.974,0,0,0,1.545-2.127A9.128,9.128,0,0,1,184.317,444.988Z" transform="translate(-91.095 -255.013)" fill="#fff"/>
            <path id="Trazado_1176786" data-name="Trazado 1176786" d="M100.311,393.93c-9.581-4.11-19.086-8.444-27.815-14.191-11.023-7.257-22.234-13.155-35.757-11.359-9.076,1.205-13.505,7.751-5.909,15.039,11.148,10.7,27.225,13.624,41.988,15.657,7.144.984,14.234,2.362,21.252,4.036,3.685.879,7.2,2.543,10.989,2.963,2.395.265,8.109-.06,7.927-3.515-.22-4.183-9.277-7.174-12.469-8.542Z" transform="translate(-26.758 -217.874)" fill="#ffbaa6"/>
            <path id="Trazado_1176787" data-name="Trazado 1176787" d="M182.292,428.392c-.2-3.76-6.994-6.471-11.055-8.092-.414-.165-.794-.317-1.13-.455l-.289-.12.011.313c.087,2.333-.964,4.948-3.125,7.774-.431.564-.89,1.119-1.364,1.652l-.208.234.3.092c.633.2,1.265.4,1.9.608a34.348,34.348,0,0,0,6.814,1.72,13.349,13.349,0,0,0,1.448.075c2.007,0,4.537-.393,5.825-1.609A2.7,2.7,0,0,0,182.292,428.392Z" transform="translate(-95.863 -243.715)" fill="#4a4a4a"/>
            <path id="Trazado_1176788" data-name="Trazado 1176788" d="M26.854,374.076c1.031-3.148,4.642-5.426,9.66-6.093,14.273-1.895,26.012,4.886,35.894,11.391a134.244,134.244,0,0,0,15.406,8.6,23.4,23.4,0,0,1-4.207,12.938c-3.751-.723-7.434-1.337-11.015-1.83-15.2-2.093-30.968-5.03-42.1-15.711C27.214,380.223,25.922,376.923,26.854,374.076Z" transform="translate(-26.559 -217.676)" fill="#a64c27"/>
            <path id="Trazado_1176789" data-name="Trazado 1176789" d="M164.443,233.622c-1.738-2.954-5.274-8.218-4.511-11.8a5.105,5.105,0,0,1,2.266-3.1,9.3,9.3,0,0,1,3.694-1.293c5.816-.9,10.745,1.784,15.249,5.143,7.459,5.564,15.035,13.129,23.407,18.228.555-1.172,1.119-2.251,1.478-3.06,3.16-7.123,7.133-14.186,8.169-21.954l.976.158c1.8.292,3.611.564,5.418.837.625.095,1.249.192,1.875.284-.168,1.735-.079,3.536-.145,5.221a112.459,112.459,0,0,1-2.3,18.633q-.975,4.659-2.343,9.223c-1.3,4.329-2.6,10.04-6.814,12.476-4.943,2.859-11.013-.057-15.653-2.145C182.865,254.909,171.341,245.349,164.443,233.622Z" transform="translate(-93.208 -141.716)" fill="#ffbaa6"/>
            <path id="Trazado_1176790" data-name="Trazado 1176790" d="M213.967,226.658q-1.25-.43-2.494-.88c-1.12,2.982-2.479,5.892-3.817,8.751-.672,1.437-1.367,2.923-2.016,4.385-.2.456-.477,1.013-.768,1.6-.2.4-.4.816-.611,1.251a125.734,125.734,0,0,1-14.654-11.175c-2.944-2.479-5.725-4.822-8.546-6.926-4.152-3.1-9.229-6.135-15.4-5.181a9.4,9.4,0,0,0-3.774,1.323,5.3,5.3,0,0,0-2.353,3.232c-.695,3.269,2.073,7.859,3.906,10.9.226.374.438.727.629,1.051,6.627,11.268,17.875,21.082,30.859,26.925l.47.212c4.188,1.891,9.293,4.2,13.81,2.636a8.9,8.9,0,0,0,1.557-.711c3.89-2.25,5.36-7.3,6.542-11.353.123-.423.244-.838.365-1.24.908-3.028,1.7-6.137,2.347-9.239a112.769,112.769,0,0,0,1.924-12.952C219.277,228.419,216.612,227.568,213.967,226.658Z" transform="translate(-93.008 -142.982)" fill="#a2ba32"/>
            <g id="Grupo_1232975" data-name="Grupo 1232975" transform="translate(117.656 53.747)">
              <path id="Trazado_1176791" data-name="Trazado 1176791" d="M274.643,186.149a7.269,7.269,0,0,0-.7-1.308,2.083,2.083,0,0,0-.886-.851,1,1,0,0,0-1.125.348c0,.005-.008.011-.012.016a3.692,3.692,0,0,0-1.754-1.449c-.657-.227-1.167.316-1.513.8.28-.394-.118-1-.476-1.13a1.793,1.793,0,0,0-1.359.145,30.033,30.033,0,0,0,.494-4.99,12.427,12.427,0,0,0-.024-1.438,1.3,1.3,0,0,0-.537-1.018c-.853-.533-1.454.635-1.745,1.258a16.215,16.215,0,0,0-.877,2.679c-.26.965-.515,1.931-.721,2.909a19.684,19.684,0,0,0-.433,3.277,13.808,13.808,0,0,1-.191,2.918,8.569,8.569,0,0,0-.7,1.314c-.447,1.056.18,1.829.705,2.726l2.055,3.516a2.214,2.214,0,0,0,.711.924,4.279,4.279,0,0,0,1.253.29l2.821.519,3.266.6a.2.2,0,0,0,.192-.066,9.855,9.855,0,0,0,1.686-5.131,6.857,6.857,0,0,0-.018-1.047,8.6,8.6,0,0,0,.484-2.875A7.912,7.912,0,0,0,274.643,186.149Z" transform="translate(-261.928 -175.14)" fill="#ffbaa6"/>
              <path id="Trazado_1176792" data-name="Trazado 1176792" d="M275.841,199.007a1.623,1.623,0,0,1-1.492-.524,2.292,2.292,0,0,1-.458-.7.2.2,0,0,0-.016-.039,4.577,4.577,0,0,1-.284-1.1,18.2,18.2,0,0,1-.068-4.186c.023-.256-.372-.337-.4-.079a21.172,21.172,0,0,0-.081,2.415,12.6,12.6,0,0,0,.233,2.385,4.282,4.282,0,0,0,.2.65,1.361,1.361,0,0,1-1.82.66,2.558,2.558,0,0,1-1.092-2.077c.092-.037.185-.073.276-.114a6.319,6.319,0,0,0,1.376-.845,1.709,1.709,0,0,0,.7-1.053c.123-1.079-1.483-1.136-2.2-1.2-.182-.016-.365-.022-.548-.03a3.4,3.4,0,0,1,.126-1.687.2.2,0,0,0-.158-.237.207.207,0,0,0-.237.158,3.651,3.651,0,0,0-.137,1.753,11.5,11.5,0,0,0-1.584.1,6.24,6.24,0,0,1,.1-2.707c.066-.251-.33-.328-.4-.079a6.646,6.646,0,0,0-.1,2.845c-.12.02-.24.038-.359.063a3.349,3.349,0,0,0-2.6,1.578c-.107.236.255.413.362.176a2.645,2.645,0,0,1,1.911-1.272c.293-.074.591-.128.891-.175a.2.2,0,0,0,.085-.007c.005,0,.008,0,.012-.007a11.106,11.106,0,0,1,1.8-.116,10.732,10.732,0,0,1,1.453.126c.34.052.928.081,1.12.422.208.37-.217.8-.478,1.016a5.849,5.849,0,0,1-1.161.741c-.157.076-.318.142-.481.2a.2.2,0,0,0-.179.066,6.126,6.126,0,0,1-2.444.333c-.256-.018-.337.377-.079.4.166.011.333.015.5.015a.172.172,0,0,0,.1.045,2.429,2.429,0,0,1,2.024,2.609,4.8,4.8,0,0,1-1.986,3.384c-.2.163.028.5.228.332a5.18,5.18,0,0,0,2.161-3.825,2.967,2.967,0,0,0-1.487-2.629,6.5,6.5,0,0,0,1-.242,2.785,2.785,0,0,0,1.388,2.34,1.776,1.776,0,0,0,2.121-.622,2.465,2.465,0,0,0,.611.716,1.956,1.956,0,0,0,1.667.4C276.225,199.328,276.091,198.948,275.841,199.007Z" transform="translate(-263.372 -182.73)" fill="#320032" opacity="0.4"/>
            </g>
            <path id="Trazado_1176793" data-name="Trazado 1176793" d="M154.744,392.609q8.665-3.565,16.946-7.976c5.248-2.792,10.457-5.8,16.191-7.5a60.4,60.4,0,0,1,7.133-1.568.131.131,0,0,1,.02-.027l1.927-1.534a.208.208,0,0,1,.285,0,.2.2,0,0,1,0,.285l-1.437,1.143q1.163-.19,2.327-.369c.253-.039.363.348.107.388a87.584,87.584,0,0,0-9.229,1.78,49.041,49.041,0,0,0-8.389,3.192c-2.684,1.281-5.291,2.714-7.912,4.119q-4.115,2.205-8.325,4.224-4.709,2.246-9.537,4.229C154.612,393.1,154.508,392.707,154.744,392.609Z" transform="translate(-90.6 -220.821)" fill="#320032" opacity="0.4"/>
            <path id="Trazado_1176794" data-name="Trazado 1176794" d="M106.377,386.752q-2.347-1.606-4.745-3.136-4.256-2.714-8.664-5.18-2.783-1.564-5.63-3.011c-.934-.478-1.876-.94-2.8-1.442-.9-.491-1.788-1-2.7-1.479a56.5,56.5,0,0,0-5.683-2.623c-.593-.229-1.192-.44-1.787-.664s-1.172-.489-1.768-.709q-1.476-.547-2.988-.99-.619-.181-1.244-.345a8.381,8.381,0,0,0-2.034-1.408.2.2,0,0,0-.2.348,8.066,8.066,0,0,1,1.356.844c-1.129-.271-2.267-.5-3.416-.687-.254-.04-.362.348-.107.388q2.138.341,4.236.886a.17.17,0,0,0,.043.01,11.653,11.653,0,0,1,1.475.411q.748.223,1.489.471,1.481.5,2.925,1.1c.674.28,1.356.544,2.038.806.667.256,1.314.544,1.971.826q1.453.649,2.874,1.367c.529.269,1.054.547,1.576.83,1.37.741,2.72,1.5,4.117,2.188.733.361,1.446.762,2.177,1.128q4.467,2.352,8.792,4.96t8.49,5.459C106.388,387.247,106.59,386.9,106.377,386.752Z" transform="translate(-45.196 -216.716)" fill="#320032" opacity="0.4"/>
            <path id="Trazado_1176795" data-name="Trazado 1176795" d="M136.9,187.131c5.028,2.012,10.765,1.763,16.265.243a152.653,152.653,0,0,1,.983,18.8c-.03,3.656-.437,7.622-2.544,10.241-2.2,2.735-5.759,3.257-8.83,2.39a9.462,9.462,0,0,1-6.276-5.286,16.961,16.961,0,0,1-.947-6.638q.008-1.4.056-2.807C135.8,198.419,136.377,192.768,136.9,187.131Z" transform="translate(-81.067 -127.389)" fill="#ffbaa6"/>
            <path id="Trazado_1176796" data-name="Trazado 1176796" d="M154.051,210.46a32.475,32.475,0,0,0,.285-4.287,152.744,152.744,0,0,0-.983-18.8c-5.5,1.519-11.237,1.768-16.265-.244-.442,4.76-.91,9.531-1.164,14.3Q144.928,206.066,154.051,210.46Z" transform="translate(-81.255 -127.389)" fill="#320032" opacity="0.4"/>
            <path id="Trazado_1176797" data-name="Trazado 1176797" d="M182.671,221.292q-.043-1.06-.1-2.121a.18.18,0,0,1,.192-.165c2.374.218,4.878.662,6.792,2.189a6.569,6.569,0,0,1,1.9,2.358,6.136,6.136,0,0,1,.416,3.327c0,.018-.005.037-.008.055-.029.543-.09,1.087-.143,1.628q-.1,1.037-.224,2.072-.255,2.156-.6,4.3a103.2,103.2,0,0,1-4.1,16.548c-.44,1.3-.9,2.605-1.444,3.87-.271.629-.565,1.248-.886,1.853a8.059,8.059,0,0,1-.964,1.537,1.856,1.856,0,0,1-1.262.734,1.213,1.213,0,0,1-1.047-.528c-.57-.828-.331-1.974-.2-2.893q1.193-8.631,1.613-17.345T182.671,221.292Z" transform="translate(-103.715 -143.331)" fill="#a64c27"/>
            <path id="Trazado_1176798" data-name="Trazado 1176798" d="M203.013,147.3c.068-.286.145-.571.232-.853a10.252,10.252,0,0,1,3.91-5.539c6.412-4.3,13.137,2.933,11.114,9.5a9.073,9.073,0,0,1-8.7,6.213,7.165,7.165,0,0,1-5.98-3.3A8.3,8.3,0,0,1,203.013,147.3Z" transform="translate(-114.658 -103.623)" fill="#ffbaa6"/>
            <path id="Trazado_1176799" data-name="Trazado 1176799" d="M208.152,149.495c-1.158-.755-2.31-1.519-3.465-2.279a11.59,11.59,0,0,0-1.442,3.033c-.087.282-.165.567-.232.853a8.3,8.3,0,0,0,.576,6.021,7.165,7.165,0,0,0,5.98,3.3,9.118,9.118,0,0,0,8.1-4.777Q212.9,152.58,208.152,149.495Z" transform="translate(-114.658 -107.427)" fill="#320032" opacity="0.4"/>
            <path id="Trazado_1176800" data-name="Trazado 1176800" d="M94.713,147.3c-.067-.286-.145-.571-.232-.853a10.252,10.252,0,0,0-3.91-5.539c-6.412-4.3-13.137,2.933-11.114,9.5a9.073,9.073,0,0,0,8.7,6.213,7.165,7.165,0,0,0,5.98-3.3A8.3,8.3,0,0,0,94.713,147.3Z" transform="translate(-52.831 -103.623)" fill="#ffbaa6"/>
            <path id="Trazado_1176801" data-name="Trazado 1176801" d="M90.546,149.495c1.158-.755,2.31-1.519,3.465-2.279a11.591,11.591,0,0,1,1.442,3.033c.087.282.165.567.232.853a8.3,8.3,0,0,1-.576,6.021,7.165,7.165,0,0,1-5.98,3.3,9.118,9.118,0,0,1-8.1-4.777Q85.8,152.58,90.546,149.495Z" transform="translate(-53.803 -107.427)" fill="#320032" opacity="0.4"/>
            <path id="Trazado_1176802" data-name="Trazado 1176802" d="M156.065,128.545a42.032,42.032,0,0,0-1.945-12.2,30.485,30.485,0,0,0-1.243-3.168,24.67,24.67,0,0,0-7.161-9.026,148.891,148.891,0,0,0-22.457,2.312,153.241,153.241,0,0,0-20.087,4.84,34.745,34.745,0,0,0-3.715,13.978q-.028.514-.049,1.033c-.4,9.916,1.387,20.7,9.042,27.247,5.2,4.45,12.437,6.226,19.389,6.011,9.558-.3,19.368-4.567,24.242-12.491,3.143-5.109,4.011-11.234,4-17.173Q156.081,129.228,156.065,128.545Z" transform="translate(-62.967 -85.891)" fill="#ffbaa6"/>
            <ellipse id="Elipse_14273" data-name="Elipse 14273" cx="7.855" cy="4.961" rx="7.855" ry="4.961" transform="translate(71.943 49.63)" fill="#320032" opacity="0.4"/>
            <ellipse id="Elipse_14274" data-name="Elipse 14274" cx="7.855" cy="4.961" rx="7.855" ry="4.961" transform="translate(42.177 49.63)" fill="#320032" opacity="0.4"/>
            <path id="Trazado_1176803" data-name="Trazado 1176803" d="M151.518,161.928c.153-.217.487.027.333.245a.79.79,0,0,0,1.2,1.015.278.278,0,0,1,.023-.019.2.2,0,0,1,.026-.021.234.234,0,0,1,.032-.018.166.166,0,0,1,.027-.01.189.189,0,0,1,.18.024.172.172,0,0,1,.022.025,1.806,1.806,0,0,0,2.064-.3,1.615,1.615,0,0,0,.127-2.141,1.678,1.678,0,0,0-1.094-.7.213.213,0,0,1-.3-.18q-.065-1.416-.023-2.833c.008-.265.421-.266.413,0-.026.874-.018,1.749.017,2.622a2.231,2.231,0,0,1,1.749,1.995,2.044,2.044,0,0,1-1.634,2.091,2.111,2.111,0,0,1-1.441-.158,1.257,1.257,0,0,1-1.158.2,1.172,1.172,0,0,1-.78-1.054A1.219,1.219,0,0,1,151.518,161.928Z" transform="translate(-88.946 -112.228)" fill="#4a4a4a"/>
            <g id="Grupo_1232976" data-name="Grupo 1232976" transform="translate(67.714 101.564)">
              <path id="Trazado_1176804" data-name="Trazado 1176804" d="M176.862,293.772l.741-18.58a3.973,3.973,0,0,0-3.8-4.116l-6.921-.276a3.973,3.973,0,0,0-4.116,3.8l-.741,18.58a3.973,3.973,0,0,0,3.8,4.116l6.921.276A3.974,3.974,0,0,0,176.862,293.772Z" transform="translate(-162.02 -270.797)" fill="#00bcc0"/>
              <path id="Trazado_1176805" data-name="Trazado 1176805" d="M181.913,279.224a2.325,2.325,0,1,0-2.23-2.415A2.325,2.325,0,0,0,181.913,279.224Z" transform="translate(-170.853 -272.687)" fill="#fff"/>
              <path id="Trazado_1176806" data-name="Trazado 1176806" d="M172.547,278.8a1.085,1.085,0,1,0-1.041-1.127A1.085,1.085,0,0,0,172.547,278.8Z" transform="translate(-166.764 -273.715)" fill="#fff"/>
              <path id="Trazado_1176807" data-name="Trazado 1176807" d="M183.2,279.226a1.085,1.085,0,1,0-1.041-1.127A1.085,1.085,0,0,0,183.2,279.226Z" transform="translate(-172.093 -273.928)" fill="#4a4a4a"/>
            </g>
            <path id="Trazado_1176808" data-name="Trazado 1176808" d="M122.9,276.131a38.639,38.639,0,0,0-3.521-5.274c-1.21,1.234-6.752,3.568-7.65,3.992a77.787,77.787,0,0,1-10.1,3.6,262.875,262.875,0,0,0,2.074-27.142c.167-5.616-.464-11.193-4.538-15.44a9.3,9.3,0,0,0-3.178-2.284,5.106,5.106,0,0,0-3.843-.074c-3.374,1.433-5.656,7.35-7.079,10.468-5.647,12.378-6.863,27.3-4.329,40.6A36.75,36.75,0,0,0,83.3,292.9c1.341,2.954,3.23,8.955,7.44,7.63.085-.026.168-.059.253-.087a42.289,42.289,0,0,0,8.516-3.918q4.186-2.264,8.17-4.877a100.212,100.212,0,0,0,9.25-7.37c2.354-1.986,4.841-3.8,7.276-5.681C123.778,277.773,123.353,276.945,122.9,276.131Z" transform="translate(-53.024 -150.413)" fill="#ffbaa6"/>
            <path id="Trazado_1176809" data-name="Trazado 1176809" d="M116,284.754c-.192-.38-.383-.762-.57-1.146h0c-.43-.885-.852-1.776-1.273-2.665l-.624-1.314c-.58-1.218-1.176-2.532-1.82-4.017-.126-.291-.249-.581-.369-.874l-.079-.194-.191.088a70.574,70.574,0,0,1-8.477,3.041l-.934.291a261.555,261.555,0,0,0,2.033-26.85c.154-5.178-.272-11.079-4.594-15.586a9.4,9.4,0,0,0-3.249-2.331,5.3,5.3,0,0,0-4-.072c-3.077,1.307-5.248,6.209-6.684,9.454-.177.4-.343.774-.5,1.116-5.426,11.894-7.009,26.736-4.344,40.723a37.117,37.117,0,0,0,2.578,8.372c.16.354.329.752.508,1.175,1.167,2.755,2.864,6.761,5.951,6.761a4.061,4.061,0,0,0,1.225-.2c.055-.018.109-.037.164-.056l.082-.029a37.575,37.575,0,0,0,7.722-3.481l.836-.454c2.78-1.5,5.533-3.147,8.185-4.886a78.294,78.294,0,0,0,7.647-6l.846-.722Z" transform="translate(-52.817 -150.213)" fill="#a2ba32"/>
            <path id="Trazado_1176810" data-name="Trazado 1176810" d="M101.181,308.9a67.72,67.72,0,0,1,8.689-4.07.2.2,0,0,1-.009-.192,48.4,48.4,0,0,0,3.826-13.8c.206-1.328.392-2.66.578-3.991.035-.256.424-.147.388.107a75.184,75.184,0,0,1-2.9,14.136,33.864,33.864,0,0,1-1.461,3.581,67.272,67.272,0,0,1,6.978-2.222q2.353-.607,4.745-1.043c.253-.046.362.342.107.388a67.224,67.224,0,0,0-16.412,5.237q-2.2,1.03-4.322,2.218A.2.2,0,0,1,101.181,308.9Z" transform="translate(-63.83 -177.183)" fill="#320032" opacity="0.4"/>
            <path id="Trazado_1176811" data-name="Trazado 1176811" d="M173.249,299.4c-.679-.745-3.03-1.089-4.928-1.146-.3-.064-.6-.12-.9-.157.333-.123.666-.249.995-.382.49-.2.973-.41,1.453-.628a8.562,8.562,0,0,0,2.849-1.459c.705-.684.086-1.378-.848-1.366q-.382,0-.761.022a21.917,21.917,0,0,0-3.932.539c2.222-1.648,4.564-3.65,3.738-4.242-.934-.669-4.634,1.015-7.221,2.338a26.632,26.632,0,0,0,1.756-2.33c.527-.677,1.059-1.359,1.527-2.086.645-1-.2-1.64-1.151-1.362a9.135,9.135,0,0,0-2.262,1.326,23.41,23.41,0,0,0-5.571,4.943,10.915,10.915,0,0,1-1.523,1.641c.018-.355.039-.709.046-1.064q.016-.774,0-1.548c-.009-.354.063-.9-.205-1.181s-.656-.094-.917.109a7.555,7.555,0,0,0-2.727,7.322,4.52,4.52,0,0,0,.691,1.739,22.762,22.762,0,0,0-3.2.8c1.886,2.163,3.9,4.2,5.977,6.173,1.2-1.119,2.009-1.909,2.282-2.177.125-.123,1.061.336,1.287.371a2.83,2.83,0,0,0,1.389-.159,7.261,7.261,0,0,0,2.457-1.632,16.043,16.043,0,0,0,1.572-2.021q.174-.207.341-.421a4.346,4.346,0,0,1,.7-.653,1.623,1.623,0,0,1,.293-.017C167.508,300.7,174.842,301.149,173.249,299.4Z" transform="translate(-88.37 -177.376)" fill="#ffbaa6"/>
            <path id="Trazado_1176812" data-name="Trazado 1176812" d="M120.778,221.292q.044-1.06.1-2.121a.18.18,0,0,0-.192-.165c-2.374.218-4.878.662-6.792,2.189a6.569,6.569,0,0,0-1.9,2.358,6.136,6.136,0,0,0-.416,3.327c0,.018.006.037.007.055.028.543.09,1.087.143,1.628q.1,1.037.224,2.072.255,2.156.6,4.3a103.2,103.2,0,0,0,4.1,16.548c.44,1.3.9,2.605,1.444,3.87.271.629.565,1.248.886,1.853a8.059,8.059,0,0,0,.964,1.537,1.856,1.856,0,0,0,1.262.734,1.213,1.213,0,0,0,1.047-.528c.57-.828.331-1.974.2-2.893q-1.193-8.631-1.613-17.345T120.778,221.292Z" transform="translate(-69.047 -143.331)" fill="#a64c27"/>
            <path id="Trazado_1176813" data-name="Trazado 1176813" d="M152.909,112.373a24.676,24.676,0,0,0-7.161-9.026,148.829,148.829,0,0,0-22.457,2.313A153.239,153.239,0,0,0,103.2,110.5a34.737,34.737,0,0,0-3.715,13.978q-.028.514-.049,1.033c-.008.208-.014.417-.02.625a4.971,4.971,0,0,0,3.738.012,5.28,5.28,0,0,0,2.6-4.021c.378-2.051.034-4.2.692-6.2a6.6,6.6,0,0,1,3.141-3.633,11.259,11.259,0,0,1,4.741-1.328,24.05,24.05,0,0,1,6.237.651,39.751,39.751,0,0,0,6.625.985c.384.01.772,0,1.16-.02-.111.027-.223.054-.335.079-2.988.652-6.074.284-9.1.282a22.968,22.968,0,0,0-4.787.45,18.954,18.954,0,0,0-2.268.626,6.619,6.619,0,0,0-1.8.885c-1.028.762-1.812,2.318-1,3.518a1.722,1.722,0,0,0,2.763.135c.145-.216-.2-.418-.348-.2a1.154,1.154,0,0,1-1.266.391,1.371,1.371,0,0,1-1.028-1.06c-.3-1.34.825-2.407,1.918-2.929a15.2,15.2,0,0,1,4.17-1.164,26.865,26.865,0,0,1,4.726-.232c2.832.06,5.71.288,8.49-.394a12.523,12.523,0,0,0,2.227-.774,7.018,7.018,0,0,0,2.154-1.039,8.068,8.068,0,0,0,2.812-4.083,10.981,10.981,0,0,0,1.048,3.016,8.767,8.767,0,0,1,1.082,3.233,3.383,3.383,0,0,1-1.341,2.888,3.333,3.333,0,0,1-3.718.117c-.221-.137-.423.211-.2.348a3.689,3.689,0,0,0,5.542-2.162c.418-1.544-.211-2.962-.878-4.362.118.187.237.374.365.555A13.017,13.017,0,0,0,143,115.137a13.277,13.277,0,0,0,3.483.91,6.534,6.534,0,0,1,3.623,1.2c.924.839,1.216,2.123,1.942,3.106a3.354,3.354,0,0,0,2.99,1.364,4.481,4.481,0,0,0,.55-.074,36.734,36.734,0,0,0-1.432-6.1A30.347,30.347,0,0,0,152.909,112.373Z" transform="translate(-62.998 -85.487)" fill="#ff6242"/>
            <path id="Trazado_1176814" data-name="Trazado 1176814" d="M149.132,161.21v.058a.2.2,0,0,1-.4,0v-.058A.2.2,0,0,1,149.132,161.21Z" transform="translate(-87.659 -114.328)" fill="#ff6242"/>
            <path id="Trazado_1176815" data-name="Trazado 1176815" d="M144.979,161.21v.058a.2.2,0,0,1-.4,0v-.058A.2.2,0,0,1,144.979,161.21Z" transform="translate(-85.582 -114.328)" fill="#ff6242"/>
            <path id="Trazado_1176816" data-name="Trazado 1176816" d="M143.367,162.822v.058a.2.2,0,0,1-.4,0v-.058A.2.2,0,0,1,143.367,162.822Z" transform="translate(-84.776 -115.134)" fill="#ff6242"/>
            <path id="Trazado_1176817" data-name="Trazado 1176817" d="M141.754,162.016v.058a.2.2,0,0,1-.4,0v-.058A.2.2,0,0,1,141.754,162.016Z" transform="translate(-83.969 -114.731)" fill="#ff6242"/>
            <path id="Trazado_1176818" data-name="Trazado 1176818" d="M141.754,164.434v.058a.2.2,0,0,1-.4,0v-.058A.2.2,0,0,1,141.754,164.434Z" transform="translate(-83.969 -115.941)" fill="#ff6242"/>
            <path id="Trazado_1176819" data-name="Trazado 1176819" d="M146.591,159.6v.058a.2.2,0,0,1-.4,0V159.6A.2.2,0,0,1,146.591,159.6Z" transform="translate(-86.388 -113.522)" fill="#ff6242"/>
            <path id="Trazado_1176820" data-name="Trazado 1176820" d="M145.785,163.628v.058a.2.2,0,0,1-.4,0v-.058A.2.2,0,0,1,145.785,163.628Z" transform="translate(-85.985 -115.538)" fill="#ff6242"/>
            <path id="Trazado_1176821" data-name="Trazado 1176821" d="M146.591,166.046v.058a.2.2,0,0,1-.4,0v-.058A.2.2,0,0,1,146.591,166.046Z" transform="translate(-86.388 -116.747)" fill="#ff6242"/>
            <path id="Trazado_1176822" data-name="Trazado 1176822" d="M148.2,163.628v.058a.2.2,0,0,1-.4,0v-.058A.2.2,0,0,1,148.2,163.628Z" transform="translate(-87.194 -115.538)" fill="#ff6242"/>
            <path id="Trazado_1176823" data-name="Trazado 1176823" d="M150.621,163.628v.058a.2.2,0,0,1-.4,0v-.058A.2.2,0,0,1,150.621,163.628Z" transform="translate(-88.403 -115.538)" fill="#ff6242"/>
            <path id="Trazado_1176824" data-name="Trazado 1176824" d="M165.41,161.21v.058a.2.2,0,0,0,.4,0v-.058A.2.2,0,0,0,165.41,161.21Z" transform="translate(-96.001 -114.328)" fill="#ff6242"/>
            <path id="Trazado_1176825" data-name="Trazado 1176825" d="M169.563,161.21v.058a.2.2,0,0,0,.4,0v-.058A.2.2,0,0,0,169.563,161.21Z" transform="translate(-98.078 -114.328)" fill="#ff6242"/>
            <path id="Trazado_1176826" data-name="Trazado 1176826" d="M171.175,162.822v.058a.2.2,0,0,0,.4,0v-.058A.2.2,0,0,0,171.175,162.822Z" transform="translate(-98.885 -115.134)" fill="#ff6242"/>
            <path id="Trazado_1176827" data-name="Trazado 1176827" d="M172.788,162.016v.058a.2.2,0,0,0,.4,0v-.058A.2.2,0,0,0,172.788,162.016Z" transform="translate(-99.691 -114.731)" fill="#ff6242"/>
            <path id="Trazado_1176828" data-name="Trazado 1176828" d="M172.788,164.434v.058a.2.2,0,0,0,.4,0v-.058A.2.2,0,0,0,172.788,164.434Z" transform="translate(-99.691 -115.941)" fill="#ff6242"/>
            <path id="Trazado_1176829" data-name="Trazado 1176829" d="M167.951,159.6v.058a.2.2,0,0,0,.4,0V159.6A.2.2,0,0,0,167.951,159.6Z" transform="translate(-97.272 -113.522)" fill="#ff6242"/>
            <path id="Trazado_1176830" data-name="Trazado 1176830" d="M168.757,163.628v.058a.2.2,0,0,0,.4,0v-.058A.2.2,0,0,0,168.757,163.628Z" transform="translate(-97.675 -115.538)" fill="#ff6242"/>
            <path id="Trazado_1176831" data-name="Trazado 1176831" d="M167.951,166.046v.058a.2.2,0,0,0,.4,0v-.058A.2.2,0,0,0,167.951,166.046Z" transform="translate(-97.272 -116.747)" fill="#ff6242"/>
            <path id="Trazado_1176832" data-name="Trazado 1176832" d="M166.339,163.628v.058a.2.2,0,0,0,.4,0v-.058A.2.2,0,0,0,166.339,163.628Z" transform="translate(-96.466 -115.538)" fill="#ff6242"/>
            <path id="Trazado_1176833" data-name="Trazado 1176833" d="M163.921,163.628v.058a.2.2,0,0,0,.4,0v-.058A.2.2,0,0,0,163.921,163.628Z" transform="translate(-95.257 -115.538)" fill="#ff6242"/>
            <path id="Trazado_1176834" data-name="Trazado 1176834" d="M128.258,156.066a7.825,7.825,0,0,0-.93.056,2.69,2.69,0,0,1-.134-.846,1.817,1.817,0,1,1,3.546,0,2.649,2.649,0,0,1-.2,1.026A11.191,11.191,0,0,0,128.258,156.066Z" transform="translate(-76.889 -110.35)" fill="#4a4a4a"/>
            <path id="Trazado_1176835" data-name="Trazado 1176835" d="M181.11,148.115a3.4,3.4,0,0,0-5.773-2.033c-.185.18.081.482.267.3a3,3,0,0,1,5.112,1.816C180.747,148.457,181.141,148.371,181.11,148.115Z" transform="translate(-100.935 -106.371)" fill="#4a4a4a"/>
            <path id="Trazado_1176836" data-name="Trazado 1176836" d="M124.494,148.115a3.4,3.4,0,0,1,5.773-2.033c.186.18-.081.482-.267.3a3,3,0,0,0-5.112,1.816C124.858,148.457,124.464,148.371,124.494,148.115Z" transform="translate(-75.538 -106.371)" fill="#4a4a4a"/>
            <path id="Trazado_1176837" data-name="Trazado 1176837" d="M149.774,175.491a.383.383,0,0,1,.082-.007l5.525.014c.392,0,.516.157.321.893-.582,2.2-1.82,3.647-3.071,3.6s-2.458-1.6-3-3.84a.993.993,0,0,1-.024-.5A.211.211,0,0,1,149.774,175.491Z" transform="translate(-88.088 -121.564)" fill="#f0626e"/>
            <path id="Trazado_1176838" data-name="Trazado 1176838" d="M157.617,175.656l-.024.252a2.143,2.143,0,0,1-.023.214.488.488,0,0,1-.143.289.381.381,0,0,1-.214.064l-.653.069c-.081.009-.178-.107-.194-.241a5.261,5.261,0,0,1-.025-.807l1.273,0A.739.739,0,0,1,157.617,175.656Z" transform="translate(-91.463 -121.571)" fill="#fff"/>
            <path id="Trazado_1176839" data-name="Trazado 1176839" d="M153.657,175.493v.014c0,.009,0,.008,0,.012l0,.039q-.008.111-.013.223-.01.223-.009.448c0,.17-.093.337-.2.328l-.432-.037c-.15-.012-.333.016-.458-.142a.7.7,0,0,1-.124-.365c-.014-.132-.025-.265-.031-.4,0-.041,0-.083,0-.124Z" transform="translate(-89.485 -121.568)" fill="#fff"/>
            <path id="Trazado_1176840" data-name="Trazado 1176840" d="M117.549,154.816l3.555,1.824c.231.118.027.466-.2.348l-3.555-1.824C117.115,155.045,117.319,154.7,117.549,154.816Z" transform="translate(-71.913 -111.216)" fill="#4a4a4a"/>
            <path id="Trazado_1176841" data-name="Trazado 1176841" d="M118.048,160.841l3.061-.557c.253-.046.362.342.107.388l-3.062.557C117.9,161.275,117.793,160.887,118.048,160.841Z" transform="translate(-72.242 -113.96)" fill="#4a4a4a"/>
            <path id="Trazado_1176842" data-name="Trazado 1176842" d="M180.18,156.066a7.824,7.824,0,0,1,.93.056,2.69,2.69,0,0,0,.134-.846,1.817,1.817,0,1,0-3.546,0,2.649,2.649,0,0,0,.2,1.026A11.2,11.2,0,0,1,180.18,156.066Z" transform="translate(-102.147 -110.35)" fill="#4a4a4a"/>
            <path id="Trazado_1176843" data-name="Trazado 1176843" d="M190.474,154.816l-3.555,1.824c-.231.118-.027.466.2.348l3.555-1.824C190.908,155.045,190.7,154.7,190.474,154.816Z" transform="translate(-106.707 -111.216)" fill="#4a4a4a"/>
            <path id="Trazado_1176844" data-name="Trazado 1176844" d="M190.477,160.841l-3.061-.557c-.253-.046-.362.342-.107.388l3.062.557C190.624,161.275,190.732,160.887,190.477,160.841Z" transform="translate(-106.881 -113.96)" fill="#4a4a4a"/>
            <path id="Trazado_1176845" data-name="Trazado 1176845" d="M177.732,425.316c-.02-.257-.423-.259-.4,0a8.8,8.8,0,0,1-2.593,6.92c-.186.182.1.461.285.285l.306-.284a.187.187,0,0,0,.053-.09A9.2,9.2,0,0,0,177.732,425.316Z" transform="translate(-100.635 -246.414)" fill="#fff"/>
            <path id="Trazado_1176846" data-name="Trazado 1176846" d="M184.761,428.122c-.051-.254-.439-.146-.388.107a6.7,6.7,0,0,1-1.469,5.613c-.168.2.116.482.285.285A7.134,7.134,0,0,0,184.761,428.122Z" transform="translate(-104.725 -247.842)" fill="#fff"/>
            <path id="Trazado_1176847" data-name="Trazado 1176847" d="M190.843,431.913a.2.2,0,0,0-.388.107,3.867,3.867,0,0,1-.767,3.473c-.167.2.117.483.285.285A4.287,4.287,0,0,0,190.843,431.913Z" transform="translate(-108.118 -249.739)" fill="#fff"/>
            <path id="Trazado_1176848" data-name="Trazado 1176848" d="M169.705,423.157c-.043-.026-.087-.049-.13-.073a12.217,12.217,0,0,0-1.652-.732c-2.039-.729-3.45,3.378-3.783,4.847a1.111,1.111,0,0,0-.007.654,1.122,1.122,0,0,0,.566.507,12.489,12.489,0,0,0,1.237.572,1.661,1.661,0,0,0,2.395-.78,11.948,11.948,0,0,0,1.746-3.863,1.118,1.118,0,0,0-.007-.791A.921.921,0,0,0,169.705,423.157Z" transform="translate(-95.339 -244.986)" fill="#ffd148"/>
            <path id="Trazado_1176849" data-name="Trazado 1176849" d="M220.593,280.811q-.03,2.206-.059,4.411a.851.851,0,0,0,1.7,0q.03-2.205.059-4.411a.851.851,0,0,0-1.7,0Z" transform="translate(-123.57 -173.815)" fill="#320032" opacity="0.4"/>
            <path id="Trazado_1176850" data-name="Trazado 1176850" d="M119.836,340.459q-.03,2.206-.059,4.411a.851.851,0,0,0,1.7,0q.03-2.205.06-4.411a.851.851,0,0,0-1.7,0Z" transform="translate(-73.179 -203.646)" fill="#320032" opacity="0.4"/>
            <path id="Trazado_1176851" data-name="Trazado 1176851" d="M169.006,338.847q-.03,2.206-.059,4.411a.851.851,0,1,0,1.7,0q.03-2.205.06-4.411a.851.851,0,0,0-1.7,0Z" transform="translate(-97.77 -202.84)" fill="#320032" opacity="0.4"/>
            <path id="Trazado_1176852" data-name="Trazado 1176852" d="M228.878,274.557q-.029,2.206-.059,4.411a.851.851,0,0,0,1.7,0q.03-2.205.059-4.411a.851.851,0,0,0-1.7,0Z" transform="translate(-127.714 -170.687)" fill="#320032" opacity="0.4"/>
            <path id="Trazado_1176853" data-name="Trazado 1176853" d="M104.745,250.375q-.029,2.206-.059,4.411a.851.851,0,0,0,1.7,0q.03-2.205.059-4.411a.851.851,0,0,0-1.7,0Z" transform="translate(-65.632 -158.593)" fill="#320032" opacity="0.4"/>
            <path id="Trazado_1176854" data-name="Trazado 1176854" d="M109.582,339.041q-.029,2.206-.059,4.411a.851.851,0,1,0,1.7,0q.03-2.205.059-4.411a.851.851,0,1,0-1.7,0Z" transform="translate(-68.051 -202.937)" fill="#320032" opacity="0.4"/>
            <path id="Trazado_1176855" data-name="Trazado 1176855" d="M265.151,264.884q-.029,2.206-.059,4.411a.851.851,0,0,0,1.7,0q.03-2.205.059-4.411a.851.851,0,0,0-1.7,0Z" transform="translate(-145.854 -165.85)" fill="#320032" opacity="0.4"/>
            <path id="Trazado_1176856" data-name="Trazado 1176856" d="M251.448,289.066q-.03,2.206-.059,4.411a.851.851,0,0,0,1.7,0q.03-2.205.059-4.411a.851.851,0,0,0-1.7,0Z" transform="translate(-139.001 -177.943)" fill="#320032" opacity="0.4"/>
            <path id="Trazado_1176857" data-name="Trazado 1176857" d="M90.236,310.023q-.03,2.206-.059,4.411a.851.851,0,0,0,1.7,0q.03-2.205.059-4.411a.851.851,0,0,0-1.7,0Z" transform="translate(-58.376 -188.425)" fill="#320032" opacity="0.4"/>
            <path id="Trazado_1176858" data-name="Trazado 1176858" d="M97.491,281.811q-.03,2.206-.059,4.411a.851.851,0,0,0,1.7,0q.03-2.205.059-4.411a.851.851,0,1,0-1.7,0Z" transform="translate(-62.004 -174.315)" fill="#320032" opacity="0.4"/>
            <path id="Trazado_1176859" data-name="Trazado 1176859" d="M208.727,244.732q-.03,2.206-.059,4.411a.851.851,0,0,0,1.7,0q.03-2.205.06-4.411a.851.851,0,1,0-1.7,0Z" transform="translate(-117.636 -155.771)" fill="#320032" opacity="0.4"/>
            <path id="Trazado_1176860" data-name="Trazado 1176860" d="M146.66,272.944q-.03,2.206-.059,4.411a.851.851,0,0,0,1.7,0q.03-2.205.06-4.411a.851.851,0,0,0-1.7,0Z" transform="translate(-86.594 -169.881)" fill="#320032" opacity="0.4"/>
            <path id="Trazado_1176861" data-name="Trazado 1176861" d="M216.95,257.017q-.03,2.206-.059,4.411a.851.851,0,0,0,1.7,0q.03-2.205.059-4.411a.851.851,0,0,0-1.7,0Z" transform="translate(-121.748 -161.915)" fill="#320032" opacity="0.4"/>
            <path id="Trazado_1176862" data-name="Trazado 1176862" d="M177.454,234.447q-.029,2.206-.059,4.411a.851.851,0,0,0,1.7,0q.03-2.205.059-4.411a.851.851,0,1,0-1.7,0Z" transform="translate(-101.995 -150.627)" fill="#320032" opacity="0.4"/>
            <path id="Trazado_1176863" data-name="Trazado 1176863" d="M160.527,335.205q-.029,2.206-.059,4.411a.851.851,0,0,0,1.7,0q.03-2.205.059-4.411a.851.851,0,0,0-1.7,0Z" transform="translate(-93.53 -201.019)" fill="#320032" opacity="0.4"/>
            <path id="Trazado_1176864" data-name="Trazado 1176864" d="M139.569,302.156q-.03,2.206-.06,4.411a.851.851,0,0,0,1.7,0q.03-2.205.059-4.411a.851.851,0,0,0-1.7,0Z" transform="translate(-83.048 -184.49)" fill="#320032" opacity="0.4"/>
            <path id="Trazado_1176865" data-name="Trazado 1176865" d="M139.569,257.823q-.03,2.206-.06,4.411a.851.851,0,1,0,1.7,0q.03-2.205.059-4.411a.851.851,0,1,0-1.7,0Z" transform="translate(-83.048 -162.318)" fill="#320032" opacity="0.4"/>
            <path id="Trazado_1176866" data-name="Trazado 1176866" d="M106.521,294.9q-.03,2.206-.06,4.411a.851.851,0,0,0,1.7,0q.03-2.205.059-4.411a.851.851,0,0,0-1.7,0Z" transform="translate(-66.52 -180.862)" fill="#320032" opacity="0.4"/>
            <path id="Trazado_1176867" data-name="Trazado 1176867" d="M142.659,336.558a61.57,61.57,0,0,1-7.427,6.083q-1.109.772-2.251,1.494c-.218.138-.017.487.2.348a62.249,62.249,0,0,0,7.735-5.783q1.033-.906,2.024-1.857C143.132,336.663,142.847,336.378,142.659,336.558Z" transform="translate(-79.736 -202.093)" fill="#320032" opacity="0.4"/>
          </g>
          <g id="Grupo_1232980" data-name="Grupo 1232980" transform="translate(115.404 32.973)">
            <g id="Grupo_1232978" data-name="Grupo 1232978" transform="translate(0 2.896)">
              <path id="Trazado_1176868" data-name="Trazado 1176868" d="M264.132,127.181a6.717,6.717,0,0,0-6.709,6.709c0,2.7,3.294,6.863,6.057,9.885l.033.036.089.1a.666.666,0,0,0,1.06,0l.085-.093.037-.041c2.763-3.021,6.056-7.189,6.056-9.884A6.717,6.717,0,0,0,264.132,127.181Zm0,10.018a3.425,3.425,0,1,1,3.425-3.425A3.425,3.425,0,0,1,264.131,137.2Z" transform="translate(-257.423 -127.181)" fill="#ff6242"/>
              <path id="Trazado_1176869" data-name="Trazado 1176869" d="M267.417,133.518a3.425,3.425,0,1,0,3.425,3.425A3.424,3.424,0,0,0,267.417,133.518Zm.038,5.346a1.919,1.919,0,1,1,1.919-1.919A1.921,1.921,0,0,1,267.455,138.864Z" transform="translate(-260.708 -130.35)" fill="#f3edef"/>
            </g>
            <g id="Grupo_1232979" data-name="Grupo 1232979" transform="translate(13.374)">
              <path id="Trazado_1176870" data-name="Trazado 1176870" d="M363.035,192.372a.406.406,0,0,1-.077-.008,23.01,23.01,0,0,1-5.816-1.947.4.4,0,1,1,.357-.722,22.207,22.207,0,0,0,5.612,1.878.4.4,0,0,1-.076.8Zm13.876-1.212a.4.4,0,0,1-.14-.781,25.2,25.2,0,0,0,5.283-2.7.4.4,0,1,1,.45.668,26.013,26.013,0,0,1-5.453,2.791A.407.407,0,0,1,376.911,191.16ZM353.9,188.337a.4.4,0,0,1-.245-.083,22.145,22.145,0,0,1-4.291-4.385.4.4,0,1,1,.648-.48,21.319,21.319,0,0,0,4.135,4.226.4.4,0,0,1-.246.722Zm31.515-2.443a.4.4,0,0,1-.277-.7,36.5,36.5,0,0,0,3.941-4.486.4.4,0,1,1,.641.487,37.179,37.179,0,0,1-4.027,4.584A.4.4,0,0,1,385.418,185.893ZM347.583,180.6a.4.4,0,0,1-.36-.222,23.923,23.923,0,0,1-2.031-5.785.4.4,0,1,1,.789-.167,23.1,23.1,0,0,0,1.962,5.59.4.4,0,0,1-.179.541A.4.4,0,0,1,347.583,180.6Zm44.173-2.513a.4.4,0,0,1-.331-.633l.733-1.058c.89-1.286,1.809-2.616,2.759-3.891a.4.4,0,1,1,.646.481c-.941,1.263-1.857,2.587-2.742,3.868l-.734,1.06A.4.4,0,0,1,391.757,178.089Zm45.351-.014a.4.4,0,0,1-.2-.056,40.385,40.385,0,0,1-4.97-3.534.4.4,0,1,1,.508-.625,39.6,39.6,0,0,0,4.871,3.466.4.4,0,0,1-.2.75Zm-8-6.1a.4.4,0,0,1-.263-.1l-.1-.085c-1.041-.9-2.118-1.824-3.195-2.7-.454-.368-.905-.722-1.343-1.052a.4.4,0,1,1,.485-.644c.446.336.9.7,1.366,1.069,1.086.88,2.168,1.812,3.213,2.712l.1.085a.4.4,0,0,1-.263.708Zm-84-1.057a.4.4,0,0,1-.4-.391q-.008-.3-.009-.594a20.429,20.429,0,0,1,.741-5.5.4.4,0,0,1,.776.217,19.628,19.628,0,0,0-.711,5.287c0,.19,0,.381.008.572a.4.4,0,0,1-.391.414Zm52.674-.892a.4.4,0,0,1-.3-.673,28.305,28.305,0,0,1,4.54-4.106.4.4,0,0,1,.467.657,27.524,27.524,0,0,0-4.408,3.99A.405.405,0,0,1,397.784,170.027Zm23.332-4.158a.4.4,0,0,1-.206-.056,22.811,22.811,0,0,0-5.413-2.4.4.4,0,0,1,.219-.776,23.636,23.636,0,0,1,5.606,2.485.4.4,0,0,1-.206.749ZM405.756,164a.4.4,0,0,1-.158-.774,14.919,14.919,0,0,1,4.44-1.15c.442-.042.892-.064,1.339-.064l.265,0a.4.4,0,0,1-.007.806h-.008l-.252,0c-.419,0-.844.02-1.261.059a14.118,14.118,0,0,0-4.2,1.089A.391.391,0,0,1,405.756,164Zm-58.436-2.789a.4.4,0,0,1-.356-.59,22.685,22.685,0,0,1,3.582-4.979.4.4,0,0,1,.587.552,21.892,21.892,0,0,0-3.456,4.8A.4.4,0,0,1,347.32,161.206Zm-27.876-5.9h-.01q-.564-.015-1.13-.049a37.313,37.313,0,0,1-4.932-.641.4.4,0,0,1,.153-.791,36.5,36.5,0,0,0,4.827.628q.553.033,1.1.048a.4.4,0,0,1-.011.806Zm4.024-.135a.4.4,0,0,1-.036-.8,38.356,38.356,0,0,0,5.884-1.027.4.4,0,0,1,.2.781,39.274,39.274,0,0,1-6.008,1.048Zm-13.936-1.48a.421.421,0,0,1-.108-.014c-1.72-.477-3.557-1.064-5.782-1.848a.4.4,0,1,1,.267-.76c2.207.777,4.029,1.36,5.731,1.831a.4.4,0,0,1-.108.792Zm44.289-.075a.4.4,0,0,1-.248-.721,30.533,30.533,0,0,1,5.186-3.24.4.4,0,0,1,.358.722,29.736,29.736,0,0,0-5.049,3.154A.4.4,0,0,1,353.821,153.612Zm-20.55-.649a.4.4,0,0,1-.133-.783,56.709,56.709,0,0,0,5.545-2.292.4.4,0,0,1,.345.728,57.626,57.626,0,0,1-5.624,2.325A.412.412,0,0,1,333.271,152.962Zm-33.283-2.491a.4.4,0,0,1-.139-.025l-.574-.212c-1.674-.619-3.4-1.259-5.1-1.846a.4.4,0,1,1,.263-.762c1.707.589,3.442,1.231,5.12,1.852l.574.212a.4.4,0,0,1-.14.781Zm62.662-1.621a.4.4,0,0,1-.135-.783,43.729,43.729,0,0,1,5.878-1.613.4.4,0,0,1,.16.789,42.914,42.914,0,0,0-5.769,1.583A.4.4,0,0,1,362.649,148.85Zm-20.2-.028a.4.4,0,0,1-.193-.756c1.68-.916,3.375-1.916,5.183-3.059a.4.4,0,0,1,.43.68c-1.822,1.153-3.532,2.162-5.228,3.086A.406.406,0,0,1,342.445,148.823Zm-51.982-1.649a.393.393,0,0,1-.114-.016,48.488,48.488,0,0,0-5.834-1.369.4.4,0,1,1,.131-.795,49.152,49.152,0,0,1,5.93,1.391.4.4,0,0,1-.113.789Zm81.983-.578a.4.4,0,0,1-.051-.8c1.862-.243,3.841-.419,6.048-.54a.394.394,0,0,1,.424.38.4.4,0,0,1-.38.424c-2.188.119-4.147.294-5.989.534A.317.317,0,0,1,372.446,146.6Zm10.044-.693a.4.4,0,0,1-.011-.806l.289-.008c1.884-.054,3.832-.11,5.727-.266a.4.4,0,1,1,.066.8c-1.918.157-3.876.213-5.77.268l-.289.009Zm10.033-.792a.4.4,0,0,1-.073-.8,22.321,22.321,0,0,0,5.56-1.748l.081-.039a.4.4,0,0,1,.353.725l-.086.041a23.156,23.156,0,0,1-5.76,1.813A.419.419,0,0,1,392.523,145.11Zm-41.5-1.57a.4.4,0,0,1-.227-.736c.87-.59,1.785-1.224,2.718-1.884q1.11-.785,2.219-1.583a.4.4,0,1,1,.47.655q-1.112.8-2.224,1.586c-.938.663-1.856,1.3-2.73,1.893A.4.4,0,0,1,351.019,143.54Zm50.587-2.485a.4.4,0,0,1-.267-.7,13.817,13.817,0,0,0,3.49-4.669.4.4,0,0,1,.736.327,14.632,14.632,0,0,1-3.693,4.945A.4.4,0,0,1,401.606,141.055Zm-42.369-3.342a.4.4,0,0,1-.236-.73c1.55-1.115,3.22-2.31,4.939-3.5a.4.4,0,1,1,.458.663c-1.713,1.185-3.38,2.377-4.926,3.489A.4.4,0,0,1,359.237,137.713Zm46.892-5.359h-.013a.4.4,0,0,1-.389-.415c0-.094,0-.188,0-.282a8.252,8.252,0,0,0-.457-2.721,8.487,8.487,0,0,0-1.278-2.377.4.4,0,1,1,.64-.49,9.307,9.307,0,0,1,1.4,2.6,9.051,9.051,0,0,1,.5,2.987c0,.1,0,.2-.005.307A.4.4,0,0,1,406.128,132.354Zm-38.618-.386a.4.4,0,0,1-.22-.74c1.832-1.2,3.523-2.236,5.169-3.176a.4.4,0,0,1,.4.7c-1.632.931-3.309,1.962-5.128,3.151A.407.407,0,0,1,367.511,131.968Zm33.758-7.846a.4.4,0,0,1-.2-.052,15.254,15.254,0,0,0-5.588-1.741.4.4,0,1,1,.1-.8,16.055,16.055,0,0,1,5.882,1.838.4.4,0,0,1-.2.754Zm-15.7-.889a.4.4,0,0,1-.107-.791c.555-.155,1.121-.3,1.681-.434a24.394,24.394,0,0,1,4.348-.62.4.4,0,0,1,.042.805,23.581,23.581,0,0,0-4.2.6c-.55.13-1.1.274-1.65.426A.4.4,0,0,1,385.571,123.233Z" transform="translate(-284.178 -121.387)" fill="#4a4a4a"/>
            </g>
            <path id="Trazado_1176871" data-name="Trazado 1176871" d="M270.895,166.561a2.216,2.216,0,1,1-2.216-2.216A2.216,2.216,0,0,1,270.895,166.561Z" transform="translate(-261.944 -142.871)" fill="#4a4a4a"/>
            <path id="Trazado_1176872" data-name="Trazado 1176872" d="M473.828,126.258a2.216,2.216,0,1,1-2.216-2.216A2.216,2.216,0,0,1,473.828,126.258Z" transform="translate(-363.435 -122.715)" fill="#4a4a4a"/>
            <path id="Trazado_1176873" data-name="Trazado 1176873" d="M603.493,236.688a2.216,2.216,0,1,1-2.216-2.216A2.216,2.216,0,0,1,603.493,236.688Z" transform="translate(-428.284 -177.943)" fill="#4a4a4a"/>
            <path id="Trazado_1176874" data-name="Trazado 1176874" d="M456.035,261.676a2.216,2.216,0,1,1-2.216-2.216A2.216,2.216,0,0,1,456.035,261.676Z" transform="translate(-354.537 -190.441)" fill="#4a4a4a"/>
          </g>
        </g>
      </g>
    </g>
    <g id="gestion-de-riesgos" transform="translate(459.014 6021.926)">
      <path id="Trazado_1176875" data-name="Trazado 1176875" d="M35.548,91.117a12.408,12.408,0,0,0,3.062,1.841,1.535,1.535,0,0,0,1.919-.628,3.1,3.1,0,0,1,5.381.1,1.535,1.535,0,0,0,1.9.7A12.549,12.549,0,0,0,50.931,91.4a1.535,1.535,0,0,0,.418-1.978,3.1,3.1,0,0,1,2.776-4.61,1.535,1.535,0,0,0,1.553-1.291,12.41,12.41,0,0,0,.07-3.572,1.535,1.535,0,0,0-1.5-1.35,3.1,3.1,0,0,1-2.6-4.712A1.535,1.535,0,0,0,51.3,71.9a12.408,12.408,0,0,0-3.062-1.841,1.535,1.535,0,0,0-1.919.628,3.1,3.1,0,0,1-5.381-.1,1.535,1.535,0,0,0-1.9-.7,12.551,12.551,0,0,0-3.123,1.726,1.535,1.535,0,0,0-.418,1.979,3.1,3.1,0,0,1-2.777,4.61,1.535,1.535,0,0,0-1.553,1.291,12.4,12.4,0,0,0-.07,3.572,1.535,1.535,0,0,0,1.5,1.35,3.1,3.1,0,0,1,2.6,4.712A1.535,1.535,0,0,0,35.548,91.117Zm4.174-7.564a4.228,4.228,0,1,1,5.745,1.655A4.228,4.228,0,0,1,39.722,83.553Z" transform="translate(-7.235 -7.229)" fill="#ffd266" fill-rule="evenodd"/>
      <path id="Trazado_1176876" data-name="Trazado 1176876" d="M143.1,125.886l14.438,25.008a2.938,2.938,0,0,1-2.544,4.407H126.117a2.938,2.938,0,0,1-2.544-4.407l14.438-25.008a2.938,2.938,0,0,1,5.089,0Z" transform="translate(-90.447 -56.552)" fill="#fd4755" fill-rule="evenodd"/>
      <path id="Trazado_1176877" data-name="Trazado 1176877" d="M281.7,202.91a2.138,2.138,0,0,1,2.189,2.189l-.69,9.67a1.5,1.5,0,1,1-3,0l-.69-9.67A2.138,2.138,0,0,1,281.7,202.91Zm0,16.176a1.586,1.586,0,1,1-1.586,1.586A1.586,1.586,0,0,1,281.7,219.086Z" transform="translate(-231.592 -127.417)" fill="#eceff1" fill-rule="evenodd"/>
      <path id="Trazado_1176878" data-name="Trazado 1176878" d="M50.108,94.064a.809.809,0,1,1,.808-.808A.809.809,0,0,1,50.108,94.064Zm0-3.172a2.363,2.363,0,1,0,2.363,2.364A2.366,2.366,0,0,0,50.108,90.892Zm1.414-13.264-.69,9.67a.726.726,0,1,1-1.448,0l-.69-9.67a1.173,1.173,0,0,1,.33-.886,1.486,1.486,0,0,1,2.17,0A1.177,1.177,0,0,1,51.522,77.628Zm-1.414-2.912a3.046,3.046,0,0,0-2.223.965,2.707,2.707,0,0,0-.741,2.056l.689,9.671a2.276,2.276,0,0,0,4.55,0l.69-9.671a2.714,2.714,0,0,0-.741-2.056A3.048,3.048,0,0,0,50.108,74.716Zm16.31,22.176a2.085,2.085,0,0,0,0-2.161L51.979,69.723a2.16,2.16,0,0,0-3.741,0L33.8,94.731a2.16,2.16,0,0,0,1.871,3.24H64.547A2.085,2.085,0,0,0,66.418,96.892ZM36.027,82.819a3.894,3.894,0,0,0-3.4,1.883.761.761,0,0,1-.952.312,11.622,11.622,0,0,1-2.87-1.725.761.761,0,0,1-.17-.989,3.882,3.882,0,0,0-3.256-5.891.759.759,0,0,1-.746-.669,11.622,11.622,0,0,1,.066-3.348.756.756,0,0,1,.77-.64,3.882,3.882,0,0,0,3.472-5.765A.76.76,0,0,1,29.147,65a11.747,11.747,0,0,1,2.929-1.619.76.76,0,0,1,.942.347,3.88,3.88,0,0,0,6.728.127.76.76,0,0,1,.952-.311,11.625,11.625,0,0,1,2.87,1.725.76.76,0,0,1,.17.988,3.882,3.882,0,0,0,1.549,5.464l-6.9,11.951A3.881,3.881,0,0,0,36.027,82.819ZM67.764,93.954,53.325,68.946a3.715,3.715,0,0,0-6.435,0l-.824,1.429a2.325,2.325,0,0,1-1-3.309,2.3,2.3,0,0,0-.516-3A13.162,13.162,0,0,0,41.3,62.113a2.3,2.3,0,0,0-2.886.945,2.327,2.327,0,0,1-4.034-.076,2.3,2.3,0,0,0-2.854-1.051,13.323,13.323,0,0,0-3.317,1.833,2.3,2.3,0,0,0-.628,2.976A2.326,2.326,0,0,1,25.5,70.2a2.307,2.307,0,0,0-2.335,1.941,13.189,13.189,0,0,0-.075,3.8,2.3,2.3,0,0,0,2.264,2.03A2.326,2.326,0,0,1,27.3,81.495a2.3,2.3,0,0,0,.515,3,13.185,13.185,0,0,0,3.254,1.956,2.345,2.345,0,0,0,.908.184A2.3,2.3,0,0,0,33.959,85.5a2.324,2.324,0,0,1,3.634-.453l-5.141,8.9a3.715,3.715,0,0,0,3.218,5.573H64.547a3.715,3.715,0,0,0,3.217-5.573ZM37.855,77.3a3.45,3.45,0,1,1,1.351-4.689A3.427,3.427,0,0,1,37.855,77.3Zm-.284-7.829a5.005,5.005,0,1,1-3.806.429A4.973,4.973,0,0,1,37.572,69.47Z" transform="translate(0 0)" fill-rule="evenodd"/>
    </g>
  </g>
</svg>
