<svg xmlns="http://www.w3.org/2000/svg" xmlns:xlink="http://www.w3.org/1999/xlink" width="106.16" height="106.16" viewBox="0 0 106.16 106.16">
  <defs>
    <filter id="Trazado_982547" x="0" y="0" width="106.16" height="106.16" filterUnits="userSpaceOnUse">
      <feOffset dy="3" input="SourceAlpha"/>
      <feGaussianBlur stdDeviation="3" result="blur"/>
      <feFlood flood-opacity="0.161"/>
      <feComposite operator="in" in2="blur"/>
      <feComposite in="SourceGraphic"/>
    </filter>
  </defs>
  <g id="Grupo_1234627" data-name="Grupo 1234627" transform="translate(-1024.296 -5429.754)">
    <g id="Grupo_1232522" data-name="Grupo 1232522" transform="translate(204.046 -1843.661)">
      <g id="Grupo_1230692" data-name="Grupo 1230692" transform="translate(-0.25 3811.95)">
        <g id="Grupo_1224852" data-name="Grupo 1224852" transform="translate(629.5 1738.464)">
          <g id="Grupo_1206130" data-name="Grupo 1206130" transform="translate(0 -59)">
            <g id="Grupo_1203672" data-name="Grupo 1203672" transform="translate(0.08 -4797.878)">
              <g id="Grupo_1203344" data-name="Grupo 1203344" transform="translate(-81.08 5174.875)">
                <g id="Grupo_1177900" data-name="Grupo 1177900" transform="translate(281 1411.003)">
                  <g id="Grupo_1172010" data-name="Grupo 1172010" transform="translate(0)">
                    <g id="Grupo_1171046" data-name="Grupo 1171046">
                      <g id="Grupo_1148525" data-name="Grupo 1148525">
                        <g transform="matrix(1, 0, 0, 1, -9, -6)" filter="url(#Trazado_982547)">
                          <g id="Trazado_982547-2" data-name="Trazado 982547" transform="translate(9 6)" fill="#e5ebfb">
                            <path d="M 44.0802001953125 86.660400390625 C 38.33124923706055 86.660400390625 32.75506210327148 85.53479766845703 27.50652503967285 83.31484985351562 C 22.43628692626953 81.17032623291016 17.88242530822754 78.09992218017578 13.97144985198975 74.18894958496094 C 10.06047534942627 70.27797698974609 6.99007511138916 65.72411346435547 4.845550060272217 60.65387344360352 C 2.625600099563599 55.40533828735352 1.500000238418579 49.82915115356445 1.500000238418579 44.0802001953125 C 1.500000238418579 38.33124923706055 2.625600099563599 32.75506210327148 4.845550060272217 27.50652503967285 C 6.99007511138916 22.43628692626953 10.06047534942627 17.88242530822754 13.97144985198975 13.97144985198975 C 17.88242530822754 10.06047534942627 22.43628692626953 6.99007511138916 27.50652503967285 4.845550060272217 C 32.75506210327148 2.625600099563599 38.33124923706055 1.500000238418579 44.0802001953125 1.500000238418579 C 49.82915115356445 1.500000238418579 55.40533828735352 2.625600099563599 60.65387344360352 4.845550060272217 C 65.72411346435547 6.99007511138916 70.27797698974609 10.06047534942627 74.18894958496094 13.97144985198975 C 78.09992218017578 17.88242530822754 81.17032623291016 22.43628692626953 83.31484985351562 27.50652503967285 C 85.53479766845703 32.75506210327148 86.660400390625 38.33124923706055 86.660400390625 44.0802001953125 C 86.660400390625 49.82915115356445 85.53479766845703 55.40533828735352 83.31484985351562 60.65387344360352 C 81.17032623291016 65.72411346435547 78.09992218017578 70.27797698974609 74.18894958496094 74.18894958496094 C 70.27797698974609 78.09992218017578 65.72411346435547 81.17032623291016 60.65387344360352 83.31484985351562 C 55.40533828735352 85.53479766845703 49.82915115356445 86.660400390625 44.0802001953125 86.660400390625 Z" stroke="none"/>
                            <path d="M 44.0802001953125 3 C 38.53308486938477 3 33.15349960327148 4.085746765136719 28.09085845947266 6.227058410644531 C 23.19941711425781 8.29595947265625 18.80581665039062 11.25841522216797 15.03211212158203 15.03211212158203 C 11.25841522216797 18.80581665039062 8.29595947265625 23.19941711425781 6.227058410644531 28.09085845947266 C 4.085746765136719 33.15349960327148 3 38.53308486938477 3 44.0802001953125 C 3 49.62731552124023 4.085746765136719 55.00691604614258 6.227058410644531 60.06954193115234 C 8.29595947265625 64.96098327636719 11.25841522216797 69.35458374023438 15.03211212158203 73.12828826904297 C 18.80581665039062 76.90198516845703 23.19941711425781 79.86444091796875 28.09085845947266 81.93334197998047 C 33.15349960327148 84.07466125488281 38.53308486938477 85.160400390625 44.0802001953125 85.160400390625 C 49.62731552124023 85.160400390625 55.00691604614258 84.07466125488281 60.06954193115234 81.93334197998047 C 64.96099853515625 79.86444091796875 69.35458374023438 76.90198516845703 73.12828826904297 73.12828826904297 C 76.90198516845703 69.35458374023438 79.86444091796875 64.96099853515625 81.93334197998047 60.06954193115234 C 84.07466125488281 55.00691604614258 85.160400390625 49.62731552124023 85.160400390625 44.0802001953125 C 85.160400390625 38.53308486938477 84.07466125488281 33.15349960327148 81.93334197998047 28.09085845947266 C 79.86444091796875 23.19941711425781 76.90198516845703 18.80581665039062 73.12828826904297 15.03211212158203 C 69.35458374023438 11.25841522216797 64.96098327636719 8.29595947265625 60.06954193115234 6.227058410644531 C 55.00691604614258 4.085746765136719 49.62731552124023 3 44.0802001953125 3 M 44.0802001953125 0 C 68.42502593994141 0 88.160400390625 19.73538970947266 88.160400390625 44.0802001953125 C 88.160400390625 68.42502593994141 68.42502593994141 88.160400390625 44.0802001953125 88.160400390625 C 19.73538970947266 88.160400390625 0 68.42502593994141 0 44.0802001953125 C 0 19.73538970947266 19.73538970947266 0 44.0802001953125 0 Z" stroke="none" fill="#98b4f2"/>
                          </g>
                        </g>
                      </g>
                    </g>
                  </g>
                </g>
              </g>
            </g>
          </g>
        </g>
      </g>
    </g>
    <g id="nucleo" transform="translate(1048.302 5449.58)">
      <g id="Grupo_1234625" data-name="Grupo 1234625" transform="translate(0.852 0.852)">
        <circle id="Elipse_14613" data-name="Elipse 14613" cx="28.223" cy="28.223" r="28.223" fill="#ffc244"/>
        <path id="Trazado_1232314" data-name="Trazado 1232314" d="M109.862,70.033a28.109,28.109,0,0,1,7.1,18.711c0,14.7-13.556,28.223-28.223,28.223a28.109,28.109,0,0,1-18.711-7.1,28.217,28.217,0,1,0,39.832-39.831Z" transform="translate(-62.928 -62.931)" fill="#ffaa5a"/>
        <circle id="Elipse_14614" data-name="Elipse 14614" cx="24.581" cy="24.581" r="24.581" transform="translate(3.642 3.642)" fill="#ffd05b"/>
        <circle id="Elipse_14615" data-name="Elipse 14615" cx="21.85" cy="21.85" r="21.85" transform="translate(6.373 6.373)" fill="#ffe077"/>
        <path id="Trazado_1232315" data-name="Trazado 1232315" d="M155.609,143.774a11.835,11.835,0,0,0,0,23.671l11.835-11.835A11.835,11.835,0,0,0,155.609,143.774Z" transform="translate(-128.297 -128.297)" fill="#ffaa5a"/>
        <path id="Trazado_1232316" data-name="Trazado 1232316" d="M227.766,7.5a28.453,28.453,0,0,0-3.617.239,3.624,3.624,0,0,0,7.235,0,28.432,28.432,0,0,0-3.617-.239Z" transform="translate(-199.544 -7.5)" fill="#ffaa5a"/>
        <path id="Trazado_1232317" data-name="Trazado 1232317" d="M227.766,476.078a28.453,28.453,0,0,0,3.617-.239,3.624,3.624,0,0,0-7.235,0A28.453,28.453,0,0,0,227.766,476.078Z" transform="translate(-199.544 -419.632)" fill="#ff8b57"/>
        <path id="Trazado_1232318" data-name="Trazado 1232318" d="M476.078,227.766a28.453,28.453,0,0,0-.239-3.617,3.624,3.624,0,0,0,0,7.235A28.453,28.453,0,0,0,476.078,227.766Z" transform="translate(-419.632 -199.544)" fill="#ff8b57"/>
        <g id="Grupo_1234624" data-name="Grupo 1234624" transform="translate(0 5.877)">
          <path id="Trazado_1232319" data-name="Trazado 1232319" d="M7.5,227.766a28.453,28.453,0,0,0,.239,3.617,3.624,3.624,0,0,0,0-7.235,28.432,28.432,0,0,0-.239,3.617Z" transform="translate(-7.5 -205.421)" fill="#ffaa5a"/>
          <path id="Trazado_1232320" data-name="Trazado 1232320" d="M403.388,61.637a28.444,28.444,0,0,0-2.727-2.389,3.624,3.624,0,0,0,5.116,5.116A28.444,28.444,0,0,0,403.388,61.637Z" transform="translate(-355.209 -59.248)" fill="#ffaa5a"/>
          <path id="Trazado_1232321" data-name="Trazado 1232321" d="M61.637,403.388a28.444,28.444,0,0,0,2.727,2.389,3.624,3.624,0,0,0-5.116-5.116A28.441,28.441,0,0,0,61.637,403.388Z" transform="translate(-53.371 -361.086)" fill="#ffaa5a"/>
        </g>
        <path id="Trazado_1232322" data-name="Trazado 1232322" d="M403.388,403.388a28.444,28.444,0,0,0,2.389-2.727,3.624,3.624,0,0,0-5.116,5.116A28.44,28.44,0,0,0,403.388,403.388Z" transform="translate(-355.209 -355.209)" fill="#ff8b57"/>
        <path id="Trazado_1232323" data-name="Trazado 1232323" d="M61.637,61.637a28.444,28.444,0,0,0-2.389,2.727,3.624,3.624,0,0,0,5.116-5.116A28.444,28.444,0,0,0,61.637,61.637Z" transform="translate(-53.371 -53.371)" fill="#ffaa5a"/>
        <path id="Trazado_1232324" data-name="Trazado 1232324" d="M176.414,160.091a11.821,11.821,0,0,1-16.323,16.323,11.828,11.828,0,1,0,16.323-16.323Z" transform="translate(-142.761 -142.761)" fill="#ff8b57"/>
      </g>
      <g id="Grupo_1234626" data-name="Grupo 1234626" transform="translate(0)">
        <path id="Trazado_1232325" data-name="Trazado 1232325" d="M49.633,8.516A29.075,29.075,0,0,0,8.516,49.633,29.075,29.075,0,0,0,49.633,8.516ZM51.24,45.139a4.5,4.5,0,0,0-1.989-.578,25.168,25.168,0,0,0,5.041-12.17,4.5,4.5,0,0,0,1.815,1A27.067,27.067,0,0,1,51.24,45.139ZM33.389,56.107a4.5,4.5,0,0,0-1-1.815,25.167,25.167,0,0,0,12.17-5.041,4.5,4.5,0,0,0,.578,1.989,27.067,27.067,0,0,1-11.75,4.867ZM13.01,51.24a4.5,4.5,0,0,0,.578-1.989,25.167,25.167,0,0,0,12.17,5.041,4.5,4.5,0,0,0-1,1.815A27.067,27.067,0,0,1,13.01,51.24ZM2.042,33.389a4.5,4.5,0,0,0,1.815-1A25.167,25.167,0,0,0,8.9,44.561a4.5,4.5,0,0,0-1.989.578,27.067,27.067,0,0,1-4.867-11.75ZM1.7,29.074q0-1.308.122-2.6a2.763,2.763,0,0,1,0,5.191q-.12-1.286-.122-2.6ZM6.909,13.01a4.5,4.5,0,0,0,1.994.578A25.241,25.241,0,0,0,3.858,25.76a4.5,4.5,0,0,0-1.817-1A27.066,27.066,0,0,1,6.909,13.01ZM5.345,29.074A23.716,23.716,0,0,1,16.819,8.751a.852.852,0,0,0-.881-1.458A25.4,25.4,0,0,0,13.588,8.9a4.5,4.5,0,0,0-.578-2A27.069,27.069,0,0,1,24.76,2.042a4.5,4.5,0,0,0,1,1.815A25.186,25.186,0,0,0,19.19,5.634.852.852,0,1,0,19.853,7.2,23.733,23.733,0,1,1,5.345,29.074ZM45.139,6.908A4.5,4.5,0,0,0,44.561,8.9a25.167,25.167,0,0,0-12.17-5.041,4.5,4.5,0,0,0,1-1.815A27.067,27.067,0,0,1,45.139,6.908ZM56.107,24.76a4.5,4.5,0,0,0-1.815,1,25.167,25.167,0,0,0-5.041-12.171,4.5,4.5,0,0,0,1.989-.577A27.065,27.065,0,0,1,56.107,24.76Zm-1.6,4.315a2.791,2.791,0,0,1,1.816-2.6q.12,1.286.122,2.6t-.122,2.6a2.791,2.791,0,0,1-1.816-2.6ZM50.18,11.645a2.75,2.75,0,0,1-3.122-.554,2.791,2.791,0,0,1-.551-3.119Q47.5,8.8,48.428,9.72t1.752,1.924ZM31.67,1.825a2.763,2.763,0,0,1-5.191,0q1.286-.12,2.6-.122T31.67,1.825ZM9.72,9.72q.925-.925,1.921-1.749a2.791,2.791,0,0,1-.551,3.119,2.75,2.75,0,0,1-3.122.554q.826-1,1.752-1.924ZM7.969,46.5a2.768,2.768,0,0,1,3.676,3.676q-1-.826-1.924-1.752T7.969,46.5Zm18.51,9.819a2.763,2.763,0,0,1,5.191,0q-1.286.12-2.6.122T26.479,56.323Zm21.95-7.895q-.926.926-1.924,1.752A2.768,2.768,0,0,1,50.18,46.5q-.826,1-1.752,1.924Z" transform="translate(0)"/>
        <path id="Trazado_1232326" data-name="Trazado 1232326" d="M148.962,136.274a12.687,12.687,0,1,0,7.639,22.817.852.852,0,0,0-1.027-1.359,10.98,10.98,0,1,1,2.315-2.372.852.852,0,1,0,1.384.994,12.688,12.688,0,0,0-10.312-20.08Z" transform="translate(-120.798 -120.797)"/>
      </g>
    </g>
  </g>
</svg>
