<svg xmlns="http://www.w3.org/2000/svg" xmlns:xlink="http://www.w3.org/1999/xlink" width="721.6" height="290.103" viewBox="0 0 721.6 290.103">
  <defs>
    <filter id="Trazado_1082400" x="255.493" y="72.696" width="210.406" height="210.406" filterUnits="userSpaceOnUse">
      <feOffset dy="3" input="SourceAlpha"/>
      <feGaussianBlur stdDeviation="3" result="blur"/>
      <feFlood flood-opacity="0.161"/>
      <feComposite operator="in" in2="blur"/>
      <feComposite in="SourceGraphic"/>
    </filter>
    <filter id="Trazado_1082379" x="431.499" y="0.003" width="290.101" height="290.1" filterUnits="userSpaceOnUse">
      <feOffset dy="3" input="SourceAlpha"/>
      <feGaussianBlur stdDeviation="3" result="blur-2"/>
      <feFlood flood-opacity="0.161"/>
      <feComposite operator="in" in2="blur-2"/>
      <feComposite in="SourceGraphic"/>
    </filter>
    <filter id="Elipse_14259" x="0" y="0" width="290.101" height="290.1" filterUnits="userSpaceOnUse">
      <feOffset dy="3" input="SourceAlpha"/>
      <feGaussianBlur stdDeviation="3" result="blur-3"/>
      <feFlood flood-opacity="0.161"/>
      <feComposite operator="in" in2="blur-3"/>
      <feComposite in="SourceGraphic"/>
    </filter>
  </defs>
  <g id="Grupo_1232871" data-name="Grupo 1232871" transform="translate(-439.2 -8121.593)">
    <g id="Grupo_1213557" data-name="Grupo 1213557" transform="translate(136.131 7163.737)">
      <g id="Grupo_1213556" data-name="Grupo 1213556">
        <g id="Grupo_1213554" data-name="Grupo 1213554">
          <g id="Grupo_1213540" data-name="Grupo 1213540" transform="translate(294 724)">
            <g transform="matrix(1, 0, 0, 1, 9.07, 233.86)" filter="url(#Trazado_1082400)">
              <path id="Trazado_1082400-2" data-name="Trazado 1082400" d="M96.2,0A96.2,96.2,0,1,1,0,96.2,96.2,96.2,0,0,1,96.2,0Z" transform="translate(264.49 78.7)" fill="#fc3"/>
            </g>
          </g>
          <g id="Grupo_1213542" data-name="Grupo 1213542" transform="translate(294 724)">
            <g transform="matrix(1, 0, 0, 1, 9.07, 233.86)" filter="url(#Trazado_1082379)">
              <path id="Trazado_1082379-2" data-name="Trazado 1082379" d="M96.2,0A96.2,96.2,0,1,1,0,96.2,96.2,96.2,0,0,1,96.2,0Z" transform="translate(440.5 142.05) rotate(-45)" fill="#f9a858"/>
            </g>
          </g>
          <g id="Grupo_1213543" data-name="Grupo 1213543" transform="translate(294 724)">
            <g transform="matrix(1, 0, 0, 1, 9.07, 233.86)" filter="url(#Elipse_14259)">
              <circle id="Elipse_14259-2" data-name="Elipse 14259" cx="96.203" cy="96.203" r="96.203" transform="translate(9 142.05) rotate(-45)" fill="#3ea6db"/>
            </g>
          </g>
        </g>
        <path id="Trazado_1082399" data-name="Trazado 1082399" d="M-311,1084.728h62.762" transform="translate(727.615 2)" fill="#fff" stroke="#fff" stroke-linecap="round" stroke-width="1"/>
        <path id="Trazado_1082401" data-name="Trazado 1082401" d="M-311,1084.728h62.762" transform="translate(945.615 37)" fill="#fff" stroke="#0b0a0a" stroke-linecap="round" stroke-width="1"/>
        <path id="Trazado_1082402" data-name="Trazado 1082402" d="M-311,1084.728h62.762" transform="translate(1158.385 -1)" fill="#fff" stroke="#0b0a0a" stroke-linecap="round" stroke-width="1"/>
      </g>
      <g id="Elipse_14260" data-name="Elipse 14260" transform="translate(340 990)" fill="none" stroke="#707070" stroke-linecap="round" stroke-width="3" stroke-dasharray="2 8">
        <ellipse cx="108.5" cy="109.5" rx="108.5" ry="109.5" stroke="none"/>
        <ellipse cx="108.5" cy="109.5" rx="107" ry="108" fill="none"/>
      </g>
      <g id="Elipse_14261" data-name="Elipse 14261" transform="translate(555 1026)" fill="none" stroke="#707070" stroke-linecap="round" stroke-width="3" stroke-dasharray="2 8">
        <ellipse cx="108.5" cy="109.5" rx="108.5" ry="109.5" stroke="none"/>
        <ellipse cx="108.5" cy="109.5" rx="107" ry="108" fill="none"/>
      </g>
      <g id="Elipse_14263" data-name="Elipse 14263" transform="translate(772 993)" fill="none" stroke="#707070" stroke-linecap="round" stroke-width="3" stroke-dasharray="2 8">
        <ellipse cx="108.5" cy="109.5" rx="108.5" ry="109.5" stroke="none"/>
        <ellipse cx="108.5" cy="109.5" rx="107" ry="108" fill="none"/>
      </g>
    </g>
    <path id="Trazado_1177383" data-name="Trazado 1177383" d="M18.39,24H14.609l-1.1-3.427H8.035L6.95,24H3.19L8.8,8.6h4.114Zm-5.672-6.091-1.654-5.178a6.747,6.747,0,0,1-.258-1.386H10.72a5.876,5.876,0,0,1-.269,1.343L8.776,17.909ZM30.6,24H27.22V17.888q0-2.557-1.826-2.557a1.812,1.812,0,0,0-1.45.677,2.578,2.578,0,0,0-.569,1.719V24H19.98V13h3.395v1.74h.043a3.89,3.89,0,0,1,3.534-2.009q3.652,0,3.652,4.533Zm9.335-.129a5.017,5.017,0,0,1-2.267.4q-3.588,0-3.588-3.728V15.5H32.3V13h1.783V10.626l3.384-.967V13h2.471v2.5H37.468V19.95q0,1.719,1.364,1.719a2.3,2.3,0,0,0,1.106-.312Zm11.709-4.4H44.472q.172,2.4,3.019,2.4A5.893,5.893,0,0,0,50.681,21v2.449a8.381,8.381,0,0,1-3.964.816,5.58,5.58,0,0,1-4.136-1.477,5.58,5.58,0,0,1-1.472-4.12,5.887,5.887,0,0,1,1.59-4.34,5.3,5.3,0,0,1,3.91-1.6,4.807,4.807,0,0,1,3.722,1.429,5.5,5.5,0,0,1,1.316,3.878ZM48.5,17.383q0-2.363-1.912-2.363a1.826,1.826,0,0,0-1.413.677,3.072,3.072,0,0,0-.725,1.687Zm4.447,6.327V20.96a7.227,7.227,0,0,0,1.67.752,5.538,5.538,0,0,0,1.574.247,3.375,3.375,0,0,0,1.423-.247.8.8,0,0,0,.521-.752.7.7,0,0,0-.236-.537,2.2,2.2,0,0,0-.607-.376,6.887,6.887,0,0,0-.811-.29q-.44-.129-.849-.29a8.131,8.131,0,0,1-1.155-.532,3.338,3.338,0,0,1-.838-.661,2.6,2.6,0,0,1-.516-.87,3.472,3.472,0,0,1-.177-1.171,3.014,3.014,0,0,1,.4-1.59,3.29,3.29,0,0,1,1.074-1.09,4.908,4.908,0,0,1,1.536-.623,8.01,8.01,0,0,1,1.8-.2,9.984,9.984,0,0,1,1.482.113,11.064,11.064,0,0,1,1.482.328v2.621a5.357,5.357,0,0,0-1.38-.564,5.823,5.823,0,0,0-1.445-.188,3.2,3.2,0,0,0-.628.059,2.07,2.07,0,0,0-.521.172.957.957,0,0,0-.354.29.668.668,0,0,0-.129.4.744.744,0,0,0,.193.516,1.679,1.679,0,0,0,.5.371,4.984,4.984,0,0,0,.693.279q.381.124.757.252a9.847,9.847,0,0,1,1.225.516,3.916,3.916,0,0,1,.94.655,2.573,2.573,0,0,1,.6.881,3.524,3.524,0,0,1-.215,2.874,3.4,3.4,0,0,1-1.128,1.128,5.115,5.115,0,0,1-1.622.634,8.992,8.992,0,0,1-1.907.2A9.83,9.83,0,0,1,52.948,23.71Z" transform="translate(549.558 8219.425)" fill="#fff"/>
    <path id="Trazado_1177384" data-name="Trazado 1177384" d="M2.856,24V8.6H8.313q8.207,0,8.207,7.509a7.593,7.593,0,0,1-2.24,5.747A8.259,8.259,0,0,1,8.313,24Zm3.47-12.579v9.765H8.045a4.644,4.644,0,0,0,3.54-1.354,5.136,5.136,0,0,0,1.284-3.685A4.659,4.659,0,0,0,11.6,12.683a4.853,4.853,0,0,0-3.572-1.262ZM29.2,24H25.813V22.324h-.054A3.839,3.839,0,0,1,22.4,24.269q-3.824,0-3.824-4.63V13h3.384v6.338q0,2.331,1.848,2.331a1.828,1.828,0,0,0,1.461-.639,2.577,2.577,0,0,0,.548-1.735V13H29.2Zm10.033-7.938a2.945,2.945,0,0,0-1.429-.333,2.058,2.058,0,0,0-1.729.811,3.538,3.538,0,0,0-.623,2.208V24H32.054V13h3.395v2.041h.043a2.937,2.937,0,0,1,2.9-2.234,2.186,2.186,0,0,1,.838.129ZM49.961,24H46.749V22.421h-.043a3.585,3.585,0,0,1-3.276,1.848,3.427,3.427,0,0,1-2.519-.908,3.253,3.253,0,0,1-.918-2.422q0-3.2,3.792-3.7l2.986-.4q0-1.8-1.955-1.8a6.673,6.673,0,0,0-3.738,1.171V13.655a8.41,8.41,0,0,1,1.939-.645,10.193,10.193,0,0,1,2.24-.279q4.705,0,4.705,4.694Zm-3.19-4.469V18.79l-2,.258q-1.654.215-1.654,1.493a1.234,1.234,0,0,0,.4.951,1.548,1.548,0,0,0,1.09.371,2.01,2.01,0,0,0,1.558-.661A2.386,2.386,0,0,0,46.771,19.531ZM63.271,24H59.887V17.888q0-2.557-1.826-2.557a1.812,1.812,0,0,0-1.45.677,2.578,2.578,0,0,0-.569,1.719V24H52.646V13h3.395v1.74h.043a3.89,3.89,0,0,1,3.534-2.009q3.652,0,3.652,4.533Zm9.335-.129a5.017,5.017,0,0,1-2.267.4q-3.588,0-3.588-3.728V15.5H64.968V13h1.783V10.626l3.384-.967V13h2.471v2.5H70.135V19.95q0,1.719,1.364,1.719a2.3,2.3,0,0,0,1.106-.312Zm11.709-4.4H77.139q.172,2.4,3.019,2.4A5.893,5.893,0,0,0,83.348,21v2.449a8.381,8.381,0,0,1-3.964.816,5.58,5.58,0,0,1-4.136-1.477,5.58,5.58,0,0,1-1.472-4.12,5.887,5.887,0,0,1,1.59-4.34,5.3,5.3,0,0,1,3.91-1.6A4.807,4.807,0,0,1,83,14.16a5.5,5.5,0,0,1,1.316,3.878Zm-3.147-2.084q0-2.363-1.912-2.363a1.826,1.826,0,0,0-1.413.677,3.072,3.072,0,0,0-.725,1.687Z" transform="translate(759.058 8254.164)" fill="#0b0a0a"/>
    <path id="Trazado_1177385" data-name="Trazado 1177385" d="M6.094,24V8.6h5.457q8.207,0,8.207,7.509a7.593,7.593,0,0,1-2.24,5.747A8.259,8.259,0,0,1,11.551,24Zm3.47-12.579v9.765h1.719a4.644,4.644,0,0,0,3.54-1.354,5.136,5.136,0,0,0,1.284-3.685,4.659,4.659,0,0,0-1.273-3.464,4.853,4.853,0,0,0-3.572-1.262Zm22.3,8.046H24.689q.172,2.4,3.019,2.4A5.893,5.893,0,0,0,30.9,21v2.449a8.381,8.381,0,0,1-3.964.816A5.58,5.58,0,0,1,22.8,22.792a5.58,5.58,0,0,1-1.472-4.12,5.887,5.887,0,0,1,1.59-4.34,5.3,5.3,0,0,1,3.91-1.6,4.807,4.807,0,0,1,3.722,1.429,5.5,5.5,0,0,1,1.316,3.878Zm-3.147-2.084q0-2.363-1.912-2.363a1.826,1.826,0,0,0-1.413.677,3.072,3.072,0,0,0-.725,1.687Zm4.447,6.327V20.96a7.227,7.227,0,0,0,1.67.752,5.538,5.538,0,0,0,1.574.247,3.375,3.375,0,0,0,1.423-.247.8.8,0,0,0,.521-.752.7.7,0,0,0-.236-.537,2.2,2.2,0,0,0-.607-.376,6.887,6.887,0,0,0-.811-.29q-.44-.129-.849-.29a8.131,8.131,0,0,1-1.155-.532,3.338,3.338,0,0,1-.838-.661,2.6,2.6,0,0,1-.516-.87,3.472,3.472,0,0,1-.177-1.171,3.014,3.014,0,0,1,.4-1.59,3.29,3.29,0,0,1,1.074-1.09,4.908,4.908,0,0,1,1.536-.623,8.01,8.01,0,0,1,1.8-.2,9.984,9.984,0,0,1,1.482.113,11.064,11.064,0,0,1,1.482.328v2.621a5.357,5.357,0,0,0-1.38-.564,5.823,5.823,0,0,0-1.445-.188,3.2,3.2,0,0,0-.628.059,2.07,2.07,0,0,0-.521.172.957.957,0,0,0-.354.29.668.668,0,0,0-.129.4.744.744,0,0,0,.193.516,1.679,1.679,0,0,0,.5.371,4.984,4.984,0,0,0,.693.279q.381.124.757.252a9.847,9.847,0,0,1,1.225.516,3.916,3.916,0,0,1,.94.655,2.573,2.573,0,0,1,.6.881,3.524,3.524,0,0,1-.215,2.874,3.4,3.4,0,0,1-1.128,1.128,5.115,5.115,0,0,1-1.622.634,8.992,8.992,0,0,1-1.907.2A9.83,9.83,0,0,1,33.165,23.71ZM47,22.722h-.043V29.06H43.563V13h3.395v1.654H47a4.32,4.32,0,0,1,6.837-.457A6.243,6.243,0,0,1,55,18.188,6.767,6.767,0,0,1,53.645,22.6a4.431,4.431,0,0,1-3.615,1.665A3.425,3.425,0,0,1,47,22.722Zm-.1-4.512v.881a2.8,2.8,0,0,0,.6,1.858,1.958,1.958,0,0,0,1.579.72,2.081,2.081,0,0,0,1.8-.9,4.331,4.331,0,0,0,.639-2.541q0-2.9-2.256-2.9a2.118,2.118,0,0,0-1.7.79A3.149,3.149,0,0,0,46.9,18.21ZM67.658,24H64.274V22.324H64.22a3.839,3.839,0,0,1-3.362,1.944q-3.824,0-3.824-4.63V13h3.384v6.338q0,2.331,1.848,2.331a1.828,1.828,0,0,0,1.461-.639,2.577,2.577,0,0,0,.548-1.735V13h3.384ZM80.4,19.467H73.222q.172,2.4,3.019,2.4A5.893,5.893,0,0,0,79.431,21v2.449a8.381,8.381,0,0,1-3.964.816,5.58,5.58,0,0,1-4.136-1.477,5.58,5.58,0,0,1-1.472-4.12,5.887,5.887,0,0,1,1.59-4.34,5.3,5.3,0,0,1,3.91-1.6,4.807,4.807,0,0,1,3.722,1.429A5.5,5.5,0,0,1,80.4,18.038ZM77.25,17.383q0-2.363-1.912-2.363a1.826,1.826,0,0,0-1.413.677,3.072,3.072,0,0,0-.725,1.687ZM78.98,7.79l-3.362,3.47H73.168l2.793-3.47ZM81.7,23.71V20.96a7.227,7.227,0,0,0,1.67.752,5.539,5.539,0,0,0,1.574.247,3.375,3.375,0,0,0,1.423-.247.8.8,0,0,0,.521-.752.7.7,0,0,0-.236-.537,2.2,2.2,0,0,0-.607-.376,6.888,6.888,0,0,0-.811-.29q-.44-.129-.849-.29a8.131,8.131,0,0,1-1.155-.532,3.338,3.338,0,0,1-.838-.661,2.6,2.6,0,0,1-.516-.87,3.472,3.472,0,0,1-.177-1.171,3.014,3.014,0,0,1,.4-1.59,3.29,3.29,0,0,1,1.074-1.09,4.908,4.908,0,0,1,1.536-.623,8.01,8.01,0,0,1,1.8-.2,9.984,9.984,0,0,1,1.482.113,11.064,11.064,0,0,1,1.482.328v2.621a5.357,5.357,0,0,0-1.38-.564,5.823,5.823,0,0,0-1.445-.188,3.2,3.2,0,0,0-.628.059,2.07,2.07,0,0,0-.521.172.957.957,0,0,0-.354.29.668.668,0,0,0-.129.4.744.744,0,0,0,.193.516,1.679,1.679,0,0,0,.5.371,4.984,4.984,0,0,0,.693.279q.381.124.757.252a9.847,9.847,0,0,1,1.225.516,3.916,3.916,0,0,1,.94.655,2.573,2.573,0,0,1,.6.881,3.524,3.524,0,0,1-.215,2.874,3.4,3.4,0,0,1-1.128,1.128,5.115,5.115,0,0,1-1.622.634,8.992,8.992,0,0,1-1.907.2A9.83,9.83,0,0,1,81.7,23.71Z" transform="translate(966.424 8216.402)" fill="#0b0a0a"/>
    <g id="llamada-de-emergencia" transform="translate(514.009 8230.892)">
      <path id="Trazado_1175980" data-name="Trazado 1175980" d="M74.866,232.971,70.917,238.4A31.83,31.83,0,0,1,54.64,226.55l3.949-5.425-8.877-10.61-5.473,4.579A11.829,11.829,0,0,0,42.2,231.038,55.283,55.283,0,0,0,70.47,251.613h0a11.829,11.829,0,0,0,14.546-6.841l2.675-6.616-12.825-5.185Z" transform="translate(-6.673 -149.017)" fill="#e42a3c"/>
      <path id="Trazado_1175981" data-name="Trazado 1175981" d="M216.163,79.325a23.662,23.662,0,1,0-37.426-2.241l.589,8.517,8.517-.589a23.672,23.672,0,0,0,28.32-5.687Z" transform="translate(-119.2 -6.627)" fill="#ffc864"/>
      <path id="Trazado_1175982" data-name="Trazado 1175982" d="M81.511,230.252l-12.825-5.185a1.315,1.315,0,0,0-1.556.445l-3.382,4.647A30.743,30.743,0,0,1,49.6,219.86l3.382-4.647a1.315,1.315,0,0,0-.055-1.617l-8.877-10.61a1.314,1.314,0,0,0-1.852-.165L36.723,207.4a13.144,13.144,0,0,0-2.264,17.717A56.6,56.6,0,0,0,63.4,246.181a13.144,13.144,0,0,0,16.163-7.6l2.675-6.616a1.315,1.315,0,0,0-.726-1.711Zm-4.386,7.342A10.514,10.514,0,0,1,64.2,243.675a53.968,53.968,0,0,1-27.6-20.086,10.514,10.514,0,0,1,1.811-14.173l4.465-3.735L50.25,214.5l-3.345,4.6a1.315,1.315,0,0,0-.007,1.537,33.353,33.353,0,0,0,16.949,12.336,1.315,1.315,0,0,0,1.461-.479l3.345-4.6L79.307,232.2l-2.182,5.4Z" transform="translate(0 -142.332)"/>
      <path id="Trazado_1175983" data-name="Trazado 1175983" d="M90.335,248.524l-3.944-3.944a1.315,1.315,0,0,0-1.859,1.859l3.944,3.944a1.315,1.315,0,1,0,1.859-1.859Z" transform="translate(-43.565 -177.164)"/>
      <path id="Trazado_1175984" data-name="Trazado 1175984" d="M252.285,372.921a1.315,1.315,0,0,0,.588,1.764l5.258,2.629a1.315,1.315,0,1,0,1.176-2.352l-5.258-2.629A1.315,1.315,0,0,0,252.285,372.921Z" transform="translate(-183.958 -284.129)"/>
      <path id="Trazado_1175985" data-name="Trazado 1175985" d="M208.023,38.323A24.98,24.98,0,0,0,170.757,70.9l.565,8.167a1.312,1.312,0,0,0,1.4,1.221l8.167-.565a24.98,24.98,0,0,0,27.132-41.4Zm.455,33.512a22.355,22.355,0,0,1-26.746,5.371,1.315,1.315,0,0,0-.583-.136c-.03,0-.06,0-.091,0l-7.205.5-.5-7.205a1.315,1.315,0,0,0-.224-.648,22.35,22.35,0,1,1,35.347,2.117Z" transform="translate(-112.507)"/>
      <path id="Trazado_1175986" data-name="Trazado 1175986" d="M232.091,134.824a1.316,1.316,0,0,1,1.315,1.315,1.315,1.315,0,0,0,2.629,0,3.944,3.944,0,1,0-7.887,0,4.459,4.459,0,0,0,1.315,3.174l3.4,3.4a1.847,1.847,0,0,1,.545,1.315,1.315,1.315,0,1,1-2.629,0,1.315,1.315,0,1,0-2.629,0,3.944,3.944,0,0,0,7.887,0,4.46,4.46,0,0,0-1.315-3.174l-3.4-3.4a1.847,1.847,0,0,1-.544-1.314,1.316,1.316,0,0,1,1.315-1.315Z" transform="translate(-163.903 -83.567)"/>
      <path id="Trazado_1175987" data-name="Trazado 1175987" d="M368.091,134.824a1.316,1.316,0,0,1,1.315,1.315,1.315,1.315,0,0,0,2.629,0,3.944,3.944,0,1,0-7.887,0,4.459,4.459,0,0,0,1.315,3.174l3.4,3.4a1.847,1.847,0,0,1,.545,1.315,1.315,1.315,0,0,1-2.629,0,1.315,1.315,0,1,0-2.629,0,3.944,3.944,0,0,0,7.887,0,4.46,4.46,0,0,0-1.315-3.174l-3.4-3.4a1.847,1.847,0,0,1-.544-1.314,1.316,1.316,0,0,1,1.315-1.315Z" transform="translate(-277.555 -83.567)"/>
      <path id="Trazado_1175988" data-name="Trazado 1175988" d="M296.748,132.2a4.606,4.606,0,0,0-4.6,4.6v6.573a4.6,4.6,0,0,0,9.2,0V136.8A4.606,4.606,0,0,0,296.748,132.2Zm1.972,11.174a1.972,1.972,0,0,1-3.944,0V136.8a1.972,1.972,0,0,1,3.944,0Z" transform="translate(-217.386 -83.567)"/>
    </g>
    <g id="salida-de-emergencia" transform="translate(762.964 8279.174)">
      <g id="Grupo_1232843" data-name="Grupo 1232843" transform="translate(0.924 20.972)">
        <path id="Trazado_1175989" data-name="Trazado 1175989" d="M34.471,332.1h8.623a2.217,2.217,0,0,0,1.47-.557l6.666-5.9.443-3.056-8.625-1.521-1.093,5.876L34.012,328.1Z" transform="translate(-30.745 -284.896)" fill="#444"/>
        <path id="Trazado_1175990" data-name="Trazado 1175990" d="M252.728,83.853h28.719a1.229,1.229,0,0,0,1.229-1.229V28.777a1.229,1.229,0,0,0-1.229-1.229H252.728a1.229,1.229,0,0,0-1.229,1.229V82.623A1.23,1.23,0,0,0,252.728,83.853Z" transform="translate(-221.431 -27.548)" fill="#9c9c9c"/>
        <path id="Trazado_1175991" data-name="Trazado 1175991" d="M251.5,82.623V28.777a1.23,1.23,0,0,1,1.229-1.229L262.1,30.5a1.107,1.107,0,0,1,.774,1.055v52.3H252.729a1.229,1.229,0,0,1-1.229-1.229Z" transform="translate(-221.432 -27.548)" fill="#5a5a5a"/>
        <path id="Trazado_1175992" data-name="Trazado 1175992" d="M191.033,246.821l-3.054,3.326,3.057,2.652a1.9,1.9,0,0,0,1.938.333l6.824-2.682a1.86,1.86,0,0,0-1.091-3.545l-5.993,1.357a.467.467,0,0,1-.442-.134Z" transform="translate(-165.738 -219.8)" fill="#ffcebf"/>
        <path id="Trazado_1175993" data-name="Trazado 1175993" d="M24.9,207.262l-3.536.251a1.9,1.9,0,0,0-1.606,1.135l-2.929,6.722a1.86,1.86,0,0,0,3.278,1.735l3.278-5.2a.467.467,0,0,1,.408-.218l1.593.042Z" transform="translate(-15.541 -185.116)" fill="#ffcebf"/>
        <path id="Trazado_1175994" data-name="Trazado 1175994" d="M153.044,211.259l-5.073-5.345a2.553,2.553,0,1,0-3.524,3.686l5.492,4.764Z" transform="translate(-126.799 -183.236)" fill="#0067c5"/>
        <path id="Trazado_1175995" data-name="Trazado 1175995" d="M251.144,329.727l-7.064-5.116a.492.492,0,0,0-.78.4v2.359H231.525a.492.492,0,0,0-.492.492v4.531a.492.492,0,0,0,.492.492H243.3v2.359a.492.492,0,0,0,.78.4l7.064-5.116a.492.492,0,0,0,0-.8Z" transform="translate(-203.487 -287.921)" fill="#e94444"/>
        <path id="Trazado_1175996" data-name="Trazado 1175996" d="M105.828,216.974,95.78,215.2l1.83-10.377a5.1,5.1,0,0,1,10.048,1.772Z" transform="translate(-84.901 -179.282)" fill="#0473ce"/>
        <circle id="Elipse_14264" data-name="Elipse 14264" cx="5.348" cy="5.348" r="5.348" transform="translate(14.945 10.947)" fill="#ffcebf"/>
        <path id="Trazado_1175997" data-name="Trazado 1175997" d="M103.883,328.414a2.415,2.415,0,0,0-.59-1.716l-5.7-6.543-6.382-1.125-.547,2.545a4.223,4.223,0,0,0,2.166,4.626L99,329.441a.7.7,0,0,1,.372.557l.553,6.057h3.542Z" transform="translate(-80.336 -283.11)" fill="#838383"/>
        <path id="Trazado_1175998" data-name="Trazado 1175998" d="M80.8,203.432l-7.857.558.392,4.342,7.579.2a2.553,2.553,0,1,0-.114-5.1Z" transform="translate(-64.88 -181.752)" fill="#0067c5"/>
        <path id="Trazado_1175999" data-name="Trazado 1175999" d="M10.767,378.116H8.361a.861.861,0,0,0-.861.861v5.738a1.382,1.382,0,0,0,2.7.421l.945-2.951.085-.061Z" transform="translate(-7.5 -334.915)" fill="#d3e1f5"/>
        <path id="Trazado_1176000" data-name="Trazado 1176000" d="M172.18,457.8l-2.151-.592v-.028h-3.542v2.41a.889.889,0,0,0,.889.889h4.455a1.312,1.312,0,0,0,1.312-1.312v-.1a1.312,1.312,0,0,0-.964-1.265Z" transform="translate(-146.896 -404.239)" fill="#d3e1f5"/>
        <g id="Grupo_1232842" data-name="Grupo 1232842" transform="translate(25.297 27.058)">
          <path id="Trazado_1176001" data-name="Trazado 1176001" d="M222.633,248.4a1.86,1.86,0,0,0-2.178-1.235l-1.3.3a1.859,1.859,0,0,1-.392,3.25l-5.976,2.349h0a1.9,1.9,0,0,0,1.938.333l6.824-2.682A1.86,1.86,0,0,0,222.633,248.4Z" transform="translate(-212.782 -247.12)" fill="#ffb09e"/>
        </g>
        <path id="Trazado_1176002" data-name="Trazado 1176002" d="M162.26,116.379a5.349,5.349,0,0,0-1.394.185,5.349,5.349,0,0,1,0,10.327,5.348,5.348,0,1,0,1.394-10.512Z" transform="translate(-141.967 -105.432)" fill="#ffb09e"/>
        <path id="Trazado_1176003" data-name="Trazado 1176003" d="M177.534,457.8l-2.151-.592v-.028H172.6v.028l2.151.592a1.312,1.312,0,0,1,.964,1.265v.1a1.312,1.312,0,0,1-1.312,1.312h2.788a1.312,1.312,0,0,0,1.312-1.312v-.1A1.312,1.312,0,0,0,177.534,457.8Z" transform="translate(-152.25 -404.239)" fill="#c0d6f2"/>
        <path id="Trazado_1176004" data-name="Trazado 1176004" d="M251.144,329.727l-7.064-5.116a.492.492,0,0,0-.78.4v2.359H231.525a.492.492,0,0,0-.492.492v4.531a.492.492,0,0,0,.492.492H243.3v2.359a.492.492,0,0,0,.78.4l7.064-5.116a.492.492,0,0,0,0-.8Z" transform="translate(-203.487 -287.921)" fill="#e94444"/>
        <path id="Trazado_1176005" data-name="Trazado 1176005" d="M128.457,333.253l-3.133-6.741-5.787-.538,1.256,1.256,5.868,6.741a2.488,2.488,0,0,1,.608,1.767l-.387,7.153h1.756l.426-7.871A2.489,2.489,0,0,0,128.457,333.253Z" transform="translate(-105.731 -289.199)" fill="#5a5a5a"/>
      </g>
      <path id="Trazado_1176006" data-name="Trazado 1176006" d="M60.94,20.048H58.476a.924.924,0,1,0,0,1.848H60.94a.306.306,0,0,1,.305.305V76.047a.306.306,0,0,1-.305.305H43.289v-7.8l5.835-4.226a1.416,1.416,0,0,0,0-2.294L43.289,57.8V24.977a2.023,2.023,0,0,0-1.421-1.937L38.236,21.9H54.163a.924.924,0,1,0,0-1.848H32.222A2.156,2.156,0,0,0,30.068,22.2V48l-2.118.48c-9.219-9.715-1.034-1.08-4.907-5.207a6.278,6.278,0,1,0-6.278-1.588q-.092.031-.184.064l-9.9.7a2.814,2.814,0,0,0-2.388,1.688L1.362,50.858a2.784,2.784,0,0,0,4.908,2.6l3.139-4.978,2.925.076C10.645,58.141,11.05,56,10.353,59.243a5.136,5.136,0,0,0,.285,3.059l-6.513.946H1.785A1.787,1.787,0,0,0,0,65.034v5.738a2.262,2.262,0,0,0,1.949,2.271A2.264,2.264,0,0,0,4.5,71.475l.759-2.37H6.694a.924.924,0,0,0,0-1.848H5.474l-.263-2.3L11.785,64c.674.661,1.093.818,3.374,2.016l-1.029.912c-.47.416-.733.325-3.122.325a.924.924,0,0,0,0,1.848h2.265c1.46,0,2.093-.8,3.637-2.166l2.144,1.126c.632,6.924.538,5.239.538,8.261a1.816,1.816,0,0,0,1.814,1.814h4.458a2.3,2.3,0,0,0,.59-4.5L25.02,73.25l.374-6.925a3.322,3.322,0,0,0-.816-2.373l-2.195-2.521.38-2.621,1.012-5.738,1.841,1.6a2.814,2.814,0,0,0,2.882.495l1.569-.617v4.948H28.962a1.418,1.418,0,0,0-1.416,1.416v4.531a1.418,1.418,0,0,0,1.416,1.416h1.106c0,9.9-.042,9.42.108,9.858A2.157,2.157,0,0,0,32.222,78.2H60.941a2.156,2.156,0,0,0,2.154-2.154V22.2a2.156,2.156,0,0,0-2.154-2.154ZM7.984,47.272l-3.278,5.2A.936.936,0,0,1,3.057,51.6l2.929-6.722a.971.971,0,0,1,.824-.583l1.34-.1.24,2.66A1.384,1.384,0,0,0,7.984,47.272ZM3.685,67.96,2.74,70.911a.421.421,0,0,1-.506.306.419.419,0,0,1-.386-.445V65.1H3.367l.325,2.842ZM21.218,32.843a4.424,4.424,0,1,1-4.424,4.424A4.429,4.429,0,0,1,21.218,32.843ZM10.228,46.65l-.233-2.585,6.913-.491h0a1.628,1.628,0,1,1,.073,3.252ZM25.963,75.427c.43.118.37.864-.1.864h-4.42V74.841h2.39Zm-2.779-10.26a1.483,1.483,0,0,1,.364,1.059l-.366,6.766H21.36l-.476-5.217a1.619,1.619,0,0,0-.863-1.291l-6.169-3.239a3.315,3.315,0,0,1-1.692-3.614l.36-1.675,8.289,1.461-.314,2.169a.924.924,0,0,0,.218.74ZM22.8,47.911c-.02.167-1.654,9.416-1.7,9.682l-8.228-1.451L14.2,48.6c.074,0,2.75.073,2.824.073a3.482,3.482,0,0,0,3.023-5.193l-.013-.025a4.145,4.145,0,0,1,2.018,1.516A4.189,4.189,0,0,1,22.8,47.911ZM31.917,22.2a.3.3,0,0,1,.213-.289L41.313,24.8a.181.181,0,0,1,.127.174V56.659a1.422,1.422,0,0,0-1.627,1.4s0,0,0,0V59.5h-7.9V53.821l3.406-1.339.007,0a2.784,2.784,0,0,0-1.641-5.3l-1.773.4ZM24.673,47.731c0-.007,0-.014,0-.022l1.2,1.269L24.2,50.654a26.107,26.107,0,0,0,.471-2.923Zm3.15,5.713a.972.972,0,0,1-.995-.171l-1.409-1.222,1.806-1.806a1.393,1.393,0,0,0,.88.09L34.1,48.978a.936.936,0,0,1,.549,1.784l-6.824,2.683ZM41.441,76.353H32.222a.306.306,0,0,1-.3-.248.3.3,0,0,1-.006-.057v-9.19h7.9v1.435s0,0,0,0a1.416,1.416,0,0,0,.772,1.258h0a1.426,1.426,0,0,0,.855.14Zm.221-8.908V65.933a.924.924,0,0,0-.924-.924H29.395V61.343H40.737a.924.924,0,0,0,.924-.924V58.908l5.894,4.269Z" transform="translate(0 0)"/>
    </g>
    <g id="lista-de-verificacion_4_" data-name="lista-de-verificacion (4)" transform="translate(951.034 8260.167)">
      <g id="Grupo_1232844" data-name="Grupo 1232844" transform="translate(39.804 0.914)">
        <path id="Trazado_1176007" data-name="Trazado 1176007" d="M89.7,68.039H48.36a1.969,1.969,0,0,1-1.969-1.969V9.469A1.969,1.969,0,0,1,48.36,7.5H89.7a1.969,1.969,0,0,1,1.969,1.969v56.6A1.969,1.969,0,0,1,89.7,68.039Z" transform="translate(-46.391 -7.5)" fill="#ecf4ff"/>
      </g>
      <g id="Grupo_1232845" data-name="Grupo 1232845" transform="translate(80.655 0.914)">
        <path id="Trazado_1176008" data-name="Trazado 1176008" d="M384.226,7.5h-2.461a1.969,1.969,0,0,1,1.969,1.969v56.6a1.969,1.969,0,0,1-1.969,1.969h2.461a1.969,1.969,0,0,0,1.969-1.969V9.469A1.969,1.969,0,0,0,384.226,7.5Z" transform="translate(-381.765 -7.5)" fill="#ddeafb"/>
      </g>
      <g id="Grupo_1232864" data-name="Grupo 1232864" transform="translate(44.603 8.789)">
        <g id="Grupo_1232851" data-name="Grupo 1232851" transform="translate(0)">
          <g id="Grupo_1232850" data-name="Grupo 1232850">
            <g id="Grupo_1232849" data-name="Grupo 1232849">
              <g id="Grupo_1232848" data-name="Grupo 1232848">
                <g id="Grupo_1232846" data-name="Grupo 1232846" transform="translate(0)">
                  <path id="Trazado_1176009" data-name="Trazado 1176009" d="M96.335,84.455H87.546A1.758,1.758,0,0,1,85.788,82.7V73.908a1.758,1.758,0,0,1,1.758-1.758h8.789a1.758,1.758,0,0,1,1.758,1.758V82.7A1.758,1.758,0,0,1,96.335,84.455Z" transform="translate(-85.788 -72.15)" fill="#b3e59f"/>
                </g>
                <g id="Grupo_1232847" data-name="Grupo 1232847" transform="translate(0 0.008)">
                  <path id="Trazado_1176010" data-name="Trazado 1176010" d="M96.483,72.212q.028.366.028.74a9.624,9.624,0,0,1-9.624,9.624,9.734,9.734,0,0,1-1.1-.063v.239a1.758,1.758,0,0,0,1.758,1.758h8.789a1.758,1.758,0,0,0,1.758-1.758V73.962A1.757,1.757,0,0,0,96.483,72.212Z" transform="translate(-85.788 -72.212)" fill="#95d6a4"/>
                </g>
              </g>
            </g>
          </g>
        </g>
        <g id="Grupo_1232857" data-name="Grupo 1232857" transform="translate(0 16.242)">
          <g id="Grupo_1232856" data-name="Grupo 1232856">
            <g id="Grupo_1232855" data-name="Grupo 1232855">
              <g id="Grupo_1232854" data-name="Grupo 1232854">
                <g id="Grupo_1232852" data-name="Grupo 1232852" transform="translate(0)">
                  <path id="Trazado_1176011" data-name="Trazado 1176011" d="M96.335,217.8H87.546a1.758,1.758,0,0,1-1.758-1.758V207.25a1.758,1.758,0,0,1,1.758-1.758h8.789a1.758,1.758,0,0,1,1.758,1.758v8.789A1.758,1.758,0,0,1,96.335,217.8Z" transform="translate(-85.788 -205.492)" fill="#b3e59f"/>
                </g>
                <g id="Grupo_1232853" data-name="Grupo 1232853" transform="translate(0 0.007)">
                  <path id="Trazado_1176012" data-name="Trazado 1176012" d="M96.483,205.553q.028.366.028.74a9.624,9.624,0,0,1-10.723,9.561v.239a1.758,1.758,0,0,0,1.758,1.758h8.789a1.758,1.758,0,0,0,1.758-1.758V207.3A1.757,1.757,0,0,0,96.483,205.553Z" transform="translate(-85.788 -205.553)" fill="#95d6a4"/>
                </g>
              </g>
            </g>
          </g>
        </g>
        <g id="Grupo_1232863" data-name="Grupo 1232863" transform="translate(0 32.485)">
          <g id="Grupo_1232862" data-name="Grupo 1232862">
            <g id="Grupo_1232861" data-name="Grupo 1232861">
              <g id="Grupo_1232860" data-name="Grupo 1232860">
                <g id="Grupo_1232858" data-name="Grupo 1232858" transform="translate(0)">
                  <path id="Trazado_1176013" data-name="Trazado 1176013" d="M96.335,351.139H87.546a1.758,1.758,0,0,1-1.758-1.758v-8.789a1.758,1.758,0,0,1,1.758-1.758h8.789a1.758,1.758,0,0,1,1.758,1.758v8.789A1.758,1.758,0,0,1,96.335,351.139Z" transform="translate(-85.788 -338.834)" fill="#b3e59f"/>
                </g>
                <g id="Grupo_1232859" data-name="Grupo 1232859" transform="translate(0 0.007)">
                  <path id="Trazado_1176014" data-name="Trazado 1176014" d="M96.483,338.9q.028.366.028.74A9.625,9.625,0,0,1,85.788,349.2v.239a1.758,1.758,0,0,0,1.758,1.758h8.789a1.758,1.758,0,0,0,1.758-1.758v-8.789A1.757,1.757,0,0,0,96.483,338.9Z" transform="translate(-85.788 -338.895)" fill="#95d6a4"/>
                </g>
              </g>
            </g>
          </g>
        </g>
      </g>
      <g id="Grupo_1232869" data-name="Grupo 1232869" transform="translate(70.947 29.959)">
        <g id="Grupo_1232865" data-name="Grupo 1232865" transform="translate(0)">
          <path id="Trazado_1176015" data-name="Trazado 1176015" d="M304.684,276.441l-2.3,1-.285-2.494a4.922,4.922,0,0,1,.627-3.021l15-25.98,4.262,2.461-15,25.98A4.922,4.922,0,0,1,304.684,276.441Z" transform="translate(-302.064 -245.947)" fill="#4a80aa"/>
        </g>
        <g id="Grupo_1232866" data-name="Grupo 1232866" transform="translate(0.106 1.354)">
          <path id="Trazado_1176016" data-name="Trazado 1176016" d="M320.829,257.059l-15,25.98a4.922,4.922,0,0,1-2.3,2.054l-.6.259.212,1.848,2.3-1a4.922,4.922,0,0,0,2.3-2.054l15-25.98Z" transform="translate(-302.932 -257.059)" fill="#407093"/>
        </g>
        <g id="Grupo_1232867" data-name="Grupo 1232867" transform="translate(11.474 3.838)">
          <path id="Trazado_1176017" data-name="Trazado 1176017" d="M0,0H3.937V4.922H0Z" transform="matrix(0.5, -0.866, 0.866, 0.5, 0, 3.41)" fill="#ffe07d"/>
        </g>
        <g id="Grupo_1232868" data-name="Grupo 1232868" transform="translate(13.819 5.191)">
          <path id="Trazado_1176018" data-name="Trazado 1176018" d="M0,0H3.937V2.215H0Z" transform="matrix(0.5, -0.866, 0.866, 0.5, 0, 3.41)" fill="#ffd064"/>
        </g>
      </g>
      <g id="Grupo_1232870" data-name="Grupo 1232870" transform="translate(38.89 0)">
        <path id="Trazado_1176019" data-name="Trazado 1176019" d="M39.8,50.228a.914.914,0,0,0,.914-.914V2.882a1.056,1.056,0,0,1,1.055-1.055H83.116a1.056,1.056,0,0,1,1.055,1.055v9.681a.914.914,0,0,0,1.827,0V2.882A2.885,2.885,0,0,0,83.116,0H41.772A2.885,2.885,0,0,0,38.89,2.882V49.314a.914.914,0,0,0,.914.914Z" transform="translate(-38.89 0)"/>
        <path id="Trazado_1176020" data-name="Trazado 1176020" d="M92.419,67.321a2.674,2.674,0,0,0-2.671-2.671H80.958a2.674,2.674,0,0,0-2.671,2.671V76.11a2.674,2.674,0,0,0,2.671,2.672h8.789a2.674,2.674,0,0,0,2.671-2.672ZM90.592,76.11a.845.845,0,0,1-.844.844H80.958a.845.845,0,0,1-.844-.844V67.321a.845.845,0,0,1,.844-.844h8.789a.845.845,0,0,1,.844.844Z" transform="translate(-73.488 -56.775)"/>
        <path id="Trazado_1176021" data-name="Trazado 1176021" d="M115.557,102.631l-2.471,2.471-.913-.913a.913.913,0,1,0-1.292,1.292l1.559,1.559a.914.914,0,0,0,1.292,0l3.117-3.117a.914.914,0,0,0-1.292-1.292Z" transform="translate(-101.877 -89.895)"/>
        <path id="Trazado_1176022" data-name="Trazado 1176022" d="M226.685,114.966h14.4a.914.914,0,0,0,0-1.827h-14.4a.914.914,0,1,0,0,1.827Z" transform="translate(-203.007 -99.358)"/>
        <path id="Trazado_1176023" data-name="Trazado 1176023" d="M309.163,80.813h-8.736a.914.914,0,1,0,0,1.827h8.736a.914.914,0,1,0,0-1.827Z" transform="translate(-267.767 -70.969)"/>
        <path id="Trazado_1176024" data-name="Trazado 1176024" d="M226.685,82.64h4.676a.914.914,0,0,0,0-1.827h-4.676a.914.914,0,0,0,0,1.827Z" transform="translate(-203.007 -70.969)"/>
        <path id="Trazado_1176025" data-name="Trazado 1176025" d="M272.142,145.464a.914.914,0,0,0,0,1.827h4.8a.914.914,0,1,0,0-1.827Z" transform="translate(-242.927 -127.745)"/>
        <path id="Trazado_1176026" data-name="Trazado 1176026" d="M226.685,147.291h1.231a.914.914,0,0,0,0-1.827h-1.231a.914.914,0,1,0,0,1.827Z" transform="translate(-203.007 -127.745)"/>
        <path id="Trazado_1176027" data-name="Trazado 1176027" d="M92.419,200.663a2.674,2.674,0,0,0-2.671-2.671H80.958a2.674,2.674,0,0,0-2.671,2.671v8.789a2.674,2.674,0,0,0,2.671,2.671h8.789a2.674,2.674,0,0,0,2.671-2.671Zm-1.827,8.789a.845.845,0,0,1-.844.844H80.958a.845.845,0,0,1-.844-.844v-8.789a.845.845,0,0,1,.844-.844h8.789a.845.845,0,0,1,.844.844Z" transform="translate(-73.488 -173.875)"/>
        <path id="Trazado_1176028" data-name="Trazado 1176028" d="M115.557,235.973l-2.471,2.471-.913-.913a.914.914,0,0,0-1.292,1.292l1.559,1.559a.914.914,0,0,0,1.292,0l3.117-3.117a.914.914,0,0,0-1.292-1.292Z" transform="translate(-101.877 -206.994)"/>
        <path id="Trazado_1176029" data-name="Trazado 1176029" d="M241.995,247.393a.914.914,0,0,0-.914-.914h-14.4a.914.914,0,0,0,0,1.827h14.4A.913.913,0,0,0,241.995,247.393Z" transform="translate(-203.007 -216.456)"/>
        <path id="Trazado_1176030" data-name="Trazado 1176030" d="M310.077,215.068a.914.914,0,0,0-.914-.914h-8.736a.914.914,0,1,0,0,1.827h8.736A.914.914,0,0,0,310.077,215.068Z" transform="translate(-267.767 -188.068)"/>
        <path id="Trazado_1176031" data-name="Trazado 1176031" d="M226.685,215.981h4.676a.914.914,0,0,0,0-1.827h-4.676a.914.914,0,0,0,0,1.827Z" transform="translate(-203.007 -188.068)"/>
        <path id="Trazado_1176032" data-name="Trazado 1176032" d="M277.855,279.719a.914.914,0,0,0-.914-.914h-4.8a.914.914,0,0,0,0,1.827h4.8A.914.914,0,0,0,277.855,279.719Z" transform="translate(-242.928 -244.844)"/>
        <path id="Trazado_1176033" data-name="Trazado 1176033" d="M226.685,280.632h1.231a.914.914,0,0,0,0-1.827h-1.231a.914.914,0,1,0,0,1.827Z" transform="translate(-203.007 -244.844)"/>
        <path id="Trazado_1176034" data-name="Trazado 1176034" d="M89.748,331.333H80.958A2.674,2.674,0,0,0,78.287,334v8.789a2.674,2.674,0,0,0,2.671,2.671h8.789a2.674,2.674,0,0,0,2.671-2.671V334A2.674,2.674,0,0,0,89.748,331.333Zm.844,11.461a.845.845,0,0,1-.844.844H80.958a.845.845,0,0,1-.844-.844V334a.845.845,0,0,1,.844-.844h8.789a.845.845,0,0,1,.844.844Z" transform="translate(-73.488 -290.974)"/>
        <path id="Trazado_1176035" data-name="Trazado 1176035" d="M115.557,369.314l-2.471,2.471-.913-.913a.914.914,0,0,0-1.292,1.292l1.559,1.559a.914.914,0,0,0,1.292,0l3.117-3.117a.914.914,0,0,0-1.292-1.292Z" transform="translate(-101.877 -324.093)"/>
        <path id="Trazado_1176036" data-name="Trazado 1176036" d="M226.685,349.323h4.676a.914.914,0,1,0,0-1.827h-4.676a.914.914,0,1,0,0,1.827Z" transform="translate(-203.007 -305.168)"/>
        <path id="Trazado_1176037" data-name="Trazado 1176037" d="M227.915,413.973a.914.914,0,0,0,0-1.827h-1.231a.914.914,0,1,0,0,1.827Z" transform="translate(-203.007 -361.943)"/>
        <path id="Trazado_1176038" data-name="Trazado 1176038" d="M91.751,146.91a.913.913,0,0,0-.426-.555l-4.262-2.461A.913.913,0,0,0,86,144V131.554a.914.914,0,0,0-1.827,0v15.523l-5.762,9.979h-6.86a.914.914,0,1,0,0,1.827h5.805l-1.218,2.11H62.567a.914.914,0,1,0,0,1.827H75.082l-1.219,2.11H68.1a.914.914,0,0,0,0,1.827h4.7l-1.993,3.451a5.79,5.79,0,0,0-.744,3.581l.169,1.476H41.772a1.056,1.056,0,0,1-1.055-1.055V168.3a.914.914,0,1,0-1.827,0v5.907a2.885,2.885,0,0,0,2.882,2.882H83.116A2.885,2.885,0,0,0,86,174.211v-16.8l5.661-9.806A.913.913,0,0,0,91.751,146.91Zm-5.4,6.235-2.68-1.547,1.055-1.828,2.68,1.547Zm-2.179,21.066a1.056,1.056,0,0,1-1.055,1.055H75.191a5.861,5.861,0,0,0,1.469-1.683l3.574-6.189a.914.914,0,1,0-1.582-.914l-3.574,6.189a4.038,4.038,0,0,1-1.875,1.673l-1.171.509-.145-1.268a3.977,3.977,0,0,1,.511-2.46L82.757,153.18l2.68,1.547-4.654,8.061a.914.914,0,0,0,1.582.914l1.806-3.128v13.637Zm4.148-24.476-2.68-1.547,1.3-2.254,2.68,1.547Z" transform="translate(-38.89 -114.727)"/>
      </g>
    </g>
  </g>
</svg>
