<svg xmlns="http://www.w3.org/2000/svg" xmlns:xlink="http://www.w3.org/1999/xlink" width="113" height="113" viewBox="0 0 113 113">
  <defs>
    <filter id="Trazado_982547" x="0" y="0" width="113" height="113" filterUnits="userSpaceOnUse">
      <feOffset dy="3" input="SourceAlpha"/>
      <feGaussianBlur stdDeviation="3" result="blur"/>
      <feFlood flood-opacity="0.161"/>
      <feComposite operator="in" in2="blur"/>
      <feComposite in="SourceGraphic"/>
    </filter>
  </defs>
  <g id="Grupo_1232876" data-name="Grupo 1232876" transform="translate(-271.425 -2073.349)">
    <g id="Grupo_1231178" data-name="Grupo 1231178" transform="translate(0 -3544.496)">
      <g id="Grupo_1230686" data-name="Grupo 1230686" transform="translate(0 -2146.377)">
        <g id="Grupo_1229014" data-name="Grupo 1229014" transform="translate(0 2131.042)">
          <g id="Grupo_1227502" data-name="Grupo 1227502" transform="translate(0 2048.198)">
            <g id="Grupo_1225350" data-name="Grupo 1225350" transform="translate(-0.575 -393.641)">
              <g id="Grupo_1208121" data-name="Grupo 1208121" transform="translate(0 -1922.377)">
                <g id="Grupo_1202432" data-name="Grupo 1202432" transform="translate(0 1255.486)">
                  <g id="Grupo_1202055" data-name="Grupo 1202055" transform="translate(0 3240.511)">
                    <g id="Grupo_1177900" data-name="Grupo 1177900" transform="translate(281 1411.003)">
                      <g id="Grupo_1172010" data-name="Grupo 1172010" transform="translate(0)">
                        <g id="Grupo_1171046" data-name="Grupo 1171046">
                          <g id="Grupo_1148525" data-name="Grupo 1148525">
                            <g transform="matrix(1, 0, 0, 1, -9, -6)" filter="url(#Trazado_982547)">
                              <g id="Trazado_982547-2" data-name="Trazado 982547" transform="translate(9 6)" fill="#ffefc0">
                                <path d="M 47.5 93.5 C 41.28937149047852 93.5 35.26533508300781 92.28397369384766 29.59518623352051 89.88570404052734 C 24.11771965026855 87.56893157958984 19.19813346862793 84.25196075439453 14.97309303283691 80.02691650390625 C 10.74804019927979 75.80186462402344 7.431066513061523 70.88229370117188 5.114293098449707 65.40481567382812 C 2.716026782989502 59.73468017578125 1.5 53.71062850952148 1.5 47.5 C 1.5 41.28937149047852 2.716026782989502 35.26533508300781 5.114293098449707 29.59518623352051 C 7.431066513061523 24.11771965026855 10.74804019927979 19.19813346862793 14.97309303283691 14.97309303283691 C 19.19813346862793 10.74804019927979 24.11771965026855 7.431066513061523 29.59518623352051 5.114293098449707 C 35.26533508300781 2.716026782989502 41.28937149047852 1.5 47.5 1.5 C 53.71062850952148 1.5 59.73468017578125 2.716026782989502 65.40481567382812 5.114293098449707 C 70.88229370117188 7.431066513061523 75.80186462402344 10.74804019927979 80.02691650390625 14.97309303283691 C 84.25196075439453 19.19813346862793 87.56893157958984 24.11771965026855 89.88570404052734 29.59518623352051 C 92.28397369384766 35.26533508300781 93.5 41.28937149047852 93.5 47.5 C 93.5 53.71062850952148 92.28397369384766 59.73468017578125 89.88570404052734 65.40481567382812 C 87.56893157958984 70.88229370117188 84.25196075439453 75.80186462402344 80.02691650390625 80.02691650390625 C 75.80186462402344 84.25196075439453 70.88229370117188 87.56893157958984 65.40481567382812 89.88570404052734 C 59.73468017578125 92.28397369384766 53.71062850952148 93.5 47.5 93.5 Z" stroke="none"/>
                                <path d="M 47.5 3 C 41.49121475219727 3 35.66376876831055 4.176155090332031 30.17950439453125 6.495796203613281 C 24.88084411621094 8.736953735351562 20.12152099609375 11.94598388671875 16.03375244140625 16.03375244140625 C 11.94598388671875 20.12152099609375 8.736953735351562 24.88084411621094 6.495796203613281 30.17950439453125 C 4.176155090332031 35.66376876831055 3 41.49121475219727 3 47.5 C 3 53.50878524780273 4.176155090332031 59.33623123168945 6.495796203613281 64.82049560546875 C 8.736953735351562 70.11915588378906 11.94598388671875 74.87847900390625 16.03375244140625 78.96624755859375 C 20.12152099609375 83.05401611328125 24.88084411621094 86.26304626464844 30.17950439453125 88.50419616699219 C 35.66376876831055 90.82384490966797 41.49121475219727 92 47.5 92 C 53.50878524780273 92 59.33623123168945 90.82384490966797 64.82049560546875 88.50419616699219 C 70.11915588378906 86.26304626464844 74.87847900390625 83.05401611328125 78.96624755859375 78.96624755859375 C 83.05401611328125 74.87847900390625 86.26304626464844 70.11915588378906 88.50419616699219 64.82049560546875 C 90.82384490966797 59.33623123168945 92 53.50878524780273 92 47.5 C 92 41.49121475219727 90.82384490966797 35.66376876831055 88.50419616699219 30.17950439453125 C 86.26304626464844 24.88084411621094 83.05401611328125 20.12152099609375 78.96624755859375 16.03375244140625 C 74.87847900390625 11.94598388671875 70.11915588378906 8.736953735351562 64.82049560546875 6.495796203613281 C 59.33623123168945 4.176155090332031 53.50878524780273 3 47.5 3 M 47.5 0 C 73.7335205078125 0 95 21.2664794921875 95 47.5 C 95 73.7335205078125 73.7335205078125 95 47.5 95 C 21.2664794921875 95 0 73.7335205078125 0 47.5 C 0 21.2664794921875 21.2664794921875 0 47.5 0 Z" stroke="none" fill="#fc3"/>
                              </g>
                            </g>
                          </g>
                        </g>
                      </g>
                    </g>
                  </g>
                </g>
              </g>
            </g>
          </g>
        </g>
      </g>
    </g>
    <g id="geografico" transform="translate(254.903 2087.613)">
      <g id="Grupo_1232875" data-name="Grupo 1232875" transform="translate(44.778 0.961)">
        <path id="Trazado_1176048" data-name="Trazado 1176048" d="M50.867,120.924A28.243,28.243,0,1,0,80.96,94.666a28.241,28.241,0,0,0-30.093,26.258Z" transform="translate(-50.8 -82.539)" fill="#5f96e6" fill-rule="evenodd"/>
        <path id="Trazado_1176049" data-name="Trazado 1176049" d="M54.546,127.164A28.3,28.3,0,0,1,75.837,96.618c-.047-.206-.09-.417-.125-.628a28.247,28.247,0,0,0,1.412,56.231,29.082,29.082,0,0,0,3.734.012l-.156-.012a28.217,28.217,0,0,1-26.157-25.056Z" transform="translate(-50.8 -83.738)" fill="#5186d6" fill-rule="evenodd"/>
        <path id="Trazado_1176050" data-name="Trazado 1176050" d="M84.017,124.443c.651-1.01,3.27-6.929,3.535-7,.46-1.565,2.641,1.483,2.758,2.641.515,4.994,6.629,3.219,7.206,7.472.39,2.848-5.217,5.872,1.007,5.587,3.831-.176,5.088-4.534,9.379-5.1,3.016-.394,13.511-3.246,9.988-7.05-1.58-1.709-8.326-.827-11.537-3.7-6.945-6.219-7.885-1.557-14.846-6.165-1.479-.983-2.3-2.72-3.211-3.976a28.355,28.355,0,0,0-15.47,13.765c3.66,2.864,8.568,7.565,11.19,3.519Z" transform="translate(-69.795 -93.37)" fill="#45bf64" fill-rule="evenodd"/>
        <path id="Trazado_1176051" data-name="Trazado 1176051" d="M279.529,375.174l-.152.035c-2.353.609-3.242,2.95-6.048,2.474-5.677-.96-3.7,1.506-7.76,2.528a3.366,3.366,0,0,1-3.788-2.072c-1.431-4.662-10.808-4.678-8.564,4.2a46.816,46.816,0,0,0,4.526,10.242A28.293,28.293,0,0,0,279.529,375.174Z" transform="translate(-225.058 -324.377)" fill="#45bf64" fill-rule="evenodd"/>
        <path id="Trazado_1176052" data-name="Trazado 1176052" d="M233.389,10.149a10.811,10.811,0,0,1,15.248,0c4.323,4.323,3.394,10.687,0,15.244l-7.624,10.238-7.624-10.238c-3.539-4.756-4.19-11.053,0-15.244Z" transform="translate(-205.753 -7)" fill="#fb4455" fill-rule="evenodd"/>
        <path id="Trazado_1176053" data-name="Trazado 1176053" d="M273.234,54.916a5.386,5.386,0,1,0-5.384-5.385A5.386,5.386,0,0,0,273.234,54.916Z" transform="translate(-237.975 -39.028)" fill="#d5e3f2" fill-rule="evenodd"/>
        <path id="Trazado_1176054" data-name="Trazado 1176054" d="M331.267,286.985a6.676,6.676,0,0,1,9.423,0c2.673,2.673,2.1,6.605,0,9.422l-4.709,6.325-4.713-6.325C329.078,293.465,328.676,289.575,331.267,286.985Z" transform="translate(-291.115 -246.766)" fill="#fb4455" fill-rule="evenodd"/>
        <path id="Trazado_1176055" data-name="Trazado 1176055" d="M356.4,315.082a3.248,3.248,0,1,0-3.25-3.246,3.248,3.248,0,0,0,3.25,3.246Z" transform="translate(-311.53 -267.071)" fill="#d5e3f2" fill-rule="evenodd"/>
        <path id="Trazado_1176056" data-name="Trazado 1176056" d="M75.452,123.019a28.346,28.346,0,0,1,13.64-14.666c-.269-.417-.527-.827-.8-1.194a28.355,28.355,0,0,0-15.47,13.765c.827.648,1.713,1.385,2.626,2.1Z" transform="translate(-69.795 -93.37)" fill="#1ca63e" fill-rule="evenodd"/>
        <path id="Trazado_1176057" data-name="Trazado 1176057" d="M63.264,320.01c6.66,2.087,2.961,5.677,4.979,11.174a52.155,52.155,0,0,1,2.349,7.4,28.272,28.272,0,0,1-19.337-24.92c4.932.6,8.143,5.134,12.009,6.348Z" transform="translate(-51.192 -271.449)" fill="#45bf64" fill-rule="evenodd"/>
        <path id="Trazado_1176058" data-name="Trazado 1176058" d="M51.255,313.662a28.272,28.272,0,0,0,19.337,24.92c-.105-.538-.242-1.092-.394-1.65a28.293,28.293,0,0,1-15.259-22.056,10.619,10.619,0,0,0-3.683-1.213Z" transform="translate(-51.192 -271.449)" fill="#1ca63e" fill-rule="evenodd"/>
        <path id="Trazado_1176059" data-name="Trazado 1176059" d="M233.508,19.043a10,10,0,0,1,2.755-8.915,10.717,10.717,0,0,1,6.188-3.051,10.777,10.777,0,0,0-9.064,3.051,10.04,10.04,0,0,0-2.723,9.1c.035.211.078.421.125.628a14.87,14.87,0,0,0,2.6,5.513l1.369,1.838,6.254,8.4,1.44-1.931-4.175-5.6-2.013-2.7a14.585,14.585,0,0,1-2.755-6.328Z" transform="translate(-205.752 -6.978)" fill="#e82e41" fill-rule="evenodd"/>
        <path id="Trazado_1176060" data-name="Trazado 1176060" d="M332.941,296.407c-2.189-2.942-2.591-6.832,0-9.422a6.606,6.606,0,0,1,3.874-1.892,6.656,6.656,0,0,0-5.548,1.892c-2.591,2.591-2.189,6.481,0,9.422l3.328,4.467,1.385,1.857.835-1.124-1.124-1.51Z" transform="translate(-291.115 -246.766)" fill="#e82e41" fill-rule="evenodd"/>
      </g>
      <path id="Trazado_1176061" data-name="Trazado 1176061" d="M99.125,28.162a29.37,29.37,0,0,0-9.17-10.692,14.375,14.375,0,0,0,1.562-5.78,10.736,10.736,0,0,0-3.175-8.259,11.764,11.764,0,0,0-16.608,0,10.756,10.756,0,0,0-3.18,8.122c.008.28.029.561.057.843a29.1,29.1,0,0,0-5.634,1.441l-.012,0A29.236,29.236,0,0,0,47.01,27.988a.962.962,0,0,0-.1.2A29.207,29.207,0,0,0,71.038,70.4q1.015.069,2.023.069A29.212,29.212,0,0,0,99.125,28.162ZM73.1,4.794a9.835,9.835,0,0,1,13.883,0c4.086,4.089,2.9,9.973-.091,13.989l-4.812,6.462a.953.953,0,0,0-.075.1l-1.963,2.636L74.58,20.655l-.007-.01-1.386-1.861c-2.989-4.017-4.176-9.9-.092-13.989Zm-4.157,9.5a15.927,15.927,0,0,0,2.7,5.637l.034.046a12.317,12.317,0,0,1-4.651-2.057A8.611,8.611,0,0,1,64.8,15.289l-.02-.031a27.222,27.222,0,0,1,4.158-.962Zm-6.023,1.626c.087.133.174.269.264.408a10.2,10.2,0,0,0,2.781,3.2,13.634,13.634,0,0,0,7.308,2.588l6,8.053a.963.963,0,0,0,1.546,0l2.318-3.113a23.968,23.968,0,0,0,5.272,1.2c1.548.229,3.3.489,3.765.988.6.645.463,1.014.406,1.172-.693,1.916-6.832,3.881-9.811,4.271a9.817,9.817,0,0,0-5.384,2.934c-1.257,1.117-2.342,2.082-3.914,2.154A7.609,7.609,0,0,1,71.6,39.7a10.623,10.623,0,0,1,.549-.918,5.788,5.788,0,0,0,1.308-3.763c-.35-2.576-2.366-3.433-3.985-4.121-1.864-.792-3.016-1.376-3.217-3.317-.119-1.182-1.682-3.805-3.14-3.941a1.372,1.372,0,0,0-1.413.882,8.783,8.783,0,0,0-.667,1.2c-.332.664-.756,1.555-1.166,2.417-.66,1.387-1.408,2.958-1.674,3.371A2.205,2.205,0,0,1,56.7,32.621c-1.884.3-4.757-2.017-7.066-3.88l-.593-.477A27.313,27.313,0,0,1,62.914,15.923ZM45.921,44.369a18.056,18.056,0,0,1,5.628,3.158,17.964,17.964,0,0,0,5.013,2.912c3.611,1.134,3.606,2.456,3.6,5.089a14.875,14.875,0,0,0,.765,5.5c.08.219.165.447.252.683.54,1.459,1.177,3.184,1.643,4.854a27.367,27.367,0,0,1-16.9-22.2ZM77.962,68.093a44.575,44.575,0,0,1-4.091-9.413c-.8-3.152-.035-5.38,2.037-5.96a3.863,3.863,0,0,1,4.671,2.286,4.309,4.309,0,0,0,4.944,2.723,6.531,6.531,0,0,0,2.6-1.228l.746,1a.963.963,0,0,0,1.546,0l1.779-2.391c.215.028.444.063.694.105a5.326,5.326,0,0,0,.887.077,5.5,5.5,0,0,0,3.386-1.333,27.4,27.4,0,0,1-19.2,14.133Zm11.679-12.78-3.94-5.29c-1.754-2.355-2.464-5.793-.091-8.164a5.7,5.7,0,0,1,8.059,0c2.372,2.372,1.663,5.81-.092,8.165Zm10.594-12.2a27.189,27.189,0,0,1-1.718,7.843,8.239,8.239,0,0,0-2.33,1.323A3.723,3.723,0,0,1,93.5,53.353l1.62-2.177a9.726,9.726,0,0,0,1.979-5.3,6.992,6.992,0,0,0-2.07-5.379,7.634,7.634,0,0,0-10.784,0,7.006,7.006,0,0,0-2.074,5.291,9.667,9.667,0,0,0,1.982,5.387l2.815,3.779a4.532,4.532,0,0,1-1.92.906,2.414,2.414,0,0,1-2.63-1.42c-.938-3.053-4.393-4.314-7.032-3.575-2.475.692-4.664,3.233-3.386,8.288a45.884,45.884,0,0,0,3.922,9.237,27.209,27.209,0,0,1-2.888.155c-.618,0-1.242-.021-1.867-.063A27.264,27.264,0,0,1,65,67.341a51.672,51.672,0,0,0-2.019-6.3l-.25-.678a13.056,13.056,0,0,1-.647-4.83c.01-2.764.02-5.375-4.948-6.935a16.659,16.659,0,0,1-4.454-2.63c-1.979-1.443-4.2-3.06-6.918-3.621a27.333,27.333,0,0,1,2.4-12.317l.26.21c2.742,2.212,5.847,4.718,8.58,4.283a4.075,4.075,0,0,0,2.806-1.965c.312-.484.887-1.679,1.8-3.589.546-1.148,1.276-2.681,1.562-3.174a5.031,5.031,0,0,1,1.166,1.982c.327,3.172,2.574,4.127,4.379,4.894,1.678.713,2.637,1.186,2.83,2.608a4.445,4.445,0,0,1-1.019,2.461c-.631.981-1.283,2-.733,2.951.462.8,1.494,1.027,2.918,1.027.266,0,.546-.008.839-.021,2.253-.1,3.7-1.392,5.106-2.639,1.285-1.142,2.5-2.22,4.354-2.464,1.619-.211,10.106-2.023,11.373-5.526a2.938,2.938,0,0,0-.8-3.137c-.924-1-2.678-1.257-4.9-1.586a25.736,25.736,0,0,1-4.352-.9l4.1-5.511c.193-.258.375-.523.551-.789a27.377,27.377,0,0,1,11.252,23.973Zm-20.2-25.3a6.349,6.349,0,1,0-6.347-6.351A6.349,6.349,0,0,0,80.037,17.818Zm0-10.771a4.422,4.422,0,1,1-4.42,4.421,4.422,4.422,0,0,1,4.42-4.421Zm9.6,34.467a4.212,4.212,0,1,0,4.21,4.21,4.212,4.212,0,0,0-4.21-4.21Zm0,6.5a2.284,2.284,0,1,1,2.282-2.286,2.284,2.284,0,0,1-2.282,2.286Z" transform="translate(0 0)"/>
    </g>
  </g>
</svg>
