<svg xmlns="http://www.w3.org/2000/svg" xmlns:xlink="http://www.w3.org/1999/xlink" width="113" height="113" viewBox="0 0 113 113">
  <defs>
    <filter id="Trazado_982547" x="0" y="0" width="113" height="113" filterUnits="userSpaceOnUse">
      <feOffset dy="3" input="SourceAlpha"/>
      <feGaussianBlur stdDeviation="3" result="blur"/>
      <feFlood flood-opacity="0.161"/>
      <feComposite operator="in" in2="blur"/>
      <feComposite in="SourceGraphic"/>
    </filter>
  </defs>
  <g id="Grupo_1234635" data-name="Grupo 1234635" transform="translate(-744.696 -7890.884)">
    <g id="Grupo_1232526" data-name="Grupo 1232526" transform="translate(0.5 6426.924)">
      <g id="Grupo_1230113" data-name="Grupo 1230113" transform="translate(0.946 -13219.084)">
        <g id="Grupo_1230104" data-name="Grupo 1230104">
          <g id="Grupo_1224257" data-name="Grupo 1224257" transform="translate(0.25 13230)">
            <g id="Grupo_1223773" data-name="Grupo 1223773" transform="translate(0 -4451.031)">
              <g id="Grupo_1206282" data-name="Grupo 1206282" transform="translate(0 -3448.335)">
                <g id="Grupo_1203803" data-name="Grupo 1203803" transform="translate(0 6552.41)">
                  <g id="Grupo_1202425" data-name="Grupo 1202425" transform="translate(-0.25 1464)">
                    <g id="Grupo_1178324" data-name="Grupo 1178324" transform="translate(0 424)">
                      <g id="Grupo_1177680" data-name="Grupo 1177680" transform="translate(752.25 918)">
                        <g id="Grupo_1172010" data-name="Grupo 1172010">
                          <g id="Grupo_1171046" data-name="Grupo 1171046">
                            <g id="Grupo_1148525" data-name="Grupo 1148525">
                              <g transform="matrix(1, 0, 0, 1, -9, -6)" filter="url(#Trazado_982547)">
                                <g id="Trazado_982547-2" data-name="Trazado 982547" transform="translate(9 6)" fill="#d6ccfe">
                                  <path d="M 47.5 93.5 C 41.28937149047852 93.5 35.26533508300781 92.28397369384766 29.59518623352051 89.88570404052734 C 24.11771965026855 87.56893157958984 19.19813346862793 84.25196075439453 14.97309303283691 80.02691650390625 C 10.74804019927979 75.80186462402344 7.431066513061523 70.88229370117188 5.114293098449707 65.40481567382812 C 2.716026782989502 59.73468017578125 1.5 53.71062850952148 1.5 47.5 C 1.5 41.28937149047852 2.716026782989502 35.26533508300781 5.114293098449707 29.59518623352051 C 7.431066513061523 24.11771965026855 10.74804019927979 19.19813346862793 14.97309303283691 14.97309303283691 C 19.19813346862793 10.74804019927979 24.11771965026855 7.431066513061523 29.59518623352051 5.114293098449707 C 35.26533508300781 2.716026782989502 41.28937149047852 1.5 47.5 1.5 C 53.71062850952148 1.5 59.73468017578125 2.716026782989502 65.40481567382812 5.114293098449707 C 70.88229370117188 7.431066513061523 75.80186462402344 10.74804019927979 80.02691650390625 14.97309303283691 C 84.25196075439453 19.19813346862793 87.56893157958984 24.11771965026855 89.88570404052734 29.59518623352051 C 92.28397369384766 35.26533508300781 93.5 41.28937149047852 93.5 47.5 C 93.5 53.71062850952148 92.28397369384766 59.73468017578125 89.88570404052734 65.40481567382812 C 87.56893157958984 70.88229370117188 84.25196075439453 75.80186462402344 80.02691650390625 80.02691650390625 C 75.80186462402344 84.25196075439453 70.88229370117188 87.56893157958984 65.40481567382812 89.88570404052734 C 59.73468017578125 92.28397369384766 53.71062850952148 93.5 47.5 93.5 Z" stroke="none"/>
                                  <path d="M 47.5 3 C 41.49121475219727 3 35.66376876831055 4.176155090332031 30.17950439453125 6.495796203613281 C 24.88084411621094 8.736953735351562 20.12152099609375 11.94598388671875 16.03375244140625 16.03375244140625 C 11.94598388671875 20.12152099609375 8.736953735351562 24.88084411621094 6.495796203613281 30.17950439453125 C 4.176155090332031 35.66376876831055 3 41.49121475219727 3 47.5 C 3 53.50878524780273 4.176155090332031 59.33623123168945 6.495796203613281 64.82049560546875 C 8.736953735351562 70.11915588378906 11.94598388671875 74.87847900390625 16.03375244140625 78.96624755859375 C 20.12152099609375 83.05401611328125 24.88084411621094 86.26304626464844 30.17950439453125 88.50419616699219 C 35.66376876831055 90.82384490966797 41.49121475219727 92 47.5 92 C 53.50878524780273 92 59.33623123168945 90.82384490966797 64.82049560546875 88.50419616699219 C 70.11915588378906 86.26304626464844 74.87847900390625 83.05401611328125 78.96624755859375 78.96624755859375 C 83.05401611328125 74.87847900390625 86.26304626464844 70.11915588378906 88.50419616699219 64.82049560546875 C 90.82384490966797 59.33623123168945 92 53.50878524780273 92 47.5 C 92 41.49121475219727 90.82384490966797 35.66376876831055 88.50419616699219 30.17950439453125 C 86.26304626464844 24.88084411621094 83.05401611328125 20.12152099609375 78.96624755859375 16.03375244140625 C 74.87847900390625 11.94598388671875 70.11915588378906 8.736953735351562 64.82049560546875 6.495796203613281 C 59.33623123168945 4.176155090332031 53.50878524780273 3 47.5 3 M 47.5 0 C 73.7335205078125 0 95 21.2664794921875 95 47.5 C 95 73.7335205078125 73.7335205078125 95 47.5 95 C 21.2664794921875 95 0 73.7335205078125 0 47.5 C 0 21.2664794921875 21.2664794921875 0 47.5 0 Z" stroke="none" fill="#7958fb"/>
                                </g>
                              </g>
                            </g>
                          </g>
                        </g>
                      </g>
                    </g>
                  </g>
                </g>
              </g>
            </g>
          </g>
        </g>
      </g>
    </g>
    <g id="fibra-muscular" transform="translate(767.153 7911.945)">
      <g id="Grupo_1234633" data-name="Grupo 1234633" transform="translate(0.962 0.962)">
        <path id="Trazado_1232342" data-name="Trazado 1232342" d="M71.272,42.986a10.6,10.6,0,0,0-1.294-5.074,11.536,11.536,0,0,1-1.193-3.574A29.614,29.614,0,0,0,67.767,30.2a12.294,12.294,0,0,1-.618-4.18q.008-.257.008-.517a18.02,18.02,0,0,0-18-18,17.784,17.784,0,0,0-7.429,1.62,4.525,4.525,0,0,1-1.953.44q-.194,0-.389,0a29.781,29.781,0,0,0-8.656,1.28,4.948,4.948,0,0,1-2.556.114,14.144,14.144,0,0,0-6.7.074A14.5,14.5,0,0,0,11.026,21.477,14.145,14.145,0,0,0,11,28.354a4.115,4.115,0,0,1-.1,2.2,29.78,29.78,0,0,0-1.334,8.833q0,.214,0,.427a4.326,4.326,0,0,1-.425,1.881A17.784,17.784,0,0,0,7.5,49.011,18.23,18.23,0,0,0,21.848,66.763a17.2,17.2,0,0,0,5.434.3,3.184,3.184,0,0,1,1.463.188,29.693,29.693,0,0,0,9.187,1.916,3.278,3.278,0,0,1,1.485.452,12.3,12.3,0,0,0,16.862-4.6A11.62,11.62,0,0,1,58.834,62a29.951,29.951,0,0,0,6.54-7.972,12.109,12.109,0,0,1,2.353-3.051A10.766,10.766,0,0,0,71.272,42.986Z" transform="translate(-7.501 -7.5)" fill="#ff7e92"/>
        <g id="Grupo_1234632" data-name="Grupo 1234632" transform="translate(7.2 7.2)">
          <circle id="Elipse_14632" data-name="Elipse 14632" cx="6.686" cy="6.686" r="6.686" transform="translate(39.086 21.6)" fill="#ff9ba6"/>
          <circle id="Elipse_14633" data-name="Elipse 14633" cx="5.143" cy="5.143" r="5.143" transform="translate(25.714 39.086)" fill="#ff9ba6"/>
          <circle id="Elipse_14634" data-name="Elipse 14634" cx="10.8" cy="10.8" r="10.8" transform="translate(23.657)" fill="#ff9ba6"/>
          <circle id="Elipse_14635" data-name="Elipse 14635" cx="10.8" cy="10.8" r="10.8" transform="translate(0 23.657)" fill="#ff9ba6"/>
          <circle id="Elipse_14636" data-name="Elipse 14636" cx="7.2" cy="7.2" r="7.2" transform="translate(3.086 3.086)" fill="#ff9ba6"/>
        </g>
        <circle id="Elipse_14637" data-name="Elipse 14637" cx="2.057" cy="2.057" r="2.057" transform="translate(16.434 19.52)" fill="#ff7e92"/>
        <circle id="Elipse_14638" data-name="Elipse 14638" cx="2.057" cy="2.057" r="2.057" transform="translate(11.314 13.371)" fill="#ff5f7a"/>
        <circle id="Elipse_14639" data-name="Elipse 14639" cx="2.057" cy="2.057" r="2.057" transform="translate(18.984 12.511)" fill="#ff5f7a"/>
        <circle id="Elipse_14640" data-name="Elipse 14640" cx="2.057" cy="2.057" r="2.057" transform="translate(14.703 31.83)" fill="#ff5f7a"/>
        <circle id="Elipse_14641" data-name="Elipse 14641" cx="2.057" cy="2.057" r="2.057" transform="translate(10.286 38.057)" fill="#ff7e92"/>
        <circle id="Elipse_14642" data-name="Elipse 14642" cx="2.057" cy="2.057" r="2.057" transform="translate(18.57 41.064)" fill="#ff5f7a"/>
        <circle id="Elipse_14643" data-name="Elipse 14643" cx="2.057" cy="2.057" r="2.057" transform="translate(21.567 34.134)" fill="#ff7e92"/>
        <circle id="Elipse_14644" data-name="Elipse 14644" cx="2.057" cy="2.057" r="2.057" transform="translate(14.3 47.297)" fill="#ff7e92"/>
        <circle id="Elipse_14645" data-name="Elipse 14645" cx="2.057" cy="2.057" r="2.057" transform="translate(8.659 41.824)" fill="#ff5f7a"/>
        <circle id="Elipse_14646" data-name="Elipse 14646" cx="2.057" cy="2.057" r="2.057" transform="translate(21.805 44.494)" fill="#ff5f7a"/>
        <circle id="Elipse_14647" data-name="Elipse 14647" cx="2.057" cy="2.057" r="2.057" transform="translate(34.557 50.87)" fill="#ff5f7a"/>
        <circle id="Elipse_14648" data-name="Elipse 14648" cx="2.057" cy="2.057" r="2.057" transform="translate(37.643 47.784)" fill="#ff7e92"/>
        <circle id="Elipse_14649" data-name="Elipse 14649" cx="2.057" cy="2.057" r="2.057" transform="translate(35.832 22.149)" fill="#ff5f7a"/>
        <circle id="Elipse_14650" data-name="Elipse 14650" cx="2.057" cy="2.057" r="2.057" transform="translate(43.973 22.573)" fill="#ff5f7a"/>
        <circle id="Elipse_14651" data-name="Elipse 14651" cx="2.057" cy="2.057" r="2.057" transform="translate(32.882 14.367)" fill="#ff5f7a"/>
        <circle id="Elipse_14652" data-name="Elipse 14652" cx="2.057" cy="2.057" r="2.057" transform="translate(42.595 15.036)" fill="#ff7e92"/>
        <circle id="Elipse_14653" data-name="Elipse 14653" cx="2.057" cy="2.057" r="2.057" transform="translate(46.277 12.936)" fill="#ff5f7a"/>
        <circle id="Elipse_14654" data-name="Elipse 14654" cx="2.057" cy="2.057" r="2.057" transform="translate(50.4 33.943)" fill="#ff5f7a"/>
        <circle id="Elipse_14655" data-name="Elipse 14655" cx="2.057" cy="2.057" r="2.057" transform="translate(38.025 8.755)" fill="#ff7e92"/>
        <circle id="Elipse_14656" data-name="Elipse 14656" cx="2.571" cy="2.571" r="2.571" transform="translate(34.971 34.972)" fill="#ff9ba6"/>
        <path id="Trazado_1232343" data-name="Trazado 1232343" d="M269,79.838a29.952,29.952,0,0,0,6.54-7.973,12.106,12.106,0,0,1,2.353-3.05,10.766,10.766,0,0,0,3.545-7.988,10.593,10.593,0,0,0-1.294-5.074,11.539,11.539,0,0,1-1.193-3.574,29.631,29.631,0,0,0-1.018-4.141,12.3,12.3,0,0,1-.618-4.18q.008-.257.008-.517a17.988,17.988,0,0,0-8.687-15.374l-.09.156a3.391,3.391,0,0,0,.663,4.185,15,15,0,0,1,4.939,11.032c0,.138,0,.275-.006.419a15.533,15.533,0,0,0,.894,5.349,23.827,23.827,0,0,1,.865,3.544,14.554,14.554,0,0,0,1.467,4.572,7.434,7.434,0,0,1,.887,3.6,7.77,7.77,0,0,1-2.482,5.692,16.065,16.065,0,0,0-2.917,3.824,26.61,26.61,0,0,1-5.85,7.14,14.983,14.983,0,0,0-3.286,3.805,9.293,9.293,0,0,1-8,4.662,9.137,9.137,0,0,1-3.076-.532,3.337,3.337,0,0,0-3.955,1.529l-.089.154a3.391,3.391,0,0,1,.979.362,12.3,12.3,0,0,0,16.862-4.6A11.619,11.619,0,0,1,269,79.838Z" transform="translate(-217.671 -25.341)" fill="#ff5f7a"/>
      </g>
      <g id="Grupo_1234634" data-name="Grupo 1234634" transform="translate(-0.001)">
        <path id="Trazado_1232344" data-name="Trazado 1232344" d="M81.885,56.75c-.07,0-.139,0-.208.005a14.845,14.845,0,1,0-25.032-15,11.251,11.251,0,0,0-15.87-5.1.962.962,0,0,0,.964,1.666,9.327,9.327,0,1,1-2.8,2.483A.962.962,0,0,0,37.4,39.648a11.248,11.248,0,0,0,4.359,17A14.846,14.846,0,1,0,57.788,80.668,9.19,9.19,0,1,0,70.353,71.8a6.606,6.606,0,0,0,2.473-3.538.962.962,0,0,0-1.852-.524,4.695,4.695,0,1,1-.335-3.415.962.962,0,1,0,1.714-.876,6.656,6.656,0,0,0-1.237-1.7,14.775,14.775,0,0,0,3.875-.661,7.648,7.648,0,1,0,6.894-4.339ZM70.57,33.989A12.923,12.923,0,1,1,57.647,46.912,12.938,12.938,0,0,1,70.57,33.989Zm-23.657,49.5A12.923,12.923,0,1,1,59.836,70.569,12.938,12.938,0,0,1,46.913,83.493Zm27.323-3.152a7.266,7.266,0,1,1-7.266-7.266A7.275,7.275,0,0,1,74.236,80.341ZM62.96,72.072a9.2,9.2,0,0,0-1.383.833,14.848,14.848,0,0,0,.174-1.8A6.668,6.668,0,0,0,62.96,72.072Zm-2.687-7.978a14.924,14.924,0,0,0-8.8-7.657,11.324,11.324,0,0,0,4.97-4.97,14.924,14.924,0,0,0,7.657,8.8A6.653,6.653,0,0,0,60.273,64.094Zm21.611,6.027A5.723,5.723,0,1,1,87.608,64.4,5.73,5.73,0,0,1,81.885,70.121Z" transform="translate(-27.951 -27.95)"/>
        <path id="Trazado_1232345" data-name="Trazado 1232345" d="M64.285,30.915a10.588,10.588,0,0,1-1.09-3.276,30.679,30.679,0,0,0-1.051-4.276,11.332,11.332,0,0,1-.572-3.853c.006-.183.009-.367.009-.547A18.984,18.984,0,0,0,42.619,0a18.671,18.671,0,0,0-7.83,1.708,3.558,3.558,0,0,1-1.537.353q-.2,0-.4,0a30.766,30.766,0,0,0-8.935,1.322,4.011,4.011,0,0,1-2.06.1,15.086,15.086,0,0,0-7.149.078A15.458,15.458,0,0,0,3.554,14.7a15.082,15.082,0,0,0-.032,7.34,3.175,3.175,0,0,1-.087,1.686,30.756,30.756,0,0,0-1.378,9.117q0,.222,0,.444a3.361,3.361,0,0,1-.337,1.462A18.674,18.674,0,0,0,0,42.465a19.15,19.15,0,0,0,15.1,18.7,18.228,18.228,0,0,0,5.736.32,2.214,2.214,0,0,1,1.023.13,30.65,30.65,0,0,0,9.484,1.978,2.309,2.309,0,0,1,1.049.323,13.259,13.259,0,0,0,18.18-4.961,10.677,10.677,0,0,1,2.347-2.767,30.816,30.816,0,0,0,6.75-8.229,11.075,11.075,0,0,1,2.162-2.811,11.782,11.782,0,0,0,3.86-8.7,11.635,11.635,0,0,0-1.411-5.533ZM60.541,43.724A12.955,12.955,0,0,0,58,47.014a28.893,28.893,0,0,1-6.33,7.716A12.593,12.593,0,0,0,48.9,58,11.334,11.334,0,0,1,33.36,62.251a4.214,4.214,0,0,0-1.921-.58,28.731,28.731,0,0,1-8.89-1.853,4.079,4.079,0,0,0-1.464-.269,4.357,4.357,0,0,0-.44.023,16.305,16.305,0,0,1-5.131-.286,17.427,17.427,0,0,1-9.768-6.037A16.929,16.929,0,0,1,1.924,42.481a16.759,16.759,0,0,1,1.547-6.922,5.267,5.267,0,0,0,.513-2.3q0-.2,0-.411A28.838,28.838,0,0,1,5.273,24.3a5.093,5.093,0,0,0,.118-2.713,13.175,13.175,0,0,1,.029-6.413,13.6,13.6,0,0,1,9.753-9.753,13.182,13.182,0,0,1,6.245-.069,5.933,5.933,0,0,0,3.052-.131,28.841,28.841,0,0,1,8.376-1.239l.374,0a5.441,5.441,0,0,0,2.369-.527,16.757,16.757,0,0,1,7.028-1.533A17.057,17.057,0,0,1,59.657,18.962q0,.244-.008.486a13.246,13.246,0,0,0,.664,4.507,28.761,28.761,0,0,1,.985,4.007,12.5,12.5,0,0,0,1.3,3.871,9.573,9.573,0,0,1,1.178,4.615,9.853,9.853,0,0,1-3.23,7.276Z" transform="translate(0.001)"/>
        <path id="Trazado_1232346" data-name="Trazado 1232346" d="M128.077,155.144a3.019,3.019,0,1,0,3.019-3.019A3.023,3.023,0,0,0,128.077,155.144Zm3.019-1.095A1.095,1.095,0,1,1,130,155.144,1.1,1.1,0,0,1,131.1,154.05Z" transform="translate(-111.643 -132.605)"/>
        <path id="Trazado_1232347" data-name="Trazado 1232347" d="M91.2,110.249a3.019,3.019,0,1,0-3.019-3.019A3.023,3.023,0,0,0,91.2,110.249Zm0-4.114a1.095,1.095,0,1,1-1.095,1.095A1.1,1.1,0,0,1,91.2,106.135Z" transform="translate(-76.864 -90.839)"/>
        <path id="Trazado_1232348" data-name="Trazado 1232348" d="M150.973,103.539a3.019,3.019,0,1,0-3.019-3.019A3.023,3.023,0,0,0,150.973,103.539Zm0-4.114a1.095,1.095,0,1,1-1.095,1.095A1.1,1.1,0,0,1,150.973,99.425Z" transform="translate(-128.97 -84.989)"/>
        <path id="Trazado_1232349" data-name="Trazado 1232349" d="M117.6,254.1a3.019,3.019,0,1,0-3.019-3.019A3.023,3.023,0,0,0,117.6,254.1Zm0-4.114a1.095,1.095,0,1,1-1.095,1.095A1.1,1.1,0,0,1,117.6,249.991Z" transform="translate(-99.881 -216.236)"/>
        <path id="Trazado_1232350" data-name="Trazado 1232350" d="M171.1,272.059a3.019,3.019,0,1,0-3.02-3.019A3.023,3.023,0,0,0,171.1,272.059Zm0-4.114a1.095,1.095,0,1,1-1.095,1.095A1.1,1.1,0,0,1,171.1,267.945Z" transform="translate(-146.517 -231.886)"/>
        <path id="Trazado_1232351" data-name="Trazado 1232351" d="M114.463,368.606a3.019,3.019,0,1,0,3.019,3.019A3.023,3.023,0,0,0,114.463,368.606Zm0,4.114a1.095,1.095,0,1,1,1.095-1.095A1.1,1.1,0,0,1,114.463,372.72Z" transform="translate(-97.143 -321.309)"/>
        <path id="Trazado_1232352" data-name="Trazado 1232352" d="M73.347,302.379a3.022,3.022,0,1,0-4.063-1.757,3.026,3.026,0,1,0,4.063,1.757Zm-1.217-3.857a1.095,1.095,0,1,1-1.095,1.095A1.1,1.1,0,0,1,72.129,298.522ZM70.5,304.478a1.095,1.095,0,1,1,1.095-1.095A1.1,1.1,0,0,1,70.5,304.478Z" transform="translate(-58.824 -258.54)"/>
        <path id="Trazado_1232353" data-name="Trazado 1232353" d="M150.855,322.914l-.093,0a3.019,3.019,0,1,0-3.016,3.151l.093,0a3.019,3.019,0,1,0,3.016-3.151Zm-4.2.134a1.095,1.095,0,1,1,1.095,1.095A1.1,1.1,0,0,1,146.652,323.048Zm4.2,3.98a1.095,1.095,0,1,1,1.095-1.095A1.1,1.1,0,0,1,150.855,327.028Z" transform="translate(-126.157 -278.964)"/>
        <path id="Trazado_1232354" data-name="Trazado 1232354" d="M272.406,375.425c0,.023,0,.045,0,.068l-.068,0a3.019,3.019,0,1,0,3.019,3.019c0-.023,0-.045,0-.068l.068,0a3.02,3.02,0,1,0-3.019-3.019Zm-.066,4.181a1.095,1.095,0,1,1,1.095-1.095A1.1,1.1,0,0,1,272.34,379.605Zm3.086-5.275a1.095,1.095,0,1,1-1.095,1.095A1.1,1.1,0,0,1,275.425,374.33Z" transform="translate(-234.763 -324.621)"/>
        <path id="Trazado_1232355" data-name="Trazado 1232355" d="M282.278,172.619a3.019,3.019,0,1,0,3.019,3.019A3.023,3.023,0,0,0,282.278,172.619Zm0,4.114a1.095,1.095,0,1,1,1.095-1.095A1.1,1.1,0,0,1,282.278,176.733Z" transform="translate(-243.426 -150.47)"/>
        <path id="Trazado_1232356" data-name="Trazado 1232356" d="M345.718,175.92a3.019,3.019,0,1,0,3.019,3.019A3.023,3.023,0,0,0,345.718,175.92Zm0,4.114a1.095,1.095,0,1,1,1.095-1.095A1.1,1.1,0,0,1,345.718,180.034Z" transform="translate(-298.726 -153.347)"/>
        <path id="Trazado_1232357" data-name="Trazado 1232357" d="M259.282,118.011a3.02,3.02,0,1,0-3.019-3.02A3.023,3.023,0,0,0,259.282,118.011Zm0-4.114a1.095,1.095,0,1,1-1.095,1.095A1.1,1.1,0,0,1,259.282,113.9Z" transform="translate(-223.381 -97.605)"/>
        <path id="Trazado_1232358" data-name="Trazado 1232358" d="M332.224,104.676a3.02,3.02,0,1,0,5.651,2.077,2.989,2.989,0,0,0,.774.1,3.021,3.021,0,1,0-2.905-3.839,3.019,3.019,0,0,0-3.52,1.659Zm5.432-1.3a1.094,1.094,0,1,1-.031.837A1.1,1.1,0,0,1,337.655,103.378Zm-3.682,2.1a1.095,1.095,0,1,1-.031.837A1.087,1.087,0,0,1,333.973,105.479Z" transform="translate(-289.354 -87.88)"/>
        <path id="Trazado_1232359" data-name="Trazado 1232359" d="M395.81,264.532a3.019,3.019,0,1,0,3.019,3.019A3.023,3.023,0,0,0,395.81,264.532Zm0,4.114a1.095,1.095,0,1,1,1.095-1.095A1.1,1.1,0,0,1,395.81,268.646Z" transform="translate(-342.391 -230.589)"/>
        <path id="Trazado_1232360" data-name="Trazado 1232360" d="M299.362,74.267a3.02,3.02,0,1,0-3.019-3.02A3.023,3.023,0,0,0,299.362,74.267Zm0-4.114a1.095,1.095,0,1,1-1.095,1.095A1.1,1.1,0,0,1,299.362,70.153Z" transform="translate(-258.318 -59.473)"/>
      </g>
    </g>
  </g>
</svg>
