<svg xmlns="http://www.w3.org/2000/svg" xmlns:xlink="http://www.w3.org/1999/xlink" width="113" height="113" viewBox="0 0 113 113">
  <defs>
    <filter id="Trazado_982547" x="0" y="0" width="113" height="113" filterUnits="userSpaceOnUse">
      <feOffset dy="3" input="SourceAlpha"/>
      <feGaussianBlur stdDeviation="3" result="blur"/>
      <feFlood flood-opacity="0.161"/>
      <feComposite operator="in" in2="blur"/>
      <feComposite in="SourceGraphic"/>
    </filter>
  </defs>
  <g id="Grupo_1234640" data-name="Grupo 1234640" transform="translate(-1164 -7890.884)">
    <g id="Grupo_1232527" data-name="Grupo 1232527" transform="translate(0 6427.334)">
      <g id="Grupo_1230106" data-name="Grupo 1230106" transform="translate(0.75 -13219.084)">
        <g id="Grupo_1224275" data-name="Grupo 1224275" transform="translate(0.25 13230)">
          <g id="Grupo_1224268" data-name="Grupo 1224268">
            <g id="Grupo_1223779" data-name="Grupo 1223779" transform="translate(0 -4451.031)">
              <g id="Grupo_1206283" data-name="Grupo 1206283" transform="translate(0 -3448.335)">
                <g id="Grupo_1203804" data-name="Grupo 1203804" transform="translate(-1 6552)">
                  <g id="Grupo_1202426" data-name="Grupo 1202426" transform="translate(0.5 1464)">
                    <g id="Grupo_1178323" data-name="Grupo 1178323" transform="translate(0 424)">
                      <g id="Grupo_1177681" data-name="Grupo 1177681" transform="translate(1172.5 918)">
                        <g id="Grupo_1172010" data-name="Grupo 1172010">
                          <g id="Grupo_1171046" data-name="Grupo 1171046">
                            <g id="Grupo_1148525" data-name="Grupo 1148525">
                              <g transform="matrix(1, 0, 0, 1, -9, -6)" filter="url(#Trazado_982547)">
                                <g id="Trazado_982547-2" data-name="Trazado 982547" transform="translate(9 6)" fill="#d6ccfe">
                                  <path d="M 47.5 93.5 C 41.28937149047852 93.5 35.26533508300781 92.28397369384766 29.59518623352051 89.88570404052734 C 24.11771965026855 87.56893157958984 19.19813346862793 84.25196075439453 14.97309303283691 80.02691650390625 C 10.74804019927979 75.80186462402344 7.431066513061523 70.88229370117188 5.114293098449707 65.40481567382812 C 2.716026782989502 59.73468017578125 1.5 53.71062850952148 1.5 47.5 C 1.5 41.28937149047852 2.716026782989502 35.26533508300781 5.114293098449707 29.59518623352051 C 7.431066513061523 24.11771965026855 10.74804019927979 19.19813346862793 14.97309303283691 14.97309303283691 C 19.19813346862793 10.74804019927979 24.11771965026855 7.431066513061523 29.59518623352051 5.114293098449707 C 35.26533508300781 2.716026782989502 41.28937149047852 1.5 47.5 1.5 C 53.71062850952148 1.5 59.73468017578125 2.716026782989502 65.40481567382812 5.114293098449707 C 70.88229370117188 7.431066513061523 75.80186462402344 10.74804019927979 80.02691650390625 14.97309303283691 C 84.25196075439453 19.19813346862793 87.56893157958984 24.11771965026855 89.88570404052734 29.59518623352051 C 92.28397369384766 35.26533508300781 93.5 41.28937149047852 93.5 47.5 C 93.5 53.71062850952148 92.28397369384766 59.73468017578125 89.88570404052734 65.40481567382812 C 87.56893157958984 70.88229370117188 84.25196075439453 75.80186462402344 80.02691650390625 80.02691650390625 C 75.80186462402344 84.25196075439453 70.88229370117188 87.56893157958984 65.40481567382812 89.88570404052734 C 59.73468017578125 92.28397369384766 53.71062850952148 93.5 47.5 93.5 Z" stroke="none"/>
                                  <path d="M 47.5 3 C 41.49121475219727 3 35.66376876831055 4.176155090332031 30.17950439453125 6.495796203613281 C 24.88084411621094 8.736953735351562 20.12152099609375 11.94598388671875 16.03375244140625 16.03375244140625 C 11.94598388671875 20.12152099609375 8.736953735351562 24.88084411621094 6.495796203613281 30.17950439453125 C 4.176155090332031 35.66376876831055 3 41.49121475219727 3 47.5 C 3 53.50878524780273 4.176155090332031 59.33623123168945 6.495796203613281 64.82049560546875 C 8.736953735351562 70.11915588378906 11.94598388671875 74.87847900390625 16.03375244140625 78.96624755859375 C 20.12152099609375 83.05401611328125 24.88084411621094 86.26304626464844 30.17950439453125 88.50419616699219 C 35.66376876831055 90.82384490966797 41.49121475219727 92 47.5 92 C 53.50878524780273 92 59.33623123168945 90.82384490966797 64.82049560546875 88.50419616699219 C 70.11915588378906 86.26304626464844 74.87847900390625 83.05401611328125 78.96624755859375 78.96624755859375 C 83.05401611328125 74.87847900390625 86.26304626464844 70.11915588378906 88.50419616699219 64.82049560546875 C 90.82384490966797 59.33623123168945 92 53.50878524780273 92 47.5 C 92 41.49121475219727 90.82384490966797 35.66376876831055 88.50419616699219 30.17950439453125 C 86.26304626464844 24.88084411621094 83.05401611328125 20.12152099609375 78.96624755859375 16.03375244140625 C 74.87847900390625 11.94598388671875 70.11915588378906 8.736953735351562 64.82049560546875 6.495796203613281 C 59.33623123168945 4.176155090332031 53.50878524780273 3 47.5 3 M 47.5 0 C 73.7335205078125 0 95 21.2664794921875 95 47.5 C 95 73.7335205078125 73.7335205078125 95 47.5 95 C 21.2664794921875 95 0 73.7335205078125 0 47.5 C 0 21.2664794921875 21.2664794921875 0 47.5 0 Z" stroke="none" fill="#7958fb"/>
                                </g>
                              </g>
                            </g>
                          </g>
                        </g>
                      </g>
                    </g>
                  </g>
                </g>
              </g>
            </g>
          </g>
        </g>
      </g>
    </g>
    <g id="celulas-ependimarias_1_" data-name="celulas-ependimarias (1)" transform="translate(1187.09 7851.714)">
      <g id="Grupo_1234638" data-name="Grupo 1234638" transform="translate(0.979 76.238)">
        <g id="Grupo_1234636" data-name="Grupo 1234636" transform="translate(0 0)">
          <path id="Trazado_1232361" data-name="Trazado 1232361" d="M17.836,124.054h-7.7A2.637,2.637,0,0,1,7.5,121.417V105.6a2.637,2.637,0,0,1,2.637-2.637h7.7a2.637,2.637,0,0,1,2.637,2.637v15.82a2.636,2.636,0,0,1-2.636,2.637Z" transform="translate(-7.5 -102.961)" fill="#fe99a0"/>
          <path id="Trazado_1232362" data-name="Trazado 1232362" d="M117.236,124.054h-7.7a2.637,2.637,0,0,1-2.637-2.637V105.6a2.637,2.637,0,0,1,2.637-2.637h7.7a2.637,2.637,0,0,1,2.637,2.637v15.82A2.637,2.637,0,0,1,117.236,124.054Z" transform="translate(-93.929 -102.961)" fill="#fe99a0"/>
          <path id="Trazado_1232363" data-name="Trazado 1232363" d="M199.4,124.054h-7.7a2.637,2.637,0,0,1-2.637-2.637l-2.586-7.91,2.586-7.91a2.637,2.637,0,0,1,2.637-2.637h7.7a2.637,2.637,0,0,1,2.637,2.637v15.82A2.637,2.637,0,0,1,199.4,124.054Z" transform="translate(-163.125 -102.961)" fill="#fe99a0"/>
          <path id="Trazado_1232364" data-name="Trazado 1232364" d="M316.036,124.054h-7.7a2.637,2.637,0,0,1-2.637-2.637V105.6a2.637,2.637,0,0,1,2.637-2.637h7.7a2.637,2.637,0,0,1,2.637,2.637v15.82A2.637,2.637,0,0,1,316.036,124.054Z" transform="translate(-266.784 -102.961)" fill="#fe99a0"/>
          <path id="Trazado_1232365" data-name="Trazado 1232365" d="M415.436,124.054h-7.7a2.637,2.637,0,0,1-2.637-2.637V105.6a2.637,2.637,0,0,1,2.637-2.637h7.7a2.637,2.637,0,0,1,2.637,2.637v15.82A2.637,2.637,0,0,1,415.436,124.054Z" transform="translate(-353.212 -102.961)" fill="#fe99a0"/>
        </g>
        <circle id="Elipse_14657" data-name="Elipse 14657" cx="2.109" cy="2.109" r="2.109" transform="translate(4.377 5.801)" fill="#fe646f"/>
        <circle id="Elipse_14658" data-name="Elipse 14658" cx="2.109" cy="2.109" r="2.109" transform="translate(17.349 7.119)" fill="#fd4755"/>
        <circle id="Elipse_14659" data-name="Elipse 14659" cx="2.109" cy="2.109" r="2.109" transform="translate(30.321 9.755)" fill="#fe646f"/>
        <circle id="Elipse_14660" data-name="Elipse 14660" cx="2.109" cy="2.109" r="2.109" transform="translate(43.293 7.119)" fill="#fd4755"/>
        <circle id="Elipse_14661" data-name="Elipse 14661" cx="2.109" cy="2.109" r="2.109" transform="translate(56.265 11.074)" fill="#fe646f"/>
        <g id="Grupo_1234637" data-name="Grupo 1234637" transform="translate(6.908 0)">
          <path id="Trazado_1232366" data-name="Trazado 1232366" d="M63.861,102.96H60.433A2.637,2.637,0,0,1,63.07,105.6v15.82a2.637,2.637,0,0,1-2.637,2.637h3.428a2.637,2.637,0,0,0,2.637-2.637V105.6A2.637,2.637,0,0,0,63.861,102.96Z" transform="translate(-60.433 -102.96)" fill="#fd8087"/>
          <path id="Trazado_1232367" data-name="Trazado 1232367" d="M163.261,102.96h-3.428a2.637,2.637,0,0,1,2.637,2.637v15.82a2.637,2.637,0,0,1-2.637,2.637h3.428a2.637,2.637,0,0,0,2.637-2.637V105.6A2.637,2.637,0,0,0,163.261,102.96Z" transform="translate(-146.861 -102.96)" fill="#fd8087"/>
          <path id="Trazado_1232368" data-name="Trazado 1232368" d="M262.661,102.96h-3.428a2.637,2.637,0,0,1,2.637,2.637v15.82a2.637,2.637,0,0,1-2.637,2.637h3.428a2.637,2.637,0,0,0,2.637-2.637V105.6A2.637,2.637,0,0,0,262.661,102.96Z" transform="translate(-233.289 -102.96)" fill="#fd8087"/>
          <path id="Trazado_1232369" data-name="Trazado 1232369" d="M362.061,102.96h-3.428a2.637,2.637,0,0,1,2.637,2.637v15.82a2.637,2.637,0,0,1-2.637,2.637h3.428a2.637,2.637,0,0,0,2.637-2.637V105.6A2.637,2.637,0,0,0,362.061,102.96Z" transform="translate(-319.716 -102.96)" fill="#fd8087"/>
          <path id="Trazado_1232370" data-name="Trazado 1232370" d="M461.461,102.96h-3.428a2.637,2.637,0,0,1,2.637,2.637v15.82a2.637,2.637,0,0,1-2.637,2.637h3.428a2.637,2.637,0,0,0,2.637-2.637V105.6A2.637,2.637,0,0,0,461.461,102.96Z" transform="translate(-406.144 -102.96)" fill="#fd8087"/>
        </g>
      </g>
      <g id="Grupo_1234639" data-name="Grupo 1234639" transform="translate(0 72.227)">
        <path id="Trazado_1232371" data-name="Trazado 1232371" d="M39.713,143a3.088,3.088,0,1,0-3.088,3.088A3.092,3.092,0,0,0,39.713,143Zm-4.219,0a1.131,1.131,0,1,1,1.131,1.131A1.132,1.132,0,0,1,35.495,143Z" transform="translate(-29.16 -131.074)"/>
        <path id="Trazado_1232372" data-name="Trazado 1232372" d="M136.025,150.009a3.088,3.088,0,1,0,3.088,3.088A3.092,3.092,0,0,0,136.025,150.009Zm0,4.219a1.131,1.131,0,1,1,1.131-1.131A1.132,1.132,0,0,1,136.025,154.228Z" transform="translate(-115.588 -139.858)"/>
        <path id="Trazado_1232373" data-name="Trazado 1232373" d="M235.425,170.212a3.088,3.088,0,1,0,3.088,3.088A3.092,3.092,0,0,0,235.425,170.212Zm0,4.219a1.131,1.131,0,1,1,1.131-1.131A1.132,1.132,0,0,1,235.425,174.431Z" transform="translate(-202.016 -157.424)"/>
        <path id="Trazado_1232374" data-name="Trazado 1232374" d="M334.825,150.009a3.088,3.088,0,1,0,3.088,3.088A3.092,3.092,0,0,0,334.825,150.009Zm0,4.219a1.131,1.131,0,1,1,1.131-1.131A1.132,1.132,0,0,1,334.825,154.228Z" transform="translate(-288.444 -139.858)"/>
        <path id="Trazado_1232375" data-name="Trazado 1232375" d="M431.137,183.4a3.088,3.088,0,1,0,3.088-3.088A3.092,3.092,0,0,0,431.137,183.4Zm4.219,0a1.131,1.131,0,1,1-1.131-1.131A1.132,1.132,0,0,1,435.356,183.4Z" transform="translate(-374.872 -166.208)"/>
        <path id="Trazado_1232376" data-name="Trazado 1232376" d="M65.84,81.877a.979.979,0,0,0,.979-.979V78.874A3.619,3.619,0,0,0,63.2,75.259h-.762V73.206a.979.979,0,0,0-1.958,0v2.053H58.223V73.206a.979.979,0,0,0-1.958,0v2.053H55.5A3.605,3.605,0,0,0,52.867,76.4a3.605,3.605,0,0,0-2.636-1.145h-.761V73.206a.979.979,0,0,0-1.958,0v2.053H45.251V73.206a.979.979,0,0,0-1.958,0v2.053h-.761A3.6,3.6,0,0,0,39.9,76.4a3.6,3.6,0,0,0-2.636-1.145H36.5V73.206a.979.979,0,0,0-1.958,0v2.053H32.279V73.206a.979.979,0,0,0-1.958,0v2.053h-.762A3.6,3.6,0,0,0,26.923,76.4a3.605,3.605,0,0,0-2.636-1.145h-.761V73.206a.979.979,0,0,0-1.958,0v2.053H19.307V73.206a.979.979,0,0,0-1.958,0v2.053h-.761A3.6,3.6,0,0,0,13.951,76.4a3.6,3.6,0,0,0-2.636-1.145h-.762V73.206a.979.979,0,0,0-1.958,0v2.053H6.334V73.206a.979.979,0,0,0-1.958,0v2.053H3.615A3.619,3.619,0,0,0,0,78.874v9.18a.979.979,0,0,0,1.958,0v-9.18a1.659,1.659,0,0,1,1.657-1.657h7.7a1.659,1.659,0,0,1,1.657,1.657h0V94.694a1.66,1.66,0,0,1-1.657,1.659h-7.7a1.66,1.66,0,0,1-1.657-1.659V92.621a.979.979,0,1,0-1.958,0v2.072A3.62,3.62,0,0,0,3.615,98.31H6.486v4.653l-2.377,2.171a6.9,6.9,0,0,0-2.241,5.083v2.017a.979.979,0,0,0,1.958,0v-2.017a4.937,4.937,0,0,1,1.6-3.637l1.057-.965v1.946A6.839,6.839,0,0,0,8.5,112.429a4.894,4.894,0,0,1,1.443,3.483v3.3a.979.979,0,0,0,1.958,0v-3.3a6.839,6.839,0,0,0-2.016-4.868,4.894,4.894,0,0,1-1.443-3.483V98.31h2.871a3.6,3.6,0,0,0,2.636-1.146,3.605,3.605,0,0,0,2.636,1.145h2.871v8.06a3.242,3.242,0,0,1-.956,2.308,5.187,5.187,0,0,0-1.529,3.692v6.846a.979.979,0,1,0,1.958,0v-6.846a3.242,3.242,0,0,1,.956-2.308,5.187,5.187,0,0,0,1.529-3.692v-.875l.986.986a3.242,3.242,0,0,1,.956,2.308v3a.979.979,0,1,0,1.958,0v-3a5.187,5.187,0,0,0-1.529-3.692l-2.37-2.37V98.31h2.871a3.605,3.605,0,0,0,2.636-1.145,3.6,3.6,0,0,0,2.636,1.146H32.43v.948l-1.386.7a5.111,5.111,0,0,0-2.832,4.592V105.9a.979.979,0,1,0,1.958,0v-1.354a3.164,3.164,0,0,1,1.753-2.842l.508-.255v3.273a5.1,5.1,0,0,0,1.5,3.633,3.16,3.16,0,0,1,.932,2.249v8.612a.979.979,0,0,0,1.958,0V110.6a5.1,5.1,0,0,0-1.5-3.633,3.16,3.16,0,0,1-.932-2.249V98.31h2.871A3.6,3.6,0,0,0,39.9,97.164a3.605,3.605,0,0,0,2.636,1.145H45.4v5.78l-1.419,1.138a7.444,7.444,0,0,0-2.8,5.835v3.548a.979.979,0,0,0,1.958,0v-3.548a5.5,5.5,0,0,1,2.067-4.307l.194-.156v5.021a7.43,7.43,0,0,0,2.191,5.288l2.981,2.981a.979.979,0,0,0,1.384-1.384l-2.981-2.981a5.485,5.485,0,0,1-1.617-3.9V98.31h2.871a3.605,3.605,0,0,0,2.636-1.145A3.6,3.6,0,0,0,55.5,98.31H58.8v4.416l-3.3,3.3a5.877,5.877,0,0,0-1.733,4.183v4.884a.979.979,0,0,0,1.958,0v-4.884a3.933,3.933,0,0,1,1.159-2.8l1.915-1.915v4.695a5.878,5.878,0,0,0,1.733,4.183l.033.033a3.932,3.932,0,0,1,1.159,2.8v2.01a.979.979,0,1,0,1.958,0V117.2a5.877,5.877,0,0,0-1.733-4.183l-.033-.033a3.933,3.933,0,0,1-1.159-2.8v-6.672l2.947,2.947a3.933,3.933,0,0,1,1.159,2.8v3.342a.979.979,0,1,0,1.958,0v-3.342a5.877,5.877,0,0,0-1.733-4.183l-3.172-3.172a3.933,3.933,0,0,1-1.159-2.8v-.8H63.2a3.62,3.62,0,0,0,3.615-3.616V85.466a.979.979,0,1,0-1.958,0v9.228A1.66,1.66,0,0,1,63.2,96.352H55.5a1.66,1.66,0,0,1-1.657-1.659V78.875h0A1.659,1.659,0,0,1,55.5,77.217h7.7a1.659,1.659,0,0,1,1.657,1.657V80.9a.979.979,0,0,0,.979.979ZM37.259,96.352h-7.7A1.66,1.66,0,0,1,27.9,94.694V86.432a.979.979,0,0,0-1.958,0v8.262h0a1.66,1.66,0,0,1-1.658,1.658h-7.7a1.66,1.66,0,0,1-1.658-1.658h0V78.875a1.66,1.66,0,0,1,1.658-1.658h7.7a1.66,1.66,0,0,1,1.658,1.658v2.989a.979.979,0,0,0,1.958,0v-2.99a1.659,1.659,0,0,1,1.657-1.657h7.7a1.659,1.659,0,0,1,1.657,1.657h0V94.694A1.66,1.66,0,0,1,37.259,96.352Zm14.63-1.658a1.66,1.66,0,0,1-1.658,1.658h-7.7a1.66,1.66,0,0,1-1.658-1.658h0V78.875a1.66,1.66,0,0,1,1.658-1.658h7.7a1.66,1.66,0,0,1,1.658,1.658V94.694Z" transform="translate(0 -72.227)"/>
      </g>
    </g>
  </g>
</svg>
