<svg xmlns="http://www.w3.org/2000/svg" xmlns:xlink="http://www.w3.org/1999/xlink" width="113" height="113" viewBox="0 0 113 113">
  <defs>
    <filter id="Trazado_982547" x="0" y="-0.001" width="113" height="113" filterUnits="userSpaceOnUse">
      <feOffset dy="3" input="SourceAlpha"/>
      <feGaussianBlur stdDeviation="3" result="blur"/>
      <feFlood flood-opacity="0.161"/>
      <feComposite operator="in" in2="blur"/>
      <feComposite in="SourceGraphic"/>
    </filter>
  </defs>
  <g id="Grupo_1234647" data-name="Grupo 1234647" transform="translate(-586 -9982.864)">
    <g id="Grupo_1231174" data-name="Grupo 1231174" transform="translate(0 4365)">
      <g id="Grupo_1230687" data-name="Grupo 1230687" transform="translate(0 -2146.377)">
        <g id="Grupo_1229015" data-name="Grupo 1229015" transform="translate(1 2131.042)">
          <g id="Grupo_1227503" data-name="Grupo 1227503" transform="translate(0 2048.198)">
            <g id="Grupo_1225351" data-name="Grupo 1225351" transform="translate(-1 -393.91)">
              <g id="Grupo_1208122" data-name="Grupo 1208122" transform="translate(0 -1922.377)">
                <g id="Grupo_1202433" data-name="Grupo 1202433" transform="translate(-0.56 1255.773)">
                  <g id="Grupo_1202054" data-name="Grupo 1202054" transform="translate(0 3240.511)">
                    <g id="Grupo_1177897" data-name="Grupo 1177897" transform="translate(595.561 1411.003)">
                      <g id="Grupo_1172010" data-name="Grupo 1172010" transform="translate(0)">
                        <g id="Grupo_1171046" data-name="Grupo 1171046">
                          <g id="Grupo_1148525" data-name="Grupo 1148525">
                            <g transform="matrix(1, 0, 0, 1, -9, -6)" filter="url(#Trazado_982547)">
                              <g id="Trazado_982547-2" data-name="Trazado 982547" transform="translate(9 6)" fill="#d6ccfe">
                                <path d="M 47.5 93.5 C 41.28937149047852 93.5 35.26533508300781 92.28397369384766 29.59518623352051 89.88570404052734 C 24.11771965026855 87.56893157958984 19.19813346862793 84.25196075439453 14.97309303283691 80.02691650390625 C 10.74804019927979 75.80186462402344 7.431066513061523 70.88229370117188 5.114293098449707 65.40481567382812 C 2.716026782989502 59.73468017578125 1.5 53.71062850952148 1.5 47.5 C 1.5 41.28937149047852 2.716026782989502 35.26533508300781 5.114293098449707 29.59518623352051 C 7.431066513061523 24.11771965026855 10.74804019927979 19.19813346862793 14.97309303283691 14.97309303283691 C 19.19813346862793 10.74804019927979 24.11771965026855 7.431066513061523 29.59518623352051 5.114293098449707 C 35.26533508300781 2.716026782989502 41.28937149047852 1.5 47.5 1.5 C 53.71062850952148 1.5 59.73468017578125 2.716026782989502 65.40481567382812 5.114293098449707 C 70.88229370117188 7.431066513061523 75.80186462402344 10.74804019927979 80.02691650390625 14.97309303283691 C 84.25196075439453 19.19813346862793 87.56893157958984 24.11771965026855 89.88570404052734 29.59518623352051 C 92.28397369384766 35.26533508300781 93.5 41.28937149047852 93.5 47.5 C 93.5 53.71062850952148 92.28397369384766 59.73468017578125 89.88570404052734 65.40481567382812 C 87.56893157958984 70.88229370117188 84.25196075439453 75.80186462402344 80.02691650390625 80.02691650390625 C 75.80186462402344 84.25196075439453 70.88229370117188 87.56893157958984 65.40481567382812 89.88570404052734 C 59.73468017578125 92.28397369384766 53.71062850952148 93.5 47.5 93.5 Z" stroke="none"/>
                                <path d="M 47.5 3 C 41.49121475219727 3 35.66376876831055 4.176155090332031 30.17950439453125 6.495796203613281 C 24.88084411621094 8.736953735351562 20.12152099609375 11.94598388671875 16.03375244140625 16.03375244140625 C 11.94598388671875 20.12152099609375 8.736953735351562 24.88084411621094 6.495796203613281 30.17950439453125 C 4.176155090332031 35.66376876831055 3 41.49121475219727 3 47.5 C 3 53.50878524780273 4.176155090332031 59.33623123168945 6.495796203613281 64.82049560546875 C 8.736953735351562 70.11915588378906 11.94598388671875 74.87847900390625 16.03375244140625 78.96624755859375 C 20.12152099609375 83.05401611328125 24.88084411621094 86.26304626464844 30.17950439453125 88.50419616699219 C 35.66376876831055 90.82384490966797 41.49121475219727 92 47.5 92 C 53.50878524780273 92 59.33623123168945 90.82384490966797 64.82049560546875 88.50419616699219 C 70.11915588378906 86.26304626464844 74.87847900390625 83.05401611328125 78.96624755859375 78.96624755859375 C 83.05401611328125 74.87847900390625 86.26304626464844 70.11915588378906 88.50419616699219 64.82049560546875 C 90.82384490966797 59.33623123168945 92 53.50878524780273 92 47.5 C 92 41.49121475219727 90.82384490966797 35.66376876831055 88.50419616699219 30.17950439453125 C 86.26304626464844 24.88084411621094 83.05401611328125 20.12152099609375 78.96624755859375 16.03375244140625 C 74.87847900390625 11.94598388671875 70.11915588378906 8.736953735351562 64.82049560546875 6.495796203613281 C 59.33623123168945 4.176155090332031 53.50878524780273 3 47.5 3 M 47.5 0 C 73.7335205078125 0 95 21.2664794921875 95 47.5 C 95 73.7335205078125 73.7335205078125 95 47.5 95 C 21.2664794921875 95 0 73.7335205078125 0 47.5 C 0 21.2664794921875 21.2664794921875 0 47.5 0 Z" stroke="none" fill="#7958fb"/>
                              </g>
                            </g>
                          </g>
                        </g>
                      </g>
                    </g>
                  </g>
                </g>
              </g>
            </g>
          </g>
        </g>
      </g>
    </g>
    <g id="parasito_1_" data-name="parasito (1)" transform="translate(606.618 10000.482)">
      <g id="Grupo_1234645" data-name="Grupo 1234645" transform="translate(1.051 1.051)">
        <g id="Grupo_1234643" data-name="Grupo 1234643">
          <path id="Trazado_1232402" data-name="Trazado 1232402" d="M78.481,70.076a4.2,4.2,0,0,1,8.175,1.975l-1.07,4.428A4.2,4.2,0,0,1,77.412,74.5ZM68.125,98.751A30.625,30.625,0,1,0,37.5,68.125,30.624,30.624,0,0,0,68.125,98.751Zm7.242-45.088a3.163,3.163,0,0,1-3.65,2.564l-10.355-1.81A3.154,3.154,0,0,1,62.448,48.2L72.8,50.013A3.163,3.163,0,0,1,75.367,53.662ZM51.461,65.372a4.217,4.217,0,0,1,5.654,1.841L63.471,79.7a4.2,4.2,0,1,1-7.5,3.814L49.62,71.026A4.217,4.217,0,0,1,51.461,65.372Z" transform="translate(-33.295 -33.295)" fill="#acf3f9" fill-rule="evenodd"/>
          <path id="Trazado_1232403" data-name="Trazado 1232403" d="M42.33,72.955A30.625,30.625,0,1,1,72.955,42.33,30.624,30.624,0,0,1,42.33,72.955Zm0-65.455A34.83,34.83,0,1,0,77.16,42.33,34.83,34.83,0,0,0,42.33,7.5Z" transform="translate(-7.5 -7.5)" fill="#fff" fill-rule="evenodd"/>
          <path id="Trazado_1232404" data-name="Trazado 1232404" d="M202.086,121.6a3.154,3.154,0,0,0,1.086-6.213l-10.355-1.81a3.154,3.154,0,1,0-1.086,6.213Z" transform="translate(-163.664 -98.665)" fill="#a7e697" fill-rule="evenodd"/>
          <path id="Trazado_1232405" data-name="Trazado 1232405" d="M322.6,250.179l-1.07,4.428a4.2,4.2,0,1,0,8.174,1.975l1.07-4.428a4.2,4.2,0,1,0-8.174-1.975Z" transform="translate(-277.418 -213.399)" fill="#a7e697" fill-rule="evenodd"/>
          <path id="Trazado_1232406" data-name="Trazado 1232406" d="M69.7,98.709a30.626,30.626,0,0,1,0-61.171,30.626,30.626,0,1,0,0,61.171Z" transform="translate(-33.295 -33.293)" fill="#5ceaee" fill-rule="evenodd"/>
          <path id="Trazado_1232407" data-name="Trazado 1232407" d="M127.538,251.712a4.2,4.2,0,1,0,7.5-3.814l-6.356-12.492a4.2,4.2,0,1,0-7.5,3.814Z" transform="translate(-104.857 -201.489)" fill="#a7e697" fill-rule="evenodd"/>
          <path id="Trazado_1232408" data-name="Trazado 1232408" d="M158.626,321.4a4.2,4.2,0,1,0,7.5-3.814l-1.744-3.427a4.2,4.2,0,0,1-7.495,3.815Z" transform="translate(-135.945 -271.181)" fill="#74cd51" fill-rule="evenodd"/>
          <path id="Trazado_1232409" data-name="Trazado 1232409" d="M196.722,114.257l-3.9-.682a3.154,3.154,0,0,0-1.086,6.213l3.9.682a3.154,3.154,0,0,1,1.088-6.213Z" transform="translate(-163.665 -98.666)" fill="#74cd51" fill-rule="evenodd"/>
          <path id="Trazado_1232410" data-name="Trazado 1232410" d="M322.294,279.032l-.761,3.15a4.2,4.2,0,1,0,8.174,1.975l.761-3.149a4.2,4.2,0,0,1-8.174-1.976Z" transform="translate(-277.417 -240.974)" fill="#74cd51" fill-rule="evenodd"/>
        </g>
        <g id="Grupo_1234644" data-name="Grupo 1234644" transform="translate(44.135 9.908)">
          <path id="Trazado_1232411" data-name="Trazado 1232411" d="M328.693,82.4h-2.1v-2.1h2.1Zm-4.2-2.1h-2.1v-2.1h2.1Z" transform="translate(-322.386 -78.191)" fill="#fff"/>
        </g>
      </g>
      <g id="Grupo_1234646" data-name="Grupo 1234646" transform="translate(0)">
        <path id="Trazado_1232412" data-name="Trazado 1232412" d="M61.253,10.509A35.881,35.881,0,0,0,10.509,61.253a35.878,35.878,0,0,0,49.939.777L59.009,60.5a33.783,33.783,0,1,1,1.49-1.49l1.532,1.44a35.878,35.878,0,0,0-.777-49.939Z" transform="translate(0)"/>
        <path id="Trazado_1232413" data-name="Trazado 1232413" d="M30,61.677A31.68,31.68,0,1,0,40.087,38.5l1.433,1.538a29.571,29.571,0,1,1-1.484,1.483L38.5,40.087A31.568,31.568,0,0,0,30,61.677Z" transform="translate(-25.795 -25.795)"/>
        <path id="Trazado_1232414" data-name="Trazado 1232414" d="M145.371,83.292l-2.775-1.4-3.732,1.146.617,2.01,2.924-.9,2.453,1.235a4.219,4.219,0,0,0,2.283,3.659L146,91.957l1.957.768,1.227-3.129,3.6.629.324,1.946-1.283,2.162,1.808,1.073,1.675-2.822-.329-1.975,3.057.534,1.012,3.758,2.03-.547-.839-3.116a4.229,4.229,0,0,0,2.936-2.228l2.878,1.036,2.976-1.536-.964-1.868L165.9,87.756l-2.283-.821a4.219,4.219,0,0,0-2.19-3.511l1.22-2.442-1.881-.94-1.4,2.8-3.692-.645-.337-1.757,1.329-2.371-1.834-1.028-1.7,3.041.331,1.727-3.086-.539-1.549-4.117-1.968.74,1.249,3.32a4.226,4.226,0,0,0-2.737,2.082Zm1.619,1.652a2.1,2.1,0,0,1,2.433-1.709l10.355,1.81a2.1,2.1,0,0,1-.724,4.142L148.7,87.377A2.1,2.1,0,0,1,146.99,84.944Z" transform="translate(-119.4 -66.24)"/>
        <path id="Trazado_1232415" data-name="Trazado 1232415" d="M277.613,202.058a5.237,5.237,0,0,0-1.886,1.98l-3.215-1.826-4.99,1.3.529,2.035,4.164-1.083,2.84,1.613-.749,3.1-1.73.6-3.062-.01-.007,2.1,3.422.011,1.123-.392a5.278,5.278,0,0,0,2.629,4.042l-2.177,3.139,1.282,3.131,1.946-.8-.849-2.075,1.9-2.736c.168.016.335.026.5.026a5.277,5.277,0,0,0,4.527-2.585l2.338,1.841.224,2.634,2.095-.178-.3-3.543-3.614-2.846.772-3.2,3.721-1.175,2.3.557.494-2.044-2.873-.694-3.382,1.068a5.3,5.3,0,0,0-2.557-4.047L285,199.53l-.9-4.47-2.061.414.706,3.512-1.849,2.326a5.222,5.222,0,0,0-3.287.745Zm5.8,5.222-.823,3.406-2.044-.494-.494,2.044,1.868.451a3.153,3.153,0,0,1-5.708-2.461l.823-3.406,2.044.494.494-2.044-1.864-.45a3.153,3.153,0,0,1,5.7,2.46Z" transform="translate(-230.026 -167.72)"/>
        <path id="Trazado_1232416" data-name="Trazado 1232416" d="M75.376,190.774l-.384-3.511-2.09.229.486,4.439,3.068,2.22a5.283,5.283,0,0,0-1.321,5.322L72.7,201.453l-3.319-1.24-.736,1.97,4.448,1.661,2.961-2.409,2.111,4.149-2.28,1.16.954,1.874,2.28-1.16,2.458,4.831-1.632,3.185-1.914.974.954,1.874,2.521-1.283,1.432-2.8a5.319,5.319,0,0,0,3.582,1.4,5.188,5.188,0,0,0,1.7-.29l2.4,2.03.65,2.908,2.052-.458-.8-3.6-2.4-2.031a5.3,5.3,0,0,0,1.56-4.743l2.063-.106,2.85,2.257,1.305-1.648-3.471-2.749-3.546.182-2.492-4.9,1.593-1.351,2.838-.688-.5-2.043L89,199.217l-1.593,1.351L85.232,196.3l2.125-1.589,3.668-.6-.339-2.075-4.176.682-2.364,1.768a5.268,5.268,0,0,0-5.772-1.539Zm4.766,3.964a3.157,3.157,0,0,1,2.816,1.723l6.356,12.492a3.154,3.154,0,0,1-5.621,2.86l-6.356-12.492a3.153,3.153,0,0,1,2.806-4.583Z" transform="translate(-59.023 -161.016)"/>
        <path id="Trazado_1232417" data-name="Trazado 1232417" d="M0,0H2.1V2.1H0Z" transform="matrix(0.891, -0.454, 0.454, 0.891, 20.677, 38.269)"/>
        <path id="Trazado_1232418" data-name="Trazado 1232418" d="M0,0H2.1V2.1H0Z" transform="matrix(0.891, -0.454, 0.454, 0.891, 22.585, 42.015)"/>
      </g>
    </g>
  </g>
</svg>
