<svg xmlns="http://www.w3.org/2000/svg" xmlns:xlink="http://www.w3.org/1999/xlink" width="113" height="113" viewBox="0 0 113 113">
  <defs>
    <filter id="Trazado_982547" x="0" y="0" width="113" height="113" filterUnits="userSpaceOnUse">
      <feOffset dy="3" input="SourceAlpha"/>
      <feGaussianBlur stdDeviation="3" result="blur"/>
      <feFlood flood-opacity="0.161"/>
      <feComposite operator="in" in2="blur"/>
      <feComposite in="SourceGraphic"/>
    </filter>
  </defs>
  <g id="Grupo_1232878" data-name="Grupo 1232878" transform="translate(-586 -2073.368)">
    <g id="Grupo_1231174" data-name="Grupo 1231174" transform="translate(0 -3544.496)">
      <g id="Grupo_1230687" data-name="Grupo 1230687" transform="translate(0 -2146.377)">
        <g id="Grupo_1229015" data-name="Grupo 1229015" transform="translate(1 2131.042)">
          <g id="Grupo_1227503" data-name="Grupo 1227503" transform="translate(0 2048.198)">
            <g id="Grupo_1225351" data-name="Grupo 1225351" transform="translate(-1 -393.91)">
              <g id="Grupo_1208122" data-name="Grupo 1208122" transform="translate(0 -1922.377)">
                <g id="Grupo_1202433" data-name="Grupo 1202433" transform="translate(-0.56 1255.773)">
                  <g id="Grupo_1202054" data-name="Grupo 1202054" transform="translate(0 3240.511)">
                    <g id="Grupo_1177897" data-name="Grupo 1177897" transform="translate(595.561 1411.003)">
                      <g id="Grupo_1172010" data-name="Grupo 1172010" transform="translate(0)">
                        <g id="Grupo_1171046" data-name="Grupo 1171046">
                          <g id="Grupo_1148525" data-name="Grupo 1148525">
                            <g transform="matrix(1, 0, 0, 1, -9, -6)" filter="url(#Trazado_982547)">
                              <g id="Trazado_982547-2" data-name="Trazado 982547" transform="translate(9 6)" fill="#ffefc0">
                                <path d="M 47.5 93.5 C 41.28937149047852 93.5 35.26533508300781 92.28397369384766 29.59518623352051 89.88570404052734 C 24.11771965026855 87.56893157958984 19.19813346862793 84.25196075439453 14.97309303283691 80.02691650390625 C 10.74804019927979 75.80186462402344 7.431066513061523 70.88229370117188 5.114293098449707 65.40481567382812 C 2.716026782989502 59.73468017578125 1.5 53.71062850952148 1.5 47.5 C 1.5 41.28937149047852 2.716026782989502 35.26533508300781 5.114293098449707 29.59518623352051 C 7.431066513061523 24.11771965026855 10.74804019927979 19.19813346862793 14.97309303283691 14.97309303283691 C 19.19813346862793 10.74804019927979 24.11771965026855 7.431066513061523 29.59518623352051 5.114293098449707 C 35.26533508300781 2.716026782989502 41.28937149047852 1.5 47.5 1.5 C 53.71062850952148 1.5 59.73468017578125 2.716026782989502 65.40481567382812 5.114293098449707 C 70.88229370117188 7.431066513061523 75.80186462402344 10.74804019927979 80.02691650390625 14.97309303283691 C 84.25196075439453 19.19813346862793 87.56893157958984 24.11771965026855 89.88570404052734 29.59518623352051 C 92.28397369384766 35.26533508300781 93.5 41.28937149047852 93.5 47.5 C 93.5 53.71062850952148 92.28397369384766 59.73468017578125 89.88570404052734 65.40481567382812 C 87.56893157958984 70.88229370117188 84.25196075439453 75.80186462402344 80.02691650390625 80.02691650390625 C 75.80186462402344 84.25196075439453 70.88229370117188 87.56893157958984 65.40481567382812 89.88570404052734 C 59.73468017578125 92.28397369384766 53.71062850952148 93.5 47.5 93.5 Z" stroke="none"/>
                                <path d="M 47.5 3 C 41.49121475219727 3 35.66376876831055 4.176155090332031 30.17950439453125 6.495796203613281 C 24.88084411621094 8.736953735351562 20.12152099609375 11.94598388671875 16.03375244140625 16.03375244140625 C 11.94598388671875 20.12152099609375 8.736953735351562 24.88084411621094 6.495796203613281 30.17950439453125 C 4.176155090332031 35.66376876831055 3 41.49121475219727 3 47.5 C 3 53.50878524780273 4.176155090332031 59.33623123168945 6.495796203613281 64.82049560546875 C 8.736953735351562 70.11915588378906 11.94598388671875 74.87847900390625 16.03375244140625 78.96624755859375 C 20.12152099609375 83.05401611328125 24.88084411621094 86.26304626464844 30.17950439453125 88.50419616699219 C 35.66376876831055 90.82384490966797 41.49121475219727 92 47.5 92 C 53.50878524780273 92 59.33623123168945 90.82384490966797 64.82049560546875 88.50419616699219 C 70.11915588378906 86.26304626464844 74.87847900390625 83.05401611328125 78.96624755859375 78.96624755859375 C 83.05401611328125 74.87847900390625 86.26304626464844 70.11915588378906 88.50419616699219 64.82049560546875 C 90.82384490966797 59.33623123168945 92 53.50878524780273 92 47.5 C 92 41.49121475219727 90.82384490966797 35.66376876831055 88.50419616699219 30.17950439453125 C 86.26304626464844 24.88084411621094 83.05401611328125 20.12152099609375 78.96624755859375 16.03375244140625 C 74.87847900390625 11.94598388671875 70.11915588378906 8.736953735351562 64.82049560546875 6.495796203613281 C 59.33623123168945 4.176155090332031 53.50878524780273 3 47.5 3 M 47.5 0 C 73.7335205078125 0 95 21.2664794921875 95 47.5 C 95 73.7335205078125 73.7335205078125 95 47.5 95 C 21.2664794921875 95 0 73.7335205078125 0 47.5 C 0 21.2664794921875 21.2664794921875 0 47.5 0 Z" stroke="none" fill="#fc3"/>
                              </g>
                            </g>
                          </g>
                        </g>
                      </g>
                    </g>
                  </g>
                </g>
              </g>
            </g>
          </g>
        </g>
      </g>
    </g>
    <g id="proceso_1_" data-name="proceso (1)" transform="translate(593.89 2074.012)">
      <path id="Trazado_1176062" data-name="Trazado 1176062" d="M278.725,288,272.4,277.038l-6.33-10.962a3.275,3.275,0,0,0-5.672,0l-6.327,10.962L247.738,288a3.273,3.273,0,0,0,2.836,4.91h25.318A3.273,3.273,0,0,0,278.725,288Z" transform="translate(-202.616 -210.442)" fill="#ffdf40"/>
      <path id="Trazado_1176063" data-name="Trazado 1176063" d="M374.242,277.034l-6.33-10.962a3.16,3.16,0,0,0-2.836-1.637v28.471h12.661A3.273,3.273,0,0,0,380.569,288Z" transform="translate(-304.461 -210.438)" fill="#ffbe40"/>
      <path id="Trazado_1176064" data-name="Trazado 1176064" d="M33.757,69.411H29.274a1.082,1.082,0,0,1-.921-.514l-1.32-2.137-3.575-1.484-2.442.582A1.082,1.082,0,0,1,20,65.571L16.83,62.4a1.082,1.082,0,0,1-.287-1.016l.582-2.443-1.48-3.574-2.139-1.316a1.082,1.082,0,0,1-.515-.922V48.644a1.082,1.082,0,0,1,.515-.922l2.14-1.316,1.48-3.574-.582-2.443a1.082,1.082,0,0,1,.287-1.016L20,36.2a1.082,1.082,0,0,1,1.014-.288l2.443.579,3.575-1.48,1.319-2.137a1.082,1.082,0,0,1,.921-.514h4.482a1.082,1.082,0,0,1,.921.514l1.315,2.136,3.578,1.481,2.44-.579a1.082,1.082,0,0,1,1.014.287L46.2,39.374a1.082,1.082,0,0,1,.288,1.016l-.582,2.443,1.48,3.574,2.136,1.315a1.082,1.082,0,0,1,.515.921V53.13a1.082,1.082,0,0,1-.515.921l-2.136,1.316-1.48,3.574.582,2.443A1.082,1.082,0,0,1,46.2,62.4L43.03,65.571a1.082,1.082,0,0,1-1.016.288l-2.442-.582L35.994,66.76,34.678,68.9A1.082,1.082,0,0,1,33.757,69.411Zm-3.878-2.164h3.273l1.182-1.92a1.084,1.084,0,0,1,.507-.433l4.225-1.752a1.082,1.082,0,0,1,.665-.053l2.2.523L44.243,61.3l-.523-2.2a1.081,1.081,0,0,1,.053-.665l1.748-4.222a1.082,1.082,0,0,1,.433-.507l1.92-1.182V49.248l-1.92-1.182a1.081,1.081,0,0,1-.433-.507l-1.748-4.222a1.08,1.08,0,0,1-.053-.665l.523-2.195-2.319-2.317-2.192.52a1.082,1.082,0,0,1-.664-.053l-4.225-1.748a1.082,1.082,0,0,1-.508-.433l-1.182-1.92H29.879l-1.186,1.921a1.082,1.082,0,0,1-.507.431l-4.222,1.749a1.083,1.083,0,0,1-.664.053l-2.2-.52-2.316,2.316.523,2.2a1.082,1.082,0,0,1-.053.665l-1.749,4.222a1.08,1.08,0,0,1-.433.508l-1.923,1.182v3.276l1.923,1.183a1.081,1.081,0,0,1,.433.508l1.749,4.221a1.082,1.082,0,0,1,.053.665L18.788,61.3,21.1,63.612l2.195-.523a1.083,1.083,0,0,1,.666.053l4.222,1.752a1.082,1.082,0,0,1,.506.431Zm1.636-4.933A11.427,11.427,0,1,1,42.94,50.887,11.427,11.427,0,0,1,31.514,62.314Zm0-20.69a9.263,9.263,0,1,0,9.263,9.263A9.263,9.263,0,0,0,31.514,41.624ZM62.9,46.252h-2.96a1.082,1.082,0,0,1-.922-.515l-.806-1.308-2.136-.886-1.5.356a1.082,1.082,0,0,1-1.017-.288l-2.09-2.094a1.082,1.082,0,0,1-.287-1.016l.356-1.492-.886-2.14-1.308-.806a1.082,1.082,0,0,1-.515-.921V32.187a1.082,1.082,0,0,1,.515-.921l1.308-.806.886-2.136-.356-1.5a1.082,1.082,0,0,1,.287-1.014l2.09-2.094a1.082,1.082,0,0,1,1.017-.288l1.5.356,2.136-.886.806-1.308a1.082,1.082,0,0,1,.922-.514H62.9a1.082,1.082,0,0,1,.921.515l.806,1.308,2.136.885,1.5-.356a1.082,1.082,0,0,1,1.017.288l2.09,2.094a1.082,1.082,0,0,1,.287,1.014l-.356,1.5.886,2.136,1.308.806a1.082,1.082,0,0,1,.515.921v2.956a1.082,1.082,0,0,1-.515.921l-1.308.806-.886,2.14.356,1.492a1.082,1.082,0,0,1-.287,1.016l-2.09,2.094a1.083,1.083,0,0,1-1.017.288l-1.5-.356-2.136.886-.806,1.308a1.082,1.082,0,0,1-.921.515Zm-2.356-2.164H62.3L62.968,43a1.082,1.082,0,0,1,.507-.432l2.784-1.154a1.082,1.082,0,0,1,.665-.053l1.248.3,1.235-1.238-.3-1.244a1.082,1.082,0,0,1,.053-.665l1.154-2.788a1.082,1.082,0,0,1,.433-.508l1.092-.672V32.792L70.75,32.12a1.082,1.082,0,0,1-.432-.507l-1.154-2.784a1.08,1.08,0,0,1-.053-.665l.3-1.249-1.235-1.238-1.248.3a1.082,1.082,0,0,1-.665-.053l-2.784-1.154a1.082,1.082,0,0,1-.507-.432L62.3,23.243H60.545l-.672,1.092a1.082,1.082,0,0,1-.507.433l-2.784,1.154a1.082,1.082,0,0,1-.665.053l-1.248-.3-1.235,1.238.3,1.249a1.082,1.082,0,0,1-.053.665l-1.154,2.784a1.082,1.082,0,0,1-.432.507L51,32.793V34.54l1.092.672a1.082,1.082,0,0,1,.433.508l1.154,2.788a1.082,1.082,0,0,1,.053.665l-.3,1.244,1.235,1.238,1.248-.3a1.082,1.082,0,0,1,.665.053l2.784,1.154a1.082,1.082,0,0,1,.507.432Zm.875-3.361a7.062,7.062,0,1,1,7.06-7.06A7.062,7.062,0,0,1,61.421,40.727Zm0-11.959a4.9,4.9,0,1,0,4.9,4.9,4.9,4.9,0,0,0-4.9-4.9ZM73.276,84.633H47.959a5.438,5.438,0,0,1-4.71-8.158l6.33-10.961,6.327-10.962a5.439,5.439,0,0,1,9.42,0l6.33,10.962,6.327,10.962a5.438,5.438,0,0,1-4.706,8.157ZM60.616,54a3.16,3.16,0,0,0-2.836,1.637L51.453,66.6l-6.33,10.962a3.273,3.273,0,0,0,2.836,4.91H73.276a3.273,3.273,0,0,0,2.832-4.909L69.782,66.6l-6.33-10.962A3.16,3.16,0,0,0,60.616,54Zm0,19.148a2.9,2.9,0,0,1-2.848-2.794l-.318-6.235a2.985,2.985,0,0,1,.837-2.222,3.211,3.211,0,0,1,4.658,0,2.984,2.984,0,0,1,.837,2.221l-.318,6.236a2.9,2.9,0,0,1-2.848,2.795Zm0-10.088a1.056,1.056,0,0,0-.761.328.836.836,0,0,0-.243.621l.318,6.234a.689.689,0,1,0,1.374,0l.318-6.234a.835.835,0,0,0-.244-.62,1.056,1.056,0,0,0-.761-.328Zm0,16.664a2.85,2.85,0,1,1,2.85-2.85,2.85,2.85,0,0,1-2.85,2.85Zm0-3.535a.686.686,0,1,0,.686.686.685.685,0,0,0-.686-.686Z" transform="translate(0)"/>
      <path id="Trazado_1176065" data-name="Trazado 1176065" d="M313.308,45.448l-1.154-2.784A1.081,1.081,0,0,1,312.1,42l.3-1.249-1.235-1.238-1.248.3a1.082,1.082,0,0,1-.665-.053L306.467,38.6a1.082,1.082,0,0,1-.507-.432l-.672-1.092h-1.751l-.672,1.092a1.082,1.082,0,0,1-.507.433l-2.784,1.154a1.082,1.082,0,0,1-.665.053l-1.248-.3-1.235,1.238.3,1.249a1.082,1.082,0,0,1-.053.665l-1.154,2.784a1.082,1.082,0,0,1-.433.507l-1.092.672v1.747l1.092.672a1.082,1.082,0,0,1,.433.508l1.154,2.788a1.083,1.083,0,0,1,.053.665l-.3,1.244,1.235,1.238,1.248-.3a1.082,1.082,0,0,1,.665.053l2.784,1.154a1.082,1.082,0,0,1,.507.432l.672,1.092h1.751l.672-1.092a1.082,1.082,0,0,1,.507-.432l2.784-1.154a1.082,1.082,0,0,1,.665-.053l1.248.3,1.235-1.238-.3-1.244a1.082,1.082,0,0,1,.053-.665l1.154-2.788a1.081,1.081,0,0,1,.433-.508l1.092-.672V46.627l-1.091-.672A1.081,1.081,0,0,1,313.308,45.448Zm-8.9,9.114a7.062,7.062,0,1,1,7.06-7.06,7.062,7.062,0,0,1-7.06,7.06Z" transform="translate(-242.991 -13.836)" fill="#bec7cf"/>
      <path id="Trazado_1176066" data-name="Trazado 1176066" d="M358.653,331.421a1.056,1.056,0,0,0-.761.328.836.836,0,0,0-.243.621l.318,6.233a.689.689,0,1,0,1.374,0l.318-6.234a.835.835,0,0,0-.244-.62A1.056,1.056,0,0,0,358.653,331.421Z" transform="translate(-298.037 -268.363)" fill="#ec4c36"/>
      <path id="Trazado_1176067" data-name="Trazado 1176067" d="M360.7,428.478a.686.686,0,1,0,.686.686A.686.686,0,0,0,360.7,428.478Z" transform="translate(-300.08 -352.292)" fill="#ec4c36"/>
      <path id="Trazado_1176068" data-name="Trazado 1176068" d="M31.339,140.183l1.749,4.222a1.082,1.082,0,0,1,.053.665l-.523,2.195,2.316,2.316,2.195-.523a1.083,1.083,0,0,1,.666.053l4.222,1.752a1.082,1.082,0,0,1,.506.431l1.186,1.921h3.273l1.182-1.92a1.083,1.083,0,0,1,.507-.433l4.225-1.752a1.082,1.082,0,0,1,.665-.053l2.2.523,2.316-2.315-.523-2.2a1.081,1.081,0,0,1,.053-.665l1.748-4.222a1.082,1.082,0,0,1,.433-.507l1.92-1.182v-3.277l-1.92-1.182a1.081,1.081,0,0,1-.433-.507L57.6,129.306a1.08,1.08,0,0,1-.053-.665l.523-2.195-2.319-2.317-2.192.52a1.082,1.082,0,0,1-.664-.053l-4.225-1.748a1.082,1.082,0,0,1-.508-.433l-1.182-1.92H43.708l-1.186,1.921a1.082,1.082,0,0,1-.507.431L37.794,124.6a1.083,1.083,0,0,1-.664.053l-2.2-.52-2.316,2.316.523,2.2a1.082,1.082,0,0,1-.053.665l-1.749,4.222a1.081,1.081,0,0,1-.433.508l-1.923,1.182v3.276l1.923,1.183a1.081,1.081,0,0,1,.433.507Zm14-14.755A11.427,11.427,0,1,1,33.92,136.854a11.427,11.427,0,0,1,11.423-11.426Z" transform="translate(-13.83 -85.968)" fill="#bec7cf"/>
      <g id="Grupo_1232877" data-name="Grupo 1232877" transform="translate(31.515 23.243)">
        <path id="Trazado_1176069" data-name="Trazado 1176069" d="M163.951,133.527l-1.748-4.221a1.081,1.081,0,0,1-.053-.665l.523-2.195-2.319-2.317-2.192.52a1.082,1.082,0,0,1-.664-.053l-4.225-1.748a1.082,1.082,0,0,1-.508-.433l-1.182-1.92h-1.637v4.933a11.427,11.427,0,1,1,0,22.854v4.933h1.637l1.182-1.92a1.083,1.083,0,0,1,.507-.433l4.225-1.752a1.082,1.082,0,0,1,.665-.053l2.2.523,2.316-2.315-.523-2.2a1.081,1.081,0,0,1,.053-.665l1.748-4.221a1.082,1.082,0,0,1,.433-.507l1.92-1.182v-3.277l-1.92-1.182A1.081,1.081,0,0,1,163.951,133.527Z" transform="translate(-149.945 -109.212)" fill="#abb3ba"/>
        <path id="Trazado_1176070" data-name="Trazado 1176070" d="M379.927,45.448l-1.154-2.784A1.081,1.081,0,0,1,378.72,42l.3-1.249-1.235-1.238-1.248.3a1.082,1.082,0,0,1-.665-.053L373.086,38.6a1.082,1.082,0,0,1-.507-.432l-.672-1.092h-.876v3.36a7.062,7.062,0,1,1,0,14.123v3.361h.875l.672-1.092a1.082,1.082,0,0,1,.507-.432l2.784-1.154a1.082,1.082,0,0,1,.665-.053l1.248.3,1.235-1.238-.3-1.244a1.083,1.083,0,0,1,.053-.665l1.154-2.788a1.081,1.081,0,0,1,.433-.508l1.092-.672V46.627l-1.091-.672a1.08,1.08,0,0,1-.433-.507Z" transform="translate(-341.126 -37.079)" fill="#abb3ba"/>
      </g>
    </g>
  </g>
</svg>
