<svg xmlns="http://www.w3.org/2000/svg" xmlns:xlink="http://www.w3.org/1999/xlink" width="113" height="113" viewBox="0 0 113 113">
  <defs>
    <filter id="Trazado_982547" x="0" y="0" width="113" height="113" filterUnits="userSpaceOnUse">
      <feOffset dy="3" input="SourceAlpha"/>
      <feGaussianBlur stdDeviation="3" result="blur"/>
      <feFlood flood-opacity="0.161"/>
      <feComposite operator="in" in2="blur"/>
      <feComposite in="SourceGraphic"/>
    </filter>
  </defs>
  <g id="Grupo_1234664" data-name="Grupo 1234664" transform="translate(-1216 -9982.846)">
    <g id="Grupo_1231160" data-name="Grupo 1231160" transform="translate(0 4365)">
      <g id="Grupo_1230689" data-name="Grupo 1230689" transform="translate(0 -2146.377)">
        <g id="Grupo_1229017" data-name="Grupo 1229017" transform="translate(0 2131.042)">
          <g id="Grupo_1227505" data-name="Grupo 1227505" transform="translate(0.575 2048.198)">
            <g id="Grupo_1225353" data-name="Grupo 1225353" transform="translate(-0.575 -393.641)">
              <g id="Grupo_1208124" data-name="Grupo 1208124" transform="translate(0 -1922.377)">
                <g id="Grupo_1202435" data-name="Grupo 1202435" transform="translate(-0.56 1255.486)">
                  <g id="Grupo_1202052" data-name="Grupo 1202052" transform="translate(1225.561 4651.514)">
                    <g id="Grupo_1172010" data-name="Grupo 1172010" transform="translate(0)">
                      <g id="Grupo_1171046" data-name="Grupo 1171046">
                        <g id="Grupo_1148525" data-name="Grupo 1148525">
                          <g transform="matrix(1, 0, 0, 1, -9, -6)" filter="url(#Trazado_982547)">
                            <g id="Trazado_982547-2" data-name="Trazado 982547" transform="translate(9 6)" fill="#d6ccfe">
                              <path d="M 47.5 93.5 C 41.28937149047852 93.5 35.26533508300781 92.28397369384766 29.59518623352051 89.88570404052734 C 24.11771965026855 87.56893157958984 19.19813346862793 84.25196075439453 14.97309303283691 80.02691650390625 C 10.74804019927979 75.80186462402344 7.431066513061523 70.88229370117188 5.114293098449707 65.40481567382812 C 2.716026782989502 59.73468017578125 1.5 53.71062850952148 1.5 47.5 C 1.5 41.28937149047852 2.716026782989502 35.26533508300781 5.114293098449707 29.59518623352051 C 7.431066513061523 24.11771965026855 10.74804019927979 19.19813346862793 14.97309303283691 14.97309303283691 C 19.19813346862793 10.74804019927979 24.11771965026855 7.431066513061523 29.59518623352051 5.114293098449707 C 35.26533508300781 2.716026782989502 41.28937149047852 1.5 47.5 1.5 C 53.71062850952148 1.5 59.73468017578125 2.716026782989502 65.40481567382812 5.114293098449707 C 70.88229370117188 7.431066513061523 75.80186462402344 10.74804019927979 80.02691650390625 14.97309303283691 C 84.25196075439453 19.19813346862793 87.56893157958984 24.11771965026855 89.88570404052734 29.59518623352051 C 92.28397369384766 35.26533508300781 93.5 41.28937149047852 93.5 47.5 C 93.5 53.71062850952148 92.28397369384766 59.73468017578125 89.88570404052734 65.40481567382812 C 87.56893157958984 70.88229370117188 84.25196075439453 75.80186462402344 80.02691650390625 80.02691650390625 C 75.80186462402344 84.25196075439453 70.88229370117188 87.56893157958984 65.40481567382812 89.88570404052734 C 59.73468017578125 92.28397369384766 53.71062850952148 93.5 47.5 93.5 Z" stroke="none"/>
                              <path d="M 47.5 3 C 41.49121475219727 3 35.66376876831055 4.176155090332031 30.17950439453125 6.495796203613281 C 24.88084411621094 8.736953735351562 20.12152099609375 11.94598388671875 16.03375244140625 16.03375244140625 C 11.94598388671875 20.12152099609375 8.736953735351562 24.88084411621094 6.495796203613281 30.17950439453125 C 4.176155090332031 35.66376876831055 3 41.49121475219727 3 47.5 C 3 53.50878524780273 4.176155090332031 59.33623123168945 6.495796203613281 64.82049560546875 C 8.736953735351562 70.11915588378906 11.94598388671875 74.87847900390625 16.03375244140625 78.96624755859375 C 20.12152099609375 83.05401611328125 24.88084411621094 86.26304626464844 30.17950439453125 88.50419616699219 C 35.66376876831055 90.82384490966797 41.49121475219727 92 47.5 92 C 53.50878524780273 92 59.33623123168945 90.82384490966797 64.82049560546875 88.50419616699219 C 70.11915588378906 86.26304626464844 74.87847900390625 83.05401611328125 78.96624755859375 78.96624755859375 C 83.05401611328125 74.87847900390625 86.26304626464844 70.11915588378906 88.50419616699219 64.82049560546875 C 90.82384490966797 59.33623123168945 92 53.50878524780273 92 47.5 C 92 41.49121475219727 90.82384490966797 35.66376876831055 88.50419616699219 30.17950439453125 C 86.26304626464844 24.88084411621094 83.05401611328125 20.12152099609375 78.96624755859375 16.03375244140625 C 74.87847900390625 11.94598388671875 70.11915588378906 8.736953735351562 64.82049560546875 6.495796203613281 C 59.33623123168945 4.176155090332031 53.50878524780273 3 47.5 3 M 47.5 0 C 73.7335205078125 0 95 21.2664794921875 95 47.5 C 95 73.7335205078125 73.7335205078125 95 47.5 95 C 21.2664794921875 95 0 73.7335205078125 0 47.5 C 0 21.2664794921875 21.2664794921875 0 47.5 0 Z" stroke="none" fill="#7958fb"/>
                            </g>
                          </g>
                        </g>
                      </g>
                    </g>
                  </g>
                </g>
              </g>
            </g>
          </g>
        </g>
      </g>
    </g>
    <g id="pastillas" transform="translate(1238.921 10002.768)">
      <g id="Grupo_1234650" data-name="Grupo 1234650" transform="translate(36.686 31.741)">
        <path id="Trazado_1232449" data-name="Trazado 1232449" d="M284.6,242.008a4.571,4.571,0,0,0-4.9,4.216v9.624l9.116-1.978v-6.96A4.571,4.571,0,0,0,284.6,242.008Z" transform="translate(-279.698 -241.995)" fill="#ffd4bd"/>
        <path id="Trazado_1232450" data-name="Trazado 1232450" d="M325.6,242.008a4.571,4.571,0,0,0-4.9,4.216v9.624l9.116-1.978v-6.96A4.571,4.571,0,0,0,325.6,242.008Z" transform="translate(-315.32 -241.995)" fill="#ffbf9d"/>
      </g>
      <g id="Grupo_1234651" data-name="Grupo 1234651" transform="translate(12.788 33.976)">
        <path id="Trazado_1232451" data-name="Trazado 1232451" d="M99.868,270.74c2.381-2.387-.061.057,10.307-10.311a4.756,4.756,0,0,1,6.706-.02,4.844,4.844,0,0,1-.046,6.812l-1.149,1.149h4.533a14.32,14.32,0,0,0,10.844-4.924l.048-.056a4.756,4.756,0,0,1,7.211,6.2,42.855,42.855,0,0,1-22.636,13.771l-9.093,3.935L97.5,283.363v-6.921A8.062,8.062,0,0,1,99.868,270.74Z" transform="translate(-97.5 -259.037)" fill="#ffd4bd"/>
        <path id="Trazado_1232452" data-name="Trazado 1232452" d="M116.879,260.409a4.756,4.756,0,0,0-6.706.019C99.8,270.8,102.247,268.352,99.866,270.74a8.063,8.063,0,0,0-2.368,5.7v6.921h8.567a12.855,12.855,0,0,1,3.765-9.14l5.854-5.854,1.149-1.149A4.844,4.844,0,0,0,116.879,260.409Z" transform="translate(-97.498 -259.036)" fill="#ffbf9d"/>
      </g>
      <g id="Grupo_1234652" data-name="Grupo 1234652" transform="translate(11.084 58.302)">
        <path id="Trazado_1232453" data-name="Trazado 1232453" d="M104.317,444.5H86.131a5.565,5.565,0,0,0,0,7.87H104.4A5.486,5.486,0,0,0,104.317,444.5Z" transform="translate(-84.501 -444.5)" fill="#efedff"/>
        <path id="Trazado_1232454" data-name="Trazado 1232454" d="M90.839,448.435a3.935,3.935,0,0,1,3.935-3.935H86.132a5.565,5.565,0,0,0,0,7.87h8.642A3.935,3.935,0,0,1,90.839,448.435Z" transform="translate(-84.502 -444.5)" fill="#d4d4ff"/>
      </g>
      <g id="Grupo_1234655" data-name="Grupo 1234655" transform="translate(25.446 0.984)">
        <g id="Grupo_1234653" data-name="Grupo 1234653" transform="translate(0)">
          <path id="Trazado_1232455" data-name="Trazado 1232455" d="M252.969,9.354a6.334,6.334,0,0,0-8.956,0l-4.159,4.159,8.957,8.957,4.159-4.159a6.334,6.334,0,0,0,0-8.959Z" transform="translate(-233.84 -7.5)" fill="#ff8e9e"/>
          <path id="Trazado_1232456" data-name="Trazado 1232456" d="M200.014,53.354l-4.159,4.159a6.334,6.334,0,0,0,8.957,8.957l4.159-4.159A10.866,10.866,0,0,0,200.014,53.354Z" transform="translate(-194 -47.34)" fill="#efedff"/>
        </g>
        <g id="Grupo_1234654" data-name="Grupo 1234654">
          <path id="Trazado_1232457" data-name="Trazado 1232457" d="M195.855,57.513a6.333,6.333,0,0,0,5.913,10.648,6.334,6.334,0,0,1,0-8.959l3.458-3.458a10.847,10.847,0,0,0-5.21-2.39Z" transform="translate(-194 -47.34)" fill="#d4d4ff"/>
          <path id="Trazado_1232458" data-name="Trazado 1232458" d="M252.969,9.354a6.334,6.334,0,0,0-8.956,0l-4.159,4.159a10.848,10.848,0,0,1,5.21,2.39l4.861-4.861a6.334,6.334,0,0,1,3.045-1.69Z" transform="translate(-233.84 -7.5)" fill="#ea5b70"/>
        </g>
      </g>
      <g id="Grupo_1234658" data-name="Grupo 1234658" transform="translate(45.186 13.182)">
        <g id="Grupo_1234656" data-name="Grupo 1234656">
          <path id="Trazado_1232459" data-name="Trazado 1232459" d="M403.47,159.472a6.334,6.334,0,0,1-8.956,0l-4.159-4.159,8.957-8.957,4.159,4.159a6.334,6.334,0,0,1,0,8.959Z" transform="translate(-384.341 -140.34)" fill="#ff8e9e"/>
          <path id="Trazado_1232460" data-name="Trazado 1232460" d="M350.514,115.472l-4.159-4.159a6.334,6.334,0,0,1,8.957-8.957l4.159,4.159A10.866,10.866,0,0,1,350.514,115.472Z" transform="translate(-344.5 -100.5)" fill="#b9f0ff"/>
        </g>
        <g id="Grupo_1234657" data-name="Grupo 1234657">
          <path id="Trazado_1232461" data-name="Trazado 1232461" d="M346.355,111.313a6.333,6.333,0,0,1,5.913-10.648,6.334,6.334,0,0,0,0,8.959l3.458,3.458a10.847,10.847,0,0,1-5.21,2.39Z" transform="translate(-344.5 -100.5)" fill="#55dafe"/>
          <path id="Trazado_1232462" data-name="Trazado 1232462" d="M403.47,202.973a6.334,6.334,0,0,1-8.956,0l-4.159-4.159a10.848,10.848,0,0,0,5.21-2.39l4.861,4.861A6.332,6.332,0,0,0,403.47,202.973Z" transform="translate(-384.341 -183.841)" fill="#ea5b70"/>
        </g>
      </g>
      <g id="Grupo_1234661" data-name="Grupo 1234661" transform="translate(0.984 20.621)">
        <g id="Grupo_1234659" data-name="Grupo 1234659">
          <path id="Trazado_1232463" data-name="Trazado 1232463" d="M114.961,163.676a6.461,6.461,0,0,1-6.461,6.459h-6V157.213h6a6.461,6.461,0,0,1,6.461,6.463Z" transform="translate(-90.04 -157.213)" fill="#ff8e9e"/>
          <path id="Trazado_1232464" data-name="Trazado 1232464" d="M19.961,170.134h-6a6.461,6.461,0,0,1,0-12.921h6A11.084,11.084,0,0,1,19.961,170.134Z" transform="translate(-7.5 -157.213)" fill="#fce3a0"/>
        </g>
        <g id="Grupo_1234660" data-name="Grupo 1234660" transform="translate(0 0.977)">
          <path id="Trazado_1232465" data-name="Trazado 1232465" d="M13.961,176.6a6.46,6.46,0,0,1-3.415-11.945,6.461,6.461,0,0,0,6.461,6.463h4.988a11.064,11.064,0,0,1-2.034,5.482Z" transform="translate(-7.5 -164.66)" fill="#ffce71"/>
          <path id="Trazado_1232466" data-name="Trazado 1232466" d="M114.961,206.484a6.461,6.461,0,0,1-6.461,6.459h-6a11.066,11.066,0,0,0,2.034-5.482h7.011A6.46,6.46,0,0,0,114.961,206.484Z" transform="translate(-90.04 -200.998)" fill="#ea5b70"/>
        </g>
      </g>
      <g id="Grupo_1234663" data-name="Grupo 1234663" transform="translate(0)">
        <path id="Trazado_1232467" data-name="Trazado 1232467" d="M120.651,240.795a5.742,5.742,0,0,0-1.575-.964,5.55,5.55,0,0,0-8.238-4.66,5.558,5.558,0,0,0-8.229,4.441c0,.025,0,.049,0,.074v6.353c-.245,0,.212,0-2.416,0a5.817,5.817,0,0,0-.427-7.676,5.754,5.754,0,0,0-8.093.024c-9.07,9.07-8.49,8.49-9.5,9.5a9.562,9.562,0,0,0-3.461,7.2v6.449a6.549,6.549,0,0,0,.213,9.037.983.983,0,0,0,.7.288H97.884a.984.984,0,0,0,.705-.3,6.7,6.7,0,0,0,1.534-2.445.984.984,0,1,0-1.855-.657,4.667,4.667,0,0,1-.821,1.432h-17.4a4.583,4.583,0,0,1,0-5.9H97.386a4.477,4.477,0,0,1,.813,1.316.984.984,0,1,0,1.826-.733,6.513,6.513,0,0,0-.49-.975,43.572,43.572,0,0,0,21.724-13.721A5.736,5.736,0,0,0,120.651,240.795Zm-10.7-1.07a3.588,3.588,0,0,1,7.11-.316,5.711,5.711,0,0,0-4.5,1.993,13.132,13.132,0,0,1-2.607,2.332Zm-5.378,0a3.59,3.59,0,0,1,4.593-3.136,5.521,5.521,0,0,0-1.18,3.023c0,.025,0,.049,0,.074v5.154a13.41,13.41,0,0,1-3.41,1.028v-6.143Zm15.194,7.881a41.634,41.634,0,0,1-22.01,13.428H80.675V255.1a7.706,7.706,0,0,1,2.887-5.816c1.008-1.011.505-.508,9.5-9.5a3.781,3.781,0,0,1,5.319-.016,3.862,3.862,0,0,1-.05,5.416l-3.772,3.772a.984.984,0,1,0,1.391,1.391l2.335-2.335h4.125a15.287,15.287,0,0,0,11.638-5.322,3.772,3.772,0,0,1,5.719,4.92Z" transform="translate(-66.903 -203.716)"/>
        <g id="Grupo_1234662" data-name="Grupo 1234662" transform="translate(0)">
          <path id="Trazado_1232468" data-name="Trazado 1232468" d="M209.454,7.318a7.318,7.318,0,0,0-12.492-5.174l-.318.318a.984.984,0,0,0,1.391,1.391l.318-.318A5.35,5.35,0,0,1,205.92,11.1l-2.926,2.926a11.843,11.843,0,0,0-7.6-7.576.983.983,0,0,0-1.535-1.207l-5.218,5.218A7.318,7.318,0,0,0,198.993,20.81l8.318-8.318a7.27,7.27,0,0,0,2.143-5.174ZM197.6,19.419a5.35,5.35,0,0,1-7.566-7.566l3.792-3.791a9.877,9.877,0,0,1,7.566,7.566Z" transform="translate(-162.039)"/>
          <path id="Trazado_1232469" data-name="Trazado 1232469" d="M357.81,103.462l-8.318-8.319a7.318,7.318,0,0,0-10.349,10.349l8.319,8.318a7.318,7.318,0,1,0,10.349-10.349Zm-18.843-3.144a5.357,5.357,0,0,1,9.133-3.783l3.791,3.792a9.877,9.877,0,0,1-7.566,7.566l-3.791-3.792A5.315,5.315,0,0,1,338.967,100.318Zm17.451,12.1a5.347,5.347,0,0,1-7.565,0l-2.926-2.926a11.844,11.844,0,0,0,7.566-7.566l2.926,2.926A5.347,5.347,0,0,1,356.418,112.42Z" transform="translate(-292.798 -80.802)"/>
          <path id="Trazado_1232470" data-name="Trazado 1232470" d="M19.441,149.713h-12a7.444,7.444,0,1,0,0,14.889h12a7.444,7.444,0,0,0,0-14.889ZM3.568,161.03a5.477,5.477,0,0,1,3.873-9.35h5.48a10.093,10.093,0,0,1,0,10.954H7.441a5.441,5.441,0,0,1-3.873-1.6Zm15.872,1.6H15.187a12.061,12.061,0,0,0,0-10.954h4.254a5.477,5.477,0,1,1,0,10.954Z" transform="translate(0 -130.076)"/>
        </g>
      </g>
    </g>
  </g>
</svg>
