<svg xmlns="http://www.w3.org/2000/svg" xmlns:xlink="http://www.w3.org/1999/xlink" width="103" height="103" viewBox="0 0 103 103">
  <defs>
    <filter id="Trazado_978624" x="0" y="0" width="103" height="103" filterUnits="userSpaceOnUse">
      <feOffset dy="3" input="SourceAlpha"/>
      <feGaussianBlur stdDeviation="3" result="blur"/>
      <feFlood flood-opacity="0.161"/>
      <feComposite operator="in" in2="blur"/>
      <feComposite in="SourceGraphic"/>
    </filter>
  </defs>
  <g id="Grupo_1233019" data-name="Grupo 1233019" transform="translate(-169 -11757.244)">
    <g id="Grupo_1232838" data-name="Grupo 1232838" transform="translate(178 11763.244)">
      <g id="Grupo_1218031" data-name="Grupo 1218031">
        <g id="Grupo_1217138" data-name="Grupo 1217138">
          <g id="Grupo_1210955" data-name="Grupo 1210955">
            <g id="Grupo_1209912" data-name="Grupo 1209912">
              <g id="Grupo_1178144" data-name="Grupo 1178144">
                <g id="Grupo_1177896" data-name="Grupo 1177896">
                  <g id="Grupo_1176881" data-name="Grupo 1176881">
                    <g id="Grupo_1175148" data-name="Grupo 1175148">
                      <g id="Grupo_1173798" data-name="Grupo 1173798">
                        <g id="Grupo_1171925" data-name="Grupo 1171925">
                          <g id="Grupo_1164524" data-name="Grupo 1164524">
                            <g id="Grupo_1144123" data-name="Grupo 1144123">
                              <g transform="matrix(1, 0, 0, 1, -9, -6)" filter="url(#Trazado_978624)">
                                <g id="Trazado_978624-2" data-name="Trazado 978624" transform="translate(9 6)" fill="#f6f6f6">
                                  <path d="M 42.5 83.5 C 36.96437835693359 83.5 31.59512901306152 82.41617584228516 26.54141235351562 80.27863311767578 C 21.65934181213379 78.21369171142578 17.27447128295898 75.25723266601562 13.50862312316895 71.49137878417969 C 9.742764472961426 67.72553253173828 6.786305904388428 63.34066009521484 4.721364498138428 58.45858764648438 C 2.583823442459106 53.40486907958984 1.5 48.03562164306641 1.5 42.5 C 1.5 36.96437835693359 2.583823442459106 31.59512901306152 4.721364498138428 26.54141235351562 C 6.786305904388428 21.65934181213379 9.742764472961426 17.27447128295898 13.50862312316895 13.50862312316895 C 17.27447128295898 9.742764472961426 21.65934181213379 6.786305904388428 26.54141235351562 4.721364498138428 C 31.59512901306152 2.583823442459106 36.96437835693359 1.5 42.5 1.5 C 48.03562164306641 1.5 53.40486907958984 2.583823442459106 58.45858764648438 4.721364498138428 C 63.34066009521484 6.786305904388428 67.72553253173828 9.742764472961426 71.49137878417969 13.50862312316895 C 75.25723266601562 17.27447128295898 78.21369171142578 21.65934181213379 80.27863311767578 26.54141235351562 C 82.41617584228516 31.59512901306152 83.5 36.96437835693359 83.5 42.5 C 83.5 48.03562164306641 82.41617584228516 53.40486907958984 80.27863311767578 58.45858764648438 C 78.21369171142578 63.34066009521484 75.25723266601562 67.72553253173828 71.49137878417969 71.49137878417969 C 67.72553253173828 75.25723266601562 63.34066009521484 78.21369171142578 58.45858764648438 80.27863311767578 C 53.40486907958984 82.41617584228516 48.03562164306641 83.5 42.5 83.5 Z" stroke="none"/>
                                  <path d="M 42.5 3 C 37.16621398925781 3 31.99356079101562 4.043960571289062 27.125732421875 6.102882385253906 C 22.42246627807617 8.092185974121094 18.19785308837891 10.94070434570312 14.56928253173828 14.56928253173828 C 10.94070434570312 18.19785308837891 8.092185974121094 22.42246627807617 6.102882385253906 27.125732421875 C 4.043960571289062 31.99356079101562 3 37.16621398925781 3 42.5 C 3 47.83378601074219 4.043960571289062 53.00643920898438 6.102882385253906 57.87425231933594 C 8.092185974121094 62.57753372192383 10.94070434570312 66.80213165283203 14.56928253173828 70.43071746826172 C 18.19786834716797 74.05929565429688 22.42246627807617 76.90781402587891 27.125732421875 78.89711761474609 C 31.99356079101562 80.95603942871094 37.16621398925781 82 42.5 82 C 47.83378601074219 82 53.00642395019531 80.95603942871094 57.87425231933594 78.89711761474609 C 62.57753372192383 76.90781402587891 66.80213165283203 74.05929565429688 70.43071746826172 70.43071746826172 C 74.05929565429688 66.80213165283203 76.90781402587891 62.57753372192383 78.89711761474609 57.87425231933594 C 80.95603942871094 53.00642395019531 82 47.83378601074219 82 42.5 C 82 37.16621398925781 80.95603942871094 31.99356079101562 78.89711761474609 27.125732421875 C 76.90781402587891 22.42246627807617 74.05929565429688 18.19786834716797 70.43071746826172 14.56928253173828 C 66.80213165283203 10.94070434570312 62.57753372192383 8.092185974121094 57.87425231933594 6.102882385253906 C 53.00643920898438 4.043960571289062 47.83378601074219 3 42.5 3 M 42.5 0 C 65.97209167480469 0 85 19.02789306640625 85 42.5 C 85 65.97209167480469 65.97209167480469 85 42.5 85 C 19.02789306640625 85 0 65.97209167480469 0 42.5 C 0 19.02789306640625 19.02789306640625 0 42.5 0 Z" stroke="none" fill="#b0aeae"/>
                                </g>
                              </g>
                            </g>
                          </g>
                        </g>
                      </g>
                    </g>
                  </g>
                </g>
              </g>
            </g>
          </g>
        </g>
      </g>
    </g>
    <g id="_05-Call" data-name="05-Call" transform="translate(186.496 11775.753)">
      <path id="Trazado_1177371" data-name="Trazado 1177371" d="M42.79,55.89a1.923,1.923,0,0,1-.48.63L40.93,57.7l-.12.11-9.4-9.4.11-.12,1.2-1.37a2.008,2.008,0,0,1,2.92-.11l6.77,6.78a1.986,1.986,0,0,1,.38,2.3Z" fill="#38e8ff"/>
      <path id="Trazado_1177372" data-name="Trazado 1177372" d="M8.11,21.21a1.986,1.986,0,0,1,2.3.38l6.78,6.77a2.008,2.008,0,0,1-.11,2.92l-1.37,1.2-.12.11-9.4-9.4.11-.12,1.18-1.38a1.923,1.923,0,0,1,.63-.48Z" fill="#38e8ff"/>
      <path id="Trazado_1177373" data-name="Trazado 1177373" d="M40.81,57.81l-.61.52-3.73,3.23a5.865,5.865,0,0,1-6.62.75A72.729,72.729,0,0,1,1.69,34.15a5.865,5.865,0,0,1,.75-6.62L5.67,23.8l.52-.61,9.4,9.4-1.65,1.42A62.164,62.164,0,0,0,29.99,50.06l1.42-1.65Z" fill="#006fdb"/>
      <path id="Trazado_1177374" data-name="Trazado 1177374" d="M31.85,60.31A72.729,72.729,0,0,1,3.69,32.15a5.865,5.865,0,0,1,.75-6.62l1.9-2.192-.15-.148-.52.61L2.44,27.53a5.865,5.865,0,0,0-.75,6.62A72.729,72.729,0,0,0,29.85,62.31a5.865,5.865,0,0,0,6.62-.75l3.73-3.23.61-.52-.148-.148-2.192,1.9a5.865,5.865,0,0,1-6.62.748Z" fill="#005eba"/>
      <path id="Trazado_1177375" data-name="Trazado 1177375" d="M47,24V34H40v7H30V34H23V24h7V17H40v7Z" fill="#ff505b"/>
      <path id="Trazado_1177376" data-name="Trazado 1177376" d="M63,29A28,28,0,0,1,42.794,55.889a1.986,1.986,0,0,0-.384-2.3l-6.77-6.78a2.008,2.008,0,0,0-2.92.11l-1.2,1.37-.11.12-1.42,1.65A62.164,62.164,0,0,1,13.94,34.01l1.65-1.42.12-.11,1.37-1.2a2.008,2.008,0,0,0,.11-2.92l-6.78-6.77a1.986,1.986,0,0,0-2.3-.38A28,28,0,0,1,63,29ZM47,34V24H40V17H30v7H23V34h7v7H40V34Z" fill="#fbfbfb"/>
      <g id="Grupo_1233018" data-name="Grupo 1233018">
        <path id="Trazado_1177377" data-name="Trazado 1177377" d="M15.59,32.59l-1.65,1.42A62.164,62.164,0,0,0,29.99,50.06l1.42-1.65.11-.12.3-.348A62.215,62.215,0,0,1,16.058,32.175l-.348.3Z" fill="#edf4fa"/>
        <path id="Trazado_1177378" data-name="Trazado 1177378" d="M10.41,21.59l6.78,6.77a2,2,0,0,1,.4,2.232l.12-.11,1.37-1.2a2.008,2.008,0,0,0,.11-2.92l-6.78-6.77a1.986,1.986,0,0,0-2.3-.38,1.923,1.923,0,0,0-.63.48L8.3,21.07l-.1.113a1.974,1.974,0,0,1,2.21.407Z" fill="#edf4fa"/>
        <path id="Trazado_1177379" data-name="Trazado 1177379" d="M44.31,54.52a1.923,1.923,0,0,0,.48-.63,1.986,1.986,0,0,0-.38-2.3l-6.77-6.78a2.008,2.008,0,0,0-2.92.11l-1.2,1.37-.11.12a2,2,0,0,1,2.232.4l6.77,6.78a1.974,1.974,0,0,1,.407,2.213l.113-.1Z" fill="#edf4fa"/>
      </g>
      <path id="Trazado_1177380" data-name="Trazado 1177380" d="M64,29A29,29,0,0,0,10.509,13.463L12.2,14.537a27,27,0,1,1,31.756,39.93,2.972,2.972,0,0,0-.841-1.59l-6.77-6.78a3.008,3.008,0,0,0-4.375.163l-1.292,1.47c0,.005-.006.011-.01.016l-.013.01-.833.968A61.261,61.261,0,0,1,15.275,34.182l.969-.833.009-.012.014-.008,1.472-1.3a3.007,3.007,0,0,0,.164-4.375l-6.77-6.76a3,3,0,0,0-4.4.148L5.563,22.4l-.109.12-.008.014-.013.01L1.688,26.875a6.908,6.908,0,0,0-.876,7.748A73.569,73.569,0,0,0,29.378,63.188a6.9,6.9,0,0,0,7.745-.876l4.334-3.744c.005,0,.006-.01.011-.014l.014-.009,1.484-1.275a3.012,3.012,0,0,0,.475-.541A29.056,29.056,0,0,0,64,29ZM8.234,22.351A1.018,1.018,0,0,1,8.976,22a.923.923,0,0,1,.729.3l6.777,6.766a1.008,1.008,0,0,1-.06,1.463l-.787.69L7.558,23.143ZM35.812,60.8a4.9,4.9,0,0,1-5.491.623A71.472,71.472,0,0,1,2.575,33.679,4.9,4.9,0,0,1,3.2,28.187l3.05-3.524,7.872,7.873-.833.717a1,1,0,0,0-.175,1.32A63.08,63.08,0,0,0,29.427,50.885a1,1,0,0,0,1.32-.175l.717-.833,7.873,7.873Zm5.845-5.045-.8.685-8.076-8.076.691-.79a1.009,1.009,0,0,1,1.459-.061L41.7,54.294l.01.01a.961.961,0,0,1,.291.721,1,1,0,0,1-.344.732Z"/>
      <path id="Trazado_1177381" data-name="Trazado 1177381" d="M11.079,16.465l-1.769-.93c-.355.674-.687,1.371-.987,2.072l1.84.786C10.441,17.741,10.75,17.092,11.079,16.465Z"/>
      <path id="Trazado_1177382" data-name="Trazado 1177382" d="M40,16H30a1,1,0,0,0-1,1v6H23a1,1,0,0,0-1,1V34a1,1,0,0,0,1,1h6v6a1,1,0,0,0,1,1H40a1,1,0,0,0,1-1V35h6a1,1,0,0,0,1-1V24a1,1,0,0,0-1-1H41V17A1,1,0,0,0,40,16Zm6,9v8H40a1,1,0,0,0-1,1v6H31V34a1,1,0,0,0-1-1H24V25h6a1,1,0,0,0,1-1V18h8v6a1,1,0,0,0,1,1Z"/>
    </g>
  </g>
</svg>
