<svg xmlns="http://www.w3.org/2000/svg" xmlns:xlink="http://www.w3.org/1999/xlink" width="113" height="113" viewBox="0 0 113 113">
  <defs>
    <filter id="Trazado_982547" x="0" y="0" width="113" height="113" filterUnits="userSpaceOnUse">
      <feOffset dy="3" input="SourceAlpha"/>
      <feGaussianBlur stdDeviation="3" result="blur"/>
      <feFlood flood-opacity="0.161"/>
      <feComposite operator="in" in2="blur"/>
      <feComposite in="SourceGraphic"/>
    </filter>
  </defs>
  <g id="Grupo_1232879" data-name="Grupo 1232879" transform="translate(-901 -2073.636)">
    <g id="Grupo_1231168" data-name="Grupo 1231168" transform="translate(0 -3544.496)">
      <g id="Grupo_1230688" data-name="Grupo 1230688" transform="translate(0 -2146.377)">
        <g id="Grupo_1229016" data-name="Grupo 1229016" transform="translate(0.575 2131.042)">
          <g id="Grupo_1227504" data-name="Grupo 1227504" transform="translate(0 2048.198)">
            <g id="Grupo_1225352" data-name="Grupo 1225352" transform="translate(-0.575 -393.641)">
              <g id="Grupo_1208123" data-name="Grupo 1208123" transform="translate(0 -1922.377)">
                <g id="Grupo_1202434" data-name="Grupo 1202434" transform="translate(-0.56 1255.773)">
                  <g id="Grupo_1202053" data-name="Grupo 1202053" transform="translate(0 3240.511)">
                    <g id="Grupo_1177898" data-name="Grupo 1177898" transform="translate(910.561 1411.003)">
                      <g id="Grupo_1172010" data-name="Grupo 1172010" transform="translate(0)">
                        <g id="Grupo_1171046" data-name="Grupo 1171046">
                          <g id="Grupo_1148525" data-name="Grupo 1148525">
                            <g transform="matrix(1, 0, 0, 1, -9, -6)" filter="url(#Trazado_982547)">
                              <g id="Trazado_982547-2" data-name="Trazado 982547" transform="translate(9 6)" fill="#ffefc0">
                                <path d="M 47.5 93.5 C 41.28937149047852 93.5 35.26533508300781 92.28397369384766 29.59518623352051 89.88570404052734 C 24.11771965026855 87.56893157958984 19.19813346862793 84.25196075439453 14.97309303283691 80.02691650390625 C 10.74804019927979 75.80186462402344 7.431066513061523 70.88229370117188 5.114293098449707 65.40481567382812 C 2.716026782989502 59.73468017578125 1.5 53.71062850952148 1.5 47.5 C 1.5 41.28937149047852 2.716026782989502 35.26533508300781 5.114293098449707 29.59518623352051 C 7.431066513061523 24.11771965026855 10.74804019927979 19.19813346862793 14.97309303283691 14.97309303283691 C 19.19813346862793 10.74804019927979 24.11771965026855 7.431066513061523 29.59518623352051 5.114293098449707 C 35.26533508300781 2.716026782989502 41.28937149047852 1.5 47.5 1.5 C 53.71062850952148 1.5 59.73468017578125 2.716026782989502 65.40481567382812 5.114293098449707 C 70.88229370117188 7.431066513061523 75.80186462402344 10.74804019927979 80.02691650390625 14.97309303283691 C 84.25196075439453 19.19813346862793 87.56893157958984 24.11771965026855 89.88570404052734 29.59518623352051 C 92.28397369384766 35.26533508300781 93.5 41.28937149047852 93.5 47.5 C 93.5 53.71062850952148 92.28397369384766 59.73468017578125 89.88570404052734 65.40481567382812 C 87.56893157958984 70.88229370117188 84.25196075439453 75.80186462402344 80.02691650390625 80.02691650390625 C 75.80186462402344 84.25196075439453 70.88229370117188 87.56893157958984 65.40481567382812 89.88570404052734 C 59.73468017578125 92.28397369384766 53.71062850952148 93.5 47.5 93.5 Z" stroke="none"/>
                                <path d="M 47.5 3 C 41.49121475219727 3 35.66376876831055 4.176155090332031 30.17950439453125 6.495796203613281 C 24.88084411621094 8.736953735351562 20.12152099609375 11.94598388671875 16.03375244140625 16.03375244140625 C 11.94598388671875 20.12152099609375 8.736953735351562 24.88084411621094 6.495796203613281 30.17950439453125 C 4.176155090332031 35.66376876831055 3 41.49121475219727 3 47.5 C 3 53.50878524780273 4.176155090332031 59.33623123168945 6.495796203613281 64.82049560546875 C 8.736953735351562 70.11915588378906 11.94598388671875 74.87847900390625 16.03375244140625 78.96624755859375 C 20.12152099609375 83.05401611328125 24.88084411621094 86.26304626464844 30.17950439453125 88.50419616699219 C 35.66376876831055 90.82384490966797 41.49121475219727 92 47.5 92 C 53.50878524780273 92 59.33623123168945 90.82384490966797 64.82049560546875 88.50419616699219 C 70.11915588378906 86.26304626464844 74.87847900390625 83.05401611328125 78.96624755859375 78.96624755859375 C 83.05401611328125 74.87847900390625 86.26304626464844 70.11915588378906 88.50419616699219 64.82049560546875 C 90.82384490966797 59.33623123168945 92 53.50878524780273 92 47.5 C 92 41.49121475219727 90.82384490966797 35.66376876831055 88.50419616699219 30.17950439453125 C 86.26304626464844 24.88084411621094 83.05401611328125 20.12152099609375 78.96624755859375 16.03375244140625 C 74.87847900390625 11.94598388671875 70.11915588378906 8.736953735351562 64.82049560546875 6.495796203613281 C 59.33623123168945 4.176155090332031 53.50878524780273 3 47.5 3 M 47.5 0 C 73.7335205078125 0 95 21.2664794921875 95 47.5 C 95 73.7335205078125 73.7335205078125 95 47.5 95 C 21.2664794921875 95 0 73.7335205078125 0 47.5 C 0 21.2664794921875 21.2664794921875 0 47.5 0 Z" stroke="none" fill="#fc3"/>
                              </g>
                            </g>
                          </g>
                        </g>
                      </g>
                    </g>
                  </g>
                </g>
              </g>
            </g>
          </g>
        </g>
      </g>
    </g>
    <g id="salida" transform="translate(925.609 2101.582)">
      <path id="Trazado_1176071" data-name="Trazado 1176071" d="M296.578,7.016h25.616V56.277H296.578Zm0,0" transform="translate(-260.124 -6.153)" fill="#cad8ea"/>
      <path id="Trazado_1176072" data-name="Trazado 1176072" d="M296.578,383.75h25.616v2.956H296.578Zm0,0" transform="translate(-260.124 -336.582)" fill="#96b1d6"/>
      <path id="Trazado_1176073" data-name="Trazado 1176073" d="M465.41,31.063h1.847v7.882H465.41Zm0,0" transform="translate(-408.204 -27.244)" fill="#fff"/>
      <path id="Trazado_1176074" data-name="Trazado 1176074" d="M465.41,111.219h1.847v1.97H465.41Zm0,0" transform="translate(-408.204 -97.549)" fill="#fff"/>
      <path id="Trazado_1176075" data-name="Trazado 1176075" d="M266.352,155.237V151.3l6.9,6.9-6.9,6.9v-3.941H256.5v-5.911Zm0,0" transform="translate(-224.972 -132.7)" fill="#ea5172"/>
      <path id="Trazado_1176076" data-name="Trazado 1176076" d="M98.024,19.957A4.926,4.926,0,1,1,93.1,15.031,4.926,4.926,0,0,1,98.024,19.957Zm0,0" transform="translate(-77.334 -13.184)" fill="#f5d9ab"/>
      <path id="Trazado_1176077" data-name="Trazado 1176077" d="M34.751,139.073v6.9l3.941,3.941v11.823H33.765v-9.852l-4.926-4.926h-.985v9.852l-4.926,4.926h-6.9l6.9-6.9V133.162l-2.956,2.956V144H16.031v-9.852l6.9-6.9H36.721v7.882l5.911,5.911L39.677,144Zm0,0" transform="translate(-14.061 -111.609)" fill="#9eb6f4"/>
      <path id="Trazado_1176078" data-name="Trazado 1176078" d="M18.987,383.75h6.9l-2.956,2.956h-6.9Zm0,0" transform="translate(-14.061 -336.582)" fill="#6d91ef"/>
      <path id="Trazado_1176079" data-name="Trazado 1176079" d="M160.313,383.75h4.926v2.956h-4.926Zm0,0" transform="translate(-140.608 -336.582)" fill="#6d91ef"/>
      <path id="Trazado_1176080" data-name="Trazado 1176080" d="M104.7,247.484h1.848v1.97H104.7Zm0,0" transform="translate(-91.833 -217.065)" fill="#fff"/>
      <path id="Trazado_1176081" data-name="Trazado 1176081" d="M35.469,0V19.582h1.848V1.848H61.085V49.262H37.316V31.4H35.469V49.262H25.493V37.919l-3.941-3.941V30.419H19.7v4.323l3.941,3.941V49.262H20.567V39.889l-5.406-5.406H12.808V44.815L8.485,49.262H4.2L9.73,43.61V16.626H21.675V23.9l6.213,6.182,1.291-1.306L23.523,23.14V14.779H8.485l-7.5,7.376V32.39H2.833V22.92l5.049-5.049v3.3L4.926,24.125V32.39H6.774v-7.5l1.108-1.108V42.845L1.588,49.262H0v1.848H62.07v-.985h.862V0ZM18.72,49.262H11.1l3.558-3.681V36.59l4.064,4.064Zm0,0" transform="translate(0)"/>
      <path id="Trazado_1176082" data-name="Trazado 1176082" d="M258.337,151.405l9.127-9.126-9.127-9.127v5.309h-9.852v7.759h9.852Zm-8-7.033v-4.064h9.852v-2.7l4.667,4.667-4.667,4.667v-2.574Zm0,0" transform="translate(-217.942 -116.786)"/>
      <path id="Trazado_1176083" data-name="Trazado 1176083" d="M86.506,19.215a5.85,5.85,0,1,0-5.85-5.849A5.856,5.856,0,0,0,86.506,19.215Zm0-9.852a4,4,0,1,1-4,4A4.007,4.007,0,0,1,86.506,9.362Zm0,0" transform="translate(-70.742 -6.592)"/>
      <path id="Trazado_1176084" data-name="Trazado 1176084" d="M144.281,151.3v7.279l7.2,7.167,1.291-1.306-6.641-6.626V151.3Zm0,0" transform="translate(-126.547 -132.7)"/>
    </g>
  </g>
</svg>
