<svg xmlns="http://www.w3.org/2000/svg" xmlns:xlink="http://www.w3.org/1999/xlink" width="113" height="113" viewBox="0 0 113 113">
  <defs>
    <filter id="Trazado_982547" x="0" y="0" width="113" height="113" filterUnits="userSpaceOnUse">
      <feOffset dy="3" input="SourceAlpha"/>
      <feGaussianBlur stdDeviation="3" result="blur"/>
      <feFlood flood-opacity="0.161"/>
      <feComposite operator="in" in2="blur"/>
      <feComposite in="SourceGraphic"/>
    </filter>
  </defs>
  <g id="Grupo_1232886" data-name="Grupo 1232886" transform="translate(-1216 -2073.349)">
    <g id="Grupo_1231160" data-name="Grupo 1231160" transform="translate(0 -3544.496)">
      <g id="Grupo_1230689" data-name="Grupo 1230689" transform="translate(0 -2146.377)">
        <g id="Grupo_1229017" data-name="Grupo 1229017" transform="translate(0 2131.042)">
          <g id="Grupo_1227505" data-name="Grupo 1227505" transform="translate(0.575 2048.198)">
            <g id="Grupo_1225353" data-name="Grupo 1225353" transform="translate(-0.575 -393.641)">
              <g id="Grupo_1208124" data-name="Grupo 1208124" transform="translate(0 -1922.377)">
                <g id="Grupo_1202435" data-name="Grupo 1202435" transform="translate(-0.56 1255.486)">
                  <g id="Grupo_1202052" data-name="Grupo 1202052" transform="translate(1225.561 4651.514)">
                    <g id="Grupo_1172010" data-name="Grupo 1172010" transform="translate(0)">
                      <g id="Grupo_1171046" data-name="Grupo 1171046">
                        <g id="Grupo_1148525" data-name="Grupo 1148525">
                          <g transform="matrix(1, 0, 0, 1, -9, -6)" filter="url(#Trazado_982547)">
                            <g id="Trazado_982547-2" data-name="Trazado 982547" transform="translate(9 6)" fill="#ffefc0">
                              <path d="M 47.5 93.5 C 41.28937149047852 93.5 35.26533508300781 92.28397369384766 29.59518623352051 89.88570404052734 C 24.11771965026855 87.56893157958984 19.19813346862793 84.25196075439453 14.97309303283691 80.02691650390625 C 10.74804019927979 75.80186462402344 7.431066513061523 70.88229370117188 5.114293098449707 65.40481567382812 C 2.716026782989502 59.73468017578125 1.5 53.71062850952148 1.5 47.5 C 1.5 41.28937149047852 2.716026782989502 35.26533508300781 5.114293098449707 29.59518623352051 C 7.431066513061523 24.11771965026855 10.74804019927979 19.19813346862793 14.97309303283691 14.97309303283691 C 19.19813346862793 10.74804019927979 24.11771965026855 7.431066513061523 29.59518623352051 5.114293098449707 C 35.26533508300781 2.716026782989502 41.28937149047852 1.5 47.5 1.5 C 53.71062850952148 1.5 59.73468017578125 2.716026782989502 65.40481567382812 5.114293098449707 C 70.88229370117188 7.431066513061523 75.80186462402344 10.74804019927979 80.02691650390625 14.97309303283691 C 84.25196075439453 19.19813346862793 87.56893157958984 24.11771965026855 89.88570404052734 29.59518623352051 C 92.28397369384766 35.26533508300781 93.5 41.28937149047852 93.5 47.5 C 93.5 53.71062850952148 92.28397369384766 59.73468017578125 89.88570404052734 65.40481567382812 C 87.56893157958984 70.88229370117188 84.25196075439453 75.80186462402344 80.02691650390625 80.02691650390625 C 75.80186462402344 84.25196075439453 70.88229370117188 87.56893157958984 65.40481567382812 89.88570404052734 C 59.73468017578125 92.28397369384766 53.71062850952148 93.5 47.5 93.5 Z" stroke="none"/>
                              <path d="M 47.5 3 C 41.49121475219727 3 35.66376876831055 4.176155090332031 30.17950439453125 6.495796203613281 C 24.88084411621094 8.736953735351562 20.12152099609375 11.94598388671875 16.03375244140625 16.03375244140625 C 11.94598388671875 20.12152099609375 8.736953735351562 24.88084411621094 6.495796203613281 30.17950439453125 C 4.176155090332031 35.66376876831055 3 41.49121475219727 3 47.5 C 3 53.50878524780273 4.176155090332031 59.33623123168945 6.495796203613281 64.82049560546875 C 8.736953735351562 70.11915588378906 11.94598388671875 74.87847900390625 16.03375244140625 78.96624755859375 C 20.12152099609375 83.05401611328125 24.88084411621094 86.26304626464844 30.17950439453125 88.50419616699219 C 35.66376876831055 90.82384490966797 41.49121475219727 92 47.5 92 C 53.50878524780273 92 59.33623123168945 90.82384490966797 64.82049560546875 88.50419616699219 C 70.11915588378906 86.26304626464844 74.87847900390625 83.05401611328125 78.96624755859375 78.96624755859375 C 83.05401611328125 74.87847900390625 86.26304626464844 70.11915588378906 88.50419616699219 64.82049560546875 C 90.82384490966797 59.33623123168945 92 53.50878524780273 92 47.5 C 92 41.49121475219727 90.82384490966797 35.66376876831055 88.50419616699219 30.17950439453125 C 86.26304626464844 24.88084411621094 83.05401611328125 20.12152099609375 78.96624755859375 16.03375244140625 C 74.87847900390625 11.94598388671875 70.11915588378906 8.736953735351562 64.82049560546875 6.495796203613281 C 59.33623123168945 4.176155090332031 53.50878524780273 3 47.5 3 M 47.5 0 C 73.7335205078125 0 95 21.2664794921875 95 47.5 C 95 73.7335205078125 73.7335205078125 95 47.5 95 C 21.2664794921875 95 0 73.7335205078125 0 47.5 C 0 21.2664794921875 21.2664794921875 0 47.5 0 Z" stroke="none" fill="#fc3"/>
                            </g>
                          </g>
                        </g>
                      </g>
                    </g>
                  </g>
                </g>
              </g>
            </g>
          </g>
        </g>
      </g>
    </g>
    <g id="laboratorio" transform="translate(1240.01 2092.832)">
      <g id="Grupo_1232884" data-name="Grupo 1232884" transform="translate(0.933 0.901)">
        <g id="Grupo_1232883" data-name="Grupo 1232883">
          <g id="Grupo_1232882" data-name="Grupo 1232882">
            <path id="Trazado_1176085" data-name="Trazado 1176085" d="M68.208,233.182h5.407V236.7H68.208Z" transform="translate(-60.918 -206.066)" fill="#fff"/>
            <path id="Trazado_1176086" data-name="Trazado 1176086" d="M68.208,233.182h2.7V236.7h-2.7Z" transform="translate(-60.918 -206.066)" fill="#c8d1da"/>
            <path id="Trazado_1176087" data-name="Trazado 1176087" d="M143.274,233.182h2.7V236.7h-2.7Z" transform="translate(-126.964 -206.066)" fill="#c8d1da"/>
            <path id="Trazado_1176088" data-name="Trazado 1176088" d="M143.2,262.451v22.522a2.7,2.7,0,0,0,5.407,0V262.451Z" transform="translate(-126.902 -231.818)" fill="#faef93"/>
            <path id="Trazado_1176089" data-name="Trazado 1176089" d="M145.935,284.437V262.451H143.2v22.522a2.7,2.7,0,0,0,5.407,0v-.03H146.44A.505.505,0,0,1,145.935,284.437Z" transform="translate(-126.901 -231.818)" fill="#efc17a"/>
            <path id="Trazado_1176090" data-name="Trazado 1176090" d="M68.208,262.451v22.522a2.7,2.7,0,0,0,5.407,0V262.451Z" transform="translate(-60.918 -231.818)" fill="#7bdaa9"/>
            <path id="Trazado_1176091" data-name="Trazado 1176091" d="M70.94,284.437V262.451H68.207v22.522a2.7,2.7,0,0,0,5.407,0v-.03H71.445A.505.505,0,0,1,70.94,284.437Z" transform="translate(-60.917 -231.818)" fill="#498790"/>
            <path id="Trazado_1176092" data-name="Trazado 1176092" d="M293.2,458.23h16.221v5.407H293.2Z" transform="translate(-258.873 -404.073)" fill="#92a2b5"/>
            <path id="Trazado_1176093" data-name="Trazado 1176093" d="M295.908,460.926v-2.7H293.2v5.407h16.221v-2.711Z" transform="translate(-258.873 -404.073)" fill="#61748b"/>
            <path id="Trazado_1176094" data-name="Trazado 1176094" d="M316.851,7.5H327.7v3.684H316.851Z" transform="translate(-279.685 -7.5)" fill="#fff"/>
            <path id="Trazado_1176095" data-name="Trazado 1176095" d="M316.851,7.5h2.725v3.684h-2.725Z" transform="translate(-279.685 -7.5)" fill="#c8d1da"/>
            <path id="Trazado_1176096" data-name="Trazado 1176096" d="M331.851,38.16H339.1V48.893h-7.249Z" transform="translate(-292.883 -34.476)" fill="#fff"/>
            <path id="Trazado_1176097" data-name="Trazado 1176097" d="M334.513,47.42V38.16h-2.661V49.133H339.1V47.42Z" transform="translate(-292.884 -34.476)" fill="#c8d1da"/>
            <path id="Trazado_1176098" data-name="Trazado 1176098" d="M269.2,123.684a12.969,12.969,0,0,1,8.588,7.453,13.371,13.371,0,0,1-3.419,15.114,13.523,13.523,0,0,1-14.8,1.819,13.2,13.2,0,0,1,2.418-24.415l.908.58h5.381Z" transform="translate(-223.009 -109.699)" fill="#e08ea2"/>
            <path id="Trazado_1176099" data-name="Trazado 1176099" d="M261.569,163.731a13.308,13.308,0,0,1-7.02-13.556,13.073,13.073,0,0,1,2.806-6.455,13.188,13.188,0,0,0,2.22,22,13.523,13.523,0,0,0,14.8-1.819,12.813,12.813,0,0,0,1.535-1.612A13.55,13.55,0,0,1,261.569,163.731Z" transform="translate(-223.01 -127.354)" fill="#d15573"/>
            <g id="Grupo_1232880" data-name="Grupo 1232880" transform="translate(35.937 18.292)">
              <path id="Trazado_1176100" data-name="Trazado 1176100" d="M306.624,159.737h1.8v1.8h-1.8Z" transform="translate(-306.624 -159.737)" fill="#fff"/>
            </g>
            <g id="Grupo_1232881" data-name="Grupo 1232881" transform="translate(34.1 20.211)">
              <path id="Trazado_1176101" data-name="Trazado 1176101" d="M291.34,175.707h1.8v1.8h-1.8Z" transform="translate(-291.34 -175.707)" fill="#fff"/>
            </g>
            <path id="Trazado_1176102" data-name="Trazado 1176102" d="M384.32,174.688v-.12a1.787,1.787,0,1,1,3.574,0v.12a1.787,1.787,0,0,1-3.574,0Z" transform="translate(-339.048 -152.922)" fill="#fff"/>
            <path id="Trazado_1176103" data-name="Trazado 1176103" d="M332.135,219.714v-.12a1.787,1.787,0,1,1,3.574,0v.12a1.787,1.787,0,1,1-3.574,0Z" transform="translate(-293.133 -192.538)" fill="#fff"/>
            <path id="Trazado_1176104" data-name="Trazado 1176104" d="M242.195,278.231h28.836v3.6H242.195Z" transform="translate(-214 -245.702)" fill="#92a2b5"/>
            <path id="Trazado_1176105" data-name="Trazado 1176105" d="M242.2,278.231h2.644v3.6H242.2Z" transform="translate(-214 -245.702)" fill="#61748b"/>
            <path id="Trazado_1176106" data-name="Trazado 1176106" d="M340.734,384.722l-1.256-1.079a4.022,4.022,0,0,1-1.4-3.052,5.229,5.229,0,0,1,1-3.07l1.662-2.291,1.623,2.141a5.687,5.687,0,0,1,1.155,3.436,3.454,3.454,0,0,1-1.261,2.669Z" transform="translate(-298.36 -331.046)" fill="#efc17a"/>
            <path id="Trazado_1176107" data-name="Trazado 1176107" d="M340.516,378.355l.22-2.121.371-.511-.374-.493-2.658,3.665v3.545l2.658,2.283,2.354-1.859A4.454,4.454,0,0,1,340.516,378.355Z" transform="translate(-298.36 -331.046)" fill="#e68f5e"/>
            <path id="Trazado_1176108" data-name="Trazado 1176108" d="M7.532,293.013h23.51v3.6H7.532Z" transform="translate(-7.532 -258.708)" fill="#92a2b5"/>
            <path id="Trazado_1176109" data-name="Trazado 1176109" d="M7.532,293.013h3.6v3.6h-3.6Z" transform="translate(-7.532 -258.708)" fill="#61748b"/>
          </g>
        </g>
      </g>
      <g id="Grupo_1232885" data-name="Grupo 1232885" transform="translate(0.032 0)">
        <path id="Trazado_1176110" data-name="Trazado 1176110" d="M381.324,166.048a2.676,2.676,0,0,0-3.167-.346,2.824,2.824,0,0,0-1.333,2.573,2.734,2.734,0,0,0,2.261,2.515,2.68,2.68,0,0,0,2.686-1.228A2.82,2.82,0,0,0,381.324,166.048Zm-1.746,2.973a.913.913,0,0,1-.954-.977.929.929,0,0,1,.827-.909.947.947,0,0,1,.127,1.886Z" transform="translate(-331.547 -145.47)"/>
        <path id="Trazado_1176111" data-name="Trazado 1176111" d="M327.344,211.309a2.688,2.688,0,1,0,2.64,2.181A2.716,2.716,0,0,0,327.344,211.309Zm0,3.574a.886.886,0,0,1,0-1.772A.886.886,0,0,1,327.344,214.883Z" transform="translate(-285.654 -185.92)"/>
        <path id="Trazado_1176112" data-name="Trazado 1176112" d="M405.2,270.731H407v1.8h-1.8Z" transform="translate(-356.515 -238.202)"/>
        <path id="Trazado_1176113" data-name="Trazado 1176113" d="M244.22,36.982V32.529h-2.164a13.956,13.956,0,0,0,.932-5.048,14.145,14.145,0,0,0-9.582-13.352V5.486h1.8V0H222.551V5.486h1.8v8.658a14.209,14.209,0,0,0-6.652,4.788,14.107,14.107,0,0,0-1.958,13.6h-2.162v4.446l-2.876,21.568-.008.059v2.763h36.046V58.73ZM224.354,1.8h9.052V3.684h-9.052Zm-8.97,32.529h16.882v-1.8H217.7a12.344,12.344,0,0,1,.679-11.365,13.482,13.482,0,0,1,7.78-5.68v-10H231.6v9.989a12.535,12.535,0,0,1,7.813,5.674,12.348,12.348,0,0,1,.687,11.381h-2.431v1.8h4.745v1.8H215.384Zm19.973,3.6a12.3,12.3,0,0,1-12.915,0ZM226.9,51a7.215,7.215,0,0,1,1.773-4.4,7.462,7.462,0,0,1,1.834,3.821c.148,1.519-.8,2.125-1.837,2.981C227.912,52.746,226.9,52.122,226.9,51Zm9.026,8.566H221.512v-3.6H235.93Zm9.011,0h-7.209V54.157h-7.141a4.117,4.117,0,0,0,1.743-2.988,7.319,7.319,0,0,0-1.319-4.456c-.743-1.078-1.58-2.1-2.37-3.14-.792,1.092-1.646,2.158-2.373,3.295A7.449,7.449,0,0,0,225.1,51a4.143,4.143,0,0,0,1.687,3.159h-7.079v5.407H212.5v-.841l2.771-20.786h4.185a14.087,14.087,0,0,0,18.886,0h4.174l2.425,20.9v.729Z" transform="translate(-185.386 0)"/>
        <path id="Trazado_1176114" data-name="Trazado 1176114" d="M23.43,225.284H16.342v7.189h-1.81v-7.189H7.322v7.189H5.48V225.23h-1.8v7.243H.032v5.407H3.678v21.654h19.8v-1.8h-18V237.88H7.322v14.4a3.548,3.548,0,0,0,3.544,3.544h.12a3.548,3.548,0,0,0,3.544-3.544v-5.366h-1.8v5.366a1.744,1.744,0,0,1-1.742,1.742h-.12a1.744,1.744,0,0,1-1.742-1.742v-14.4h3.6v3.571h1.8V237.88h1.81v14.4a3.544,3.544,0,0,0,7.089,0v-5.366h-1.8v5.366a1.742,1.742,0,0,1-3.484,0v-14.4h3.484v3.571h1.8V237.88h1.913v-5.407H23.43v-7.189Zm-5.286,1.8h3.484V228.8H18.144Zm0,3.517h3.484v1.87H18.144Zm-9.019-3.517h3.6V228.8h-3.6Zm0,3.517h3.6v1.87h-3.6Zm-7.29,5.474v-1.8H3.678v1.8Zm21.707,0H5.48v-1.8H23.541Z" transform="translate(-0.032 -198.168)"/>
        <path id="Trazado_1176115" data-name="Trazado 1176115" d="M179.771,375.23h1.8v1.8h-1.8Z" transform="translate(-158.175 -330.145)"/>
        <path id="Trazado_1176116" data-name="Trazado 1176116" d="M105.7,375.23h1.8v1.8h-1.8Z" transform="translate(-93.008 -330.145)"/>
      </g>
    </g>
  </g>
</svg>
